<svg width="32" height="32" viewBox="0 0 32 32" fill="none" xmlns="http://www.w3.org/2000/svg">
<path d="M15.7268 11.9532C15.6322 11.9186 15.5456 11.8653 15.472 11.7964C15.3985 11.7276 15.3396 11.6447 15.2988 11.5526C15.258 11.4605 15.2361 11.3612 15.2346 11.2605C15.233 11.1597 15.2518 11.0598 15.2897 10.9665C15.3276 10.8731 15.3839 10.7884 15.4553 10.7174C15.5267 10.6463 15.6116 10.5903 15.7051 10.5528C15.7986 10.5153 15.8986 10.497 15.9993 10.499C16.1 10.501 16.1993 10.5232 16.2912 10.5644L21.5318 12.6943C21.7159 12.7692 21.8627 12.9142 21.9399 13.0973C22.0172 13.2804 22.0187 13.4867 21.944 13.6709L19.8141 18.9115C19.7795 19.006 19.7262 19.0927 19.6573 19.1662C19.5885 19.2398 19.5056 19.2987 19.4135 19.3395C19.3214 19.3803 19.2221 19.4021 19.1214 19.4037C19.0207 19.4052 18.9207 19.3865 18.8274 19.3486C18.734 19.3106 18.6493 19.2543 18.5783 19.1829C18.5072 19.1116 18.4512 19.0266 18.4137 18.9332C18.3762 18.8397 18.3579 18.7396 18.3599 18.6389C18.3619 18.5382 18.3841 18.4389 18.4253 18.347L19.8736 14.7834L10.9462 18.5513C10.7629 18.6286 10.5564 18.63 10.3722 18.5551C10.1879 18.4802 10.0409 18.3352 9.96357 18.1519C9.88623 17.9687 9.88485 17.7622 9.95974 17.5779C10.0346 17.3936 10.1797 17.2467 10.3629 17.1693L19.2904 13.4015L15.7268 11.9532Z" fill="#FA6728"/>
</svg>
