<svg width="10" height="10" viewBox="0 0 10 10" fill="none" xmlns="http://www.w3.org/2000/svg">
    <path
        d="M9.13899 6.79733L7.94653 0.0895022L1.2326 1.24714C1.16103 1.24991 1.09088 1.26803 1.02692 1.30027C0.962959 1.33252 0.90667 1.37812 0.861866 1.43401C0.817062 1.4899 0.78479 1.55476 0.767232 1.6242C0.749674 1.69364 0.747241 1.76605 0.760099 1.83651C0.772956 1.90698 0.800804 1.97386 0.841756 2.03262C0.882707 2.09139 0.935808 2.14067 0.997462 2.17713C1.05912 2.2136 1.12788 2.23638 1.19911 2.24396C1.27034 2.25153 1.34236 2.24371 1.4103 2.22103L6.44277 1.3614L0.947156 9.19004C0.870965 9.29857 0.84101 9.43293 0.863882 9.56355C0.886753 9.69417 0.960576 9.81035 1.06911 9.88655C1.17765 9.96274 1.312 9.99269 1.44263 9.96982C1.57325 9.94695 1.68943 9.87312 1.76562 9.76459L7.26123 1.93596L8.16265 6.9611C8.186 7.09172 8.26027 7.20771 8.36914 7.28356C8.478 7.3594 8.61254 7.3889 8.74315 7.36556C8.87377 7.34221 8.98976 7.26793 9.06561 7.15907C9.14145 7.0502 9.17095 6.91567 9.1476 6.78505L9.13899 6.79733Z"
        fill="black" />
</svg>
    