<svg width="24" height="24" viewBox="0 0 24 24" fill="none" xmlns="http://www.w3.org/2000/svg">
<g clip-path="url(#clip0_401_2864)">
<path d="M18.4396 13.5933L11.9996 20L5.55965 13.5933C5.48367 13.5355 5.421 13.462 5.3759 13.3778C5.3308 13.2936 5.30431 13.2007 5.29823 13.1054C5.29215 13.0101 5.30662 12.9146 5.34065 12.8253C5.37469 12.7361 5.4275 12.6552 5.49552 12.5882C5.56353 12.5211 5.64515 12.4695 5.73486 12.4367C5.82457 12.404 5.92028 12.3909 6.01549 12.3983C6.1107 12.4057 6.20321 12.4336 6.28674 12.4799C6.37027 12.5262 6.44288 12.5899 6.49965 12.6667L11.333 17.46V4.70667C11.333 4.52986 11.4032 4.36029 11.5282 4.23526C11.6533 4.11024 11.8228 4.04 11.9996 4.04C12.1765 4.04 12.346 4.11024 12.4711 4.23526C12.5961 4.36029 12.6663 4.52986 12.6663 4.70667V17.46L17.4996 12.6667C17.6252 12.542 17.7951 12.4723 17.972 12.473C18.1489 12.4736 18.3183 12.5445 18.443 12.67C18.5676 12.7955 18.6373 12.9654 18.6367 13.1424C18.6361 13.3193 18.5652 13.4887 18.4396 13.6133V13.5933Z" fill="white"/>
</g>
<defs>
<clipPath id="clip0_401_2864">
<rect width="24" height="24" fill="white" transform="matrix(1 0 0 -1 0 24)"/>
</clipPath>
</defs>
</svg>
