<svg width="28" height="28" viewBox="0 0 28 28" fill="none" xmlns="http://www.w3.org/2000/svg">
    <path
        d="M10.9901 24.3105V16.0017H7.81003C7.64493 16.0017 7.48658 15.9361 7.36984 15.8193C7.25309 15.7026 7.1875 15.5442 7.1875 15.3791V12.0928C7.1875 11.9277 7.25309 11.7694 7.36984 11.6526C7.48658 11.5359 7.64493 11.4703 7.81003 11.4703H10.9775V8.28911C10.9018 7.5347 10.9921 6.77285 11.2421 6.05707C11.4922 5.34129 11.8959 4.68894 12.425 4.14584C12.9541 3.60273 13.5956 3.18204 14.3046 2.91332C15.0136 2.6446 15.7728 2.53436 16.5289 2.59035H19.179C19.3457 2.59003 19.5058 2.65523 19.6248 2.77191C19.7438 2.88859 19.8122 3.04738 19.8152 3.21403V5.99658C19.8116 6.16294 19.743 6.32127 19.6241 6.43764C19.5052 6.55401 19.3454 6.61916 19.179 6.61912H17.5227C15.7339 6.61912 15.3901 7.46668 15.3901 8.71289V11.4692H19.6427C19.7311 11.4662 19.8191 11.4826 19.9005 11.5171C19.9819 11.5516 20.0549 11.6035 20.1142 11.669C20.1736 11.7346 20.2179 11.8123 20.2442 11.8967C20.2705 11.9811 20.2781 12.0703 20.2664 12.158L19.8815 15.4568C19.8622 15.6079 19.7882 15.7467 19.6735 15.8469C19.5587 15.9471 19.4113 16.0018 19.2589 16.0005H15.4164V24.3094C15.4185 24.4562 15.3912 24.6019 15.336 24.7379C15.2807 24.874 15.1988 24.9975 15.0949 25.1013C14.991 25.205 14.8674 25.2869 14.7313 25.342C14.5952 25.397 14.4495 25.4242 14.3027 25.4219H12.0901C11.9444 25.4224 11.8002 25.3938 11.6657 25.3379C11.5312 25.282 11.4092 25.1999 11.3068 25.0963C11.2044 24.9928 11.1236 24.8698 11.0693 24.7347C11.0149 24.5996 10.988 24.4561 10.9901 24.3105Z"
        fill="black" />
</svg>
    