<svg width="81" height="80" viewBox="0 0 81 80" fill="none" xmlns="http://www.w3.org/2000/svg">
<rect x="0.75" y="0.25" width="79.5" height="79.5" rx="39.75" fill="white"/>
<rect x="0.75" y="0.25" width="79.5" height="79.5" rx="39.75" stroke="black" stroke-width="0.5"/>
<g clip-path="url(#clip0_0_5000)">
<path d="M50.033 55.5557H30.033C29.7383 55.5557 29.4557 55.6727 29.2473 55.8811C29.0389 56.0895 28.9219 56.3721 28.9219 56.6668C28.9219 56.9615 29.0389 57.2441 29.2473 57.4525C29.4557 57.6608 29.7383 57.7779 30.033 57.7779H50.033C50.3277 57.7779 50.6103 57.6608 50.8187 57.4525C51.027 57.2441 51.1441 56.9615 51.1441 56.6668C51.1441 56.3721 51.027 56.0895 50.8187 55.8811C50.6103 55.6727 50.3277 55.5557 50.033 55.5557Z" fill="url(#paint0_linear_0_5000)"/>
<path d="M55.5013 34.8336C54.9528 34.945 54.3944 35.0008 53.8346 35.0002C52.5713 35.0002 51.3248 34.7113 50.1902 34.1558C49.4722 36.2259 48.4295 38.1687 47.1013 39.9114C47.3402 40.3111 47.4669 40.7679 47.468 41.2336C49.2947 41.6117 51.1587 41.7794 53.0235 41.7336C52.8368 42.3151 52.6103 42.8831 52.3457 43.4336H51.7235C50.1038 43.4281 48.4911 43.219 46.9235 42.8114C46.5511 43.3176 46.0045 43.668 45.389 43.7952C44.7735 43.9224 44.1328 43.8173 43.5902 43.5002C41.3065 45.3393 38.6539 46.6656 35.8124 47.3891C35.7262 47.8464 35.5189 48.2722 35.2121 48.622C34.9052 48.9719 34.5101 49.2329 34.068 49.378L33.7457 49.4447C32.3078 48.6506 31.0305 47.5956 29.9791 46.3336H30.7124C30.8187 45.8045 31.0876 45.3218 31.4816 44.9531C31.8756 44.5844 32.375 44.348 32.91 44.277C33.445 44.206 33.9887 44.3039 34.4653 44.5571C34.9418 44.8103 35.3274 45.2061 35.568 45.6891C38.0872 45.0255 40.4408 43.8449 42.4791 42.2225C42.3001 41.814 42.2312 41.3658 42.2791 40.9225C41.8124 40.6558 41.3457 40.378 40.8902 40.078C38.4689 38.4739 36.4376 36.3478 34.9457 33.8558C34.4996 33.9783 34.0286 33.9779 33.5827 33.8547C33.1367 33.7314 32.7324 33.49 32.4124 33.1558C30.3456 34.6697 28.4789 36.4393 26.8569 38.4225V37.7891C26.8622 37.1455 26.9142 36.5031 27.0124 35.8669C28.3458 34.2319 29.9192 32.8084 31.6791 31.6447C31.6166 31.1542 31.699 30.6561 31.9162 30.2118C32.1334 29.7676 32.4758 29.3966 32.9013 29.1447C32.768 28.6669 32.6346 28.1891 32.5346 27.7002C32.5346 27.5447 32.5346 27.378 32.4124 26.9891C32.8974 26.6329 33.406 26.31 33.9346 26.0225C34.0457 26.678 34.0902 27.0225 34.168 27.3669C34.2457 27.7114 34.3902 28.3114 34.5235 28.778H34.8013C35.2775 28.8882 35.7128 29.1308 36.0569 29.478C39.1389 28.3994 42.4329 28.0681 45.668 28.5114C45.277 26.8059 45.4365 25.0205 46.1235 23.4114C43.7631 22.4438 41.2009 22.0716 38.6628 22.3275C36.1246 22.5835 33.6883 23.4597 31.5686 24.8791C29.4489 26.2985 27.7108 28.2174 26.5074 30.4668C25.304 32.7162 24.6723 35.227 24.668 37.778C24.668 38.278 24.668 38.7669 24.7457 39.2558C24.9462 41.3521 25.5703 43.3858 26.58 45.2338C27.5898 47.0818 28.9642 48.7055 30.6201 50.0065C32.276 51.3075 34.1788 52.2588 36.2132 52.8027C38.2476 53.3466 40.3713 53.4717 42.4555 53.1705C44.5396 52.8693 46.541 52.1481 48.3382 51.0505C50.1354 49.953 51.691 48.5019 52.9108 46.7853C54.1306 45.0687 54.9892 43.1223 55.4345 41.0641C55.8798 39.0058 55.9025 36.8786 55.5013 34.8114V34.8336Z" fill="url(#paint1_linear_0_5000)"/>
<path d="M36.8543 30.9669C36.91 31.313 36.8923 31.667 36.8023 32.0058C36.7123 32.3446 36.5521 32.6607 36.332 32.9336C37.6936 35.261 39.5668 37.2481 41.8098 38.7447C42.1876 39.0002 42.5765 39.2225 42.9209 39.4447C43.2738 39.0545 43.7395 38.7839 44.2532 38.6704C44.7669 38.5569 45.3032 38.6062 45.7876 38.8114C47.0569 37.1339 48.037 35.2562 48.6876 33.2558C47.6689 32.4659 46.8474 31.4503 46.2876 30.2891C43.1365 29.7115 39.8903 29.9447 36.8543 30.9669Z" fill="url(#paint2_linear_0_5000)"/>
<path d="M53.8329 32.2224C56.9011 32.2224 59.3885 29.7351 59.3885 26.6669C59.3885 23.5986 56.9011 21.1113 53.8329 21.1113C50.7647 21.1113 48.2773 23.5986 48.2773 26.6669C48.2773 29.7351 50.7647 32.2224 53.8329 32.2224Z" fill="url(#paint3_linear_0_5000)"/>
</g>
<defs>
<linearGradient id="paint0_linear_0_5000" x1="40.033" y1="55.5557" x2="40.033" y2="57.7779" gradientUnits="userSpaceOnUse">
<stop stop-color="#4B9ADB"/>
<stop offset="1" stop-color="#9747FF"/>
</linearGradient>
<linearGradient id="paint1_linear_0_5000" x1="40.2271" y1="22.249" x2="40.2271" y2="53.3304" gradientUnits="userSpaceOnUse">
<stop stop-color="#4B9ADB"/>
<stop offset="1" stop-color="#9747FF"/>
</linearGradient>
<linearGradient id="paint2_linear_0_5000" x1="42.5098" y1="29.9795" x2="42.5098" y2="39.4447" gradientUnits="userSpaceOnUse">
<stop stop-color="#4B9ADB"/>
<stop offset="1" stop-color="#9747FF"/>
</linearGradient>
<linearGradient id="paint3_linear_0_5000" x1="53.8329" y1="21.1113" x2="53.8329" y2="32.2224" gradientUnits="userSpaceOnUse">
<stop stop-color="#4B9ADB"/>
<stop offset="1" stop-color="#9747FF"/>
</linearGradient>
<clipPath id="clip0_0_5000">
<rect width="40" height="40" fill="white" transform="translate(20.5 20)"/>
</clipPath>
</defs>
</svg>
