<svg width="81" height="80" viewBox="0 0 81 80" fill="none" xmlns="http://www.w3.org/2000/svg">
<rect x="0.75" y="0.25" width="79.5" height="79.5" rx="39.75" fill="white"/>
<rect x="0.75" y="0.25" width="79.5" height="79.5" rx="39.75" stroke="black" stroke-width="0.5"/>
<path d="M40.918 25V29.0667L32.243 34.2333C32.0964 34.312 31.9736 34.4285 31.8871 34.5706C31.8007 34.7127 31.7538 34.8753 31.7513 35.0417V44.9183C31.7513 45.2517 31.8513 45.4517 32.1346 45.6267L40.693 50.7183C40.9846 50.8933 41.343 50.8933 41.6346 50.7183L49.218 46.0933L52.5846 48.61L42.1096 54.7517C41.5263 55.085 40.8096 55.085 40.2263 54.735L29.3346 48.1267C29.0561 47.9563 28.8257 47.7176 28.6652 47.4332C28.5048 47.1488 28.4197 46.8282 28.418 46.5017V33.375C28.418 32.7 28.768 32.075 29.3346 31.7333L40.918 25ZM40.918 29.8667V32.725L35.3346 36.1C35.1513 36.2167 35.0846 36.5083 35.0846 36.725V43.2083L35.0763 43.3683C35.0596 43.5267 35.0513 43.66 35.193 43.7433L40.6263 47.01C40.818 47.1267 41.0513 47.1183 41.243 47.01L46.2096 43.9767L48.4013 45.6183L41.5513 49.6433C41.3652 49.7521 41.1532 49.8087 40.9377 49.8073C40.7221 49.8058 40.5109 49.7463 40.3263 49.635L33.2013 45.3017C33.0162 45.1911 32.8625 45.035 32.7545 44.8484C32.6466 44.6617 32.5881 44.4506 32.5846 44.235V35.6417C32.5846 35.2 32.8346 34.7917 33.2013 34.5583L40.918 29.875V29.8667ZM41.3346 43.3333C41.7234 43.3426 42.1101 43.2741 42.472 43.1317C42.8339 42.9894 43.1637 42.7761 43.4419 42.5044C43.7202 42.2327 43.9413 41.9081 44.0923 41.5497C44.2432 41.1914 44.321 40.8064 44.321 40.4175C44.321 40.0286 44.2432 39.6436 44.0923 39.2853C43.9413 38.9269 43.7202 38.6023 43.4419 38.3306C43.1637 38.0589 42.8339 37.8456 42.472 37.7033C42.1101 37.5609 41.7234 37.4924 41.3346 37.5017C40.5611 37.5017 39.8192 37.809 39.2722 38.3559C38.7253 38.9029 38.418 39.6448 38.418 40.4183C38.418 41.1919 38.7253 41.9337 39.2722 42.4807C39.8192 43.0277 40.5611 43.335 41.3346 43.335M50.5013 35.21C50.5013 35.7073 50.3038 36.1842 49.9521 36.5358C49.6005 36.8875 49.1236 37.085 48.6263 37.085C48.129 37.085 47.6521 36.8875 47.3005 36.5358C46.9488 36.1842 46.7513 35.7073 46.7513 35.21C46.7513 34.7127 46.9488 34.2358 47.3005 33.8842C47.6521 33.5325 48.129 33.335 48.6263 33.335C49.1236 33.335 49.6005 33.5325 49.9521 33.8842C50.3038 34.2358 50.5013 34.7127 50.5013 35.21ZM45.918 37.5033C46.139 37.5033 46.3509 37.4155 46.5072 37.2593C46.6635 37.103 46.7513 36.891 46.7513 36.67C46.7513 36.449 46.6635 36.237 46.5072 36.0807C46.3509 35.9245 46.139 35.8367 45.918 35.8367C45.697 35.8367 45.485 35.9245 45.3287 36.0807C45.1724 36.237 45.0846 36.449 45.0846 36.67C45.0846 36.891 45.1724 37.103 45.3287 37.2593C45.485 37.4155 45.697 37.5033 45.918 37.5033Z" fill="url(#paint0_linear_0_5012)"/>
<defs>
<linearGradient id="paint0_linear_0_5012" x1="40.5013" y1="25" x2="40.5013" y2="54.9996" gradientUnits="userSpaceOnUse">
<stop stop-color="#4B9ADB"/>
<stop offset="1" stop-color="#9747FF"/>
</linearGradient>
</defs>
</svg>
