<svg width="81" height="80" viewBox="0 0 81 80" fill="none" xmlns="http://www.w3.org/2000/svg">
<rect x="0.75" y="0.25" width="79.5" height="79.5" rx="39.75" fill="white"/>
<rect x="0.75" y="0.25" width="79.5" height="79.5" rx="39.75" stroke="black" stroke-width="0.5"/>
<path d="M25.9941 54.3369L36.6008 43.7302M49.9575 39.0136L46.7825 48.5386C46.7318 48.6912 46.645 48.8294 46.5296 48.9414C46.4141 49.0534 46.2733 49.1359 46.1191 49.1819L26.6558 54.9669C26.4804 55.019 26.2942 55.0219 26.1172 54.9755C25.9403 54.9291 25.7795 54.835 25.6523 54.7035C25.5252 54.5721 25.4365 54.4082 25.396 54.2299C25.3554 54.0515 25.3646 53.8654 25.4225 53.6919L31.7425 34.7352C31.7878 34.5991 31.8618 34.4743 31.9596 34.3694C32.0574 34.2644 32.1766 34.1817 32.3091 34.1269L41.2875 30.4302C41.47 30.3548 41.6708 30.3352 41.8644 30.3737C42.0581 30.4123 42.2361 30.5073 42.3758 30.6469L49.7158 37.9902C49.8471 38.1215 49.9393 38.2868 49.982 38.4676C50.0247 38.6483 50.0162 38.8374 49.9575 39.0136Z" stroke="url(#paint0_linear_0_5004)" stroke-width="3" stroke-linecap="round" stroke-linejoin="round"/>
<path d="M50.1532 38.4271L54.8666 33.7121C55.4915 33.087 55.8425 32.2394 55.8425 31.3555C55.8425 30.4716 55.4915 29.6239 54.8666 28.9988L51.3332 25.4621C51.0237 25.1525 50.6562 24.9068 50.2517 24.7392C49.8471 24.5716 49.4136 24.4854 48.9757 24.4854C48.5379 24.4854 48.1043 24.5716 47.6998 24.7392C47.2953 24.9068 46.9278 25.1525 46.6182 25.4621L41.9049 30.1771M40.1349 40.1938C39.9027 39.9617 39.627 39.7776 39.3236 39.652C39.0203 39.5264 38.6951 39.4619 38.3668 39.4619C38.0385 39.462 37.7134 39.5267 37.4101 39.6525C37.1068 39.7782 36.8312 39.9624 36.5991 40.1946C36.367 40.4269 36.1829 40.7025 36.0573 41.0059C35.9317 41.3093 35.8671 41.6344 35.8672 41.9627C35.8673 42.2911 35.932 42.6162 36.0577 42.9195C36.1834 43.2228 36.3677 43.4984 36.5999 43.7305C37.0689 44.1992 37.7049 44.4625 38.368 44.4624C39.0311 44.4622 39.667 44.1986 40.1357 43.7296C40.6045 43.2606 40.8678 42.6246 40.8676 41.9615C40.8675 41.2985 40.6039 40.6626 40.1349 40.1938Z" stroke="url(#paint1_linear_0_5004)" stroke-width="3" stroke-linecap="round" stroke-linejoin="round"/>
<defs>
<linearGradient id="paint0_linear_0_5004" x1="37.6899" y1="30.3545" x2="37.6899" y2="55.0083" gradientUnits="userSpaceOnUse">
<stop stop-color="#4B9ADB"/>
<stop offset="1" stop-color="#9747FF"/>
</linearGradient>
<linearGradient id="paint1_linear_0_5004" x1="45.8549" y1="24.4854" x2="45.8549" y2="44.4624" gradientUnits="userSpaceOnUse">
<stop stop-color="#4B9ADB"/>
<stop offset="1" stop-color="#9747FF"/>
</linearGradient>
</defs>
</svg>
