<svg width="29" height="28" viewBox="0 0 29 28" fill="none" xmlns="http://www.w3.org/2000/svg">
<path fill-rule="evenodd" clip-rule="evenodd" d="M11.6265 10.5376H15.8689V12.6508C16.48 11.4354 18.0472 10.3434 20.4014 10.3434C24.9145 10.3434 25.9859 12.7627 25.9859 17.2016V25.4224H21.4168V18.2125C21.4168 15.6846 20.8057 14.2591 19.25 14.2591C17.0922 14.2591 16.1956 15.7954 16.1956 18.2113V25.4224H11.6265V10.5376ZM3.79172 25.2282H8.36077V10.3434H3.79172V25.2282ZM9.01529 5.48992C9.01546 5.87289 8.9395 6.25208 8.79185 6.60544C8.64419 6.9588 8.42777 7.27929 8.15516 7.54828C7.88175 7.82027 7.55742 8.03573 7.20071 8.18233C6.844 8.32893 6.4619 8.40382 6.07624 8.40269C5.29905 8.40095 4.55351 8.09461 3.99961 7.54942C3.72809 7.27944 3.51247 6.95858 3.36508 6.60519C3.21768 6.2518 3.14141 5.87282 3.14062 5.48992C3.14063 4.71661 3.44904 3.97642 4.00075 3.43042C4.55326 2.88314 5.2997 2.57644 6.07738 2.57715C6.85641 2.57715 7.60345 2.88442 8.15516 3.43042C8.70688 3.97642 9.01529 4.71661 9.01529 5.48992Z" fill="black"/>
</svg>
