<svg width="16" height="16" viewBox="0 0 16 16" fill="none" xmlns="http://www.w3.org/2000/svg">
<path d="M6.74333 14.5406C7.14733 14.874 7.56867 15.1786 8 15.476C8.43226 15.1826 8.85155 14.8705 9.25667 14.5406C9.932 13.9861 10.5676 13.3848 11.1587 12.7413C12.5213 11.2513 14 9.09129 14 6.66663C14 5.8787 13.8448 5.09848 13.5433 4.37053C13.2417 3.64257 12.7998 2.98114 12.2426 2.42399C11.6855 1.86683 11.0241 1.42488 10.2961 1.12335C9.56815 0.821821 8.78793 0.666626 8 0.666626C7.21207 0.666626 6.43185 0.821821 5.7039 1.12335C4.97595 1.42488 4.31451 1.86683 3.75736 2.42399C3.20021 2.98114 2.75825 3.64257 2.45672 4.37053C2.15519 5.09848 2 5.8787 2 6.66663C2 9.09129 3.47867 11.2506 4.84133 12.7413C5.43241 13.3851 6.06798 13.9859 6.74333 14.5406ZM8 8.83329C7.42536 8.83329 6.87426 8.60502 6.46794 8.19869C6.06161 7.79236 5.83333 7.24126 5.83333 6.66663C5.83333 6.09199 6.06161 5.54089 6.46794 5.13456C6.87426 4.72823 7.42536 4.49996 8 4.49996C8.57464 4.49996 9.12574 4.72823 9.53206 5.13456C9.93839 5.54089 10.1667 6.09199 10.1667 6.66663C10.1667 7.24126 9.93839 7.79236 9.53206 8.19869C9.12574 8.60502 8.57464 8.83329 8 8.83329Z" fill="white"/>
</svg>
