<svg width="242" height="25" viewBox="0 0 242 25" fill="none" xmlns="http://www.w3.org/2000/svg">
<path d="M17.3125 23.7031C15.6354 23.7031 13.9688 23.5833 12.3125 23.3438C10.6562 23.1146 9.09375 22.7344 7.625 22.2031C6.15625 21.6615 4.85417 20.9427 3.71875 20.0469C2.58333 19.1406 1.69271 18.0312 1.04688 16.7188C0.401042 15.3958 0.078125 13.8333 0.078125 12.0312C0.078125 10.3333 0.380208 8.85938 0.984375 7.60938C1.59896 6.34896 2.44271 5.28125 3.51562 4.40625C4.58854 3.52083 5.82292 2.79688 7.21875 2.23438C8.61458 1.66146 10.1042 1.21875 11.6875 0.90625C13.2812 0.59375 14.8906 0.369792 16.5156 0.234375C17.349 0.171875 18.1719 0.140625 18.9844 0.140625C19.5052 0.140625 20.0156 0.15625 20.5156 0.1875C21.026 0.208333 21.5208 0.244792 22 0.296875V7.42188C21.375 7.33854 20.7135 7.27083 20.0156 7.21875C19.3177 7.16667 18.5833 7.14062 17.8125 7.14062C16.7292 7.14062 15.7552 7.29688 14.8906 7.60938C14.026 7.92188 13.3438 8.42708 12.8438 9.125C12.3542 9.8125 12.1094 10.7396 12.1094 11.9062C12.1094 13.1979 12.349 14.224 12.8281 14.9844C13.3177 15.7448 13.9844 16.2917 14.8281 16.625C15.6823 16.9479 16.6458 17.125 17.7188 17.1562C18.2292 17.1562 18.8854 17.099 19.6875 16.9844C20.5 16.8698 21.2708 16.7448 22 16.6094V23.4688C21.1562 23.5625 20.3281 23.625 19.5156 23.6562C18.7135 23.6875 17.9792 23.7031 17.3125 23.7031ZM49.3906 23.4688C49.0677 23.4688 48.75 23.4531 48.4375 23.4219C48.125 23.401 47.8177 23.3854 47.5156 23.375C47.2344 22.875 47.0052 22.401 46.8281 21.9531C46.651 21.4948 46.4792 20.9844 46.3125 20.4219C46.1667 20.401 45.7917 20.3854 45.1875 20.375C44.5938 20.3646 43.8854 20.3542 43.0625 20.3438C42.2396 20.3333 41.4115 20.3281 40.5781 20.3281C39.7448 20.3177 39.0052 20.3125 38.3594 20.3125C37.724 20.3021 37.2969 20.2969 37.0781 20.2969C36.8594 20.8594 36.6667 21.3281 36.5 21.7031C36.3438 22.0781 36.1458 22.5885 35.9062 23.2344C35.6771 23.2656 35.4323 23.2917 35.1719 23.3125C34.9219 23.3333 34.625 23.3438 34.2812 23.3438C34.1458 23.3438 33.8385 23.3229 33.3594 23.2812C32.8906 23.2396 32.3281 23.1823 31.6719 23.1094C31.0156 23.0365 30.3385 22.9635 29.6406 22.8906C28.9427 22.8177 28.2969 22.75 27.7031 22.6875C27.1198 22.6146 26.6615 22.5625 26.3281 22.5312C26.724 21.7292 27.7656 19.5208 29.4531 15.9062C31.1406 12.2812 33.4323 7.30208 36.3281 0.96875C37.901 0.885417 39.6198 0.760417 41.4844 0.59375C43.3594 0.416667 45.3073 0.328125 47.3281 0.328125C47.8177 0.328125 48.3021 0.34375 48.7812 0.375C49.2708 0.40625 49.7292 0.494792 50.1562 0.640625C50.1667 0.682292 50.3125 1.04167 50.5938 1.71875C50.8854 2.39583 51.2656 3.28646 51.7344 4.39062C52.2135 5.49479 52.7448 6.72917 53.3281 8.09375C53.9115 9.44792 54.5052 10.8385 55.1094 12.2656C55.724 13.6823 56.3125 15.0469 56.875 16.3594C57.4375 17.6615 57.9323 18.8073 58.3594 19.7969C58.599 20.4323 58.8333 20.9583 59.0625 21.375C59.3021 21.7812 59.5052 22.1719 59.6719 22.5469C57.7344 22.724 56.1406 22.875 54.8906 23C53.651 23.1146 52.6719 23.2031 51.9531 23.2656C51.2344 23.3281 50.7031 23.375 50.3594 23.4062C50.0156 23.4375 49.7812 23.4531 49.6562 23.4531C49.5417 23.4635 49.4531 23.4688 49.3906 23.4688ZM39.4219 14.5625H44.375C44.0104 13.3854 43.6354 12.1927 43.25 10.9844C42.875 9.77604 42.5052 8.46354 42.1406 7.04688C41.5365 8.93229 41.0052 10.4583 40.5469 11.625C40.099 12.7917 39.724 13.7708 39.4219 14.5625ZM63.1719 23.3438C63.224 23.0417 63.3021 22.4115 63.4062 21.4531C63.5208 20.4844 63.6458 19.2708 63.7812 17.8125C63.9271 16.3542 64.0729 14.724 64.2188 12.9219C64.375 11.1094 64.5156 9.19792 64.6406 7.1875C64.776 5.17708 64.8802 3.14583 64.9531 1.09375C64.9531 1.09375 65.2969 1.06771 65.9844 1.01562C66.6823 0.953125 67.6042 0.885417 68.75 0.8125C69.9062 0.729167 71.1875 0.651042 72.5938 0.578125C74 0.494792 75.4219 0.427083 76.8594 0.375C78.2969 0.3125 79.6406 0.28125 80.8906 0.28125C82.8802 0.28125 84.7292 0.479167 86.4375 0.875C88.1458 1.27083 89.6354 1.89062 90.9062 2.73438C92.1875 3.57812 93.1823 4.66146 93.8906 5.98438C94.6094 7.30729 94.9688 8.90104 94.9688 10.7656C94.9688 13.151 94.6406 15.1042 93.9844 16.625C93.3281 18.1354 92.4115 19.3229 91.2344 20.1875C90.0677 21.0521 88.7083 21.6823 87.1562 22.0781C85.6042 22.474 83.9271 22.7448 82.125 22.8906C80.3229 23.026 78.4688 23.1354 76.5625 23.2188C75.4271 23.2604 74.2917 23.2917 73.1562 23.3125C72.0312 23.3333 70.9062 23.3438 69.7812 23.3438H63.1719ZM75.1875 17.375C76.5833 17.3646 77.8281 17.2917 78.9219 17.1562C80.0156 17.0104 80.9427 16.7396 81.7031 16.3438C82.474 15.9375 83.0573 15.3385 83.4531 14.5469C83.8594 13.7552 84.0625 12.6979 84.0625 11.375C84.0625 10.1667 83.8073 9.1875 83.2969 8.4375C82.7865 7.67708 82.151 7.125 81.3906 6.78125C80.6302 6.42708 79.8646 6.25 79.0938 6.25C78.5104 6.25 77.8646 6.26562 77.1562 6.29688C76.4583 6.32812 75.974 6.35417 75.7031 6.375L75.1875 17.375ZM120.641 24.3438C120.495 24.0729 120.271 23.6354 119.969 23.0312C119.667 22.4271 119.323 21.7396 118.938 20.9688C118.562 20.1979 118.182 19.4167 117.797 18.625C117.422 17.8229 117.078 17.0885 116.766 16.4219C116.464 15.7448 116.229 15.2135 116.062 14.8281L112.234 15.0938L111.922 22.8594C111.922 22.9427 111.885 22.9896 111.812 23C111.167 23.0312 110.391 23.0833 109.484 23.1562C108.589 23.2396 107.708 23.3125 106.844 23.375C105.979 23.4375 105.271 23.4688 104.719 23.4688L101.062 23.5938C101.062 22.1771 101.094 20.5104 101.156 18.5938C101.229 16.6771 101.302 14.7812 101.375 12.9062L101.469 10.3281L101.625 1.21875C101.667 1.21875 101.797 1.21875 102.016 1.21875C102.234 1.20833 102.641 1.19271 103.234 1.17188C103.828 1.14062 104.703 1.09375 105.859 1.03125C107.016 0.96875 108.542 0.885417 110.438 0.78125C112.333 0.666667 114.703 0.526042 117.547 0.359375C119.339 0.359375 121.052 0.421875 122.688 0.546875C124.333 0.671875 125.797 0.953125 127.078 1.39062C128.359 1.81771 129.37 2.47396 130.109 3.35938C130.849 4.23438 131.219 5.43229 131.219 6.95312C131.219 8.01562 130.948 8.95833 130.406 9.78125C129.875 10.5938 129.182 11.2812 128.328 11.8438C127.484 12.4062 126.589 12.849 125.641 13.1719C125.995 13.5677 126.417 14.0885 126.906 14.7344C127.406 15.3802 127.932 16.0833 128.484 16.8438C129.047 17.6042 129.604 18.3594 130.156 19.1094C130.708 19.8594 131.219 20.5521 131.688 21.1875C132.156 21.8229 132.542 22.3281 132.844 22.7031L120.641 24.3438ZM112.469 10.7812C113.51 10.6667 114.49 10.5729 115.406 10.5C116.333 10.4167 117.146 10.3021 117.844 10.1562C118.552 10 119.104 9.76562 119.5 9.45312C119.906 9.14062 120.109 8.6875 120.109 8.09375C120.109 7.55208 119.885 7.15625 119.438 6.90625C119 6.64583 118.484 6.47917 117.891 6.40625C117.307 6.32292 116.786 6.28125 116.328 6.28125C115.568 6.28125 114.927 6.29167 114.406 6.3125C113.885 6.33333 113.328 6.35417 112.734 6.375L112.469 10.7812ZM153.109 23.75C151.651 23.75 150.156 23.6979 148.625 23.5938C147.094 23.4896 145.62 23.2656 144.203 22.9219C142.786 22.5781 141.516 22.0469 140.391 21.3281C139.266 20.599 138.37 19.625 137.703 18.4062C137.047 17.1771 136.719 15.625 136.719 13.75C136.719 13.5417 136.719 13.3281 136.719 13.1094C136.729 12.8802 136.74 12.651 136.75 12.4219L136.828 7.625C136.88 6.0625 136.911 4.75 136.922 3.6875C136.943 2.625 137.01 1.69271 137.125 0.890625L144.703 0.546875L149.531 0.453125C149.51 0.869792 149.495 1.28646 149.484 1.70312C149.484 2.11979 149.484 2.52604 149.484 2.92188L149 13.125C148.99 13.1979 148.984 13.3073 148.984 13.4531C148.984 13.9948 149.109 14.5729 149.359 15.1875C149.609 15.8021 150.052 16.3281 150.688 16.7656C151.323 17.1927 152.224 17.4062 153.391 17.4062C154.786 17.4062 155.917 16.9323 156.781 15.9844C157.656 15.0365 158.125 13.6771 158.188 11.9062L158.484 3.65625L158.562 1.10938C159.615 1.05729 160.714 1.01042 161.859 0.96875C163.016 0.927083 164.307 0.885417 165.734 0.84375C167.161 0.802083 168.802 0.760417 170.656 0.71875C170.656 1.08333 170.656 1.44792 170.656 1.8125C170.667 2.17708 170.672 2.55729 170.672 2.95312C170.661 3.76562 170.635 4.66146 170.594 5.64062C170.552 6.60938 170.505 7.58854 170.453 8.57812C170.401 9.55729 170.344 10.4688 170.281 11.3125C170.229 12.1562 170.172 12.8646 170.109 13.4375C170.047 14 169.984 14.349 169.922 14.4844C169.547 16.0156 168.943 17.3177 168.109 18.3906C167.276 19.4635 166.281 20.349 165.125 21.0469C163.969 21.7448 162.714 22.2917 161.359 22.6875C160.016 23.0833 158.635 23.3594 157.219 23.5156C155.812 23.6719 154.443 23.75 153.109 23.75ZM188.484 23.7969C187.161 23.7865 185.745 23.7031 184.234 23.5469C182.724 23.401 181.193 23.1771 179.641 22.875C178.089 22.5625 176.589 22.1667 175.141 21.6875C175.391 20.6458 175.641 19.6667 175.891 18.75C176.141 17.8229 176.396 16.849 176.656 15.8281C176.656 15.7552 176.698 15.7188 176.781 15.7188C178.302 16.0938 179.708 16.4271 181 16.7188C182.292 17 183.62 17.224 184.984 17.3906C186.349 17.5469 187.891 17.625 189.609 17.625C189.964 17.625 190.328 17.6042 190.703 17.5625C191.089 17.5208 191.417 17.4375 191.688 17.3125C191.958 17.1875 192.094 17.0052 192.094 16.7656C192.094 16.401 191.953 16.1823 191.672 16.1094C191.391 16.0365 191.167 15.9896 191 15.9688C189.365 15.7083 187.771 15.4531 186.219 15.2031C184.667 14.9531 183.219 14.6562 181.875 14.3125C180.542 13.9583 179.365 13.5052 178.344 12.9531C177.333 12.401 176.542 11.6927 175.969 10.8281C175.406 9.96354 175.125 8.89062 175.125 7.60938C175.125 6.24479 175.443 5.10938 176.078 4.20312C176.714 3.29688 177.578 2.57292 178.672 2.03125C179.776 1.47917 181.031 1.06771 182.438 0.796875C183.844 0.515625 185.318 0.333333 186.859 0.25C188.411 0.15625 189.943 0.109375 191.453 0.109375C192.359 0.109375 193.339 0.171875 194.391 0.296875C195.443 0.421875 196.484 0.588542 197.516 0.796875C198.547 1.00521 199.484 1.23438 200.328 1.48438C201.182 1.73438 201.859 1.97917 202.359 2.21875C202.005 3.54167 201.708 4.65104 201.469 5.54688C201.24 6.43229 200.974 7.20833 200.672 7.875C199.234 7.47917 197.823 7.14583 196.438 6.875C195.062 6.60417 193.797 6.40104 192.641 6.26562C191.495 6.11979 190.542 6.04688 189.781 6.04688C189.396 6.04688 188.943 6.06771 188.422 6.10938C187.901 6.14062 187.443 6.22917 187.047 6.375C186.661 6.51042 186.469 6.74479 186.469 7.07812C186.469 7.39062 186.729 7.60938 187.25 7.73438C187.781 7.84896 188.536 7.98958 189.516 8.15625C190.828 8.375 192.167 8.59896 193.531 8.82812C194.906 9.04688 196.224 9.31771 197.484 9.64062C198.745 9.96354 199.87 10.3854 200.859 10.9062C201.859 11.4271 202.651 12.0938 203.234 12.9062C203.818 13.7083 204.109 14.7083 204.109 15.9062C204.109 17.4062 203.724 18.6667 202.953 19.6875C202.193 20.6979 201.115 21.5052 199.719 22.1094C198.323 22.7135 196.672 23.1458 194.766 23.4062C192.859 23.6667 190.766 23.7969 188.484 23.7969ZM211.844 23.3594L209.812 23.2656C209.812 22.3281 209.823 21.2812 209.844 20.125C209.875 18.9583 209.911 17.8229 209.953 16.7188C209.953 16.6042 209.958 16.4635 209.969 16.2969C209.979 16.1302 209.984 15.9896 209.984 15.875L210.281 7.90625C210.333 7.0625 210.391 6.17708 210.453 5.25C210.516 4.3125 210.615 3.19792 210.75 1.90625L210.812 0.96875L211 0.75C211.24 0.708333 211.688 0.666667 212.344 0.625C213.01 0.583333 213.781 0.546875 214.656 0.515625C215.542 0.473958 216.432 0.4375 217.328 0.40625C218.234 0.375 219.052 0.348958 219.781 0.328125C220.521 0.307292 221.068 0.296875 221.422 0.296875H221.719L221.125 8.26562H229.531C229.542 8.20312 229.557 7.94792 229.578 7.5C229.599 7.05208 229.625 6.50521 229.656 5.85938C229.688 5.21354 229.719 4.54688 229.75 3.85938C229.781 3.17188 229.807 2.54167 229.828 1.96875C229.849 1.38542 229.859 0.953125 229.859 0.671875C230.214 0.619792 230.615 0.583333 231.062 0.5625C231.521 0.541667 231.911 0.526042 232.234 0.515625L241.234 0.28125C241.234 0.333333 241.219 0.619792 241.188 1.14062C241.167 1.66146 241.135 2.32812 241.094 3.14062C241.052 3.94271 241.005 4.80208 240.953 5.71875C240.911 6.63542 240.865 7.52083 240.812 8.375C240.771 9.21875 240.734 9.95312 240.703 10.5781C240.682 11.1927 240.672 11.599 240.672 11.7969C240.672 11.9219 240.667 12.0469 240.656 12.1719C240.656 12.2969 240.646 12.5312 240.625 12.875C240.615 13.2188 240.594 13.7656 240.562 14.5156C240.542 15.2656 240.51 16.3177 240.469 17.6719C240.438 19.026 240.396 20.7917 240.344 22.9688C240.198 22.9688 239.849 22.974 239.297 22.9844C238.755 22.9948 238.094 23.0052 237.312 23.0156C236.531 23.0365 235.708 23.0521 234.844 23.0625C233.979 23.0833 233.146 23.099 232.344 23.1094C231.552 23.1302 230.865 23.1458 230.281 23.1562C229.708 23.1667 229.323 23.1719 229.125 23.1719C229.125 22.8906 229.13 22.4635 229.141 21.8906C229.161 21.3073 229.182 20.6667 229.203 19.9688C229.224 19.2708 229.245 18.5885 229.266 17.9219C229.297 17.2552 229.323 16.6979 229.344 16.25H221L220.594 22.9688L212.156 23.3594H211.844Z" fill="white"/>
</svg>
