<svg width="16" height="16" viewBox="0 0 16 16" fill="none" xmlns="http://www.w3.org/2000/svg">
<path d="M3.07733 12.6667C2.77022 12.6667 2.514 12.564 2.30867 12.3587C2.10333 12.1534 2.00044 11.8969 2 11.5894V4.41071C2 4.1036 2.10289 3.84737 2.30867 3.64204C2.51444 3.43671 2.77044 3.33382 3.07667 3.33337H12.9233C13.23 3.33337 13.486 3.43626 13.6913 3.64204C13.8967 3.84782 13.9996 4.10404 14 4.41071V11.59C14 11.8967 13.8971 12.1529 13.6913 12.3587C13.4856 12.5645 13.2296 12.6672 12.9233 12.6667H3.07733ZM8 8.07737L13.3333 4.59004L13.128 4.00004L8 7.33337L2.872 4.00004L2.66667 4.59004L8 8.07737Z" fill="white"/>
</svg>
