<svg width="393" height="303" viewBox="0 0 393 303" fill="none" xmlns="http://www.w3.org/2000/svg">
<path opacity="0.4" d="M127.069 136.643L127.652 136.693L128.265 136.642L127.694 136.626L127.069 136.643ZM123.052 136.763L124.44 136.965C124.961 136.921 125.479 136.877 125.998 136.833C125.512 136.793 125.016 136.753 124.528 136.712C124.041 136.727 123.542 136.747 123.052 136.763ZM120.908 136.455L121.513 136.541C121.728 136.534 121.946 136.525 122.162 136.518L121.571 136.469C121.352 136.464 121.128 136.46 120.908 136.455ZM119.565 136.891L121.231 137.237C121.901 137.178 122.562 137.123 123.224 137.068C122.653 136.985 122.076 136.903 121.502 136.82C120.854 136.845 120.208 136.869 119.565 136.891ZM117.076 136.376L118.425 136.655L119.953 136.599L118.613 136.408C118.1 136.397 117.588 136.387 117.076 136.376ZM114.868 135.918L115.581 136.066L116.33 136.081L115.601 135.977L114.868 135.918ZM116.204 137.015L118.049 137.521C118.788 137.453 119.533 137.384 120.267 137.318L118.411 136.934L116.204 137.015ZM113.608 136.303L115.309 136.77C115.964 136.745 116.617 136.722 117.271 136.698L115.564 136.344C114.913 136.331 114.263 136.316 113.608 136.303ZM111.156 135.631L112.507 136.002C113.032 136.011 113.55 136.023 114.07 136.034L112.69 135.75L111.156 135.631ZM109.037 135.05L109.741 135.243L110.529 135.304L109.845 135.163L109.037 135.05ZM112.934 137.135L114.923 137.821C115.705 137.747 116.497 137.67 117.284 137.595L115.293 137.049C114.508 137.077 113.724 137.105 112.934 137.135ZM110.318 136.235L112.203 136.884C112.941 136.855 113.669 136.829 114.399 136.804L112.491 136.281C111.769 136.265 111.05 136.248 110.318 136.235ZM107.815 135.374C108.369 135.565 108.915 135.752 109.468 135.943C110.113 135.954 110.753 135.966 111.391 135.979L109.72 135.521L107.815 135.374ZM105.396 134.541C105.859 134.701 106.309 134.855 106.771 135.014L108.306 135.133L106.933 134.756L105.396 134.541ZM103.308 133.819C103.544 133.901 103.79 133.988 104.025 134.069L104.852 134.185L104.145 133.991L103.308 133.819ZM109.66 137.256C110.341 137.542 111.047 137.845 111.723 138.127C112.572 138.046 113.424 137.963 114.273 137.883L112.183 137.163C111.344 137.193 110.511 137.221 109.66 137.256ZM107.135 136.19C107.773 136.459 108.421 136.734 109.057 137.001C109.865 136.968 110.656 136.941 111.453 136.912L109.446 136.221C108.677 136.211 107.9 136.202 107.135 136.19ZM104.617 135.127C105.229 135.385 105.842 135.645 106.453 135.902C107.166 135.913 107.886 135.922 108.603 135.931C107.981 135.717 107.368 135.507 106.744 135.291C106.037 135.236 105.331 135.181 104.617 135.127ZM102.159 134.089C102.71 134.322 103.258 134.553 103.809 134.785C104.444 134.833 105.071 134.883 105.7 134.931C105.127 134.733 104.572 134.544 103.996 134.345C103.386 134.259 102.775 134.174 102.159 134.089ZM99.8296 133.106C100.281 133.297 100.727 133.484 101.177 133.675C101.668 133.742 102.166 133.81 102.655 133.877C102.215 133.725 101.757 133.563 101.315 133.41L99.8296 133.106ZM97.7998 132.248C98.0474 132.353 98.2896 132.455 98.5376 132.56L99.3604 132.728L98.6741 132.488L97.7998 132.248ZM106.487 137.398L108.574 138.428C109.441 138.344 110.302 138.263 111.164 138.18C110.464 137.887 109.739 137.577 109.033 137.281C108.189 137.318 107.329 137.362 106.487 137.398ZM103.954 136.147C104.631 136.483 105.299 136.811 105.972 137.144C106.789 137.108 107.618 137.067 108.439 137.03C107.772 136.749 107.097 136.463 106.427 136.18C105.604 136.169 104.777 136.158 103.954 136.147ZM101.447 134.889C102.084 135.208 102.74 135.545 103.374 135.861L105.745 135.893L103.779 135.062C103.005 135.004 102.225 134.947 101.447 134.889ZM99.0207 133.659C99.6112 133.956 100.218 134.269 100.806 134.564C101.523 134.617 102.253 134.668 102.97 134.721C102.36 134.463 101.756 134.209 101.145 133.95L99.0207 133.659ZM96.6447 132.455C97.1822 132.726 97.7273 133.005 98.2637 133.276L100.164 133.536C99.607 133.3 99.0604 133.071 98.5028 132.835L96.6447 132.455ZM94.3879 131.311C94.8295 131.535 95.2727 131.761 95.7134 131.983L97.2101 132.289C96.749 132.093 96.3009 131.906 95.839 131.71L94.3879 131.311ZM92.3764 130.292L93.169 130.694L93.9207 130.9C93.6298 130.776 93.3348 130.649 93.043 130.524L92.3764 130.292ZM103.329 137.543C104.015 137.942 104.697 138.336 105.381 138.734C106.288 138.644 107.179 138.562 108.076 138.476L105.943 137.423C105.074 137.462 104.198 137.504 103.329 137.543ZM100.852 136.105C101.532 136.501 102.206 136.89 102.886 137.285C103.732 137.247 104.582 137.206 105.428 137.168C104.733 136.824 104.044 136.487 103.343 136.138C102.514 136.127 101.685 136.116 100.852 136.105ZM98.3759 134.668C99.0417 135.057 99.6967 135.433 100.36 135.819C101.166 135.829 101.966 135.841 102.767 135.852C102.113 135.525 101.428 135.17 100.77 134.84C99.9733 134.782 99.1717 134.726 98.3759 134.668ZM95.9094 133.233C96.5551 133.614 97.1847 133.973 97.8276 134.349L100.129 134.515C99.5006 134.2 98.8563 133.868 98.2258 133.55L95.9094 133.233ZM93.5512 131.823C94.1298 132.166 94.7251 132.53 95.3017 132.87L97.4683 133.167C96.8729 132.866 96.2699 132.559 95.6723 132.256L93.5512 131.823ZM91.2561 130.451C91.7807 130.763 92.3143 131.086 92.8372 131.396L94.7412 131.784L93.1208 130.963L91.2561 130.451ZM89.049 129.131C89.4922 129.395 89.9382 129.664 90.3805 129.927L91.9014 130.345C91.4378 130.11 90.9787 129.879 90.5139 129.642C90.0265 129.472 89.5408 129.303 89.049 129.131ZM87.0968 127.964L87.8997 128.444L88.7015 128.723C88.3984 128.569 88.1025 128.421 87.799 128.266L87.0968 127.964ZM100.151 137.689C100.828 138.148 101.499 138.596 102.176 139.053C103.101 138.959 104.021 138.867 104.94 138.776C104.243 138.372 103.55 137.971 102.853 137.565C101.954 137.606 101.053 137.647 100.151 137.689ZM97.7356 136.063C98.4148 136.523 99.0849 136.969 99.7639 137.429C100.648 137.387 101.528 137.347 102.408 137.307C101.712 136.902 101.022 136.504 100.325 136.098C99.4627 136.086 98.6058 136.072 97.7356 136.063ZM95.3384 134.448C96.0006 134.898 96.6516 135.33 97.3132 135.778C98.1611 135.787 98.9937 135.801 99.8333 135.813C99.1489 135.413 98.4744 135.027 97.7879 134.625C96.9724 134.566 96.1565 134.507 95.3384 134.448ZM92.9277 132.825C93.5819 133.271 94.2219 133.693 94.875 134.136C95.665 134.193 96.4524 134.25 97.2392 134.307C96.5802 133.921 95.9217 133.535 95.2591 133.144C94.483 133.038 93.7103 132.931 92.9277 132.825ZM90.5274 131.209C91.1616 131.643 91.7742 132.043 92.4056 132.473C93.1605 132.576 93.9039 132.678 94.6516 132.781C94.0382 132.419 93.4068 132.033 92.7914 131.669L90.5274 131.209ZM88.2409 129.622C88.8052 130.011 89.3829 130.422 89.946 130.808L92.0773 131.242C91.4979 130.898 90.9091 130.542 90.3277 130.195L88.2409 129.622ZM86.0137 128.073C86.5305 128.43 87.0534 128.799 87.5685 129.154L89.452 129.672C88.9172 129.353 88.3804 129.031 87.8448 128.711C87.2371 128.499 86.6315 128.289 86.0137 128.073ZM83.8466 126.564C84.294 126.875 84.7422 127.189 85.1888 127.498C85.6982 127.677 86.1962 127.85 86.6953 128.024C86.2309 127.745 85.7693 127.471 85.3037 127.192L83.8466 126.564ZM82.0001 125.279L82.7547 125.804L83.5726 126.156C83.3141 126.001 83.0599 125.852 82.8005 125.695C82.5345 125.557 82.2648 125.415 82.0001 125.279ZM96.9596 137.836C97.6299 138.353 98.3076 138.884 98.9749 139.394C99.9049 139.298 100.851 139.192 101.783 139.095C101.096 138.63 100.413 138.175 99.725 137.709C98.8039 137.751 97.8877 137.791 96.9596 137.836ZM94.6237 136.03C95.2894 136.546 95.9555 137.061 96.6198 137.573C97.5333 137.529 98.432 137.49 99.3383 137.448C98.6467 136.98 97.9635 136.525 97.2715 136.056C96.3918 136.047 95.5079 136.038 94.6237 136.03ZM92.2943 134.229C92.9514 134.739 93.6039 135.241 94.2603 135.749C95.1225 135.757 95.9895 135.763 96.8487 135.772C96.1723 135.314 95.5063 134.871 94.829 134.411C93.9849 134.35 93.145 134.289 92.2943 134.229ZM89.961 132.425C90.6093 132.93 91.2497 133.419 91.8965 133.921C92.7255 133.98 93.5431 134.04 94.3651 134.099C93.6916 133.642 93.0319 133.207 92.3564 132.747C91.5618 132.64 90.7565 132.532 89.961 132.425ZM87.6243 130.618C88.2617 131.117 88.887 131.59 89.5231 132.086C90.2912 132.19 91.0674 132.293 91.8367 132.397C91.1858 131.952 90.5471 131.528 89.8931 131.079L87.6243 130.618ZM85.2898 128.811C85.9098 129.299 86.5121 129.752 87.13 130.236L89.3215 130.681C88.7229 130.27 88.1103 129.835 87.5097 129.421L85.2898 128.811ZM83.088 127.047C83.6392 127.484 84.2022 127.946 84.7521 128.38L86.8374 128.953C86.2702 128.561 85.6957 128.157 85.127 127.763C84.4523 127.527 83.7677 127.286 83.088 127.047ZM80.9035 125.296C81.417 125.706 81.9366 126.128 82.4489 126.535C83.0593 126.749 83.69 126.974 84.3021 127.189C83.7641 126.815 83.2253 126.44 82.6862 126.065C82.0929 125.81 81.5008 125.555 80.9035 125.296ZM78.8203 123.628C79.254 123.975 79.6886 124.325 80.1215 124.67C80.6153 124.884 81.1043 125.094 81.5937 125.305C81.1468 124.993 80.7046 124.687 80.2569 124.374C79.7765 124.124 79.2978 123.875 78.8203 123.628ZM77.0567 122.215C77.2962 122.408 77.5346 122.598 77.7739 122.79L78.5871 123.212C78.3551 123.05 78.1279 122.894 77.8959 122.731C77.618 122.562 77.3341 122.384 77.0567 122.215ZM93.7619 137.984C94.435 138.566 95.1143 139.164 95.7829 139.734C96.7261 139.634 97.6754 139.531 98.6165 139.432C97.939 138.912 97.2548 138.379 96.5747 137.854C95.636 137.898 94.7104 137.936 93.7619 137.984ZM91.5193 136.01C92.165 136.574 92.8208 137.164 93.4645 137.722C94.397 137.675 95.3111 137.635 96.235 137.591C95.5611 137.07 94.8877 136.551 94.2124 136.028C93.3184 136.021 92.4129 136.017 91.5193 136.01ZM89.2524 134.015C89.9009 134.584 90.5531 135.163 91.2005 135.729C92.0797 135.736 92.9694 135.74 93.8491 135.746C93.1797 135.227 92.5147 134.717 91.8444 134.196C90.9824 134.135 90.1198 134.074 89.2524 134.015ZM86.9944 132.028C87.6336 132.592 88.2715 133.152 88.9094 133.713C89.7564 133.772 90.6035 133.83 91.4467 133.889C90.7847 133.374 90.1308 132.877 89.468 132.359L86.9944 132.028ZM84.7264 130.031C85.3599 130.593 85.987 131.139 86.6197 131.698L89.0298 132.021C88.373 131.508 87.7293 131.023 87.0707 130.506L84.7264 130.031ZM82.4543 128.031C83.0774 128.588 83.6891 129.113 84.3112 129.666L86.5763 130.123C85.9454 129.628 85.3206 129.145 84.6876 128.645L82.4543 128.031ZM80.2148 126.032C80.8065 126.565 81.3964 127.092 81.9861 127.62L84.1495 128.214C83.5643 127.752 82.967 127.263 82.3802 126.797C81.6584 126.542 80.9296 126.284 80.2148 126.032ZM78.0809 124.081C78.619 124.568 79.1677 125.082 79.7045 125.566C80.3772 125.803 81.0619 126.045 81.7411 126.285C81.1788 125.837 80.6105 125.378 80.0471 124.928C79.3936 124.647 78.7429 124.368 78.0809 124.081ZM75.9613 122.143C76.4668 122.604 76.9773 123.076 77.4815 123.534C78.0826 123.794 78.6725 124.047 79.2651 124.302C78.7421 123.883 78.2188 123.464 77.6946 123.044L75.9613 122.143ZM73.9519 120.306C74.3725 120.691 74.7943 121.078 75.2147 121.461C75.6938 121.71 76.1704 121.958 76.6484 122.205C76.2155 121.857 75.7866 121.517 75.3534 121.168C74.8844 120.878 74.4171 120.591 73.9519 120.306ZM72.2403 118.741C72.4763 118.958 72.7112 119.172 72.9469 119.388L73.7375 119.874C73.5054 119.686 73.278 119.508 73.0455 119.32C72.7792 119.13 72.5067 118.931 72.2403 118.741ZM90.5952 138.158C91.2683 138.808 91.9357 139.438 92.6039 140.073C93.554 139.971 94.4989 139.87 95.4442 139.771C94.7735 139.197 94.0897 138.588 93.415 138.003C92.4808 138.052 91.5286 138.109 90.5952 138.158ZM88.4103 135.99C89.0436 136.611 89.6931 137.283 90.3236 137.894C91.2492 137.846 92.1911 137.79 93.1171 137.741C92.4649 137.174 91.8023 136.58 91.1477 136.008C90.2377 136.001 89.3227 135.996 88.4103 135.99ZM86.2207 133.811C86.8545 134.437 87.4962 135.089 88.1283 135.71C89.0294 135.715 89.9308 135.72 90.829 135.727C90.1718 135.152 89.5114 134.567 88.853 133.988C87.9787 133.928 87.0952 133.871 86.2207 133.811ZM84.0293 131.63C84.6593 132.256 85.2919 132.891 85.9204 133.512C86.781 133.571 87.6496 133.627 88.5098 133.686C87.8601 133.114 87.2111 132.544 86.5595 131.969C85.7171 131.856 84.8766 131.743 84.0293 131.63ZM81.8347 129.447C82.4591 130.07 83.0816 130.687 83.7042 131.307C84.5353 131.418 85.3581 131.528 86.1839 131.639C85.537 131.067 84.8957 130.51 84.2468 129.934L81.8347 129.447ZM79.6333 127.255C80.2516 127.877 80.8628 128.476 81.4795 129.093L83.8314 129.568C83.1904 128.998 82.5605 128.459 81.9169 127.883L79.6333 127.255ZM77.409 125.042C78.0244 125.665 78.6268 126.247 79.2402 126.864L81.4493 127.472C80.8466 126.932 80.236 126.371 79.6317 125.827C78.892 125.566 78.1459 125.302 77.409 125.042ZM75.3226 122.894C75.8681 123.45 76.4257 124.048 76.9695 124.601L79.1215 125.36C78.5527 124.847 77.9737 124.307 77.4037 123.79C76.7118 123.492 76.0267 123.2 75.3226 122.894ZM73.2304 120.726C73.765 121.275 74.307 121.849 74.8406 122.393C75.5026 122.682 76.1525 122.961 76.8047 123.242C76.2493 122.738 75.6888 122.22 75.1324 121.713C74.4994 121.385 73.8675 121.058 73.2304 120.726ZM71.1838 118.604C71.6751 119.112 72.1695 119.629 72.6601 120.135C73.2387 120.436 73.8116 120.733 74.3857 121.031C73.8766 120.566 73.368 120.102 72.8582 119.634L71.1838 118.604ZM69.2344 116.584C69.6465 117.012 70.058 117.439 70.4697 117.865L71.8532 118.715C71.4261 118.322 71.003 117.941 70.5745 117.546C70.1264 117.224 69.6796 116.903 69.2344 116.584ZM67.542 114.831C67.783 115.083 68.0224 115.327 68.2634 115.578L69.0015 116.108C68.7347 115.861 68.4734 115.629 68.2065 115.381C67.986 115.2 67.7621 115.011 67.542 114.831ZM87.4626 138.33C88.1131 139.031 88.7617 139.721 89.4103 140.413C90.378 140.307 91.3285 140.209 92.2888 140.107C91.6169 139.469 90.9451 138.831 90.2678 138.176C89.3363 138.226 88.3955 138.279 87.4626 138.33ZM85.2985 135.97C85.9375 136.669 86.5792 137.379 87.215 138.065C88.1426 138.015 89.0768 137.962 90.0028 137.912C89.3648 137.292 88.7097 136.616 88.069 135.988C87.1463 135.981 86.2268 135.975 85.2985 135.97ZM83.1875 133.608C83.8049 134.29 84.4327 135.015 85.0481 135.69C85.9663 135.694 86.8746 135.702 87.7871 135.707C87.1475 135.079 86.4991 134.421 85.8575 133.787C84.9695 133.727 84.0788 133.667 83.1875 133.608ZM81.0678 131.236C81.685 131.922 82.307 132.63 82.9227 133.311C83.8019 133.37 84.6809 133.428 85.557 133.488C84.9187 132.856 84.277 132.214 83.6376 131.578C82.7823 131.464 81.9285 131.349 81.0678 131.236ZM78.9479 128.863C79.5601 129.549 80.1731 130.237 80.7843 130.919C81.6297 131.03 82.4713 131.142 83.3122 131.254C82.678 130.622 82.0449 129.996 81.4091 129.36L78.9479 128.863ZM76.8197 126.482C77.4282 127.168 78.0335 127.838 78.6406 128.52L81.054 129.007C80.4226 128.375 79.7974 127.764 79.1643 127.126L76.8197 126.482ZM74.6687 124.074C75.2775 124.766 75.877 125.421 76.4843 126.106L78.7715 126.735C78.1415 126.1 77.5224 125.5 76.8903 124.858L74.6687 124.074ZM72.5757 121.691C73.149 122.348 73.7227 123.004 74.2946 123.656L76.4711 124.424C75.904 123.848 75.3238 123.228 74.7559 122.647C74.0316 122.33 73.2951 122.004 72.5757 121.691ZM70.5638 119.341C71.0995 119.959 71.6437 120.613 72.1781 121.227C72.8688 121.528 73.5738 121.839 74.2706 122.144C73.7072 121.567 73.136 120.964 72.5713 120.383C71.9035 120.037 71.2394 119.694 70.5638 119.341ZM68.544 116.982C69.0645 117.586 69.5896 118.21 70.1093 118.809C70.7462 119.143 71.3716 119.466 72.0009 119.792C71.46 119.234 70.9166 118.668 70.3748 118.107C69.7656 117.733 69.1566 117.36 68.544 116.982ZM66.5628 114.668C67.042 115.227 67.5219 115.79 68.0003 116.347C68.5563 116.69 69.1078 117.028 69.6607 117.367C69.1615 116.85 68.6639 116.337 68.1643 115.817L66.5628 114.668ZM64.6568 112.441C65.064 112.92 65.469 113.389 65.8759 113.865C66.3157 114.182 66.754 114.495 67.1929 114.811C66.7613 114.359 66.3344 113.926 65.902 113.473C65.4863 113.127 65.0709 112.783 64.6568 112.441ZM62.956 110.454C63.2107 110.755 63.4625 111.043 63.717 111.343L64.3664 111.881C64.0292 111.527 63.6993 111.196 63.3617 110.839C63.2267 110.712 63.0905 110.581 62.956 110.454ZM84.319 138.503C84.949 139.256 85.5787 140.008 86.2085 140.76C87.1856 140.651 88.1443 140.551 89.1137 140.445C88.4606 139.748 87.8076 139.054 87.1521 138.347C86.2093 138.398 85.2653 138.45 84.319 138.503ZM82.1846 135.95C82.8249 136.73 83.4588 137.474 84.0959 138.237C85.0349 138.184 85.9698 138.133 86.9045 138.082C86.2669 137.393 85.6217 136.669 84.9813 135.968C84.0476 135.962 83.1264 135.953 82.1846 135.95ZM80.1525 133.404C80.7525 134.143 81.3629 134.94 81.9611 135.67C82.894 135.673 83.8062 135.682 84.7305 135.688C84.1089 135.005 83.4755 134.275 82.8519 133.586C81.9526 133.524 81.0576 133.463 80.1525 133.404ZM78.1125 130.848C78.7127 131.593 79.3187 132.37 79.9178 133.109C80.813 133.169 81.6973 133.229 82.5868 133.289C81.9636 132.598 81.3347 131.884 80.7104 131.188C79.8474 131.075 78.9763 130.962 78.1125 130.848ZM76.0649 128.282C76.6644 129.032 77.265 129.791 77.8628 130.535C78.7156 130.647 79.5752 130.76 80.4267 130.872C79.8064 130.179 79.1849 129.483 78.563 128.785L76.0649 128.282ZM74.0103 125.708C74.6068 126.46 75.2018 127.201 75.7972 127.947L78.2561 128.442C77.6369 127.747 77.0212 127.067 76.4007 126.366L74.0103 125.708ZM71.9362 123.109C72.5336 123.868 73.1248 124.594 73.721 125.346L76.0657 125.991C75.4438 125.288 74.8308 124.621 74.2072 123.911L71.9362 123.109ZM69.8579 120.499C70.448 121.255 71.029 121.963 71.6178 122.711L73.8331 123.493C73.2533 122.832 72.6665 122.143 72.085 121.475C71.3446 121.151 70.5961 120.821 69.8579 120.499ZM67.9266 117.967C68.4569 118.651 68.9963 119.384 69.5257 120.063C70.2422 120.376 70.9685 120.696 71.6874 121.011C71.1325 120.374 70.5683 119.697 70.0122 119.055C69.3186 118.693 68.6284 118.335 67.9266 117.967ZM65.9658 115.397C66.4917 116.081 67.0227 116.792 67.5478 117.471C68.2204 117.824 68.8902 118.175 69.5577 118.523C69.0064 117.885 68.45 117.227 67.8977 116.585C67.2548 116.19 66.6148 115.799 65.9658 115.397ZM64.0145 112.839C64.5206 113.501 65.0284 114.172 65.5333 114.83C66.1456 115.21 66.7478 115.577 67.3533 115.949C66.8256 115.334 66.2973 114.717 65.7682 114.097C65.1848 113.679 64.6015 113.262 64.0145 112.839ZM62.088 110.314C62.557 110.931 63.0247 111.541 63.4928 112.155C64.0248 112.539 64.5525 112.917 65.0812 113.295C64.5877 112.716 64.0979 112.151 63.6032 111.568C63.0983 111.15 62.5938 110.733 62.088 110.314ZM60.2119 107.854C60.6178 108.393 61.0205 108.91 61.426 109.446C61.8393 109.789 62.2509 110.129 62.6634 110.471C62.2174 109.944 61.7782 109.446 61.3315 108.916C60.9579 108.56 60.5848 108.207 60.2119 107.854ZM58.4773 105.58C58.754 105.95 59.0261 106.295 59.3027 106.663L59.92 107.248C59.6513 106.927 59.3759 106.581 59.1071 106.258C58.8968 106.032 58.6865 105.805 58.4773 105.58ZM381.35 248.38C380.849 248.711 380.35 249.048 379.848 249.377C380.924 248.773 381.997 248.161 383.067 247.534C382.494 247.813 381.924 248.106 381.35 248.38ZM386.606 244.797C385.468 245.597 384.328 246.387 383.185 247.162C384.267 246.633 385.342 246.077 386.419 245.529C387.574 244.832 388.733 244.155 389.882 243.438C388.797 243.91 387.698 244.344 386.606 244.797ZM81.124 138.678C81.7451 139.51 82.3635 140.321 82.9825 141.138C83.9579 141.026 84.9548 140.904 85.9302 140.793C85.296 140.035 84.6618 139.28 84.0268 138.519C83.0586 138.572 82.0987 138.622 81.124 138.678ZM79.123 135.947C79.7213 136.76 80.3251 137.61 80.9218 138.411C81.89 138.355 82.8426 138.306 83.8038 138.253C83.1658 137.488 82.5288 136.73 81.8876 135.948C80.9722 135.946 80.0401 135.949 79.123 135.947ZM77.132 133.203C77.7273 134.019 78.3263 134.86 78.921 135.669C79.8293 135.67 80.7565 135.666 81.664 135.668C81.0609 134.931 80.4456 134.129 79.8403 133.383C78.9373 133.323 78.042 133.262 77.132 133.203ZM75.1401 130.458C75.7338 131.277 76.3276 132.099 76.92 132.911C77.821 132.969 78.7106 133.029 79.6054 133.088C79.0003 132.341 78.3885 131.559 77.7826 130.805L75.1401 130.458ZM73.1336 127.692C73.7288 128.521 74.3214 129.328 74.9156 130.149L77.533 130.492C76.9273 129.738 76.3194 128.971 75.7129 128.212L73.1336 127.692ZM71.1245 124.915C71.7164 125.747 72.3032 126.54 72.8941 127.363L75.445 127.877C74.8406 127.119 74.2376 126.368 73.6318 125.604L71.1245 124.915ZM69.1873 122.139C69.75 122.936 70.3183 123.774 70.8801 124.564L73.3426 125.242C72.735 124.475 72.133 123.738 71.5246 122.964C70.7455 122.689 69.9714 122.416 69.1873 122.139ZM67.2417 119.351C67.8011 120.15 68.3632 120.966 68.9218 121.759C69.689 122.03 70.4447 122.296 71.2061 122.565C70.6125 121.81 70.0224 121.073 69.4274 120.31C68.7004 119.992 67.9684 119.669 67.2417 119.351ZM65.3025 116.573C65.8521 117.364 66.4007 118.149 66.9496 118.933L69.0949 119.874C68.5485 119.172 67.9924 118.419 67.4449 117.711C66.7326 117.334 66.01 116.947 65.3025 116.573ZM63.3651 113.798C63.9033 114.578 64.4377 115.33 64.9744 116.103C65.6659 116.468 66.3706 116.845 67.0662 117.214C66.5216 116.51 65.9712 115.774 65.4257 115.065C64.74 114.644 64.0602 114.23 63.3651 113.798ZM61.4076 110.968C61.9383 111.744 62.4657 112.499 62.9953 113.267C63.6686 113.687 64.3283 114.089 64.9937 114.497C64.4568 113.798 63.9184 113.089 63.3811 112.384C62.7243 111.914 62.0704 111.449 61.4076 110.968ZM59.5589 108.218C60.0397 108.927 60.5254 109.666 61.0054 110.37C61.6285 110.822 62.2423 111.259 62.8594 111.7C62.3423 111.021 61.827 110.352 61.3089 109.668C60.7263 109.187 60.1448 108.707 59.5589 108.218ZM57.736 105.508C58.1817 106.169 58.6288 106.841 59.0735 107.498C59.6009 107.937 60.1235 108.368 60.6469 108.8C60.155 108.15 59.669 107.528 59.1763 106.873C58.6963 106.419 58.2171 105.966 57.736 105.508ZM55.9683 102.879C56.3539 103.455 56.7389 104.025 57.1238 104.597C57.506 104.962 57.8861 105.32 58.267 105.681C57.8395 105.11 57.4135 104.548 56.9855 103.974C56.6459 103.608 56.3075 103.245 55.9683 102.879ZM54.3488 100.471C54.6094 100.862 54.8684 101.241 55.129 101.631C55.354 101.874 55.5788 102.115 55.8038 102.357C55.5485 102.014 55.2891 101.649 55.0333 101.303C54.8049 101.025 54.5767 100.747 54.3488 100.471ZM371.593 254.108C371.07 254.478 370.548 254.847 370.023 255.205C370.994 254.632 371.961 254.042 372.928 253.452C372.485 253.681 372.036 253.883 371.593 254.108ZM376.71 250.482C375.497 251.363 374.279 252.214 373.061 253.071C374.361 252.399 375.646 251.664 376.939 250.963C377.922 250.337 378.902 249.694 379.881 249.046C378.828 249.537 377.769 250.009 376.71 250.482ZM381.623 246.819C380.342 247.788 379.058 248.746 377.772 249.69C378.965 249.148 380.166 248.634 381.352 248.068C382.749 247.139 384.145 246.203 385.535 245.241C384.233 245.772 382.935 246.315 381.623 246.819ZM386.732 242.843C385.296 243.983 383.861 245.123 382.419 246.225C383.817 245.681 385.195 245.077 386.582 244.502C388.003 243.507 389.426 242.518 390.841 241.493C389.48 241.964 388.105 242.401 386.732 242.843ZM77.9881 138.852C78.5838 139.746 79.1784 140.624 79.7737 141.513C80.7537 141.4 81.743 141.281 82.721 141.169C82.0979 140.347 81.4756 139.531 80.8503 138.693C79.894 138.748 78.9524 138.795 77.9881 138.852ZM76.0399 135.949C76.6307 136.839 77.2183 137.7 77.8088 138.585C78.7646 138.528 79.7 138.48 80.6481 138.426C80.0507 137.622 79.4451 136.762 78.846 135.947C77.9151 135.947 76.9728 135.949 76.0399 135.949ZM74.0758 133.013C74.6704 133.919 75.2599 134.777 75.8534 135.67C76.781 135.671 77.7175 135.668 78.644 135.669C78.045 134.854 77.4414 134.008 76.841 133.185C75.9246 133.127 74.9932 133.071 74.0758 133.013ZM72.1752 130.069C72.7455 130.947 73.3189 131.854 73.8884 132.722C74.798 132.78 75.7207 132.836 76.6295 132.893C76.0314 132.072 75.4323 131.246 74.8332 130.418C73.9469 130.302 73.0671 130.185 72.1752 130.069ZM70.2696 127.118C70.8392 128.001 71.4088 128.888 71.9776 129.764C72.861 129.878 73.7313 129.993 74.6087 130.108C74.0078 129.278 73.4097 128.465 72.8078 127.627L70.2696 127.118ZM68.3547 124.152C68.9243 125.043 69.4922 125.913 70.0609 126.795L72.5684 127.298C71.9752 126.47 71.3839 125.659 70.7889 124.822L68.3547 124.152ZM66.4246 121.163C66.9958 122.064 67.5621 122.916 68.1321 123.808L70.5446 124.472C69.9746 123.669 69.3981 122.822 68.8273 122.012C68.0253 121.728 67.2344 121.451 66.4246 121.163ZM64.5484 118.17C65.0931 119.037 65.6409 119.934 66.1852 120.792C66.9867 121.077 67.7687 121.352 68.562 121.632C67.9924 120.824 67.4204 119.995 66.8504 119.18L64.5484 118.17ZM62.6916 115.186C63.2277 116.045 63.7649 116.919 64.3 117.771L66.5584 118.761C65.9961 117.957 65.4339 117.155 64.871 116.344C64.1461 115.96 63.4141 115.569 62.6916 115.186ZM60.8388 112.209C61.3654 113.059 61.8913 113.901 62.4169 114.745C63.1224 115.118 63.8361 115.5 64.5431 115.874C63.9895 115.077 63.4404 114.306 62.8859 113.5C62.2071 113.074 61.5148 112.631 60.8388 112.209ZM58.9856 109.23C59.5015 110.071 60.0142 110.878 60.5294 111.712C61.1838 112.121 61.8506 112.546 62.5095 112.961C61.9718 112.179 61.4329 111.388 60.8945 110.6C60.2589 110.144 59.6293 109.699 58.9856 109.23ZM57.1283 106.205C57.63 107.029 58.1305 107.844 58.6312 108.661C59.2573 109.117 59.873 109.557 60.4922 110.001C59.9832 109.255 59.4692 108.475 58.959 107.722C58.3498 107.219 57.7438 106.721 57.1283 106.205ZM55.3545 103.252C55.8181 104.018 56.2839 104.809 56.7466 105.57C57.3277 106.057 57.8992 106.526 58.4743 107.001C57.9848 106.277 57.4938 105.542 57.0037 104.814C56.4549 104.296 55.9074 103.78 55.3545 103.252ZM53.6012 100.331C54.032 101.05 54.4636 101.771 54.8946 102.485C55.3961 102.966 55.8934 103.433 56.3909 103.903C55.929 103.215 55.4682 102.536 55.0054 101.843C54.5378 101.34 54.0709 100.84 53.6012 100.331ZM51.8879 97.4772C52.2644 98.11 52.6396 98.7277 53.0156 99.3558C53.4007 99.7742 53.7829 100.183 54.1655 100.594C53.7387 99.952 53.3156 99.3393 52.888 98.6938C52.5545 98.2886 52.2218 97.8857 51.8879 97.4772ZM50.2807 94.8006C50.5483 95.2528 50.8134 95.6832 51.0805 96.1334C51.2754 96.3717 51.469 96.6053 51.6633 96.8417C51.3769 96.407 51.0867 95.9474 50.7999 95.5106C50.6269 95.2729 50.4538 95.0384 50.2807 94.8006ZM386.931 239.942C385.411 241.286 383.888 242.609 382.362 243.913C383.816 243.482 385.256 243.018 386.697 242.555C388.218 241.35 389.734 240.119 391.248 238.875C389.814 239.242 388.379 239.607 386.931 239.942ZM361.777 260.142C361.233 260.537 360.688 260.921 360.143 261.307C361.216 260.644 362.29 259.986 363.359 259.301C362.833 259.588 362.304 259.86 361.777 260.142ZM366.75 256.486C365.591 257.356 364.429 258.199 363.268 259.046C364.367 258.446 365.461 257.826 366.556 257.205C367.75 256.416 368.947 255.636 370.137 254.822C369.01 255.384 367.883 255.947 366.75 256.486ZM371.711 252.651C370.436 253.651 369.16 254.644 367.88 255.615C369.129 255.011 370.377 254.41 371.619 253.78C372.929 252.87 374.236 251.949 375.54 251.012C374.267 251.572 372.992 252.12 371.711 252.651ZM376.756 248.593C375.353 249.747 373.949 250.897 372.539 252.011C373.934 251.424 375.318 250.794 376.704 250.174C378.074 249.177 379.439 248.149 380.804 247.118C379.46 247.627 378.109 248.113 376.756 248.593ZM378.275 247.361C377.997 247.592 377.716 247.811 377.437 248.041C378.827 247.542 380.221 247.053 381.6 246.524C383.084 245.396 384.563 244.237 386.04 243.07C384.647 243.513 383.249 243.944 381.843 244.357C380.656 245.369 379.467 246.373 378.275 247.361ZM74.8263 139.054C75.3958 139.996 75.9671 140.961 76.5358 141.893C77.5355 141.775 78.5322 141.658 79.527 141.542C78.9288 140.648 78.3313 139.766 77.7327 138.868C76.7707 138.927 75.7883 138.994 74.8263 139.054ZM72.9583 135.951C73.5274 136.898 74.0963 137.844 74.6651 138.785C75.6213 138.726 76.5972 138.66 77.5534 138.602C76.9594 137.712 76.3681 136.845 75.7736 135.949C74.8373 135.949 73.8986 135.95 72.9583 135.951ZM71.0777 132.827C71.6498 133.788 72.2194 134.72 72.7906 135.672C73.7248 135.671 74.6564 135.67 75.5864 135.67C74.9921 134.774 74.4007 133.904 73.8044 132.996C72.8986 132.939 71.9865 132.883 71.0777 132.827ZM69.2127 129.687C69.777 130.646 70.34 131.589 70.9035 132.537C71.8077 132.594 72.7154 132.649 73.6171 132.706C73.043 131.829 72.4654 130.917 71.8904 130.032C71.0016 129.916 70.1043 129.802 69.2127 129.687ZM67.3885 126.541C67.9376 127.484 68.4889 128.451 69.0372 129.384C69.9206 129.498 70.8118 129.612 71.6927 129.726C71.1195 128.843 70.5446 127.949 69.9701 127.058L67.3885 126.541ZM65.5563 123.382C66.1059 124.333 66.6554 125.28 67.2041 126.223L69.7614 126.735C69.1866 125.843 68.6128 124.965 68.0371 124.065L65.5563 123.382ZM63.7145 120.206C64.2645 121.167 64.812 122.094 65.3611 123.045L67.8149 123.721C67.2375 122.817 66.6648 121.957 66.0865 121.044C65.294 120.764 64.5165 120.491 63.7145 120.206ZM61.8825 117.001C62.4239 117.955 62.9645 118.899 63.5051 119.845C64.2959 120.126 65.0685 120.398 65.8512 120.675C65.3018 119.806 64.7473 118.892 64.1969 118.016C63.4257 117.678 62.6585 117.342 61.8825 117.001ZM60.0966 113.808C60.62 114.738 61.1449 115.694 61.6679 116.616C62.4322 116.953 63.1884 117.284 63.9486 117.617C63.4033 116.748 62.8561 115.86 62.31 114.984C61.5736 114.593 60.833 114.199 60.0966 113.808ZM58.3091 110.612C58.8268 111.541 59.3445 112.467 59.8616 113.388C60.5852 113.772 61.3118 114.159 62.0353 114.542C61.4958 113.676 60.9574 112.816 60.4173 111.943C59.7165 111.502 59.0081 111.051 58.3091 110.612ZM56.5191 107.411C57.0297 108.335 57.5383 109.23 58.0482 110.145C58.7311 110.574 59.423 111.014 60.1079 111.446C59.5763 110.584 59.0478 109.755 58.515 108.886C57.8518 108.398 57.179 107.894 56.5191 107.411ZM54.7578 104.228C55.2469 105.12 55.7343 105.997 56.2225 106.881C56.8623 107.35 57.5134 107.836 58.1571 108.31C57.6484 107.48 57.1382 106.629 56.6287 105.792C56.0068 105.274 55.3852 104.756 54.7578 104.228ZM53.0525 101.07C53.5129 101.917 53.9757 102.789 54.4356 103.631C55.0399 104.14 55.6452 104.652 56.2471 105.156C55.7565 104.348 55.2629 103.513 54.7719 102.699C54.1994 102.158 53.6306 101.626 53.0525 101.07ZM51.3368 97.8931C51.7868 98.7277 52.2374 99.5646 52.687 100.393C53.2333 100.919 53.771 101.422 54.3116 101.932C53.8381 101.146 53.3643 100.357 52.8901 99.5653C52.3733 99.0111 51.858 98.4616 51.3368 97.8931ZM49.6277 94.7285C50.0499 95.517 50.4705 96.2861 50.8921 97.0697C51.3662 97.5877 51.8348 98.0873 52.3046 98.5905C51.8545 97.8358 51.406 97.1023 50.955 96.3429C50.5136 95.8083 50.0724 95.2756 49.6277 94.7285ZM47.9332 91.5885C48.3085 92.2961 48.6816 92.9683 49.0567 93.6715C49.4226 94.1217 49.7847 94.5591 50.1476 94.9983C49.7508 94.3274 49.3547 93.6647 48.9577 92.9904C48.6165 92.5247 48.2757 92.0615 47.9332 91.5885ZM46.6083 89.051C46.8169 89.4465 47.0269 89.8584 47.2355 90.2526C47.4528 90.5532 47.668 90.8445 47.8836 91.1395C47.6603 90.7575 47.4353 90.3627 47.2118 89.9804C47.0105 89.6694 46.8095 89.3619 46.6083 89.051ZM351.762 266.574C351.262 266.946 350.762 267.313 350.261 267.68C351.296 267.016 352.329 266.332 353.361 265.645C352.828 265.95 352.297 266.275 351.762 266.574ZM356.796 262.744C355.714 263.585 354.63 264.416 353.546 265.236C354.58 264.643 355.614 264.046 356.645 263.434C357.789 262.65 358.93 261.856 360.07 261.05C358.98 261.621 357.89 262.195 356.796 262.744ZM361.873 258.715C360.53 259.805 359.185 260.876 357.838 261.933C359.145 261.267 360.442 260.554 361.742 259.857C362.99 258.959 364.234 258.035 365.478 257.111C364.282 257.669 363.075 258.181 361.873 258.715ZM366.831 254.605C365.453 255.768 364.073 256.915 362.69 258.045C364.054 257.432 365.414 256.806 366.77 256.16C368.14 255.127 369.506 254.059 370.871 252.988C369.527 253.538 368.183 254.086 366.831 254.605ZM371.896 250.246C370.444 251.52 368.99 252.778 367.534 254.015C368.926 253.474 370.315 252.922 371.699 252.347C373.151 251.204 374.599 250.031 376.046 248.852C374.669 249.333 373.284 249.795 371.896 250.246ZM376.962 245.727C375.454 247.098 373.943 248.443 372.43 249.775C373.869 249.303 375.3 248.805 376.727 248.299C377.213 247.902 377.701 247.519 378.186 247.117C379.221 246.259 380.253 245.39 381.285 244.514C379.849 244.93 378.411 245.342 376.962 245.727ZM382.082 240.984C380.534 242.441 378.983 243.881 377.43 245.297C378.894 244.905 380.352 244.496 381.804 244.07C383.347 242.755 384.888 241.422 386.425 240.067C384.989 240.397 383.533 240.685 382.082 240.984ZM387.183 236.105C385.618 237.626 384.052 239.128 382.482 240.609C383.955 240.302 385.428 239.997 386.886 239.659C388.477 238.252 390.066 236.827 391.651 235.379C390.166 235.63 388.685 235.885 387.183 236.105ZM71.6608 139.255C72.2095 140.255 72.7599 141.285 73.3081 142.271C74.3126 142.15 75.3025 142.038 76.3005 141.921C75.7293 140.982 75.1555 140.016 74.5836 139.069C73.6139 139.129 72.6326 139.194 71.6608 139.255ZM69.865 135.952C70.4144 136.962 70.9648 137.984 71.5143 138.986C72.4817 138.925 73.4571 138.861 74.422 138.801C73.8503 137.853 73.2783 136.904 72.7062 135.951C71.7585 135.951 70.8182 135.95 69.865 135.952ZM68.0636 132.64C68.6141 133.66 69.1636 134.663 69.7136 135.673C70.6617 135.672 71.5962 135.673 72.5386 135.672C71.9636 134.714 71.3908 133.779 70.8152 132.811C69.8989 132.753 68.9847 132.695 68.0636 132.64ZM66.2653 129.309C66.8133 130.337 67.3595 131.336 67.9071 132.351C68.8224 132.407 69.7303 132.464 70.6408 132.521C70.076 131.569 69.5111 130.615 68.9451 129.652L66.2653 129.309ZM64.5145 125.967C65.0456 126.973 65.5775 128.012 66.1083 129.009C66.9949 129.123 67.8852 129.236 68.7699 129.35C68.2171 128.408 67.6619 127.436 67.1082 126.485L64.5145 125.967ZM62.7566 122.612C63.2877 123.628 63.8188 124.645 64.3499 125.652L66.9237 126.167C66.3697 125.215 65.8161 124.261 65.2616 123.301L62.7566 122.612ZM60.9862 119.233C61.5192 120.262 62.0507 121.261 62.5836 122.281L65.0661 122.964C64.5108 122.002 63.9576 121.066 63.4014 120.094C62.602 119.81 61.782 119.515 60.9862 119.233ZM59.2409 115.843C59.7614 116.858 60.2815 117.874 60.8015 118.88C61.5893 119.16 62.4007 119.452 63.1919 119.733C62.6486 118.782 62.1044 117.821 61.5602 116.86C60.786 116.52 60.0212 116.187 59.2409 115.843ZM57.5212 112.44C58.0314 113.445 58.5429 114.474 59.0528 115.469C59.8241 115.81 60.5798 116.14 61.3451 116.475C60.8143 115.537 60.2814 114.57 59.75 113.624C59.0081 113.23 58.2659 112.836 57.5212 112.44ZM55.7961 109.026C56.3034 110.035 56.8104 111.036 57.3174 112.036C58.0514 112.427 58.7831 112.815 59.5147 113.203C58.9877 112.264 58.4602 111.322 57.9325 110.375C57.2221 109.927 56.5068 109.474 55.7961 109.026ZM54.0627 105.597C54.5664 106.608 55.0685 107.581 55.5717 108.583C56.2706 109.023 56.9733 109.468 57.6713 109.908C57.1481 108.967 56.6266 108.053 56.103 107.104C55.4245 106.604 54.7395 106.094 54.0627 105.597ZM52.388 102.202C52.8626 103.163 53.3381 104.148 53.812 105.101C54.4739 105.587 55.143 106.085 55.8067 106.574C55.3092 105.672 54.8107 104.758 54.3127 103.847C53.6719 103.301 53.0251 102.742 52.388 102.202ZM50.7435 98.8331C51.2017 99.7691 51.6608 100.722 52.1187 101.65C52.7385 102.176 53.3674 102.719 53.9903 103.25C53.5144 102.379 53.0368 101.482 52.561 100.604C51.9579 100.021 51.3466 99.4157 50.7435 98.8331ZM49.1026 95.4706C49.5463 96.3842 49.9889 97.2875 50.4322 98.1943C51.0139 98.758 51.6068 99.3498 52.1908 99.9182C51.7152 99.0406 51.2393 98.1605 50.7635 97.276C50.2111 96.6791 49.6587 96.081 49.1026 95.4706ZM47.4443 92.0726C47.8731 92.9639 48.3007 93.8206 48.7296 94.7059C49.2591 95.2871 49.7906 95.8759 50.3183 96.4519C49.8544 95.5878 49.3924 94.7469 48.9279 93.8768C48.4345 93.2805 47.9427 92.6892 47.4443 92.0726ZM45.8665 88.761C46.2433 89.5506 46.6213 90.3741 46.9982 91.1587C47.4536 91.7234 47.9054 92.2716 48.3567 92.8198C47.9405 92.037 47.5232 91.2456 47.1063 90.4571C46.6938 89.8968 46.2822 89.3391 45.8665 88.761ZM44.3909 85.6332C44.7134 86.314 45.0362 87.0067 45.3582 87.6837C45.7109 88.1752 46.0595 88.6469 46.4085 89.1212C46.0726 88.4838 45.7353 87.8271 45.399 87.1872C45.0632 86.6713 44.7282 86.1587 44.3909 85.6332ZM43.0909 82.877C43.2927 83.3063 43.4944 83.7332 43.6962 84.1607C43.9069 84.4895 44.1156 84.808 44.3255 85.1301C44.1078 84.7138 43.8906 84.2982 43.6733 83.8811C43.4788 83.5448 43.2854 83.2151 43.0909 82.877ZM78.3607 145.256C77.3357 145.432 76.3231 145.6 75.2907 145.781C171.751 317.616 261.067 328.719 343.515 272.163C263.9 319.433 176.356 303.747 78.3607 145.256ZM81.6489 144.704C80.6285 144.876 79.622 145.04 78.5941 145.218C177.876 305.697 266.41 319.5 346.835 269.822C347.612 269.272 348.39 268.74 349.165 268.177C349.509 267.927 349.854 267.669 350.198 267.416C271.63 310.534 183.717 294.265 81.6489 144.704ZM84.9711 144.146C83.9444 144.318 82.9199 144.489 81.8879 144.665C184.524 294.969 272.834 310.444 351.713 266.301C353.052 265.305 354.39 264.294 355.725 263.264C278.493 301.451 190.569 284.008 84.9711 144.146ZM88.2736 143.592C87.261 143.76 86.2395 143.933 85.2236 144.104C191.191 284.365 279.348 301.296 356.755 262.462C358.178 261.355 359.6 260.231 361.019 259.087C285.143 292.313 197.246 273.713 88.2736 143.592ZM91.5422 143.042C90.5487 143.207 89.5359 143.382 88.5412 143.547C197.806 273.924 285.866 292.124 361.865 258.405C363.281 257.255 364.694 256.083 366.106 254.896C291.584 283.165 203.733 263.422 91.5422 143.042ZM94.8074 142.508C93.8171 142.668 92.8185 142.833 91.8242 142.995C204.247 263.538 292.206 282.954 366.808 254.305C368.316 253.031 369.822 251.738 371.326 250.424C298.084 273.955 210.223 253.323 94.8074 142.508ZM98.0797 141.998C97.0874 142.153 96.1103 142.3 95.1085 142.461C210.667 253.331 298.584 273.745 371.86 249.954C373.388 248.613 374.914 247.254 376.437 245.874C304.461 264.753 216.576 243.27 98.0797 141.998ZM101.334 141.491C100.357 141.643 99.3848 141.792 98.4017 141.948C217.014 243.246 304.925 264.534 376.918 245.441C378.493 244.009 380.065 242.549 381.635 241.074C310.854 255.493 222.909 233.392 101.334 141.491ZM104.588 140.984C103.622 141.133 102.652 141.286 101.682 141.437C223.317 233.316 311.261 255.274 382.035 240.7C383.623 239.206 385.207 237.691 386.789 236.157C317.169 246.239 229.123 223.578 104.588 140.984ZM107.864 140.474C106.899 140.622 105.922 140.778 104.958 140.927C229.516 223.482 317.537 246.026 387.133 235.822C388.746 234.254 390.357 232.669 391.965 231.06C323.454 236.952 235.261 213.855 107.864 140.474ZM133.814 136.519L134.412 136.441C134.174 136.447 133.933 136.454 133.692 136.461L133.207 136.502L133.814 136.519ZM130.536 136.946C131.047 136.877 131.55 136.813 132.055 136.748L130.736 136.711C130.247 136.753 129.761 136.793 129.271 136.835C129.692 136.872 130.113 136.909 130.536 136.946ZM127.267 137.378C127.936 137.286 128.597 137.198 129.256 137.113C128.717 137.067 128.188 137.019 127.65 136.972C126.985 137.028 126.32 137.083 125.649 137.142L127.267 137.378ZM124.091 137.832C124.821 137.731 125.561 137.622 126.298 137.516L124.434 137.244C123.686 137.307 122.94 137.368 122.183 137.435L124.091 137.832ZM120.869 138.294C121.674 138.179 122.483 138.062 123.289 137.947L121.221 137.517C120.419 137.585 119.617 137.653 118.803 137.728L120.869 138.294ZM117.641 138.756C118.493 138.633 119.342 138.512 120.19 138.391L118.038 137.801C117.211 137.88 116.38 137.962 115.557 138.038C116.253 138.279 116.951 138.52 117.641 138.756ZM114.377 139.224C115.276 139.091 116.163 138.967 117.054 138.84C116.343 138.596 115.624 138.348 114.906 138.101C114.029 138.185 113.149 138.269 112.27 138.353C112.973 138.644 113.667 138.928 114.377 139.224ZM111.127 139.689C112.049 139.551 112.947 139.428 113.857 139.298C113.131 138.996 112.427 138.708 111.703 138.408C110.819 138.492 109.937 138.575 109.047 138.662L111.127 139.689ZM107.891 140.19C108.81 140.051 109.75 139.899 110.671 139.758L108.549 138.71C107.631 138.797 106.721 138.881 105.794 138.974C106.494 139.381 107.196 139.791 107.891 140.19ZM104.621 140.7C105.572 140.553 106.535 140.4 107.485 140.254C106.778 139.846 106.064 139.43 105.352 139.016C104.413 139.108 103.481 139.197 102.533 139.294C103.232 139.766 103.933 140.243 104.621 140.7ZM101.372 141.206C102.334 141.056 103.295 140.906 104.252 140.758C103.555 140.295 102.847 139.813 102.141 139.336C101.196 139.434 100.236 139.541 99.2921 139.639C99.9889 140.169 100.677 140.681 101.372 141.206ZM98.123 141.712C99.0961 141.558 100.057 141.411 101.024 141.26C100.327 140.733 99.6338 140.212 98.9337 139.677C97.9839 139.777 97.0277 139.881 96.0759 139.982C96.7591 140.561 97.4368 141.126 98.123 141.712ZM94.8569 142.221C95.8501 142.061 96.8174 141.916 97.801 141.762C97.1091 141.17 96.4267 140.603 95.7375 140.018C94.782 140.12 93.8279 140.22 92.8671 140.324C93.5295 140.952 94.1916 141.582 94.8569 142.221ZM91.5986 142.754C92.5823 142.593 93.5754 142.426 94.5558 142.268C93.8856 141.624 93.219 140.991 92.552 140.358C91.5831 140.462 90.6243 140.559 89.6477 140.667C90.2975 141.361 90.9476 142.055 91.5986 142.754ZM88.3362 143.301C89.3244 143.138 90.3294 142.964 91.3167 142.801C90.6604 142.096 90.0056 141.397 89.351 140.699C88.3723 140.805 87.409 140.903 86.4213 141.015L88.3362 143.301ZM85.0362 143.856C86.0468 143.687 87.0616 143.514 88.0686 143.347C87.4267 142.58 86.785 141.813 86.143 141.047C85.1614 141.159 84.1585 141.282 83.1764 141.395C83.796 142.213 84.4162 143.035 85.0362 143.856ZM81.7194 144.413C82.7455 144.239 83.7632 144.07 84.7837 143.898C84.1606 143.072 83.5373 142.247 82.9145 141.425C81.9301 141.539 80.9341 141.657 79.9475 141.773C80.5384 142.658 81.1306 143.55 81.7194 144.413ZM78.4357 144.965C79.4607 144.788 80.4632 144.625 81.4805 144.453C80.8893 143.586 80.2946 142.69 79.7009 141.802C78.7 141.918 77.6979 142.035 76.693 142.154C77.2748 143.104 77.8547 144.025 78.4357 144.965ZM75.1471 145.526C76.1733 145.348 77.1831 145.178 78.2024 145.004C77.6209 144.062 77.0404 143.134 76.4576 142.181C75.4564 142.299 74.4637 142.412 73.4563 142.533C74.0201 143.542 74.5833 144.521 75.1471 145.526ZM7.86e-05 160.361C26.2878 154.611 51.2369 149.702 74.9249 145.566C74.3582 144.555 73.7926 143.574 73.2259 142.56C50.0532 145.345 25.6705 148.759 7.86e-05 152.865V152.583C25.6185 148.486 49.9529 145.077 73.0782 142.298C72.5291 141.309 71.978 140.271 71.4284 139.27C48.8036 140.693 25.0186 142.602 7.86e-05 145.049V144.771C24.9634 142.33 48.6993 140.423 71.2819 139.001C70.7299 137.993 70.1768 136.968 69.6243 135.952C47.5497 136.011 24.3643 136.41 0 137.192V136.913C24.3081 136.134 47.4432 135.733 69.4728 135.674C68.92 134.657 68.3677 133.651 67.814 132.624C46.2882 131.311 23.7055 130.193 0 129.299V129.02C23.6482 129.911 46.179 131.027 67.6573 132.336C67.109 131.317 66.5611 130.308 66.0119 129.276C45.0337 126.584 23.0505 123.94 0 121.361V121.082C22.9927 123.653 44.9236 126.291 65.8549 128.976C65.3205 127.972 64.7848 126.928 64.25 125.914C43.8074 121.834 22.4103 117.651 0 113.376V113.094C22.3499 117.358 43.6928 121.53 64.0856 125.6C63.5507 124.584 63.0153 123.561 62.48 122.536L42.4902 117.033C28.7453 113.249 14.5864 109.351 0 105.339V105.056C14.6012 109.071 28.7699 112.972 42.5237 116.759L62.3064 122.206C61.7687 121.175 61.2323 120.169 60.6942 119.128C41.331 112.243 21.1175 104.952 7.86e-05 97.2421V96.9551C21.05 104.64 41.2021 111.909 60.5098 118.776C59.9873 117.764 59.4642 116.733 58.9415 115.711C40.1068 107.402 20.4767 98.533 7.86e-05 89.0806V88.7892C20.4092 98.2113 39.9767 107.053 58.7532 115.338C58.2369 114.328 57.7188 113.29 57.2025 112.27C38.8944 102.524 19.8429 92.0611 7.86e-05 80.8432V80.5458C19.7693 91.7223 38.7528 102.15 56.9982 111.866C56.483 110.849 55.9682 109.836 55.4528 108.81C37.6733 97.6092 19.2042 85.5317 7.86e-05 72.5284V72.2229C19.1232 85.1727 37.5179 97.204 55.2289 108.366C54.7154 107.343 54.2032 106.354 53.6895 105.321C36.4417 92.6486 18.5593 78.9378 7.86e-05 64.1267V63.8094C18.4693 78.5509 36.2682 92.2014 53.4387 104.825C52.9576 103.856 52.4743 102.841 51.9932 101.864C35.2584 87.688 17.9398 72.3011 7.86e-05 55.6295V55.3007C17.8436 71.8848 35.0726 87.1976 51.7238 101.313C51.2501 100.351 50.7759 99.3696 50.302 98.4001C34.0783 82.6948 17.3215 65.5981 7.86e-05 47.024V46.6796C17.2106 65.1367 33.8639 82.1366 49.9901 97.7612C49.5254 96.8085 49.0612 95.8647 48.596 94.9046C32.8864 77.6449 16.6962 58.8046 7.86e-05 38.2908V37.9269C16.5642 58.281 32.6299 76.9876 48.2224 94.1398C47.7691 93.2016 47.3173 92.3006 46.8637 91.3552C31.6744 72.5142 16.0603 51.9003 7.86e-05 29.4112V29.0224C15.9091 51.3027 31.3798 71.743 46.4335 90.4447C46.0314 89.6047 45.6274 88.7288 45.2252 87.8831C30.5245 67.3875 15.4552 44.9158 7.86e-05 20.3505V19.9464C15.2715 44.2283 30.1661 66.4654 44.6999 86.7697C44.3194 85.9677 43.938 85.1555 43.5575 84.3485C29.3518 62.154 14.8378 37.7803 7.86e-05 11.0859V10.6608C14.5963 36.9345 28.8792 60.9633 42.8623 82.8745C42.532 82.1722 42.2022 81.4813 41.8716 80.7753C28.166 56.832 14.2121 30.4916 7.86e-05 1.59465V1.13091C13.8184 29.243 27.3927 54.9365 40.7317 78.3587C40.5287 77.9226 40.3265 77.4971 40.1235 77.0597C28.0961 53.6037 15.9143 27.9613 3.57504 0H3.81037C15.3219 26.0685 26.6955 50.1183 37.9356 72.2655C27.7503 50.0629 17.4884 26.0084 7.14929 0H7.35185C18.4124 27.8276 29.3841 53.4153 40.268 76.8842C41.4526 79.1945 42.6319 81.4284 43.8136 83.6962C44.992 85.7404 46.1697 87.7741 47.3448 89.7839C48.5343 91.618 49.7279 93.4801 50.9129 95.2833C52.3287 97.2216 53.7506 99.1919 55.1598 101.095C56.5154 102.736 57.8854 104.437 59.2343 106.051C60.6421 107.555 62.0728 109.135 63.4728 110.614C65.0841 112.127 66.7024 113.657 68.3031 115.142C69.9243 116.47 71.5344 117.776 73.1438 119.081C74.7681 120.234 76.3701 121.35 77.9827 122.483C79.6207 123.48 81.2414 124.454 82.8667 125.434C84.5338 126.293 86.2072 127.158 87.8603 128.003C89.5936 128.747 91.3641 129.518 93.0832 130.252C94.9638 130.908 96.8529 131.569 98.7181 132.218L104.163 133.712C106.074 134.105 107.978 134.496 109.871 134.887C111.798 135.158 113.714 135.429 115.621 135.7C117.625 135.861 119.597 136.026 121.576 136.19C123.634 136.238 125.669 136.292 127.702 136.347C129.707 136.288 131.692 136.236 133.684 136.183C135.86 136.009 137.997 135.855 140.149 135.693C254.33 121.21 334.547 126.982 393 142.377V142.654C335.45 127.485 256.786 121.647 145.331 135.314C257.057 127.354 335.545 136.054 393 151.878V152.159C334.668 136.089 254.642 127.365 140.143 135.973C140.006 135.99 139.866 136.009 139.729 136.026C254.679 133.498 334.638 144.985 393 161.351V161.635C334.203 145.145 253.479 133.605 137.119 136.366L135.572 136.568C252.899 140.205 333.899 154.348 393 170.736V171.021C333.608 154.551 252.092 140.348 133.813 136.797C133.148 136.883 132.486 136.968 131.815 137.058C251.218 147.448 333.136 164.052 393 179.937V180.22C332.927 164.277 250.639 147.608 130.534 137.225C129.779 137.321 129.025 137.416 128.256 137.522C249.509 155.231 332.303 174.041 393 188.849V189.131C332.141 174.284 249.061 155.41 127.262 137.657C126.472 137.768 125.67 137.888 124.884 137.997C200.299 153.705 260.932 167.565 310.76 178.956C342.126 186.126 369.201 192.314 393 197.371V197.653C369.194 192.595 342.11 186.405 310.733 179.232C260.734 167.802 199.856 153.886 124.082 138.112C123.235 138.233 122.383 138.357 121.538 138.477C245.857 172.524 330.315 194.69 393 205.404V205.684C330.198 194.951 245.55 172.726 120.859 138.573C119.979 138.699 119.096 138.825 118.213 138.953C243.756 182.023 329.096 205.21 393 212.827V213.11C328.989 205.479 243.478 182.23 117.626 139.037C116.711 139.168 115.8 139.296 114.877 139.431C241.455 192.114 327.716 215.796 393 219.567V219.849C327.62 216.072 241.213 192.333 114.358 139.505C113.427 139.639 112.508 139.765 111.565 139.905C238.893 202.753 326.16 226.384 393 225.554V225.839C326.071 226.666 238.669 202.975 111.104 139.971C110.166 140.114 109.207 140.268 108.269 140.41C235.661 213.74 323.807 236.734 392.281 230.743C392.521 230.502 392.76 230.262 393 230.02V230.354L392.652 230.704L393 230.673V230.963C392.779 230.984 392.557 231.005 392.335 231.024C390.735 232.627 389.132 234.207 387.526 235.77C389.044 235.545 390.539 235.278 392.039 235.022C392.36 234.729 392.68 234.435 393 234.14V234.465L392.476 234.947L393 234.857V235.151C392.695 235.201 392.391 235.252 392.088 235.304C390.526 236.734 388.96 238.143 387.391 239.534C388.855 239.19 390.311 238.828 391.761 238.454C392.174 238.113 392.587 237.772 393 237.429V237.749C392.772 237.939 392.543 238.128 392.315 238.317C392.543 238.257 392.772 238.197 393 238.136V238.425C392.601 238.53 392.202 238.635 391.802 238.739C390.333 239.951 388.863 241.153 387.388 242.328C388.778 241.876 390.177 241.443 391.555 240.96C392.037 240.608 392.519 240.253 393 239.896V240.202L392.363 240.672C392.576 240.597 392.788 240.52 393 240.443V240.737C392.532 240.911 392.064 241.082 391.593 241.247C390.284 242.202 388.968 243.13 387.652 244.058C388.883 243.54 390.118 243.034 391.341 242.492C391.895 242.139 392.448 241.784 393 241.426V242.028C392.472 242.272 391.949 242.527 391.419 242.763C390.861 243.129 390.305 243.5 389.744 243.851C390.836 243.273 391.916 242.652 393 242.046V242.372C390.842 243.552 388.674 244.694 386.496 245.803C383.285 247.73 380.057 249.592 376.806 251.354C373.416 253.509 370.004 255.554 366.572 257.502C363.294 259.664 360.003 261.745 356.693 263.709C353.439 265.937 350.172 268.065 346.891 270.091C263.43 329.287 172.916 320.22 75.0681 145.821C51.338 149.961 26.3411 154.879 7.86e-05 160.641V160.361Z" fill="#F4F5FA"/>
</svg>
