<svg width="1439" height="304" viewBox="0 0 1439 304" fill="none" xmlns="http://www.w3.org/2000/svg">
<path d="M466.095 136.691L468.233 136.741L470.479 136.69L468.386 136.674L466.095 136.691ZM451.376 136.811L456.462 137.013C458.372 136.969 460.27 136.925 462.173 136.882C460.39 136.841 458.575 136.801 456.786 136.761C455.003 136.775 453.172 136.795 451.376 136.811ZM443.522 136.503L445.737 136.589C446.526 136.582 447.325 136.573 448.117 136.566L445.952 136.517C445.148 136.512 444.327 136.508 443.522 136.503ZM438.601 136.939L444.704 137.286C447.16 137.226 449.581 137.172 452.008 137.117C449.917 137.034 447.801 136.951 445.698 136.868C443.325 136.893 440.956 136.917 438.601 136.939ZM429.481 136.424L434.424 136.703L440.023 136.647L435.114 136.456C433.232 136.445 431.356 136.435 429.481 136.424ZM421.389 135.966L424.004 136.114L426.749 136.129L424.077 136.025L421.389 135.966ZM426.284 137.063L433.046 137.57C435.755 137.502 438.482 137.432 441.173 137.367L434.371 136.982L426.284 137.063ZM416.773 136.352L423.005 136.818C425.408 136.793 427.8 136.77 430.194 136.746L423.942 136.392C421.555 136.379 419.173 136.364 416.773 136.352ZM407.788 135.679L412.741 136.05C414.663 136.059 416.561 136.071 418.465 136.082L413.411 135.798L407.788 135.679ZM400.024 135.098L402.604 135.291L405.494 135.352L402.987 135.211L400.024 135.098ZM414.303 137.184L421.591 137.869C424.458 137.796 427.36 137.718 430.242 137.643L422.949 137.097C420.073 137.125 417.2 137.153 414.303 137.184ZM404.72 136.283L411.627 136.932C414.328 136.904 416.996 136.878 419.671 136.852L412.679 136.329C410.037 136.313 407.402 136.296 404.72 136.283ZM395.548 135.421C397.579 135.613 399.579 135.8 401.606 135.991C403.969 136.002 406.314 136.014 408.65 136.027L402.528 135.569L395.548 135.421ZM386.685 134.588C388.38 134.748 390.03 134.902 391.722 135.062L397.348 135.18L392.316 134.803L386.685 134.588ZM379.033 133.866C379.898 133.948 380.8 134.035 381.662 134.116L384.689 134.232L382.099 134.038L379.033 133.866ZM402.309 137.305C404.804 137.59 407.39 137.894 409.865 138.175C412.976 138.095 416.1 138.012 419.209 137.931L411.552 137.212C408.478 137.242 405.426 137.269 402.309 137.305ZM393.055 136.238C395.394 136.507 397.768 136.782 400.097 137.05C403.06 137.016 405.958 136.989 408.877 136.96L401.524 136.269C398.708 136.259 395.859 136.25 393.055 136.238ZM383.829 135.174C386.072 135.433 388.319 135.692 390.556 135.95C393.169 135.961 395.808 135.97 398.436 135.979C396.156 135.764 393.908 135.554 391.623 135.339C389.031 135.284 386.445 135.228 383.829 135.174ZM374.824 134.136C376.843 134.37 378.851 134.6 380.868 134.833C383.196 134.881 385.494 134.93 387.798 134.979C385.699 134.781 383.664 134.592 381.555 134.392C379.319 134.307 377.08 134.221 374.824 134.136ZM366.288 133.152C367.942 133.344 369.575 133.531 371.226 133.722C373.023 133.79 374.849 133.857 376.641 133.925C375.029 133.772 373.349 133.61 371.731 133.457L366.288 133.152ZM358.851 132.295C359.758 132.4 360.645 132.502 361.554 132.607L364.569 132.775L362.054 132.535L358.851 132.295ZM390.682 137.446L398.329 138.477C401.505 138.393 404.661 138.311 407.82 138.229C405.252 137.936 402.599 137.626 400.012 137.329C396.919 137.366 393.767 137.41 390.682 137.446ZM381.4 136.195C383.879 136.532 386.328 136.859 388.794 137.192C391.788 137.156 394.827 137.116 397.835 137.078C395.39 136.797 392.918 136.511 390.463 136.228C387.445 136.217 384.416 136.206 381.4 136.195ZM372.214 134.936C374.549 135.255 376.951 135.593 379.274 135.909L387.964 135.941L380.758 135.109C377.923 135.051 375.064 134.994 372.214 134.936ZM363.324 133.707C365.488 134.004 367.71 134.316 369.864 134.612C372.494 134.665 375.167 134.715 377.795 134.768C375.562 134.511 373.347 134.256 371.109 133.997L363.324 133.707ZM354.618 132.502C356.588 132.773 358.585 133.052 360.55 133.323L367.512 133.583C365.473 133.347 363.47 133.118 361.426 132.881L354.618 132.502ZM346.349 131.358C347.967 131.582 349.591 131.807 351.206 132.029L356.69 132.336C355 132.14 353.358 131.953 351.666 131.756L346.349 131.358ZM338.979 130.337L341.883 130.74L344.637 130.946C343.571 130.822 342.49 130.695 341.421 130.57L338.979 130.337ZM379.112 137.591C381.625 137.991 384.121 138.385 386.631 138.783C389.953 138.693 393.216 138.611 396.505 138.525L388.689 137.471C385.505 137.511 382.295 137.553 379.112 137.591ZM370.035 136.153C372.527 136.549 374.995 136.938 377.485 137.334C380.586 137.295 383.703 137.255 386.802 137.217C384.253 136.873 381.729 136.535 379.162 136.186C376.124 136.175 373.086 136.164 370.035 136.153ZM360.962 134.715C363.401 135.105 365.801 135.48 368.233 135.867C371.185 135.877 374.116 135.889 377.052 135.9C374.655 135.573 372.146 135.218 369.735 134.888C366.815 134.83 363.877 134.773 360.962 134.715ZM351.924 133.28C354.29 133.661 356.597 134.02 358.953 134.397L367.386 134.562C365.083 134.247 362.722 133.915 360.412 133.598L351.924 133.28ZM343.283 131.87C345.403 132.212 347.585 132.577 349.697 132.917L357.636 133.214C355.455 132.913 353.245 132.606 351.055 132.303L343.283 131.87ZM334.874 130.497C336.796 130.809 338.751 131.132 340.667 131.443L347.643 131.831L341.706 131.009L334.874 130.497ZM326.787 129.177C328.41 129.441 330.045 129.71 331.665 129.973L337.238 130.391C335.54 130.156 333.857 129.925 332.154 129.688C330.368 129.518 328.589 129.348 326.787 129.177ZM319.633 128.009L322.575 128.489L325.513 128.769C324.403 128.614 323.319 128.466 322.206 128.311L319.633 128.009ZM367.464 137.738C369.947 138.197 372.406 138.645 374.884 139.102C378.275 139.008 381.644 138.916 385.012 138.825C382.46 138.421 379.92 138.019 377.366 137.613C374.071 137.654 370.77 137.696 367.464 137.738ZM358.615 136.111C361.104 136.571 363.559 137.018 366.047 137.477C369.287 137.435 372.512 137.395 375.737 137.355C373.187 136.95 370.658 136.552 368.103 136.146C364.944 136.134 361.804 136.12 358.615 136.111ZM349.832 134.496C352.258 134.945 354.644 135.378 357.068 135.826C360.175 135.835 363.225 135.849 366.302 135.861C363.794 135.461 361.323 135.075 358.807 134.672C355.819 134.613 352.829 134.554 349.832 134.496ZM340.999 132.872C343.396 133.318 345.741 133.74 348.134 134.183C351.029 134.24 353.913 134.297 356.797 134.354C354.382 133.968 351.969 133.582 349.541 133.191C346.697 133.085 343.866 132.978 340.999 132.872ZM332.204 131.255C334.527 131.689 336.772 132.089 339.085 132.52C341.852 132.623 344.576 132.725 347.315 132.828C345.068 132.466 342.754 132.08 340.499 131.715L332.204 131.255ZM323.826 129.668C325.893 130.057 328.01 130.468 330.073 130.854L337.883 131.288C335.76 130.944 333.602 130.588 331.472 130.241L323.826 129.668ZM315.665 128.118C317.559 128.475 319.474 128.844 321.362 129.199L328.263 129.718C326.304 129.399 324.337 129.077 322.374 128.756C320.147 128.544 317.929 128.334 315.665 128.118ZM307.724 126.609C309.364 126.92 311.006 127.233 312.642 127.543C314.509 127.722 316.333 127.895 318.162 128.069C316.461 127.79 314.769 127.516 313.064 127.236L307.724 126.609ZM300.959 125.323L303.723 125.848L306.72 126.201C305.773 126.045 304.842 125.896 303.891 125.739C302.917 125.601 301.929 125.46 300.959 125.323ZM355.772 137.884C358.228 138.402 360.711 138.933 363.156 139.443C366.564 139.347 370.032 139.241 373.446 139.144C370.927 138.679 368.428 138.224 365.905 137.758C362.53 137.799 359.173 137.84 355.772 137.884ZM347.213 136.078C349.652 136.594 352.093 137.109 354.527 137.622C357.874 137.577 361.167 137.538 364.488 137.497C361.954 137.029 359.451 136.573 356.915 136.104C353.692 136.095 350.453 136.086 347.213 136.078ZM338.678 134.276C341.085 134.787 343.476 135.289 345.881 135.797C349.04 135.805 352.217 135.811 355.366 135.82C352.887 135.361 350.447 134.919 347.965 134.459C344.873 134.398 341.795 134.336 338.678 134.276ZM330.128 132.472C332.504 132.977 334.85 133.466 337.22 133.968C340.258 134.027 343.253 134.087 346.266 134.146C343.798 133.689 341.381 133.254 338.905 132.793C335.994 132.686 333.043 132.579 330.128 132.472ZM321.566 130.664C323.902 131.164 326.193 131.637 328.524 132.133C331.338 132.237 334.182 132.34 337.001 132.443C334.616 131.999 332.276 131.575 329.88 131.125L321.566 130.664ZM313.013 128.856C315.284 129.345 317.491 129.798 319.755 130.282L327.785 130.727C325.592 130.316 323.347 129.881 321.146 129.467L313.013 128.856ZM304.945 127.092C306.964 127.529 309.027 127.991 311.042 128.425L318.683 128.999C316.605 128.606 314.5 128.203 312.416 127.808C309.944 127.572 307.435 127.331 304.945 127.092ZM296.94 125.341C298.822 125.75 300.726 126.173 302.603 126.58C304.84 126.794 307.151 127.018 309.393 127.233C307.422 126.86 305.448 126.485 303.473 126.109C301.299 125.854 299.129 125.599 296.94 125.341ZM289.308 123.672C290.896 124.019 292.489 124.368 294.075 124.714C295.885 124.928 297.676 125.138 299.47 125.349C297.832 125.037 296.212 124.731 294.571 124.418C292.811 124.168 291.057 123.919 289.308 123.672ZM282.845 122.258C283.723 122.451 284.596 122.641 285.473 122.833L288.453 123.256C287.603 123.093 286.77 122.938 285.92 122.774C284.902 122.605 283.862 122.428 282.845 122.258ZM344.055 138.032C346.522 138.615 349.011 139.213 351.461 139.783C354.917 139.684 358.395 139.58 361.843 139.481C359.361 138.961 356.854 138.428 354.362 137.902C350.922 137.946 347.531 137.985 344.055 138.032ZM335.838 136.058C338.204 136.622 340.607 137.212 342.966 137.77C346.383 137.723 349.732 137.683 353.117 137.639C350.648 137.119 348.18 136.599 345.706 136.076C342.43 136.069 339.113 136.065 335.838 136.058ZM327.532 134.062C329.908 134.632 332.298 135.211 334.67 135.777C337.891 135.784 341.151 135.788 344.375 135.794C341.922 135.275 339.485 134.765 337.029 134.244C333.871 134.183 330.71 134.122 327.532 134.062ZM319.258 132.074C321.6 132.639 323.938 133.199 326.275 133.76C329.378 133.819 332.483 133.877 335.572 133.936C333.146 133.421 330.75 132.923 328.322 132.406L319.258 132.074ZM310.948 130.077C313.269 130.639 315.567 131.185 317.885 131.744L326.716 132.067C324.31 131.554 321.951 131.069 319.538 130.552L310.948 130.077ZM302.623 128.076C304.906 128.633 307.147 129.159 309.427 129.711L317.726 130.169C315.414 129.674 313.125 129.191 310.806 128.691L302.623 128.076ZM294.417 126.077C296.585 126.609 298.746 127.137 300.907 127.665L308.834 128.259C306.69 127.797 304.501 127.308 302.351 126.841C299.707 126.587 297.036 126.328 294.417 126.077ZM286.598 124.125C288.57 124.612 290.58 125.126 292.547 125.61C295.012 125.847 297.521 126.089 300.009 126.33C297.949 125.882 295.867 125.422 293.803 124.972C291.408 124.691 289.024 124.412 286.598 124.125ZM278.832 122.187C280.684 122.647 282.554 123.119 284.402 123.577C286.604 123.838 288.766 124.09 290.937 124.346C289.021 123.927 287.103 123.508 285.183 123.087L278.832 122.187ZM271.469 120.349C273.01 120.734 274.556 121.121 276.096 121.504C277.852 121.753 279.598 122.001 281.349 122.248C279.763 121.9 278.192 121.56 276.604 121.211C274.886 120.921 273.174 120.634 271.469 120.349ZM265.197 118.783C266.062 119 266.923 119.214 267.786 119.43L270.683 119.916C269.833 119.728 269 119.55 268.148 119.362C267.172 119.172 266.173 118.973 265.197 118.783ZM332.452 138.207C334.918 138.857 337.364 139.488 339.812 140.122C343.293 140.02 346.756 139.92 350.219 139.82C347.762 139.246 345.256 138.637 342.784 138.052C339.361 138.101 335.872 138.158 332.452 138.207ZM324.446 136.038C326.767 136.659 329.147 137.331 331.457 137.943C334.848 137.894 338.3 137.838 341.692 137.79C339.303 137.223 336.875 136.628 334.477 136.056C331.142 136.049 327.79 136.044 324.446 136.038ZM316.423 133.859C318.746 134.485 321.097 135.137 323.413 135.757C326.715 135.763 330.018 135.768 333.309 135.775C330.901 135.199 328.481 134.615 326.068 134.035C322.865 133.976 319.628 133.918 316.423 133.859ZM308.394 131.676C310.702 132.303 313.02 132.938 315.323 133.559C318.477 133.618 321.659 133.674 324.811 133.733C322.43 133.161 320.052 132.591 317.665 132.016C314.578 131.902 311.498 131.79 308.394 131.676ZM300.352 129.492C302.64 130.116 304.921 130.733 307.203 131.353C310.248 131.464 313.263 131.575 316.289 131.686C313.918 131.113 311.569 130.556 309.191 129.98L300.352 129.492ZM292.286 127.3C294.552 127.922 296.792 128.521 299.051 129.139L307.669 129.614C305.32 129.044 303.012 128.504 300.654 127.928L292.286 127.3ZM284.136 125.086C286.391 125.71 288.598 126.291 290.846 126.909L298.94 127.517C296.732 126.977 294.495 126.416 292.281 125.871C289.57 125.61 286.836 125.346 284.136 125.086ZM276.491 122.937C278.49 123.494 280.533 124.092 282.526 124.644L290.411 125.404C288.327 124.891 286.206 124.351 284.117 123.834C281.582 123.536 279.071 123.243 276.491 122.937ZM268.825 120.768C270.784 121.317 272.77 121.892 274.725 122.437C277.151 122.725 279.532 123.004 281.922 123.285C279.887 122.781 277.833 122.264 275.794 121.756C273.475 121.428 271.16 121.1 268.825 120.768ZM261.326 118.646C263.127 119.154 264.938 119.672 266.736 120.177C268.856 120.479 270.955 120.776 273.058 121.073C271.193 120.608 269.329 120.144 267.461 119.677L261.326 118.646ZM254.183 116.625C255.693 117.054 257.201 117.48 258.71 117.906L263.779 118.757C262.214 118.364 260.664 117.983 259.094 117.588C257.452 117.265 255.815 116.944 254.183 116.625ZM247.982 114.871C248.865 115.123 249.742 115.368 250.626 115.619L253.33 116.149C252.353 115.902 251.395 115.67 250.417 115.422C249.609 115.24 248.789 115.052 247.982 114.871ZM320.974 138.379C323.358 139.08 325.734 139.77 328.11 140.463C331.656 140.356 335.139 140.258 338.658 140.156C336.196 139.518 333.734 138.88 331.252 138.225C327.839 138.275 324.392 138.328 320.974 138.379ZM313.044 136.018C315.386 136.717 317.737 137.427 320.067 138.114C323.466 138.064 326.888 138.01 330.282 137.961C327.944 137.34 325.543 136.665 323.196 136.036C319.815 136.029 316.446 136.023 313.044 136.018ZM305.309 133.655C307.572 134.337 309.872 135.063 312.127 135.737C315.491 135.742 318.82 135.75 322.163 135.755C319.819 135.126 317.443 134.469 315.092 133.834C311.839 133.774 308.575 133.715 305.309 133.655ZM297.543 131.282C299.804 131.969 302.083 132.676 304.339 133.358C307.561 133.417 310.781 133.475 313.991 133.535C311.653 132.903 309.301 132.26 306.958 131.624C303.825 131.51 300.696 131.395 297.543 131.282ZM289.775 128.908C292.018 129.595 294.264 130.283 296.504 130.965C299.601 131.076 302.685 131.188 305.766 131.3C303.443 130.668 301.123 130.042 298.793 129.406L289.775 128.908ZM281.977 126.526C284.206 127.213 286.424 127.883 288.649 128.565L297.492 129.052C295.178 128.42 292.888 127.809 290.568 127.171L281.977 126.526ZM274.095 124.118C276.326 124.81 278.523 125.465 280.748 126.151L289.129 126.78C286.82 126.145 284.552 125.544 282.235 124.902L274.095 124.118ZM266.427 121.734C268.527 122.391 270.629 123.048 272.725 123.699L280.7 124.468C278.622 123.892 276.496 123.271 274.415 122.69C271.761 122.373 269.062 122.047 266.427 121.734ZM259.055 119.383C261.017 120.001 263.011 120.655 264.97 121.269C267.5 121.571 270.084 121.882 272.637 122.187C270.572 121.61 268.479 121.007 266.41 120.426C263.963 120.079 261.53 119.736 259.055 119.383ZM251.654 117.023C253.561 117.628 255.485 118.251 257.389 118.851C259.723 119.185 262.014 119.508 264.32 119.834C262.338 119.277 260.347 118.71 258.362 118.149C256.13 117.774 253.899 117.401 251.654 117.023ZM244.395 114.708C246.15 115.268 247.909 115.831 249.661 116.388C251.699 116.731 253.72 117.07 255.745 117.409C253.916 116.891 252.093 116.378 250.263 115.858L244.395 114.708ZM237.411 112.481C238.903 112.959 240.387 113.429 241.877 113.905C243.489 114.222 245.095 114.536 246.703 114.851C245.122 114.399 243.558 113.966 241.973 113.513C240.45 113.167 238.928 112.823 237.411 112.481ZM231.179 110.493C232.112 110.794 233.034 111.082 233.967 111.382L236.346 111.921C235.111 111.566 233.902 111.235 232.665 110.878C232.171 110.751 231.672 110.62 231.179 110.493ZM309.455 138.552C311.764 139.305 314.071 140.058 316.379 140.81C319.959 140.7 323.472 140.6 327.024 140.494C324.631 139.797 322.238 139.103 319.836 138.396C316.382 138.447 312.923 138.499 309.455 138.552ZM301.635 135.998C303.981 136.778 306.303 137.523 308.638 138.286C312.078 138.233 315.504 138.182 318.929 138.131C316.593 137.441 314.229 136.718 311.882 136.016C308.461 136.01 305.086 136.001 301.635 135.998ZM294.189 133.451C296.387 134.19 298.624 134.988 300.816 135.718C304.234 135.721 307.576 135.73 310.963 135.735C308.686 135.053 306.365 134.323 304.08 133.633C300.785 133.572 297.505 133.51 294.189 133.451ZM286.714 130.894C288.913 131.64 291.133 132.417 293.329 133.156C296.609 133.216 299.849 133.276 303.108 133.336C300.825 132.645 298.52 131.931 296.233 131.235C293.071 131.121 289.879 131.008 286.714 130.894ZM279.211 128.328C281.408 129.077 283.609 129.837 285.799 130.581C288.924 130.693 292.074 130.806 295.193 130.918C292.921 130.225 290.643 129.528 288.365 128.831L279.211 128.328ZM271.683 125.753C273.869 126.504 276.049 127.246 278.23 127.992L287.24 128.487C284.971 127.792 282.715 127.111 280.442 126.411L271.683 125.753ZM264.083 123.153C266.272 123.911 268.439 124.638 270.623 125.39L279.214 126.035C276.935 125.333 274.69 124.665 272.405 123.955L264.083 123.153ZM256.468 120.542C258.63 121.298 260.759 122.006 262.916 122.754L271.034 123.537C268.909 122.875 266.759 122.186 264.629 121.518C261.915 121.194 259.173 120.864 256.468 120.542ZM249.392 118.009C251.334 118.693 253.311 119.426 255.251 120.105C257.876 120.419 260.538 120.739 263.172 121.054C261.138 120.416 259.071 119.739 257.033 119.097C254.492 118.735 251.963 118.377 249.392 118.009ZM242.207 115.438C244.134 116.121 246.08 116.833 248.003 117.512C250.468 117.866 252.922 118.216 255.368 118.565C253.348 117.927 251.309 117.268 249.286 116.626C246.93 116.231 244.585 115.84 242.207 115.438ZM235.057 112.879C236.911 113.541 238.772 114.212 240.622 114.87C242.866 115.25 245.072 115.618 247.291 115.99C245.357 115.374 243.421 114.757 241.483 114.138C239.345 113.719 237.208 113.302 235.057 112.879ZM227.998 110.352C229.717 110.97 231.431 111.581 233.146 112.194C235.095 112.579 237.028 112.956 238.966 113.335C237.157 112.755 235.363 112.19 233.55 111.607C231.7 111.189 229.851 110.772 227.998 110.352ZM221.124 107.892C222.611 108.431 224.087 108.948 225.573 109.484C227.087 109.828 228.595 110.168 230.107 110.51C228.472 109.982 226.863 109.484 225.226 108.954C223.857 108.598 222.49 108.245 221.124 107.892ZM214.768 105.618C215.782 105.987 216.779 106.332 217.793 106.7L220.055 107.285C219.07 106.965 218.061 106.618 217.076 106.296C216.305 106.069 215.535 105.842 214.768 105.618ZM1397.81 248.468C1395.98 248.799 1394.15 249.136 1392.31 249.465C1396.25 248.861 1400.18 248.249 1404.11 247.621C1402 247.9 1399.92 248.193 1397.81 248.468ZM1417.07 244.883C1412.9 245.683 1408.73 246.474 1404.54 247.249C1408.5 246.72 1412.44 246.164 1416.39 245.615C1420.62 244.918 1424.87 244.241 1429.08 243.524C1425.1 243.996 1421.07 244.43 1417.07 244.883ZM297.749 138.727C300.024 139.56 302.29 140.37 304.558 141.188C308.132 141.076 311.785 140.954 315.359 140.843C313.035 140.085 310.711 139.329 308.385 138.568C304.837 138.621 301.32 138.671 297.749 138.727ZM290.417 135.995C292.609 136.808 294.821 137.658 297.008 138.46C300.555 138.404 304.045 138.354 307.568 138.302C305.23 137.536 302.896 136.778 300.546 135.996C297.192 135.994 293.777 135.997 290.417 135.995ZM283.121 133.25C285.303 134.066 287.497 134.908 289.676 135.717C293.005 135.718 296.402 135.714 299.727 135.716C297.517 134.979 295.263 134.177 293.045 133.43C289.736 133.37 286.456 133.309 283.121 133.25ZM275.823 130.504C277.998 131.323 280.174 132.145 282.344 132.958C285.646 133.016 288.906 133.076 292.184 133.135C289.967 132.388 287.725 131.605 285.505 130.851L275.823 130.504ZM268.47 127.737C270.652 128.567 272.823 129.373 275 130.194L284.591 130.538C282.371 129.784 280.144 129.016 277.921 128.257L268.47 127.737ZM261.109 124.959C263.278 125.791 265.428 126.585 267.593 127.408L276.94 127.922C274.725 127.164 272.516 126.413 270.296 125.649L261.109 124.959ZM254.011 122.182C256.073 122.98 258.155 123.818 260.214 124.608L269.236 125.286C267.01 124.519 264.804 123.782 262.575 123.007C259.72 122.733 256.884 122.46 254.011 122.182ZM246.882 119.393C248.932 120.193 250.991 121.009 253.038 121.802C255.849 122.073 258.618 122.339 261.408 122.609C259.233 121.853 257.071 121.116 254.891 120.352C252.227 120.034 249.545 119.712 246.882 119.393ZM239.776 116.614C241.79 117.406 243.8 118.191 245.812 118.975L253.672 119.916C251.67 119.214 249.633 118.461 247.626 117.753C245.017 117.375 242.369 116.988 239.776 116.614ZM232.678 113.838C234.649 114.618 236.608 115.37 238.574 116.144C241.108 116.509 243.69 116.887 246.239 117.256C244.243 116.551 242.227 115.815 240.228 115.105C237.716 114.684 235.225 114.271 232.678 113.838ZM225.505 111.008C227.449 111.783 229.382 112.539 231.323 113.307C233.79 113.727 236.207 114.129 238.645 114.538C236.678 113.839 234.705 113.129 232.736 112.424C230.33 111.953 227.934 111.488 225.505 111.008ZM218.731 108.257C220.493 108.965 222.273 109.705 224.031 110.409C226.314 110.861 228.563 111.298 230.825 111.739C228.93 111.06 227.042 110.391 225.143 109.707C223.009 109.225 220.878 108.746 218.731 108.257ZM212.052 105.545C213.685 106.206 215.323 106.879 216.953 107.536C218.885 107.976 220.8 108.406 222.718 108.839C220.915 108.188 219.135 107.566 217.329 106.911C215.571 106.456 213.815 106.003 212.052 105.545ZM205.575 102.916C206.988 103.491 208.398 104.062 209.809 104.634C211.209 104.999 212.602 105.357 213.998 105.718C212.431 105.147 210.87 104.585 209.302 104.011C208.058 103.645 206.818 103.281 205.575 102.916ZM199.641 100.506C200.596 100.898 201.545 101.276 202.499 101.667C203.324 101.91 204.148 102.151 204.972 102.393C204.037 102.05 203.086 101.685 202.149 101.339C201.312 101.061 200.476 100.783 199.641 100.506ZM1362.06 254.198C1360.15 254.567 1358.23 254.937 1356.31 255.295C1359.87 254.722 1363.41 254.132 1366.96 253.541C1365.33 253.77 1363.69 253.972 1362.06 254.198ZM1380.81 250.57C1376.37 251.451 1371.9 252.303 1367.44 253.16C1372.2 252.488 1376.91 251.753 1381.65 251.051C1385.25 250.425 1388.84 249.782 1392.43 249.133C1388.57 249.625 1384.69 250.097 1380.81 250.57ZM1398.82 246.906C1394.12 247.875 1389.42 248.833 1384.7 249.778C1389.08 249.236 1393.48 248.721 1397.82 248.156C1402.94 247.226 1408.05 246.29 1413.15 245.327C1408.38 245.859 1403.62 246.402 1398.82 246.906ZM1417.53 242.928C1412.27 244.069 1407.01 245.209 1401.73 246.312C1406.85 245.768 1411.9 245.163 1416.98 244.588C1422.19 243.593 1427.41 242.604 1432.59 241.579C1427.6 242.049 1422.56 242.486 1417.53 242.928ZM286.258 138.901C288.441 139.795 290.619 140.673 292.801 141.563C296.392 141.45 300.017 141.331 303.6 141.218C301.317 140.396 299.037 139.581 296.745 138.742C293.242 138.796 289.791 138.844 286.258 138.901ZM279.12 135.997C281.284 136.887 283.438 137.749 285.601 138.634C289.103 138.577 292.531 138.528 296.005 138.475C293.816 137.671 291.597 136.811 289.402 135.995C285.991 135.995 282.538 135.997 279.12 135.997ZM271.923 133.06C274.102 133.967 276.262 134.824 278.436 135.718C281.835 135.719 285.267 135.716 288.661 135.717C286.466 134.901 284.255 134.055 282.055 133.232C278.697 133.174 275.284 133.118 271.923 133.06ZM264.959 130.115C267.049 130.993 269.15 131.9 271.236 132.769C274.569 132.827 277.95 132.883 281.28 132.94C279.088 132.119 276.893 131.292 274.698 130.464C271.451 130.348 268.227 130.231 264.959 130.115ZM257.977 127.163C260.064 128.046 262.151 128.933 264.235 129.809C267.472 129.924 270.661 130.039 273.875 130.154C271.674 129.324 269.482 128.51 267.277 127.672L257.977 127.163ZM250.96 124.196C253.047 125.087 255.128 125.957 257.212 126.84L266.4 127.342C264.226 126.514 262.06 125.703 259.879 124.866L250.96 124.196ZM243.888 121.206C245.981 122.107 248.056 122.96 250.144 123.851L258.984 124.515C256.896 123.713 254.783 122.865 252.692 122.055C249.753 121.771 246.855 121.493 243.888 121.206ZM237.013 118.212C239.009 119.079 241.016 119.976 243.011 120.835C245.948 121.12 248.813 121.394 251.72 121.675C249.633 120.866 247.537 120.037 245.448 119.222L237.013 118.212ZM230.21 115.227C232.174 116.086 234.143 116.961 236.103 117.813L244.378 118.803C242.318 117.999 240.258 117.197 238.195 116.385C235.539 116.001 232.857 115.61 230.21 115.227ZM223.421 112.248C225.351 113.099 227.277 113.941 229.203 114.786C231.788 115.159 234.403 115.54 236.994 115.915C234.965 115.117 232.953 114.346 230.922 113.54C228.434 113.114 225.898 112.671 223.421 112.248ZM216.63 109.269C218.521 110.11 220.4 110.917 222.287 111.751C224.685 112.16 227.128 112.585 229.543 113.001C227.572 112.219 225.598 111.428 223.625 110.639C221.296 110.183 218.989 109.738 216.63 109.269ZM209.825 106.243C211.664 107.067 213.497 107.882 215.332 108.699C217.626 109.156 219.882 109.595 222.151 110.04C220.286 109.294 218.403 108.513 216.533 107.76C214.301 107.256 212.08 106.759 209.825 106.243ZM203.326 103.288C205.025 104.055 206.731 104.846 208.427 105.607C210.556 106.094 212.65 106.563 214.757 107.038C212.963 106.314 211.165 105.579 209.369 104.851C207.358 104.332 205.352 103.817 203.326 103.288ZM196.901 100.366C198.48 101.085 200.062 101.807 201.641 102.521C203.478 103.002 205.301 103.47 207.123 103.94C205.431 103.251 203.742 102.572 202.047 101.879C200.333 101.376 198.622 100.876 196.901 100.366ZM190.624 97.5116C192.003 98.1446 193.378 98.7625 194.756 99.3909C196.167 99.8093 197.567 100.218 198.969 100.629C197.405 99.9873 195.855 99.3743 194.288 98.7285C193.066 98.3232 191.847 97.9202 190.624 97.5116ZM184.735 94.8341C185.715 95.2864 186.687 95.7169 187.665 96.1673C188.379 96.4057 189.089 96.6394 189.801 96.8759C188.751 96.441 187.688 95.9812 186.637 95.5443C186.003 95.3065 185.369 95.0719 184.735 94.8341ZM1418.26 240.027C1412.69 241.371 1407.11 242.694 1401.52 243.999C1406.85 243.568 1412.13 243.104 1417.41 242.641C1422.98 241.435 1428.54 240.204 1434.08 238.959C1428.83 239.326 1423.57 239.691 1418.26 240.027ZM1326.09 260.234C1324.1 260.629 1322.11 261.013 1320.11 261.399C1324.04 260.736 1327.98 260.077 1331.89 259.392C1329.97 259.68 1328.03 259.952 1326.09 260.234ZM1344.32 256.577C1340.07 257.447 1335.81 258.29 1331.56 259.137C1335.58 258.537 1339.59 257.917 1343.61 257.296C1347.98 256.506 1352.37 255.726 1356.73 254.912C1352.6 255.474 1348.47 256.037 1344.32 256.577ZM1362.5 252.74C1357.82 253.74 1353.15 254.733 1348.46 255.705C1353.03 255.101 1357.61 254.5 1362.16 253.869C1366.96 252.959 1371.75 252.037 1376.53 251.1C1371.86 251.66 1367.19 252.209 1362.5 252.74ZM1380.98 248.681C1375.84 249.835 1370.69 250.986 1365.53 252.099C1370.64 251.513 1375.71 250.882 1380.79 250.262C1385.81 249.265 1390.81 248.236 1395.81 247.205C1390.89 247.714 1385.94 248.201 1380.98 248.681ZM1386.55 247.448C1385.53 247.679 1384.5 247.898 1383.48 248.128C1388.57 247.63 1393.68 247.14 1398.73 246.61C1404.17 245.482 1409.59 244.323 1415 243.155C1409.89 243.598 1404.77 244.03 1399.62 244.443C1395.27 245.456 1390.91 246.46 1386.55 247.448ZM274.673 139.103C276.759 140.045 278.853 141.01 280.937 141.943C284.6 141.825 288.252 141.708 291.897 141.592C289.705 140.698 287.516 139.815 285.322 138.917C281.797 138.976 278.198 139.043 274.673 139.103ZM267.828 135.999C269.914 136.947 271.998 137.892 274.082 138.834C277.586 138.775 281.162 138.709 284.665 138.65C282.489 137.76 280.322 136.894 278.144 135.997C274.713 135.997 271.274 135.998 267.828 135.999ZM260.938 132.873C263.034 133.835 265.121 134.767 267.214 135.72C270.637 135.719 274.05 135.718 277.458 135.718C275.28 134.822 273.114 133.952 270.929 133.043C267.61 132.986 264.267 132.93 260.938 132.873ZM254.104 129.732C256.171 130.692 258.235 131.636 260.299 132.584C263.612 132.641 266.938 132.696 270.242 132.753C268.139 131.876 266.022 130.963 263.915 130.077C260.659 129.962 257.371 129.848 254.104 129.732ZM247.42 126.586C249.432 127.528 251.452 128.496 253.461 129.43C256.698 129.544 259.963 129.658 263.191 129.772C261.091 128.888 258.984 127.994 256.879 127.103L247.42 126.586ZM240.706 123.426C242.72 124.377 244.734 125.325 246.744 126.267L256.114 126.78C254.008 125.887 251.906 125.009 249.796 124.109L240.706 123.426ZM233.958 120.249C235.973 121.21 237.979 122.137 239.991 123.089L248.982 123.765C246.867 122.861 244.768 122 242.649 121.087C239.745 120.807 236.896 120.533 233.958 120.249ZM227.245 117.043C229.229 117.997 231.21 118.941 233.19 119.887C236.088 120.168 238.919 120.44 241.787 120.717C239.774 119.848 237.742 118.934 235.725 118.058C232.9 117.72 230.088 117.384 227.245 117.043ZM220.701 113.848C222.619 114.779 224.542 115.735 226.459 116.657C229.259 116.995 232.03 117.325 234.816 117.659C232.818 116.789 230.813 115.901 228.811 115.024C226.113 114.633 223.4 114.239 220.701 113.848ZM214.152 110.651C216.049 111.58 217.945 112.507 219.841 113.428C222.492 113.812 225.154 114.199 227.805 114.582C225.828 113.716 223.856 112.856 221.876 111.982C219.309 111.541 216.713 111.09 214.152 110.651ZM207.593 107.449C209.464 108.374 211.328 109.268 213.196 110.184C215.698 110.613 218.233 111.053 220.743 111.485C218.795 110.623 216.859 109.794 214.906 108.924C212.476 108.436 210.011 107.932 207.593 107.449ZM201.14 104.265C202.931 105.157 204.717 106.034 206.506 106.919C208.851 107.388 211.236 107.874 213.595 108.348C211.731 107.518 209.862 106.667 207.995 105.829C205.716 105.311 203.438 104.793 201.14 104.265ZM194.891 101.106C196.578 101.953 198.274 102.826 199.959 103.667C202.173 104.177 204.391 104.689 206.596 105.193C204.799 104.385 202.99 103.55 201.191 102.735C199.093 102.194 197.009 101.661 194.891 101.106ZM188.604 97.9276C190.253 98.7625 191.904 99.5997 193.552 100.428C195.553 100.954 197.524 101.458 199.505 101.968C197.77 101.182 196.034 100.393 194.296 99.6004C192.402 99.046 190.514 98.4963 188.604 97.9276ZM182.342 94.7619C183.889 95.5507 185.43 96.3201 186.975 97.1039C188.712 97.6221 190.429 98.1218 192.15 98.6253C190.501 97.8703 188.858 97.1365 187.206 96.3768C185.588 95.8421 183.972 95.3092 182.342 94.7619ZM176.133 91.6208C177.508 92.3287 178.875 93.001 180.25 93.7045C181.59 94.1549 182.917 94.5925 184.247 95.0318C182.793 94.3607 181.342 93.6978 179.887 93.0232C178.637 92.5574 177.388 92.0939 176.133 91.6208ZM171.279 89.0824C172.043 89.478 172.812 89.8901 173.577 90.2845C174.373 90.5851 175.161 90.8765 175.952 91.1717C175.133 90.7895 174.309 90.3946 173.49 90.0121C172.752 89.701 172.016 89.3934 171.279 89.0824ZM1289.4 266.668C1287.57 267.04 1285.73 267.408 1283.9 267.775C1287.69 267.111 1291.48 266.426 1295.26 265.739C1293.3 266.044 1291.36 266.369 1289.4 266.668ZM1307.85 262.836C1303.88 263.678 1299.91 264.509 1295.94 265.329C1299.73 264.737 1303.51 264.14 1307.29 263.527C1311.48 262.743 1315.66 261.949 1319.84 261.142C1315.85 261.713 1311.85 262.287 1307.85 262.836ZM1326.45 258.806C1321.53 259.897 1316.6 260.968 1311.66 262.025C1316.45 261.36 1321.2 260.645 1325.97 259.949C1330.54 259.05 1335.1 258.126 1339.66 257.201C1335.27 257.76 1330.85 258.272 1326.45 258.806ZM1344.61 254.695C1339.56 255.858 1334.51 257.006 1329.44 258.136C1334.44 257.523 1339.42 256.896 1344.39 256.25C1349.41 255.217 1354.42 254.148 1359.42 253.077C1354.49 253.628 1349.57 254.176 1344.61 254.695ZM1363.17 250.334C1357.85 251.609 1352.53 252.867 1347.19 254.105C1352.29 253.563 1357.38 253.011 1362.45 252.436C1367.77 251.293 1373.08 250.12 1378.38 248.939C1373.33 249.421 1368.26 249.883 1363.17 250.334ZM1381.74 245.813C1376.21 247.185 1370.67 248.531 1365.13 249.863C1370.4 249.391 1375.64 248.893 1380.88 248.387C1382.66 247.989 1384.44 247.606 1386.22 247.204C1390.01 246.345 1393.8 245.477 1397.58 244.6C1392.31 245.016 1387.04 245.429 1381.74 245.813ZM1400.5 241.069C1394.82 242.527 1389.14 243.967 1383.45 245.384C1388.82 244.991 1394.16 244.582 1399.48 244.156C1405.13 242.84 1410.78 241.507 1416.41 240.152C1411.15 240.482 1405.81 240.77 1400.5 241.069ZM1419.19 236.189C1413.45 237.71 1407.71 239.213 1401.96 240.694C1407.36 240.387 1412.76 240.081 1418.1 239.743C1423.93 238.336 1429.75 236.911 1435.56 235.462C1430.12 235.713 1424.69 235.968 1419.19 236.189ZM263.074 139.304C265.085 140.304 267.101 141.335 269.11 142.321C272.791 142.2 276.418 142.088 280.075 141.971C277.982 141.032 275.879 140.065 273.784 139.118C270.23 139.178 266.635 139.243 263.074 139.304ZM256.494 136C258.507 137.01 260.524 138.033 262.537 139.035C266.082 138.974 269.656 138.91 273.191 138.85C271.097 137.902 269.001 136.953 266.905 135.998C263.432 135.999 259.987 135.998 256.494 136ZM249.894 132.686C251.91 133.707 253.924 134.71 255.939 135.721C259.413 135.719 262.837 135.721 266.29 135.72C264.184 134.761 262.085 133.826 259.976 132.858C256.618 132.8 253.269 132.742 249.894 132.686ZM243.304 129.354C245.312 130.383 247.314 131.382 249.32 132.398C252.674 132.453 256.001 132.511 259.337 132.568C257.267 131.615 255.197 130.661 253.123 129.698L243.304 129.354ZM236.889 126.011C238.835 127.018 240.784 128.057 242.729 129.054C245.978 129.168 249.24 129.281 252.482 129.395C250.456 128.453 248.422 127.481 246.393 126.53L236.889 126.011ZM230.448 122.655C232.394 123.672 234.34 124.689 236.286 125.697L245.717 126.211C243.687 125.259 241.658 124.305 239.627 123.344L230.448 122.655ZM223.961 119.275C225.914 120.305 227.862 121.304 229.814 122.324L238.91 123.007C236.875 122.045 234.848 121.109 232.811 120.137C229.882 119.852 226.877 119.558 223.961 119.275ZM217.566 115.884C219.473 116.9 221.379 117.916 223.284 118.922C226.171 119.202 229.144 119.494 232.043 119.776C230.052 118.824 228.058 117.862 226.064 116.901C223.227 116.561 220.425 116.227 217.566 115.884ZM211.265 112.48C213.134 113.485 215.008 114.514 216.877 115.51C219.703 115.851 222.472 116.18 225.276 116.516C223.331 115.578 221.379 114.61 219.431 113.664C216.713 113.27 213.994 112.876 211.265 112.48ZM204.944 109.065C206.803 110.074 208.66 111.075 210.518 112.075C213.208 112.467 215.889 112.855 218.569 113.243C216.638 112.303 214.705 111.362 212.772 110.414C210.169 109.966 207.548 109.512 204.944 109.065ZM198.592 105.634C200.438 106.646 202.278 107.619 204.122 108.621C206.683 109.062 209.257 109.507 211.815 109.946C209.898 109.006 207.987 108.091 206.068 107.142C203.582 106.642 201.072 106.131 198.592 105.634ZM192.456 102.238C194.195 103.199 195.937 104.184 197.674 105.138C200.099 105.624 202.551 106.123 204.983 106.612C203.16 105.709 201.333 104.794 199.509 103.884C197.161 103.338 194.791 102.778 192.456 102.238ZM186.43 98.8679C188.109 99.8043 189.792 100.757 191.469 101.686C193.741 102.212 196.045 102.755 198.327 103.287C196.583 102.415 194.833 101.517 193.09 100.64C190.88 100.056 188.64 99.4507 186.43 98.8679ZM180.418 95.5043C182.044 96.4181 183.666 97.3218 185.29 98.2289C187.421 98.7928 189.594 99.3848 191.733 99.9534C189.991 99.0756 188.247 98.1951 186.504 97.3103C184.48 96.7132 182.456 96.1149 180.418 95.5043ZM174.342 92.105C175.913 92.9967 177.48 93.8537 179.051 94.7393C180.991 95.3207 182.939 95.9097 184.872 96.4859C183.173 95.6215 181.48 94.7803 179.778 93.9099C177.97 93.3134 176.168 92.7219 174.342 92.105ZM168.561 88.7923C169.941 89.5821 171.326 90.406 172.707 91.1908C174.376 91.7558 176.031 92.3042 177.685 92.8525C176.16 92.0694 174.631 91.2778 173.103 90.489C171.592 89.9284 170.084 89.3706 168.561 88.7923ZM163.154 85.6634C164.335 86.3444 165.518 87.0374 166.698 87.7146C167.99 88.2063 169.268 88.6781 170.546 89.1527C169.316 88.515 168.08 87.8581 166.848 87.2179C165.617 86.7018 164.39 86.189 163.154 85.6634ZM158.391 82.9062C159.13 83.3357 159.869 83.7627 160.608 84.1904C161.38 84.5193 162.145 84.8379 162.914 85.1601C162.116 84.7436 161.321 84.3279 160.524 83.9107C159.812 83.5742 159.103 83.2445 158.391 82.9062ZM287.623 145.308C283.868 145.483 280.157 145.651 276.374 145.832C629.818 317.728 957.083 328.835 1259.18 272.259C967.461 319.545 646.691 303.854 287.623 145.308ZM299.672 144.756C295.933 144.927 292.245 145.091 288.478 145.269C652.261 305.805 976.659 319.612 1271.35 269.918C1274.19 269.367 1277.04 268.834 1279.88 268.272C1281.15 268.021 1282.41 267.763 1283.67 267.51C995.787 310.643 673.663 294.369 299.672 144.756ZM311.845 144.197C308.083 144.369 304.329 144.54 300.548 144.716C676.621 295.073 1000.2 310.554 1289.22 266.395C1294.13 265.398 1299.03 264.387 1303.92 263.357C1020.93 301.557 698.767 284.108 311.845 144.197ZM323.945 143.642C320.235 143.81 316.492 143.984 312.77 144.155C701.047 284.466 1024.06 301.402 1307.69 262.555C1312.91 261.447 1318.12 260.322 1323.32 259.178C1045.3 292.416 723.235 273.809 323.945 143.642ZM335.922 143.093C332.282 143.257 328.571 143.433 324.926 143.597C725.287 274.02 1047.95 292.227 1326.42 258.496C1331.61 257.345 1336.79 256.173 1341.96 254.986C1068.9 283.265 747.004 263.515 335.922 143.093ZM347.886 142.558C344.258 142.718 340.598 142.883 336.955 143.046C748.885 263.63 1071.18 283.054 1344.53 254.395C1350.06 253.12 1355.57 251.827 1361.08 250.512C1092.72 274.052 770.783 253.413 347.886 142.558ZM359.876 142.048C356.24 142.204 352.66 142.35 348.99 142.511C772.409 253.421 1094.55 273.842 1363.04 250.042C1368.64 248.701 1374.23 247.341 1379.81 245.961C1116.08 264.846 794.062 243.356 359.876 142.048ZM371.8 141.541C368.219 141.693 364.658 141.842 361.056 141.998C795.665 243.332 1117.78 264.627 1381.57 245.528C1387.35 244.095 1393.11 242.634 1398.86 241.159C1139.51 255.583 817.265 233.475 371.8 141.541ZM383.725 141.034C380.185 141.183 376.629 141.335 373.076 141.487C818.76 233.398 1141 255.364 1400.32 240.784C1406.14 239.29 1411.95 237.775 1417.74 236.24C1162.65 246.326 840.036 223.657 383.725 141.034ZM395.727 140.523C392.193 140.672 388.613 140.828 385.077 140.976C841.476 223.56 1164 246.113 1419 235.905C1424.91 234.336 1430.82 232.751 1436.71 231.142C1185.68 237.035 862.527 213.93 395.727 140.523ZM490.812 136.567L493.003 136.489C492.129 136.495 491.245 136.502 490.364 136.509L488.587 136.55L490.812 136.567ZM478.801 136.994C480.674 136.925 482.517 136.861 484.365 136.796L479.534 136.759C477.743 136.801 475.96 136.841 474.164 136.883C475.707 136.92 477.25 136.957 478.801 136.994ZM466.824 137.426C469.273 137.334 471.696 137.247 474.109 137.161C472.136 137.115 470.198 137.067 468.227 137.02C465.789 137.076 463.353 137.132 460.895 137.19L466.824 137.426ZM455.184 137.881C457.859 137.779 460.571 137.671 463.271 137.565L456.441 137.293C453.7 137.355 450.968 137.416 448.193 137.483L455.184 137.881ZM443.38 138.342C446.328 138.228 449.294 138.111 452.247 137.996L444.668 137.565C441.73 137.633 438.793 137.701 435.807 137.776L443.38 138.342ZM431.551 138.805C434.674 138.682 437.783 138.561 440.893 138.439L433.004 137.849C429.977 137.928 426.93 138.01 423.914 138.087C426.466 138.328 429.024 138.568 431.551 138.805ZM419.59 139.273C422.887 139.14 426.134 139.016 429.401 138.889C426.794 138.645 424.161 138.396 421.532 138.149C418.317 138.233 415.094 138.318 411.873 138.402C414.447 138.693 416.99 138.977 419.59 139.273ZM407.682 139.738C411.063 139.601 414.351 139.477 417.687 139.347C415.027 139.045 412.446 138.757 409.793 138.456C406.554 138.541 403.321 138.624 400.062 138.711L407.682 139.738ZM395.825 140.24C399.192 140.101 402.639 139.948 406.014 139.807L398.238 138.759C394.874 138.846 391.541 138.93 388.142 139.023C390.709 139.43 393.28 139.84 395.825 140.24ZM383.845 140.75C387.33 140.603 390.856 140.449 394.339 140.303C391.748 139.896 389.133 139.48 386.523 139.065C383.084 139.157 379.668 139.246 376.194 139.343C378.754 139.815 381.322 140.292 383.845 140.75ZM371.939 141.256C375.463 141.106 378.984 140.955 382.493 140.807C379.94 140.345 377.343 139.862 374.757 139.385C371.293 139.483 367.777 139.59 364.319 139.689C366.872 140.219 369.393 140.731 371.939 141.256ZM360.035 141.762C363.6 141.608 367.122 141.46 370.664 141.31C368.112 140.783 365.571 140.262 363.005 139.727C359.525 139.826 356.022 139.93 352.534 140.031C355.038 140.61 357.52 141.176 360.035 141.762ZM348.068 142.271C351.707 142.111 355.251 141.966 358.855 141.812C356.32 141.22 353.819 140.653 351.294 140.067C347.793 140.169 344.297 140.269 340.777 140.374C343.204 141.002 345.63 141.632 348.068 142.271ZM336.129 142.804C339.733 142.644 343.372 142.476 346.964 142.318C344.509 141.674 342.066 141.04 339.622 140.407C336.072 140.511 332.559 140.609 328.98 140.717C331.361 141.411 333.743 142.105 336.129 142.804ZM324.175 143.352C327.796 143.189 331.478 143.014 335.096 142.852C332.691 142.146 330.292 141.447 327.893 140.748C324.307 140.855 320.778 140.953 317.158 141.064L324.175 143.352ZM312.083 143.907C315.786 143.737 319.504 143.565 323.194 143.397C320.842 142.63 318.491 141.863 316.138 141.097C312.542 141.209 308.867 141.332 305.269 141.445C307.539 142.263 309.811 143.085 312.083 143.907ZM299.93 144.464C303.69 144.29 307.419 144.12 311.158 143.949C308.875 143.123 306.591 142.297 304.309 141.475C300.702 141.589 297.052 141.707 293.438 141.823C295.603 142.708 297.772 143.601 299.93 144.464ZM287.898 145.016C291.654 144.839 295.327 144.676 299.055 144.504C296.888 143.637 294.71 142.74 292.534 141.852C288.867 141.968 285.195 142.085 281.513 142.204C283.644 143.154 285.769 144.075 287.898 145.016ZM275.848 145.578C279.608 145.399 283.309 145.229 287.043 145.055C284.913 144.113 282.785 143.185 280.65 142.231C276.982 142.349 273.344 142.462 269.653 142.583C271.719 143.592 273.782 144.572 275.848 145.578ZM0.500288 160.418C96.8219 154.665 188.238 149.755 275.034 145.617C272.958 144.606 270.885 143.625 268.809 142.61C183.901 145.396 94.5599 148.812 0.500288 152.919V152.637C94.3693 148.538 183.534 145.128 268.268 142.348C266.256 141.359 264.236 140.321 262.223 139.319C179.322 140.743 92.1713 142.653 0.500288 145.1V144.822C91.9691 142.381 178.94 140.473 261.686 139.05C259.663 138.042 257.636 137.016 255.612 136C174.728 136.058 89.774 136.458 0.5 137.24V136.961C89.568 136.182 174.338 135.781 255.057 135.722C253.031 134.704 251.008 133.699 248.979 132.671C170.106 131.357 87.3599 130.238 0.5 129.344V129.065C87.15 129.957 169.705 131.073 248.405 132.383C246.396 131.363 244.388 130.354 242.376 129.322C165.509 126.629 84.9597 123.983 0.5 121.404V121.125C84.7481 123.697 165.106 126.336 241.801 129.022C239.842 128.017 237.88 126.973 235.92 125.959C161.016 121.877 82.6143 117.693 0.5 113.416V113.134C82.3928 117.399 160.596 121.573 235.318 125.644C233.358 124.628 231.396 123.605 229.434 122.579L156.189 117.074C105.826 113.289 53.9465 109.389 0.5 105.376V105.093C54.0006 109.11 105.916 113.012 156.312 116.8L228.798 122.249C226.828 121.218 224.863 120.212 222.891 119.17C151.942 112.283 77.8773 104.989 0.500288 97.2764V96.9892C77.6299 104.677 151.47 111.949 222.215 118.818C220.301 117.806 218.384 116.774 216.469 115.752C147.456 107.44 75.5292 98.5678 0.500288 89.112V88.8205C75.2818 98.246 146.98 107.091 215.779 115.379C213.887 114.369 211.989 113.33 210.097 112.31C143.014 102.56 73.2068 92.0936 0.500288 80.8717V80.5742C72.9372 91.7546 142.495 102.186 209.348 111.906C207.461 110.888 205.574 109.875 203.686 108.848C138.54 97.6436 70.8665 85.5619 0.500288 72.554V72.2484C70.5698 85.2027 137.97 97.2383 202.866 108.404C200.984 107.381 199.107 106.391 197.225 105.358C134.027 92.6812 68.5037 78.9656 0.500288 64.1493V63.8319C68.1737 78.5786 133.391 92.2339 196.306 104.862C194.543 103.893 192.772 102.877 191.009 101.9C129.691 87.719 66.2337 72.3266 0.500288 55.6491V55.3202C65.8812 71.9101 129.01 87.2283 190.022 101.348C188.287 100.386 186.549 99.4046 184.813 98.4348C125.367 82.7239 63.9683 65.6212 0.500288 47.0406V46.696C63.5619 65.1597 124.582 82.1656 183.67 97.7956C181.967 96.8426 180.266 95.8985 178.562 94.938C121 77.6723 61.677 58.8253 0.500288 38.3043V37.9403C61.1931 58.3016 120.06 77.0147 177.193 94.173C175.532 93.2345 173.877 92.3332 172.214 91.3874C116.559 72.5398 59.347 51.9186 0.500288 29.4215V29.0326C58.7929 51.3208 115.479 71.7683 170.638 90.4766C169.165 89.6363 167.685 88.7601 166.211 87.9141C112.346 67.4113 57.1297 44.9316 0.500288 20.3577V19.9534C56.4567 44.2439 111.032 66.4888 164.286 86.8003C162.892 85.998 161.494 85.1855 160.1 84.3783C108.049 62.1759 54.8675 37.7936 0.500288 11.0898V10.6646C53.9828 36.9475 106.317 60.9848 157.553 82.9037C156.343 82.2012 155.134 81.51 153.923 80.8038C103.704 56.852 52.575 30.5023 0.500288 1.59521V1.13131C51.1324 29.2533 100.87 54.9559 149.746 78.3863C149.002 77.9501 148.261 77.5244 147.518 77.0869C103.448 53.6226 58.8119 27.9711 13.5994 0H14.4617C56.6413 26.0777 98.3155 50.136 139.501 72.291C102.18 50.0806 64.5797 26.0176 26.6959 0H27.4381C67.9652 27.8375 108.167 53.4342 148.047 76.9113C152.387 79.2224 156.709 81.4571 161.038 83.7257C165.356 85.7706 169.672 87.8051 173.977 89.8156C178.336 91.6503 182.709 93.5131 187.051 95.3169C192.239 97.2559 197.449 99.2269 202.612 101.13C207.579 102.772 212.599 104.474 217.542 106.088C222.7 107.593 227.943 109.174 233.072 110.653C238.976 112.167 244.906 113.697 250.771 115.182C256.711 116.511 262.611 117.818 268.508 119.123C274.46 120.276 280.33 121.393 286.238 122.527C292.24 123.524 298.179 124.498 304.134 125.479C310.242 126.337 316.374 127.202 322.431 128.048C328.782 128.793 335.27 129.564 341.568 130.298C348.459 130.954 355.381 131.615 362.215 132.265L382.165 133.76C389.17 134.152 396.144 134.544 403.083 134.934C410.14 135.205 417.163 135.477 424.151 135.748C431.491 135.909 438.717 136.074 445.97 136.238C453.51 136.286 460.967 136.34 468.416 136.395C475.763 136.336 483.037 136.284 490.336 136.231C498.307 136.057 506.139 135.903 514.025 135.741C932.398 121.253 1226.32 127.027 1440.5 142.427V142.704C1229.63 127.53 941.397 121.69 533.011 135.361C942.388 127.399 1229.98 136.102 1440.5 151.931V152.213C1226.77 136.137 933.54 127.41 514.002 136.021C513.499 136.038 512.987 136.057 512.484 136.074C933.677 133.545 1226.66 145.036 1440.5 161.408V161.692C1225.06 145.196 929.279 133.652 502.922 136.414L497.253 136.616C927.154 140.255 1223.95 154.402 1440.5 170.796V171.081C1222.88 154.605 924.195 140.398 490.807 136.845C488.372 136.932 485.945 137.016 483.487 137.106C920.994 147.5 1221.15 164.11 1440.5 180.001V180.284C1220.39 164.335 918.874 147.66 478.794 137.273C476.025 137.37 473.265 137.465 470.446 137.57C914.731 155.286 1218.1 174.103 1440.5 188.916V189.198C1217.51 174.345 913.092 155.464 466.804 137.705C463.91 137.817 460.969 137.937 458.09 138.046C734.42 153.759 956.588 167.624 1139.16 179.019C1254.09 186.192 1353.3 192.382 1440.5 197.44V197.722C1353.27 192.663 1254.03 186.471 1139.06 179.295C955.863 167.861 732.797 153.94 455.153 138.161C452.048 138.282 448.926 138.406 445.829 138.526C901.349 172.585 1210.81 194.758 1440.5 205.476V205.756C1210.39 195.02 900.224 172.787 443.343 138.622C440.116 138.748 436.884 138.874 433.647 139.002C893.651 182.087 1206.35 205.283 1440.5 212.902V213.185C1205.96 205.552 892.635 182.294 431.497 139.086C428.143 139.217 424.807 139.345 421.425 139.48C885.222 192.182 1201.29 215.872 1440.5 219.645V219.926C1200.94 216.148 884.335 192.401 419.524 139.554C416.112 139.688 412.744 139.814 409.286 139.955C875.832 202.824 1195.59 226.464 1440.5 225.634V225.918C1195.27 226.746 875.013 203.046 407.6 140.021C404.163 140.163 400.65 140.317 397.213 140.46C863.991 213.816 1186.97 236.817 1437.87 230.824C1438.74 230.584 1439.62 230.343 1440.5 230.101V230.435L1439.23 230.785L1440.5 230.754V231.045C1439.69 231.066 1438.88 231.086 1438.06 231.106C1432.2 232.709 1426.33 234.29 1420.45 235.854C1426.01 235.628 1431.48 235.361 1436.98 235.105C1438.16 234.812 1439.33 234.518 1440.5 234.223V234.548L1438.58 235.03L1440.5 234.94V235.234C1439.38 235.284 1438.27 235.335 1437.16 235.387C1431.44 236.818 1425.7 238.227 1419.95 239.618C1425.31 239.274 1430.65 238.913 1435.96 238.538C1437.48 238.197 1438.99 237.856 1440.5 237.512V237.833C1439.66 238.022 1438.83 238.212 1437.99 238.401C1438.83 238.341 1439.66 238.281 1440.5 238.22V238.509C1439.04 238.615 1437.58 238.719 1436.11 238.823C1430.73 240.035 1425.34 241.238 1419.94 242.414C1425.03 241.961 1430.16 241.528 1435.21 241.045C1436.97 240.693 1438.74 240.338 1440.5 239.981V240.287L1438.17 240.756C1438.95 240.681 1439.72 240.605 1440.5 240.527V240.822C1438.79 240.996 1437.07 241.167 1435.35 241.332C1430.55 242.288 1425.73 243.215 1420.91 244.144C1425.42 243.626 1429.94 243.12 1434.42 242.577C1436.45 242.225 1438.48 241.869 1440.5 241.511V242.114C1438.57 242.357 1436.65 242.613 1434.71 242.848C1432.66 243.215 1430.63 243.586 1428.57 243.937C1432.57 243.358 1436.53 242.738 1440.5 242.132V242.457C1432.6 243.638 1424.65 244.78 1416.67 245.889C1404.9 247.817 1393.08 249.68 1381.16 251.442C1368.74 253.598 1356.24 255.644 1343.66 257.592C1331.65 259.755 1319.6 261.837 1307.47 263.802C1295.54 266.031 1283.57 268.16 1271.55 270.186C965.74 329.403 634.087 320.333 275.559 145.872C188.609 150.014 97.0172 154.933 0.500288 160.698V160.418Z" fill="#F4F5FA"/>
</svg>
