<svg width="80" height="80" viewBox="0 0 80 80" fill="none" xmlns="http://www.w3.org/2000/svg">
<path d="M37.6113 31.0779C41.6894 31.0779 45.0019 34.3904 45.0019 38.4686C45.0019 42.5467 41.6894 45.8592 37.6113 45.8592C33.5332 45.8592 30.2207 42.5467 30.2207 38.4686C30.2207 34.3904 33.5332 31.0779 37.6113 31.0779ZM41.955 34.1248C39.5644 31.7186 35.6582 31.7186 33.2675 34.1248C30.8613 36.5311 30.8613 40.4217 33.2675 42.8123C35.6582 45.2186 39.5644 45.2186 41.955 42.8123C44.3613 40.4061 44.3613 36.5311 41.955 34.1248ZM36.5644 24.0623H38.6113C39.5488 24.0623 40.33 24.8279 40.33 25.7811V26.5779C40.33 26.7967 40.4707 26.9686 40.6738 27.0311L42.1425 27.5311C42.6269 27.7186 43.08 27.9529 43.5332 28.2186C44.2363 28.6248 44.4707 27.0779 45.8613 27.0779C46.2988 27.0779 46.7363 27.2498 47.0644 27.5779L48.5175 29.0311C49.1894 29.7029 49.1894 30.7811 48.5175 31.4529L47.9238 32.0311C47.7832 32.1717 47.7675 32.3904 47.8769 32.5623C48.3925 33.4529 48.7988 34.4217 49.0644 35.4217C49.2832 36.2029 50.5332 35.2654 51.5175 36.2654C51.83 36.5779 52.0175 36.9998 52.0175 37.4686V39.5154C52.0175 39.9842 51.83 40.4217 51.5175 40.7186C51.205 41.0311 50.7832 41.2186 50.3144 41.2186H49.5175C49.2988 41.2186 49.1269 41.3436 49.0644 41.5623C48.7988 42.5623 48.3925 43.5311 47.8769 44.4217C47.4707 45.1248 49.0175 45.3436 49.0175 46.7498C49.0175 47.1873 48.8457 47.6248 48.5175 47.9686L47.0644 49.4061C46.3769 50.0936 45.2675 50.0779 44.6113 49.3748L44.08 48.8436C43.9238 48.6873 43.705 48.6561 43.5175 48.7654C42.6269 49.2811 41.6582 49.6873 40.6582 49.9529C39.8769 50.1717 40.8144 51.4061 39.8144 52.4061C39.5019 52.7186 39.08 52.9061 38.5957 52.9061H36.5644C36.0957 52.9061 35.6738 52.7186 35.3613 52.4061C34.3613 51.4061 35.2988 50.1717 34.5175 49.9529C33.5175 49.6873 32.5488 49.2811 31.6582 48.7654C30.955 48.3592 30.7207 49.9061 29.33 49.9061C28.8925 49.9061 28.455 49.7498 28.1269 49.4061L26.6738 47.9686C26.0019 47.2967 26.0019 46.2186 26.6738 45.5467C27.7988 44.4217 27.4394 44.9998 26.6269 43.0311C26.4238 42.5467 26.2675 42.0623 26.1269 41.5623C25.9238 40.7811 24.6425 41.7186 23.6738 40.7186C23.3613 40.4061 23.1738 39.9842 23.1738 39.5154V37.4686C23.1738 36.5311 23.9394 35.7654 24.8925 35.7654H25.6894C25.9082 35.7654 26.08 35.6248 26.1425 35.4217C26.4082 34.4217 26.8144 33.4529 27.33 32.5623C27.4394 32.3748 27.4082 32.1561 27.2519 31.9998C26.705 31.4529 26.1894 31.0779 26.1894 30.2342C26.1894 29.7967 26.3613 29.3592 26.6894 29.0311L28.1425 27.5779C28.8144 26.9061 29.8925 26.9061 30.5644 27.5779C31.6894 28.7029 31.1113 28.3436 33.08 27.5311C33.5488 27.3279 34.0488 27.1561 34.5488 27.0311C34.7519 26.9686 34.8925 26.7967 34.8925 26.5779V25.7811C34.8613 24.8436 35.6269 24.0623 36.5644 24.0623ZM38.6113 25.3123H36.5644C36.3144 25.3123 36.1113 25.5154 36.1113 25.7811V26.5779C36.1113 27.3592 35.5957 28.0311 34.8457 28.2342C34.3925 28.3592 33.955 28.4998 33.5332 28.6873L32.2832 29.2967C31.6113 29.6873 30.7675 29.5779 30.2207 29.0311L29.6582 28.4686C29.4863 28.2967 29.1894 28.2967 29.0019 28.4686L27.5644 29.9217C27.3769 30.1092 27.3769 30.3904 27.5644 30.5779L28.1269 31.1404C28.6738 31.6873 28.7988 32.5311 28.4082 33.2029C27.9394 33.9998 27.5957 34.8592 27.3457 35.7654C27.1425 36.5154 26.4707 37.0311 25.6894 37.0311H24.8925C24.6425 37.0311 24.4238 37.2342 24.4238 37.4842V39.5311C24.4238 39.6561 24.4707 39.7811 24.5644 39.8592C24.9394 40.2342 25.8613 39.6873 26.7363 40.3436C27.0332 40.5623 27.2519 40.8904 27.3457 41.2654C27.4707 41.7186 27.6113 42.1561 27.7832 42.5779L28.3925 43.8279C28.7832 44.4998 28.6738 45.3436 28.1269 45.8904L27.5644 46.4529C27.3769 46.6248 27.3769 46.9217 27.5644 47.1092L29.0175 48.5623C29.1894 48.7342 29.4863 48.7342 29.6738 48.5623C30.1738 48.0623 30.5175 47.6092 31.2207 47.5154C31.58 47.4686 31.9707 47.5311 32.2988 47.7342C33.1113 48.2029 33.955 48.5467 34.8613 48.7967C35.6113 48.9998 36.1269 49.6717 36.1269 50.4529V51.2498C36.1269 51.3748 36.1738 51.4842 36.2675 51.5779C36.3613 51.6561 36.455 51.7186 36.5957 51.7186H38.6425C38.8925 51.7186 39.1113 51.5154 39.1113 51.2654C39.1113 50.5467 39.0332 49.9998 39.455 49.4217C39.6738 49.1248 40.0019 48.9061 40.3769 48.8123C41.2675 48.5779 42.1425 48.2186 42.9394 47.7498C43.6113 47.3592 44.455 47.4686 45.0019 48.0154L45.5644 48.5779C45.7363 48.7498 46.0332 48.7498 46.2207 48.5779L47.6738 47.1248C47.7675 47.0311 47.8144 46.9217 47.8144 46.7967C47.8144 46.2811 46.7675 45.9998 46.6269 44.9217C46.58 44.5623 46.6425 44.1873 46.8457 43.8436C47.2988 43.0467 47.6582 42.1873 47.9082 41.2811C48.1113 40.5311 48.7832 40.0154 49.5644 40.0154H50.3613C50.4863 40.0154 50.6113 39.9686 50.6894 39.8748C50.7675 39.7967 50.83 39.6873 50.83 39.5467V37.4998C50.83 37.2498 50.6269 37.0467 50.3769 37.0467C49.6738 37.0467 49.1113 37.1248 48.5332 36.6873C48.2363 36.4686 48.0175 36.1404 47.9238 35.7654C47.6894 34.8592 47.33 34.0154 46.8613 33.2029C46.4707 32.5311 46.58 31.6873 47.1269 31.1404L47.6894 30.5779C47.8769 30.3904 47.8769 30.1092 47.6894 29.9217L46.2363 28.4686C46.1425 28.3748 46.0332 28.3279 45.9082 28.3279C45.3769 28.3279 45.1113 29.3748 44.0332 29.5154C43.6738 29.5623 43.2832 29.4998 42.955 29.2967C42.5488 29.0623 42.1425 28.8592 41.705 28.6873C41.2832 28.5154 40.8457 28.3592 40.3925 28.2342C39.6425 28.0311 39.1269 27.3592 39.1269 26.5779V25.7811C39.08 25.5311 38.8769 25.3123 38.6113 25.3123ZM38.0644 59.4686H38.08C43.2207 59.2498 47.8613 57.2029 51.4082 53.9842C54.8457 50.8748 57.2363 46.6561 58.0644 41.9217L54.7207 42.0623C54.2519 42.0779 53.9238 41.5779 54.1425 41.1561L57.9394 33.9061C56.8925 28.9061 54.1113 24.5779 50.2675 21.5623C46.4238 18.5311 41.5332 16.8279 36.2675 17.0467C26.2363 17.4686 17.9394 24.8436 16.2363 34.5936L19.58 34.4529C20.0488 34.4373 20.3769 34.9373 20.1582 35.3592L16.3613 42.6092C17.4082 47.6092 20.1894 51.9373 24.0332 54.9686C27.4238 57.6248 31.6269 59.2811 36.1894 59.4842H38.0644V59.4686ZM38.1425 60.7186C37.8144 60.7654 36.6113 60.7342 36.2363 60.7342H5.47066V66.4842H38.3769C44.9707 66.2029 50.9394 63.6717 55.58 59.6717L56.5644 58.7811C61.4082 54.1873 64.5957 47.9217 65.2519 40.9529C65.2832 40.6404 65.5332 40.3904 65.8457 40.3904L68.33 40.2811L61.58 29.6404L55.7363 40.8123L58.7675 40.6873C59.1582 40.6717 59.4707 41.0154 59.4082 41.3904C57.9238 52.0467 49.0175 60.2342 38.1425 60.7186ZM37.705 67.7186H4.84566C4.50191 67.7186 4.22066 67.4373 4.22066 67.0936V60.0936C4.22066 59.7498 4.50191 59.4686 4.84566 59.4686H16.6738C14.4082 57.2967 12.5019 54.7498 11.0175 51.9373C9.36128 48.7811 8.26753 45.2811 7.84566 41.5779L4.31441 36.0154C4.06441 35.6092 4.33003 35.0779 4.81441 35.0623L7.84566 34.9373C9.45503 20.5936 21.33 9.40606 35.9082 8.81231C43.6894 8.48419 50.8925 11.2029 56.3769 15.9217C61.8457 20.6404 65.5957 27.3279 66.4394 34.9686L69.955 40.5154C70.205 40.9217 69.9394 41.4529 69.455 41.4686L66.4238 41.5936C65.6425 48.5623 62.4238 54.8279 57.5957 59.4842H62.3925V56.6092C62.3925 56.1404 62.9082 55.7967 63.3613 56.0936L75.455 63.0779C75.8769 63.3123 75.8769 63.9217 75.455 64.1561L63.33 71.1561C62.9082 71.4061 62.3925 71.0936 62.3925 70.6092V67.7342H37.705V67.7186ZM18.5019 59.4686H29.6738C22.7988 57.0623 17.4394 51.3904 15.4707 44.2811L13.33 48.3904C13.0957 48.8904 12.4707 48.8748 12.2207 48.4842L9.53316 44.2498C10.8144 50.1873 13.9863 55.4998 18.5019 59.4686ZM15.1269 42.2811C15.1425 42.2498 15.1582 42.2186 15.1738 42.1873L18.5488 35.7342L15.5175 35.8592C15.1269 35.8748 14.8144 35.5311 14.8769 35.1561C16.3613 24.4686 25.2988 16.2498 36.205 15.7967C41.7832 15.5623 46.9707 17.3748 51.0332 20.5779C54.7363 23.4842 57.5019 27.5467 58.8144 32.2342L60.955 28.1248C61.1894 27.6248 61.8144 27.6404 62.0644 28.0311L64.7519 32.2654C63.4238 26.1404 60.1269 20.7654 55.5644 16.8436C50.3144 12.3436 43.4082 9.73419 35.955 10.0467C21.7988 10.6404 10.3144 21.6561 9.03316 35.5936C9.00191 35.9061 8.75191 36.1404 8.43941 36.1561L5.95503 36.2654L12.705 46.9061L15.1269 42.2811ZM56.2363 60.7186C53.205 63.2967 49.6425 65.2654 45.7363 66.4686H63.0332C63.3769 66.4686 63.6582 66.7498 63.6582 67.0936V69.5154L73.9082 63.5936L63.6582 57.6717V60.0936C63.6582 60.4373 63.3769 60.7186 63.0332 60.7186H56.2363Z" fill="#393939"/>
</svg>
