<svg width="45" height="45" viewBox="0 0 45 45" fill="none" xmlns="http://www.w3.org/2000/svg">
<path d="M16.8724 6.9805C12.6693 7.93879 8.9921 10.4688 6.59486 14.0518C4.19761 17.6348 3.26201 21.9991 3.97991 26.2499M16.8724 6.9805L11.2474 4.68738M16.8724 6.9805L14.9974 12.1874M35.7424 30.9374C36.9004 28.607 37.5011 26.0396 37.4974 23.4374C37.4974 15.0749 31.4168 8.1355 23.4349 6.79488M35.7424 30.9374L41.2474 27.1874M35.7424 30.9374L32.8099 25.3124M6.58991 32.8124C8.13058 35.1212 10.2176 37.0139 12.6656 38.3222C15.1135 39.6306 17.8467 40.3142 20.6224 40.3124C24.7743 40.3176 28.7814 38.7869 31.8724 36.0149M6.58991 32.8124H13.1224M6.58991 32.8124V39.3749" stroke="url(#paint0_linear_1460_3009)" stroke-width="4" stroke-linecap="round" stroke-linejoin="round"/>
<path fill-rule="evenodd" clip-rule="evenodd" d="M28.9597 16.5807C28.4728 16.094 27.8126 15.8206 27.1242 15.8206C26.4358 15.8206 25.7756 16.094 25.2887 16.5807L24.6769 17.1934L28.9605 21.477L29.5715 20.8652C29.8126 20.6241 30.0039 20.3379 30.1344 20.0229C30.2649 19.7079 30.3321 19.3702 30.3321 19.0293C30.3321 18.6883 30.2649 18.3507 30.1344 18.0357C30.0039 17.7207 29.8126 17.4344 29.5715 17.1934L28.9597 16.5807ZM27.736 22.7007L23.4524 18.417L15.586 26.2842C15.4139 26.4564 15.2936 26.6735 15.239 26.9108L14.3485 30.7661C14.3153 30.9092 14.3192 31.0584 14.3596 31.1996C14.4 31.3409 14.4757 31.4695 14.5796 31.5734C14.6835 31.6773 14.8122 31.753 14.9534 31.7935C15.0946 31.8339 15.2439 31.8377 15.387 31.8045L19.2431 30.9149C19.4801 30.8601 19.6969 30.7399 19.8688 30.5679L27.736 22.7007Z" fill="url(#paint1_linear_1460_3009)"/>
<defs>
<linearGradient id="paint0_linear_1460_3009" x1="22.4958" y1="4.68738" x2="22.4958" y2="40.3124" gradientUnits="userSpaceOnUse">
<stop stop-color="#4B9ADB"/>
<stop offset="1" stop-color="#9747FF"/>
</linearGradient>
<linearGradient id="paint1_linear_1460_3009" x1="22.3291" y1="15.8206" x2="22.3291" y2="31.8269" gradientUnits="userSpaceOnUse">
<stop stop-color="#4B9ADB"/>
<stop offset="1" stop-color="#9747FF"/>
</linearGradient>
</defs>
</svg>
