<svg width="80" height="80" viewBox="0 0 80 80" fill="none" xmlns="http://www.w3.org/2000/svg">
<path d="M70 40C70 56.5687 56.5687 70 40 70C23.4315 70 10 56.5687 10 40C10 23.4315 23.4315 10 40 10C56.5687 10 70 23.4315 70 40Z" stroke="#393939" stroke-width="5"/>
<path d="M23.334 40C23.334 30.7952 30.7959 23.3333 40.0007 23.3333" stroke="#393939" stroke-width="4" stroke-linecap="round"/>
<path d="M43.3327 40C43.3327 41.841 41.8403 43.3334 39.9993 43.3334C38.1583 43.3334 36.666 41.841 36.666 40C36.666 38.159 38.1583 36.6667 39.9993 36.6667C41.8403 36.6667 43.3327 38.159 43.3327 40Z" stroke="#393939" stroke-width="3"/>
<path d="M40 40L53.3333 26.6667" stroke="#393939" stroke-width="4" stroke-linecap="round" stroke-linejoin="round"/>
</svg>
