<svg width="80" height="80" viewBox="0 0 80 80" fill="none" xmlns="http://www.w3.org/2000/svg">
<path fill-rule="evenodd" clip-rule="evenodd" d="M40.0034 66.3366C25.4973 66.3366 13.6631 54.5099 13.6631 40.0039C13.6631 25.498 25.4975 13.6636 40.0034 13.6636C54.5094 13.6636 66.3361 25.4978 66.3361 40.0039C66.3361 54.5101 54.5096 66.3366 40.0034 66.3366ZM40.0034 63.8268C53.1268 63.8268 63.8263 53.1273 63.8263 40.0039C63.8263 26.8803 53.127 16.1734 40.0034 16.1734C26.8796 16.1734 16.173 26.8801 16.173 40.0039C16.173 53.1275 26.8798 63.8268 40.0034 63.8268ZM36.706 40.4323L48.0095 29.0106L48.0119 29.0084C49.9441 27.0661 53.0978 27.0566 55.0401 28.9888C56.9817 30.9204 56.9935 34.0632 55.0619 36.0147L55.0613 36.0153C50.1132 41.0083 45.2026 46.0312 40.2321 51.0017C38.2906 52.9432 35.138 52.9432 33.1965 51.0017L24.957 42.7546C23.0159 40.8138 23.0137 37.6721 24.9546 35.7212L24.957 35.7189C26.8984 33.7774 30.0511 33.7774 31.9926 35.7189L36.706 40.4323ZM35.8231 43.0989L30.218 37.4936C29.2562 36.5319 27.695 36.5316 26.7328 37.4925C25.7712 38.4602 25.7693 40.0175 26.7317 40.9799L34.9712 49.2269C35.9333 50.189 37.4953 50.189 38.4575 49.2269C43.425 44.2592 48.333 39.2393 53.278 34.2492C54.2351 33.2821 54.2319 31.7251 53.2699 30.7681C52.3088 29.8119 50.7483 29.817 49.7918 30.7778L37.6024 43.0942C37.3676 43.3316 37.0478 43.4655 36.7138 43.4665C36.3799 43.4672 36.0594 43.335 35.8231 43.0989ZM71.8619 45.3154C71.9752 44.6321 72.6219 44.1695 73.3052 44.2828C73.9885 44.396 74.4512 45.0428 74.3378 45.7261C71.9122 60.3535 60.353 71.9127 45.7256 74.3383C45.0423 74.4517 44.3955 73.989 44.2823 73.3057C44.169 72.6224 44.6316 71.9756 45.3149 71.8624C58.8865 69.6119 69.6114 58.887 71.8619 45.3154ZM34.6843 71.8624C35.3676 71.9756 35.8302 72.6224 35.7169 73.3057C35.6037 73.989 34.957 74.4517 34.2737 74.3383C19.6462 71.9127 8.08699 60.3535 5.66142 45.7261C5.54801 45.0428 6.01075 44.396 6.69405 44.2828C7.37734 44.1695 8.02409 44.6321 8.13734 45.3154C10.3879 58.887 21.1127 69.6119 34.6843 71.8624ZM8.13734 34.6848C8.02409 35.3681 7.37734 35.8307 6.69405 35.7174C6.01075 35.6042 5.54801 34.9574 5.66142 34.2741C8.08699 19.6467 19.6462 8.08748 34.2737 5.66191C34.957 5.5485 35.6037 6.01124 35.7169 6.69454C35.8302 7.37783 35.3676 8.02458 34.6843 8.13783C21.1127 10.3883 10.3879 21.1132 8.13734 34.6848ZM45.3149 8.13783C44.6316 8.02458 44.169 7.37783 44.2823 6.69454C44.3955 6.01124 45.0423 5.5485 45.7256 5.66191C60.353 8.08748 71.9122 19.6467 74.3378 34.2741C74.4512 34.9574 73.9885 35.6042 73.3052 35.7174C72.6219 35.8307 71.9752 35.3681 71.8619 34.6848C69.6114 21.1132 58.8865 10.3883 45.3149 8.13783ZM41.2545 10.541C41.2545 11.2335 40.6922 11.7959 39.9996 11.7959C39.3071 11.7959 38.7447 11.2335 38.7447 10.541V2.35305C38.7447 1.6605 39.3071 1.09814 39.9996 1.09814C40.6922 1.09814 41.2545 1.6605 41.2545 2.35305V10.541ZM69.4588 41.255C68.7662 41.255 68.2039 40.6927 68.2039 40.0001C68.2039 39.3076 68.7662 38.7452 69.4588 38.7452H77.6467C78.3392 38.7452 78.9016 39.3076 78.9016 40.0001C78.9016 40.6927 78.3392 41.255 77.6467 41.255H69.4588ZM38.7447 69.4592C38.7447 68.7667 39.3071 68.2043 39.9996 68.2043C40.6922 68.2043 41.2545 68.7667 41.2545 69.4592V77.6472C41.2545 78.3397 40.6922 78.9021 39.9996 78.9021C39.3071 78.9021 38.7447 78.3397 38.7447 77.6472V69.4592ZM10.5405 38.7452C11.233 38.7452 11.7954 39.3076 11.7954 40.0001C11.7954 40.6927 11.233 41.255 10.5405 41.255H2.35256C1.66001 41.255 1.09766 40.6927 1.09766 40.0001C1.09766 39.3076 1.66001 38.7452 2.35256 38.7452H10.5405Z" fill="#393939"/>
</svg>
