<svg width="80" height="80" viewBox="0 0 80 80" fill="none" xmlns="http://www.w3.org/2000/svg">
<path d="M26.0607 11.7577H17.091C16.3638 11.7577 15.8789 11.2729 15.8789 10.5456C15.8789 9.81834 16.3638 9.3335 17.091 9.3335H26.0607C26.788 9.3335 27.2728 9.81834 27.2728 10.5456C27.2728 11.2729 26.788 11.7577 26.0607 11.7577Z" fill="url(#paint0_linear_1805_3806)"/>
<path d="M62.9084 11.7577H53.9387C53.2114 11.7577 52.7266 11.2729 52.7266 10.5456C52.7266 9.81834 53.2114 9.3335 53.9387 9.3335H62.9084C63.6357 9.3335 64.1205 9.81834 64.1205 10.5456C64.1205 11.2729 63.6357 11.7577 62.9084 11.7577Z" fill="url(#paint1_linear_1805_3806)"/>
<path d="M72.6049 62.788H7.39276C3.8776 62.788 1.21094 60.1214 1.21094 56.6062V15.5153C1.21094 12.0002 3.8776 9.3335 7.39276 9.3335H10.0594C10.7867 9.3335 11.2715 9.81834 11.2715 10.5456C11.2715 11.2729 10.7867 11.7577 10.0594 11.7577H7.39276C5.33215 11.7577 3.63518 13.4547 3.63518 15.5153V56.6062C3.63518 58.6668 5.33215 60.3638 7.39276 60.3638H72.6049C74.6655 60.3638 76.3625 58.6668 76.3625 56.6062V15.5153C76.3625 13.4547 74.6655 11.7577 72.6049 11.7577H69.9382C69.2109 11.7577 68.7261 11.2729 68.7261 10.5456C68.7261 9.81834 69.2109 9.3335 69.9382 9.3335H72.6049C76.12 9.3335 78.7867 12.0002 78.7867 15.5153V56.6062C78.7867 60.1214 76.12 62.788 72.6049 62.788Z" fill="url(#paint2_linear_1805_3806)"/>
<path d="M77.5746 55.1518H2.42306C1.69579 55.1518 1.21094 54.6669 1.21094 53.9397C1.21094 53.2124 1.69579 52.7275 2.42306 52.7275H77.5746C78.3018 52.7275 78.7867 53.2124 78.7867 53.9397C78.7867 54.6669 78.3018 55.1518 77.5746 55.1518Z" fill="url(#paint3_linear_1805_3806)"/>
<path d="M39.9973 58.9091C39.6336 58.9091 39.3912 58.7879 39.1488 58.5455C39.0276 58.4243 38.9064 58.303 38.9064 58.1818C38.9064 58.0606 38.7852 57.9394 38.7852 57.697C38.7852 57.4546 38.7852 57.3333 38.9064 57.2121C39.0276 57.0909 39.0276 56.9697 39.1488 56.8485C39.6336 56.3637 40.3609 56.3637 40.8458 56.8485C40.967 56.9697 41.0882 57.0909 41.0882 57.2121C41.0882 57.3333 41.2094 57.4546 41.2094 57.697C41.2094 57.9394 41.2094 58.0606 41.0882 58.1818C40.967 58.303 40.967 58.4243 40.8458 58.5455C40.6033 58.7879 40.3609 58.9091 39.9973 58.9091Z" fill="url(#paint4_linear_1805_3806)"/>
<path d="M47.2694 72.0001H32.6027C31.8755 72.0001 31.3906 71.5153 31.3906 70.788V61.5759C31.3906 60.8486 31.8755 60.3638 32.6027 60.3638H47.2694C47.9967 60.3638 48.4815 60.8486 48.4815 61.5759V70.788C48.4815 71.5153 47.9967 72.0001 47.2694 72.0001ZM33.8149 69.5759H46.0573V62.788H33.8149V69.5759Z" fill="url(#paint5_linear_1805_3806)"/>
<path d="M56.2399 78.5454H23.7551C23.0278 78.5454 22.543 78.0605 22.543 77.3333C22.543 73.0908 26.0581 69.5757 30.3005 69.5757H49.4521C53.8157 69.5757 57.4521 73.0908 57.4521 77.3333C57.4521 78.0605 56.9672 78.5454 56.2399 78.5454ZM25.0884 76.1211H54.9066C54.3005 73.8181 52.1187 71.9999 49.4521 71.9999H30.3005C27.7551 71.9999 25.6945 73.6969 25.0884 76.1211Z" fill="url(#paint6_linear_1805_3806)"/>
<path d="M63.1509 48.1211H16.8479C14.4237 48.1211 12.6055 46.3029 12.6055 43.8787C12.6055 41.4544 14.4237 39.6362 16.8479 39.6362H63.1509C65.5752 39.6362 67.3934 41.4544 67.3934 43.8787C67.3934 46.1817 65.454 48.1211 63.1509 48.1211ZM16.8479 42.0605C15.8782 42.0605 15.0297 42.909 15.0297 43.8787C15.0297 44.8484 15.8782 45.6968 16.8479 45.6968H63.1509C64.2418 45.6968 64.9691 44.7271 64.9691 43.8787C64.9691 42.909 64.1206 42.0605 63.1509 42.0605H16.8479Z" fill="url(#paint7_linear_1805_3806)"/>
<path d="M19.7551 48.1212C19.0278 48.1212 18.543 47.6364 18.543 46.9091V40.7273C18.543 40 19.0278 39.5151 19.7551 39.5151C20.4824 39.5151 20.9672 40 20.9672 40.7273V46.9091C20.9672 47.6364 20.4824 48.1212 19.7551 48.1212Z" fill="url(#paint8_linear_1805_3806)"/>
<path d="M25.5754 48.1212C24.8481 48.1212 24.3633 47.6364 24.3633 46.9091V40.7273C24.3633 40 24.8481 39.5151 25.5754 39.5151C26.3027 39.5151 26.7875 40 26.7875 40.7273V46.9091C26.7875 47.6364 26.3027 48.1212 25.5754 48.1212Z" fill="url(#paint9_linear_1805_3806)"/>
<path d="M31.2707 48.1212C30.5434 48.1212 30.0586 47.6364 30.0586 46.9091V40.7273C30.0586 40 30.5434 39.5151 31.2707 39.5151C31.998 39.5151 32.4828 40 32.4828 40.7273V46.9091C32.4828 47.6364 31.998 48.1212 31.2707 48.1212Z" fill="url(#paint10_linear_1805_3806)"/>
<path d="M37.091 48.1212C36.3638 48.1212 35.8789 47.6364 35.8789 46.9091V40.7273C35.8789 40 36.3638 39.5151 37.091 39.5151C37.8183 39.5151 38.3031 40 38.3031 40.7273V46.9091C38.3031 47.6364 37.8183 48.1212 37.091 48.1212Z" fill="url(#paint11_linear_1805_3806)"/>
<path d="M42.7863 48.1212C42.0591 48.1212 41.5742 47.6364 41.5742 46.9091V40.7273C41.5742 40 42.0591 39.5151 42.7863 39.5151C43.5136 39.5151 43.9985 40 43.9985 40.7273V46.9091C43.9985 47.6364 43.5136 48.1212 42.7863 48.1212Z" fill="url(#paint12_linear_1805_3806)"/>
<path d="M39.9975 36.2426C30.4218 36.2426 22.543 28.3638 22.543 18.788C22.543 9.21228 30.4218 1.3335 39.9975 1.3335C49.5733 1.3335 57.4521 9.21228 57.4521 18.788C57.4521 28.3638 49.5733 36.2426 39.9975 36.2426ZM39.9975 3.75774C31.7551 3.75774 24.9672 10.5456 24.9672 18.788C24.9672 27.0305 31.7551 33.8183 39.9975 33.8183C48.2399 33.8183 55.0278 27.0305 55.0278 18.788C55.0278 10.5456 48.2399 3.75774 39.9975 3.75774Z" fill="url(#paint13_linear_1805_3806)"/>
<path d="M29.2082 19.3941C28.4809 19.3941 27.9961 18.9093 27.9961 18.182C27.9961 11.879 33.087 6.78809 39.39 6.78809C40.1173 6.78809 40.6022 7.27293 40.6022 8.00021C40.6022 8.72748 40.1173 9.21233 39.39 9.21233C34.4203 9.21233 30.4203 13.2123 30.4203 18.182C30.4203 18.9093 29.9355 19.3941 29.2082 19.3941Z" fill="url(#paint14_linear_1805_3806)"/>
<path d="M39.9982 24.9701C36.6043 24.9701 33.8164 22.1822 33.8164 18.7883C33.8164 15.3943 36.6043 12.6064 39.9982 12.6064C43.3922 12.6064 46.18 15.3943 46.18 18.7883C46.18 22.1822 43.3922 24.9701 39.9982 24.9701ZM39.9982 15.0307C37.9376 15.0307 36.2406 16.7277 36.2406 18.7883C36.2406 20.8489 37.9376 22.5458 39.9982 22.5458C42.0588 22.5458 43.7558 20.8489 43.7558 18.7883C43.7558 16.7277 42.0588 15.0307 39.9982 15.0307Z" fill="url(#paint15_linear_1805_3806)"/>
<path d="M13.2112 32.364C12.8476 32.364 12.484 32.1215 12.2416 31.8791L6.54458 23.8791C6.30216 23.5155 6.30216 23.0306 6.42337 22.667C6.66579 22.3034 7.02943 22.0609 7.51428 22.0609H8.84761V3.87911C8.84761 3.15184 9.33246 2.66699 10.0597 2.66699H16.3628C17.09 2.66699 17.5749 3.15184 17.5749 3.87911V21.9397H18.787C19.2719 21.9397 19.6355 22.1821 19.8779 22.5458C20.1203 22.9094 19.9991 23.3943 19.7567 23.7579L14.1809 31.7579C13.9385 32.1215 13.5749 32.364 13.2112 32.364ZM9.81731 24.364L13.2112 29.0912L16.484 24.364H16.3628C15.6355 24.364 15.1506 23.8791 15.1506 23.1518V5.09123H11.2719V23.1518C11.2719 23.8791 10.787 24.364 10.0597 24.364H9.81731Z" fill="url(#paint16_linear_1805_3806)"/>
<path d="M66.7853 32.364C66.4217 32.364 66.0581 32.1215 65.8157 31.8791L60.2399 23.8791C59.9975 23.5155 59.9975 23.0306 60.1187 22.667C60.3611 22.3034 60.7247 22.0609 61.2096 22.0609H62.4217V3.87911C62.4217 3.15184 62.9066 2.66699 63.6338 2.66699H69.9369C70.6641 2.66699 71.149 3.15184 71.149 3.87911V21.9397H72.4823C72.9672 21.9397 73.3308 22.1821 73.5732 22.5458C73.8157 22.9094 73.6944 23.3943 73.452 23.7579L67.755 31.7579C67.5126 32.1215 67.149 32.364 66.7853 32.364ZM63.5126 24.364L66.7853 29.0912L70.1793 24.364H69.9369C69.2096 24.364 68.7247 23.8791 68.7247 23.1518V5.09123H64.846V23.1518C64.846 23.8791 64.3611 24.364 63.5126 24.364Z" fill="url(#paint17_linear_1805_3806)"/>
<defs>
<linearGradient id="paint0_linear_1805_3806" x1="21.5759" y1="9.3335" x2="21.5759" y2="11.7577" gradientUnits="userSpaceOnUse">
<stop stop-color="#9747FF"/>
<stop offset="1" stop-color="#4B9ADB"/>
</linearGradient>
<linearGradient id="paint1_linear_1805_3806" x1="58.4235" y1="9.3335" x2="58.4235" y2="11.7577" gradientUnits="userSpaceOnUse">
<stop stop-color="#9747FF"/>
<stop offset="1" stop-color="#4B9ADB"/>
</linearGradient>
<linearGradient id="paint2_linear_1805_3806" x1="39.9988" y1="9.3335" x2="39.9988" y2="62.788" gradientUnits="userSpaceOnUse">
<stop stop-color="#9747FF"/>
<stop offset="1" stop-color="#4B9ADB"/>
</linearGradient>
<linearGradient id="paint3_linear_1805_3806" x1="39.9988" y1="52.7275" x2="39.9988" y2="55.1518" gradientUnits="userSpaceOnUse">
<stop stop-color="#9747FF"/>
<stop offset="1" stop-color="#4B9ADB"/>
</linearGradient>
<linearGradient id="paint4_linear_1805_3806" x1="39.9973" y1="56.4849" x2="39.9973" y2="58.9091" gradientUnits="userSpaceOnUse">
<stop stop-color="#9747FF"/>
<stop offset="1" stop-color="#4B9ADB"/>
</linearGradient>
<linearGradient id="paint5_linear_1805_3806" x1="39.9361" y1="60.3638" x2="39.9361" y2="72.0001" gradientUnits="userSpaceOnUse">
<stop stop-color="#9747FF"/>
<stop offset="1" stop-color="#4B9ADB"/>
</linearGradient>
<linearGradient id="paint6_linear_1805_3806" x1="39.9975" y1="69.5757" x2="39.9975" y2="78.5454" gradientUnits="userSpaceOnUse">
<stop stop-color="#9747FF"/>
<stop offset="1" stop-color="#4B9ADB"/>
</linearGradient>
<linearGradient id="paint7_linear_1805_3806" x1="39.9994" y1="39.6362" x2="39.9994" y2="48.1211" gradientUnits="userSpaceOnUse">
<stop stop-color="#9747FF"/>
<stop offset="1" stop-color="#4B9ADB"/>
</linearGradient>
<linearGradient id="paint8_linear_1805_3806" x1="19.7551" y1="39.5151" x2="19.7551" y2="48.1212" gradientUnits="userSpaceOnUse">
<stop stop-color="#9747FF"/>
<stop offset="1" stop-color="#4B9ADB"/>
</linearGradient>
<linearGradient id="paint9_linear_1805_3806" x1="25.5754" y1="39.5151" x2="25.5754" y2="48.1212" gradientUnits="userSpaceOnUse">
<stop stop-color="#9747FF"/>
<stop offset="1" stop-color="#4B9ADB"/>
</linearGradient>
<linearGradient id="paint10_linear_1805_3806" x1="31.2707" y1="39.5151" x2="31.2707" y2="48.1212" gradientUnits="userSpaceOnUse">
<stop stop-color="#9747FF"/>
<stop offset="1" stop-color="#4B9ADB"/>
</linearGradient>
<linearGradient id="paint11_linear_1805_3806" x1="37.091" y1="39.5151" x2="37.091" y2="48.1212" gradientUnits="userSpaceOnUse">
<stop stop-color="#9747FF"/>
<stop offset="1" stop-color="#4B9ADB"/>
</linearGradient>
<linearGradient id="paint12_linear_1805_3806" x1="42.7863" y1="39.5151" x2="42.7863" y2="48.1212" gradientUnits="userSpaceOnUse">
<stop stop-color="#9747FF"/>
<stop offset="1" stop-color="#4B9ADB"/>
</linearGradient>
<linearGradient id="paint13_linear_1805_3806" x1="39.9975" y1="1.3335" x2="39.9975" y2="36.2426" gradientUnits="userSpaceOnUse">
<stop stop-color="#9747FF"/>
<stop offset="1" stop-color="#4B9ADB"/>
</linearGradient>
<linearGradient id="paint14_linear_1805_3806" x1="34.2991" y1="6.78809" x2="34.2991" y2="19.3941" gradientUnits="userSpaceOnUse">
<stop stop-color="#9747FF"/>
<stop offset="1" stop-color="#4B9ADB"/>
</linearGradient>
<linearGradient id="paint15_linear_1805_3806" x1="39.9982" y1="12.6064" x2="39.9982" y2="24.9701" gradientUnits="userSpaceOnUse">
<stop stop-color="#9747FF"/>
<stop offset="1" stop-color="#4B9ADB"/>
</linearGradient>
<linearGradient id="paint16_linear_1805_3806" x1="13.1769" y1="2.66699" x2="13.1769" y2="32.364" gradientUnits="userSpaceOnUse">
<stop stop-color="#9747FF"/>
<stop offset="1" stop-color="#4B9ADB"/>
</linearGradient>
<linearGradient id="paint17_linear_1805_3806" x1="66.8722" y1="2.66699" x2="66.8722" y2="32.364" gradientUnits="userSpaceOnUse">
<stop stop-color="#9747FF"/>
<stop offset="1" stop-color="#4B9ADB"/>
</linearGradient>
</defs>
</svg>
