<svg width="80" height="80" viewBox="0 0 80 80" fill="none" xmlns="http://www.w3.org/2000/svg">
<path fill-rule="evenodd" clip-rule="evenodd" d="M75.432 53.3687C75.2146 52.8989 74.6576 52.6942 74.1875 52.9114L68.8059 55.4007C68.7396 55.4314 68.6545 55.4007 68.6243 55.3354L59.2551 35.082C59.2376 35.0445 59.2443 35.0082 59.2529 34.9845C59.262 34.9598 59.2812 34.9264 59.3218 34.9076L64.7032 32.4184C65.1731 32.2011 65.3779 31.6439 65.1606 31.1739C64.9432 30.704 64.3862 30.4992 63.916 30.7165L61.0384 32.0476C60.9096 31.5421 60.6654 31.0679 60.3117 30.635L63.0375 29.3754C63.3693 29.2221 63.5817 28.89 63.5817 28.5243V22.7C63.5817 22.3343 63.369 22.002 63.037 21.8487L58.8298 19.9073L57.3481 16.3329L58.9529 11.9823C59.0796 11.6389 58.9948 11.2532 58.7359 10.9946L54.6167 6.87996C54.3582 6.62184 53.9732 6.5373 53.6304 6.6634L49.2795 8.26418L45.7046 6.78215L43.7632 2.57496C43.6101 2.24293 43.2778 2.03027 42.912 2.03027H37.0875C36.7218 2.03027 36.3895 2.24293 36.2362 2.57496L34.2948 6.78215L30.72 8.26418L26.369 6.6634C26.0264 6.5373 25.6412 6.62184 25.3828 6.87996L21.2636 10.9946C21.0047 11.2532 20.9198 11.639 21.0465 11.9823L22.6514 16.3329L21.1695 19.9073L16.9623 21.8487C16.6303 22.002 16.4176 22.3343 16.4176 22.7V28.5243C16.4176 28.8896 16.63 29.2218 16.9615 29.3753L19.6868 30.6359C19.3336 31.0686 19.0896 31.5425 18.9609 32.0475L16.0832 30.7164C15.6132 30.4989 15.0562 30.7037 14.8387 31.1737C14.6214 31.6437 14.8261 32.2007 15.2961 32.4182L20.6773 34.9075C20.7181 34.9264 20.7373 34.9596 20.7464 34.9843C20.7551 35.0081 20.7618 35.0443 20.7429 35.0846L11.3681 55.3409C11.3514 55.3775 11.3206 55.3954 11.2978 55.4039C11.2729 55.4131 11.235 55.42 11.1932 55.4006L5.81184 52.9114C5.34168 52.6942 4.78465 52.8987 4.56731 53.3687C4.34996 53.8387 4.55465 54.3959 5.02465 54.6132L10.4059 57.1025C10.6742 57.2265 10.9603 57.289 11.2476 57.289C11.484 57.289 11.7214 57.2467 11.9501 57.1618C12.4526 56.9753 12.8509 56.6059 13.0701 56.1271C14.2576 57.1561 14.76 58.5314 15.2842 59.9739C15.8436 61.5134 16.4214 63.0973 17.8189 64.3101L17.6495 64.5998C16.5664 66.4443 17.1889 68.8281 19.0403 69.9154C19.6536 70.2725 20.3254 70.4423 20.9892 70.4421C21.4256 70.4421 21.8581 70.3675 22.2684 70.2257C22.2864 70.3237 22.3068 70.4217 22.3325 70.519C22.5962 71.5251 23.2325 72.3661 24.1232 72.8864C24.724 73.2381 25.3937 73.4179 26.0739 73.4179C26.4046 73.4179 26.7379 73.3754 27.0668 73.2893C27.1648 73.2637 27.2598 73.2315 27.3547 73.199C27.3726 73.2973 27.3931 73.3954 27.4186 73.4931C27.6818 74.5011 28.3175 75.3429 29.2079 75.8629C29.8218 76.2223 30.4953 76.3932 31.1607 76.3932C32.1054 76.3932 33.0328 76.0473 33.7514 75.4087C34.0817 76.1193 34.6153 76.7128 35.3043 77.1175C35.9159 77.4736 36.5867 77.6428 37.2496 77.6428C38.2825 77.6428 39.2953 77.2303 40.0368 76.4753L41.5601 77.3789C42.2175 77.7695 42.9531 77.9695 43.7014 77.9695C44.0534 77.9695 44.4082 77.9251 44.7592 77.8357C45.8546 77.5562 46.7732 76.8701 47.3456 75.9042C47.7884 75.1576 47.9831 74.3081 47.9184 73.4528C48.4081 73.6467 48.9261 73.7473 49.4512 73.7473C49.8029 73.7473 50.1578 73.7029 50.5084 73.6136C51.6054 73.3336 52.5256 72.6464 53.099 71.6787C53.6784 70.702 53.8154 69.5836 53.572 68.5561C53.576 68.5561 53.5801 68.5564 53.5842 68.5564C55.0267 68.5564 56.4343 67.8184 57.2234 66.4909C57.8353 65.4562 57.9536 64.2642 57.6506 63.1897C59.0126 63.1168 60.3159 62.3895 61.0636 61.1315C61.5457 60.3164 61.7336 59.3797 61.6118 58.4478C63.7498 57.9529 65.5131 57.2075 66.9546 56.1865C67.3062 56.8807 68.0129 57.2886 68.7504 57.2886C69.0329 57.2886 69.3201 57.2289 69.5929 57.1026L74.9743 54.6134C75.4442 54.3961 75.649 53.8389 75.4317 53.3689L75.432 53.3687ZM58.5345 33.2059C58.0471 33.4314 57.6768 33.8345 57.4918 34.3409C57.3073 34.8459 57.33 35.3907 57.5546 35.872L57.6104 35.9925C55.3636 36.4557 53.7817 36.7476 53.1989 36.8042C52.2961 36.8921 51.2198 36.8061 50.055 36.6554V32.0546C50.055 31.3359 49.8559 30.6607 49.4789 30.0454C52.6836 29.4831 56.5165 29.9836 58.3131 31.3109C58.942 31.7754 59.2531 32.2853 59.2679 32.8667L58.5345 33.2059ZM44.2321 32.2809C43.7145 32.2809 43.2946 32.7007 43.2946 33.2184V35.817C40.989 35.7206 38.7042 35.9911 36.7054 37.1857V33.2184C36.7054 32.7007 36.2856 32.2809 35.7679 32.2809C35.2503 32.2809 34.8304 32.7007 34.8304 33.2184V37.5686C33.9043 36.9842 32.89 36.5971 31.82 36.3436V32.0546C31.82 29.6903 36.0345 28.4145 40.0001 28.4145C42.2271 28.4145 44.3726 28.802 45.8864 29.4775C46.9328 29.9445 48.1801 30.7706 48.1801 32.0545V36.3834C48.1571 36.38 48.1342 36.3764 48.1112 36.3729C47.155 36.2265 46.1671 36.0754 45.1698 35.9648V33.2182C45.1698 32.7006 44.75 32.2807 44.2323 32.2807L44.2321 32.2809ZM30.8573 23.2406C30.8573 25.0509 29.9114 27.6004 27.8086 27.6004C25.505 27.6004 24.7596 24.6631 24.7596 23.2406C24.7596 21.5595 26.1273 20.1918 27.8086 20.1918C29.4898 20.1918 30.8573 21.5595 30.8573 23.2406ZM30.1901 18.9329C32.3887 15.7078 36.0556 13.7428 39.9978 13.7428C43.94 13.7428 47.6109 15.7078 49.8098 18.9329C48.2953 19.7736 47.2676 21.389 47.2676 23.2406C47.2676 25.0825 47.9096 26.9934 49.1339 28.2064C48.7131 28.2798 48.3078 28.3681 47.9226 28.4701C47.5445 28.2125 47.1215 27.9757 46.6503 27.7654C45.6607 27.3239 44.4868 26.9934 43.2045 26.7875C44.6901 25.4479 45.4707 23.2125 45.4707 21.0615C45.4707 18.0461 43.0156 15.5929 39.9978 15.5929C36.98 15.5929 34.529 18.0462 34.529 21.0615C34.529 23.2126 35.309 25.4482 36.7937 26.7878C35.512 26.9937 34.3386 27.3242 33.3495 27.7656C32.8782 27.9759 32.4554 28.2126 32.0772 28.4703C31.692 28.3681 31.2865 28.28 30.8659 28.2065C32.0903 26.9936 32.7321 25.0826 32.7321 23.2407C32.7321 21.3892 31.7045 19.7739 30.19 18.9331L30.1901 18.9329ZM52.1914 27.6004C50.0886 27.6004 49.1426 25.0509 49.1426 23.2406C49.1426 21.5595 50.5103 20.1918 52.1914 20.1918C53.8725 20.1918 55.2403 21.5595 55.2403 23.2406C55.2403 24.6631 54.495 27.6004 52.1914 27.6004ZM36.4042 21.0614C36.4042 19.0798 38.0162 17.4678 39.9979 17.4678C41.9796 17.4678 43.5959 19.0798 43.5959 21.0614C43.5959 23.1734 42.4796 26.1476 39.9979 26.1476C37.5162 26.1476 36.4042 23.1734 36.4042 21.0614ZM18.2929 23.3001L22.2882 21.4565C22.5023 21.3578 22.6712 21.182 22.7614 20.9643L24.5242 16.7123C24.6146 16.4943 24.6193 16.2503 24.5378 16.0289L23.0137 11.8973L26.2842 8.63043L30.4168 10.1509C30.6381 10.2323 30.8818 10.2275 31.0996 10.1371L35.3517 8.37434C35.5695 8.28402 35.7451 8.11512 35.8439 7.90105L37.6875 3.90574H42.3121L44.1557 7.90105C44.2545 8.11512 44.4301 8.28402 44.6479 8.37434L48.9 10.1371C49.1178 10.2275 49.3614 10.2325 49.5828 10.1509L53.7154 8.63043L56.9859 11.8973L55.4618 16.0289C55.3803 16.2503 55.385 16.4943 55.4754 16.7123L57.2382 20.9643C57.3286 21.182 57.4975 21.3578 57.7114 21.4565L61.7067 23.3001V27.9251L58.6753 29.3257C57.6984 28.7864 56.5193 28.4154 55.26 28.1951C56.477 26.9817 57.115 25.0767 57.115 23.2406C57.115 20.5256 54.9061 18.3168 52.1911 18.3168C52.0129 18.3168 51.8371 18.3268 51.6639 18.3454C49.1617 14.334 44.7529 11.8679 39.9975 11.8679C35.242 11.8679 30.8375 14.334 28.3354 18.3454C28.1621 18.327 27.9864 18.3168 27.8082 18.3168C25.0932 18.3168 22.8843 20.5256 22.8843 23.2406C22.8843 25.0767 23.5223 26.9815 24.7393 28.1951C23.4793 28.4156 22.2995 28.7868 21.3223 29.3267L18.2928 27.9253V23.3L18.2929 23.3001ZM20.732 32.8667C20.7468 32.2853 21.0579 31.7756 21.6868 31.3109C23.4832 29.9837 27.3165 29.4831 30.5211 30.0454C30.144 30.6607 29.945 31.3359 29.945 32.0546V36.0273C28.3471 35.85 26.6764 35.8636 25.029 35.8776C24.1731 35.8848 23.2987 35.8918 22.4457 35.8706C22.6698 35.3875 22.6922 34.8445 22.5081 34.3411C22.3231 33.8346 21.9528 33.4315 21.4653 33.2059L20.732 32.8667ZM19.9873 68.2968C19.0303 67.7348 18.7071 66.5023 19.2678 65.5478L22.2354 60.4718L22.2362 60.4704C22.5034 60.0117 22.9367 59.6837 23.4567 59.5471C23.6287 59.502 23.8028 59.4797 23.9756 59.4797C24.3275 59.4797 24.6736 59.5725 24.9839 59.7542C25.9376 60.3111 26.2592 61.5445 25.7017 62.5017L22.7342 67.5731C22.1748 68.5284 20.9412 68.8523 19.9873 68.2968ZM26.5929 71.4753C26.0723 71.6115 25.5317 71.5378 25.0701 71.2678C24.6112 70.9996 24.2832 70.565 24.1465 70.0436C24.0096 69.5215 24.0826 68.9806 24.3521 68.5201L27.3198 63.4484C27.8792 62.4934 29.1125 62.1693 30.0662 62.725C30.5262 62.9951 30.8548 63.4314 30.9917 63.9537C31.1284 64.4751 31.0556 65.0143 30.7859 65.4737L27.8184 70.5497C27.5486 71.0104 27.1132 71.3392 26.5926 71.4753H26.5929ZM30.155 74.2442C29.2162 73.6957 28.8876 72.4373 29.4373 71.4962L32.4039 66.4218C32.4039 66.4218 32.4039 66.4218 32.4039 66.4217C32.9653 65.4662 34.1982 65.1434 35.1531 65.7025C35.6121 65.9706 35.9403 66.4064 36.077 66.9293C36.2134 67.4515 36.1404 67.9911 35.8707 68.4503L32.9042 73.5247C32.3429 74.4801 31.11 74.8032 30.1548 74.244L30.155 74.2442ZM36.2515 75.4987C35.7881 75.2265 35.4581 74.7864 35.322 74.2592C35.1881 73.7403 35.2617 73.2059 35.5304 72.752L37.5015 69.4036L37.502 69.4028C37.8765 68.765 38.5503 68.409 39.2411 68.409C39.5853 68.409 39.9337 68.4975 40.2512 68.6834C40.7103 68.9515 41.0384 69.3873 41.1751 69.9103C41.3115 70.4325 41.2387 70.972 40.9706 71.4284L38.9992 74.7729C38.4371 75.7281 37.2029 76.0528 36.2515 75.4987ZM45.7332 74.9478C45.4162 75.4829 44.9057 75.8632 44.2961 76.0187C43.685 76.1747 43.054 76.0851 42.5181 75.7665L41.0896 74.9192L42.5868 72.3792C42.8984 71.8487 43.0739 71.2631 43.11 70.6634L44.9111 71.732L44.9107 71.7325C45.4439 72.0478 45.8236 72.5584 45.9803 73.1704C46.1371 73.7832 46.0495 74.4143 45.7331 74.9478H45.7332ZM59.4512 60.1753C58.7904 61.2867 57.3476 61.6542 56.2351 60.995L49.2723 56.867C48.8267 56.6029 48.2518 56.75 47.9878 57.1953C47.7237 57.6407 47.8707 58.2157 48.3161 58.4798L54.777 62.3103C54.782 62.3134 54.7864 62.3168 54.7915 62.32C55.8834 62.9676 56.2582 64.4406 55.6112 65.5348C54.9507 66.6462 53.5079 67.014 52.3954 66.3548L45.4637 62.2401C45.0184 61.9759 44.4432 62.1225 44.179 62.5678C43.9148 63.0129 44.0615 63.5881 44.5067 63.8525L50.6698 67.5109C51.759 68.1637 52.1337 69.6321 51.487 70.7226C51.1689 71.2595 50.657 71.6409 50.0456 71.7968C49.4356 71.9523 48.8061 71.8634 48.2717 71.5457L42.2501 67.9734C41.9596 67.6137 41.6073 67.3042 41.1979 67.0651C40.1782 66.4681 38.9945 66.3922 37.9562 66.7543C37.9381 66.6546 37.9173 66.555 37.8914 66.4557C37.6279 65.4473 36.9914 64.605 36.1 64.0842C35.084 63.4893 33.9053 63.4118 32.8696 63.7695C32.8517 63.6721 32.8314 63.5751 32.8061 63.4784C32.5425 62.4731 31.907 61.6314 31.0132 61.1065C29.9973 60.515 28.8198 60.4387 27.7857 60.7957C27.5904 59.7178 26.9459 58.7287 25.9304 58.1357C25.0357 57.612 23.9881 57.469 22.9804 57.7339C21.9753 57.9978 21.1356 58.6348 20.6161 59.5271L18.7911 62.6489C17.9354 61.7722 17.5157 60.6232 17.0471 59.3337C16.4329 57.6437 15.7446 55.7528 13.8826 54.374L21.5925 37.7154C22.7317 37.7717 23.9043 37.7626 25.0453 37.7528C28.4614 37.7237 31.7032 37.6973 34.0254 39.2829L26.7936 45.119C25.947 45.8048 25.4868 46.7434 25.4629 47.8368C25.4443 48.8537 25.8995 49.7042 26.7448 50.2312C28.889 51.5682 33.2153 50.647 35.5148 49.4673L39.9203 47.2012C40.8634 46.8714 41.7804 46.9642 42.6465 47.4779L58.6284 56.9615C59.162 57.2771 59.542 57.7878 59.6982 58.3993C59.8545 59.0112 59.7665 59.6428 59.4512 60.1757V60.1753ZM59.5839 55.3479L43.6029 45.8648C42.2325 45.0523 40.7181 44.9117 39.2239 45.4587C39.1875 45.472 39.1518 45.4876 39.1171 45.5054L34.6578 47.7993C32.6154 48.847 29.0204 49.4404 27.7367 48.6401C27.4464 48.459 27.3306 48.2362 27.3373 47.8743C27.349 47.3378 27.5571 46.9132 27.9721 46.577L37.4373 38.9387C40.2951 37.0729 44.2959 37.6856 47.8271 38.2265C49.8489 38.5362 51.7586 38.8287 53.3806 38.6706C54.2387 38.5873 56.4632 38.1473 58.419 37.7403L66.1496 54.4517C64.8161 55.4711 63.1093 56.2015 60.9636 56.6725C60.6154 56.1347 60.1476 55.6814 59.5839 55.3479ZM8.75355 51.2468C8.75355 50.64 9.24527 50.1484 9.85199 50.1484C10.4543 50.1484 10.9504 50.6401 10.9504 51.2468C10.9504 51.8536 10.4543 52.3453 9.85199 52.3453C9.24512 52.3453 8.75355 51.8536 8.75355 51.2468ZM69.0489 51.2467C69.0489 50.6398 69.5406 50.1482 70.1473 50.1482C70.7496 50.1482 71.2457 50.6398 71.2457 51.2467C71.2457 51.8536 70.7496 52.3451 70.1473 52.3451C69.5404 52.3451 69.0489 51.8536 69.0489 51.2467Z" fill="#393939"/>
</svg>
