<svg width="80" height="80" viewBox="0 0 80 80" fill="none" xmlns="http://www.w3.org/2000/svg">
<path d="M39.2594 13.6103C41.4225 11.7871 44.9143 11.7871 47.0156 13.6103L51.898 17.782C52.825 18.5545 54.5864 19.2034 55.8224 19.2034H61.0756C64.3511 19.2034 67.0395 21.8918 67.0395 25.1673V30.4205C67.0395 31.6566 67.6884 33.387 68.461 34.3141L72.6326 39.1963C74.4558 41.3594 74.4558 44.8512 72.6326 46.9525L68.461 51.8349C67.6884 52.7619 67.0395 54.4924 67.0395 55.7284V60.9816C67.0395 64.2571 64.3511 66.9455 61.0756 66.9455H55.8224C54.5864 66.9455 52.8559 67.5944 51.9289 68.367L47.0465 72.5386C44.8834 74.3618 41.3916 74.3618 39.2903 72.5386L34.4079 68.367C33.4809 67.5944 31.7195 66.9455 30.5144 66.9455H25.1067C21.8311 66.9455 19.1427 64.2571 19.1427 60.9816V55.6975C19.1427 54.4924 18.5247 52.731 17.7522 51.8349L13.5805 46.9216C11.7883 44.7894 11.7883 41.3285 13.5805 39.1963L17.7522 34.2832C18.5247 33.3561 19.1427 31.6257 19.1427 30.4205V25.1982C19.1427 21.9227 21.8311 19.2343 25.1067 19.2343H30.4526C31.6886 19.2343 33.4191 18.5854 34.3461 17.8129L39.2594 13.6103Z" fill="white" stroke="#393939" stroke-width="5.56221" stroke-linecap="round" stroke-linejoin="round"/>
<g clip-path="url(#clip0_1485_3572)">
<path d="M53.116 31.8461C52.1539 32.6983 50.972 33.6175 49.8237 33.8506C47.6919 34.2839 45.3993 33.2866 43.6384 33.5533C43.5238 33.5712 43.4133 33.592 43.304 33.6106C43.0031 33.533 42.6867 33.4682 42.3524 33.4173C42.1111 33.3808 41.8686 33.3658 41.6269 33.3658C40.9338 33.3675 40.2396 33.4821 39.553 33.5874C38.8657 33.6938 38.1871 33.7933 37.5467 33.7933C37.2094 33.7933 36.8837 33.7667 36.5714 33.702C36.1473 33.6175 35.6862 33.4046 35.224 33.1067C34.7606 32.811 34.2979 32.4315 33.8593 32.0439C33.658 31.8634 33.4295 31.7257 33.1888 31.6338C32.9476 31.5424 32.6936 31.5002 32.4454 31.5008C32.0509 31.5008 31.6708 31.6026 31.3127 31.7611C30.9969 31.9017 30.6949 32.0879 30.4022 32.3078C29.889 32.6902 29.4019 33.1767 28.9507 33.7205C28.275 34.5373 27.6786 35.4844 27.2424 36.4187C27.0243 36.8872 26.8455 37.3524 26.7194 37.8024C26.5933 38.2525 26.5176 38.6863 26.5176 39.104C26.5176 39.3239 26.5383 39.5402 26.5916 39.7508C26.6448 39.9631 26.731 40.1713 26.8613 40.3594C26.9011 40.4172 26.9434 40.4635 26.999 40.5052C27.0071 40.5121 27.2847 40.7331 27.5861 41.0212C27.7371 41.1663 27.8933 41.3278 28.0234 41.4828C28.1524 41.6332 28.2531 41.7836 28.2907 41.8676C28.4613 42.2291 28.8958 43.1108 29.4726 44.0971C29.7618 44.59 30.0869 45.1089 30.4357 45.6041C30.6122 45.8529 30.795 46.0976 30.9825 46.329C30.4716 46.9618 30.4746 47.8909 31.0333 48.5198C31.6558 49.2232 32.7295 49.2874 33.4318 48.6644L33.4804 48.6209C33.1779 49.2244 33.2513 49.9764 33.7262 50.5121C34.3481 51.2144 35.4224 51.2791 36.1253 50.6561L36.4013 50.405C36.024 51.0246 36.0744 51.8438 36.5806 52.4153C37.2042 53.1164 38.2779 53.1813 38.9808 52.5605L39.4054 52.1752C39.0045 52.8001 39.0474 53.6371 39.5628 54.2191C40.1847 54.9214 41.259 54.9867 41.9618 54.3638L42.6491 53.7737C42.7139 53.8049 42.777 53.8332 42.8354 53.8604L43.3052 54.1346L43.3011 54.1312C43.536 54.2712 43.779 54.3845 44.0318 54.4638C44.284 54.543 44.5461 54.5894 44.8128 54.5894C45.1015 54.5894 45.3959 54.5338 45.6724 54.4111C45.9478 54.2897 46.2012 54.1011 46.4118 53.8628C46.6635 53.5792 46.8307 53.2466 46.9157 52.9001C47.1662 52.9909 47.4288 53.0366 47.6891 53.0366C48.0021 53.0366 48.3151 52.9718 48.6072 52.8435C48.8988 52.715 49.169 52.5224 49.3928 52.2696C49.6705 51.9572 49.8458 51.5852 49.9215 51.1999C50.0708 51.23 50.2212 51.2467 50.3716 51.2467C50.6863 51.2467 50.9993 51.1831 51.2908 51.0536C51.583 50.9257 51.8531 50.7325 52.077 50.4802C52.3813 50.1378 52.5612 49.7241 52.6225 49.3007C52.6885 49.3064 52.7538 49.3088 52.818 49.3088C53.1941 49.3088 53.5632 49.2277 53.9056 49.0831C54.2457 48.9373 54.5633 48.7256 54.8185 48.4392C55.0557 48.1702 55.235 47.8567 55.3634 47.5188C55.4913 47.1798 55.5659 46.8182 55.5671 46.4474C55.5671 46.3121 55.5555 46.1755 55.5324 46.0402C56.8415 44.5835 57.5345 42.1573 57.8348 41.5209C58.1808 40.785 59.4876 39.7402 59.4876 39.7402C60.8968 37.7063 55.6741 29.579 53.116 31.8461ZM54.0919 47.0388C54.0178 47.2366 53.909 47.4183 53.8021 47.5374C53.7043 47.6491 53.5516 47.7573 53.3734 47.8336C53.1958 47.9089 52.9951 47.9499 52.818 47.9499C52.7018 47.9499 52.5947 47.932 52.5079 47.9031C52.5027 47.9008 52.4975 47.8991 52.4935 47.8973L50.5543 46.0264C50.2836 45.7661 49.8537 45.7742 49.5934 46.0438C49.3326 46.314 49.3401 46.7444 49.6101 47.0047L51.1739 48.5141C51.1802 48.529 51.1842 48.5436 51.1918 48.5586C51.256 48.6865 51.2896 48.8299 51.2896 48.9722C51.2896 49.1909 51.2155 49.4026 51.0587 49.5785C50.9679 49.6827 50.8603 49.7579 50.7428 49.8099C50.6265 49.8619 50.4993 49.8886 50.3714 49.8886C50.1539 49.8874 49.9422 49.8134 49.7652 49.6572L49.7258 49.6213C49.7172 49.6132 49.7126 49.6039 49.7044 49.5947L48.0048 47.821C47.7451 47.5492 47.3146 47.5398 47.045 47.799C46.7737 48.0582 46.7639 48.4897 47.0224 48.7605L48.4646 50.2658C48.4675 50.271 48.4698 50.2773 48.4727 50.282C48.5613 50.4266 48.6058 50.5932 48.6058 50.7603C48.6052 50.9796 48.5312 51.192 48.3749 51.3684H48.3755C48.2835 51.4713 48.1759 51.5466 48.0597 51.5998C47.9428 51.6507 47.8155 51.6761 47.6888 51.6761C47.4702 51.6761 47.2567 51.6021 47.0802 51.4465L47.0542 51.4251L46.5289 51.0028L45.6675 50.0888C45.4101 49.8163 44.9791 49.8036 44.7066 50.061C44.4335 50.3179 44.4208 50.7495 44.6782 51.022L45.4957 51.8891C45.5796 52.0315 45.6247 52.1923 45.6247 52.3554C45.6229 52.5729 45.5495 52.7858 45.3944 52.9605C45.3007 53.0664 45.2122 53.1277 45.1202 53.1688C45.0283 53.2088 44.9305 53.2301 44.8125 53.2307C44.7031 53.2307 44.5787 53.2116 44.4399 53.1676C44.3011 53.1236 44.1513 53.0554 43.9962 52.964L43.9922 52.9605L43.7515 52.8217C44.4162 52.1945 44.4682 51.1492 43.8579 50.4602C43.2435 49.7683 42.1895 49.6977 41.4878 50.2936L41.6145 50.1791C42.3179 49.5572 42.3821 48.4829 41.7591 47.7806C41.1378 47.0783 40.0629 47.0136 39.3607 47.636L38.9441 48.0115C39.3467 47.3885 39.3039 46.5496 38.7879 45.9676C38.1648 45.2653 37.0917 45.2 36.3888 45.823L35.8358 46.3263C36.095 45.7385 36.0093 45.0264 35.5541 44.5138C34.9316 43.811 33.8573 43.7468 33.1556 44.3686L31.9854 45.4065C31.8378 45.2219 31.6902 45.0246 31.5457 44.8198C31.0667 44.1395 30.6166 43.3805 30.2597 42.7303C29.9033 42.08 29.6366 41.5363 29.5203 41.2881C29.4589 41.158 29.3861 41.0388 29.3074 40.9243C29.1697 40.7264 29.0118 40.5401 28.8509 40.3689C28.6114 40.1102 28.3616 39.8823 28.1706 39.7163C28.0792 39.6365 28.0017 39.5699 27.9439 39.5231C27.9317 39.4958 27.9202 39.463 27.9098 39.4213C27.8901 39.3415 27.8762 39.2345 27.8762 39.1043C27.8762 38.8891 27.9138 38.616 27.9907 38.3082C28.1255 37.7714 28.3817 37.1368 28.7185 36.5045C29.2234 35.5523 29.9137 34.5978 30.6171 33.9127C30.9688 33.5685 31.3217 33.2937 31.6423 33.115C31.8019 33.0265 31.9529 32.9606 32.0876 32.92C32.2224 32.8784 32.3422 32.8599 32.4451 32.8599C32.544 32.8605 32.6274 32.8755 32.7089 32.905C32.7887 32.9374 32.8698 32.9826 32.9577 33.0606C33.4234 33.4742 33.9342 33.8948 34.4902 34.2512C35.0443 34.6058 35.6448 34.9009 36.3002 35.035C36.7208 35.1207 37.1373 35.1519 37.5464 35.1519C38.3221 35.1513 39.069 35.0374 39.7603 34.9309C39.9344 34.9031 40.1045 34.8776 40.2711 34.8522C39.7522 35.2097 39.25 35.6338 38.7161 36.1319C37.1923 37.5532 35.8785 39.2893 35.1496 40.0784C34.4213 40.8664 35.7762 42.2339 37.9328 41.6068C40.0883 40.9809 41.0174 39.3726 41.0174 39.3726L43.7242 38.4013L46.4108 39.0163L52.9045 44.8626L54.0268 45.9479L54.0488 45.9664C54.0938 46.0081 54.1285 46.0567 54.1586 46.1353C54.1875 46.214 54.2073 46.3204 54.2073 46.4478C54.2082 46.6263 54.1677 46.8409 54.0919 47.0388Z" fill="#393939"/>
</g>
<defs>
<clipPath id="clip0_1485_3572">
<rect width="33.2072" height="33.2072" fill="white" transform="translate(26.5176 26.5175)"/>
</clipPath>
</defs>
</svg>
