<svg width="80" height="80" viewBox="0 0 80 80" fill="none" xmlns="http://www.w3.org/2000/svg">
<path d="M72.4442 79.1998H62.8322C62.3898 79.1998 62.0322 78.8414 62.0322 78.3998V39.6502C62.0322 39.2086 62.3898 38.8502 62.8322 38.8502H72.4442C72.8866 38.8502 73.2442 39.2086 73.2442 39.6502V78.3998C73.2442 78.8414 72.8858 79.1998 72.4442 79.1998ZM63.6322 77.5998H71.6442V40.4502H63.6322V77.5998ZM58.6266 79.1998H49.0138C48.5714 79.1998 48.2138 78.8414 48.2138 78.3998V51.3782C48.2138 50.9366 48.5714 50.5782 49.0138 50.5782H58.6274C59.0698 50.5782 59.4274 50.9366 59.4274 51.3782V78.3998C59.4266 78.8414 59.069 79.1998 58.6266 79.1998ZM49.8138 77.5998H57.8274V52.1782H49.8138V77.5998ZM44.8074 79.1998H35.1938C34.7514 79.1998 34.3938 78.8414 34.3938 78.3998V65.7366C34.3938 65.295 34.7514 64.9366 35.1938 64.9366H44.8074C45.2498 64.9366 45.6074 65.295 45.6074 65.7366V78.3998C45.6074 78.8414 45.2498 79.1998 44.8074 79.1998ZM35.9938 77.5998H44.0074V66.5366H35.9938V77.5998ZM30.989 79.1998H21.3754C20.933 79.1998 20.5754 78.8414 20.5754 78.3998V51.5342C20.5754 51.0926 20.933 50.7342 21.3754 50.7342H30.9898C31.4322 50.7342 31.7898 51.0926 31.7898 51.5342V78.3998C31.789 78.8414 31.4314 79.1998 30.989 79.1998ZM22.1754 77.5998H30.1898V52.3342H22.1754V77.5998ZM17.1682 79.1998H7.55781C7.11541 79.1998 6.75781 78.8414 6.75781 78.3998V65.7366C6.75781 65.295 7.11541 64.9366 7.55781 64.9366H17.1682C17.6106 64.9366 17.9682 65.295 17.9682 65.7366V78.3998C17.9682 78.8414 17.6106 79.1998 17.1682 79.1998ZM8.35781 77.5998H16.3682V66.5366H8.35781V77.5998ZM39.9994 55.5182C37.805 55.5182 36.0186 53.731 36.0186 51.5342C36.0186 50.8878 36.173 50.2782 36.4466 49.7374L28.7458 43.6478C28.053 44.2302 27.1594 44.5814 26.185 44.5814C25.2098 44.5814 24.3162 44.2302 23.6226 43.647L15.9178 49.7398C16.1922 50.2798 16.3458 50.8902 16.3458 51.535C16.3458 53.7318 14.5586 55.519 12.3618 55.519C10.1674 55.519 8.38101 53.7318 8.38101 51.535C8.38101 49.3382 10.1666 47.551 12.3618 47.551C13.337 47.551 14.2306 47.903 14.9242 48.4862L22.6282 42.3942C22.3546 41.855 22.201 41.2454 22.201 40.6006C22.201 38.4014 23.9882 36.6126 26.185 36.6126C28.3818 36.6126 30.169 38.4014 30.169 40.6006C30.169 41.2462 30.0146 41.8558 29.741 42.3958L37.4402 48.4854C38.1322 47.9022 39.025 47.551 39.9986 47.551C40.973 47.551 41.8666 47.9022 42.5594 48.4846L50.265 42.3934C49.9922 41.8542 49.8386 41.2446 49.8386 40.6006C49.8386 38.4014 51.6242 36.6126 53.8194 36.6126C54.5538 36.6126 55.2418 36.8126 55.8338 37.1606L64.4338 27.6006C63.9466 26.939 63.657 26.1214 63.657 25.2382C63.657 23.043 65.4426 21.2566 67.6378 21.2566C69.833 21.2566 71.6186 23.043 71.6186 25.2382C71.6186 27.435 69.833 29.2222 67.6378 29.2222C66.9026 29.2222 66.2138 29.0222 65.6218 28.6726L57.0226 38.231C57.513 38.8942 57.8042 39.7142 57.8042 40.5998C57.8042 42.795 56.017 44.5814 53.8202 44.5814C52.8466 44.5814 51.953 44.2302 51.261 43.647L43.5554 49.7374C43.8298 50.2774 43.9842 50.8886 43.9842 51.535C43.9842 53.731 42.1962 55.5182 39.9994 55.5182ZM39.9994 49.1502C38.6866 49.1502 37.6186 50.2198 37.6186 51.5342C37.6186 52.8486 38.6866 53.9182 39.9994 53.9182C41.3146 53.9182 42.3834 52.8486 42.3834 51.5342C42.3842 50.219 41.3146 49.1502 39.9994 49.1502ZM12.3618 49.1502C11.049 49.1502 9.98101 50.2198 9.98101 51.5342C9.98101 52.8486 11.049 53.9182 12.3618 53.9182C13.677 53.9182 14.7458 52.8486 14.7458 51.5342C14.7466 50.219 13.677 49.1502 12.3618 49.1502ZM53.8194 38.2118C52.5066 38.2118 51.4386 39.283 51.4386 40.5998C51.4386 41.9126 52.5066 42.9814 53.8194 42.9814C55.1346 42.9814 56.2034 41.9134 56.2034 40.5998C56.2034 39.9094 55.909 39.2854 55.4394 38.8494C55.4298 38.8414 55.421 38.8334 55.4114 38.8254C55.4018 38.8166 55.393 38.8086 55.3842 38.799C54.965 38.4334 54.4178 38.2118 53.8194 38.2118ZM26.185 38.2118C24.8698 38.2118 23.801 39.283 23.801 40.5998C23.801 41.9126 24.8706 42.9814 26.185 42.9814C26.9282 42.9814 27.593 42.6398 28.0306 42.1062C28.0378 42.0966 28.045 42.0878 28.0514 42.079C28.0594 42.0686 28.0682 42.059 28.0754 42.0494C28.385 41.6478 28.569 41.1454 28.569 40.5998C28.5698 39.283 27.5002 38.2118 26.185 38.2118ZM67.6378 22.8558C66.325 22.8558 65.257 23.9238 65.257 25.2374C65.257 26.5526 66.325 27.6214 67.6378 27.6214C68.9506 27.6214 70.0186 26.5518 70.0186 25.2374C70.0178 23.9238 68.9506 22.8558 67.6378 22.8558ZM44.7466 34.4374H40.4602C40.1378 34.4374 39.8458 34.243 39.7218 33.9454L38.453 30.9062L36.1434 29.9494L33.0978 31.2014C32.8034 31.3246 32.457 31.2566 32.2282 31.027L29.197 27.9958C28.969 27.7678 28.9002 27.4254 29.0218 27.127L30.2722 24.0758L29.3162 21.767L26.2746 20.5006C25.977 20.3766 25.7826 20.0846 25.7826 19.7622V15.4742C25.7826 15.1518 25.9762 14.8598 26.2746 14.7358L29.3162 13.4662L30.2722 11.1574L29.0226 8.10941C28.9002 7.811 28.969 7.4686 29.197 7.2406L32.2282 4.2086C32.457 3.9798 32.8002 3.9126 33.0978 4.0342L36.1434 5.2846L38.453 4.3302L39.7218 1.2926C39.8458 0.993405 40.137 0.799805 40.4594 0.799805H44.7458C45.0682 0.799805 45.3602 0.993405 45.4842 1.291L46.7538 4.3294L49.0634 5.2838L52.1098 4.0334C52.409 3.9118 52.7514 3.9798 52.9794 4.2078L56.013 7.2398C56.241 7.46861 56.3098 7.811 56.1874 8.10941L54.9362 11.1574L55.8946 13.4662L58.9362 14.7358C59.2338 14.8598 59.4274 15.1518 59.4274 15.4742V19.7622C59.4274 20.0854 59.233 20.3766 58.9354 20.5006L55.8946 21.7678L54.9362 24.0766L56.1874 27.127C56.3098 27.4262 56.241 27.7686 56.013 27.9966L52.9794 31.0278C52.7514 31.2558 52.409 31.3254 52.1098 31.2014L49.0634 29.9494L46.7538 30.9062L45.4842 33.9454C45.3602 34.2438 45.069 34.4374 44.7466 34.4374ZM40.9922 32.8374H44.213L45.4042 29.9854C45.4858 29.7902 45.641 29.635 45.8362 29.5542L48.7554 28.3446C48.9514 28.2638 49.1714 28.263 49.3658 28.3438L52.2242 29.519L54.5042 27.2414L53.329 24.379C53.2482 24.183 53.2482 23.9638 53.3298 23.7686L54.5418 20.8502C54.6234 20.655 54.7778 20.4998 54.973 20.4182L57.8258 19.2294V16.0078L54.9722 14.8166C54.7778 14.735 54.6226 14.5806 54.5418 14.3846L53.3298 11.4662C53.2482 11.271 53.2482 11.051 53.329 10.8558L54.5042 7.9958L52.2234 5.7174L49.3658 6.8902C49.1698 6.9702 48.9506 6.96941 48.7562 6.88941L45.837 5.683C45.6418 5.6022 45.4866 5.447 45.4042 5.2518L44.2138 2.3998H40.993L39.8026 5.251C39.721 5.4462 39.565 5.6014 39.3698 5.6822L36.4506 6.8886C36.257 6.9694 36.0378 6.96941 35.841 6.88941L32.9842 5.7166L30.705 7.99501L31.8778 10.8558C31.9586 11.051 31.9578 11.2702 31.877 11.4654L30.6674 14.3838C30.5858 14.579 30.4314 14.7342 30.2362 14.8158L27.3826 16.007V19.2286L30.2362 20.4174C30.4314 20.499 30.5866 20.6542 30.6674 20.8502L31.877 23.7686C31.9578 23.9638 31.9586 24.183 31.8786 24.3782L30.705 27.2414L32.9834 29.519L35.8402 28.3438C36.0346 28.263 36.2546 28.2638 36.4506 28.3446L39.3698 29.5542C39.565 29.635 39.7202 29.7902 39.8018 29.9854L40.9922 32.8374ZM42.6042 27.2246C37.305 27.2246 32.993 22.9158 32.993 17.619C32.993 12.319 37.305 8.00621 42.6042 8.00621C47.9026 8.00621 52.213 12.319 52.213 17.619C52.213 22.9158 47.9026 27.2246 42.6042 27.2246ZM42.6042 9.6062C38.1874 9.6062 34.593 13.2006 34.593 17.619C34.593 22.0334 38.1866 25.6246 42.6042 25.6246C47.0202 25.6246 50.613 22.0334 50.613 17.619C50.613 13.2006 47.0194 9.6062 42.6042 9.6062Z" fill="#393939"/>
</svg>
