<svg width="45" height="45" viewBox="0 0 45 45" fill="none" xmlns="http://www.w3.org/2000/svg">
<path d="M37.2321 28.125C37.3415 28.125 37.4498 28.1296 37.5569 28.1386L37.2321 28.125C37.3809 28.125 37.5277 28.1335 37.6722 28.15C37.743 28.1581 37.8136 28.1682 37.8837 28.1802C37.9178 28.186 37.951 28.1922 37.9841 28.1988C38.0634 28.2145 38.1429 28.233 38.2214 28.2538C38.2398 28.2587 38.2571 28.2635 38.2743 28.2683C39.9878 28.75 41.25 30.3921 41.25 32.3437C41.25 34.6737 39.4511 36.5625 37.2321 36.5625C35.0131 36.5625 33.2143 34.6737 33.2143 32.3437C33.2143 30.7089 34.0999 29.2912 35.395 28.5909L35.4564 28.5584C35.5206 28.5251 35.5858 28.4935 35.652 28.4638L35.395 28.5909C35.505 28.5314 35.6179 28.4771 35.7335 28.4282C35.7989 28.4006 35.8646 28.375 35.9312 28.3511C35.9625 28.3398 35.9944 28.3288 36.0264 28.3183C36.0826 28.2997 36.1388 28.2826 36.1955 28.2668C36.2392 28.2545 36.2831 28.2431 36.3272 28.2324C36.3919 28.2168 36.4583 28.2026 36.5252 28.1901C36.5534 28.1848 36.5816 28.1799 36.6099 28.1753C36.6887 28.1624 36.7678 28.152 36.8476 28.1441C36.8708 28.1418 36.8941 28.1396 36.9174 28.1378C37.021 28.1293 37.1261 28.125 37.2321 28.125ZM7.76786 28.125C7.8835 28.125 7.99801 28.1301 8.11118 28.1402L7.76786 28.125C7.91436 28.125 8.05904 28.1332 8.20148 28.1493C8.27583 28.1576 8.35012 28.1682 8.42374 28.1809C8.46792 28.1886 8.51103 28.1968 8.55389 28.2057C8.62374 28.2202 8.6931 28.2367 8.76174 28.2551C8.79802 28.2648 8.83342 28.2748 8.86862 28.2853C8.97186 28.3161 9.07464 28.3515 9.17551 28.3912C9.18456 28.3947 9.19403 28.3985 9.20349 28.4023C9.293 28.4383 9.38058 28.4773 9.4665 28.5195C9.47956 28.5259 9.49243 28.5323 9.50527 28.5387C10.8547 29.2197 11.7857 30.6676 11.7857 32.3437C11.7857 34.6737 9.98686 36.5625 7.76786 36.5625C5.54886 36.5625 3.75 34.6737 3.75 32.3437C3.75 30.2467 5.20717 28.5071 7.11633 28.1802C7.14294 28.1756 7.17007 28.1713 7.19729 28.1672C7.2093 28.1654 7.22109 28.1637 7.23289 28.1621C7.40773 28.1376 7.58639 28.125 7.76786 28.125ZM28.9872 21.0937C29.6113 21.0937 30.1172 21.6132 30.1172 22.2539C30.1172 22.4324 30.0779 22.6016 30.0077 22.7527L30.0103 22.7582L24.1196 32.4337C24.0124 32.6626 23.8697 32.8707 23.6988 33.0504C23.2884 33.482 22.7154 33.75 22.0815 33.75C20.8333 33.75 19.8214 32.7112 19.8214 31.4297C19.8214 30.8522 20.0269 30.324 20.3669 29.9179L20.4571 29.82L20.4483 29.8121L28.2538 21.3636C28.4559 21.1963 28.7099 21.0937 28.9872 21.0937ZM28.3284 12.6562C33.7751 14.9328 37.726 20.308 38.2213 26.7091C37.9 26.6468 37.5696 26.6146 37.2321 26.6146C36.5714 26.6146 35.9382 26.7379 35.352 26.9638C34.9609 21.8431 31.8636 17.5231 27.5627 15.5801C27.9797 14.8489 28.2444 14.0089 28.3115 13.1102L28.3284 12.6562ZM17.4253 12.314C17.4189 12.4272 17.4157 12.5413 17.4157 12.6562C17.4157 13.6077 17.6366 14.5051 18.0275 15.2948C13.3826 17.0648 9.9763 21.5518 9.54926 26.9278C8.99207 26.7247 8.39221 26.6146 7.76786 26.6146C7.39485 26.6146 7.03059 26.6539 6.67862 26.7288C7.1657 20.3242 11.1144 14.9425 16.5599 12.6477L17.023 12.4614L17.4253 12.314ZM22.872 8.4375C24.9152 8.4375 26.6021 10.0388 26.8567 12.1113C26.8549 12.1105 26.8567 12.1113 26.8567 12.1113L26.8768 12.3134C26.8855 12.4265 26.8899 12.5408 26.8899 12.6562C26.8899 12.771 26.8855 12.8847 26.8769 12.9972L26.8899 12.6562C26.8899 12.81 26.882 12.9618 26.8668 13.1113C26.8592 13.1853 26.8499 13.2583 26.8388 13.3307C26.8322 13.3737 26.8251 13.4163 26.8173 13.4586C26.8052 13.5249 26.7915 13.5907 26.7764 13.6559C26.7666 13.6984 26.7563 13.7401 26.7454 13.7815C26.6585 14.1121 26.5342 14.4265 26.3776 14.7192C26.3661 14.7406 26.3545 14.7618 26.3428 14.783C26.3004 14.859 26.2559 14.9334 26.2094 15.0062C26.1992 15.022 26.1893 15.0373 26.1793 15.0525C25.4543 16.1536 24.2434 16.875 22.872 16.875C21.2114 16.875 19.786 15.8171 19.1739 14.3082C19.158 14.2678 19.1423 14.2273 19.1271 14.1864C19.1089 14.1388 19.0922 14.0911 19.0763 14.0431C19.0598 13.9926 19.0439 13.9414 19.0288 13.8898C18.9817 13.7284 18.9436 13.5624 18.9152 13.3929C18.9102 13.3627 18.9053 13.3319 18.9008 13.301C18.8701 13.0904 18.8542 12.8753 18.8542 12.6562C18.8542 12.4102 18.8742 12.1691 18.9127 11.9347C18.9161 11.9139 18.9197 11.8933 18.9233 11.8727C19.2731 9.91717 20.908 8.4375 22.872 8.4375Z" fill="url(#paint0_linear_1445_3762)"/>
<defs>
<linearGradient id="paint0_linear_1445_3762" x1="22.5" y1="8.4375" x2="22.5" y2="36.5625" gradientUnits="userSpaceOnUse">
<stop stop-color="#4285F4"/>
<stop offset="1" stop-color="#9747FF"/>
</linearGradient>
</defs>
</svg>
