<svg width="80" height="80" viewBox="0 0 80 80" fill="none" xmlns="http://www.w3.org/2000/svg">
<path fill-rule="evenodd" clip-rule="evenodd" d="M39.9993 9.16669C22.9706 9.16669 9.16602 22.9713 9.16602 40C9.16602 57.0287 22.9706 70.8334 39.9993 70.8334C57.028 70.8334 70.8327 57.0287 70.8327 40C70.8327 22.9713 57.028 9.16669 39.9993 9.16669ZM4.16602 40C4.16602 20.2098 20.2091 4.16669 39.9993 4.16669C59.7897 4.16669 75.8327 20.2098 75.8327 40C75.8327 59.7904 59.7897 75.8334 39.9993 75.8334C20.2091 75.8334 4.16602 59.7904 4.16602 40ZM39.9993 17.5C41.38 17.5 42.4993 18.6193 42.4993 20V21.0558C47.934 22.0289 52.4993 26.1121 52.4993 31.6667C52.4993 33.0474 51.38 34.1667 49.9993 34.1667C48.6187 34.1667 47.4993 33.0474 47.4993 31.6667C47.4993 28.8525 44.5877 25.8334 39.9993 25.8334C35.411 25.8334 32.4993 28.8525 32.4993 31.6667C32.4993 34.481 35.411 37.5 39.9993 37.5C46.4567 37.5 52.4993 41.9427 52.4993 48.3334C52.4993 53.888 47.934 57.971 42.4993 58.9444V60C42.4993 61.3807 41.38 62.5 39.9993 62.5C38.6187 62.5 37.4993 61.3807 37.4993 60V58.9444C32.0646 57.971 27.4993 53.888 27.4993 48.3334C27.4993 46.9527 28.6186 45.8334 29.9993 45.8334C31.38 45.8334 32.4993 46.9527 32.4993 48.3334C32.4993 51.1477 35.411 54.1667 39.9993 54.1667C44.5877 54.1667 47.4993 51.1477 47.4993 48.3334C47.4993 45.519 44.5877 42.5 39.9993 42.5C33.542 42.5 27.4993 38.0574 27.4993 31.6667C27.4993 26.1121 32.0646 22.0289 37.4993 21.0558V20C37.4993 18.6193 38.6187 17.5 39.9993 17.5Z" fill="#393939"/>
</svg>
