<svg width="80" height="80" viewBox="0 0 80 80" fill="none" xmlns="http://www.w3.org/2000/svg">
<g clip-path="url(#clip0_1767_3801)">
<path d="M61.2518 16.2502H65.0018V30.6502C65.0018 30.9817 65.1335 31.2996 65.3679 31.5341C65.6024 31.7685 65.9203 31.9002 66.2518 31.9002C66.5833 31.9002 66.9013 31.7685 67.1357 31.5341C67.3701 31.2996 67.5018 30.9817 67.5018 30.6502V15.0002C67.5018 14.6687 67.3701 14.3507 67.1357 14.1163C66.9013 13.8819 66.5833 13.7502 66.2518 13.7502H63.5268L70.0018 3.57518L76.4768 13.7502H73.7518C73.4203 13.7502 73.1024 13.8819 72.8679 14.1163C72.6335 14.3507 72.5018 14.6687 72.5018 15.0002V35.0627C72.5018 35.3942 72.6335 35.7121 72.8679 35.9466C73.1024 36.181 73.4203 36.3127 73.7518 36.3127C74.0833 36.3127 74.4013 36.181 74.6357 35.9466C74.8701 35.7121 75.0018 35.3942 75.0018 35.0627V16.2502H78.7518C78.976 16.2498 79.196 16.1891 79.3887 16.0745C79.5814 15.9599 79.7398 15.7956 79.8471 15.5988C79.9545 15.4019 80.0069 15.1798 79.999 14.9558C79.991 14.7317 79.9229 14.5139 79.8018 14.3252L71.0518 0.575185C70.9385 0.399751 70.783 0.255506 70.5996 0.155627C70.4162 0.0557476 70.2107 0.00341797 70.0018 0.00341797C69.793 0.00341797 69.5875 0.0557476 69.404 0.155627C69.2206 0.255506 69.0651 0.399751 68.9518 0.575185L60.2018 14.3252C60.0808 14.5139 60.0127 14.7317 60.0047 14.9558C59.9967 15.1798 60.0492 15.4019 60.1565 15.5988C60.2639 15.7956 60.4222 15.9599 60.6149 16.0745C60.8076 16.1891 61.0276 16.2498 61.2518 16.2502Z" fill="#393939"/>
<path d="M30 17.7998C29.6685 17.7998 29.3505 17.9315 29.1161 18.1659C28.8817 18.4003 28.75 18.7183 28.75 19.0498V29.9998C28.75 30.3313 28.8817 30.6493 29.1161 30.8837C29.3505 31.1181 29.6685 31.2498 30 31.2498H37.975C38.3065 31.2498 38.6245 31.1181 38.8589 30.8837C39.0933 30.6493 39.225 30.3313 39.225 29.9998C39.225 29.6683 39.0933 29.3503 38.8589 29.1159C38.6245 28.8815 38.3065 28.7498 37.975 28.7498H31.25V19.0498C31.25 18.7183 31.1183 18.4003 30.8839 18.1659C30.6495 17.9315 30.3315 17.7998 30 17.7998Z" fill="#393939"/>
<path d="M29.999 46.55C26.7257 46.55 23.526 45.5794 20.8043 43.7608C18.0827 41.9423 15.9615 39.3575 14.7088 36.3334C13.4562 33.3093 13.1284 29.9816 13.767 26.7713C14.4056 23.5609 15.9819 20.6119 18.2964 18.2974C20.611 15.9828 23.5599 14.4066 26.7703 13.768C29.9807 13.1294 33.3083 13.4572 36.3324 14.7098C39.3566 15.9624 41.9413 18.0837 43.7599 20.8053C45.5784 23.527 46.549 26.7267 46.549 30V30.0875C46.549 30.419 46.6807 30.737 46.9151 30.9714C47.1496 31.2058 47.4675 31.3375 47.799 31.3375C48.1306 31.3375 48.4485 31.2058 48.6829 30.9714C48.9173 30.737 49.049 30.419 49.049 30.0875C49.0663 26.3124 47.9616 22.6172 45.875 19.4711C43.7884 16.325 40.8141 13.8697 37.3297 12.417C33.8452 10.9644 30.0076 10.5797 26.3042 11.312C22.6007 12.0443 19.1983 13.8604 16.5288 16.5298C13.8594 19.1993 12.0433 22.6017 11.311 26.3051C10.5788 30.0086 10.9634 33.8461 12.4161 37.3306C13.8688 40.8151 16.324 43.7894 19.4701 45.876C22.6162 47.9626 26.3114 49.0673 30.0865 49.05C30.418 49.05 30.736 48.9183 30.9704 48.6839C31.2048 48.4495 31.3365 48.1315 31.3365 47.8C31.3369 47.6282 31.302 47.4582 31.2337 47.3005C31.1655 47.1429 31.0655 47.001 30.94 46.8837C30.8145 46.7664 30.6662 46.6762 30.5043 46.6188C30.3424 46.5614 30.1704 46.538 29.999 46.55Z" fill="#393939"/>
<path d="M28.8625 57.5H26.7375L24.4625 51.8125C24.3934 51.6372 24.2855 51.4799 24.147 51.3521C24.0084 51.2244 23.8428 51.1297 23.6625 51.075C22.2428 50.6513 20.8692 50.0859 19.5625 49.3875C19.3946 49.3075 19.211 49.266 19.025 49.266C18.839 49.266 18.6554 49.3075 18.4875 49.3875L12.8625 51.8L8.25 47.1375L10.675 41.4875C10.7569 41.3179 10.7995 41.1321 10.7995 40.9438C10.7995 40.7554 10.7569 40.5696 10.675 40.4C9.96781 39.1031 9.39404 37.7378 8.9625 36.325C8.90619 36.147 8.81071 35.9839 8.68309 35.8476C8.55547 35.7113 8.39894 35.6054 8.225 35.5375L2.5 33.2625V26.7375L8.1875 24.4625C8.36278 24.3934 8.52015 24.2855 8.64786 24.147C8.77557 24.0084 8.87031 23.8428 8.925 23.6625C9.34872 22.2428 9.91406 20.8692 10.6125 19.5625C10.6925 19.3946 10.734 19.211 10.734 19.025C10.734 18.839 10.6925 18.6554 10.6125 18.4875L8.25 12.8625L12.8625 8.25L18.5125 10.675C18.6821 10.7569 18.8679 10.7995 19.0562 10.7995C19.2446 10.7995 19.4304 10.7569 19.6 10.675C20.8969 9.96781 22.2622 9.39404 23.675 8.9625C23.853 8.90619 24.0161 8.81071 24.1524 8.68309C24.2887 8.55547 24.3946 8.39894 24.4625 8.225L26.7375 2.5H33.2625L35.5375 8.175C35.6054 8.34894 35.7113 8.50547 35.8476 8.63309C35.9839 8.76071 36.147 8.85619 36.325 8.9125C37.7401 9.34343 39.1092 9.91285 40.4125 10.6125C40.5804 10.6925 40.764 10.734 40.95 10.734C41.136 10.734 41.3196 10.6925 41.4875 10.6125L47.1375 8.25L51.75 12.8625L49.325 18.5125C49.2431 18.6821 49.2005 18.8679 49.2005 19.0562C49.2005 19.2446 49.2431 19.4304 49.325 19.6C50.0212 20.8962 50.5905 22.2567 51.025 23.6625C51.0797 23.8428 51.1744 24.0084 51.3021 24.147C51.4298 24.2855 51.5872 24.3934 51.7625 24.4625L57.5 26.7375V28.8625C57.5 29.194 57.6317 29.512 57.8661 29.7464C58.1005 29.9808 58.4185 30.1125 58.75 30.1125C59.0815 30.1125 59.3995 29.9808 59.6339 29.7464C59.8683 29.512 60 29.194 60 28.8625V25.8875C60.0002 25.6371 59.9253 25.3925 59.7849 25.1852C59.6445 24.978 59.4451 24.8176 59.2125 24.725L53.2875 22.3625C52.8947 21.1924 52.4185 20.0519 51.8625 18.95L54.3625 13.075C54.4637 12.8442 54.4928 12.5882 54.4459 12.3406C54.3991 12.093 54.2785 11.8654 54.1 11.6875L48.3125 5.875C48.1357 5.69904 47.9102 5.58001 47.6652 5.53323C47.4202 5.48644 47.1667 5.51405 46.9375 5.6125L41.05 8.1125C39.9479 7.55691 38.8075 7.0807 37.6375 6.6875L35.275 0.787501C35.1824 0.554919 35.022 0.355509 34.8148 0.215102C34.6075 0.0746941 34.3629 -0.000241766 34.1125 5.85994e-07H25.8875C25.6371 -0.000241766 25.3925 0.0746941 25.1852 0.215102C24.978 0.355509 24.8176 0.554919 24.725 0.787501L22.3625 6.7C21.1906 7.09298 20.0499 7.5735 18.95 8.1375L13.075 5.6375C12.8442 5.5363 12.5882 5.50721 12.3406 5.55406C12.093 5.6009 11.8654 5.72149 11.6875 5.9L5.875 11.6875C5.69904 11.8643 5.58001 12.0898 5.53323 12.3348C5.48644 12.5798 5.51405 12.8333 5.6125 13.0625L8.1125 18.925C7.55957 20.0354 7.08751 21.1842 6.7 22.3625L0.787501 24.725C0.554919 24.8176 0.355509 24.978 0.215102 25.1852C0.0746941 25.3925 -0.000241766 25.6371 5.85994e-07 25.8875V34.1125C-0.000241766 34.3629 0.0746941 34.6075 0.215102 34.8148C0.355509 35.022 0.554919 35.1824 0.787501 35.275L6.7 37.6375C7.09298 38.8094 7.5735 39.9501 8.1375 41.05L5.6375 46.925C5.5363 47.1558 5.50721 47.4118 5.55406 47.6594C5.6009 47.907 5.72149 48.1346 5.9 48.3125L11.6875 54.125C11.8643 54.301 12.0898 54.42 12.3348 54.4668C12.5798 54.5136 12.8333 54.4859 13.0625 54.3875L18.925 51.8875C20.0354 52.4404 21.1842 52.9125 22.3625 53.3L24.725 59.225C24.8176 59.4576 24.978 59.657 25.1852 59.7974C25.3925 59.9378 25.6371 60.0127 25.8875 60.0125H28.8625C29.194 60.0125 29.512 59.8808 29.7464 59.6464C29.9808 59.412 30.1125 59.094 30.1125 58.7625C30.1125 58.431 29.9808 58.113 29.7464 57.8786C29.512 57.6442 29.194 57.5125 28.8625 57.5125V57.5Z" fill="#393939"/>
<path d="M56.25 32.5C51.5527 32.5 46.9609 33.8929 43.0552 36.5026C39.1495 39.1123 36.1055 42.8215 34.3079 47.1613C32.5103 51.501 32.04 56.2763 32.9564 60.8834C33.8728 65.4904 36.1347 69.7223 39.4562 73.0438C42.7777 76.3653 47.0096 78.6273 51.6166 79.5437C56.2237 80.4601 60.999 79.9897 65.3387 78.1921C69.6785 76.3946 73.3877 73.3505 75.9974 69.4448C78.6071 65.5391 80 60.9473 80 56.25C80 49.9511 77.4978 43.9102 73.0438 39.4562C68.5898 35.0022 62.5489 32.5 56.25 32.5ZM56.25 77.5C52.0472 77.5 47.9387 76.2537 44.4441 73.9187C40.9496 71.5837 38.2259 68.265 36.6176 64.382C35.0092 60.4991 34.5884 56.2264 35.4083 52.1043C36.2283 47.9822 38.2521 44.1958 41.224 41.224C44.1959 38.2521 47.9822 36.2282 52.1043 35.4083C56.2264 34.5884 60.4991 35.0092 64.382 36.6176C68.265 38.2259 71.5838 40.9496 73.9187 44.4441C76.2537 47.9387 77.5 52.0471 77.5 56.25C77.5 61.8859 75.2612 67.2909 71.276 71.276C67.2909 75.2612 61.8859 77.5 56.25 77.5Z" fill="#393939"/>
<path d="M56.25 38.75C52.7888 38.75 49.4054 39.7764 46.5275 41.6993C43.6497 43.6222 41.4066 46.3553 40.0821 49.553C38.7576 52.7507 38.411 56.2694 39.0863 59.6641C39.7615 63.0587 41.4282 66.1769 43.8756 68.6244C46.3231 71.0718 49.4413 72.7385 52.8359 73.4137C56.2306 74.089 59.7493 73.7424 62.947 72.4179C66.1447 71.0934 68.8778 68.8503 70.8007 65.9725C72.7237 63.0946 73.75 59.7112 73.75 56.25C73.75 53.9519 73.2974 51.6762 72.4179 49.553C71.5384 47.4298 70.2494 45.5007 68.6244 43.8756C66.9993 42.2506 65.0702 40.9616 62.947 40.0821C60.8238 39.2026 58.5481 38.75 56.25 38.75ZM56.25 71.25C53.2833 71.25 50.3832 70.3703 47.9165 68.722C45.4497 67.0738 43.5271 64.7311 42.3918 61.9902C41.2565 59.2494 40.9594 56.2334 41.5382 53.3236C42.117 50.4139 43.5456 47.7412 45.6434 45.6434C47.7412 43.5456 50.4139 42.117 53.3237 41.5382C56.2334 40.9594 59.2494 41.2565 61.9903 42.3918C64.7311 43.5271 67.0738 45.4497 68.722 47.9164C70.3703 50.3832 71.25 53.2833 71.25 56.25C71.25 60.2282 69.6697 64.0436 66.8566 66.8566C64.0436 69.6696 60.2283 71.25 56.25 71.25Z" fill="#393939"/>
<path d="M56.25 49.3375C58.3125 49.3375 60 50.5875 60 52.175C60 52.5065 60.1317 52.8245 60.3661 53.0589C60.6005 53.2933 60.9185 53.425 61.25 53.425C61.5815 53.425 61.8995 53.2933 62.1339 53.0589C62.3683 52.8245 62.5 52.5065 62.5 52.175C62.4114 50.8561 61.8622 49.6102 60.9482 48.6551C60.0343 47.7 58.8138 47.0965 57.5 46.95V45C57.5 44.6685 57.3683 44.3505 57.1339 44.1161C56.8995 43.8817 56.5815 43.75 56.25 43.75C55.9185 43.75 55.6005 43.8817 55.3661 44.1161C55.1317 44.3505 55 44.6685 55 45V46.95C53.6862 47.0965 52.4657 47.7 51.5518 48.6551C50.6378 49.6102 50.0886 50.8561 50 52.175C50 55.1125 52.8 57.5 56.25 57.5C58.3125 57.5 60 58.75 60 60.325C60 61.9 58.3125 63.1625 56.25 63.1625C54.1875 63.1625 52.5 61.9125 52.5 60.325C52.5 59.9935 52.3683 59.6755 52.1339 59.4411C51.8995 59.2067 51.5815 59.075 51.25 59.075C50.9185 59.075 50.6005 59.2067 50.3661 59.4411C50.1317 59.6755 50 59.9935 50 60.325C50.0886 61.6439 50.6378 62.8898 51.5518 63.8449C52.4657 64.8 53.6862 65.4035 55 65.55V67.5C55 67.8315 55.1317 68.1495 55.3661 68.3839C55.6005 68.6183 55.9185 68.75 56.25 68.75C56.5815 68.75 56.8995 68.6183 57.1339 68.3839C57.3683 68.1495 57.5 67.8315 57.5 67.5V65.55C58.8138 65.4035 60.0343 64.8 60.9482 63.8449C61.8622 62.8898 62.4114 61.6439 62.5 60.325C62.5 57.3875 59.7 55 56.25 55C54.1875 55 52.5 53.75 52.5 52.175C52.5 50.6 54.1875 49.3375 56.25 49.3375Z" fill="#393939"/>
</g>
<defs>
<clipPath id="clip0_1767_3801">
<rect width="80" height="80" fill="white"/>
</clipPath>
</defs>
</svg>
