<svg width="80" height="80" viewBox="0 0 80 80" fill="none" xmlns="http://www.w3.org/2000/svg">
<g clip-path="url(#clip0_1451_4364)">
<path d="M78.222 69.6393L63.5524 54.9696C65.8124 51.6101 67.393 47.8479 68.2139 43.8357H73.4164C74.2964 43.8357 75.01 43.1223 75.01 42.2421V32.771C75.01 31.8909 74.2964 31.1775 73.4164 31.1775H68.2132C67.4135 27.2956 65.8707 23.5686 63.6961 20.2664L67.3736 16.5889C67.6724 16.2901 67.8403 15.8847 67.8403 15.462C67.8403 15.0394 67.6724 14.6341 67.3736 14.3351L60.6766 7.63813C60.0541 7.01579 59.0454 7.01579 58.4227 7.63813L54.7452 11.3158C51.4427 9.1411 47.716 7.59829 43.8341 6.79891V1.59533C43.8341 0.715176 43.1205 0.0017395 42.2405 0.0017395H32.7693C31.8893 0.0017395 31.1757 0.715176 31.1757 1.59533V6.7986C27.294 7.59813 23.5671 9.14094 20.2646 11.3155L16.5872 7.63797C15.9647 7.01563 14.9559 7.01563 14.3333 7.63797L7.63639 14.335C7.33764 14.6337 7.16967 15.0392 7.16967 15.4619C7.16967 15.8845 7.33764 16.2898 7.63639 16.5887L11.3139 20.2662C9.1392 23.5689 7.59655 27.2956 6.79702 31.1773H1.59359C0.713592 31.1773 0 31.8907 0 32.7709V42.242C0 43.1221 0.713592 43.8356 1.59359 43.8356H6.79686C7.59639 47.7173 9.13904 51.4441 11.3137 54.7466L7.63624 58.4241C7.01389 59.0465 7.01389 60.0555 7.63624 60.678L14.3334 67.3749C14.9559 67.9972 15.9647 67.9972 16.5873 67.3749L20.2648 63.6972C23.5673 65.8719 27.294 67.4147 31.1759 68.2143V73.4175C31.1759 74.2977 31.8895 75.0111 32.7695 75.0111H42.2407C43.1207 75.0111 43.8343 74.2977 43.8343 73.4175V68.2152C47.8466 67.3943 51.6087 65.8136 54.9682 63.5536L69.6378 78.2233C70.8213 79.4066 72.3756 79.9983 73.9302 79.9983C75.4847 79.9983 77.0391 79.4066 78.2225 78.2233C79.3689 77.0769 80.0003 75.5525 80.0003 73.931C79.9998 72.31 79.3684 70.7858 78.222 69.6393ZM41.9884 65.3132C41.2154 65.4372 40.647 66.104 40.647 66.8868V71.8244H34.3631V66.8868C34.3631 66.104 33.7946 65.4372 33.0217 65.3132C28.6992 64.62 24.5462 62.9007 21.0118 60.341C20.3779 59.8819 19.504 59.9512 18.9501 60.5049L15.4604 63.9947L11.0172 59.5515L14.5068 56.0618C15.0604 55.508 15.1298 54.6343 14.6704 54.0001C12.1106 50.4655 10.3914 46.3126 9.69858 41.9903C9.57483 41.2173 8.9078 40.6488 8.12498 40.6488H3.18718V34.3651H8.12498C8.9078 34.3651 9.57467 33.7967 9.69858 33.0237C10.3917 28.7012 12.1109 24.5484 14.6704 21.0139C15.1297 20.3798 15.0603 19.5059 14.5068 18.9522L11.017 15.462L15.4604 11.0187L18.9501 14.5084C19.5037 15.0622 20.3775 15.1314 21.012 14.6722C24.5464 12.1123 28.6992 10.393 33.0217 9.70016C33.7946 9.5761 34.3631 8.90938 34.3631 8.12657V3.18892H40.647V8.12657C40.647 8.90938 41.2154 9.5761 41.9884 9.70016C46.3109 10.3931 50.4638 12.1125 53.998 14.6723C54.6322 15.1314 55.506 15.0622 56.0599 14.5086L59.5496 11.0189L63.9928 15.4622L60.5032 18.9519C59.9496 19.5056 59.8802 20.3794 60.3396 21.0136C62.8993 24.5478 64.6186 28.7007 65.3118 33.0235C65.4358 33.7965 66.1025 34.365 66.8853 34.365H71.823V40.6487H66.8853C66.1025 40.6487 65.4357 41.2171 65.3118 41.9901C64.4538 47.341 62.1141 52.244 58.5165 56.2641L54.8601 52.6077C58.3574 48.5901 60.478 43.3438 60.478 37.6114C60.478 25.0018 50.2196 14.7431 37.6099 14.7431C25.0003 14.7431 14.7417 25.0018 14.7417 37.6114C14.7417 50.2209 25.0001 60.4793 37.6098 60.4793C43.3423 60.4793 48.5883 58.3587 52.6061 54.8615L56.2625 58.5179C52.2421 62.1155 47.339 64.4552 41.9884 65.3132ZM37.6096 57.2921C26.7576 57.2921 17.9289 48.4634 17.9289 37.6114C17.9289 26.7593 26.7576 17.9305 37.6096 17.9305C48.4616 17.9305 57.2904 26.7593 57.2904 37.6114C57.2904 48.4634 48.4618 57.2921 37.6096 57.2921ZM75.9681 75.97C74.8442 77.0939 73.0153 77.0939 71.8913 75.97L57.8297 61.9085L61.9068 57.8315L75.9681 71.893C77.0924 73.0171 77.0924 74.8458 75.9681 75.97Z" fill="#393939"/>
<path d="M33.9694 22.8789C33.6697 22.0514 32.7559 21.6233 31.9283 21.9233C27.7927 23.4212 24.3517 26.5695 22.488 30.5607C22.1155 31.3582 22.4602 32.3067 23.2575 32.679C23.4757 32.7809 23.705 32.8292 23.9308 32.8292C24.5308 32.8292 25.1053 32.4887 25.3758 31.9095C26.8842 28.6795 29.6683 26.132 33.0138 24.9201C33.8413 24.6203 34.2692 23.7065 33.9694 22.8789Z" fill="#393939"/>
<path d="M22.6951 34.8146C21.8205 34.7442 21.0501 35.3998 20.9805 36.2773C20.9455 36.7189 20.9277 37.1676 20.9277 37.6114C20.9277 38.4915 21.6413 39.2049 22.5213 39.2049C23.4013 39.2049 24.1149 38.4915 24.1149 37.6114C24.1149 37.2515 24.1294 36.8874 24.1577 36.5293C24.2274 35.652 23.5726 34.8843 22.6951 34.8146Z" fill="#393939"/>
<path d="M30 55.4V39.5139L38.85 24L47.7 39.5139V55.4" stroke="#393939" stroke-width="3" stroke-linecap="round" stroke-linejoin="round"/>
<path d="M30 39.5C30 39.5 32.493 41.7 34.425 41.7C36.357 41.7 38.85 39.5 38.85 39.5C38.85 39.5 41.343 41.7 43.275 41.7C45.207 41.7 47.7 39.5 47.7 39.5" stroke="#393939" stroke-width="3" stroke-linecap="round" stroke-linejoin="round"/>
</g>
<defs>
<clipPath id="clip0_1451_4364">
<rect width="80" height="80" fill="white"/>
</clipPath>
</defs>
</svg>
