<svg width="80" height="80" viewBox="0 0 80 80" fill="none" xmlns="http://www.w3.org/2000/svg">
<g clip-path="url(#clip0_1834_2987)">
<path d="M78.222 69.6395L63.5524 54.9698C65.8124 51.6103 67.393 47.8481 68.2139 43.8359H73.4164C74.2964 43.8359 75.01 43.1225 75.01 42.2423V32.7713C75.01 31.8911 74.2964 31.1777 73.4164 31.1777H68.2132C67.4135 27.2958 65.8707 23.5688 63.6961 20.2666L67.3736 16.5891C67.6724 16.2904 67.8403 15.8849 67.8403 15.4622C67.8403 15.0396 67.6724 14.6343 67.3736 14.3354L60.6766 7.63834C60.0541 7.016 59.0454 7.016 58.4227 7.63834L54.7452 11.316C51.4427 9.14131 47.716 7.5985 43.8341 6.79913V1.59554C43.8341 0.715389 43.1205 0.00195312 42.2405 0.00195312H32.7693C31.8893 0.00195312 31.1757 0.715389 31.1757 1.59554V6.79881C27.294 7.59834 23.5671 9.14115 20.2646 11.3157L16.5872 7.63819C15.9647 7.01584 14.9559 7.01584 14.3333 7.63819L7.63639 14.3352C7.33764 14.634 7.16967 15.0394 7.16967 15.4621C7.16967 15.8847 7.33764 16.29 7.63639 16.589L11.3139 20.2664C9.1392 23.5691 7.59655 27.2958 6.79702 31.1775H1.59359C0.713592 31.1775 0 31.891 0 32.7711V42.2422C0 43.1223 0.713592 43.8358 1.59359 43.8358H6.79686C7.59639 47.7175 9.13904 51.4444 11.3137 54.7468L7.63624 58.4243C7.01389 59.0467 7.01389 60.0557 7.63624 60.6782L14.3334 67.3751C14.9559 67.9974 15.9647 67.9974 16.5873 67.3751L20.2648 63.6975C23.5673 65.8721 27.294 67.4149 31.1759 68.2145V73.4177C31.1759 74.2979 31.8895 75.0113 32.7695 75.0113H42.2407C43.1207 75.0113 43.8343 74.2979 43.8343 73.4177V68.2154C47.8466 67.3945 51.6087 65.8139 54.9682 63.5539L69.6378 78.2235C70.8213 79.4068 72.3756 79.9985 73.9302 79.9985C75.4847 79.9985 77.0391 79.4068 78.2225 78.2235C79.3689 77.0771 80.0003 75.5527 80.0003 73.9312C79.9998 72.3102 79.3684 70.786 78.222 69.6395ZM41.9884 65.3134C41.2154 65.4374 40.647 66.1042 40.647 66.887V71.8246H34.3631V66.887C34.3631 66.1042 33.7946 65.4374 33.0217 65.3134C28.6992 64.6203 24.5462 62.9009 21.0118 60.3412C20.3779 59.8821 19.504 59.9514 18.9501 60.5051L15.4604 63.9949L11.0172 59.5517L14.5068 56.062C15.0604 55.5082 15.1298 54.6345 14.6704 54.0003C12.1106 50.4658 10.3914 46.3128 9.69858 41.9905C9.57483 41.2175 8.9078 40.6491 8.12498 40.6491H3.18718V34.3653H8.12498C8.9078 34.3653 9.57467 33.7969 9.69858 33.0239C10.3917 28.7014 12.1109 24.5486 14.6704 21.0141C15.1297 20.38 15.0603 19.5061 14.5068 18.9524L11.017 15.4622L15.4604 11.019L18.9501 14.5086C19.5037 15.0624 20.3775 15.1316 21.012 14.6724C24.5464 12.1126 28.6992 10.3932 33.0217 9.70037C33.7946 9.57631 34.3631 8.90959 34.3631 8.12678V3.18913H40.647V8.12678C40.647 8.90959 41.2154 9.57631 41.9884 9.70037C46.3109 10.3933 50.4638 12.1127 53.998 14.6725C54.6322 15.1316 55.506 15.0624 56.0599 14.5088L59.5496 11.0191L63.9928 15.4624L60.5032 18.9521C59.9496 19.5058 59.8802 20.3796 60.3396 21.0138C62.8993 24.548 64.6186 28.701 65.3118 33.0238C65.4358 33.7967 66.1025 34.3652 66.8853 34.3652H71.823V40.6489H66.8853C66.1025 40.6489 65.4357 41.2173 65.3118 41.9903C64.4538 47.3412 62.1141 52.2442 58.5165 56.2643L54.8601 52.6079C58.3574 48.5903 60.478 43.3441 60.478 37.6116C60.478 25.0021 50.2196 14.7433 37.6099 14.7433C25.0003 14.7433 14.7417 25.0021 14.7417 37.6116C14.7417 50.2211 25.0001 60.4795 37.6098 60.4795C43.3423 60.4795 48.5883 58.3589 52.6061 54.8617L56.2625 58.5181C52.2421 62.1157 47.339 64.4554 41.9884 65.3134ZM37.6096 57.2923C26.7576 57.2923 17.9289 48.4636 17.9289 37.6116C17.9289 26.7596 26.7576 17.9307 37.6096 17.9307C48.4616 17.9307 57.2904 26.7596 57.2904 37.6116C57.2904 48.4636 48.4618 57.2923 37.6096 57.2923ZM75.9681 75.9702C74.8442 77.0941 73.0153 77.0941 71.8913 75.9702L57.8297 61.9087L61.9068 57.8317L75.9681 71.8932C77.0924 73.0173 77.0924 74.846 75.9681 75.9702Z" fill="#393939"/>
<path d="M33.9674 22.8791C33.6677 22.0516 32.754 21.6234 31.9263 21.9234C27.7907 23.4214 24.3498 26.5697 22.486 30.5609C22.1135 31.3584 22.4582 32.3069 23.2556 32.6792C23.4737 32.7811 23.7031 32.8294 23.9289 32.8294C24.5289 32.8294 25.1034 32.4889 25.3738 31.9097C26.8823 28.6797 29.6663 26.1322 33.0118 24.9203C33.8393 24.6205 34.2673 23.7067 33.9674 22.8791Z" fill="#393939"/>
<path d="M22.697 34.8148C21.8225 34.7443 21.052 35.3999 20.9825 36.2774C20.9475 36.719 20.9297 37.1677 20.9297 37.6115C20.9297 38.4916 21.6433 39.2051 22.5233 39.2051C23.4033 39.2051 24.1169 38.4916 24.1169 37.6115C24.1169 37.2516 24.1314 36.8876 24.1597 36.5294C24.2294 35.6521 23.5745 34.8844 22.697 34.8148Z" fill="#393939"/>
<path d="M30 55.4V39.5139L38.85 24L47.7 39.5139V55.4" stroke="#393939" stroke-width="3" stroke-linecap="round" stroke-linejoin="round"/>
<path d="M30 39.5C30 39.5 32.493 41.7 34.425 41.7C36.357 41.7 38.85 39.5 38.85 39.5C38.85 39.5 41.343 41.7 43.275 41.7C45.207 41.7 47.7 39.5 47.7 39.5" stroke="#393939" stroke-width="3" stroke-linecap="round" stroke-linejoin="round"/>
</g>
<defs>
<clipPath id="clip0_1834_2987">
<rect width="80" height="80" fill="white"/>
</clipPath>
</defs>
</svg>
