<svg width="80" height="80" viewBox="0 0 80 80" fill="none" xmlns="http://www.w3.org/2000/svg">
<path fill-rule="evenodd" clip-rule="evenodd" d="M71.793 57.4594H8.20859C3.68828 57.4594 0.0117188 53.7828 0.0117188 49.2625V11.4625C0.0117188 6.94219 3.68828 3.26562 8.20859 3.26562H71.793C76.3133 3.26562 79.9898 6.94219 79.9898 11.4625V49.2625C79.9898 53.7812 76.3133 57.4594 71.793 57.4594ZM8.20859 5.13906C4.72266 5.13906 1.88672 7.97656 1.88672 11.4625V49.2625C1.88672 52.7484 4.72266 55.5844 8.20859 55.5844H71.793C75.2789 55.5844 78.1164 52.7484 78.1164 49.2625V11.4625C78.1164 7.97656 75.2789 5.13906 71.793 5.13906H8.20859Z" fill="#393939"/>
<path fill-rule="evenodd" clip-rule="evenodd" d="M53.4728 68.2235C53.4728 68.2235 53.4712 68.2235 53.4697 68.2235H26.5353C26.2118 68.2235 25.9134 68.0579 25.7415 67.7845C25.5697 67.5126 25.5509 67.1704 25.69 66.8798L30.8665 56.1157C31.0228 55.7907 31.3509 55.5845 31.7118 55.5845H48.2931C48.654 55.5845 48.9822 55.7907 49.1384 56.1157L54.2837 66.8142C54.3634 66.9532 54.4103 67.1142 54.4103 67.286C54.4103 67.8032 53.9915 68.2235 53.4728 68.2235ZM28.0259 66.3485H51.979L47.704 57.4595H32.3009L28.0259 66.3485Z" fill="#393939"/>
<path fill-rule="evenodd" clip-rule="evenodd" d="M62.3539 76.7346H17.6445C17.1273 76.7346 16.707 76.3158 16.707 75.7971V71.5424C16.707 68.6783 19.0367 66.3486 21.9008 66.3486H58.0977C60.9617 66.3486 63.2914 68.6783 63.2914 71.5424V75.7971C63.2914 76.3158 62.8711 76.7346 62.3539 76.7346ZM18.582 74.8611H61.4164V71.5424C61.4164 69.7127 59.9289 68.2236 58.0977 68.2236H21.9008C20.0711 68.2236 18.582 69.7127 18.582 71.5424V74.8611Z" fill="#393939"/>
<path fill-rule="evenodd" clip-rule="evenodd" d="M79.0523 48.1968H0.949219C0.432031 48.1968 0.0117188 47.778 0.0117188 47.2593C0.0117188 46.7421 0.432031 46.3218 0.949219 46.3218H79.0523C79.5695 46.3218 79.9898 46.7421 79.9898 47.2593C79.9898 47.778 79.5695 48.1968 79.0523 48.1968Z" fill="#393939"/>
<path fill-rule="evenodd" clip-rule="evenodd" d="M10.5391 37.3437C10.0219 37.3437 9.60156 36.9249 9.60156 36.4077V15.0562C9.60156 14.539 10.0219 14.1187 10.5391 14.1187C11.0562 14.1187 11.4766 14.539 11.4766 15.0562V36.4077C11.4766 36.9249 11.0562 37.3437 10.5391 37.3437Z" fill="#393939"/>
<path fill-rule="evenodd" clip-rule="evenodd" d="M16.8828 34.617C16.3656 34.617 15.9453 34.1967 15.9453 33.6795V17.7842C15.9453 17.2654 16.3656 16.8467 16.8828 16.8467C17.4 16.8467 17.8203 17.2654 17.8203 17.7842V33.6795C17.8203 34.1967 17.4 34.617 16.8828 34.617Z" fill="#393939"/>
<path fill-rule="evenodd" clip-rule="evenodd" d="M69.4648 37.3437C68.9477 37.3437 68.5273 36.9249 68.5273 36.4077V15.0562C68.5273 14.539 68.9477 14.1187 69.4648 14.1187C69.982 14.1187 70.4023 14.539 70.4023 15.0562V36.4077C70.4023 36.9249 69.982 37.3437 69.4648 37.3437Z" fill="#393939"/>
<path fill-rule="evenodd" clip-rule="evenodd" d="M63.1211 34.617C62.6039 34.617 62.1836 34.1967 62.1836 33.6795V17.7842C62.1836 17.2654 62.6039 16.8467 63.1211 16.8467C63.6383 16.8467 64.0586 17.2654 64.0586 17.7842V33.6795C64.0586 34.1967 63.6383 34.617 63.1211 34.617Z" fill="#393939"/>
<path fill-rule="evenodd" clip-rule="evenodd" d="M40.0016 39.8107C32.2375 39.8107 25.9219 33.4951 25.9219 25.7311C25.9219 17.967 32.2375 11.6514 40.0016 11.6514C47.7656 11.6514 54.0812 17.967 54.0812 25.7311C54.0812 33.4951 47.7656 39.8107 40.0016 39.8107ZM40.0016 13.5264C33.2719 13.5264 27.7969 19.0014 27.7969 25.7311C27.7969 32.4607 33.2719 37.9373 40.0016 37.9373C46.7313 37.9373 52.2062 32.4623 52.2062 25.7311C52.2062 19.0014 46.7313 13.5264 40.0016 13.5264Z" fill="#393939"/>
<path fill-rule="evenodd" clip-rule="evenodd" d="M40 16.8436C39.4828 16.8436 39.0625 16.4248 39.0625 15.9061V12.5889C39.0625 12.0717 39.4828 11.6514 40 11.6514C40.5172 11.6514 40.9375 12.0717 40.9375 12.5889V15.9061C40.9375 16.4248 40.5172 16.8436 40 16.8436Z" fill="#393939"/>
<path fill-rule="evenodd" clip-rule="evenodd" d="M46.9484 19.7221C46.7078 19.7221 46.4687 19.6299 46.2859 19.4471C45.9203 19.0814 45.9203 18.4877 46.2859 18.1221L48.6328 15.7752C48.9984 15.4096 49.5922 15.4096 49.9578 15.7752C50.3234 16.1424 50.3234 16.7361 49.9578 17.1018L47.6109 19.4471C47.4281 19.6299 47.1875 19.7221 46.9484 19.7221Z" fill="#393939"/>
<path fill-rule="evenodd" clip-rule="evenodd" d="M53.1414 26.6689H49.8242C49.3055 26.6689 48.8867 26.2486 48.8867 25.7314C48.8867 25.2143 49.3055 24.7939 49.8242 24.7939H53.1414C53.6586 24.7939 54.0789 25.2143 54.0789 25.7314C54.0789 26.2486 53.6586 26.6689 53.1414 26.6689Z" fill="#393939"/>
<path fill-rule="evenodd" clip-rule="evenodd" d="M49.2926 35.9623C49.052 35.9623 48.8129 35.8701 48.6285 35.6873L46.2832 33.342C45.916 32.9748 45.916 32.3826 46.2832 32.0154C46.6488 31.6498 47.2426 31.6498 47.6082 32.0154L49.9551 34.3623C50.3207 34.7279 50.3207 35.3217 49.9551 35.6873C49.7723 35.8701 49.5316 35.9623 49.2926 35.9623Z" fill="#393939"/>
<path fill-rule="evenodd" clip-rule="evenodd" d="M30.7063 35.9623C30.4672 35.9623 30.2266 35.8701 30.0437 35.6873C29.6781 35.3217 29.6781 34.7279 30.0437 34.3623L32.3906 32.0154C32.7563 31.6498 33.35 31.6498 33.7156 32.0154C34.0812 32.3826 34.0812 32.9748 33.7156 33.342L31.3687 35.6873C31.1859 35.8701 30.9469 35.9623 30.7063 35.9623Z" fill="#393939"/>
<path fill-rule="evenodd" clip-rule="evenodd" d="M30.1766 26.6689H26.8594C26.3406 26.6689 25.9219 26.2486 25.9219 25.7314C25.9219 25.2143 26.3406 24.7939 26.8594 24.7939H30.1766C30.6937 24.7939 31.1141 25.2143 31.1141 25.7314C31.1141 26.2486 30.6937 26.6689 30.1766 26.6689Z" fill="#393939"/>
<path fill-rule="evenodd" clip-rule="evenodd" d="M33.0531 19.7221C32.8125 19.7221 32.5734 19.6299 32.3906 19.4471L30.0437 17.1018C29.6781 16.7346 29.6781 16.1424 30.0437 15.7752C30.4094 15.4096 31.0031 15.4096 31.3687 15.7752L33.7156 18.1221C34.0812 18.4877 34.0812 19.0814 33.7156 19.4471C33.5328 19.6299 33.2922 19.7221 33.0531 19.7221Z" fill="#393939"/>
<path fill-rule="evenodd" clip-rule="evenodd" d="M44.1352 39.1483C44.0992 39.1483 44.0633 39.1468 44.0258 39.1421C43.5117 39.0827 43.143 38.6171 43.2039 38.103C43.218 37.9718 43.2258 37.8421 43.2258 37.7171C43.2258 35.939 41.7805 34.4921 40.0023 34.4921C39.7555 34.4921 39.5086 34.5202 39.2711 34.5749C37.8023 34.9155 36.7773 36.2062 36.7773 37.7171C36.7773 37.8421 36.7852 37.9718 36.8008 38.103C36.8602 38.6171 36.4914 39.0827 35.9773 39.1421C35.4648 39.203 34.9992 38.8343 34.9383 38.3187C34.9148 38.1171 34.9023 37.914 34.9023 37.7171C34.9023 35.3296 36.5258 33.2858 38.8492 32.7499C39.2258 32.6624 39.6133 32.6187 40.0023 32.6187C42.8133 32.6187 45.1008 34.9062 45.1008 37.7171C45.1008 37.914 45.0883 38.1171 45.0648 38.3202C45.0102 38.7968 44.6039 39.1483 44.1352 39.1483Z" fill="#393939"/>
<path fill-rule="evenodd" clip-rule="evenodd" d="M40 34.4924C39.4828 34.4924 39.0625 34.0736 39.0625 33.5549V23.6674C39.0625 23.1502 39.4828 22.7314 40 22.7314C40.5172 22.7314 40.9375 23.1502 40.9375 23.6674V33.5549C40.9375 34.0736 40.5172 34.4924 40 34.4924Z" fill="#393939"/>
</svg>
