<svg width="45" height="45" viewBox="0 0 45 45" fill="none" xmlns="http://www.w3.org/2000/svg">
<g clip-path="url(#clip0_1445_3770)">
<path d="M42.9545 16.3636H39.8607C39.6442 15.7518 39.3949 15.151 39.1139 14.5642L41.3025 12.3755C42.1013 11.5767 42.1013 10.2817 41.3026 9.48286L35.5173 3.69736C35.1337 3.31377 34.6133 3.09818 34.0709 3.09818C33.5284 3.09818 33.0082 3.31364 32.6246 3.69736L30.4358 5.886C29.8489 5.60495 29.2484 5.35582 28.6364 5.13927V2.04545C28.6364 0.915818 27.7205 0 26.5909 0H18.4091C17.2795 0 16.3636 0.915818 16.3636 2.04545V5.13927C15.7516 5.35582 15.151 5.60509 14.5643 5.886L12.3755 3.69736C11.5769 2.89855 10.2817 2.89855 9.48286 3.69736L3.69736 9.48286C2.89855 10.2817 2.89855 11.5767 3.69736 12.3755L5.886 14.5643C5.60509 15.1511 5.35595 15.7516 5.13941 16.3636H2.04545C0.915818 16.3636 0 17.2795 0 18.4091V26.5909C0 27.7205 0.915818 28.6364 2.04545 28.6364H5.13941C5.35595 29.2482 5.60523 29.849 5.886 30.4357L3.69736 32.6245C3.31377 33.008 3.09818 33.5283 3.09818 34.0707C3.09818 34.6133 3.31364 35.1335 3.69736 35.5171L9.483 41.3025C10.2818 42.1012 11.5769 42.1012 12.3755 41.3025L14.5645 39.114C15.1514 39.3949 15.7518 39.6442 16.3636 39.8607V42.9545C16.3636 44.0842 17.2795 45 18.4091 45H26.5909C27.7205 45 28.6364 44.0842 28.6364 42.9545V39.8606C29.2484 39.644 29.849 39.3949 30.4358 39.1139L32.6247 41.3025C33.4234 42.1012 34.7185 42.1013 35.5173 41.3024L41.3026 35.517C42.1015 34.7182 42.1015 33.4231 41.3026 32.6243L39.114 30.4357C39.395 29.8489 39.6443 29.2482 39.8609 28.6362H42.9545C44.0842 28.6362 45 27.7204 45 26.5908V18.409C45 17.2795 44.0842 16.3636 42.9545 16.3636ZM40.9091 24.5455H38.348C37.4145 24.5455 36.5996 25.1774 36.3671 26.0815C36.035 27.3727 35.5199 28.6141 34.8361 29.7712C34.3613 30.5748 34.4907 31.598 35.1509 32.258L36.9637 34.0709L34.071 36.9635L32.258 35.1509C31.5982 34.491 30.575 34.3615 29.7716 34.8361C28.6145 35.5196 27.3728 36.0348 26.0812 36.3674C25.1772 36.5999 24.5455 37.4148 24.5455 38.3482V40.9091H20.4545V38.3482C20.4545 37.4149 19.8228 36.6 18.919 36.3674C17.6275 36.0349 16.386 35.5197 15.2287 34.8361C14.425 34.3613 13.4021 34.4909 12.7422 35.1509L10.9293 36.9635L8.03632 34.0707L9.84914 32.2579C10.5093 31.5979 10.6387 30.5748 10.1639 29.7712C9.48041 28.6144 8.96536 27.3728 8.63277 26.081C8.40027 25.1772 7.58523 24.5455 6.65195 24.5455H4.09091V20.4545H6.65195C7.58523 20.4545 8.40014 19.8228 8.63277 18.919C8.96523 17.627 9.48041 16.3855 10.1639 15.2287C10.6387 14.4251 10.5093 13.402 9.84914 12.742L8.03645 10.9291L10.9293 8.03645L12.7421 9.84914C13.4021 10.5091 14.4254 10.6387 15.2288 10.1639C16.3857 9.48027 17.6275 8.96523 18.9191 8.63264C19.8228 8.40014 20.4545 7.58523 20.4545 6.65182V4.09091H24.5455V6.65182C24.5455 7.58509 25.1772 8.4 26.081 8.63264C27.373 8.96523 28.6145 9.48027 29.7715 10.1639C30.5752 10.6385 31.5982 10.5091 32.2582 9.84914L34.071 8.03645L36.9637 10.9291L35.1509 12.742C34.4907 13.402 34.3613 14.4252 34.8361 15.2288C35.5199 16.3857 36.0349 17.6272 36.3671 18.9185C36.5996 19.8225 37.4146 20.4544 38.348 20.4544H40.9091V24.5455Z" fill="url(#paint0_linear_1445_3770)"/>
<path d="M25.418 18.0537L20.7279 22.7437L19.4469 21.4628C18.6482 20.664 17.353 20.664 16.5542 21.4628C15.7554 22.2616 15.7554 23.5567 16.5542 24.3555L19.2815 27.0827C19.6809 27.4822 20.2044 27.6818 20.7279 27.6818C21.2514 27.6818 21.7749 27.4822 22.1741 27.0826L28.3105 20.9462C29.1093 20.1474 29.1093 18.8524 28.3105 18.0536C27.5118 17.2547 26.2166 17.2547 25.418 18.0537Z" fill="url(#paint1_linear_1445_3770)"/>
</g>
<defs>
<linearGradient id="paint0_linear_1445_3770" x1="22.5" y1="0" x2="22.5" y2="45" gradientUnits="userSpaceOnUse">
<stop stop-color="#4B9ADB"/>
<stop offset="1" stop-color="#9747FF"/>
</linearGradient>
<linearGradient id="paint1_linear_1445_3770" x1="22.4324" y1="17.4545" x2="22.4324" y2="27.6818" gradientUnits="userSpaceOnUse">
<stop stop-color="#4B9ADB"/>
<stop offset="1" stop-color="#9747FF"/>
</linearGradient>
<clipPath id="clip0_1445_3770">
<rect width="45" height="45" fill="white"/>
</clipPath>
</defs>
</svg>
