<svg width="80" height="80" viewBox="0 0 80 80" fill="none" xmlns="http://www.w3.org/2000/svg">
<path d="M31.3926 10.0492L35.5618 13.37L34.1184 18.4258C34.0068 18.8175 34.1509 19.2375 34.4792 19.4792C34.6501 19.6042 34.8526 19.6675 35.0551 19.6675C35.2418 19.6675 35.4292 19.6142 35.5926 19.5058L40.0392 16.5667L44.4018 19.5017C44.7401 19.7292 45.1842 19.7217 45.5143 19.4842C45.8451 19.2458 45.9926 18.8267 45.8834 18.4342L44.4626 13.2967L48.6017 10.055C48.9226 9.80333 49.0526 9.37917 48.9284 8.99083C48.8043 8.6025 48.4509 8.33333 48.0443 8.315L42.7192 8.07917L40.9151 3.14083C40.7751 2.75667 40.4118 2.50167 40.0042 2.5C40.0026 2.5 40.0009 2.5 40.0001 2.5C39.5942 2.5 39.2309 2.75167 39.0884 3.1325L37.2184 8.12417L31.9642 8.31417C31.5567 8.32917 31.2018 8.59583 31.0743 8.9825C30.9468 9.36917 31.0734 9.795 31.3926 10.0492ZM37.9376 10.0467C38.3309 10.0325 38.6768 9.78333 38.8143 9.415L39.9884 6.28083L41.1118 9.35667C41.2467 9.72583 41.5909 9.97833 41.9834 9.99583L45.3276 10.1442L42.7501 12.1625C42.4401 12.405 42.3068 12.81 42.4118 13.1892L43.3042 16.415L40.5868 14.5875C40.2609 14.3683 39.8343 14.3667 39.5059 14.5833L36.7134 16.4292L37.6117 13.2808C37.7201 12.9025 37.5892 12.4967 37.2817 12.2517L34.6634 10.1667L37.9376 10.0467ZM75.7076 18.0533C75.5834 17.665 75.2301 17.3958 74.8234 17.3775L69.4984 17.1417L67.6942 12.2033C67.5542 11.8208 67.1909 11.565 66.7834 11.5633C66.7817 11.5633 66.7809 11.5633 66.7792 11.5633C66.3734 11.5633 66.0101 11.815 65.8676 12.1958L63.9976 17.1875L58.7434 17.3775C58.3359 17.3925 57.9809 17.6592 57.8534 18.0458C57.7259 18.4333 57.8526 18.8583 58.1717 19.1125L62.3409 22.4333L60.8976 27.4892C60.7859 27.8808 60.9301 28.3008 61.2584 28.5425C61.5876 28.7833 62.0309 28.7942 62.3709 28.5692L66.8176 25.63L71.1801 28.565C71.3442 28.6758 71.5342 28.7308 71.7234 28.7308C71.9234 28.7308 72.1226 28.6692 72.2926 28.5475C72.6234 28.3092 72.7709 27.89 72.6617 27.4975L71.2409 22.36L75.3801 19.1183C75.7009 18.8658 75.8317 18.4417 75.7076 18.0533ZM69.5292 21.2258C69.2192 21.4683 69.0859 21.8733 69.1909 22.2525L70.0834 25.4783L67.3659 23.6508C67.0401 23.4317 66.6134 23.43 66.2851 23.6467L63.4926 25.4925L64.3909 22.3433C64.4992 21.965 64.3684 21.5592 64.0609 21.3142L61.4426 19.2292L64.7151 19.1108C65.1084 19.0967 65.4542 18.8475 65.5917 18.4792L66.7659 15.345L67.8892 18.4208C68.0243 18.79 68.3684 19.0425 68.7609 19.06L72.1051 19.2083L69.5292 21.2258ZM17.6226 28.5642C17.9609 28.7917 18.4042 28.7842 18.7351 28.5467C19.0659 28.3083 19.2134 27.8892 19.1042 27.4967L17.6834 22.3592L21.8226 19.1175C22.1434 18.8658 22.2734 18.4417 22.1493 18.0533C22.0251 17.665 21.6717 17.3958 21.2651 17.3775L15.9401 17.1417L14.1359 12.2033C13.9959 11.8208 13.6326 11.565 13.2251 11.5633C13.2234 11.5633 13.2226 11.5633 13.2209 11.5633C12.8151 11.5633 12.4517 11.815 12.3092 12.1958L10.4393 17.1875L5.18508 17.3775C4.77758 17.3925 4.42258 17.6592 4.29508 18.0458C4.16758 18.4333 4.29425 18.8583 4.61342 19.1125L8.78258 22.4333L7.33925 27.4892C7.22758 27.8808 7.37175 28.3008 7.70008 28.5425C7.87092 28.6675 8.07342 28.7308 8.27592 28.7308C8.46258 28.7308 8.65008 28.6775 8.81342 28.5692L13.2601 25.63L17.6226 28.5642ZM9.93508 25.4917L10.8334 22.3425C10.9418 21.9642 10.8109 21.5583 10.5034 21.3133L7.88508 19.2283L11.1576 19.11C11.5509 19.0958 11.8968 18.8467 12.0343 18.4783L13.2084 15.3442L14.3317 18.42C14.4668 18.7892 14.8109 19.0417 15.2034 19.0592L18.5476 19.2075L15.9701 21.2267C15.6601 21.4692 15.5267 21.8742 15.6318 22.2533L16.5243 25.4792L13.8076 23.6517C13.4818 23.4325 13.0551 23.4308 12.7268 23.6475L9.93508 25.4917ZM47.9567 54.5808C47.9567 50.1933 44.3876 46.6242 40.0001 46.6242C35.6126 46.6242 32.0434 50.1933 32.0434 54.5808C32.0434 58.9683 35.6126 62.5375 40.0001 62.5375C44.3876 62.5375 47.9567 58.9683 47.9567 54.5808ZM33.9909 54.5808C33.9909 51.2675 36.6867 48.5717 40.0001 48.5717C43.3134 48.5717 46.0093 51.2675 46.0093 54.5808C46.0093 57.8942 43.3134 60.59 40.0001 60.59C36.6867 60.59 33.9909 57.8942 33.9909 54.5808ZM55.1809 76.3167C55.2959 76.8417 54.9642 77.3617 54.4384 77.4767C54.3676 77.4925 54.2976 77.5 54.2284 77.5C53.7809 77.5 53.3784 77.19 53.2784 76.735C51.9209 70.5558 46.3368 66.0717 40.0001 66.0717C33.6634 66.0717 28.0801 70.5558 26.7226 76.735C26.6076 77.2608 26.0867 77.5925 25.5626 77.4775C25.0376 77.3625 24.7051 76.8425 24.8201 76.3175C25.5684 72.9125 27.4776 69.8183 30.1967 67.6058C32.9559 65.3608 36.4376 64.1242 40.0009 64.1242C43.5643 64.1242 47.0459 65.3608 49.8051 67.6058C52.5234 69.8175 54.4326 72.9117 55.1809 76.3167ZM67.7601 46.1733H64.6501C64.1592 44.5492 63.5059 42.975 62.7026 41.4775L64.9034 39.2767C65.8726 38.3075 65.8726 36.73 64.9034 35.76L57.8717 28.7283C56.9026 27.7592 55.3242 27.7592 54.3551 28.7283L52.1534 30.93C50.6543 30.1258 49.0809 29.4733 47.4593 28.9825V25.8708C47.4593 24.5 46.3434 23.3842 44.9726 23.3842H35.0276C33.6568 23.3842 32.5409 24.5 32.5409 25.8708V28.9825C30.9184 29.4733 29.3442 30.1258 27.8459 30.93L25.6442 28.7283C24.6742 27.7592 23.0967 27.7592 22.1276 28.7283L15.0959 35.76C14.1267 36.7292 14.1267 38.3067 15.0959 39.2767L17.2976 41.4783C16.4934 42.9767 15.8409 44.5508 15.3501 46.1733H12.2393C10.8684 46.1733 9.75258 47.2892 9.75258 48.66V58.605C9.75258 59.9758 10.8684 61.0917 12.2393 61.0917H15.3493C15.8401 62.7158 16.4934 64.29 17.2968 65.7875L15.0959 67.9883C14.1267 68.9575 14.1267 70.535 15.0959 71.505L18.6117 75.0208C18.9917 75.4008 19.6092 75.4008 19.9892 75.0208L27.8968 67.1133C28.0793 66.9308 28.1817 66.6833 28.1817 66.425C28.1817 66.1667 28.0793 65.9192 27.8968 65.7367C24.6643 62.5042 22.8834 58.2058 22.8834 53.6333C22.8834 44.195 30.5618 36.5167 40.0001 36.5167C49.4384 36.5167 57.1168 44.195 57.1168 53.6333C57.1168 58.205 55.3359 62.5042 52.1034 65.7367C51.9209 65.9192 51.8184 66.1675 51.8184 66.425C51.8184 66.6833 51.9209 66.9308 52.1034 67.1133L60.0109 75.0208C60.2009 75.2108 60.4501 75.3058 60.6992 75.3058C60.9484 75.3058 61.1976 75.2108 61.3876 75.0208L64.9034 71.505C65.8726 70.5358 65.8726 68.9583 64.9034 67.9883L62.7017 65.7867C63.5059 64.2875 64.1584 62.7142 64.6493 61.0925H67.7609C69.1318 61.0925 70.2476 59.9767 70.2476 58.6058V48.66C70.2467 47.2892 69.1317 46.1733 67.7601 46.1733ZM68.2992 58.605C68.2992 58.8967 68.0526 59.1433 67.7609 59.1433H63.9151C63.4751 59.1433 63.0901 59.4383 62.9751 59.8633C62.4467 61.8183 61.6642 63.7042 60.6501 65.47C60.4309 65.8517 60.4951 66.3325 60.8059 66.6442L63.5267 69.365C63.7334 69.5717 63.7334 69.9208 63.5267 70.1267L60.6992 72.9542L54.1526 66.4075C57.3276 62.8983 59.0651 58.3992 59.0651 53.6325C59.0651 43.12 50.5126 34.5683 40.0009 34.5683C29.4893 34.5683 20.9359 43.12 20.9359 53.6325C20.9359 58.3992 22.6734 62.8983 25.8484 66.4075L19.3018 72.955L16.4742 70.1275C16.2676 69.9208 16.2676 69.5717 16.4742 69.3658L19.1943 66.6458C19.5059 66.335 19.5692 65.8533 19.3501 65.4717C18.3367 63.7083 17.5543 61.8217 17.0243 59.8633C16.9093 59.4383 16.5243 59.1442 16.0843 59.1442H12.2401C11.9484 59.1442 11.7018 58.8975 11.7018 58.6058V48.66C11.7018 48.3683 11.9484 48.1217 12.2401 48.1217H16.0851C16.5251 48.1217 16.9101 47.8267 17.0251 47.4025C17.5543 45.4458 18.3368 43.5592 19.3509 41.795C19.5701 41.4133 19.5059 40.9325 19.1951 40.6208L16.4742 37.9C16.2676 37.6933 16.2676 37.345 16.4742 37.1383L23.5059 30.1067C23.7126 29.9 24.0609 29.9 24.2676 30.1067L26.9884 32.8275C27.2992 33.1392 27.7809 33.2025 28.1626 32.9833C29.9276 31.9692 31.8134 31.1867 33.7701 30.6583C34.1951 30.5433 34.4901 30.1583 34.4901 29.7183V25.8725C34.4901 25.5808 34.7368 25.3342 35.0284 25.3342H44.9734C45.2651 25.3342 45.5117 25.5808 45.5117 25.8725V29.7183C45.5117 30.1583 45.8068 30.5433 46.2318 30.6583C48.1868 31.1875 50.0734 31.9692 51.8384 32.9842C52.2201 33.2033 52.7009 33.1392 53.0126 32.8283L55.7342 30.1067C55.9409 29.9 56.2892 29.9 56.4959 30.1067L63.5276 37.1383C63.7342 37.345 63.7342 37.6933 63.5276 37.9L60.8076 40.62C60.4959 40.9308 60.4326 41.4125 60.6517 41.7942C61.6651 43.5575 62.4476 45.4442 62.9776 47.4025C63.0926 47.8275 63.4776 48.1217 63.9176 48.1217H67.7617C68.0534 48.1217 68.3001 48.3683 68.3001 48.66L68.2992 58.605Z" fill="#393939"/>
</svg>
