<svg width="80" height="80" viewBox="0 0 80 80" fill="none" xmlns="http://www.w3.org/2000/svg">
<g clip-path="url(#clip0_1512_3045)">
<path d="M6.66667 63.3333C6.66667 50.3333 17 40 30 40C38.3333 40 46 44.3333 50.3333 51.6667L56 48.3333C52.6667 42.6667 47.6667 38.3333 42 36C47 32.3333 50 26.3333 50 20C50 9 41 0 30 0C19 0 10 9 10 20C10 26.3333 13 32.3333 18 36C7.33333 40.6667 0 51 0 63.3333V80H40V73.3333H6.66667V63.3333ZM16.6667 20C16.6667 12.6667 22.6667 6.66667 30 6.66667C37.3333 6.66667 43.3333 12.6667 43.3333 20C43.3333 27.3333 37.3333 33.3333 30 33.3333C22.6667 33.3333 16.6667 27.3333 16.6667 20Z" fill="#393939"/>
<path d="M80.334 52.6667L55.0007 78L39.334 62.3333L44.0006 57.6667L55.0007 68.6667L75.6673 48L80.334 52.6667Z" fill="#393939"/>
</g>
<defs>
<clipPath id="clip0_1512_3045">
<rect width="80" height="80" fill="white"/>
</clipPath>
</defs>
</svg>
