<svg width="80" height="80" viewBox="0 0 80 80" fill="none" xmlns="http://www.w3.org/2000/svg">
<path d="M18.1163 12.6877C6.67375 24.1314 4.885 41.6302 12.7513 54.9652L5.04375 62.6739C3.40375 64.3139 2.5 66.4952 2.5 68.8139C2.5 71.1327 3.40375 73.3164 5.04375 74.9552C6.68375 76.5952 8.865 77.4989 11.185 77.4989C13.505 77.4989 15.6862 76.5952 17.325 74.9552L25.0288 67.2514C30.3288 70.3914 36.3912 72.0702 42.7125 72.0702C52.005 72.0702 60.74 68.4502 67.31 61.8814C73.88 55.3127 77.4987 46.5764 77.4987 37.2839C77.4987 27.9914 73.88 19.2564 67.31 12.6864C53.75 -0.872304 31.6825 -0.874805 18.1163 12.6877ZM15.5575 73.1877C14.3888 74.3564 12.8363 74.9989 11.185 74.9989C9.53375 74.9989 7.98 74.3552 6.81125 73.1877C5.6425 72.0202 5 70.4664 5 68.8139C5 67.1614 5.64375 65.6102 6.81125 64.4414L14.14 57.1114C15.3038 58.7877 16.6225 60.3889 18.1163 61.8814C19.5987 63.3652 21.1975 64.6889 22.8825 65.8639L15.5575 73.1877ZM65.5425 60.1139C59.445 66.2127 51.3375 69.5702 42.7125 69.5702C34.0875 69.5702 25.9813 66.2114 19.8825 60.1139C7.295 47.5264 7.295 27.0439 19.8825 14.4552C26.1775 8.16145 34.4437 5.01395 42.7125 5.01395C50.9812 5.01395 59.2487 8.1627 65.5425 14.4552C71.6413 20.5539 74.9987 28.6614 74.9987 37.2852C74.9987 45.9089 71.64 54.0164 65.5425 60.1139Z" fill="#393939"/>
<path d="M23.8419 18.4149C13.4381 28.8199 13.4381 45.7499 23.8419 56.1536C28.8819 61.1936 35.5844 63.9699 42.7119 63.9699C49.8394 63.9699 56.5406 61.1936 61.5819 56.1536C66.6231 51.1136 69.3981 44.4111 69.3981 37.2836C69.3981 30.1561 66.6219 23.4549 61.5819 18.4136C51.1806 8.00986 34.2494 8.00736 23.8431 18.4136L23.8419 18.4149ZM59.8131 54.3861C55.2456 58.9536 49.1719 61.4699 42.7106 61.4699C36.2494 61.4699 30.1781 58.9536 25.6081 54.3861C16.1781 44.9561 16.1781 29.6136 25.6081 20.1824C30.3231 15.4674 36.5169 13.1111 42.7106 13.1111C48.9044 13.1111 55.0981 15.4686 59.8131 20.1824C64.3806 24.7511 66.8969 30.8249 66.8969 37.2849C66.8969 43.7449 64.3806 49.8174 59.8131 54.3861Z" fill="#393939"/>
<path d="M42.7133 18.0239C37.7645 18.0239 33.7383 22.0514 33.7383 27.0002C33.7383 31.4964 40.8445 42.9489 41.6545 44.2389C41.8833 44.6039 42.2833 44.8252 42.7133 44.8252C43.1433 44.8252 43.5433 44.6039 43.772 44.2389C44.582 42.9489 51.6895 31.4964 51.6895 27.0002C51.6895 22.0514 47.662 18.0239 42.7133 18.0239ZM42.7133 41.1752C40.2533 37.0564 36.2383 29.7527 36.2383 26.9989C36.2383 23.4289 39.142 20.5227 42.7133 20.5227C46.2845 20.5227 49.1895 23.4277 49.1895 26.9989C49.1895 29.7514 45.1733 37.0552 42.7133 41.1752Z" fill="#393939"/>
<path d="M42.7134 46.2925C39.8859 46.2925 37.5859 48.5925 37.5859 51.42C37.5859 54.2475 39.8859 56.5475 42.7134 56.5475C45.5409 56.5475 47.8409 54.2475 47.8409 51.42C47.8409 48.5925 45.5409 46.2925 42.7134 46.2925ZM42.7134 54.0462C41.2647 54.0462 40.0859 52.8687 40.0859 51.4187C40.0859 49.9687 41.2634 48.7912 42.7134 48.7912C44.1634 48.7912 45.3409 49.9687 45.3409 51.4187C45.3409 52.8687 44.1634 54.0462 42.7134 54.0462Z" fill="#393939"/>
</svg>
