<svg width="45" height="45" viewBox="0 0 45 45" fill="none" xmlns="http://www.w3.org/2000/svg">
<path d="M39.9334 31.1909L28.0319 7.80558C26.9487 5.67708 24.8292 4.35486 22.5006 4.35486C20.1721 4.35486 18.0527 5.67708 16.9693 7.80558L5.06793 31.1909C4.05617 33.179 4.12633 35.6077 5.25079 37.5288C6.37501 39.451 8.42446 40.6452 10.5992 40.6452H34.4023C36.5767 40.6452 38.6261 39.4511 39.7504 37.5293C40.8749 35.6077 40.9451 33.179 39.9334 31.1909ZM36.6387 35.5879C36.1684 36.3918 35.3114 36.8911 34.4021 36.8911H10.5991C9.68961 36.8911 8.83273 36.3918 8.36241 35.5875C7.89222 34.7843 7.86302 33.7688 8.28607 32.9375L20.1876 9.5519C20.6405 8.66191 21.5269 8.10892 22.5006 8.10892C23.4743 8.10892 24.3608 8.66178 24.8136 9.5519L36.7152 32.9375C37.1382 33.7688 37.109 34.7843 36.6387 35.5879Z" fill="url(#paint0_linear_1445_3765)"/>
<path d="M21.8101 28.9687H23.1906L24.5377 14.6858H20.4629L21.8101 28.9687Z" fill="url(#paint1_linear_1445_3765)"/>
<path d="M22.4986 30.2948C21.4104 30.2948 20.5293 31.2048 20.5293 32.3286C20.5293 33.4512 21.4104 34.3622 22.4986 34.3622C23.5868 34.3622 24.468 33.4512 24.468 32.3286C24.468 31.2049 23.5869 30.2948 22.4986 30.2948Z" fill="url(#paint2_linear_1445_3765)"/>
<defs>
<linearGradient id="paint0_linear_1445_3765" x1="22.5006" y1="4.35486" x2="22.5006" y2="40.6452" gradientUnits="userSpaceOnUse">
<stop stop-color="#4B9ADB"/>
<stop offset="1" stop-color="#9747FF"/>
</linearGradient>
<linearGradient id="paint1_linear_1445_3765" x1="22.5003" y1="14.6858" x2="22.5003" y2="28.9687" gradientUnits="userSpaceOnUse">
<stop stop-color="#4B9ADB"/>
<stop offset="1" stop-color="#9747FF"/>
</linearGradient>
<linearGradient id="paint2_linear_1445_3765" x1="22.4986" y1="30.2948" x2="22.4986" y2="34.3622" gradientUnits="userSpaceOnUse">
<stop stop-color="#4B9ADB"/>
<stop offset="1" stop-color="#9747FF"/>
</linearGradient>
</defs>
</svg>
