<svg width="80" height="80" viewBox="0 0 80 80" fill="none" xmlns="http://www.w3.org/2000/svg">
<path d="M73.0222 35.4523C75.0322 35.2812 76.5405 33.5077 76.1793 31.523C74.817 24.039 71.2555 17.098 65.91 11.609C59.7118 5.2444 51.4985 1.22586 42.6695 0.238091C33.8406 -0.749682 24.9422 1.35442 17.4907 6.1919C10.0392 11.0294 4.49554 18.3009 1.8043 26.7675C-0.886937 35.2341 -0.559236 44.3719 2.73157 52.624C6.02237 60.8761 12.0727 67.7319 19.8516 72.0231C27.6304 76.3144 36.6566 77.7757 45.3922 76.1581C52.9259 74.7629 59.8414 71.1522 65.2748 65.8282C66.7157 64.4164 66.5082 62.0975 64.9659 60.7972C63.4236 59.497 61.1325 59.7118 59.6605 61.0911C55.3403 65.139 49.9329 67.8878 44.062 68.975C36.9883 70.2849 29.6792 69.1016 23.3802 65.6267C17.0811 62.1518 12.1818 56.6003 9.51708 49.9181C6.85231 43.2359 6.58695 35.8364 8.76621 28.9805C10.9455 22.1245 15.4345 16.2363 21.4685 12.3191C27.5024 8.40192 34.7079 6.6981 41.8573 7.49796C49.0066 8.29782 55.6575 11.5519 60.6766 16.7057C64.8423 20.9832 67.67 26.3497 68.8601 32.1491C69.2656 34.1252 71.0122 35.6234 73.0222 35.4523Z" fill="#393939"/>
<circle cx="42.6175" cy="40.5544" r="3.90856" fill="#393939"/>
<rect x="40.8965" y="21.6371" width="3.43954" height="17.1977" rx="1.71977" fill="#393939"/>
<rect x="18.0723" y="42.2742" width="3.43954" height="23.4514" rx="1.71977" transform="rotate(-90 18.0723 42.2742)" fill="#393939"/>
<path d="M75.8516 42.0164V61.6004H78.8105L73.6396 69.7244L68.6611 61.6004H71.6445V42.0164H75.8516Z" fill="#393939" stroke="#393939" stroke-width="1.30774"/>
</svg>
