<svg width="80" height="80" viewBox="0 0 80 80" fill="none" xmlns="http://www.w3.org/2000/svg">
<path d="M26.0774 39.7168C23.3232 39.7168 20.631 40.5335 18.341 42.0636C16.0511 43.5937 14.2663 45.7685 13.2123 48.3129C12.1584 50.8574 11.8826 53.6572 12.4199 56.3584C12.9572 59.0596 14.2834 61.5408 16.2309 63.4883C18.1783 65.4357 20.6595 66.7619 23.3607 67.2992C26.0619 67.8365 28.8618 67.5608 31.4062 66.5068C33.9507 65.4529 36.1255 63.6681 37.6556 61.3781C39.1857 59.0882 40.0023 56.3959 40.0023 53.6418C39.9979 49.95 38.5294 46.4107 35.9189 43.8002C33.3085 41.1897 29.7691 39.7212 26.0774 39.7168ZM35.469 61.4918L33.6107 59.6335C33.4545 59.4783 33.2433 59.3911 33.0232 59.3911C32.803 59.3911 32.5918 59.4783 32.4357 59.6335C32.3576 59.7109 32.2956 59.8031 32.2533 59.9046C32.211 60.0062 32.1892 60.1151 32.1892 60.2251C32.1892 60.3351 32.211 60.4441 32.2533 60.5456C32.2956 60.6472 32.3576 60.7393 32.4357 60.8168L34.3107 62.6918C32.2647 64.5473 29.6503 65.6548 26.894 65.8335C26.894 65.8335 26.894 65.8335 26.894 65.7668V63.1001C26.894 62.8791 26.8062 62.6672 26.6499 62.5109C26.4937 62.3546 26.2817 62.2668 26.0607 62.2668C25.8397 62.2668 25.6277 62.3546 25.4714 62.5109C25.3151 62.6672 25.2274 62.8791 25.2274 63.1001V65.7835C25.2274 65.7835 25.2274 65.7835 25.2274 65.8501C22.4714 65.6669 19.8594 64.5534 17.819 62.6918L19.719 60.8335C19.7971 60.756 19.8591 60.6638 19.9014 60.5623C19.9437 60.4607 19.9655 60.3518 19.9655 60.2418C19.9655 60.1318 19.9437 60.0229 19.9014 59.9213C19.8591 59.8198 19.7971 59.7276 19.719 59.6501C19.5629 59.4949 19.3517 59.4078 19.1315 59.4078C18.9114 59.4078 18.7002 59.4949 18.544 59.6501L16.669 61.4918C14.9257 59.416 13.9256 56.8174 13.8274 54.1085H16.2523C16.4734 54.1085 16.6853 54.0207 16.8416 53.8644C16.9979 53.7081 17.0857 53.4961 17.0857 53.2751C17.0857 53.0541 16.9979 52.8422 16.8416 52.6859C16.6853 52.5296 16.4734 52.4418 16.2523 52.4418H13.8773C14.1399 49.8186 15.245 47.351 17.0273 45.4085L18.544 46.9168C18.6979 47.0738 18.9075 47.1637 19.1274 47.1668C19.2929 47.1678 19.4549 47.1194 19.5929 47.0279C19.7308 46.9364 19.8384 46.8059 19.9018 46.653C19.9653 46.5002 19.9818 46.3319 19.9492 46.1696C19.9167 46.0073 19.8365 45.8584 19.719 45.7418L18.219 44.2418C20.2032 42.5824 22.6631 41.5961 25.244 41.4251V43.4501C25.244 43.6711 25.3318 43.8831 25.4881 44.0394C25.6444 44.1957 25.8563 44.2835 26.0774 44.2835C26.2984 44.2835 26.5103 44.1957 26.6666 44.0394C26.8229 43.8831 26.9107 43.6711 26.9107 43.4501V41.4251C29.4891 41.5961 31.9464 42.5826 33.9273 44.2418L32.4357 45.7418C32.2805 45.8979 32.1934 46.1091 32.1934 46.3293C32.1934 46.5495 32.2805 46.7607 32.4357 46.9168C32.5918 47.072 32.803 47.1591 33.0232 47.1591C33.2433 47.1591 33.4545 47.072 33.6107 46.9168L35.1274 45.4085C36.9107 47.3494 38.0136 49.8183 38.269 52.4418H35.9024C35.6813 52.4418 35.4694 52.5296 35.3131 52.6859C35.1568 52.8422 35.069 53.0541 35.069 53.2751C35.069 53.4961 35.1568 53.7081 35.3131 53.8644C35.4694 54.0207 35.6813 54.1085 35.9024 54.1085H38.3357C38.2304 56.8204 37.2213 59.4193 35.469 61.4918Z" fill="#393939"/>
<path d="M30.3006 55.1497L27.1339 53.1831C27.0633 53.1414 27.0052 53.0815 26.9656 53.0097C26.926 52.9378 26.9065 52.8567 26.9089 52.7747V48.6497C26.9089 48.4287 26.8211 48.2168 26.6648 48.0605C26.5086 47.9042 26.2966 47.8164 26.0756 47.8164C25.8546 47.8164 25.6426 47.9042 25.4863 48.0605C25.33 48.2168 25.2423 48.4287 25.2423 48.6497V52.7747C25.2394 53.1409 25.3316 53.5015 25.5098 53.8214C25.6879 54.1413 25.9461 54.4095 26.2589 54.5997L29.4173 56.5664C29.5499 56.6486 29.7029 56.6919 29.8589 56.6914C30.0404 56.692 30.2171 56.6333 30.3621 56.5244C30.5072 56.4154 30.6127 56.262 30.6627 56.0876C30.7127 55.9131 30.7044 55.7272 30.639 55.5579C30.5736 55.3886 30.4548 55.2453 30.3006 55.1497Z" fill="#393939"/>
<path d="M17.1426 33.0332C17.2523 33.0339 17.361 33.0129 17.4625 32.9714C17.564 32.9299 17.6564 32.8688 17.7343 32.7916L26.5093 24.0582L29.8426 27.3916C29.9981 27.5529 30.1845 27.6812 30.3906 27.7688C30.5968 27.8564 30.8186 27.9016 31.0426 27.9016C31.2666 27.9016 31.4884 27.8564 31.6945 27.7688C31.9007 27.6812 32.0871 27.5529 32.2426 27.3916L41.4093 18.2249V20.5582C41.4093 20.7793 41.4971 20.9912 41.6533 21.1475C41.8096 21.3038 42.0216 21.3916 42.2426 21.3916C42.4636 21.3916 42.6756 21.3038 42.8318 21.1475C42.9881 20.9912 43.0759 20.7793 43.0759 20.5582V17.1916C43.0759 16.7495 42.9003 16.3256 42.5878 16.0131C42.2752 15.7005 41.8513 15.5249 41.4093 15.5249H37.3676C37.1466 15.5249 36.9346 15.6127 36.7783 15.769C36.6221 15.9253 36.5343 16.1372 36.5343 16.3582C36.5343 16.5792 36.6221 16.7912 36.7783 16.9475C36.9346 17.1038 37.1466 17.1916 37.3676 17.1916H40.0926L31.0176 26.2166L27.6843 22.8832C27.5288 22.7219 27.3424 22.5936 27.1362 22.506C26.93 22.4184 26.7083 22.3732 26.4843 22.3732C26.2602 22.3732 26.0385 22.4184 25.8323 22.506C25.6261 22.5936 25.4397 22.7219 25.2843 22.8832L16.5509 31.6166C16.3957 31.7727 16.3086 31.9839 16.3086 32.2041C16.3086 32.4242 16.3957 32.6354 16.5509 32.7916C16.6288 32.8688 16.7211 32.9299 16.8227 32.9714C16.9242 33.0129 17.0329 33.0339 17.1426 33.0332Z" fill="#393939"/>
<path d="M62.5008 18.8834H60.5008C60.2798 18.8834 60.0678 18.9712 59.9116 19.1275C59.7553 19.2838 59.6675 19.4957 59.6675 19.7167C59.6675 19.9377 59.7553 20.1497 59.9116 20.306C60.0678 20.4623 60.2798 20.5501 60.5008 20.5501H61.4508V21.4501C61.4508 21.6711 61.5386 21.883 61.6949 22.0393C61.8512 22.1956 62.0631 22.2834 62.2841 22.2834C62.5052 22.2834 62.7171 22.1956 62.8734 22.0393C63.0297 21.883 63.1175 21.6711 63.1175 21.4501V20.4584C63.6836 20.3058 64.1749 19.9525 64.4999 19.4645C64.8249 18.9764 64.9613 18.3869 64.8838 17.8057C64.8063 17.2245 64.5202 16.6913 64.0787 16.3054C63.6372 15.9196 63.0705 15.7074 62.4842 15.7084H62.0841C61.979 15.7065 61.8754 15.683 61.7797 15.6394C61.6841 15.5957 61.5984 15.5329 61.528 15.4547C61.4577 15.3766 61.4042 15.2848 61.3708 15.1851C61.3375 15.0853 61.325 14.9798 61.3341 14.8751C61.333 14.7759 61.3516 14.6775 61.3888 14.5855C61.426 14.4935 61.4811 14.4099 61.5508 14.3393C61.6206 14.2688 61.7037 14.2128 61.7952 14.1746C61.8867 14.1364 61.985 14.1167 62.0841 14.1167H64.0758C64.2968 14.1167 64.5088 14.0289 64.6651 13.8727C64.8214 13.7164 64.9091 13.5044 64.9091 13.2834C64.9091 13.0624 64.8214 12.8504 64.6651 12.6941C64.5088 12.5379 64.2968 12.4501 64.0758 12.4501H63.1175V11.5667C63.1175 11.3457 63.0297 11.1338 62.8734 10.9775C62.7171 10.8212 62.5052 10.7334 62.2841 10.7334C62.0631 10.7334 61.8512 10.8212 61.6949 10.9775C61.5386 11.1338 61.4508 11.3457 61.4508 11.5667V12.5667C60.8836 12.7262 60.3929 13.0848 60.0686 13.5768C59.7443 14.0687 59.6081 14.661 59.685 15.2452C59.762 15.8294 60.0469 16.3662 60.4875 16.7574C60.9281 17.1486 61.495 17.3679 62.0841 17.3751H62.5008C62.6065 17.3639 62.7134 17.3752 62.8145 17.408C62.9155 17.4408 63.0086 17.4945 63.0876 17.5656C63.1666 17.6368 63.2297 17.7237 63.273 17.8208C63.3162 17.9179 63.3385 18.0229 63.3385 18.1292C63.3385 18.2355 63.3162 18.3406 63.273 18.4377C63.2297 18.5348 63.1666 18.6217 63.0876 18.6928C63.0086 18.7639 62.9155 18.8176 62.8145 18.8505C62.7134 18.8833 62.6065 18.8945 62.5008 18.8834Z" fill="#393939"/>
<path d="M72.4352 64.2749C72.2142 64.2749 72.0022 64.3627 71.846 64.519C71.6897 64.6753 71.6019 64.8873 71.6019 65.1083V65.6166H69.7685V44.0666C69.7685 43.6246 69.593 43.2006 69.2804 42.8881C68.9678 42.5755 68.5439 42.3999 68.1019 42.3999H59.6269V25.6083C60.4894 25.8665 61.3848 25.9984 62.2852 25.9999C63.8974 26.0011 65.4833 25.5916 66.8934 24.8101C68.3035 24.0286 69.4913 22.9008 70.3447 21.5331C71.1982 20.1653 71.6892 18.6027 71.7715 16.9926C71.8538 15.3826 71.5246 13.7781 70.815 12.3304C70.1054 10.8828 69.0387 9.63983 67.7156 8.71865C66.3925 7.79747 64.8566 7.22847 63.2527 7.06533C61.6488 6.90218 60.0298 7.15026 58.5483 7.78617C57.0669 8.42208 55.7718 9.42486 54.7852 10.6999H47.8602C47.4182 10.6999 46.9943 10.8755 46.6817 11.1881C46.3691 11.5007 46.1935 11.9246 46.1935 12.3666V26.9083H39.5602C39.1182 26.9083 38.6943 27.0839 38.3817 27.3964C38.0691 27.709 37.8935 28.1329 37.8935 28.5749V38.3333C34.9454 36.0627 31.4049 34.6908 27.6965 34.382C23.9882 34.0732 20.2695 34.8408 16.9865 36.5925C13.7034 38.3443 10.9954 41.0059 9.18715 44.2582C7.37891 47.5105 6.54722 51.2153 6.79185 54.9285C7.03647 58.6416 8.34701 62.2053 10.5663 65.1922C12.7856 68.1792 15.8194 70.4625 19.3039 71.7685C22.7884 73.0744 26.5756 73.3474 30.2114 72.5548C33.8471 71.7622 37.1771 69.9377 39.8019 67.2999H71.6352V67.8083C71.6352 68.0293 71.723 68.2412 71.8793 68.3975C72.0356 68.5538 72.2475 68.6416 72.4685 68.6416C72.6896 68.6416 72.9015 68.5538 73.0578 68.3975C73.2141 68.2412 73.3019 68.0293 73.3019 67.8083V65.1083C73.302 64.996 73.2794 64.8848 73.2354 64.7815C73.1915 64.6781 73.1271 64.5847 73.0461 64.5069C72.9652 64.4291 72.8693 64.3684 72.7644 64.3285C72.6594 64.2887 72.5474 64.2704 72.4352 64.2749ZM68.1019 44.0666V65.6166H59.6269V44.0416L68.1019 44.0666ZM62.2685 8.68327C63.8162 8.68327 65.3291 9.1422 66.6159 10.002C67.9027 10.8618 68.9056 12.0839 69.4979 13.5138C70.0902 14.9436 70.2451 16.5169 69.9432 18.0349C69.6413 19.5528 68.896 20.947 67.8017 22.0414C66.7073 23.1357 65.313 23.881 63.7951 24.1829C62.2772 24.4848 60.7039 24.3299 59.274 23.7376C57.8442 23.1454 56.6221 22.1424 55.7623 20.8556C54.9025 19.5688 54.4435 18.0559 54.4435 16.5083C54.4446 15.4796 54.6483 14.4612 55.043 13.5112C55.4377 12.5612 56.0156 11.6983 56.7438 10.9717C57.4719 10.2451 58.3361 9.66901 59.2869 9.27636C60.2377 8.88371 61.2565 8.68217 62.2852 8.68327H62.2685ZM47.8602 12.3666H53.7519C52.6599 14.5879 52.4848 17.1495 53.2642 19.4988C54.0437 21.8481 55.7153 23.7969 57.9185 24.9249V65.6166H51.2519V28.5999C51.2519 28.1579 51.0763 27.734 50.7637 27.4214C50.4512 27.1089 50.0272 26.9333 49.5852 26.9333H47.8352L47.8602 12.3666ZM26.0769 71.3166C22.5787 71.3183 19.1587 70.2823 16.2494 68.3399C13.3401 66.3975 11.0723 63.6358 9.73287 60.4042C8.39343 57.1727 8.04254 53.6165 8.72459 50.1855C9.40664 46.7545 11.091 43.6028 13.5645 41.1293C16.0381 38.6557 19.1897 36.9714 22.6207 36.2893C26.0518 35.6073 29.608 35.9582 32.8395 37.2976C36.0711 38.637 38.8327 40.9048 40.7752 43.8141C42.7176 46.7234 43.7535 50.1435 43.7519 53.6416C43.7475 58.3279 41.8839 62.8211 38.5701 66.1348C35.2564 69.4486 30.7632 71.3122 26.0769 71.3166ZM45.4185 53.6416C45.4246 51.0574 44.9113 48.4983 43.9092 46.1162C42.9072 43.7342 41.4367 41.5778 39.5852 39.7749V28.5749H49.6769V65.6166H41.2435C43.9479 62.2111 45.4194 57.9903 45.4185 53.6416Z" fill="#393939"/>
</svg>
