<svg width="80" height="80" viewBox="0 0 80 80" fill="none" xmlns="http://www.w3.org/2000/svg">
<g clip-path="url(#clip0_1808_4626)">
<path fill-rule="evenodd" clip-rule="evenodd" d="M24.1359 15.7001H10.9197C9.13884 15.7001 9.13884 12.9818 10.9197 12.9818H24.1359C25.9168 12.9818 25.9168 15.7001 24.1359 15.7001ZM78.6409 80H10.7323C4.82718 80 0 75.1728 0 69.2209C0 63.3158 4.82718 58.4886 10.7323 58.4886H78.594C80.4218 58.4886 80.4218 61.2068 78.594 61.2068C73.345 61.2068 69.3146 66.0808 70.9549 71.7047C71.8922 74.8448 75.0791 77.2818 78.6409 77.2818C80.4218 77.2818 80.4218 80 78.6409 80ZM10.7323 61.2068C6.32689 61.2068 2.71822 64.7686 2.71822 69.2209C2.71822 73.6731 6.32689 77.2818 10.7323 77.2818H71.4704C70.2988 76.2039 69.3615 74.8916 68.7053 73.4388H27.2759C25.495 73.4388 25.495 70.7206 27.2759 70.7206H67.9555V67.768H27.2759C25.495 67.768 25.495 65.0498 27.2759 65.0498H68.7053C69.3615 63.5501 70.2988 62.2378 71.4704 61.2068H10.7323ZM78.594 55.7235H1.35911C0.609256 55.7235 0 55.1142 0 54.3644V40.5858C0 38.8987 1.96837 39.2267 3.23374 39.2267V1.35911C3.23374 0.609256 3.843 0 4.59285 0H75.3603C76.1101 0 76.7194 0.609256 76.7194 1.35911V39.2267C77.9848 39.2267 79.9531 38.8987 79.9531 40.5858V54.3644C79.9531 55.1142 79.3439 55.7235 78.594 55.7235ZM2.71822 53.0053H77.2349V41.9449H52.2086V47.4751C52.2086 48.225 51.5993 48.8342 50.8494 48.8342H29.1037C28.3538 48.8342 27.7446 48.225 27.7446 47.4751V41.9449H2.71822V53.0053ZM5.95196 39.2267H74.0012V2.71822H5.95196V39.2267ZM30.4628 46.116H49.4903V41.9449H30.4628V46.116ZM21.6052 35.3368C20.8553 35.3368 20.246 34.7276 20.246 33.9777V29.8067C20.246 28.0258 22.9643 28.0258 22.9643 29.8067V33.9777C22.9643 34.7276 22.355 35.3368 21.6052 35.3368ZM29.2443 34.7745C28.7756 34.7745 28.3538 34.5401 28.0726 34.0715L26.0105 30.4628C25.1201 28.9162 27.4634 27.5571 28.3538 29.1506L30.4159 32.7124C30.9783 33.6497 30.2753 34.7745 29.2443 34.7745ZM13.9192 34.7745C12.8881 34.7745 12.232 33.6497 12.7475 32.7124L14.8096 29.1506C15.7001 27.5571 18.0902 28.9162 17.1998 30.4628L15.0908 34.0715C14.8565 34.5401 14.3878 34.7745 13.9192 34.7745ZM51.4118 13.0756C50.662 13.0756 50.0527 12.4663 50.0527 11.7165V7.59227C50.0527 5.7645 52.7709 5.7645 52.7709 7.59227V11.7165C52.7709 12.4663 52.1617 13.0756 51.4118 13.0756ZM56.9889 13.0756C55.9578 13.0756 55.3017 11.9508 55.8172 11.0603L57.8793 7.45167C58.7698 5.9051 61.1599 7.26421 60.2226 8.81078L58.1605 12.4194C57.9262 12.8412 57.4575 13.0756 56.9889 13.0756ZM45.8348 13.0756C45.3661 13.0756 44.8975 12.8412 44.6163 12.4194L42.5542 8.81078C41.6637 7.26421 44.007 5.9051 44.8975 7.45167L47.0064 11.0603C47.522 11.9508 46.8658 13.0756 45.8348 13.0756ZM43.3978 33.9777C42.7417 33.9777 42.2261 33.5559 42.0855 32.9467L37.5864 14.2004L32.8061 26.7604C32.478 27.6509 31.3064 27.932 30.6034 27.2759L24.6514 21.6989H15.9813C14.2004 21.6989 14.2004 18.9807 15.9813 18.9807H25.167C25.5419 18.9807 25.8699 19.1213 26.1043 19.3556L30.9783 23.9016L36.6491 9.13884C37.1178 7.87346 38.8987 8.01406 39.2267 9.27944L43.5852 27.6977L47.3814 16.403C47.6626 15.4657 48.8811 15.1845 49.6309 15.8875L54.6924 20.949H60.4101C61.0193 18.8401 62.9877 17.2466 65.331 17.2466C68.0961 17.2466 70.3925 19.5431 70.3925 22.3081C70.3925 25.1201 68.0961 27.4165 65.331 27.4165C62.9877 27.4165 61.0193 25.8231 60.4101 23.6673H54.1301C53.7551 23.6673 53.4271 23.5267 53.1927 23.2923L49.256 19.3556L44.6632 33.0873C44.4757 33.6028 43.9602 33.9777 43.3978 33.9777ZM65.331 19.9649C62.191 19.9649 62.191 24.6983 65.331 24.6983C68.4241 24.6983 68.4241 19.9649 65.331 19.9649ZM20.1992 10.6854H10.9197C9.13884 10.6854 9.13884 7.96719 10.9197 7.96719H20.1992C21.9801 7.96719 21.9801 10.6854 20.1992 10.6854Z" fill="url(#paint0_linear_1808_4626)"/>
</g>
<defs>
<linearGradient id="paint0_linear_1808_4626" x1="39.9883" y1="0" x2="39.9883" y2="80" gradientUnits="userSpaceOnUse">
<stop stop-color="#9747FF"/>
<stop offset="1" stop-color="#4B9ADB"/>
</linearGradient>
<clipPath id="clip0_1808_4626">
<rect width="80" height="80" fill="white"/>
</clipPath>
</defs>
</svg>
