<svg width="24" height="24" viewBox="0 0 24 24" fill="none" xmlns="http://www.w3.org/2000/svg">
<g clip-path="url(#clip0_1525_2488)">
<path d="M8.32789 10.9218H0V22.169H6.7788H14.3314V7.07855H8.32789V10.9218ZM2.54283 15.8448H1.15252V14.4545H2.54283V15.8448ZM2.54283 13.7435H1.15252V12.3532H2.54283V13.7435ZM4.64494 15.8448H3.25386V14.4545H4.64494V15.8448ZM4.64494 13.7435H3.25386V12.3532H4.64494V13.7435ZM6.80978 15.8448H5.41948V14.4545H6.80978V15.8448ZM6.80978 13.7435H5.41948V12.3532H6.80978V13.7435ZM8.91189 15.8448H7.52082V14.4545H8.91189V15.8448ZM11.7878 8.08701H13.1789V9.47809H11.7878V8.08701ZM11.7878 10.1883H13.1789V11.5786H11.7878V10.1883ZM11.7878 12.3532H13.1789V13.7435H11.7878V12.3532ZM11.7878 14.4545H13.1789V15.8448H11.7878V14.4545ZM9.68644 8.08701H11.0767V9.47809H9.68644V8.08701ZM9.68644 10.1883H11.0767V11.5786H9.68644V10.1883ZM9.68644 12.3532H11.0767V13.7435H9.68644V12.3532ZM9.68644 14.4545H11.0767V15.8448H9.68644V14.4545ZM8.91189 13.7435H7.52082V12.3532H8.91189V13.7435Z" fill="#9747FF"/>
<path d="M16.3362 7.07855L15.0977 22.169H18.9704L17.7327 7.07855H16.3362Z" fill="#9747FF"/>
<path d="M16.3359 6.78107H17.7324V6.30396H17.0338H16.3359V6.78107Z" fill="#9747FF"/>
<path d="M23.1081 3.02302C23.2297 1.81241 21.391 1.26791 20.3756 2.63497C19.7946 1.22066 17.3254 2.0347 17.7344 3.25383C16.0675 3.59308 16.3363 5.38383 17.0357 6.30399C17.0357 5.52944 17.3339 4.90129 18.416 4.84552C18.6328 5.62626 19.6359 5.90742 20.3453 5.44812C20.7342 5.84003 22.0215 6.06155 22.5931 5.31877C24.4892 5.96474 24.27 3.45909 23.1081 3.02302Z" fill="#9747FF"/>
</g>
<defs>
<clipPath id="clip0_1525_2488">
<rect width="24" height="24" fill="white"/>
</clipPath>
</defs>
</svg>
