<svg width="80" height="80" viewBox="0 0 80 80" fill="none" xmlns="http://www.w3.org/2000/svg">
<path d="M46.25 63.75C46.25 60.3038 43.4462 57.5 40 57.5C36.5538 57.5 33.75 60.3038 33.75 63.75C33.75 67.1962 36.5538 70 40 70C43.4462 70 46.25 67.1962 46.25 63.75ZM36.25 63.75C36.25 61.6825 37.9325 60 40 60C42.0675 60 43.75 61.6825 43.75 63.75C43.75 65.8175 42.0675 67.5 40 67.5C37.9325 67.5 36.25 65.8175 36.25 63.75Z" fill="url(#paint0_linear_1808_4629)"/>
<path d="M37.5 77.5H42.5C43.19 77.5 43.75 76.94 43.75 76.25L43.805 74.3275C44.14 74.2063 44.4675 74.0713 44.84 73.8938L46.1863 75.24C46.675 75.7288 47.465 75.7288 47.9537 75.24L51.49 71.7037C51.9788 71.215 51.9788 70.425 51.49 69.9363L50.17 68.5362C50.32 68.2162 50.4562 67.8888 50.5937 67.4988H52.5C53.19 67.4988 53.75 66.9388 53.75 66.2488V61.2488C53.75 60.5588 53.19 59.9988 52.5 59.9988L50.5775 59.9438C50.4563 59.6088 50.3213 59.2812 50.1438 58.9087L51.49 57.5625C51.9788 57.0737 51.9788 56.2838 51.49 55.795L47.9537 52.2587C47.465 51.77 46.675 51.77 46.1863 52.2587L44.7862 53.5787C44.4662 53.4287 44.1388 53.2925 43.7488 53.155V51.25C43.7488 50.56 43.1888 50 42.4988 50H37.4988C36.8088 50 36.2488 50.56 36.2488 51.25L36.1938 53.1725C35.8588 53.2937 35.5313 53.4287 35.1588 53.6062L33.8125 52.26C33.3237 51.7712 32.5337 51.7712 32.045 52.26L28.5087 55.7963C28.02 56.285 28.02 57.075 28.5087 57.5637L29.8288 58.9638C29.6788 59.2838 29.5425 59.6112 29.405 60.0012H27.5C26.81 60.0012 26.25 60.5612 26.25 61.2512V66.2512C26.25 66.9412 26.81 67.5012 27.5 67.5012L29.4225 67.5562C29.5438 67.8912 29.6788 68.2188 29.8563 68.5913L28.51 69.9375C28.0213 70.4263 28.0213 71.2162 28.51 71.705L32.0462 75.2413C32.535 75.73 33.325 75.73 33.8138 75.2413L35.2137 73.9213C35.5337 74.0713 35.8612 74.2075 36.2512 74.345V76.25C36.25 76.94 36.81 77.5 37.5 77.5ZM33.3912 72.1263L32.9288 72.5887L31.16 70.82L31.6225 70.3575C32.3775 69.6037 32.5613 68.4713 32.0913 67.4725C31.9738 67.2238 31.8675 66.9688 31.775 66.7088C31.4037 65.6713 30.4725 65 29.405 65H28.75V62.5H29.405C30.4725 62.5 31.4037 61.8287 31.775 60.7912C31.8688 60.53 31.975 60.2738 32.0913 60.0262C32.5613 59.0275 32.3775 57.895 31.6225 57.1413L31.16 56.6787L32.9288 54.91L33.3912 55.3725C34.145 56.1275 35.2775 56.31 36.2762 55.8413C36.525 55.7238 36.78 55.6175 37.04 55.525C38.0787 55.1537 38.75 54.2225 38.75 53.155V52.5H41.25V53.155C41.25 54.2225 41.9213 55.1537 42.9588 55.525C43.22 55.6187 43.4762 55.725 43.7238 55.8413C44.725 56.3125 45.8562 56.1275 46.6087 55.3725L47.0713 54.91L48.84 56.6787L48.3775 57.1413C47.6225 57.895 47.4387 59.0275 47.9087 60.0262C48.0262 60.275 48.1325 60.53 48.225 60.79C48.5963 61.8287 49.5275 62.5 50.595 62.5H51.25V65H50.595C49.5275 65 48.5963 65.6713 48.225 66.7088C48.1313 66.97 48.025 67.2262 47.9087 67.4738C47.4387 68.4725 47.6225 69.605 48.3775 70.3587L48.84 70.8213L47.0713 72.59L46.6087 72.1275C45.855 71.3713 44.7225 71.1887 43.7238 71.6587C43.475 71.7762 43.22 71.8825 42.96 71.975C41.9213 72.3463 41.25 73.2775 41.25 74.345V75H38.75V74.345C38.75 73.2775 38.0787 72.3463 37.0412 71.975C36.78 71.8813 36.5238 71.775 36.2762 71.6587C35.2775 71.1887 34.145 71.3725 33.3912 72.1263Z" fill="url(#paint1_linear_1808_4629)"/>
<path d="M16.25 22.5C19.6962 22.5 22.5 19.6962 22.5 16.25C22.5 12.8038 19.6962 10 16.25 10C12.8038 10 10 12.8038 10 16.25C10 19.6962 12.8038 22.5 16.25 22.5ZM16.25 12.5C18.3175 12.5 20 14.1825 20 16.25C20 18.3175 18.3175 20 16.25 20C14.1825 20 12.5 18.3175 12.5 16.25C12.5 14.1825 14.1825 12.5 16.25 12.5Z" fill="url(#paint2_linear_1808_4629)"/>
<path d="M3.75 20L5.6725 20.055C5.79375 20.39 5.92875 20.7175 6.10625 21.09L4.76 22.4375C4.27125 22.9263 4.27125 23.7162 4.76 24.205L8.29625 27.7413C8.785 28.23 9.575 28.23 10.0637 27.7413L11.4637 26.4212C11.7837 26.5712 12.1113 26.7075 12.5013 26.845V28.75C12.5013 29.44 13.0613 30 13.7513 30H18.7513C19.4412 30 20.0012 29.44 20.0012 28.75L20.0562 26.8275C20.3913 26.7062 20.7187 26.5712 21.0912 26.3937L22.4375 27.74C22.9263 28.2288 23.7162 28.2288 24.205 27.74L27.7413 24.2038C28.23 23.715 28.23 22.925 27.7413 22.4362L26.4212 21.0363C26.5712 20.7163 26.7075 20.3888 26.845 19.9987H28.75C29.44 19.9987 30 19.4387 30 18.7487V13.7487C30 13.0587 29.44 12.4987 28.75 12.4987L26.8275 12.4438C26.7062 12.1088 26.5712 11.7812 26.3937 11.4087L27.74 10.0625C28.2288 9.57375 28.2288 8.78375 27.74 8.295L24.2038 4.75875C23.715 4.27 22.925 4.27 22.4362 4.75875L21.0363 6.07875C20.7163 5.92875 20.3888 5.7925 19.9987 5.655V3.75C19.9987 3.06 19.4387 2.5 18.7487 2.5H13.7487C13.0587 2.5 12.4987 3.06 12.4987 3.75L12.445 5.6725C12.11 5.79375 11.7825 5.92875 11.41 6.10625L10.0625 4.76C9.57375 4.27125 8.78375 4.27125 8.295 4.76L4.76 8.295C4.27125 8.78375 4.27125 9.57375 4.76 10.0625L6.08 11.4625C5.92875 11.7825 5.79375 12.11 5.655 12.5H3.75C3.06 12.5 2.5 13.06 2.5 13.75V18.75C2.5 19.44 3.06 20 3.75 20ZM5 15H5.655C6.7225 15 7.65375 14.3288 8.025 13.2913C8.11875 13.03 8.225 12.7738 8.34125 12.5262C8.81125 11.5275 8.6275 10.395 7.8725 9.64125L7.41 9.17875L9.17875 7.41L9.64125 7.8725C10.3962 8.6275 11.5287 8.81125 12.5262 8.34125C12.775 8.22375 13.03 8.1175 13.29 8.025C14.3287 7.65375 15 6.7225 15 5.655V5H17.5V5.655C17.5 6.7225 18.1712 7.65375 19.2087 8.025C19.47 8.11875 19.7262 8.225 19.9738 8.34125C20.9738 8.8125 22.1063 8.6275 22.8588 7.8725L23.3212 7.41L25.09 9.17875L24.6275 9.64125C23.8725 10.395 23.6887 11.5275 24.1587 12.5262C24.2762 12.775 24.3825 13.03 24.475 13.29C24.8463 14.3287 25.7775 15 26.845 15H27.5V17.5H26.845C25.7775 17.5 24.8463 18.1712 24.475 19.2087C24.3813 19.47 24.275 19.7262 24.1587 19.9738C23.6887 20.9725 23.8725 22.105 24.6275 22.8588L25.09 23.3212L23.3212 25.09L22.8588 24.6275C22.105 23.8725 20.9725 23.69 19.9738 24.1587C19.725 24.2762 19.47 24.3825 19.21 24.475C18.1713 24.8463 17.5 25.7775 17.5 26.845V27.5H15V26.845C15 25.7775 14.3288 24.8463 13.2913 24.475C13.03 24.3813 12.7738 24.275 12.5262 24.1587C11.5275 23.6887 10.395 23.8725 9.64125 24.6275L9.17875 25.09L7.41 23.3212L7.8725 22.8588C8.6275 22.105 8.81125 20.9725 8.34125 19.9738C8.225 19.725 8.11875 19.47 8.025 19.21C7.65375 18.1713 6.7225 17.5 5.655 17.5H5V15Z" fill="url(#paint3_linear_1808_4629)"/>
<path d="M63.75 10C60.3038 10 57.5 12.8038 57.5 16.25C57.5 19.6962 60.3038 22.5 63.75 22.5C67.1962 22.5 70 19.6962 70 16.25C70 12.8038 67.1962 10 63.75 10ZM63.75 20C61.6825 20 60 18.3175 60 16.25C60 14.1825 61.6825 12.5 63.75 12.5C65.8175 12.5 67.5 14.1825 67.5 16.25C67.5 18.3175 65.8175 20 63.75 20Z" fill="url(#paint4_linear_1808_4629)"/>
<path d="M76.25 12.5L74.3275 12.445C74.2063 12.11 74.0713 11.7825 73.8938 11.41L75.24 10.0637C75.7288 9.575 75.7288 8.785 75.24 8.29625L71.7037 4.76C71.215 4.27125 70.425 4.27125 69.9363 4.76L68.5362 6.08C68.2162 5.93 67.8888 5.79375 67.4988 5.65625V3.75C67.4988 3.06 66.9388 2.5 66.2488 2.5H61.2488C60.5588 2.5 59.9988 3.06 59.9988 3.75L59.9438 5.6725C59.6088 5.79375 59.2812 5.92875 58.9087 6.10625L57.5625 4.76C57.0737 4.27125 56.2838 4.27125 55.795 4.76L52.2587 8.29625C51.77 8.785 51.77 9.575 52.2587 10.0637L53.5787 11.4637C53.4287 11.7837 53.2925 12.1113 53.155 12.5013H51.25C50.56 12.5013 50 13.0613 50 13.7513V18.7513C50 19.4412 50.56 20.0012 51.25 20.0012L53.1725 20.0562C53.2937 20.3913 53.4287 20.7187 53.6062 21.0912L52.26 22.4375C51.7712 22.9263 51.7712 23.7162 52.26 24.205L55.7963 27.7413C56.285 28.23 57.075 28.23 57.5637 27.7413L58.9638 26.4212C59.2838 26.5712 59.6112 26.7075 60.0012 26.845V28.75C60.0012 29.44 60.5612 30 61.2512 30H66.2512C66.9412 30 67.5012 29.44 67.5012 28.75L67.5562 26.8275C67.8912 26.7062 68.2188 26.5712 68.5913 26.3937L69.9375 27.74C70.4263 28.2288 71.2162 28.2288 71.705 27.74L75.2413 24.2038C75.73 23.715 75.73 22.925 75.2413 22.4362L73.9213 21.0363C74.0713 20.7163 74.2075 20.3888 74.345 19.9987H76.25C76.94 19.9987 77.5 19.4387 77.5 18.7487V13.7487C77.5 13.06 76.94 12.5 76.25 12.5ZM75 17.5H74.345C73.2775 17.5 72.3463 18.1712 71.975 19.2087C71.8813 19.47 71.775 19.7262 71.6587 19.9738C71.1887 20.9725 71.3725 22.105 72.1275 22.8588L72.59 23.3212L70.8213 25.09L70.3587 24.6275C69.605 23.8725 68.4713 23.69 67.4738 24.1587C67.225 24.2762 66.97 24.3825 66.71 24.475C65.6713 24.8463 65 25.7775 65 26.845V27.5H62.5V26.845C62.5 25.7775 61.8287 24.8463 60.7912 24.475C60.53 24.3813 60.2738 24.275 60.0262 24.1587C59.0287 23.6887 57.895 23.8725 57.1413 24.6275L56.6787 25.09L54.91 23.3212L55.3725 22.8588C56.1275 22.105 56.3113 20.9725 55.8413 19.9738C55.7238 19.725 55.6175 19.47 55.525 19.21C55.1537 18.1713 54.2225 17.5 53.155 17.5H52.5V15H53.155C54.2225 15 55.1537 14.3288 55.525 13.2913C55.6187 13.03 55.725 12.7738 55.8413 12.5262C56.3113 11.5275 56.1275 10.395 55.3725 9.64125L54.91 9.17875L56.6787 7.41L57.1413 7.8725C57.8938 8.6275 59.0275 8.81125 60.0262 8.34125C60.275 8.22375 60.53 8.1175 60.79 8.025C61.8287 7.65375 62.5 6.7225 62.5 5.655V5H65V5.655C65 6.7225 65.6713 7.65375 66.7088 8.025C66.97 8.11875 67.2262 8.225 67.4738 8.34125C68.4738 8.8125 69.6062 8.6275 70.3587 7.8725L70.8213 7.41L72.59 9.17875L72.1275 9.64125C71.3725 10.395 71.1887 11.5275 71.6587 12.5262C71.7762 12.775 71.8825 13.03 71.975 13.29C72.3463 14.3287 73.2775 15 74.345 15H75V17.5Z" fill="url(#paint5_linear_1808_4629)"/>
<path d="M22.945 38.3C22.3 39.3487 21.0987 40 19.81 40H5C4.31 40 3.75 40.56 3.75 41.25V48.75C3.75 49.44 4.31 50 5 50H21.1175C25.415 50 29.2463 47.76 31.1162 44.1538C32.8438 40.82 36.2487 38.75 40 38.75C43.7513 38.75 47.1562 40.82 48.8837 44.1538C50.7537 47.76 54.585 50 58.8825 50H63.75V52.5C63.75 52.9737 64.0175 53.4062 64.4413 53.6188C64.6175 53.7063 64.81 53.75 65 53.75C65.265 53.75 65.5287 53.665 65.75 53.5L75.75 46C76.065 45.765 76.25 45.3937 76.25 45C76.25 44.6062 76.065 44.2363 75.75 44L65.75 36.5C65.3712 36.215 64.8638 36.17 64.4413 36.3812C64.0175 36.5937 63.75 37.0262 63.75 37.5V40H60.19C58.9 40 57.6987 39.3487 57.055 38.3C53.385 32.32 47.0088 28.75 40 28.75C32.9913 28.75 26.615 32.32 22.945 38.3ZM40 31.25C46.1338 31.25 51.7125 34.375 54.925 39.6088C56.0212 41.3925 58.0387 42.5 60.19 42.5H65C65.69 42.5 66.25 41.94 66.25 41.25V40L72.9163 45L66.25 50V48.75C66.25 48.06 65.69 47.5 65 47.5H58.8825C55.5737 47.5 52.52 45.735 51.1025 43.0037C48.9437 38.8375 44.6888 36.25 40 36.25C35.3113 36.25 31.0562 38.8375 28.8975 43.0025C27.48 45.735 24.4275 47.5 21.1175 47.5H6.25V42.5H19.81C21.9625 42.5 23.9788 41.3925 25.075 39.6075C28.2875 34.375 33.8662 31.25 40 31.25Z" fill="url(#paint6_linear_1808_4629)"/>
<path d="M33.75 15H36.25V17.5H33.75V15Z" fill="url(#paint7_linear_1808_4629)"/>
<path d="M38.75 15H41.25V17.5H38.75V15Z" fill="url(#paint8_linear_1808_4629)"/>
<path d="M43.75 15H46.25V17.5H43.75V15Z" fill="url(#paint9_linear_1808_4629)"/>
<path d="M11.25 62.5H13.75V65H11.25V62.5Z" fill="url(#paint10_linear_1808_4629)"/>
<path d="M16.25 62.5H18.75V65H16.25V62.5Z" fill="url(#paint11_linear_1808_4629)"/>
<path d="M21.25 62.5H23.75V65H21.25V62.5Z" fill="url(#paint12_linear_1808_4629)"/>
<path d="M6.25 62.5H8.75V65H6.25V62.5Z" fill="url(#paint13_linear_1808_4629)"/>
<path d="M56.25 62.5H58.75V65H56.25V62.5Z" fill="url(#paint14_linear_1808_4629)"/>
<path d="M61.25 62.5H63.75V65H61.25V62.5Z" fill="url(#paint15_linear_1808_4629)"/>
<path d="M66.25 62.5H68.75V65H66.25V62.5Z" fill="url(#paint16_linear_1808_4629)"/>
<path d="M71.25 62.5H73.75V65H71.25V62.5Z" fill="url(#paint17_linear_1808_4629)"/>
<defs>
<linearGradient id="paint0_linear_1808_4629" x1="40" y1="57.5" x2="40" y2="70" gradientUnits="userSpaceOnUse">
<stop stop-color="#9747FF"/>
<stop offset="1" stop-color="#4B9ADB"/>
</linearGradient>
<linearGradient id="paint1_linear_1808_4629" x1="40" y1="50" x2="40" y2="77.5" gradientUnits="userSpaceOnUse">
<stop stop-color="#9747FF"/>
<stop offset="1" stop-color="#4B9ADB"/>
</linearGradient>
<linearGradient id="paint2_linear_1808_4629" x1="16.25" y1="10" x2="16.25" y2="22.5" gradientUnits="userSpaceOnUse">
<stop stop-color="#9747FF"/>
<stop offset="1" stop-color="#4B9ADB"/>
</linearGradient>
<linearGradient id="paint3_linear_1808_4629" x1="16.25" y1="2.5" x2="16.25" y2="30" gradientUnits="userSpaceOnUse">
<stop stop-color="#9747FF"/>
<stop offset="1" stop-color="#4B9ADB"/>
</linearGradient>
<linearGradient id="paint4_linear_1808_4629" x1="63.75" y1="10" x2="63.75" y2="22.5" gradientUnits="userSpaceOnUse">
<stop stop-color="#9747FF"/>
<stop offset="1" stop-color="#4B9ADB"/>
</linearGradient>
<linearGradient id="paint5_linear_1808_4629" x1="63.75" y1="2.5" x2="63.75" y2="30" gradientUnits="userSpaceOnUse">
<stop stop-color="#9747FF"/>
<stop offset="1" stop-color="#4B9ADB"/>
</linearGradient>
<linearGradient id="paint6_linear_1808_4629" x1="40" y1="28.75" x2="40" y2="53.75" gradientUnits="userSpaceOnUse">
<stop stop-color="#9747FF"/>
<stop offset="1" stop-color="#4B9ADB"/>
</linearGradient>
<linearGradient id="paint7_linear_1808_4629" x1="35" y1="15" x2="35" y2="17.5" gradientUnits="userSpaceOnUse">
<stop stop-color="#9747FF"/>
<stop offset="1" stop-color="#4B9ADB"/>
</linearGradient>
<linearGradient id="paint8_linear_1808_4629" x1="40" y1="15" x2="40" y2="17.5" gradientUnits="userSpaceOnUse">
<stop stop-color="#9747FF"/>
<stop offset="1" stop-color="#4B9ADB"/>
</linearGradient>
<linearGradient id="paint9_linear_1808_4629" x1="45" y1="15" x2="45" y2="17.5" gradientUnits="userSpaceOnUse">
<stop stop-color="#9747FF"/>
<stop offset="1" stop-color="#4B9ADB"/>
</linearGradient>
<linearGradient id="paint10_linear_1808_4629" x1="12.5" y1="62.5" x2="12.5" y2="65" gradientUnits="userSpaceOnUse">
<stop stop-color="#9747FF"/>
<stop offset="1" stop-color="#4B9ADB"/>
</linearGradient>
<linearGradient id="paint11_linear_1808_4629" x1="17.5" y1="62.5" x2="17.5" y2="65" gradientUnits="userSpaceOnUse">
<stop stop-color="#9747FF"/>
<stop offset="1" stop-color="#4B9ADB"/>
</linearGradient>
<linearGradient id="paint12_linear_1808_4629" x1="22.5" y1="62.5" x2="22.5" y2="65" gradientUnits="userSpaceOnUse">
<stop stop-color="#9747FF"/>
<stop offset="1" stop-color="#4B9ADB"/>
</linearGradient>
<linearGradient id="paint13_linear_1808_4629" x1="7.5" y1="62.5" x2="7.5" y2="65" gradientUnits="userSpaceOnUse">
<stop stop-color="#9747FF"/>
<stop offset="1" stop-color="#4B9ADB"/>
</linearGradient>
<linearGradient id="paint14_linear_1808_4629" x1="57.5" y1="62.5" x2="57.5" y2="65" gradientUnits="userSpaceOnUse">
<stop stop-color="#9747FF"/>
<stop offset="1" stop-color="#4B9ADB"/>
</linearGradient>
<linearGradient id="paint15_linear_1808_4629" x1="62.5" y1="62.5" x2="62.5" y2="65" gradientUnits="userSpaceOnUse">
<stop stop-color="#9747FF"/>
<stop offset="1" stop-color="#4B9ADB"/>
</linearGradient>
<linearGradient id="paint16_linear_1808_4629" x1="67.5" y1="62.5" x2="67.5" y2="65" gradientUnits="userSpaceOnUse">
<stop stop-color="#9747FF"/>
<stop offset="1" stop-color="#4B9ADB"/>
</linearGradient>
<linearGradient id="paint17_linear_1808_4629" x1="72.5" y1="62.5" x2="72.5" y2="65" gradientUnits="userSpaceOnUse">
<stop stop-color="#9747FF"/>
<stop offset="1" stop-color="#4B9ADB"/>
</linearGradient>
</defs>
</svg>
