<svg width="24" height="24" viewBox="0 0 24 24" fill="none" xmlns="http://www.w3.org/2000/svg">
<path d="M4.43969 17.4367C4.17473 17.721 4.03049 18.0971 4.03734 18.4857C4.0442 18.8743 4.20162 19.2451 4.47645 19.5199C4.75128 19.7947 5.12205 19.9522 5.51065 19.959C5.89925 19.9659 6.27534 19.8216 6.55969 19.5567L11.4797 14.6367L9.35969 12.5167L4.43969 17.4367Z" fill="#9747FF"/>
<path d="M16.7336 8.31998L18.877 7.20998L20.0003 5.04331L18.9536 3.99664L16.787 5.11998L15.677 7.25998L13.0703 9.86998L14.127 10.93L16.7336 8.31998Z" fill="#9747FF"/>
<path d="M17.2036 14H17.0003C16.646 14.002 16.2949 14.0675 15.9636 14.1933L9.81696 8.02997C9.93861 7.70021 10.0007 7.35145 10.0003 6.99997L9.9803 6.79997C9.9525 6.31303 9.80508 5.84046 9.55108 5.42409C9.29708 5.00771 8.94435 4.66039 8.5241 4.41285C8.10385 4.16532 7.62906 4.02521 7.14175 4.00494C6.65444 3.98467 6.16965 4.08486 5.7303 4.29664L7.7303 6.29664C7.8308 6.39899 7.9081 6.52177 7.95696 6.65664C8.01274 6.80913 8.03054 6.97291 8.00883 7.13383C7.98712 7.29475 7.92655 7.44795 7.83236 7.58022C7.73817 7.71248 7.61319 7.81981 7.46821 7.89295C7.32324 7.96608 7.16265 8.00281 7.0003 7.99997C6.88594 7.99641 6.7731 7.97272 6.66696 7.92997C6.53304 7.88076 6.41054 7.80477 6.30696 7.70664L4.30696 5.70664C4.09318 6.14591 3.99118 6.63117 4.01002 7.11934C4.02887 7.6075 4.16797 8.08346 4.41499 8.50494C4.66201 8.92642 5.00929 9.28037 5.42599 9.53537C5.84269 9.79036 6.31591 9.9385 6.80363 9.96664L7.0003 9.99997C7.35463 9.99795 7.70573 9.93247 8.03696 9.80664L14.2003 15.9466C14.0702 16.2827 14.0024 16.6396 14.0003 17L14.0203 17.2C14.0757 17.9534 14.4133 18.6583 14.9658 19.1737C15.5182 19.689 16.2448 19.977 17.0003 19.98C17.4454 19.9795 17.8845 19.8769 18.2836 19.68L16.2836 17.68C16.1901 17.5798 16.1176 17.4619 16.0703 17.3333C16.0173 17.1835 16.0008 17.0232 16.0221 16.8657C16.0434 16.7083 16.102 16.5581 16.1929 16.4278C16.2838 16.2975 16.4045 16.1907 16.5449 16.1163C16.6853 16.0419 16.8414 16.002 17.0003 16C17.1147 16.0035 17.2275 16.0272 17.3336 16.07C17.4696 16.1149 17.593 16.1915 17.6936 16.2933L19.6936 18.2933C19.9146 17.8532 20.0225 17.3651 20.0076 16.8728C19.9928 16.3806 19.8557 15.8999 19.6086 15.4739C19.3616 15.0479 19.0124 14.6901 18.5925 14.4328C18.1726 14.1755 17.6953 14.0267 17.2036 14Z" fill="#9747FF"/>
</svg>
