<svg width="80" height="80" viewBox="0 0 80 80" fill="none" xmlns="http://www.w3.org/2000/svg">
<g clip-path="url(#clip0_1807_3919)">
<path d="M75.4416 22.9845C75.4422 21.778 75.077 20.5995 74.3942 19.6047C73.7114 18.6099 72.7431 17.8455 71.617 17.4123C70.4909 16.9791 69.2599 16.8974 68.0864 17.1781C66.9129 17.4588 65.8521 18.0886 65.0439 18.9845L45.6806 7.80611C45.9707 6.91028 46.0447 5.95855 45.8967 5.02864C45.7487 4.09874 45.3828 3.21703 44.829 2.45553C44.2751 1.69403 43.549 1.07434 42.7099 0.64707C41.8708 0.219801 40.9426 -0.00292969 40.0009 -0.00292969C39.0593 -0.00292969 38.1311 0.219801 37.292 0.64707C36.4529 1.07434 35.7268 1.69403 35.1729 2.45553C34.619 3.21703 34.2532 4.09874 34.1052 5.02864C33.9571 5.95855 34.0312 6.91028 34.3212 7.80611L14.9577 18.9855C14.3269 18.2868 13.5398 17.7472 12.6606 17.4108C11.7815 17.0743 10.8352 16.9506 9.89916 17.0497C8.96307 17.1487 8.06369 17.4678 7.27445 17.9808C6.48522 18.4938 5.8285 19.1862 5.35793 20.0015C4.88736 20.8167 4.61629 21.7317 4.56684 22.6717C4.51739 23.6117 4.69096 24.5501 5.07339 25.4102C5.45583 26.2704 6.03627 27.0278 6.76732 27.6208C7.49838 28.2138 8.35932 28.6255 9.27984 28.8222V51.1781C8.35932 51.3749 7.49838 51.7865 6.76732 52.3795C6.03627 52.9725 5.45583 53.73 5.07339 54.5901C4.69096 55.4502 4.51739 56.3886 4.56684 57.3286C4.61629 58.2686 4.88736 59.1836 5.35793 59.9989C5.8285 60.8141 6.48522 61.5065 7.27445 62.0195C8.06369 62.5325 8.96307 62.8516 9.89916 62.9507C10.8352 63.0497 11.7815 62.926 12.6606 62.5896C13.5398 62.2531 14.3269 61.7135 14.9577 61.0149L34.3211 72.1944C34.031 73.0902 33.957 74.0419 34.105 74.9718C34.253 75.9018 34.6189 76.7835 35.1727 77.545C35.7266 78.3065 36.4527 78.9262 37.2918 79.3534C38.1309 79.7807 39.0592 80.0034 40.0008 80.0034C40.9424 80.0034 41.8707 79.7807 42.7097 79.3534C43.5488 78.9262 44.275 78.3065 44.8288 77.545C45.3827 76.7835 45.7485 75.9018 45.8966 74.9718C46.0446 74.0419 45.9705 73.0902 45.6805 72.1944L65.0441 61.0158C65.6749 61.7145 66.462 62.254 67.3411 62.5904C68.2203 62.9268 69.1665 63.0505 70.1026 62.9514C71.0387 62.8523 71.938 62.5333 72.7272 62.0202C73.5165 61.5072 74.1731 60.8148 74.6437 59.9996C75.1143 59.1843 75.3853 58.2693 75.4347 57.3293C75.4842 56.3893 75.3106 55.451 74.9282 54.5908C74.5457 53.7307 73.9653 52.9733 73.2342 52.3803C72.5032 51.7873 71.6422 51.3757 70.7217 51.1789V28.8222C72.0568 28.5345 73.2532 27.7984 74.1119 26.7364C74.9706 25.6743 75.4398 24.3503 75.4416 22.9845ZM44.4286 9.96892L63.7919 21.1483C63.371 22.4469 63.4092 23.8507 63.9002 25.1245L56.6314 29.2139C56.7197 28.9878 56.7402 28.7409 56.6905 28.5033C56.6408 28.2657 56.5229 28.0477 56.3514 27.8759L52.1241 23.6486C51.923 23.4476 51.6593 23.3211 51.3767 23.2901C51.0941 23.2591 50.8093 23.3254 50.5694 23.478L47.1216 25.672C46.4667 25.3459 45.7902 25.0652 45.0969 24.8319L44.2102 20.845C44.1484 20.5675 43.9938 20.3193 43.772 20.1414C43.5502 19.9635 43.2743 19.8666 42.99 19.8666H41.2508V11.8072C42.4767 11.5435 43.5885 10.9007 44.4286 9.96986V9.96892ZM51.8305 47.8506L53.8747 51.0647L51.0653 53.8742L47.8512 51.8299C47.661 51.7088 47.4415 51.6415 47.2161 51.6351C46.9906 51.6286 46.7677 51.6833 46.5708 51.7933C45.6611 52.3017 44.6952 52.7024 43.6928 52.9874C43.4759 53.0488 43.2796 53.1678 43.1247 53.3317C42.9699 53.4956 42.8623 53.6984 42.8133 53.9184L41.9869 57.6342H38.0142L37.1883 53.9184C37.1393 53.6984 37.0318 53.4957 36.877 53.3318C36.7223 53.1679 36.5261 53.0489 36.3092 52.9874C35.3069 52.7024 34.3411 52.3016 33.4314 51.7933C33.2345 51.6833 33.0116 51.6286 32.7861 51.6351C32.5607 51.6415 32.3412 51.7088 32.1509 51.8299L28.937 53.8742L26.1275 51.0647L28.1719 47.8506C28.2929 47.6603 28.3602 47.4408 28.3666 47.2154C28.373 46.99 28.3183 46.767 28.2083 46.5702C27.7 45.6604 27.2992 44.6946 27.0141 43.6922C26.9526 43.4752 26.8335 43.2788 26.6695 43.124C26.5054 42.9691 26.3026 42.8616 26.0823 42.8127L22.3667 41.9863V38.0136L26.0825 37.1877C26.3025 37.1387 26.5052 37.0312 26.6691 36.8765C26.833 36.7218 26.9521 36.5256 27.0136 36.3088C27.2986 35.3063 27.6994 34.3405 28.2078 33.4308C28.3178 33.2339 28.3724 33.011 28.366 32.7856C28.3595 32.5602 28.2923 32.3407 28.1712 32.1505L26.1269 28.9366L28.9364 26.127L32.1503 28.1713C32.3405 28.2924 32.56 28.3597 32.7854 28.3661C33.0108 28.3726 33.2338 28.3179 33.4306 28.2078C34.3406 27.6996 35.3065 27.2989 36.3089 27.0136C36.5259 26.9521 36.7222 26.833 36.877 26.669C37.0319 26.5049 37.1394 26.3021 37.1883 26.0819L38.0148 22.3663H41.9881L42.8133 26.0819C42.8622 26.3019 42.9697 26.5046 43.1245 26.6685C43.2792 26.8324 43.4753 26.9514 43.6922 27.013C44.6946 27.298 45.6605 27.6987 46.5703 28.207C46.7671 28.3171 46.9901 28.3718 47.2155 28.3654C47.4409 28.359 47.6604 28.2916 47.8506 28.1705L51.0647 26.1263L53.8741 28.9358L51.8305 32.1497C51.7094 32.34 51.6421 32.5595 51.6357 32.7849C51.6293 33.0103 51.6839 33.2333 51.7939 33.4302C52.3023 34.3399 52.703 35.3057 52.9881 36.3081C53.0495 36.5251 53.1685 36.7213 53.3324 36.8762C53.4963 37.031 53.699 37.1386 53.9191 37.1877L57.6348 38.0144V41.9877L53.9192 42.8127C53.6992 42.8616 53.4964 42.9691 53.3325 43.1239C53.1685 43.2786 53.0495 43.4748 52.988 43.6917C52.703 44.6941 52.3023 45.66 51.7939 46.5697C51.6838 46.7666 51.6291 46.9897 51.6356 47.2152C51.642 47.4407 51.7093 47.6603 51.8305 47.8506ZM40.0008 2.50017C40.687 2.50017 41.3579 2.70367 41.9285 3.08494C42.4991 3.46621 42.9439 4.00813 43.2065 4.64216C43.4691 5.27619 43.5378 5.97386 43.404 6.64694C43.2701 7.32003 42.9396 7.9383 42.4543 8.42356C41.9691 8.90883 41.3508 9.2393 40.6777 9.37318C40.0046 9.50707 39.307 9.43835 38.6729 9.17573C38.0389 8.91311 37.497 8.46837 37.1157 7.89775C36.7344 7.32714 36.5309 6.65628 36.5309 5.97001C36.532 5.05007 36.8979 4.1681 37.5484 3.5176C38.1989 2.86711 39.0808 2.5012 40.0008 2.50017ZM16.2097 21.1492L35.5731 9.9697C36.4131 10.9006 37.5249 11.5435 38.7508 11.8072V19.8663H37.0117C36.7274 19.8663 36.4515 19.9632 36.2297 20.1411C36.0079 20.319 35.8533 20.5672 35.7916 20.8447L34.9047 24.8316C34.2114 25.065 33.5349 25.3457 32.88 25.6717L29.4322 23.4789C29.1923 23.3263 28.9075 23.26 28.6249 23.291C28.3422 23.3221 28.0786 23.4485 27.8775 23.6495L23.6502 27.8769C23.4491 28.078 23.3226 28.3416 23.2915 28.6243C23.2605 28.907 23.3267 29.1918 23.4794 29.4317L23.7558 29.8663L15.953 25.4764C16.5794 24.1176 16.671 22.5726 16.2097 21.1492ZM7.06 22.9845C7.06 22.2983 7.2635 21.6274 7.64477 21.0568C8.02604 20.4862 8.56796 20.0414 9.20199 19.7788C9.83602 19.5162 10.5337 19.4475 11.2068 19.5814C11.8799 19.7153 12.4981 20.0457 12.9834 20.531C13.4687 21.0163 13.7991 21.6345 13.933 22.3076C14.0669 22.9807 13.9982 23.6784 13.7356 24.3124C13.4729 24.9464 13.0282 25.4883 12.4576 25.8696C11.887 26.2509 11.2161 26.4544 10.5298 26.4544C9.6099 26.4534 8.72793 26.0874 8.07743 25.437C7.42694 24.7865 7.06103 23.9045 7.06 22.9845ZM10.5298 60.4845C9.84348 60.4846 9.17253 60.2811 8.60184 59.8997C8.03115 59.5184 7.58637 58.9764 7.32375 58.3423C7.06112 57.7081 6.99246 57.0104 7.12643 56.3372C7.26041 55.6641 7.591 55.0457 8.07641 54.5605C8.56182 54.0752 9.18023 53.7448 9.85343 53.6111C10.5266 53.4773 11.2244 53.5462 11.8584 53.809C12.4925 54.0718 13.0343 54.5168 13.4155 55.0876C13.7966 55.6584 13.9999 56.3294 13.9997 57.0158C13.9984 57.9355 13.6323 58.8172 12.9819 59.4675C12.3314 60.1178 11.4496 60.4835 10.5298 60.4845ZM14.7372 52.7838C13.926 51.9756 12.8994 51.418 11.7798 51.1775V28.8222C12.7639 28.6108 13.6784 28.1533 14.4377 27.4925L25.1811 33.5367C25.2304 33.5643 25.2815 33.5886 25.3341 33.6094C25.1486 34.0342 24.9795 34.4658 24.832 34.9041L20.8453 35.7911C20.5678 35.8528 20.3196 36.0074 20.1416 36.2292C19.9637 36.451 19.8668 36.7268 19.8667 37.0111V42.9894C19.8668 43.2737 19.9637 43.5495 20.1416 43.7713C20.3196 43.9931 20.5678 44.1477 20.8453 44.2094L24.8322 45.0963C25.021 45.6561 25.2408 46.2049 25.4908 46.7402C25.4612 46.7539 25.4317 46.7677 25.403 46.7839L14.7372 52.7838ZM35.5731 70.0314L16.2097 58.8511C16.6296 57.5555 16.5925 56.1551 16.1048 54.8834L23.3655 50.7986C23.2805 51.0235 23.2622 51.268 23.3127 51.503C23.3632 51.738 23.4803 51.9535 23.6502 52.1236L27.8775 56.3509C28.0786 56.552 28.3422 56.6784 28.6249 56.7095C28.9075 56.7405 29.1923 56.6742 29.4322 56.5216L32.88 54.3283C33.5348 54.6545 34.2113 54.9353 34.9047 55.1686L35.7916 59.1555C35.8533 59.433 36.0079 59.6812 36.2297 59.8591C36.4515 60.037 36.7274 60.1339 37.0117 60.1339H38.7508V68.1928C37.5248 68.4568 36.413 69.1001 35.5731 70.0314ZM40.0008 77.5002C39.3145 77.5001 38.6437 77.2966 38.0731 76.9153C37.5025 76.534 37.0578 75.9921 36.7952 75.3581C36.5326 74.724 36.4639 74.0264 36.5978 73.3533C36.7317 72.6802 37.0622 72.062 37.5474 71.5767C38.0327 71.0915 38.651 70.761 39.3241 70.6271C39.9971 70.4933 40.6948 70.562 41.3288 70.8246C41.9628 71.0872 42.5048 71.532 42.886 72.1026C43.2673 72.6732 43.4708 73.3441 43.4708 74.0303C43.4697 74.9503 43.1038 75.8323 42.4533 76.4828C41.8028 77.1333 40.9207 77.4992 40.0008 77.5002ZM44.4286 70.0314C43.5886 69.1002 42.4768 68.457 41.2508 68.1931V60.1342H42.99C43.2743 60.1342 43.5502 60.0373 43.772 59.8594C43.9938 59.6815 44.1484 59.4333 44.2102 59.1558L45.0969 55.1688C45.7903 54.9355 46.4668 54.6548 47.1217 54.3286L50.5694 56.5216C50.8093 56.6742 51.0941 56.7404 51.3767 56.7094C51.6594 56.6783 51.923 56.5518 52.1241 56.3508L56.3514 52.1236C56.5764 51.8988 56.707 51.5965 56.7167 51.2786L63.7694 55.2464C63.4052 56.4216 63.413 57.6807 63.7919 58.8513L44.4286 70.0314ZM64.9978 53.0689L54.537 47.1838C54.4744 47.1489 54.4088 47.1195 54.3411 47.096C54.6622 46.4488 54.9389 45.7806 55.1692 45.096L59.1559 44.2091C59.4335 44.1473 59.6817 43.9928 59.8596 43.771C60.0375 43.5492 60.1345 43.2734 60.1345 42.9891V37.0111C60.1345 36.7268 60.0375 36.451 59.8596 36.2292C59.6817 36.0074 59.4335 35.8528 59.1559 35.7911L55.1691 34.9041C54.9713 34.3182 54.7395 33.7443 54.475 33.1853C54.6388 33.1661 54.7972 33.1146 54.9409 33.0338L65.2711 27.222C66.0811 28.0268 67.1051 28.582 68.2214 28.8217V51.1781C66.9722 51.4472 65.8423 52.1099 64.9978 53.0689ZM72.9416 57.0152C72.9416 57.7014 72.7381 58.3723 72.3568 58.9429C71.9755 59.5135 71.4336 59.9583 70.7996 60.2209C70.1655 60.4835 69.4679 60.5522 68.7948 60.4183C68.1217 60.2845 67.5034 59.954 67.0182 59.4687C66.5329 58.9835 66.2024 58.3652 66.0685 57.6921C65.9347 57.019 66.0034 56.3213 66.266 55.6873C66.5286 55.0533 66.9734 54.5114 67.544 54.1301C68.1146 53.7488 68.7854 53.5453 69.4717 53.5453C70.3918 53.5464 71.2738 53.9123 71.9243 54.563C72.5749 55.2136 72.9407 56.0957 72.9416 57.0158V57.0152ZM69.4717 26.455C68.7854 26.455 68.1145 26.2516 67.5439 25.8703C66.9732 25.4891 66.5285 24.9472 66.2658 24.3131C66.0031 23.6791 65.9343 22.9814 66.0682 22.3083C66.202 21.6352 66.5324 21.0169 67.0177 20.5316C67.5029 20.0462 68.1212 19.7157 68.7943 19.5818C69.4673 19.4478 70.165 19.5164 70.7991 19.779C71.4332 20.0416 71.9752 20.4862 72.3565 21.0568C72.7379 21.6274 72.9415 22.2983 72.9416 22.9845C72.9407 23.9046 72.5749 24.7867 71.9243 25.4374C71.2738 26.088 70.3918 26.454 69.4717 26.455ZM40.0008 29.8117C37.9857 29.8117 36.0159 30.4093 34.3404 31.5288C32.6649 32.6483 31.359 34.2395 30.5879 36.1012C29.8168 37.9629 29.615 40.0115 30.0081 41.9878C30.4012 43.9642 31.3716 45.7796 32.7965 47.2045C34.2213 48.6294 36.0368 49.5997 38.0131 49.9928C39.9895 50.386 42.038 50.1842 43.8997 49.4131C45.7614 48.6419 47.3526 47.336 48.4722 45.6606C49.5917 43.9851 50.1892 42.0153 50.1892 40.0002C50.1862 37.299 49.1118 34.7092 47.2018 32.7992C45.2917 30.8891 42.702 29.8148 40.0008 29.8117ZM40.0008 47.6886C38.4801 47.6886 36.9937 47.2377 35.7293 46.3929C34.465 45.5481 33.4795 44.3473 32.8976 42.9424C32.3157 41.5375 32.1634 39.9916 32.4601 38.5002C32.7567 37.0088 33.489 35.6389 34.5642 34.5636C35.6395 33.4884 37.0094 32.7561 38.5008 32.4595C39.9923 32.1628 41.5381 32.3151 42.943 32.897C44.3479 33.4789 45.5487 34.4643 46.3935 35.7287C47.2383 36.9931 47.6892 38.4795 47.6892 40.0002C47.6869 42.0386 46.8762 43.9928 45.4348 45.4342C43.9934 46.8756 42.0392 47.6863 40.0008 47.6886ZM45.3402 35.8742C45.5835 36.0994 45.7274 36.412 45.7402 36.7433C45.753 37.0745 45.6337 37.3973 45.4086 37.6406L39.4711 44.0578C39.3541 44.1843 39.2122 44.2852 39.0543 44.3542C38.8964 44.4232 38.726 44.4588 38.5537 44.4588C38.3814 44.4588 38.2109 44.4232 38.0531 44.3542C37.8952 44.2852 37.7533 44.1843 37.6362 44.0578L34.593 40.7699C34.4803 40.6496 34.3924 40.5082 34.3346 40.3539C34.2767 40.1996 34.2499 40.0353 34.2558 39.8706C34.2617 39.7059 34.3 39.544 34.3687 39.3942C34.4374 39.2443 34.535 39.1096 34.656 38.9976C34.777 38.8857 34.9189 38.7988 35.0736 38.7419C35.2283 38.685 35.3927 38.6593 35.5574 38.6662C35.722 38.6731 35.8837 38.7125 36.0331 38.7821C36.1825 38.8517 36.3166 38.9502 36.4278 39.0719L38.5528 41.3688L43.5736 35.943C43.6851 35.8225 43.8192 35.7251 43.9683 35.6564C44.1174 35.5877 44.2786 35.5491 44.4426 35.5427C44.6067 35.5363 44.7704 35.5623 44.9244 35.6192C45.0784 35.6761 45.2197 35.7627 45.3402 35.8742Z" fill="url(#paint0_linear_1807_3919)"/>
</g>
<defs>
<linearGradient id="paint0_linear_1807_3919" x1="40.0008" y1="-0.00292969" x2="40.0008" y2="80.0034" gradientUnits="userSpaceOnUse">
<stop stop-color="#9747FF"/>
<stop offset="1" stop-color="#4B9ADB"/>
</linearGradient>
<clipPath id="clip0_1807_3919">
<rect width="80" height="80" fill="white"/>
</clipPath>
</defs>
</svg>
