<svg width="24" height="24" viewBox="0 0 24 24" fill="none" xmlns="http://www.w3.org/2000/svg">
<path d="M8.79922 11.2C6.5901 11.2 4.79922 9.4091 4.79922 7.19998V3.99998C4.79922 3.55822 5.15746 3.19998 5.59922 3.19998H6.39922C6.84098 3.19998 7.19922 2.84174 7.19922 2.39998C7.19922 1.95822 6.84098 1.59998 6.39922 1.59998H5.59922C4.27378 1.59998 3.19922 2.67454 3.19922 3.99998V7.19998C3.2013 9.03453 4.1045 10.7512 5.61522 11.792C7.06018 13.0659 7.92146 14.8752 7.99922 16.8C7.99922 19.8928 10.5064 22.4 13.5992 22.4C16.692 22.4 19.1992 19.8928 19.1992 16.8V15.888C20.9104 15.4462 21.9394 13.7008 21.4976 11.9896C21.0557 10.2784 19.3104 9.24942 17.5992 9.69118C15.888 10.1331 14.8591 11.8784 15.3008 13.5896C15.5919 14.7168 16.472 15.5969 17.5992 15.888V16.8C17.5992 19.0091 15.8083 20.8 13.5992 20.8C11.3901 20.8 9.59922 19.0091 9.59922 16.8C9.68098 14.8728 10.5483 13.063 11.9992 11.792C13.5039 10.7475 14.4008 9.03165 14.3992 7.19998V3.99998C14.3992 2.67454 13.3247 1.59998 11.9992 1.59998H11.1992C10.7575 1.59998 10.3992 1.95822 10.3992 2.39998C10.3992 2.84174 10.7575 3.19998 11.1992 3.19998H11.9992C12.441 3.19998 12.7992 3.55822 12.7992 3.99998V7.19998C12.7992 9.4091 11.0083 11.2 8.79922 11.2ZM18.3992 14.4C17.5155 14.4 16.7992 13.6837 16.7992 12.8C16.7992 11.9163 17.5155 11.2 18.3992 11.2C19.2829 11.2 19.9992 11.9163 19.9992 12.8C19.9992 13.6837 19.2829 14.4 18.3992 14.4Z" fill="#9747FF"/>
</svg>
