<svg width="80" height="80" viewBox="0 0 80 80" fill="none" xmlns="http://www.w3.org/2000/svg">
<path d="M48.7345 27.8849L62.8438 36.0311C63.013 36.1288 63.2017 36.1777 63.3906 36.1777C63.5795 36.1777 63.7683 36.1289 63.9375 36.0311L78.0469 27.8849C78.3853 27.6896 78.5938 27.3285 78.5938 26.9377V10.6458C78.5938 10.255 78.3853 9.89393 78.0469 9.69861L63.9375 1.55268C63.5991 1.35736 63.1822 1.35752 62.8438 1.55268L48.7345 9.69861C48.3961 9.89408 48.1877 10.2552 48.1877 10.6458V26.9378C48.1877 27.3286 48.3961 27.6896 48.7345 27.8849ZM50.3752 12.5403L53.2798 14.2172V20.3741C53.2798 20.7649 53.4883 21.126 53.8267 21.3213L57.7516 23.5872C57.9208 23.685 58.1095 23.7338 58.2984 23.7338C58.4872 23.7338 58.6761 23.685 58.8453 23.5872C59.1838 23.3917 59.3922 23.0306 59.3922 22.64V17.746L62.2969 19.423V33.1892L50.3752 26.3064V12.5403ZM60.4859 15.8517L72.4078 8.96877L75.3123 10.6456L63.3906 17.5286L60.4859 15.8517ZM58.2984 14.5888L56.5609 13.5856L68.4827 6.70268L70.2202 7.7058L58.2984 14.5888ZM57.2047 16.4833V20.7458L55.4673 19.7427V15.4802L57.2047 16.4833ZM64.4844 33.1894V19.4231L76.4062 12.5403V26.3064L64.4844 33.1894ZM63.3906 3.76283L66.2952 5.43971L54.3734 12.3227L51.4688 10.6456L63.3906 3.76283ZM20.7367 50.5819C20.7367 55.3688 24.6311 59.2631 29.418 59.2631C32.4094 59.2631 35.1527 57.7521 36.7566 55.221C37.08 54.711 37.7559 54.5596 38.2659 54.8825C38.7763 55.2058 38.9277 55.8817 38.6044 56.3919C36.597 59.5594 33.163 61.4506 29.418 61.4506C23.425 61.4506 18.5492 56.575 18.5492 50.5819C18.5492 44.5888 23.4248 39.7131 29.418 39.7131C34.2403 39.7131 38.5366 42.9474 39.8656 47.5783C40.0322 48.1589 39.6967 48.7647 39.1159 48.9313C38.5353 49.0972 37.9295 48.7622 37.763 48.1816C36.7016 44.4835 33.27 41.9006 29.418 41.9006C24.6311 41.9006 20.7367 45.795 20.7367 50.5819ZM44.4681 38.7517C44.5628 38.6572 44.5628 38.5033 44.4681 38.4088L41.5911 35.5317C41.5325 35.473 41.4655 35.4606 41.4195 35.4606C41.3738 35.4606 41.3066 35.473 41.248 35.5317C39.6188 37.1606 37.2823 37.6244 35.1506 36.7414C33.0189 35.8585 31.6947 33.8786 31.6947 31.5746C31.6947 31.441 31.5859 31.3321 31.4522 31.3321H27.3836C27.25 31.3321 27.1411 31.4408 27.1411 31.5746C27.1411 33.8786 25.8167 35.8585 23.6852 36.7414C21.5534 37.6247 19.217 37.161 17.5878 35.5317C17.5292 35.473 17.462 35.4606 17.4163 35.4606C17.3703 35.4606 17.3033 35.473 17.2447 35.5316L14.3677 38.4088C14.2731 38.5033 14.2731 38.6572 14.3677 38.7517C15.9969 40.3811 16.4605 42.7174 15.5773 44.8491C14.6945 46.9808 12.7147 48.3049 10.4106 48.3049C10.2769 48.3049 10.168 48.4136 10.168 48.5475V52.6161C10.168 52.7497 10.2767 52.8586 10.4106 52.8586C12.7145 52.8586 14.6944 54.1828 15.5773 56.3144C16.4603 58.4463 15.9969 60.7827 14.3677 62.4119C14.3089 62.4706 14.2966 62.5377 14.2966 62.5836C14.2966 62.6294 14.3089 62.6964 14.3675 62.755L17.2447 65.632C17.3033 65.6908 17.3703 65.7031 17.4163 65.7031C17.462 65.7031 17.5292 65.6908 17.5878 65.632C19.2188 64.0011 21.5555 63.5363 23.6864 64.4191C25.8173 65.3016 27.1411 67.2827 27.1411 69.5892C27.1411 69.7228 27.2498 69.8317 27.3836 69.8317H31.4522C31.5858 69.8317 31.6947 69.723 31.6947 69.5892C31.6947 67.2852 33.0191 65.3053 35.1506 64.4224C37.2827 63.5394 39.6189 64.0031 41.248 65.632C41.3066 65.6908 41.3738 65.7031 41.4195 65.7031C41.4655 65.7031 41.5325 65.6908 41.5911 65.6322L41.933 65.2903C42.3602 64.8635 43.0527 64.8635 43.4798 65.2903C43.9069 65.7175 43.9069 66.41 43.4798 66.8372L43.138 67.1791C42.6791 67.638 42.0688 67.8908 41.4195 67.8908C40.7705 67.8908 40.16 67.638 39.7011 67.1791C38.5158 65.9935 37.0056 66.0217 35.9877 66.4435C34.9697 66.865 33.882 67.9128 33.882 69.5894C33.882 70.9292 32.7919 72.0194 31.452 72.0194H27.3834C26.0436 72.0194 24.9534 70.9292 24.9534 69.5894C24.9534 67.9102 23.8664 66.8616 22.8491 66.4402C21.8319 66.0192 20.3219 65.9916 19.1345 67.1791C18.6755 67.6381 18.0652 67.891 17.4161 67.891C16.7669 67.891 16.1564 67.6381 15.6977 67.1791L12.8206 64.3022C12.3617 63.8433 12.1089 63.233 12.1089 62.5839C12.1089 61.9347 12.3617 61.3242 12.8208 60.8655C14.0063 59.68 13.978 58.1699 13.5563 57.1517C13.1347 56.1339 12.0869 55.0463 10.4105 55.0463C9.07047 55.0463 7.98031 53.9561 7.98031 52.6163V48.5477C7.98031 47.2077 9.07047 46.1175 10.4105 46.1175C12.0869 46.1175 13.1347 45.0299 13.5563 44.0121C13.978 42.9941 14.0061 41.4839 12.8206 40.2986C11.8733 39.3511 11.8733 37.8092 12.8206 36.8617L15.6977 33.9847C16.1566 33.5258 16.7669 33.273 17.4161 33.273C18.0652 33.273 18.6756 33.5258 19.1345 33.9847C20.3202 35.1705 21.8302 35.1424 22.848 34.7203C23.8659 34.2988 24.9536 33.251 24.9536 31.5744C24.9536 30.2346 26.0438 29.1444 27.3836 29.1444H31.4522C32.792 29.1444 33.8822 30.2346 33.8822 31.5744C33.8822 33.2508 34.9698 34.2988 35.9878 34.7203C37.0058 35.1424 38.5159 35.1702 39.7013 33.9847C40.1603 33.5258 40.7706 33.273 41.4197 33.273C42.0689 33.273 42.6794 33.5258 43.1381 33.9849L46.0152 36.8617C46.9625 37.8092 46.9625 39.3511 46.0152 40.2986C45.7233 40.5903 45.4906 40.9175 45.3233 41.2708C45.0648 41.8167 44.4127 42.05 43.8667 41.7914C43.3208 41.533 43.0877 40.8808 43.3461 40.3349C43.6209 39.7541 43.9984 39.2216 44.4681 38.7517ZM54.1164 44.4339C48.7773 44.4339 44.4338 48.7775 44.4338 54.1166C44.4338 59.4556 48.7773 63.7994 54.1164 63.7994C59.4555 63.7994 63.7992 59.4556 63.7992 54.1166C63.7992 48.7775 59.4555 44.4339 54.1164 44.4339ZM54.1164 61.6119C49.9836 61.6119 46.6213 58.2494 46.6213 54.1166C46.6213 49.9838 49.9836 46.6214 54.1164 46.6214C58.2492 46.6214 61.6117 49.9838 61.6117 54.1166C61.6117 58.2494 58.2492 61.6119 54.1164 61.6119ZM77.8189 72.2346L69.39 63.8058C68.8905 63.3061 68.2245 63.031 67.515 63.031C67.3484 63.031 67.1845 63.0475 67.0244 63.0772L65.237 61.2897C66.5759 59.221 67.3572 56.7591 67.3572 54.1167C67.3572 46.816 61.4175 40.8764 54.1169 40.8764C46.8159 40.8764 40.8764 46.8161 40.8764 54.1167C40.8764 61.4174 46.8161 67.3571 54.1169 67.3571C56.7592 67.3571 59.2211 66.576 61.2897 65.237L63.0769 67.0241C62.9213 67.8558 63.1639 68.748 63.8061 69.3902L72.2352 77.8191C72.7522 78.336 73.4309 78.5942 74.11 78.5942C74.7891 78.5942 75.4681 78.336 75.9852 77.8191L77.8194 75.9847C78.8527 74.9508 78.8527 73.2685 77.8189 72.2346ZM43.0636 54.1166C43.0636 48.0221 48.0219 43.0638 54.1166 43.0638C60.2111 43.0638 65.1694 48.0221 65.1694 54.1166C65.1694 60.2111 60.2111 65.1694 54.1166 65.1694C48.0219 65.1694 43.0636 60.2111 43.0636 54.1166ZM63.8913 63.0375L65.1495 64.296L64.2959 65.1496L63.0375 63.8913C63.3348 63.6197 63.6197 63.3349 63.8913 63.0375ZM76.272 74.4378L74.438 76.2721C74.2602 76.45 73.9594 76.4502 73.7816 76.2721L65.3527 67.8431C65.1747 67.6653 65.1747 67.3647 65.3527 67.1869L67.1869 65.3527C67.3034 65.236 67.4425 65.2186 67.515 65.2186C67.5875 65.2186 67.7266 65.236 67.8433 65.3527L76.2722 73.7814C76.45 73.9592 76.45 74.26 76.272 74.4378ZM37.8708 76.1694C38.0366 76.7503 37.7 77.3555 37.1191 77.5213C34.6261 78.2328 32.035 78.5935 29.418 78.5935C13.9722 78.5935 1.40625 66.0275 1.40625 50.5819C1.40625 40.2388 7.08906 30.8149 16.0705 25.9475L14.4466 25.3758C13.8769 25.1753 13.5775 24.5508 13.7781 23.981C13.9786 23.4113 14.6031 23.1119 15.173 23.3125L19.2884 24.7613C19.8581 24.9617 20.1575 25.5863 19.9569 26.1561L18.508 30.2721C18.3073 30.8419 17.6827 31.1411 17.1131 30.9405C16.5434 30.74 16.2441 30.1155 16.4447 29.5456L17.0156 27.9238C8.79188 32.4264 3.59391 41.0838 3.59391 50.5819C3.59391 64.8214 15.1787 76.406 29.4181 76.406C31.832 76.406 34.2211 76.0735 36.5189 75.4177C37.0984 75.2525 37.7048 75.5881 37.8708 76.1694ZM20.9652 24.9942C20.7994 24.4133 21.1359 23.8081 21.7169 23.6424C24.2098 22.9308 26.8009 22.5702 29.418 22.5702C39.6378 22.5702 49.0488 28.1399 53.9781 37.1053C54.2692 37.6347 54.0761 38.2997 53.5467 38.5906C53.3795 38.6825 53.1987 38.7261 53.0206 38.7261C52.6345 38.7261 52.2605 38.5213 52.0613 38.1591C47.5163 29.8928 38.8398 24.7575 29.418 24.7575C27.0041 24.7575 24.615 25.09 22.3172 25.7458C21.7367 25.9113 21.1311 25.5753 20.9652 24.9942ZM49.2069 68.8613C49.6336 69.2888 49.6331 69.9814 49.2055 70.408C47.2844 72.3255 45.1255 73.9366 42.7655 75.216L44.3894 75.7877C44.9591 75.9881 45.2584 76.6127 45.0578 77.1825C44.8995 77.6322 44.4772 77.9135 44.0261 77.9135C43.9056 77.9135 43.783 77.8933 43.663 77.8511L39.5475 76.4024C38.9778 76.2019 38.6784 75.5774 38.8791 75.0075L40.328 70.8916C40.5286 70.3217 41.153 70.0227 41.7228 70.2231C42.2925 70.4236 42.5919 71.0481 42.3913 71.618L41.8203 73.2399C43.9578 72.0689 45.9152 70.6016 47.66 68.86C48.0877 68.433 48.7803 68.4338 49.2069 68.8613Z" fill="#393939"/>
</svg>
