<svg width="80" height="80" viewBox="0 0 80 80" fill="none" xmlns="http://www.w3.org/2000/svg">
<path d="M62.3149 51.9928L58.3231 50.1523L56.9497 46.8369L58.4677 42.707C58.6147 42.3069 58.516 41.8577 58.2144 41.5562L54.2414 37.5833C53.9399 37.2817 53.4906 37.183 53.0906 37.33L48.9605 38.848L45.6492 37.4784L43.8045 33.4823C43.6258 33.095 43.2381 32.847 42.8116 32.847H37.191C36.7644 32.847 36.3767 33.095 36.198 33.4823L34.3535 37.4781L31.0381 38.848L26.9122 37.3302C26.5122 37.183 26.0631 37.2814 25.7616 37.5828L21.7842 41.5558C21.4822 41.8575 21.3835 42.3073 21.531 42.7078L23.0528 46.8373L21.6795 50.1523L17.6878 51.9928C17.3003 52.1716 17.052 52.5592 17.052 52.9861V58.6067C17.052 59.0331 17.2999 59.4206 17.687 59.5995L21.6792 61.4442L23.0527 64.7597L21.5308 68.8892C21.3833 69.2897 21.482 69.7395 21.7842 70.0414L24.8142 73.0677C24.5731 74.1819 24.7545 75.3384 25.3611 76.3869C26.2275 77.8886 27.7191 78.75 29.4531 78.75H50.5489C52.2774 78.75 53.7683 77.8897 54.6419 76.3853C55.2439 75.3378 55.4242 74.1828 55.1852 73.0697L58.2141 70.0409C58.5155 69.7395 58.6144 69.2903 58.4674 68.8902L56.9494 64.7603L58.3231 61.4442L62.3153 59.5995C62.7025 59.4206 62.9503 59.0331 62.9503 58.6067V52.9861C62.9503 52.5594 62.702 52.1716 62.3145 51.9928H62.3149ZM52.7481 75.2911C52.272 76.1111 51.4911 76.5625 50.5494 76.5625H29.4536C28.5088 76.5625 27.7283 76.1119 27.2556 75.2927C26.7825 74.4748 26.7825 73.5741 27.2561 72.7553L32.531 63.6181L37.8072 54.4833C38.2767 53.6662 39.0552 53.2161 39.9991 53.2161C40.943 53.2161 41.7258 53.6661 42.1955 54.4833L52.7456 72.7533C53.2167 73.573 53.2167 74.4756 52.7481 75.2909V75.2911ZM44.0922 53.3934C43.2285 51.8906 41.7366 51.0288 39.9992 51.0288C38.2619 51.0288 36.7744 51.8906 35.9119 53.3914L31.5508 60.9416C30.7264 59.4912 30.2949 57.8592 30.2949 56.1617C30.2949 50.8083 34.6481 46.453 39.9992 46.453C45.3503 46.453 49.7081 50.8083 49.7081 56.1617C49.7081 57.8548 49.276 59.4869 48.4508 60.9411L44.0924 53.3934H44.0922ZM60.763 57.9072L57.0175 59.6378C56.768 59.7531 56.5711 59.9581 56.4658 60.212L54.765 64.3178C54.6599 64.5717 54.6542 64.8558 54.7489 65.1138L56.1731 68.9884L54.2235 70.9381L49.6808 63.0716C51.1291 61.0423 51.8955 58.6566 51.8955 56.1617C51.8955 49.6022 46.5588 44.2655 39.9991 44.2655C33.4394 44.2655 28.1072 49.6022 28.1072 56.1617C28.1072 58.6625 28.8733 61.048 30.321 63.0708L25.7786 70.9391L23.8256 68.9888L25.2533 65.1148C25.3485 64.8567 25.3428 64.5722 25.2375 64.318L23.5367 60.2122C23.4316 59.9583 23.2345 59.7533 22.985 59.638L19.2395 57.9073V53.6864L22.9841 51.9598C23.2339 51.8445 23.4313 51.6394 23.5366 51.3852L25.2374 47.2794C25.3427 47.0252 25.3483 46.7406 25.2531 46.4825L23.8255 42.6088L26.8127 39.6247L30.6831 41.0486C30.9408 41.1434 31.2247 41.1378 31.4785 41.033L35.5842 39.3366C35.8388 39.2314 36.0442 39.0341 36.1597 38.7841L37.8905 35.0347H42.1116L43.8424 38.7841C43.9577 39.0341 44.163 39.2313 44.4174 39.3364L48.5188 41.0328C48.7724 41.1375 49.0563 41.1433 49.3141 41.0488L53.1888 39.6247L56.1728 42.6088L54.7486 46.4834C54.6539 46.7414 54.6595 47.0255 54.7647 47.2794L56.4655 51.3852C56.5708 51.6394 56.7681 51.8445 57.018 51.9598L60.7625 53.6864V57.9073L60.763 57.9072ZM41.6424 61.242L41.3944 67.6288C41.3545 68.395 40.7655 69.0239 39.9992 69.0239C39.2374 69.0239 38.6395 68.395 38.6085 67.6288L38.356 61.242C38.3117 60.3384 39.0956 59.5988 39.9991 59.5988C40.9025 59.5988 41.691 60.3384 41.6424 61.242ZM41.3944 71.863C41.3944 72.6336 40.7699 73.2581 39.9992 73.2581C39.233 73.2581 38.6085 72.6336 38.6085 71.863C38.6085 71.0923 39.233 70.4678 39.9992 70.4678C40.7699 70.4678 41.3944 71.0923 41.3944 71.863ZM71.0636 32.803C70.2874 25.1522 66.7122 18.0777 60.9969 12.8828C55.5111 7.89656 48.4797 5.04781 41.093 4.79203V2.34375C41.093 1.73969 40.6033 1.25 39.9992 1.25C39.3952 1.25 38.9055 1.73969 38.9055 2.34375V4.79219C31.5203 5.04891 24.4906 7.8975 19.006 12.8828C13.2906 18.0777 9.71564 25.152 8.93923 32.803C8.88798 33.3075 9.19033 33.7809 9.66939 33.9469C10.1485 34.113 10.6789 33.9278 10.9506 33.4998C11.9297 31.9584 14.765 28.3734 19.9353 28.3734C23.6339 28.3734 27.6088 30.5786 28.9845 33.3937C29.157 33.7466 29.5053 33.9798 29.897 34.005C30.2895 34.0292 30.6642 33.8433 30.8803 33.5155C31.2274 32.9891 34.4311 28.3734 39.9991 28.3734C45.567 28.3734 48.7753 32.9892 49.1224 33.5155C49.3385 33.8433 49.7141 34.0288 50.1056 34.005C50.4975 33.9798 50.8458 33.7466 51.0181 33.3937C52.3939 30.5786 56.3688 28.3734 60.0674 28.3734C65.2378 28.3734 68.073 31.9584 69.052 33.4998C69.257 33.8227 69.6091 34.0073 69.9755 34.0073C70.0947 34.0073 70.2156 33.9878 70.3333 33.947C70.8124 33.7811 71.1145 33.3077 71.0635 32.8031L71.0636 32.803ZM19.9353 26.1858C16.2674 26.1858 13.5577 27.715 11.7364 29.2964C14.3972 17.9064 23.6358 9.29219 35.1144 7.36516C33.9066 8.74734 32.8141 10.6605 31.8855 13.0587C30.1316 17.5884 29.0895 23.4475 28.9038 29.7344C26.6227 27.5991 23.2275 26.1858 19.9353 26.1858ZM39.9992 26.1858C35.922 26.1858 32.9135 28.2139 31.0861 29.9472C31.2519 23.8491 32.2452 18.1883 33.9255 13.8484C35.6208 9.46984 37.8347 6.95859 39.9994 6.95859C42.1641 6.95859 44.3778 9.46984 46.0731 13.8484C47.7531 18.1875 48.7463 23.8464 48.9124 29.9431C47.0841 28.2108 44.0758 26.1858 39.9994 26.1858H39.9992ZM60.0675 26.1858C56.7733 26.1858 53.3758 27.6008 51.0947 29.7383C50.9092 23.4498 49.8672 17.5892 48.113 13.0586C47.1842 10.6597 46.0914 8.74641 44.8833 7.36422C56.3644 9.28953 65.6053 17.9045 68.2663 29.2962C66.4452 27.715 63.7355 26.1858 60.0675 26.1858Z" fill="#393939"/>
</svg>
