<svg width="45" height="45" viewBox="0 0 45 45" fill="none" xmlns="http://www.w3.org/2000/svg">
<path d="M5.625 8.6775L22.5084 3.75L39.375 8.6775V18.7819C39.3743 23.9602 37.7445 29.0071 34.7164 33.2078C31.6883 37.4084 27.4154 40.55 22.5028 42.1875C17.5884 40.5507 13.3137 37.4089 10.2845 33.2072C7.25523 29.0055 5.62508 23.957 5.625 18.7772V8.6775Z" stroke="url(#paint0_linear_1459_2998)" stroke-width="3.62903" stroke-linejoin="round"/>
<path d="M25.7607 22.7L23.388 21.3248L24.5841 18.4541C24.6259 18.3689 24.6453 18.2744 24.6406 18.1796C24.6359 18.0848 24.6072 17.9927 24.5572 17.912C24.5073 17.8313 24.4376 17.7646 24.3549 17.7181C24.2721 17.6716 24.1789 17.6469 24.084 17.6462C23.9578 17.6458 23.8351 17.688 23.736 17.766L23.6968 17.7995L19.5007 21.7718C19.4376 21.8317 19.3894 21.9055 19.3597 21.9873C19.3301 22.0691 19.3199 22.1566 19.3299 22.243C19.34 22.3294 19.37 22.4123 19.4176 22.4851C19.4652 22.5579 19.5291 22.6187 19.6042 22.6625L21.9775 24.0388L20.7674 26.9425C20.7175 27.0609 20.7099 27.193 20.7459 27.3163C20.782 27.4397 20.8595 27.5469 20.9653 27.6198C21.0712 27.6927 21.1989 27.7269 21.327 27.7167C21.4551 27.7064 21.5758 27.6523 21.6687 27.5635L25.8648 23.5901C25.9277 23.5302 25.9758 23.4564 26.0054 23.3747C26.0349 23.2929 26.045 23.2054 26.0349 23.1191C26.0249 23.0327 25.9948 22.9499 25.9472 22.8772C25.8996 22.8045 25.8358 22.7438 25.7607 22.7Z" fill="url(#paint1_linear_1459_2998)"/>
<defs>
<linearGradient id="paint0_linear_1459_2998" x1="22.5" y1="3.75" x2="22.5" y2="42.1875" gradientUnits="userSpaceOnUse">
<stop stop-color="#4B9ADB"/>
<stop offset="1" stop-color="#9747FF"/>
</linearGradient>
<linearGradient id="paint1_linear_1459_2998" x1="22.6825" y1="17.6462" x2="22.6825" y2="27.7185" gradientUnits="userSpaceOnUse">
<stop stop-color="#4B9ADB"/>
<stop offset="1" stop-color="#9747FF"/>
</linearGradient>
</defs>
</svg>
