<svg width="24" height="24" viewBox="0 0 24 24" fill="none" xmlns="http://www.w3.org/2000/svg">
<g clip-path="url(#clip0_1525_2538)">
<path d="M15.5793 3.66815C15.0029 3.66815 14.5312 4.13977 14.5312 4.71619C14.5312 5.29261 15.0029 5.76422 15.5793 5.76422C16.8369 5.76422 17.8325 6.75985 17.8325 8.0175C17.8325 8.59392 18.3042 9.06553 18.8806 9.06553C19.457 9.06553 19.9286 8.59392 19.9286 8.0175C19.981 5.65942 17.9898 3.66815 15.5793 3.66815Z" fill="#9747FF"/>
<path d="M15.5793 0C15.0029 0 14.5312 0.471616 14.5312 1.04804C14.5312 1.62445 15.0029 2.09607 15.5793 2.09607C18.8282 2.09607 21.5006 4.76856 21.5006 8.01747C21.5006 8.59389 21.9723 9.0655 22.5487 9.0655C23.1251 9.0655 23.5967 8.59389 23.5967 8.01747C23.5968 3.61572 19.981 0 15.5793 0Z" fill="#9747FF"/>
<path d="M18.3032 14.5677C18.1984 14.096 17.8316 13.7817 17.36 13.7817H17.098L16.8884 11.6332C16.6787 9.2227 14.6875 7.44104 12.277 7.44104H7.19404C4.78356 7.44104 2.7923 9.2751 2.58269 11.6332L2.42548 13.7817H2.16347C1.69186 13.7817 1.32505 14.096 1.22024 14.5677L0.434217 19.0742C0.329414 19.6506 0.486619 20.1747 0.853431 20.6463C1.22024 21.0655 1.74426 21.3275 2.26828 21.3275V22.0612C2.26828 23.1092 3.10671 24 4.15474 24H4.73116C5.7792 24 6.61762 23.1616 6.61762 22.0612V21.3275H12.8534V22.0612C12.8534 23.1092 13.6919 24 14.7923 24H15.3687C16.4168 24 17.3076 23.1616 17.3076 22.0612V21.3275C17.8316 21.3275 18.3556 21.0655 18.7225 20.6463C19.0893 20.2271 19.2465 19.6506 19.1416 19.0742L18.3032 14.5677ZM3.89273 19.5982C3.0019 19.5982 2.26828 18.8646 2.26828 17.9738C2.26828 17.083 3.0019 16.3493 3.89273 16.3493C4.78356 16.3493 5.51719 17.083 5.51719 17.9738C5.51719 18.8646 4.78356 19.5982 3.89273 19.5982ZM4.57396 13.7817L4.78356 11.8428C4.88837 10.5327 5.9888 9.58951 7.24644 9.58951H12.3294C13.6395 9.58951 14.6875 10.5851 14.7923 11.8428L15.0019 13.7817H4.57396ZM15.6307 19.5982C14.7399 19.5982 14.0063 18.8646 14.0063 17.9738C14.0063 17.083 14.7399 16.3494 15.6307 16.3494C16.5215 16.3494 17.2552 17.083 17.2552 17.9738C17.2552 18.8646 16.5216 19.5982 15.6307 19.5982Z" fill="#9747FF"/>
</g>
<defs>
<clipPath id="clip0_1525_2538">
<rect width="24" height="24" fill="white"/>
</clipPath>
</defs>
</svg>
