<svg width="80" height="80" viewBox="0 0 80 80" fill="none" xmlns="http://www.w3.org/2000/svg">
<g clip-path="url(#clip0_1808_4723)">
<path d="M73.3346 37.833V11.833C73.3346 9.62751 71.5401 7.83301 69.3346 7.83301H10.668C8.46247 7.83301 6.66797 9.62751 6.66797 11.833V33.3867C6.66797 34.123 7.26497 34.72 8.0013 34.72C8.73764 34.72 9.33464 34.123 9.33464 33.3867V11.833C9.33464 11.0978 9.9328 10.4997 10.668 10.4997H69.3346C70.0698 10.4997 70.668 11.0978 70.668 11.833V37.833C70.668 38.5682 70.0698 39.1663 69.3346 39.1663H10.668C9.93164 39.1663 9.33464 39.7633 9.33464 40.4997C9.33464 41.236 9.93164 41.833 10.668 41.833H69.3346C71.5401 41.833 73.3346 40.0385 73.3346 37.833Z" fill="url(#paint0_linear_1808_4723)"/>
<path d="M48.7257 18.9772C39.6265 15.0101 36.0235 20.4266 31.2788 18.8782C30.5787 18.6496 29.8258 19.0316 29.5975 19.7319C29.3688 20.4317 29.7512 21.1846 30.4512 21.4131C36.1273 23.2672 39.106 18.4139 46.1977 20.8441C42.6523 27.3026 47.3577 35.1667 54.6668 35.1667C59.997 35.1667 64.3335 30.8302 64.3335 25.5001C64.3335 20.5251 60.6062 16.3912 55.6633 15.8844C54.932 15.8099 54.276 16.3422 54.201 17.0747C54.1258 17.8074 54.6588 18.4621 55.3913 18.5371C58.969 18.9039 61.6668 21.8974 61.6668 25.5001C61.6668 29.3599 58.5267 32.5001 54.6668 32.5001C50.807 32.5001 47.6668 29.3599 47.6668 25.5001C47.6668 23.8832 48.231 22.3062 49.255 21.0597C49.794 20.4082 49.6042 19.3604 48.7257 18.9772Z" fill="url(#paint1_linear_1808_4723)"/>
<path d="M17.5748 20.037C20.0585 18.8545 22.1767 18.5055 24.2402 18.939C24.9605 19.0896 25.6675 18.6288 25.8192 17.9081C25.9705 17.1875 25.5092 16.4806 24.7883 16.3291C22.16 15.777 19.4253 16.2021 16.4283 17.6293C15.7635 17.9458 15.4812 18.7415 15.7978 19.4063C16.1143 20.0713 16.9105 20.3536 17.5748 20.037Z" fill="url(#paint2_linear_1808_4723)"/>
<path d="M15.7978 29.4064C16.1139 30.0711 16.9093 30.3542 17.5748 30.0369C25.3564 26.3324 27.6378 31.8559 33.1009 31.8559C35.3988 31.8559 37.3978 30.9167 39.6354 30.4319C40.3549 30.2759 40.8121 29.5661 40.6559 28.8462C40.4998 28.1264 39.7903 27.6699 39.0703 27.8257C36.5386 28.3746 34.6159 29.3329 32.6556 29.1709C28.7249 28.8437 25.0069 23.5447 16.4283 27.6292C15.7634 27.9461 15.4813 28.7416 15.7978 29.4064Z" fill="url(#paint3_linear_1808_4723)"/>
<path d="M74.6667 0.666504H5.33333C2.3925 0.666504 0 3.059 0 5.99984V73.9998C0 76.9407 2.3925 79.3332 5.33333 79.3332H64.6667C65.403 79.3332 66 78.7362 66 77.9998C66 77.2635 65.403 76.6665 64.6667 76.6665H5.33333C3.863 76.6665 2.66667 75.4702 2.66667 73.9998V5.99984C2.66667 4.5295 3.863 3.33317 5.33333 3.33317H74.6667C76.137 3.33317 77.3333 4.5295 77.3333 5.99984V73.9998C77.3333 75.4702 76.137 76.6665 74.6667 76.6665H74.3172C73.5808 76.6665 72.9838 77.2635 72.9838 77.9998C72.9838 78.7362 73.5808 79.3332 74.3172 79.3332H74.6667C77.6075 79.3332 80 76.9407 80 73.9998V5.99984C80 3.059 77.6075 0.666504 74.6667 0.666504Z" fill="url(#paint4_linear_1808_4723)"/>
<path d="M73.3346 65.8332C73.3346 63.6277 71.5401 61.8332 69.3346 61.8332H39.168V57.3332H54.168C54.9043 57.3332 55.5013 56.7362 55.5013 55.9998C55.5013 55.2635 54.9043 54.6665 54.168 54.6665H39.168V50.4998H59.0013V55.9998C59.0013 56.7362 59.5983 57.3332 60.3346 57.3332H69.3346C71.5401 57.3332 73.3346 55.5387 73.3346 53.3332V51.8332C73.3346 49.6277 71.5401 47.8332 69.3346 47.8332H39.168V46.4998C39.168 45.7635 38.571 45.1665 37.8346 45.1665C37.0983 45.1665 36.5013 45.7635 36.5013 46.4998V54.6665H27.168C26.4328 54.6665 25.8346 54.0683 25.8346 53.3332V51.8332C25.8346 51.098 26.4328 50.4998 27.168 50.4998H31.3508C32.0871 50.4998 32.6841 49.9028 32.6841 49.1665C32.6841 48.4302 32.0871 47.8332 31.3508 47.8332H27.168C24.9625 47.8332 23.168 49.6277 23.168 51.8332V53.3332C23.168 55.5387 24.9625 57.3332 27.168 57.3332H36.5013V68.6665H27.168C26.4328 68.6665 25.8346 68.0683 25.8346 67.3332V65.8332C25.8346 65.098 26.4328 64.4998 27.168 64.4998H31.1841C31.9205 64.4998 32.5175 63.9028 32.5175 63.1665C32.5175 62.4302 31.9205 61.8332 31.1841 61.8332H27.168C24.9625 61.8332 23.168 63.6277 23.168 65.8332V67.3332C23.168 69.5387 24.9625 71.3332 27.168 71.3332H36.5013V72.9998C36.5013 73.7362 37.0983 74.3332 37.8346 74.3332C38.571 74.3332 39.168 73.7362 39.168 72.9998V71.3332H54.168C54.9043 71.3332 55.5013 70.7362 55.5013 69.9998V64.4998H69.3346C70.0698 64.4998 70.668 65.098 70.668 65.8332V67.3332C70.668 68.0683 70.0698 68.6665 69.3346 68.6665H60.8131C60.0768 68.6665 59.4798 69.2635 59.4798 69.9998C59.4798 70.7362 60.0768 71.3332 60.8131 71.3332H69.3346C71.5401 71.3332 73.3346 69.5387 73.3346 67.3332V65.8332ZM70.668 51.8332V53.3332C70.668 54.0683 70.0698 54.6665 69.3346 54.6665H61.668V50.4998H69.3346C70.0698 50.4998 70.668 51.098 70.668 51.8332ZM52.8346 68.6665H39.168V64.4998H52.8346V68.6665Z" fill="url(#paint5_linear_1808_4723)"/>
<path d="M18.9987 52.6663C18.9987 51.93 18.4017 51.333 17.6654 51.333H9.66536C8.92903 51.333 8.33203 51.93 8.33203 52.6663C8.33203 53.4027 8.92903 53.9997 9.66536 53.9997H17.6654C18.4017 53.9997 18.9987 53.4027 18.9987 52.6663Z" fill="url(#paint6_linear_1808_4723)"/>
<path d="M9.66536 65.333C8.92903 65.333 8.33203 65.93 8.33203 66.6663C8.33203 67.4027 8.92903 67.9997 9.66536 67.9997H15.9987C16.735 67.9997 17.332 67.4027 17.332 66.6663C17.332 65.93 16.735 65.333 15.9987 65.333H9.66536Z" fill="url(#paint7_linear_1808_4723)"/>
</g>
<defs>
<linearGradient id="paint0_linear_1808_4723" x1="40.0013" y1="7.83301" x2="40.0013" y2="41.833" gradientUnits="userSpaceOnUse">
<stop stop-color="#9747FF"/>
<stop offset="1" stop-color="#4B9ADB"/>
</linearGradient>
<linearGradient id="paint1_linear_1808_4723" x1="46.9324" y1="15.8774" x2="46.9324" y2="35.1667" gradientUnits="userSpaceOnUse">
<stop stop-color="#9747FF"/>
<stop offset="1" stop-color="#4B9ADB"/>
</linearGradient>
<linearGradient id="paint2_linear_1808_4723" x1="20.7579" y1="16.0957" x2="20.7579" y2="20.1668" gradientUnits="userSpaceOnUse">
<stop stop-color="#9747FF"/>
<stop offset="1" stop-color="#4B9ADB"/>
</linearGradient>
<linearGradient id="paint3_linear_1808_4723" x1="28.1772" y1="26.0898" x2="28.1772" y2="31.8559" gradientUnits="userSpaceOnUse">
<stop stop-color="#9747FF"/>
<stop offset="1" stop-color="#4B9ADB"/>
</linearGradient>
<linearGradient id="paint4_linear_1808_4723" x1="40" y1="0.666504" x2="40" y2="79.3332" gradientUnits="userSpaceOnUse">
<stop stop-color="#9747FF"/>
<stop offset="1" stop-color="#4B9ADB"/>
</linearGradient>
<linearGradient id="paint5_linear_1808_4723" x1="48.2513" y1="45.1665" x2="48.2513" y2="74.3332" gradientUnits="userSpaceOnUse">
<stop stop-color="#9747FF"/>
<stop offset="1" stop-color="#4B9ADB"/>
</linearGradient>
<linearGradient id="paint6_linear_1808_4723" x1="13.6654" y1="51.333" x2="13.6654" y2="53.9997" gradientUnits="userSpaceOnUse">
<stop stop-color="#9747FF"/>
<stop offset="1" stop-color="#4B9ADB"/>
</linearGradient>
<linearGradient id="paint7_linear_1808_4723" x1="12.832" y1="65.333" x2="12.832" y2="67.9997" gradientUnits="userSpaceOnUse">
<stop stop-color="#9747FF"/>
<stop offset="1" stop-color="#4B9ADB"/>
</linearGradient>
<clipPath id="clip0_1808_4723">
<rect width="80" height="80" fill="white"/>
</clipPath>
</defs>
</svg>
