<svg width="80" height="80" viewBox="0 0 80 80" fill="none" xmlns="http://www.w3.org/2000/svg">
<g clip-path="url(#clip0_1747_3574)">
<path d="M75.2516 40.7812H79.0625V39.2188H75.2516C75.0506 30.1398 71.3543 21.4884 64.933 15.067C58.5116 8.64565 49.8602 4.94944 40.7812 4.74844V0.9375H39.2188V4.74844C30.1398 4.94944 21.4884 8.64565 15.067 15.067C8.64565 21.4884 4.94944 30.1398 4.74844 39.2188H0.9375V40.7812H4.74844C4.94944 49.8602 8.64565 58.5116 15.067 64.933C21.4884 71.3543 30.1398 75.0506 39.2188 75.2516V79.0625H40.7812V75.2516C49.8602 75.0506 58.5116 71.3543 64.933 64.933C71.3543 58.5116 75.0506 49.8602 75.2516 40.7812ZM73.6891 39.2188H70.8016C70.3906 22.8484 57.15 9.60781 40.7812 9.19844V6.31094C58.75 6.71875 73.2812 21.25 73.6891 39.2188ZM61.0406 40.7812H69.2375C68.8297 56.2891 56.2906 68.8281 40.7812 69.2375V61.0406H39.2188V69.2375C23.7109 68.8297 11.1703 56.2906 10.7625 40.7812H18.9594V39.2188H10.7625C11.1703 23.7109 23.7094 11.1719 39.2188 10.7625V18.9594H40.7812V10.7625C56.2891 11.1703 68.8281 23.7094 69.2375 39.2188H61.0406V40.7812ZM39.2188 6.31094V9.19844C22.8484 9.60938 9.60781 22.85 9.19844 39.2188H6.31094C6.71875 21.2578 21.25 6.71875 39.2188 6.31094ZM6.31094 40.7812H9.19844C9.60938 57.1516 22.85 70.3922 39.2188 70.8016V73.6891C21.2578 73.2812 6.71875 58.75 6.31094 40.7812ZM40.7812 73.6891V70.8016C57.1516 70.3906 70.3922 57.15 70.8016 40.7812H73.6891C73.2812 58.75 58.75 73.2812 40.7812 73.6891Z" fill="#393939"/>
<path d="M54.3 35.0749C54.0143 35.0754 53.7349 34.9911 53.4972 34.8325C53.2595 34.674 53.0742 34.4484 52.9649 34.1845C52.8556 33.9205 52.8272 33.63 52.8832 33.3498C52.9392 33.0697 53.0772 32.8125 53.2797 32.6108C53.8424 32.0464 54.1583 31.282 54.1583 30.4851C54.1583 29.6881 53.8424 28.9237 53.2797 28.3593L51.0828 26.1624C50.5184 25.5997 49.754 25.2838 48.957 25.2838C48.1601 25.2838 47.3956 25.5997 46.8313 26.1624C46.6287 26.3613 46.372 26.4961 46.0932 26.55C45.8145 26.604 45.526 26.5746 45.2639 26.4656C45.0017 26.3566 44.7774 26.1728 44.6191 25.9372C44.4607 25.7015 44.3753 25.4244 44.3734 25.1405C44.3726 24.3435 44.0556 23.5793 43.492 23.0157C42.9284 22.4521 42.1642 22.1351 41.3672 22.1343H38.2531C37.4561 22.1351 36.6919 22.4521 36.1283 23.0157C35.5647 23.5793 35.2477 24.3435 35.2469 25.1405C35.2465 25.426 35.1616 25.705 35.0029 25.9423C34.8441 26.1796 34.6187 26.3646 34.3549 26.4739C34.0912 26.5832 33.801 26.612 33.5209 26.5565C33.2408 26.5011 32.9835 26.364 32.7812 26.1624C32.5022 25.883 32.1708 25.6614 31.8061 25.5102C31.4413 25.359 31.0503 25.2812 30.6555 25.2812C30.2606 25.2812 29.8696 25.359 29.5049 25.5102C29.1401 25.6614 28.8087 25.883 28.5297 26.1624L26.3328 28.3593C25.7702 28.9237 25.4542 29.6881 25.4542 30.4851C25.4542 31.282 25.7702 32.0464 26.3328 32.6108C26.5354 32.8125 26.6734 33.0699 26.7294 33.3502C26.7854 33.6305 26.7568 33.9211 26.6473 34.1852C26.5378 34.4492 26.3523 34.6748 26.1144 34.8332C25.8764 34.9916 25.5968 35.0757 25.3109 35.0749C24.5139 35.0757 23.7497 35.3927 23.1861 35.9563C22.6225 36.5199 22.3055 37.2841 22.3047 38.0812V41.189C22.3059 41.9859 22.6231 42.7498 23.1866 43.3133C23.7501 43.8768 24.514 44.194 25.3109 44.1952C25.5967 44.1947 25.8761 44.2791 26.1138 44.4376C26.3515 44.5961 26.5367 44.8217 26.646 45.0857C26.7554 45.3496 26.7838 45.6401 26.7277 45.9203C26.6717 46.2005 26.5337 46.4577 26.3313 46.6593C25.7686 47.2237 25.4526 47.9881 25.4526 48.7851C25.4526 49.582 25.7686 50.3464 26.3313 50.9108L28.5281 53.1077C29.0925 53.6704 29.857 53.9863 30.6539 53.9863C31.4509 53.9863 32.2153 53.6704 32.7797 53.1077C32.9818 52.9063 33.239 52.7691 33.519 52.7137C33.7989 52.6582 34.089 52.6868 34.3526 52.7959C34.6163 52.905 34.8418 53.0897 35.0007 53.3268C35.1595 53.5639 35.2447 53.8427 35.2453 54.128C35.2461 54.9251 35.5631 55.6893 36.1267 56.2529C36.6903 56.8165 37.4545 57.1334 38.2516 57.1343H41.3578C41.7533 57.1351 42.145 57.058 42.5107 56.9073C42.8763 56.7566 43.2086 56.5354 43.4887 56.2562C43.7688 55.977 43.9911 55.6453 44.1429 55.2801C44.2947 54.915 44.373 54.5235 44.3734 54.128C44.3741 53.8427 44.4592 53.5639 44.6181 53.3268C44.7769 53.0897 45.0024 52.905 45.2661 52.7959C45.5298 52.6868 45.8199 52.6582 46.0998 52.7137C46.3797 52.7691 46.6369 52.9063 46.8391 53.1077C47.4035 53.6704 48.1679 53.9863 48.9648 53.9863C49.7618 53.9863 50.5262 53.6704 51.0906 53.1077L53.2797 50.9108C53.8431 50.3468 54.1596 49.5823 54.1596 48.7851C54.1596 47.9879 53.8431 47.2233 53.2797 46.6593C53.0772 46.4577 52.9392 46.2005 52.8832 45.9203C52.8272 45.6401 52.8556 45.3496 52.9649 45.0857C53.0742 44.8217 53.2595 44.5961 53.4972 44.4376C53.7349 44.2791 54.0143 44.1947 54.3 44.1952C55.0969 44.194 55.8609 43.8768 56.4244 43.3133C56.9879 42.7498 57.305 41.9859 57.3062 41.189V38.0812C57.3054 37.2841 56.9884 36.5199 56.4248 35.9563C55.8612 35.3927 55.0971 35.0757 54.3 35.0749ZM55.7437 41.189C55.7433 41.5717 55.5911 41.9387 55.3204 42.2094C55.0498 42.4801 54.6828 42.6323 54.3 42.6327C53.7053 42.6323 53.1238 42.8083 52.6293 43.1385C52.1347 43.4687 51.7492 43.9383 51.5217 44.4878C51.2941 45.0372 51.2347 45.6418 51.351 46.225C51.4673 46.8082 51.7541 47.3438 52.175 47.764C52.4451 48.0351 52.5968 48.4023 52.5968 48.7851C52.5968 49.1678 52.4451 49.535 52.175 49.8062L49.9781 52.003C49.7069 52.2731 49.3398 52.4248 48.957 52.4248C48.5743 52.4248 48.2071 52.2731 47.9359 52.003C47.5152 51.585 46.9802 51.3008 46.3983 51.1862C45.8164 51.0715 45.2136 51.1316 44.6657 51.3587C44.1179 51.5859 43.6495 51.97 43.3194 52.4628C42.9894 52.9556 42.8125 53.5349 42.8109 54.128C42.8109 54.5109 42.6588 54.8782 42.3881 55.1489C42.1173 55.4197 41.7501 55.5718 41.3672 55.5718H38.2531C38.0635 55.5718 37.8758 55.5344 37.7006 55.4619C37.5255 55.3893 37.3663 55.283 37.2322 55.1489C37.0982 55.0149 36.9918 54.8557 36.9193 54.6805C36.8467 54.5054 36.8094 54.3176 36.8094 54.128C36.8157 53.5321 36.6419 52.9481 36.3106 52.4527C35.9794 51.9572 35.5062 51.5734 34.9531 51.3515C34.583 51.1959 34.1858 51.1152 33.7844 51.114C33.3917 51.1154 33.0032 51.1947 32.6414 51.3473C32.2796 51.4999 31.9516 51.7228 31.6766 52.003C31.4057 52.2731 31.0388 52.4247 30.6563 52.4247C30.2738 52.4247 29.9068 52.2731 29.6359 52.003L27.4391 49.8062C27.3047 49.6722 27.1982 49.513 27.1255 49.3378C27.0528 49.1626 27.0153 48.9748 27.0153 48.7851C27.0153 48.5954 27.0528 48.4075 27.1255 48.2323C27.1982 48.0571 27.3047 47.8979 27.4391 47.764C27.8594 47.3434 28.1455 46.8075 28.2613 46.2243C28.3771 45.641 28.3173 45.0365 28.0895 44.4873C27.8617 43.938 27.4761 43.4686 26.9815 43.1385C26.4869 42.8084 25.9056 42.6324 25.3109 42.6327C24.9283 42.6319 24.5615 42.4795 24.291 42.2089C24.0204 41.9384 23.868 41.5716 23.8672 41.189V38.0812C23.868 37.6985 24.0204 37.3318 24.291 37.0612C24.5615 36.7906 24.9283 36.6382 25.3109 36.6374C25.9054 36.6374 26.4866 36.4612 26.9809 36.1309C27.4753 35.8007 27.8606 35.3313 28.0882 34.7821C28.3158 34.2329 28.3755 33.6286 28.2597 33.0455C28.1438 32.4623 27.8577 31.9267 27.4375 31.5062C27.3034 31.3721 27.197 31.2129 27.1244 31.0377C27.0518 30.8625 27.0144 30.6747 27.0144 30.4851C27.0144 30.2954 27.0518 30.1076 27.1244 29.9324C27.197 29.7572 27.3034 29.598 27.4375 29.464L29.6344 27.2671C29.7682 27.1328 29.9272 27.0263 30.1023 26.9536C30.2774 26.8809 30.4651 26.8435 30.6547 26.8435C30.8443 26.8435 31.032 26.8809 31.2071 26.9536C31.3821 27.0263 31.5412 27.1328 31.675 27.2671C32.0954 27.6879 32.6312 27.9744 33.2146 28.0906C33.798 28.2067 34.4027 28.1472 34.9522 27.9195C35.5018 27.6918 35.9714 27.3062 36.3017 26.8116C36.632 26.3169 36.8081 25.7353 36.8078 25.1405C36.8082 24.7577 36.9605 24.3908 37.2311 24.1201C37.5018 23.8494 37.8688 23.6972 38.2516 23.6968H41.3578C41.5481 23.6957 41.7368 23.7323 41.9129 23.8044C42.0891 23.8765 42.2493 23.9826 42.3843 24.1168C42.5193 24.2509 42.6265 24.4104 42.6997 24.5861C42.7729 24.7618 42.8107 24.9502 42.8109 25.1405C42.8106 25.7353 42.9867 26.3169 43.3171 26.8116C43.6474 27.3062 44.117 27.6918 44.6665 27.9195C45.216 28.1472 45.8208 28.2067 46.4041 28.0906C46.9875 27.9744 47.5233 27.6879 47.9438 27.2671C48.0777 27.1328 48.2369 27.0262 48.4121 26.9535C48.5873 26.8808 48.7751 26.8434 48.9648 26.8434C49.1546 26.8434 49.3424 26.8808 49.5176 26.9535C49.6928 27.0262 49.852 27.1328 49.9859 27.2671L52.1828 29.464C52.4529 29.7351 52.6046 30.1023 52.6046 30.4851C52.6046 30.8678 52.4529 31.235 52.1828 31.5062C51.7619 31.9263 51.4752 32.4619 51.3589 33.0451C51.2425 33.6283 51.3019 34.2329 51.5295 34.7824C51.757 35.3318 52.1425 35.8014 52.6371 36.1316C53.1317 36.4618 53.7131 36.6379 54.3078 36.6374C54.6906 36.6378 55.0576 36.7901 55.3282 37.0607C55.5989 37.3314 55.7512 37.6984 55.7516 38.0812L55.7437 41.189Z" fill="#393939"/>
<path d="M39.807 28.7844C37.6611 28.7844 35.5634 29.4208 33.7791 30.613C31.9948 31.8052 30.6042 33.4997 29.7829 35.4823C28.9617 37.4649 28.7469 39.6465 29.1655 41.7512C29.5842 43.8558 30.6175 45.7891 32.1349 47.3065C33.6523 48.8239 35.5856 49.8573 37.6903 50.2759C39.795 50.6946 41.9766 50.4797 43.9592 49.6585C45.9417 48.8373 47.6363 47.4466 48.8285 45.6624C50.0207 43.8781 50.657 41.7804 50.657 39.6344C50.6537 36.7578 49.5095 34 47.4755 31.966C45.4414 29.9319 42.6836 28.7877 39.807 28.7844ZM39.807 48.9219C37.9701 48.9219 36.1745 48.3772 34.6472 47.3567C33.1199 46.3362 31.9295 44.8857 31.2265 43.1886C30.5236 41.4915 30.3396 39.6241 30.698 37.8225C31.0564 36.0209 31.9409 34.3661 33.2398 33.0672C34.5387 31.7683 36.1935 30.8837 37.9951 30.5254C39.7967 30.167 41.6641 30.3509 43.3612 31.0539C45.0583 31.7568 46.5088 32.9472 47.5293 34.4746C48.5498 36.0019 49.0945 37.7975 49.0945 39.6344C49.0916 42.0967 48.1122 44.4574 46.3711 46.1985C44.63 47.9396 42.2693 48.919 39.807 48.9219Z" fill="#393939"/>
<path d="M37.8859 43.2343L34.2672 40.2062L33.2656 41.4046L38.0828 45.4343L46.4453 35.4359L45.2469 34.4343L37.8859 43.2343Z" fill="#393939"/>
</g>
<defs>
<clipPath id="clip0_1747_3574">
<rect width="80" height="80" fill="white"/>
</clipPath>
</defs>
</svg>
