<svg width="80" height="80" viewBox="0 0 80 80" fill="none" xmlns="http://www.w3.org/2000/svg">
<path d="M61.3356 16.8277C61.9654 16.8277 62.4758 16.317 62.4758 15.6874C62.4758 15.0578 61.9652 14.5469 61.3356 14.5469C60.706 14.5469 60.1953 15.0575 60.1953 15.6874C60.1953 16.3173 60.7057 16.8277 61.3356 16.8277Z" fill="url(#paint0_linear_1808_4448)"/>
<path d="M46.8048 14.2166C47.0131 14.4249 47.2861 14.5291 47.5589 14.5291C47.8317 14.5291 48.1048 14.4249 48.3131 14.2166L49.0672 13.4625L49.8213 14.2166C50.0296 14.4249 50.3027 14.5291 50.5755 14.5291C50.8483 14.5291 51.1213 14.4249 51.3296 14.2166C51.7461 13.8001 51.7461 13.1249 51.3296 12.7083L50.5755 11.9542L51.3296 11.2001C51.7461 10.7835 51.7461 10.1083 51.3296 9.69179C50.9131 9.27526 50.2379 9.27526 49.8213 9.69179L49.0672 10.4459L48.3131 9.69179C47.8965 9.27526 47.2213 9.27526 46.8048 9.69179C46.3883 10.1083 46.3883 10.7835 46.8048 11.2001L47.5589 11.9542L46.8048 12.7083C46.388 13.1251 46.388 13.8001 46.8048 14.2166Z" fill="url(#paint1_linear_1808_4448)"/>
<path d="M16.5404 41.4625C17.0142 42.1734 17.7366 42.6577 18.5748 42.8254C18.7862 42.8676 18.9982 42.8884 19.2092 42.8884C19.8342 42.8884 20.4457 42.7046 20.978 42.3497C21.6889 41.8758 22.1732 41.1534 22.3409 40.3148C22.5086 39.4766 22.3393 38.623 21.8654 37.9121L19.054 33.695L24.795 27.954H30.6774L36.4185 33.695L33.607 37.9121C33.1332 38.623 32.9639 39.4766 33.1316 40.3148C33.2993 41.1534 33.7836 41.8758 34.494 42.3492C35.0212 42.7012 35.634 42.8873 36.2673 42.8873C37.3412 42.8873 38.3372 42.3545 38.9318 41.4622L43.1985 35.0622C44.0422 33.7972 43.874 32.0993 42.7985 31.0246L34.2652 22.4913C33.6609 21.8865 32.8574 21.5537 32.0028 21.5537H30.9361V16.2204H35.2028C35.6924 16.2204 36.119 15.887 36.2377 15.4126L37.3044 11.146C37.447 10.574 37.0996 9.99504 36.5284 9.8521C35.9585 9.70944 35.378 10.0569 35.2345 10.6281L34.37 14.087H21.1022L20.2377 10.6281C20.0945 10.0566 19.5137 9.70944 18.9438 9.8521C18.3724 9.99477 18.0252 10.574 18.1678 11.146L19.2345 15.4126C19.3532 15.887 19.7798 16.2204 20.2694 16.2204H24.5361V21.5537H23.4694C22.6148 21.5537 21.811 21.8865 21.207 22.4913L12.6737 31.0241C11.5982 32.099 11.43 33.7969 12.2737 35.0622L16.5404 41.4625ZM14.182 32.5334L22.7153 24.0001C22.9142 23.8017 23.1886 23.6876 23.4694 23.6876H25.6028C26.1918 23.6876 26.6694 23.21 26.6694 22.6209V16.2209H28.8028V22.6209C28.8028 23.21 29.2804 23.6876 29.8694 23.6876H32.0028C32.2836 23.6876 32.558 23.8017 32.7569 24.0001L41.2903 32.5334V32.534C41.6487 32.8918 41.7049 33.4574 41.4236 33.8793L37.1569 40.2793C36.8428 40.7502 36.1548 40.8924 35.6777 40.575C35.4407 40.4172 35.2793 40.1761 35.2236 39.8969C35.1679 39.6172 35.2241 39.3329 35.382 39.0958L38.6783 34.151C38.9607 33.7281 38.9044 33.1646 38.5449 32.8052L31.8732 26.1334C31.6732 25.9334 31.4017 25.8209 31.119 25.8209H24.3532C24.0702 25.8209 23.799 25.9334 23.599 26.1334L16.927 32.8054C16.5676 33.1649 16.5113 33.7284 16.7937 34.1513L20.09 39.0961C20.2478 39.3332 20.3041 39.6174 20.2484 39.8972C20.1926 40.1764 20.0313 40.4174 19.7942 40.5753C19.5572 40.7332 19.2729 40.7894 18.9932 40.7342C18.714 40.678 18.4734 40.5172 18.315 40.2796L14.0484 33.8796C13.7673 33.4574 13.8236 32.8918 14.182 32.5334Z" fill="url(#paint2_linear_1808_4448)"/>
<path d="M44.801 22.6208H55.0261L53.6469 24C53.2304 24.4165 53.2304 25.0917 53.6469 25.5083C53.8552 25.7165 54.1282 25.8208 54.401 25.8208C54.6738 25.8208 54.9469 25.7165 55.1552 25.5083L58.3552 22.3083C58.7717 21.8917 58.7717 21.2165 58.3552 20.8L55.1552 17.6C54.7386 17.1835 54.0634 17.1835 53.6469 17.6C53.2304 18.0165 53.2304 18.6917 53.6469 19.1083L55.0261 20.4875H44.801C44.212 20.4875 43.7344 20.9651 43.7344 21.5541C43.7344 22.1432 44.212 22.6208 44.801 22.6208Z" fill="url(#paint3_linear_1808_4448)"/>
<path d="M61.4245 29.0209H51.1995C50.6104 29.0209 50.1328 29.4985 50.1328 30.0876C50.1328 30.6766 50.6104 31.1542 51.1995 31.1542H61.4245L60.0453 32.5334C59.6288 32.95 59.6288 33.6252 60.0453 34.0417C60.2536 34.25 60.5267 34.3542 60.7995 34.3542C61.0723 34.3542 61.3453 34.25 61.5536 34.0417L64.7536 30.8417C65.1701 30.4252 65.1701 29.75 64.7536 29.3334L61.5536 26.1334C61.1371 25.7169 60.4619 25.7169 60.0453 26.1334C59.6288 26.55 59.6288 27.2252 60.0453 27.6417L61.4245 29.0209Z" fill="url(#paint4_linear_1808_4448)"/>
<path d="M65.068 61.021V47.1543C65.068 46.5652 64.5904 46.0876 64.0013 46.0876H41.6013C41.0122 46.0876 40.5346 46.5652 40.5346 47.1543V61.021H39.468V47.1543C39.468 46.5652 38.9904 46.0876 38.4013 46.0876H16.0013C15.4122 46.0876 14.9346 46.5652 14.9346 47.1543V61.021C12.5821 61.021 10.668 62.9351 10.668 65.2876V66.3543C10.668 68.7068 12.5821 70.621 14.9346 70.621H65.068C67.4205 70.621 69.3346 68.7068 69.3346 66.3543V65.2876C69.3346 62.9351 67.4205 61.021 65.068 61.021ZM51.2013 48.221H54.4013V52.4876H51.2013V48.221ZM42.668 48.221H49.068V53.5543C49.068 54.1434 49.5456 54.621 50.1346 54.621H55.468C56.057 54.621 56.5346 54.1434 56.5346 53.5543V48.221H62.9346V61.021H42.668V48.221ZM25.6013 48.221H28.8013V52.4876H25.6013V48.221ZM17.068 48.221H23.468V53.5543C23.468 54.1434 23.9456 54.621 24.5346 54.621H29.868C30.457 54.621 30.9346 54.1434 30.9346 53.5543V48.221H37.3346V61.021H17.068V48.221ZM67.2013 66.3543C67.2013 67.5308 66.2445 68.4876 65.068 68.4876H14.9346C13.7581 68.4876 12.8013 67.5308 12.8013 66.3543V65.2876C12.8013 64.1111 13.7581 63.1543 14.9346 63.1543H65.068C66.2445 63.1543 67.2013 64.1111 67.2013 65.2876V66.3543Z" fill="url(#paint5_linear_1808_4448)"/>
<path d="M18.6676 64.6807C18.0377 64.6807 17.5273 65.1913 17.5273 65.8212C17.5273 66.4511 18.038 66.9615 18.6676 66.9615C19.2972 66.9615 19.8079 66.4508 19.8079 65.8212C19.8079 65.1916 19.2975 64.6807 18.6676 64.6807Z" fill="url(#paint6_linear_1808_4448)"/>
<path d="M22.9332 64.6807C22.3034 64.6807 21.793 65.1913 21.793 65.8212C21.793 66.4511 22.3036 66.9615 22.9332 66.9615C23.5628 66.9615 24.0735 66.4508 24.0735 65.8212C24.0735 65.1916 23.5631 64.6807 22.9332 64.6807Z" fill="url(#paint7_linear_1808_4448)"/>
<path d="M27.2028 64.6807C26.5729 64.6807 26.0625 65.1913 26.0625 65.8212C26.0625 66.4511 26.5732 66.9615 27.2028 66.9615C27.8324 66.9615 28.343 66.4508 28.343 65.8212C28.343 65.1916 27.8326 64.6807 27.2028 64.6807Z" fill="url(#paint8_linear_1808_4448)"/>
<path d="M31.4684 64.6807C30.8385 64.6807 30.3281 65.1913 30.3281 65.8212C30.3281 66.4511 30.8388 66.9615 31.4684 66.9615C32.098 66.9615 32.6087 66.4508 32.6087 65.8212C32.6087 65.1916 32.0983 64.6807 31.4684 64.6807Z" fill="url(#paint9_linear_1808_4448)"/>
<path d="M35.734 64.6807C35.1042 64.6807 34.5938 65.1913 34.5938 65.8212C34.5938 66.4511 35.1044 66.9615 35.734 66.9615C36.3636 66.9615 36.8743 66.4508 36.8743 65.8212C36.8743 65.1916 36.3639 64.6807 35.734 64.6807Z" fill="url(#paint10_linear_1808_4448)"/>
<path d="M39.9996 64.6807C39.3698 64.6807 38.8594 65.1913 38.8594 65.8212C38.8594 66.4511 39.37 66.9615 39.9996 66.9615C40.6292 66.9615 41.1399 66.4508 41.1399 65.8212C41.1399 65.1916 40.6295 64.6807 39.9996 64.6807Z" fill="url(#paint11_linear_1808_4448)"/>
<path d="M44.2692 64.6807C43.6393 64.6807 43.1289 65.1913 43.1289 65.8212C43.1289 66.4511 43.6396 66.9615 44.2692 66.9615C44.8988 66.9615 45.4094 66.4508 45.4094 65.8212C45.4094 65.1916 44.899 64.6807 44.2692 64.6807Z" fill="url(#paint12_linear_1808_4448)"/>
<path d="M48.5348 64.6807C47.9049 64.6807 47.3945 65.1913 47.3945 65.8212C47.3945 66.4511 47.9052 66.9615 48.5348 66.9615C49.1644 66.9615 49.6751 66.4508 49.6751 65.8212C49.6751 65.1916 49.1647 64.6807 48.5348 64.6807Z" fill="url(#paint13_linear_1808_4448)"/>
<path d="M52.8004 64.6807C52.1706 64.6807 51.6602 65.1913 51.6602 65.8212C51.6602 66.4511 52.1708 66.9615 52.8004 66.9615C53.43 66.9615 53.9407 66.4508 53.9407 65.8212C53.9407 65.1916 53.4303 64.6807 52.8004 64.6807Z" fill="url(#paint14_linear_1808_4448)"/>
<path d="M57.066 64.6807C56.4362 64.6807 55.9258 65.1913 55.9258 65.8212C55.9258 66.4511 56.4364 66.9615 57.066 66.9615C57.6956 66.9615 58.2063 66.4508 58.2063 65.8212C58.2063 65.1916 57.6959 64.6807 57.066 64.6807Z" fill="url(#paint15_linear_1808_4448)"/>
<path d="M61.3356 64.6807C60.7057 64.6807 60.1953 65.1913 60.1953 65.8212C60.1953 66.4511 60.706 66.9615 61.3356 66.9615C61.9652 66.9615 62.4758 66.4508 62.4758 65.8212C62.4758 65.1916 61.9654 64.6807 61.3356 64.6807Z" fill="url(#paint16_linear_1808_4448)"/>
<path d="M49.0674 56.7542H45.8674C45.2784 56.7542 44.8008 57.2318 44.8008 57.8208C44.8008 58.4099 45.2784 58.8875 45.8674 58.8875H49.0674C49.6565 58.8875 50.1341 58.4099 50.1341 57.8208C50.1341 57.2318 49.6565 56.7542 49.0674 56.7542Z" fill="url(#paint17_linear_1808_4448)"/>
<path d="M23.4698 56.7542H20.2698C19.6807 56.7542 19.2031 57.2318 19.2031 57.8208C19.2031 58.4099 19.6807 58.8875 20.2698 58.8875H23.4698C24.0589 58.8875 24.5365 58.4099 24.5365 57.8208C24.5365 57.2318 24.0589 56.7542 23.4698 56.7542Z" fill="url(#paint18_linear_1808_4448)"/>
<defs>
<linearGradient id="paint0_linear_1808_4448" x1="61.3356" y1="14.5469" x2="61.3356" y2="16.8277" gradientUnits="userSpaceOnUse">
<stop stop-color="#9747FF"/>
<stop offset="1" stop-color="#4B9ADB"/>
</linearGradient>
<linearGradient id="paint1_linear_1808_4448" x1="49.0671" y1="9.37939" x2="49.0671" y2="14.5291" gradientUnits="userSpaceOnUse">
<stop stop-color="#9747FF"/>
<stop offset="1" stop-color="#4B9ADB"/>
</linearGradient>
<linearGradient id="paint2_linear_1808_4448" x1="27.7361" y1="9.82007" x2="27.7361" y2="42.8884" gradientUnits="userSpaceOnUse">
<stop stop-color="#9747FF"/>
<stop offset="1" stop-color="#4B9ADB"/>
</linearGradient>
<linearGradient id="paint3_linear_1808_4448" x1="51.201" y1="17.2876" x2="51.201" y2="25.8208" gradientUnits="userSpaceOnUse">
<stop stop-color="#9747FF"/>
<stop offset="1" stop-color="#4B9ADB"/>
</linearGradient>
<linearGradient id="paint4_linear_1808_4448" x1="57.5994" y1="25.821" x2="57.5994" y2="34.3542" gradientUnits="userSpaceOnUse">
<stop stop-color="#9747FF"/>
<stop offset="1" stop-color="#4B9ADB"/>
</linearGradient>
<linearGradient id="paint5_linear_1808_4448" x1="40.0013" y1="46.0876" x2="40.0013" y2="70.621" gradientUnits="userSpaceOnUse">
<stop stop-color="#9747FF"/>
<stop offset="1" stop-color="#4B9ADB"/>
</linearGradient>
<linearGradient id="paint6_linear_1808_4448" x1="18.6676" y1="64.6807" x2="18.6676" y2="66.9615" gradientUnits="userSpaceOnUse">
<stop stop-color="#9747FF"/>
<stop offset="1" stop-color="#4B9ADB"/>
</linearGradient>
<linearGradient id="paint7_linear_1808_4448" x1="22.9332" y1="64.6807" x2="22.9332" y2="66.9615" gradientUnits="userSpaceOnUse">
<stop stop-color="#9747FF"/>
<stop offset="1" stop-color="#4B9ADB"/>
</linearGradient>
<linearGradient id="paint8_linear_1808_4448" x1="27.2028" y1="64.6807" x2="27.2028" y2="66.9615" gradientUnits="userSpaceOnUse">
<stop stop-color="#9747FF"/>
<stop offset="1" stop-color="#4B9ADB"/>
</linearGradient>
<linearGradient id="paint9_linear_1808_4448" x1="31.4684" y1="64.6807" x2="31.4684" y2="66.9615" gradientUnits="userSpaceOnUse">
<stop stop-color="#9747FF"/>
<stop offset="1" stop-color="#4B9ADB"/>
</linearGradient>
<linearGradient id="paint10_linear_1808_4448" x1="35.734" y1="64.6807" x2="35.734" y2="66.9615" gradientUnits="userSpaceOnUse">
<stop stop-color="#9747FF"/>
<stop offset="1" stop-color="#4B9ADB"/>
</linearGradient>
<linearGradient id="paint11_linear_1808_4448" x1="39.9996" y1="64.6807" x2="39.9996" y2="66.9615" gradientUnits="userSpaceOnUse">
<stop stop-color="#9747FF"/>
<stop offset="1" stop-color="#4B9ADB"/>
</linearGradient>
<linearGradient id="paint12_linear_1808_4448" x1="44.2692" y1="64.6807" x2="44.2692" y2="66.9615" gradientUnits="userSpaceOnUse">
<stop stop-color="#9747FF"/>
<stop offset="1" stop-color="#4B9ADB"/>
</linearGradient>
<linearGradient id="paint13_linear_1808_4448" x1="48.5348" y1="64.6807" x2="48.5348" y2="66.9615" gradientUnits="userSpaceOnUse">
<stop stop-color="#9747FF"/>
<stop offset="1" stop-color="#4B9ADB"/>
</linearGradient>
<linearGradient id="paint14_linear_1808_4448" x1="52.8004" y1="64.6807" x2="52.8004" y2="66.9615" gradientUnits="userSpaceOnUse">
<stop stop-color="#9747FF"/>
<stop offset="1" stop-color="#4B9ADB"/>
</linearGradient>
<linearGradient id="paint15_linear_1808_4448" x1="57.066" y1="64.6807" x2="57.066" y2="66.9615" gradientUnits="userSpaceOnUse">
<stop stop-color="#9747FF"/>
<stop offset="1" stop-color="#4B9ADB"/>
</linearGradient>
<linearGradient id="paint16_linear_1808_4448" x1="61.3356" y1="64.6807" x2="61.3356" y2="66.9615" gradientUnits="userSpaceOnUse">
<stop stop-color="#9747FF"/>
<stop offset="1" stop-color="#4B9ADB"/>
</linearGradient>
<linearGradient id="paint17_linear_1808_4448" x1="47.4674" y1="56.7542" x2="47.4674" y2="58.8875" gradientUnits="userSpaceOnUse">
<stop stop-color="#9747FF"/>
<stop offset="1" stop-color="#4B9ADB"/>
</linearGradient>
<linearGradient id="paint18_linear_1808_4448" x1="21.8698" y1="56.7542" x2="21.8698" y2="58.8875" gradientUnits="userSpaceOnUse">
<stop stop-color="#9747FF"/>
<stop offset="1" stop-color="#4B9ADB"/>
</linearGradient>
</defs>
</svg>
