<svg width="80" height="80" viewBox="0 0 80 80" fill="none" xmlns="http://www.w3.org/2000/svg">
<path d="M73.332 65.8333H70.832V63.3333C70.832 62.8667 70.4654 62.5 69.9987 62.5H69.1654V45.6833C70.132 45.3333 70.832 44.4167 70.832 43.3333C70.832 42.1667 70.032 41.2 68.9487 40.9167C68.0487 35.7 64.2987 31.3667 59.1654 29.7833V27.5H61.6654C62.132 27.5 62.4987 27.1333 62.4987 26.6667C62.4987 26.2 62.132 25.8333 61.6654 25.8333H48.332C47.8654 25.8333 47.4987 26.2 47.4987 26.6667C47.4987 27.1333 47.8654 27.5 48.332 27.5H50.832V29.7833C45.682 31.3667 41.932 35.7167 41.0487 40.9167C39.9654 41.2 39.1654 42.1667 39.1654 43.3333C39.1654 44.4167 39.8654 45.3333 40.832 45.6833V62.5H39.9987C39.532 62.5 39.1654 62.8667 39.1654 63.3333V65.8333H35.832V36.6667C35.832 36.2 35.4654 35.8333 34.9987 35.8333H34.1654V24.0167C35.132 23.6667 35.832 22.75 35.832 21.6667C35.832 20.2833 34.7154 19.1667 33.332 19.1667H24.9987C23.6154 19.1667 22.4987 20.2833 22.4987 21.6667C22.4987 22.75 23.1987 23.6667 24.1654 24.0167V35.8333H20.832V17.35C21.7987 17 22.4987 16.0833 22.4987 15C22.4987 13.6167 21.382 12.5 19.9987 12.5H11.6654C10.282 12.5 9.16536 13.6167 9.16536 15C9.16536 16.0833 9.86537 17 10.832 17.35V35.8333H9.9987C9.53203 35.8333 9.16536 36.2 9.16536 36.6667V65.8333H6.66536C6.1987 65.8333 5.83203 66.2 5.83203 66.6667C5.83203 67.1333 6.1987 67.5 6.66536 67.5H73.332C73.7987 67.5 74.1654 67.1333 74.1654 66.6667C74.1654 66.2 73.7987 65.8333 73.332 65.8333ZM40.832 64.1667H42.4987V65.8333H40.832V64.1667ZM41.6654 42.5H68.332C68.7987 42.5 69.1654 42.8667 69.1654 43.3333C69.1654 43.8 68.7987 44.1667 68.332 44.1667H41.6654C41.1987 44.1667 40.832 43.8 40.832 43.3333C40.832 42.8667 41.1987 42.5 41.6654 42.5ZM54.1654 64.1667H55.832V65.8333H54.1654V64.1667ZM54.1654 45.8333V55.7833C48.4987 55.4 43.8654 51.2667 42.7487 45.8333H54.1654ZM55.832 45.8333H67.2487C66.1487 51.2667 61.4987 55.4167 55.832 55.7833V45.8333ZM43.332 62.5H42.4987V49.9833C44.7654 54.2167 49.1154 57.1667 54.1654 57.45V62.5H53.332C52.8654 62.5 52.4987 62.8667 52.4987 63.3333V65.8333H44.1654V63.3333C44.1654 62.8667 43.7987 62.5 43.332 62.5ZM56.6654 62.5H55.832V57.45C60.882 57.15 65.232 54.2167 67.4987 49.9833V62.5H66.6654C66.1987 62.5 65.832 62.8667 65.832 63.3333V65.8333H57.4987V63.3333C57.4987 62.8667 57.132 62.5 56.6654 62.5ZM69.1654 65.8333H67.4987V64.1667H69.1654V65.8333ZM51.8654 31.2167C52.232 31.1167 52.4987 30.7833 52.4987 30.4167V27.5H57.4987V30.4167C57.4987 30.8 57.7487 31.1333 58.132 31.2167C62.8154 32.4333 66.282 36.2167 67.232 40.8333H42.782C43.7154 36.2167 47.182 32.4333 51.882 31.2167H51.8654ZM24.9987 20.8333H33.332C33.7987 20.8333 34.1654 21.2 34.1654 21.6667C34.1654 22.1333 33.7987 22.5 33.332 22.5H24.9987C24.532 22.5 24.1654 22.1333 24.1654 21.6667C24.1654 21.2 24.532 20.8333 24.9987 20.8333ZM25.832 24.1667H32.4987V35.8333H25.832V24.1667ZM11.6654 14.1667H19.9987C20.4654 14.1667 20.832 14.5333 20.832 15C20.832 15.4667 20.4654 15.8333 19.9987 15.8333H11.6654C11.1987 15.8333 10.832 15.4667 10.832 15C10.832 14.5333 11.1987 14.1667 11.6654 14.1667ZM12.4987 17.5H19.1654V35.8333H12.4987V17.5ZM10.832 37.5H34.1654V65.8333H10.832V37.5Z" fill="url(#paint0_linear_1745_3353)"/>
<path d="M20.0013 40.8333H15.0013C14.5346 40.8333 14.168 41.1999 14.168 41.6666V51.6666C14.168 52.1333 14.5346 52.4999 15.0013 52.4999H20.0013C20.468 52.4999 20.8346 52.1333 20.8346 51.6666V41.6666C20.8346 41.1999 20.468 40.8333 20.0013 40.8333ZM19.168 50.8333H15.8346V42.4999H19.168V50.8333Z" fill="url(#paint1_linear_1745_3353)"/>
<path d="M30.0013 40.8333H25.0013C24.5346 40.8333 24.168 41.1999 24.168 41.6666V51.6666C24.168 52.1333 24.5346 52.4999 25.0013 52.4999H30.0013C30.468 52.4999 30.8346 52.1333 30.8346 51.6666V41.6666C30.8346 41.1999 30.468 40.8333 30.0013 40.8333ZM29.168 50.8333H25.8346V42.4999H29.168V50.8333Z" fill="url(#paint2_linear_1745_3353)"/>
<defs>
<linearGradient id="paint0_linear_1745_3353" x1="39.9987" y1="12.5" x2="39.9987" y2="67.5" gradientUnits="userSpaceOnUse">
<stop stop-color="#9747FF"/>
<stop offset="1" stop-color="#4B9ADB"/>
</linearGradient>
<linearGradient id="paint1_linear_1745_3353" x1="17.5013" y1="40.8333" x2="17.5013" y2="52.4999" gradientUnits="userSpaceOnUse">
<stop stop-color="#9747FF"/>
<stop offset="1" stop-color="#4B9ADB"/>
</linearGradient>
<linearGradient id="paint2_linear_1745_3353" x1="27.5013" y1="40.8333" x2="27.5013" y2="52.4999" gradientUnits="userSpaceOnUse">
<stop stop-color="#9747FF"/>
<stop offset="1" stop-color="#4B9ADB"/>
</linearGradient>
</defs>
</svg>
