<svg width="80" height="80" viewBox="0 0 80 80" fill="none" xmlns="http://www.w3.org/2000/svg">
<path d="M68.6681 35.5556L66.7923 33.9251C67.2894 31.3438 67.3032 28.6255 66.7908 25.9488L71.1568 22.1612C71.5737 21.7992 71.6759 21.1922 71.4002 20.7144L66.5542 12.2995C66.2778 11.8172 65.6948 11.6054 65.175 11.7856L59.7243 13.6847C57.6577 11.8938 55.3358 10.5462 52.8057 9.66726L51.718 4.0107C51.6135 3.46683 51.1388 3.07471 50.5852 3.07471H40.8623C40.3087 3.07471 39.834 3.46683 39.7295 4.0107L38.6418 9.66876C36.1223 10.5447 33.753 11.9209 31.7217 13.6847L26.2725 11.7856C25.7534 11.6069 25.1705 11.8172 24.8933 12.2995L20.0473 20.7144C19.7716 21.1922 19.8738 21.7977 20.2899 22.1597L24.6304 25.9368C24.1398 28.6082 24.1397 31.2744 24.6304 33.9491L20.2929 37.6946C19.8745 38.0552 19.7709 38.6637 20.0465 39.1429L22.986 44.2554C20.5427 45.6858 18.3101 47.9387 16.2875 50.9759L16.2349 50.9233C14.6304 49.3187 11.8306 49.3187 10.2261 50.9233L6.43702 54.7123C4.78212 56.3671 4.77029 59.0539 6.43702 60.7204L21.3995 75.6829C23.0555 77.3374 25.7472 77.3417 27.4076 75.6829L31.1966 71.8938C32.8538 70.2381 32.8609 67.5501 31.1966 65.8857L30.8203 65.5094C32.657 63.3494 35.7222 62.8378 39.9849 62.7847L55.3651 62.4843C57.3753 62.4437 59.2615 61.5332 60.5408 59.9828L73.5178 44.2616C75.0503 42.4046 75.2404 39.7814 73.9806 37.8839C72.875 36.2192 70.9123 35.1872 68.6681 35.5556ZM22.5225 38.8184L26.6474 35.2562C26.9666 34.9813 27.1101 34.5531 27.0215 34.1399C26.4425 31.4529 26.3976 28.6416 27.0215 25.749C27.1093 25.3373 26.9674 24.9106 26.6504 24.6357L22.521 21.042L26.416 14.2796L31.606 16.087C32.0094 16.2283 32.4579 16.1351 32.7704 15.8436C34.8332 13.9281 37.3294 12.4798 39.9887 11.6549C40.3951 11.5287 40.6993 11.1877 40.7797 10.77L41.8156 5.3824H49.6319L50.6678 10.77C50.7482 11.1877 51.0524 11.5287 51.4588 11.6549C54.1346 12.4843 56.564 13.895 58.6801 15.8466C58.9934 16.1336 59.4403 16.2283 59.8415 16.087L65.0315 14.2796L68.9258 21.042L64.7671 24.6492C64.4463 24.9272 64.3044 25.3599 64.3983 25.7745C65.0208 28.5356 65.0131 31.3973 64.399 34.0948C64.3036 34.5095 64.4456 34.9437 64.7671 35.2231L66.3292 36.5802C66.1354 36.7277 65.9341 36.8625 65.7587 37.038C61.7334 40.923 59.747 43.5521 56.5482 45.7119C55.578 44.9096 54.3817 44.4467 53.149 44.4281C53.4247 42.3924 54.3438 40.5158 55.7805 39.1519C58.7169 36.365 60.3335 32.6014 60.3335 28.5525C60.3335 20.4891 53.7793 13.9296 45.7234 13.9296C37.6675 13.9296 31.1132 20.4891 31.1132 28.5525C31.1132 32.6045 32.7343 36.371 35.6783 39.1594C37.1251 40.5292 38.0476 42.4208 38.3162 44.4719C33.4401 42.1536 29.0193 41.7571 25.0815 43.2685L22.5225 38.8184ZM52.6998 28.0026C52.2401 27.5624 51.5084 27.5789 51.0682 28.0387L47.5052 31.7676C47.041 32.2574 46.7743 32.8959 46.7548 33.566L46.4261 44.5486H45.0206L44.692 33.5675C44.6724 32.8959 44.4058 32.2574 43.9393 31.7661L40.3771 28.0387C39.9384 27.5774 39.2067 27.5639 38.7462 28.0026C38.2857 28.4428 38.2684 29.173 38.7094 29.6342L42.2693 33.3602C42.3415 33.4353 42.3828 33.5329 42.3858 33.6351L42.7122 44.5486H40.6573C40.3898 41.8307 39.1872 39.3037 37.2648 37.4828C34.7859 35.136 33.4209 31.9629 33.4209 28.5525C33.4209 21.7616 38.94 16.2373 45.7234 16.2373C52.5067 16.2373 58.0258 21.7616 58.0258 28.5525C58.0258 31.9614 56.6646 35.1315 54.1924 37.4783C52.2915 39.2809 51.0979 41.7765 50.8139 44.4609L48.7353 44.5141L49.061 33.6336C49.064 33.5329 49.1053 33.4353 49.1759 33.3617L52.7373 29.6342C53.1776 29.173 53.1603 28.4428 52.6998 28.0026ZM29.565 70.2622L25.776 74.0513C25.0187 74.8085 23.7883 74.8085 23.0311 74.0513L8.06863 59.0888C7.31111 58.3313 7.30862 57.104 8.06863 56.3439L11.8577 52.5549C12.6168 51.7956 13.8431 51.7948 14.6033 52.5549L29.565 67.5173C30.3282 68.2807 30.3189 69.5082 29.565 70.2622ZM71.7375 42.7923L58.7605 58.5134C57.9101 59.5441 56.6564 60.151 55.32 60.1766L39.9481 60.4771C36.096 60.5251 31.8419 60.8512 29.1699 63.8575L17.9447 52.633C23.1903 44.487 29.8084 42.6315 38.1558 46.9509C38.3285 47.0411 38.5224 47.0831 38.7154 47.0801C38.8695 47.0776 53.2699 46.8822 52.9011 46.7165C54.6852 46.6261 56.3596 48.146 56.3063 50.127C56.2526 52.0394 54.6154 53.4423 52.8959 53.3557L39.2007 52.9816C38.5817 52.9771 38.0333 53.4668 38.016 54.1039C37.998 54.7409 38.5006 55.2712 39.1376 55.2892L52.8327 55.6633C55.8935 55.7528 58.5274 53.3395 58.6125 50.1901C58.6343 49.4013 58.4953 48.6366 58.2106 47.9305L67.4083 38.6516C68.697 37.3613 70.9315 37.4637 72.0583 39.1609C72.7606 40.2186 72.6292 41.712 71.7375 42.7923Z" fill="#393939"/>
<path d="M13.4494 57.0485C13.0002 56.5978 12.2685 56.5978 11.8178 57.0485C11.3678 57.4992 11.3678 58.2309 11.8193 58.6801L12.436 59.2961C12.8852 59.7468 13.6169 59.7469 14.0676 59.2961C14.5176 58.8454 14.5176 58.1137 14.0661 57.6645L13.4494 57.0485Z" fill="#393939"/>
</svg>
