<svg width="80" height="80" viewBox="0 0 80 80" fill="none" xmlns="http://www.w3.org/2000/svg">
<g clip-path="url(#clip0_1784_3247)">
<g clip-path="url(#clip1_1784_3247)">
<path d="M27.8833 52.3488H32.8755C34.0344 52.3488 35.0302 51.6528 35.4878 50.6578C35.7719 50.6767 36.417 50.9304 37.3884 52.0319C39.8592 54.833 41.5405 55.0819 45.7159 55.0819L46.4622 55.0838C46.7154 55.0857 46.9629 55.0867 47.2086 55.0867C49.761 55.0867 51.9167 54.9697 52.95 53.5352C53.4976 52.7751 53.6148 51.7971 53.3025 50.5587C53.9261 49.8108 54.934 48.2 54.3743 46.0724C54.9584 45.0887 55.4282 43.3241 54.3705 41.4058C54.5918 40.6599 54.8975 39.1838 54.3508 37.9182C54.0179 37.1458 53.4094 36.5677 52.5927 36.2479C51.4412 35.7971 50.3582 35.883 49.4027 35.9603C47.9484 36.0772 47.2198 36.081 46.4744 34.9229C46.0028 34.191 45.6802 32.9272 45.3398 31.589C44.5522 28.4993 43.4711 24.2751 39.2684 25.222L39.079 25.2654L38.9215 25.3814C38.7452 25.5106 37.2196 26.7347 37.6687 29.831C38.0776 32.648 37.198 35.0483 35.5749 35.8952C35.1698 34.7852 34.1187 33.9864 32.8763 33.9864H27.8833C26.294 33.9864 25 35.2879 25 36.8875V49.4478C25 51.0473 26.294 52.3488 27.8833 52.3488ZM39.5235 29.5586C39.3023 28.0317 39.728 27.2771 39.9305 27.015C41.8481 26.7198 42.5672 28.3071 43.5227 32.0588C43.9025 33.5498 44.2616 34.9588 44.9011 35.95C46.2879 38.1013 48.0957 37.9579 49.5519 37.841C50.3808 37.7759 51.1628 37.7118 51.912 38.006C52.2655 38.1446 52.4934 38.355 52.6303 38.6671C52.9838 39.4801 52.635 40.7523 52.4718 41.1701L52.2899 41.6294L52.5618 42.0425C53.7461 43.8335 52.7419 45.1642 52.6303 45.3019L52.273 45.7206L52.4625 46.2393C53.1732 48.184 51.6964 49.543 51.6373 49.5959L51.1657 50.009L51.3626 50.6059C51.5613 51.2067 51.7339 52.0102 51.4319 52.4308C50.8646 53.2193 48.5298 53.2089 46.4707 53.1995L45.7159 53.1976C41.7692 53.1976 40.7387 52.9891 38.7912 50.7813C37.5487 49.3714 36.5257 48.8875 35.7597 48.7894V37.8579C38.5081 36.9308 40.1021 33.5422 39.5235 29.5586ZM26.8753 36.8875C26.8753 36.3282 27.3273 35.8736 27.8833 35.8736H32.8755C33.4315 35.8736 33.8835 36.3282 33.8835 36.8875V49.4478C33.8835 50.008 33.4315 50.4626 32.8755 50.4626H27.8833C27.3273 50.4626 26.8753 50.008 26.8753 49.4478V36.8875Z" fill="#393939"/>
</g>
<path d="M30.5908 69.8027L29.5918 69.4492C28.5544 69.0821 27.5358 68.6592 26.54 68.1826L25.582 67.7246L24.832 68.4756L20.9404 72.3662C20.1063 73.2003 18.7534 73.2005 17.9189 72.3662L7.63379 62.0811C7.23314 61.6805 7.00785 61.1372 7.00781 60.5703C7.00781 60.0039 7.23297 59.4604 7.63379 59.0596L12.2754 54.418L11.8174 53.46C11.3411 52.4649 10.918 51.4458 10.5508 50.4082L10.1973 49.4092H3.63672C2.45682 49.4092 1.5 48.4524 1.5 47.2725V32.7275C1.5 31.5476 2.45682 30.5908 3.63672 30.5908H10.1973L10.5508 29.5908C10.918 28.5531 11.341 27.5352 11.8174 26.54L12.2754 25.582L7.63379 20.9404C6.79939 20.106 6.79939 18.7534 7.63379 17.9189L17.9189 7.63379C18.7534 6.79934 20.1064 6.79956 20.9404 7.63379L25.582 12.2754L26.54 11.8164C27.5348 11.3401 28.5533 10.9179 29.5908 10.5508L30.5908 10.1973V3.63672C30.5908 2.4568 31.5476 1.5 32.7275 1.5H47.2725C48.4524 1.5 49.4092 2.4568 49.4092 3.63672V10.1973L50.4092 10.5508C51.4467 10.9179 52.4649 11.3399 53.46 11.8164L54.418 12.2754L59.0596 7.63379H59.0605C59.4611 7.23318 60.0038 7.00784 60.5703 7.00781C61.1368 7.00781 61.6803 7.23307 62.0811 7.63379L72.3662 17.9189C73.2004 18.7533 73.2006 20.106 72.3662 20.9404L67.7246 25.582L68.1826 26.54C68.6592 27.5351 69.082 28.5542 69.4492 29.5918L69.8027 30.5908H76.3633C77.5431 30.5908 78.4997 31.5472 78.5 32.7266V47.2725C78.5 48.4524 77.5432 49.4092 76.3633 49.4092H69.8037L69.4492 50.4082C69.082 51.4459 68.6602 52.4648 68.1836 53.46L67.7246 54.418L72.3662 59.0596C73.2006 59.894 73.2006 61.2467 72.3662 62.0811L62.0811 72.3662C61.2468 73.2004 59.8947 73.2001 59.0605 72.3662L55.1689 68.4746L54.418 67.7246L53.46 68.1826C52.4651 68.6591 51.447 69.082 50.4092 69.4492L49.4092 69.8027V76.3633C49.4092 77.5432 48.4524 78.5 47.2725 78.5H32.7275C31.5476 78.5 30.5908 77.5432 30.5908 76.3633V69.8027Z" stroke="#393939" stroke-width="3"/>
</g>
<defs>
<clipPath id="clip0_1784_3247">
<rect width="80" height="80" fill="white"/>
</clipPath>
<clipPath id="clip1_1784_3247">
<rect width="30" height="30" fill="white" transform="translate(25 25)"/>
</clipPath>
</defs>
</svg>
