<svg width="80" height="80" viewBox="0 0 80 80" fill="none" xmlns="http://www.w3.org/2000/svg">
<path fill-rule="evenodd" clip-rule="evenodd" d="M77.6461 77.7375H2.35199C2.05912 77.7375 1.77834 77.6205 1.57206 77.4125C1.36595 77.2043 1.25144 76.9226 1.25395 76.6298L1.62493 35.0624C1.63042 34.4599 2.12046 33.9742 2.72297 33.9742H7.52469L22.6274 22.3515C22.9595 22.096 23.408 22.0517 23.7837 22.2373C24.1592 22.423 24.3965 22.8062 24.3951 23.2252L24.3636 33.1391L46.9001 21.7516C47.2405 21.5796 47.6458 21.5965 47.9707 21.7963C48.2955 21.9962 48.4933 22.3502 48.4933 22.7317V33.2625L60.1363 33.3985L62.5871 14.3516C62.4662 14.2467 62.3517 14.1333 62.2445 14.0116C61.5677 13.242 61.2547 12.2185 61.3856 11.202L61.3918 11.1537C61.6139 9.42693 63.0842 8.13391 64.8252 8.13407L71.0047 8.13454C72.7732 8.1347 74.2663 9.44811 74.4921 11.202V11.2025C74.6229 12.2188 74.3099 13.2423 73.6332 14.0117C73.5261 14.1334 73.4116 14.247 73.2905 14.3518L75.7648 33.5811L77.659 33.6032C78.2604 33.6103 78.7441 34.0997 78.7441 34.7013V76.6395C78.7441 77.2459 78.2525 77.7375 77.6461 77.7375ZM76.5481 35.7865L47.3826 35.4458C46.7812 35.4389 46.2972 34.9493 46.2972 34.3479V24.5167L23.755 35.9071C23.4141 36.0793 23.0081 36.0619 22.683 35.8613C22.3579 35.6607 22.1606 35.3055 22.1617 34.9234L22.192 25.4578L8.56799 35.9424C8.37599 36.0901 8.14054 36.1703 7.89834 36.1703H3.81128L3.45991 75.5414H10.1528V53.4015C10.1528 52.7951 10.6444 52.3035 11.2508 52.3035H23.7725C24.379 52.3035 24.8706 52.7951 24.8706 53.4015V75.5414H76.5481V35.7865ZM64.6903 15.2145L62.3471 33.4244L73.5473 33.5552L71.1873 15.2145C71.1107 15.2196 71.0339 15.2221 70.9565 15.2221H64.9214C64.8441 15.2221 64.767 15.2196 64.6903 15.2145ZM71.6141 12.8577C71.7523 12.7819 71.8778 12.6821 71.9841 12.5612C72.2441 12.2658 72.3642 11.8729 72.314 11.4828L72.3139 11.4823C72.2292 10.8238 71.6685 10.3306 71.0045 10.3306L64.8251 10.3301C64.1885 10.33 63.6511 10.8028 63.5699 11.434L63.5638 11.4823C63.5136 11.8726 63.6337 12.2657 63.8935 12.5612C64 12.682 64.1255 12.7819 64.2637 12.8575C64.2726 12.8624 64.2817 12.8671 64.2907 12.872C64.4834 12.972 64.6994 13.026 64.9214 13.026H70.9565C71.1785 13.026 71.3943 12.972 71.5871 12.8721C71.5961 12.8672 71.605 12.8625 71.6141 12.8577ZM12.3489 75.5414H22.6745V54.4996H12.3489V75.5414ZM35.3501 57.2746C34.898 58.2429 33.9153 58.9146 32.7769 58.9146C31.2105 58.9146 29.9388 57.6429 29.9388 56.0765C29.9388 54.5101 31.2105 53.2384 32.7769 53.2384C33.9921 53.2384 35.0301 54.0039 35.4343 55.0785H52.1316V52.6704H42.1583C41.8665 52.6704 41.5868 52.5543 41.3808 52.3477C41.1747 52.1413 41.0594 51.8613 41.0602 51.5695L41.0682 48.3725H39.1365C38.6844 49.3408 37.7016 50.0125 36.5633 50.0125C34.9968 50.0125 33.7252 48.7408 33.7252 47.1744C33.7252 45.6081 34.9968 44.3363 36.5633 44.3363C37.7785 44.3363 38.8165 45.1018 39.2207 46.1764H42.1689C42.4607 46.1764 42.7404 46.2925 42.9463 46.4991C43.1523 46.7055 43.2677 46.9855 43.267 47.2773L43.259 50.4743H52.1316V49.0676C52.1316 48.4611 52.6232 47.9695 53.2296 47.9695H56.5239V46.396C56.5239 45.7899 57.016 45.298 57.6219 45.298C58.2281 45.298 58.72 45.7899 58.72 46.396V47.9695H62.0019V46.396C62.0019 45.7899 62.4938 45.298 63.0999 45.298C63.7059 45.298 64.1979 45.7899 64.1979 46.396V47.9695H67.4924C68.0988 47.9695 68.5904 48.4611 68.5904 49.0676V52.362H70.1639C70.7699 52.362 71.2619 52.8539 71.2619 53.46C71.2619 54.066 70.7699 54.5581 70.1639 54.5581H68.5904V57.8398H70.1639C70.7699 57.8398 71.2619 58.3319 71.2619 58.9378C71.2619 59.5439 70.7699 60.0359 70.1639 60.0359H68.5904V63.3303C68.5904 63.9367 68.0988 64.4283 67.4924 64.4283H64.1979V66.0018C64.1979 66.6079 63.7059 67.0999 63.0999 67.0999C62.4938 67.0999 62.0019 66.6079 62.0019 66.0018V64.4283H58.72V66.0018C58.72 66.6079 58.2281 67.0999 57.6219 67.0999C57.016 67.0999 56.5239 66.6079 56.5239 66.0018V64.4283H53.2296C52.6232 64.4283 52.1316 63.9367 52.1316 63.3303V61.8788C49.5399 61.8788 43.259 61.8788 43.259 61.8788L43.267 65.0759C43.2677 65.3676 43.1523 65.6476 42.9463 65.8541C42.7404 66.0607 42.4607 66.1767 42.1689 66.1767H39.1365C38.6844 67.1451 37.7016 67.8166 36.5633 67.8166C34.9968 67.8166 33.7252 66.5449 33.7252 64.9785C33.7252 63.4122 34.9968 62.1405 36.5633 62.1405C37.7785 62.1405 38.8165 62.906 39.2207 63.9807H41.0682L41.0602 60.7836C41.0594 60.4919 41.1747 60.2119 41.3808 60.0054C41.5868 59.7989 41.8665 59.6828 42.1583 59.6828H52.1316V57.2746H35.3501ZM54.3277 50.1656V62.2323H66.3943V50.1656H54.3277ZM37.2053 64.9785C37.2053 64.6243 36.9176 64.3366 36.5633 64.3366C36.2089 64.3366 35.9212 64.6243 35.9212 64.9785C35.9212 65.3328 36.2089 65.6205 36.5633 65.6205C36.9176 65.6205 37.2053 65.3328 37.2053 64.9785ZM37.2053 47.1744C37.2053 46.82 36.9176 46.5323 36.5633 46.5323C36.2089 46.5323 35.9212 46.82 35.9212 47.1744C35.9212 47.5287 36.2089 47.8164 36.5633 47.8164C36.9176 47.8164 37.2053 47.5287 37.2053 47.1744ZM33.419 56.0765C33.419 55.7221 33.1313 55.4345 32.7769 55.4345C32.4226 55.4345 32.1349 55.7221 32.1349 56.0765C32.1349 56.4309 32.4226 56.7185 32.7769 56.7185C33.1313 56.7185 33.419 56.4309 33.419 56.0765ZM26.8613 7.24372C26.3639 7.58975 25.679 7.46693 25.3329 6.96952C24.9868 6.47211 25.1096 5.78709 25.607 5.44105C28.4863 3.43775 31.984 2.2627 35.754 2.2627C39.6889 2.2627 43.3274 3.54285 46.2751 5.70866C46.7636 6.0674 46.8687 6.75524 46.5099 7.24372C46.151 7.73203 45.4634 7.83728 44.9749 7.47838C42.3914 5.58034 39.2027 4.45877 35.754 4.45877C32.45 4.45877 29.3845 5.48811 26.8613 7.24372ZM30.2218 11.2878C29.7219 11.6305 29.0379 11.5029 28.6952 11.0031C28.3525 10.5033 28.48 9.81924 28.9799 9.4765C30.9082 8.1543 33.2414 7.38019 35.754 7.38019C38.4369 7.38019 40.9153 8.26285 42.9147 9.75289C43.4005 10.1151 43.501 10.8036 43.1388 11.2895C42.7766 11.7755 42.0881 11.8759 41.6022 11.5137C39.9694 10.2967 37.9451 9.57626 35.754 9.57626C33.7021 9.57626 31.7965 10.208 30.2218 11.2878ZM33.2031 15.5002C32.6974 15.834 32.0157 15.6942 31.6819 15.1883C31.3482 14.6826 31.4878 14.0009 31.9937 13.6671C33.0729 12.9549 34.3653 12.54 35.754 12.54C37.3269 12.54 38.7765 13.0723 39.9325 13.9662C40.4119 14.3369 40.5002 15.0271 40.1294 15.5065C39.7587 15.9858 39.0685 16.0741 38.5892 15.7035C37.8048 15.097 36.8212 14.7361 35.754 14.7361C34.8121 14.7361 33.9352 15.017 33.2031 15.5002ZM35.9296 16.994C36.8257 16.994 37.5534 17.7215 37.5534 18.6177C37.5534 19.5138 36.8257 20.2414 35.9296 20.2414C35.0334 20.2414 34.3059 19.5138 34.3059 18.6177C34.3059 17.7215 35.0334 16.994 35.9296 16.994Z" fill="url(#paint0_linear_1747_3571)"/>
<defs>
<linearGradient id="paint0_linear_1747_3571" x1="39.999" y1="2.2627" x2="39.999" y2="77.7375" gradientUnits="userSpaceOnUse">
<stop stop-color="#9747FF"/>
<stop offset="1" stop-color="#4B9ADB"/>
</linearGradient>
</defs>
</svg>
