<svg width="80" height="80" viewBox="0 0 80 80" fill="none" xmlns="http://www.w3.org/2000/svg">
<path d="M39.2218 28.2455C39.0786 28.3831 38.8891 28.4752 38.6755 28.4964C38.6637 28.4976 38.6519 28.4985 38.64 28.4993C38.6394 28.4993 38.6387 28.4994 38.6379 28.4994C38.6191 28.5005 38.6006 28.5011 38.5821 28.5011C38.3677 28.5011 38.1681 28.4274 38.0104 28.3028L38.0103 28.3027C38.0096 28.3022 38.009 28.3017 38.0084 28.3012C38.0082 28.3011 38.008 28.3009 38.0078 28.3008C38.0074 28.3005 38.0068 28.3001 38.0064 28.2997C38.0061 28.2995 38.0057 28.2992 38.0054 28.2989C38.0051 28.2986 38.0048 28.2984 38.0045 28.2982C38.0041 28.2979 38.0036 28.2975 38.0032 28.2972C38.003 28.2971 38.0028 28.2969 38.0026 28.2967C38.0021 28.2963 38.0015 28.2959 38.0009 28.2954C37.9963 28.2916 37.9916 28.2877 37.9869 28.2838C37.9863 28.2833 37.9857 28.2828 37.9851 28.2823L37.9848 28.2821C37.9843 28.2817 37.9838 28.2812 37.9832 28.2808C37.9831 28.2806 37.9827 28.2804 37.9825 28.2803C37.9821 28.2799 37.9817 28.2796 37.9812 28.2792C37.9809 28.279 37.9806 28.2787 37.9803 28.2785C37.98 28.2782 37.9797 28.2779 37.9793 28.2776C37.9789 28.2772 37.9784 28.2768 37.9779 28.2764C37.9778 28.2762 37.9776 28.2761 37.9774 28.2759C37.9563 28.2576 37.9362 28.2384 37.9169 28.2184L34.6648 24.8805C34.315 24.5216 34.327 23.9515 34.6918 23.6073C35.0565 23.2631 35.6356 23.2749 35.9854 23.6338L37.6553 25.3473C38.0505 19.4704 41.732 14.1876 47.3255 11.7626C51.2984 10.0405 55.7149 9.94392 59.7617 11.4911C63.8083 13.0381 67.0006 16.0437 68.7502 19.954C68.954 20.4091 68.7441 20.9406 68.2818 21.141C67.8192 21.3415 67.2792 21.1349 67.0757 20.6799C65.523 17.21 62.6902 14.5429 59.0992 13.1699C55.5084 11.797 51.5891 11.8825 48.0632 13.4109C43.086 15.5686 39.8147 20.2762 39.4783 25.5078L41.3469 23.7436C41.7118 23.3994 42.2908 23.4112 42.6406 23.7701C42.9904 24.129 42.9783 24.699 42.6137 25.0433L39.2218 28.2455ZM73.1515 27.9573L69.8325 24.594C69.6537 24.4101 69.3963 24.3017 69.1209 24.3169C69.1204 24.3169 69.1199 24.3169 69.1192 24.317C69.1046 24.3178 69.0902 24.319 69.0756 24.3204C68.8598 24.3425 68.6685 24.4374 68.5252 24.5781L65.1976 27.8072C64.8377 28.1563 64.8337 28.7265 65.1884 29.0807C65.5433 29.4349 66.1225 29.4389 66.4823 29.0897L68.2709 27.3541C67.9138 32.5622 64.6474 37.2433 59.6903 39.3922C57.805 40.2095 55.8363 40.5962 53.8975 40.5961C48.3513 40.5959 43.0529 37.4307 40.6778 32.1232C40.4741 31.6681 39.9342 31.4616 39.4717 31.662C39.0092 31.8624 38.7995 32.3939 39.0032 32.8491C41.6798 38.8305 47.6497 42.3974 53.9001 42.397C56.0845 42.3969 58.3039 41.961 60.428 41.0403C66.0224 38.6151 69.7056 33.3278 70.0987 27.4483L71.8391 29.2119C72.1911 29.5686 72.7703 29.577 73.1329 29.2305C73.4951 28.8843 73.5036 28.3141 73.1515 27.9573Z" fill="#393939"/>
<path d="M16.4152 68.747L5.70129 52.611C5.57442 52.4216 5.48644 52.2089 5.44247 51.9853C5.3985 51.7616 5.39941 51.5314 5.44515 51.3081C5.49089 51.0848 5.58054 50.8728 5.7089 50.6845C5.83727 50.4961 6.00178 50.3351 6.19288 50.2109L12.9596 45.8732C13.3385 45.6307 13.7963 45.5434 14.2379 45.6296C14.6795 45.7157 15.0709 45.9687 15.3308 46.3359L26.2617 62.2406C26.3903 62.4293 26.4803 62.6417 26.5267 62.8653C26.573 63.089 26.5748 63.3196 26.5318 63.544C26.4888 63.7683 26.4019 63.9819 26.2762 64.1726C26.1504 64.3633 25.9883 64.5273 25.799 64.6552L18.8298 69.3398C18.6332 69.4625 18.4141 69.5446 18.1852 69.5812C17.9564 69.6178 17.7225 69.6082 17.4974 69.553C17.2724 69.4977 17.0606 69.3979 16.8748 69.2595C16.6889 69.1211 16.5326 68.9468 16.4152 68.747Z" stroke="#393939" stroke-width="2.3134" stroke-linecap="round"/>
<path d="M16.5312 47.9698L27.8091 40.8706C28.1729 40.6468 28.5778 40.4983 29 40.4337C29.4222 40.3691 29.853 40.3899 30.2671 40.4946C34.2722 41.5212 46.3163 44.8323 50.7552 46.3938C54.0951 47.565 55.4398 50.8471 54.0951 53.0304C52.2733 55.9221 49.4972 55.633 47.5019 55.0691C47.2295 54.9943 46.9635 54.8976 46.7067 54.7799L38.8122 51.4255" stroke="#393939" stroke-width="2.3134" stroke-linecap="round"/>
<path d="M25.2773 60.7515L28.9643 58.6405L49.8283 64.424C50.0427 64.4818 50.2669 64.4936 50.4861 64.4588C50.7054 64.4239 50.9148 64.3431 51.1007 64.2216C53.9925 62.342 66.586 53.9992 72.7888 49.6182C73.2947 49.3418 73.7234 48.9431 74.0358 48.4587C74.3482 47.9742 74.5344 47.4192 74.5775 46.8444C74.6207 46.2695 74.5193 45.693 74.2826 45.1673C74.046 44.6417 73.6816 44.1836 73.2226 43.8347C72.5009 43.1848 71.5876 42.7868 70.6202 42.7007C69.6527 42.6147 68.6835 42.8452 67.8584 43.3576C65.6896 44.5721 59.6603 49.0544 59.6603 49.0544" stroke="#393939" stroke-width="2.3134" stroke-linecap="round"/>
<path d="M48.6048 25.7938L54.6028 17.7088C55.0728 17.0768 55.9508 17.4698 55.9508 18.3118V24.5698C55.9508 25.0748 56.2958 25.4828 56.7208 25.4828H59.6388C60.3018 25.4828 60.6548 26.4098 60.2168 27.0008L54.2188 35.0848C53.7488 35.7168 52.8708 35.3238 52.8708 34.4818V28.2238C52.8708 27.7188 52.5258 27.3108 52.1008 27.3108H49.1818C48.5188 27.3108 48.1668 26.3838 48.6048 25.7938Z" stroke="#393939" stroke-width="1.5" stroke-linecap="round" stroke-linejoin="round"/>
</svg>
