<svg width="80" height="80" viewBox="0 0 80 80" fill="none" xmlns="http://www.w3.org/2000/svg">
<path d="M75 60.2303V19.7697C76.4519 19.252 77.5 17.8774 77.5 16.25C77.5 14.1821 75.8179 12.5 73.75 12.5C72.1226 12.5 70.748 13.5481 70.2303 15H60V3.75C60 3.05969 59.4403 2.5 58.75 2.5H21.25C20.5597 2.5 20 3.05969 20 3.75V15H9.76967C9.25201 13.5481 7.87743 12.5 6.25 12.5C4.18213 12.5 2.5 14.1821 2.5 16.25C2.5 17.8774 3.54813 19.2519 5 19.7696V60.2303C3.54813 60.748 2.5 62.1226 2.5 63.75C2.5 65.8179 4.18213 67.5 6.25 67.5C7.87743 67.5 9.25201 66.4519 9.76967 65H26.5649C31.2251 75.676 39.407 77.4077 39.7614 77.4768C39.8401 77.4927 39.92 77.5 40 77.5C40.08 77.5 40.1599 77.4927 40.2386 77.4768C40.593 77.4077 48.7743 75.676 53.4351 65H70.2304C70.7481 66.4519 72.1226 67.5 73.75 67.5C75.8179 67.5 77.5 65.8179 77.5 63.75C77.5 62.1226 76.4519 60.748 75 60.2303ZM73.75 15C74.4391 15 75 15.5609 75 16.25C75 16.9391 74.4391 17.5 73.75 17.5C73.0609 17.5 72.5 16.9391 72.5 16.25C72.5 15.5609 73.0609 15 73.75 15ZM22.5 5H57.5V16.25V30H22.5V16.25V5ZM6.25 15C6.93909 15 7.5 15.5609 7.5 16.25C7.5 16.9391 6.93909 17.5 6.25 17.5C5.56091 17.5 5 16.9391 5 16.25C5 15.5609 5.56091 15 6.25 15ZM6.25 65C5.56091 65 5 64.4397 5 63.75C5 63.0603 5.56091 62.5 6.25 62.5C6.93909 62.5 7.5 63.0603 7.5 63.75C7.5 64.4397 6.93909 65 6.25 65ZM40.0006 74.9658C38.6505 74.6082 32.2296 72.4622 28.5352 63.2849C27.4951 60.6897 26.7621 57.7563 26.3525 54.5557C31.5009 52.4426 37.6642 49.0222 39.9963 47.6941C40.0012 47.6965 40.0061 47.699 40.011 47.7014C41.5662 48.5889 48.1677 52.3035 53.6475 54.5544C53.2379 57.7563 52.5049 60.6897 51.4648 63.2849C51.4648 63.2851 51.4649 63.2848 51.4648 63.2849C47.7673 72.4682 41.3396 74.6118 40.0006 74.9658ZM54.5338 62.1132C54.6163 61.8579 54.6917 61.5961 54.7693 61.336C54.9216 60.8247 55.0654 60.3055 55.1982 59.7759C55.2689 59.4942 55.3382 59.2117 55.4033 58.925C55.5299 58.3678 55.6427 57.7993 55.748 57.2237C55.7954 56.965 55.8477 56.7109 55.8907 56.4485C56.0284 55.6091 56.1497 54.7563 56.2427 53.8818C56.3025 53.3215 55.979 52.7893 55.4535 52.5854C49.8706 50.4126 42.5665 46.283 41.1584 45.4773C41.1359 45.4651 41.1127 45.4529 41.0889 45.4407C41.0352 45.4077 40.9595 45.3638 40.9326 45.3503C40.9314 45.3491 40.9296 45.3491 40.9283 45.3479C40.8948 45.3271 40.8551 45.304 40.8081 45.2759L40.6934 45.21C40.2795 44.9353 39.7321 44.9353 39.3146 45.2051L39.1656 45.2905C37.1155 46.4661 30.0018 50.4663 24.5477 52.5842C24.021 52.7893 23.6975 53.3215 23.7573 53.8818C23.8503 54.7563 23.9716 55.6091 24.1093 56.4485C24.1523 56.7107 24.2046 56.9646 24.2519 57.2232C24.3573 57.7993 24.4703 58.3683 24.5969 58.926C24.6619 59.2119 24.731 59.4936 24.8015 59.7746C24.9347 60.3057 25.0787 60.8263 25.2316 61.3391C25.3087 61.5977 25.3838 61.8579 25.4659 62.1117C25.507 62.2392 25.541 62.3737 25.5835 62.5H9.78577C9.77432 62.4677 9.75357 62.4405 9.74129 62.4086C9.67659 62.2411 9.59496 62.0842 9.5079 61.9292C9.4664 61.8552 9.43314 61.7773 9.3869 61.7065C9.24713 61.4927 9.08943 61.292 8.91022 61.1114C8.9016 61.1027 8.89275 61.0946 8.88405 61.086C8.70483 60.9088 8.50647 60.7523 8.29475 60.6138C8.22083 60.5653 8.1395 60.5305 8.06206 60.4873C7.91069 60.4028 7.75803 60.3229 7.59476 60.2598C7.56172 60.247 7.53349 60.2255 7.5 60.2136V41.25H36.25C36.3269 41.25 36.3937 41.2195 36.4668 41.2062C36.972 42.6805 38.3565 43.75 40 43.75C42.0679 43.75 43.75 42.0679 43.75 40C43.75 37.9321 42.0679 36.25 40 36.25C38.3565 36.25 36.972 37.3195 36.4668 38.7938C36.3937 38.7805 36.3269 38.75 36.25 38.75H7.5V19.7858C7.53235 19.7743 7.55974 19.7535 7.59171 19.7411C7.7597 19.6763 7.91695 19.5943 8.07228 19.5071C8.14537 19.466 8.22243 19.4331 8.29247 19.3874C8.72948 19.1019 9.10194 18.7294 9.38744 18.2925C9.43314 18.2225 9.46602 18.1455 9.50699 18.0725C9.59435 17.9169 9.67636 17.7596 9.74121 17.5914C9.75349 17.5595 9.77432 17.5323 9.78577 17.5H20V31.25C20 31.9403 20.5597 32.5 21.25 32.5H58.75C59.4403 32.5 60 31.9403 60 31.25V17.5H70.2142C70.2258 17.5324 70.2466 17.5597 70.2589 17.5918C70.3236 17.7596 70.4056 17.9167 70.4928 18.072C70.5339 18.1451 70.5668 18.2224 70.6126 18.2925C70.8981 18.7295 71.2705 19.1019 71.7075 19.3874C71.7776 19.4332 71.8549 19.4661 71.928 19.5072C72.0833 19.5944 72.2404 19.6764 72.4082 19.7411C72.4403 19.7534 72.4676 19.7742 72.5 19.7858V38.75H48.75C48.0597 38.75 47.5 39.3097 47.5 40C47.5 40.6903 48.0597 41.25 48.75 41.25H72.5V60.2136C72.4665 60.2255 72.4382 60.247 72.4051 60.2599C72.242 60.323 72.0895 60.4028 71.9382 60.4871C71.8607 60.5304 71.7792 60.5654 71.7052 60.6139C71.4935 60.7523 71.2952 60.9088 71.116 61.086C71.1073 61.0946 71.0984 61.1027 71.0898 61.1114C70.9106 61.292 70.7529 61.4927 70.6131 61.7065C70.5667 61.7775 70.5334 61.8555 70.4919 61.9297C70.405 62.0844 70.3235 62.241 70.2589 62.4082C70.2466 62.4403 70.2258 62.4676 70.2142 62.5H54.4165C54.4588 62.3742 54.4927 62.2402 54.5338 62.1132ZM38.75 40C38.75 39.3109 39.3109 38.75 40 38.75C40.6891 38.75 41.25 39.3109 41.25 40C41.25 40.6891 40.6891 41.25 40 41.25C39.3109 41.25 38.75 40.6891 38.75 40ZM73.75 65C73.0609 65 72.5 64.4397 72.5 63.75C72.5 63.0603 73.0609 62.5 73.75 62.5C74.4391 62.5 75 63.0603 75 63.75C75 64.4397 74.4391 65 73.75 65Z" fill="url(#paint0_linear_1808_4470)"/>
<path d="M33.75 19.9999H36.8543L33.8513 27.0074C33.6103 27.5695 33.8117 28.2238 34.3268 28.5528C34.5337 28.6858 34.7675 28.7499 34.9994 28.7499C35.3443 28.7499 35.6848 28.6077 35.929 28.3361L47.179 15.8361C47.5092 15.4693 47.5928 14.9425 47.392 14.4915C47.1912 14.0404 46.7438 13.7499 46.25 13.7499H41.25V7.49992C41.25 6.93046 40.8649 6.43303 40.3137 6.28959C39.7626 6.14921 39.1834 6.39518 38.9075 6.89262L32.6575 18.1426C32.442 18.5302 32.4481 19.002 32.6728 19.3841C32.8974 19.7655 33.3069 19.9999 33.75 19.9999ZM38.75 12.3235V14.9999C38.75 15.6902 39.3097 16.2499 40 16.2499H43.4436L39.1254 21.0479L39.8987 19.2425C40.0647 18.8561 40.025 18.4124 39.7937 18.0621C39.5624 17.7111 39.1699 17.4999 38.75 17.4999H35.8747L38.75 12.3235Z" fill="url(#paint1_linear_1808_4470)"/>
<defs>
<linearGradient id="paint0_linear_1808_4470" x1="40" y1="2.5" x2="40" y2="77.5" gradientUnits="userSpaceOnUse">
<stop stop-color="#9747FF"/>
<stop offset="1" stop-color="#4B9ADB"/>
</linearGradient>
<linearGradient id="paint1_linear_1808_4470" x1="40" y1="6.25049" x2="40" y2="28.7499" gradientUnits="userSpaceOnUse">
<stop stop-color="#9747FF"/>
<stop offset="1" stop-color="#4B9ADB"/>
</linearGradient>
</defs>
</svg>
