<svg width="80" height="80" viewBox="0 0 80 80" fill="none" xmlns="http://www.w3.org/2000/svg">
<g clip-path="url(#clip0_1747_3600)">
<path d="M31.9654 56.0001C31.5387 56.0001 31.112 55.8368 30.7854 55.5134L16.9187 41.6468C16.292 41.0201 16.2654 40.0168 16.852 39.3568L32.9187 21.3601C33.0187 21.2168 33.152 21.0768 33.302 20.9568C44.7254 7.85676 62.3054 -0.363238 78.3687 9.56962e-05C79.262 0.0200957 79.9787 0.740096 79.9987 1.6301C80.2287 12.5001 76.5587 24.1834 69.652 34.5268C69.1387 35.2934 68.0987 35.4934 67.342 34.9868C66.5787 34.4768 66.3687 33.4401 66.8787 32.6734C72.9687 23.5534 76.4887 12.9534 76.6687 3.32676C62.2054 3.5801 45.9354 11.4568 35.692 23.2901C35.622 23.3734 35.542 23.4468 35.4587 23.5134L20.392 40.4034L33.142 53.1534C33.792 53.8034 33.792 54.8601 33.142 55.5101C32.8187 55.8368 32.392 56.0001 31.9654 56.0001Z" fill="#393939"/>
<path d="M21.8014 38.0399C21.7214 38.0399 21.6414 38.0366 21.5614 38.0233L5.60476 35.7366C4.97809 35.6466 4.46142 35.2133 4.26142 34.6133C4.06142 34.0133 4.21809 33.3533 4.66476 32.9066C12.6981 24.8733 23.2281 20.5166 34.4348 20.5166C35.3548 20.5166 36.1014 21.2633 36.1014 22.1833C36.1014 23.1033 35.3548 23.8499 34.4348 23.8499C25.2181 23.8499 16.4981 27.0533 9.54476 32.9333L22.0381 34.7233C22.9481 34.8566 23.5814 35.6966 23.4514 36.6099C23.3281 37.4399 22.6148 38.0399 21.8014 38.0399Z" fill="#393939"/>
<path d="M57.1082 31.2234C54.8815 31.2234 52.7882 30.3567 51.2148 28.7834C47.9648 25.5334 47.9648 20.2467 51.2148 16.9967C54.3582 13.8501 59.8482 13.8467 62.9982 16.9967C66.2482 20.2467 66.2482 25.5334 62.9982 28.7834C61.4248 30.3567 59.3315 31.2234 57.1082 31.2234ZM57.1082 17.8934C55.7715 17.8934 54.5182 18.4134 53.5715 19.3567C51.6215 21.3067 51.6215 24.4801 53.5715 26.4301C55.4548 28.3167 58.7515 28.3201 60.6415 26.4301C62.5915 24.4801 62.5915 21.3067 60.6415 19.3567C59.6982 18.4101 58.4415 17.8934 57.1082 17.8934Z" fill="#393939"/>
<path d="M1.66738 80C1.23072 80 0.804052 79.83 0.487385 79.5133C0.0540516 79.08 -0.105948 78.4433 0.0707182 77.8567C0.614052 76.0333 5.51072 59.92 9.07739 56.3533C13.0941 52.3367 19.6307 52.3367 23.6474 56.3533C27.6641 60.37 27.6641 66.9067 23.6474 70.9233C20.0807 74.49 3.97072 79.3867 2.14405 79.9333C1.99072 79.9767 1.82738 80 1.66738 80ZM16.3641 56.67C14.5807 56.67 12.7941 57.35 11.4341 58.7067C9.51072 60.6333 6.31072 69.2367 4.20072 75.7967C10.7607 73.6833 19.3674 70.4833 21.2907 68.56C24.0074 65.8433 24.0074 61.42 21.2907 58.7033C19.9341 57.35 18.1474 56.67 16.3641 56.67Z" fill="#393939"/>
<path d="M58.3346 80.0001C46.388 80.0001 36.668 70.2801 36.668 58.3334C36.668 46.3867 46.388 36.6667 58.3346 36.6667C70.2813 36.6667 80.0013 46.3867 80.0013 58.3334C80.0013 70.2801 70.2813 80.0001 58.3346 80.0001ZM58.3346 40.0001C48.228 40.0001 40.0013 48.2234 40.0013 58.3334C40.0013 68.4434 48.228 76.6667 58.3346 76.6667C68.4413 76.6667 76.668 68.4434 76.668 58.3334C76.668 48.2234 68.4413 40.0001 58.3346 40.0001Z" fill="#393939"/>
<path d="M54.9982 66.6666C54.5549 66.6666 54.1316 66.4899 53.8182 66.1799L47.1516 59.5133C46.5016 58.8633 46.5016 57.8066 47.1516 57.1566C47.8016 56.5066 48.8582 56.5066 49.5082 57.1566L54.9149 62.5633L65.4082 50.5699C66.0149 49.8733 67.0682 49.8066 67.7582 50.4133C68.4516 51.0199 68.5216 52.0733 67.9149 52.7666L56.2482 66.0999C55.9449 66.4466 55.5116 66.6533 55.0516 66.6666C55.0349 66.6666 55.0182 66.6666 54.9982 66.6666Z" fill="#393939"/>
</g>
<defs>
<clipPath id="clip0_1747_3600">
<rect width="80" height="80" fill="white"/>
</clipPath>
</defs>
</svg>
