<svg width="80" height="80" viewBox="0 0 80 80" fill="none" xmlns="http://www.w3.org/2000/svg">
<path fill-rule="evenodd" clip-rule="evenodd" d="M64.2526 40.0038V37.0907H59.8397C59.5376 37.0907 59.2458 36.9813 59.0181 36.7828C58.7904 36.5843 58.6423 36.3101 58.6012 36.0108C58.1124 33.7262 57.2045 31.552 55.9234 29.5982C55.7664 29.3582 55.6968 29.0715 55.7263 28.7862C55.7557 28.5009 55.8824 28.2345 56.0851 28.0316L59.2073 24.9094L55.0919 20.7938L51.9697 23.916C51.7599 24.1257 51.4823 24.2541 51.1866 24.278C50.891 24.3019 50.5964 24.2199 50.3556 24.0466C48.3899 22.7658 46.2029 21.862 43.9064 21.3816C43.6258 21.3232 43.3739 21.1699 43.193 20.9476C43.0121 20.7253 42.9133 20.4474 42.9133 20.1608H42.9103V15.7479H37.0908V20.1608C37.0908 20.4629 36.9814 20.7548 36.7828 20.9824C36.5843 21.2101 36.31 21.3582 36.0108 21.3993C33.7261 21.8879 31.5517 22.7959 29.5981 24.0772C29.3581 24.2342 29.0714 24.3038 28.7861 24.2743C28.5008 24.2448 28.2344 24.1181 28.0315 23.9154H28.0308L24.9086 20.7938L20.7936 24.9085L23.9159 28.0313C24.1257 28.2411 24.254 28.5186 24.2779 28.8143C24.3019 29.11 24.2198 29.4046 24.0465 29.6454C22.7656 31.6113 21.8619 33.7985 21.3815 36.0952C21.3231 36.3758 21.1698 36.6277 20.9475 36.8085C20.7252 36.9894 20.4474 37.0882 20.1608 37.0883V37.0911H15.7478V42.9102H20.1608C20.4628 42.9102 20.7547 43.0196 20.9824 43.2181C21.21 43.4167 21.3581 43.6909 21.3992 43.9902C21.8878 46.2749 22.7958 48.4492 24.0772 50.4029C24.2342 50.6429 24.3038 50.9296 24.2743 51.2149C24.2448 51.5001 24.118 51.7666 23.9153 51.9694L20.7929 55.0918L23.4473 57.746C24.6881 54.2489 27.0024 51.2334 30.0597 49.1304C28.2857 47.2001 27.1122 44.7951 26.6823 42.209C26.2524 39.6229 26.5848 36.9676 27.6389 34.5673C28.693 32.167 30.4232 30.1255 32.6182 28.6921C34.8131 27.2587 37.378 26.4954 39.9996 26.4954C42.6212 26.4954 45.186 27.2587 47.381 28.6921C49.576 30.1255 51.3062 32.167 52.3603 34.5673C53.4143 36.9676 53.7467 39.6229 53.3169 42.209C52.887 44.7951 51.7134 47.2001 49.9395 49.1304C52.9968 51.2333 55.3112 54.2488 56.552 57.746L59.2062 55.0918L56.0845 51.9697C55.8747 51.76 55.7464 51.4824 55.7224 51.1867C55.6985 50.891 55.7804 50.5965 55.9537 50.3557C57.2347 48.3899 58.1384 46.2029 58.6189 43.9063C58.6773 43.6257 58.8306 43.3738 59.0529 43.1929C59.2752 43.012 59.5531 42.9133 59.8397 42.9132V42.9102H64.2526V40.0039V40.0038ZM34.3422 67.0486C34.2219 66.9335 34.1259 66.7956 34.0597 66.6429C33.9934 66.4902 33.9584 66.3257 33.9566 66.1593C33.9548 65.9929 33.9862 65.8277 34.0491 65.6736C34.1119 65.5195 34.2049 65.3794 34.3226 65.2617C34.4403 65.144 34.5803 65.051 34.7345 64.9882C34.8886 64.9253 35.0537 64.8939 35.2202 64.8957C35.3866 64.8975 35.551 64.9326 35.7037 64.9988C35.8565 65.065 35.9944 65.161 36.1095 65.2813L38.4086 67.5802L43.8908 62.0983C44.1263 61.8695 44.4424 61.7426 44.7707 61.745C45.0991 61.7474 45.4133 61.8789 45.6455 62.1111C45.8777 62.3432 46.0092 62.6575 46.0116 62.9858C46.014 63.3141 45.8872 63.6303 45.6584 63.8658L39.2928 70.2314C39.0584 70.4658 38.7405 70.5975 38.409 70.5975C38.0775 70.5975 37.7596 70.4658 37.5251 70.2314L34.3422 67.0486ZM40.0001 74.6875C38.3145 74.6875 36.6667 74.1877 35.2651 73.2512C33.8635 72.3147 32.7712 70.9836 32.1261 69.4263C31.481 67.8689 31.3122 66.1553 31.6411 64.502C31.9699 62.8487 32.7817 61.3301 33.9736 60.1382C35.1655 58.9463 36.6842 58.1345 38.3374 57.8057C39.9907 57.4768 41.7043 57.6456 43.2617 58.2907C44.819 58.9357 46.1501 60.0281 47.0866 61.4297C48.0231 62.8313 48.5229 64.4791 48.5229 66.1647C48.523 67.284 48.3025 68.3923 47.8742 69.4263C47.4459 70.4603 46.8181 71.3999 46.0267 72.1913C45.2353 72.9827 44.2957 73.6105 43.2617 74.0388C42.2276 74.4671 41.1194 74.6876 40.0001 74.6875ZM40.0001 77.1875C32.6609 77.1875 27.4303 70.1697 29.3842 63.1875H23.7767C23.5927 63.1881 23.411 63.1479 23.2444 63.0699C23.0778 62.9919 22.9305 62.878 22.8131 62.7364C22.6957 62.5948 22.611 62.4289 22.5653 62.2508C22.5195 62.0726 22.5137 61.8865 22.5483 61.7058C22.5899 61.3152 22.6447 60.9285 22.7126 60.5458L18.1423 55.9755C17.9079 55.7411 17.7763 55.4232 17.7763 55.0917C17.7763 54.7602 17.9079 54.4423 18.1423 54.2079L21.4486 50.9018C20.438 49.1858 19.672 47.3372 19.1728 45.4094H14.4978C14.1663 45.4094 13.8483 45.2777 13.6139 45.0433C13.3795 44.8089 13.2478 44.4909 13.2478 44.1594V41.25H7.08029L8.63592 42.8057C8.86467 43.0412 8.99155 43.3573 8.98914 43.6857C8.98672 44.014 8.85521 44.3283 8.62302 44.5604C8.39082 44.7926 8.0766 44.9241 7.74825 44.9265C7.4199 44.9289 7.1038 44.8019 6.86826 44.5732L3.09389 40.7897C2.8971 40.5487 2.79742 40.2429 2.81435 39.9322C2.83129 39.6214 2.96363 39.3283 3.18545 39.11L6.86857 35.4269C6.98401 35.3081 7.12193 35.2133 7.27431 35.1483C7.42668 35.0832 7.59048 35.0491 7.75616 35.0479C7.92185 35.0467 8.08612 35.0784 8.23942 35.1413C8.39273 35.2041 8.53201 35.2968 8.64917 35.414C8.76632 35.5311 8.85901 35.6704 8.92185 35.8237C8.98469 35.9771 9.01643 36.1413 9.01521 36.307C9.01399 36.4727 8.97985 36.6365 8.91476 36.7889C8.84967 36.9412 8.75494 37.0791 8.63607 37.1946L7.08029 38.75H13.2478V35.8407C13.2478 35.5091 13.3795 35.1912 13.6139 34.9568C13.8483 34.7224 14.1663 34.5907 14.4978 34.5907H19.1728C19.672 32.6629 20.438 30.8143 21.4484 29.0983L18.1423 25.7924C17.9079 25.558 17.7763 25.2401 17.7763 24.9086C17.7763 24.5771 17.9079 24.2591 18.1423 24.0247L20.1998 21.9672L15.8386 17.6061V19.8061C15.8386 20.1377 15.7069 20.4556 15.4725 20.69C15.238 20.9244 14.9201 21.0561 14.5886 21.0561C14.2571 21.0561 13.9391 20.9244 13.7047 20.69C13.4703 20.4556 13.3386 20.1377 13.3386 19.8061V14.5885C13.3386 14.257 13.4703 13.939 13.7047 13.7046C13.9391 13.4702 14.2571 13.3385 14.5886 13.3385H19.8062C20.1378 13.3385 20.4557 13.4702 20.6901 13.7046C20.9245 13.939 21.0562 14.257 21.0562 14.5885C21.0562 14.92 20.9245 15.2379 20.6901 15.4724C20.4557 15.7068 20.1378 15.8385 19.8062 15.8385H17.6061L21.9673 20.1997L24.0248 18.1424C24.2592 17.908 24.5771 17.7764 24.9086 17.7764C25.24 17.7764 25.5579 17.908 25.7923 18.1424L29.0984 21.4485C30.8143 20.438 32.663 19.672 34.5908 19.1729V14.4979C34.5908 14.1663 34.7225 13.8484 34.9569 13.614C35.1913 13.3796 35.5092 13.2479 35.8408 13.2479H38.7501V7.0802L37.1945 8.63598C36.9592 8.86607 36.6427 8.99408 36.3136 8.99224C35.9845 8.9904 35.6694 8.85885 35.4367 8.62614C35.204 8.39344 35.0724 8.07835 35.0706 7.74926C35.0688 7.42016 35.1968 7.10362 35.4269 6.86832L39.2106 3.09379C39.4517 2.89704 39.7576 2.79739 40.0684 2.81436C40.3791 2.83132 40.6723 2.96368 40.8906 3.18551L44.5734 6.86832C44.8022 7.10387 44.9291 7.41997 44.9267 7.74831C44.9243 8.07666 44.7928 8.39089 44.5607 8.62308C44.3285 8.85527 44.0143 8.98679 43.6859 8.9892C43.3576 8.99161 43.0415 8.86473 42.8059 8.63598L41.2501 7.08036V13.2479H44.1595C44.491 13.2479 44.809 13.3796 45.0434 13.614C45.2778 13.8484 45.4095 14.1663 45.4095 14.4979V19.1729C47.3373 19.6721 49.1859 20.438 50.9019 21.4485L54.2079 18.1424C54.4424 17.908 54.7603 17.7763 55.0918 17.7763C55.4233 17.7763 55.7412 17.908 55.9756 18.1424L58.0329 20.1997L62.3942 15.8386H60.1942C59.8627 15.8386 59.5447 15.7069 59.3103 15.4725C59.0759 15.2381 58.9442 14.9202 58.9442 14.5886C58.9442 14.2571 59.0759 13.9392 59.3103 13.7048C59.5447 13.4703 59.8627 13.3386 60.1942 13.3386H65.4119C65.7433 13.3389 66.0611 13.4707 66.2954 13.7051C66.5298 13.9394 66.6616 14.2572 66.6619 14.5886V19.8063C66.6619 20.1378 66.5302 20.4558 66.2957 20.6902C66.0613 20.9246 65.7434 21.0563 65.4119 21.0563C65.0803 21.0563 64.7624 20.9246 64.528 20.6902C64.2935 20.4558 64.1619 20.1378 64.1619 19.8063V17.6061L59.8006 21.9674L61.8581 24.0249C62.0924 24.2593 62.2241 24.5772 62.2241 24.9086C62.2241 25.2401 62.0924 25.558 61.8581 25.7924L58.552 29.0985C59.5627 30.8144 60.3288 32.663 60.8283 34.5908H65.5033C65.8348 34.5908 66.1527 34.7225 66.3871 34.9569C66.6216 35.1914 66.7533 35.5093 66.7533 35.8408V38.75H72.9208L71.3651 37.1944C71.1374 36.9587 71.0114 36.6429 71.0143 36.3152C71.0171 35.9874 71.1486 35.6739 71.3804 35.4421C71.6121 35.2104 71.9256 35.0789 72.2534 35.0761C72.5811 35.0732 72.8969 35.1992 73.1326 35.4269L76.9064 39.2107C77.1029 39.4519 77.2024 39.7578 77.1854 40.0686C77.1684 40.3793 77.0361 40.6725 76.8144 40.8908L73.132 44.5735C72.8964 44.8022 72.5803 44.9291 72.252 44.9267C71.9236 44.9243 71.6094 44.7928 71.3773 44.5606C71.1451 44.3284 71.0136 44.0142 71.0112 43.6858C71.0088 43.3575 71.1357 43.0414 71.3645 42.8058L72.9201 41.25H66.7526V44.1596C66.7526 44.4911 66.6209 44.809 66.3865 45.0435C66.1521 45.2779 65.8342 45.4096 65.5026 45.4096H60.8283C60.3289 47.3373 59.563 49.1859 58.5526 50.9019L61.8589 54.208C62.0933 54.4424 62.2249 54.7603 62.2249 55.0918C62.2249 55.4233 62.0933 55.7412 61.8589 55.9757L57.2887 60.5457C57.3624 60.9641 57.421 61.3874 57.4645 61.8155C57.481 61.9885 57.4612 62.163 57.4064 62.328C57.3516 62.4929 57.2631 62.6446 57.1464 62.7734C57.0297 62.9021 56.8874 63.0051 56.7286 63.0758C56.5699 63.1465 56.3981 63.1834 56.2243 63.184L50.6167 63.1877C52.5701 70.1686 47.3401 77.1875 40.0001 77.1875ZM30.4325 60.6875H25.2206C25.8976 57.2656 27.7411 54.1846 30.4364 51.9703C33.1318 49.756 36.5119 48.5455 40.0002 48.5455C43.4885 48.5455 46.8687 49.756 49.564 51.9703C52.2593 54.1846 54.1028 57.2656 54.7798 60.6875H49.5679C48.6028 59.0025 47.2097 57.6022 45.5296 56.6284C43.8496 55.6546 41.9421 55.1417 40.0002 55.1417C38.0583 55.1417 36.1509 55.6546 34.4708 56.6284C32.7907 57.6022 31.3977 59.0025 30.4325 60.6875ZM32.2744 47.8338C30.7212 46.3013 29.6589 44.3416 29.2225 42.2039C28.7861 40.0661 28.9953 37.8468 29.8235 35.8282C30.6517 33.8096 32.0615 32.083 33.8736 30.8677C35.6858 29.6525 37.8183 29.0037 40.0002 29.0037C42.1821 29.0037 44.3147 29.6525 46.1268 30.8677C47.9389 32.083 49.3487 33.8096 50.1769 35.8282C51.0051 37.8468 51.2143 40.0661 50.7779 42.2039C50.3415 44.3416 49.2792 46.3013 47.7261 47.8338C46.8978 47.4271 46.0385 47.0867 45.1564 46.8158C46.5845 45.7356 47.6372 44.2341 48.1658 42.5233C48.6945 40.8125 48.6724 38.9788 48.1027 37.2812C47.533 35.5837 46.4444 34.1079 44.9907 33.0624C43.537 32.0169 41.7916 31.4544 40.001 31.4544C38.2104 31.4544 36.465 32.0169 35.0113 33.0624C33.5576 34.1079 32.469 35.5837 31.8993 37.2812C31.3296 38.9788 31.3075 40.8125 31.8362 42.5233C32.3648 44.2341 33.4175 45.7356 34.8456 46.8158C33.9632 47.0867 33.1037 47.4272 32.2751 47.8341L32.2744 47.8338ZM40.0001 33.9544C41.1959 33.9544 42.3648 34.3089 43.3591 34.9733C44.3533 35.6376 45.1282 36.5818 45.5858 37.6865C46.0434 38.7912 46.1632 40.0069 45.9299 41.1796C45.6966 42.3524 45.1208 43.4297 44.2753 44.2752C43.4298 45.1207 42.3525 45.6965 41.1797 45.9298C40.0069 46.1631 38.7913 46.0434 37.6866 45.5857C36.5819 45.1281 35.6377 44.3532 34.9733 43.359C34.309 42.3647 33.9545 41.1958 33.9545 40C33.9545 39.2061 34.1109 38.42 34.4147 37.6865C34.7185 36.953 35.1638 36.2865 35.7252 35.7251C36.2866 35.1637 36.9531 34.7184 37.6866 34.4146C38.42 34.1108 39.2062 33.9544 40.0001 33.9544Z" fill="#393939"/>
</svg>
