<svg width="80" height="80" viewBox="0 0 80 80" fill="none" xmlns="http://www.w3.org/2000/svg">
<path d="M29.0722 57.6482V41.6446H23.2305V56.8008" stroke="url(#paint0_linear_1808_4388)" stroke-width="2.5" stroke-miterlimit="10" stroke-linejoin="round"/>
<path d="M45.6073 57.1936V41.6448H39.7656V57.3472" stroke="url(#paint1_linear_1808_4388)" stroke-width="2.5" stroke-miterlimit="10" stroke-linejoin="round"/>
<path d="M48.0708 65.2432H20.418V57.6482H48.0708V65.2432Z" stroke="url(#paint2_linear_1808_4388)" stroke-width="2.5" stroke-miterlimit="10" stroke-linejoin="round"/>
<path d="M37.543 41.6448H47.8539" stroke="url(#paint3_linear_1808_4388)" stroke-width="2.5" stroke-miterlimit="10" stroke-linecap="round" stroke-linejoin="round"/>
<path d="M20.8867 41.6448H31.1977" stroke="url(#paint4_linear_1808_4388)" stroke-width="2.5" stroke-miterlimit="10" stroke-linecap="round" stroke-linejoin="round"/>
<mask id="mask0_1808_4388" style="mask-type:luminance" maskUnits="userSpaceOnUse" x="0" y="0" width="80" height="80">
<path d="M0 7.62939e-06H80V80H0V7.62939e-06Z" fill="white"/>
</mask>
<g mask="url(#mask0_1808_4388)">
<path d="M26.5387 22.1208H22.4958C22.058 22.1208 21.7031 21.766 21.7031 21.3282V17.2852C21.7031 16.8474 22.058 16.4926 22.4958 16.4926H26.5387C26.9766 16.4926 27.3312 16.8474 27.3312 17.2852V21.3282C27.3312 21.766 26.9766 22.1208 26.5387 22.1208Z" stroke="url(#paint5_linear_1808_4388)" stroke-width="2.5" stroke-miterlimit="10" stroke-linecap="round" stroke-linejoin="round"/>
<path d="M26.5387 33.4485H22.4958C22.058 33.4485 21.7031 33.0936 21.7031 32.6558V28.6129C21.7031 28.175 22.058 27.8202 22.4958 27.8202H26.5387C26.9766 27.8202 27.3312 28.175 27.3312 28.6129V32.6558C27.3312 33.0936 26.9766 33.4485 26.5387 33.4485Z" stroke="url(#paint6_linear_1808_4388)" stroke-width="2.5" stroke-miterlimit="10" stroke-linecap="round" stroke-linejoin="round"/>
<path d="M36.7809 22.1208H32.738C32.3002 22.1208 31.9453 21.766 31.9453 21.3282V17.2852C31.9453 16.8474 32.3002 16.4926 32.738 16.4926H36.7809C37.2187 16.4926 37.5734 16.8474 37.5734 17.2852V21.3282C37.5734 21.766 37.2187 22.1208 36.7809 22.1208Z" stroke="url(#paint7_linear_1808_4388)" stroke-width="2.5" stroke-miterlimit="10" stroke-linecap="round" stroke-linejoin="round"/>
<path d="M36.7809 33.4485H32.738C32.3002 33.4485 31.9453 33.0936 31.9453 32.6558V28.6129C31.9453 28.175 32.3002 27.8202 32.738 27.8202H36.7809C37.2187 27.8202 37.5734 28.175 37.5734 28.6129V32.6558C37.5734 33.0936 37.2187 33.4485 36.7809 33.4485Z" stroke="url(#paint8_linear_1808_4388)" stroke-width="2.5" stroke-miterlimit="10" stroke-linecap="round" stroke-linejoin="round"/>
<path d="M6.44141 14.9697V3.41172C6.44141 2.17469 7.44422 1.17188 8.68125 1.17188H71.3161C72.5531 1.17188 73.5559 2.17469 73.5559 3.41172V76.5883C73.5559 77.8253 72.5531 78.8281 71.3161 78.8281H8.68125C7.44422 78.8281 6.44141 77.8253 6.44141 76.5883V19.6572" stroke="url(#paint9_linear_1808_4388)" stroke-width="2.5" stroke-miterlimit="10" stroke-linecap="round" stroke-linejoin="round"/>
<path d="M66.0559 33.5138V71.3281H13.9414V8.67188H66.0559V28.8263" stroke="url(#paint10_linear_1808_4388)" stroke-width="2.5" stroke-miterlimit="10" stroke-linecap="round" stroke-linejoin="round"/>
<path d="M48.0938 17.4476V33.2329" stroke="url(#paint11_linear_1808_4388)" stroke-width="2.5" stroke-miterlimit="10" stroke-linecap="round" stroke-linejoin="round"/>
<path d="M46.1602 28.8262H50.0269" stroke="url(#paint12_linear_1808_4388)" stroke-width="2.5" stroke-miterlimit="10" stroke-linecap="round" stroke-linejoin="round"/>
<path d="M56.7773 17.4476V33.2329" stroke="url(#paint13_linear_1808_4388)" stroke-width="2.5" stroke-miterlimit="10" stroke-linecap="round" stroke-linejoin="round"/>
<path d="M54.8438 22.1208H58.7105" stroke="url(#paint14_linear_1808_4388)" stroke-width="2.5" stroke-miterlimit="10" stroke-linecap="round" stroke-linejoin="round"/>
<path d="M57.6072 65.7356C56.0809 65.7356 54.8438 64.4984 54.8438 62.9723V44.4081C54.8438 42.8818 56.0809 41.6447 57.6072 41.6447C59.1334 41.6447 60.3706 42.8818 60.3706 44.4081V62.9723C60.3706 64.4984 59.1334 65.7356 57.6072 65.7356Z" stroke="url(#paint15_linear_1808_4388)" stroke-width="2.5" stroke-miterlimit="10" stroke-linecap="round" stroke-linejoin="round"/>
</g>
<defs>
<linearGradient id="paint0_linear_1808_4388" x1="26.1513" y1="57.6482" x2="26.1513" y2="41.6446" gradientUnits="userSpaceOnUse">
<stop stop-color="#9747FF"/>
<stop offset="1" stop-color="#4B9ADB"/>
</linearGradient>
<linearGradient id="paint1_linear_1808_4388" x1="42.6865" y1="57.3472" x2="42.6865" y2="41.6448" gradientUnits="userSpaceOnUse">
<stop stop-color="#9747FF"/>
<stop offset="1" stop-color="#4B9ADB"/>
</linearGradient>
<linearGradient id="paint2_linear_1808_4388" x1="34.2444" y1="65.2432" x2="34.2444" y2="57.6482" gradientUnits="userSpaceOnUse">
<stop stop-color="#9747FF"/>
<stop offset="1" stop-color="#4B9ADB"/>
</linearGradient>
<linearGradient id="paint3_linear_1808_4388" x1="42.6984" y1="41.6448" x2="42.6984" y2="40.6448" gradientUnits="userSpaceOnUse">
<stop stop-color="#9747FF"/>
<stop offset="1" stop-color="#4B9ADB"/>
</linearGradient>
<linearGradient id="paint4_linear_1808_4388" x1="26.0422" y1="41.6448" x2="26.0422" y2="40.6448" gradientUnits="userSpaceOnUse">
<stop stop-color="#9747FF"/>
<stop offset="1" stop-color="#4B9ADB"/>
</linearGradient>
<linearGradient id="paint5_linear_1808_4388" x1="24.5172" y1="22.1208" x2="24.5172" y2="16.4926" gradientUnits="userSpaceOnUse">
<stop stop-color="#9747FF"/>
<stop offset="1" stop-color="#4B9ADB"/>
</linearGradient>
<linearGradient id="paint6_linear_1808_4388" x1="24.5172" y1="33.4485" x2="24.5172" y2="27.8202" gradientUnits="userSpaceOnUse">
<stop stop-color="#9747FF"/>
<stop offset="1" stop-color="#4B9ADB"/>
</linearGradient>
<linearGradient id="paint7_linear_1808_4388" x1="34.7594" y1="22.1208" x2="34.7594" y2="16.4926" gradientUnits="userSpaceOnUse">
<stop stop-color="#9747FF"/>
<stop offset="1" stop-color="#4B9ADB"/>
</linearGradient>
<linearGradient id="paint8_linear_1808_4388" x1="34.7594" y1="33.4485" x2="34.7594" y2="27.8202" gradientUnits="userSpaceOnUse">
<stop stop-color="#9747FF"/>
<stop offset="1" stop-color="#4B9ADB"/>
</linearGradient>
<linearGradient id="paint9_linear_1808_4388" x1="39.9987" y1="78.8281" x2="39.9987" y2="1.17188" gradientUnits="userSpaceOnUse">
<stop stop-color="#9747FF"/>
<stop offset="1" stop-color="#4B9ADB"/>
</linearGradient>
<linearGradient id="paint10_linear_1808_4388" x1="39.9987" y1="71.3281" x2="39.9987" y2="8.67188" gradientUnits="userSpaceOnUse">
<stop stop-color="#9747FF"/>
<stop offset="1" stop-color="#4B9ADB"/>
</linearGradient>
<linearGradient id="paint11_linear_1808_4388" x1="48.5938" y1="33.2329" x2="48.5938" y2="17.4476" gradientUnits="userSpaceOnUse">
<stop stop-color="#9747FF"/>
<stop offset="1" stop-color="#4B9ADB"/>
</linearGradient>
<linearGradient id="paint12_linear_1808_4388" x1="48.0935" y1="28.8262" x2="48.0935" y2="27.8262" gradientUnits="userSpaceOnUse">
<stop stop-color="#9747FF"/>
<stop offset="1" stop-color="#4B9ADB"/>
</linearGradient>
<linearGradient id="paint13_linear_1808_4388" x1="57.2773" y1="33.2329" x2="57.2773" y2="17.4476" gradientUnits="userSpaceOnUse">
<stop stop-color="#9747FF"/>
<stop offset="1" stop-color="#4B9ADB"/>
</linearGradient>
<linearGradient id="paint14_linear_1808_4388" x1="56.7771" y1="22.1208" x2="56.7771" y2="21.1208" gradientUnits="userSpaceOnUse">
<stop stop-color="#9747FF"/>
<stop offset="1" stop-color="#4B9ADB"/>
</linearGradient>
<linearGradient id="paint15_linear_1808_4388" x1="57.6072" y1="65.7356" x2="57.6072" y2="41.6447" gradientUnits="userSpaceOnUse">
<stop stop-color="#9747FF"/>
<stop offset="1" stop-color="#4B9ADB"/>
</linearGradient>
</defs>
</svg>
