<svg width="80" height="80" viewBox="0 0 80 80" fill="none" xmlns="http://www.w3.org/2000/svg">
<path d="M12.7465 28.0873C9.21757 28.0873 6.45312 23.9788 6.45312 18.7326C6.45312 13.4864 9.21757 9.37793 12.7465 9.37793C16.2753 9.37793 19.0398 13.4864 19.0398 18.7326C19.0398 23.9788 16.2753 28.0873 12.7465 28.0873ZM12.7465 11.1557C10.2985 11.1557 8.2309 14.6259 8.2309 18.7326C8.2309 22.8393 10.2985 26.3095 12.7465 26.3095C15.1945 26.3095 17.262 22.8393 17.262 18.7326C17.262 14.6259 15.1945 11.1557 12.7465 11.1557Z" fill="url(#paint0_linear_1784_3234)"/>
<path d="M12.7465 57.2552C9.21757 57.2552 6.45312 53.1468 6.45312 47.9006C6.45312 42.6543 9.21757 38.5459 12.7465 38.5459C16.2753 38.5459 19.0398 42.6543 19.0398 47.9006C19.0398 53.1468 16.2753 57.2552 12.7465 57.2552ZM12.7465 40.3237C10.2985 40.3237 8.2309 43.7939 8.2309 47.9006C8.2309 52.0072 10.2985 55.4775 12.7465 55.4775C15.1945 55.4775 17.262 52.0072 17.262 47.9006C17.262 43.7939 15.1945 40.3237 12.7465 40.3237Z" fill="url(#paint1_linear_1784_3234)"/>
<path d="M12.7448 34.2063C6.20796 34.2063 0.890625 27.2641 0.890625 18.7325C0.890625 10.2009 6.20796 3.2605 12.7448 3.2605C19.2817 3.2605 24.5991 10.2009 24.5991 18.7325C24.5991 27.2641 19.2817 34.2063 12.7448 34.2063ZM12.7448 5.03828C7.18929 5.03828 2.6684 11.1823 2.6684 18.7325C2.6684 26.2827 7.18929 32.4267 12.7448 32.4267C18.3004 32.4267 22.8213 26.2827 22.8213 18.7325C22.8213 11.1823 18.3004 5.03828 12.7448 5.03828Z" fill="url(#paint2_linear_1784_3234)"/>
<path d="M59.1141 34.2062H12.7444C12.2537 34.2062 11.8555 33.808 11.8555 33.3173C11.8555 32.8267 12.2537 32.4284 12.7444 32.4284H59.1141C64.6697 32.4284 69.1906 26.2844 69.1906 18.7342C69.1906 11.184 64.6697 5.03998 59.1141 5.03998H12.7444C12.2537 5.03998 11.8555 4.64176 11.8555 4.1511C11.8555 3.66043 12.2537 3.26221 12.7444 3.26221H59.1141C65.651 3.26221 70.9684 10.2027 70.9684 18.7342C70.9684 27.264 65.651 34.2062 59.1141 34.2062Z" fill="url(#paint3_linear_1784_3234)"/>
<path d="M12.7448 63.3725C6.20796 63.3725 0.890625 56.432 0.890625 47.9005C0.890625 39.3689 6.20796 32.4285 12.7448 32.4285C19.2817 32.4285 24.5991 39.3689 24.5991 47.9005C24.5991 56.432 19.2817 63.3725 12.7448 63.3725ZM12.7448 34.2062C7.18929 34.2062 2.6684 40.3502 2.6684 47.9005C2.6684 55.4525 7.18929 61.5947 12.7448 61.5947C18.3004 61.5947 22.8213 55.4507 22.8213 47.9005C22.8213 40.3502 18.3004 34.2062 12.7448 34.2062Z" fill="url(#paint4_linear_1784_3234)"/>
<path d="M36.9047 63.3725H12.7483C12.2576 63.3725 11.8594 62.9743 11.8594 62.4836C11.8594 61.9929 12.2576 61.5947 12.7483 61.5947H36.9047C37.3954 61.5947 37.7936 61.9929 37.7936 62.4836C37.7936 62.9743 37.3954 63.3725 36.9047 63.3725Z" fill="url(#paint5_linear_1784_3234)"/>
<path d="M75.5525 71.2873C75.5436 71.2873 75.533 71.2873 75.5241 71.2873C75.0334 71.2713 74.6476 70.8606 74.6636 70.3699C75.2094 53.4988 70.8236 44.5299 67.0494 39.9753C63.0458 35.1451 58.9605 34.1922 58.9196 34.1833C58.4396 34.0766 58.1374 33.6019 58.2441 33.1237C58.3507 32.6437 58.8254 32.3415 59.3036 32.4482C59.4938 32.4908 64.029 33.5468 68.4183 38.8411C70.9587 41.9077 72.9338 45.7779 74.2885 50.3468C75.965 56.0037 76.6885 62.7593 76.4414 70.4268C76.4254 70.9086 76.0307 71.2873 75.5525 71.2873Z" fill="url(#paint6_linear_1784_3234)"/>
<path d="M42.0832 76.7378C38.5863 76.7378 35.7436 73.8933 35.7436 70.3982C35.7436 70.3751 35.7454 70.3538 35.7454 70.3306C36.7498 57.1271 35.0432 47.1431 30.6787 40.656C27.3347 35.6871 23.4485 34.4426 22.3374 34.1813C21.8592 34.0693 21.5641 33.5893 21.6761 33.1111C21.7881 32.6329 22.2681 32.3378 22.7463 32.4498C25.6423 33.1342 39.9623 38.1813 37.5214 70.4284C37.5392 72.9298 39.5783 74.9582 42.0832 74.9582C43.3027 74.9582 44.4476 74.4835 45.3081 73.6231C46.1703 72.7609 46.645 71.6142 46.645 70.3964C46.645 69.9058 47.0432 69.5075 47.5338 69.5075C48.0245 69.5075 48.4227 69.9058 48.4227 70.3964C48.4227 72.0906 47.7632 73.6818 46.565 74.88C45.3685 76.08 43.7774 76.7378 42.0832 76.7378Z" fill="url(#paint7_linear_1784_3234)"/>
<path d="M72.7701 76.7395H42.0803C41.5896 76.7395 41.1914 76.3413 41.1914 75.8506C41.1914 75.3599 41.5896 74.9617 42.0803 74.9617H72.7719C74.9834 74.9617 76.8323 73.3795 77.2483 71.2871H47.531C47.0403 71.2871 46.6421 70.8888 46.6421 70.3982C46.6421 69.9075 47.0403 69.5093 47.531 69.5093H78.2225C78.7132 69.5093 79.1114 69.9075 79.1114 70.3982C79.1114 73.8951 76.267 76.7395 72.7701 76.7395Z" fill="url(#paint8_linear_1784_3234)"/>
<path d="M51.2242 9.78316H31.5976C30.058 9.78316 28.8047 8.52983 28.8047 6.99028V4.14939C28.8047 3.65872 29.2029 3.2605 29.6936 3.2605C30.1842 3.2605 30.5825 3.65872 30.5825 4.14939V6.99205C30.5825 7.55205 31.0376 8.00717 31.5976 8.00717H51.2242C51.7842 8.00717 52.2394 7.55205 52.2394 6.99205V4.14939C52.2394 3.65872 52.6376 3.2605 53.1282 3.2605C53.6189 3.2605 54.0171 3.65872 54.0171 4.14939V6.99205C54.0171 8.53161 52.7638 9.78316 51.2242 9.78316Z" fill="url(#paint9_linear_1784_3234)"/>
<defs>
<linearGradient id="paint0_linear_1784_3234" x1="12.7465" y1="9.37793" x2="12.7465" y2="28.0873" gradientUnits="userSpaceOnUse">
<stop stop-color="#9747FF"/>
<stop offset="1" stop-color="#4B9ADB"/>
</linearGradient>
<linearGradient id="paint1_linear_1784_3234" x1="12.7465" y1="38.5459" x2="12.7465" y2="57.2552" gradientUnits="userSpaceOnUse">
<stop stop-color="#9747FF"/>
<stop offset="1" stop-color="#4B9ADB"/>
</linearGradient>
<linearGradient id="paint2_linear_1784_3234" x1="12.7448" y1="3.2605" x2="12.7448" y2="34.2063" gradientUnits="userSpaceOnUse">
<stop stop-color="#9747FF"/>
<stop offset="1" stop-color="#4B9ADB"/>
</linearGradient>
<linearGradient id="paint3_linear_1784_3234" x1="41.4119" y1="3.26221" x2="41.4119" y2="34.2062" gradientUnits="userSpaceOnUse">
<stop stop-color="#9747FF"/>
<stop offset="1" stop-color="#4B9ADB"/>
</linearGradient>
<linearGradient id="paint4_linear_1784_3234" x1="12.7448" y1="32.4285" x2="12.7448" y2="63.3725" gradientUnits="userSpaceOnUse">
<stop stop-color="#9747FF"/>
<stop offset="1" stop-color="#4B9ADB"/>
</linearGradient>
<linearGradient id="paint5_linear_1784_3234" x1="24.8265" y1="61.5947" x2="24.8265" y2="63.3725" gradientUnits="userSpaceOnUse">
<stop stop-color="#9747FF"/>
<stop offset="1" stop-color="#4B9ADB"/>
</linearGradient>
<linearGradient id="paint6_linear_1784_3234" x1="67.3556" y1="32.4268" x2="67.3556" y2="71.2873" gradientUnits="userSpaceOnUse">
<stop stop-color="#9747FF"/>
<stop offset="1" stop-color="#4B9ADB"/>
</linearGradient>
<linearGradient id="paint7_linear_1784_3234" x1="35.0375" y1="32.426" x2="35.0375" y2="76.7378" gradientUnits="userSpaceOnUse">
<stop stop-color="#9747FF"/>
<stop offset="1" stop-color="#4B9ADB"/>
</linearGradient>
<linearGradient id="paint8_linear_1784_3234" x1="60.1514" y1="69.5093" x2="60.1514" y2="76.7395" gradientUnits="userSpaceOnUse">
<stop stop-color="#9747FF"/>
<stop offset="1" stop-color="#4B9ADB"/>
</linearGradient>
<linearGradient id="paint9_linear_1784_3234" x1="41.4109" y1="3.2605" x2="41.4109" y2="9.78316" gradientUnits="userSpaceOnUse">
<stop stop-color="#9747FF"/>
<stop offset="1" stop-color="#4B9ADB"/>
</linearGradient>
</defs>
</svg>
