<svg width="80" height="80" viewBox="0 0 80 80" fill="none" xmlns="http://www.w3.org/2000/svg">
<g clip-path="url(#clip0_1742_3299)">
<path d="M35.2179 71.8906L42.8117 76.4375C43.3585 76.7812 44.1398 76.3281 44.0929 75.6875L44.0304 73.5L48.5304 74.7656C49.4679 75.0469 50.046 73.7031 49.1867 73.2188L41.7804 68.9219C41.2492 68.5938 40.4992 69 40.4992 69.625L40.4367 71.5938L35.8585 70.3594C34.9523 70.0781 34.3742 71.3906 35.2179 71.8906ZM42.1085 72.6875L42.1554 71.0781L42.921 71.5312C42.8117 71.5625 42.7023 71.6094 42.6085 71.6875C42.3898 71.8594 42.2804 72.1094 42.2804 72.3906L42.3429 74.1875L41.2492 73.5312C41.7023 73.5312 42.1085 73.1406 42.1085 72.6875ZM73.2179 39.0781C64.8273 39.3281 64.1242 51.1719 72.3742 52.4531V71.8281H56.4367V65.0938C56.4367 64.625 56.0617 64.25 55.5929 64.25H28.8273C28.3585 64.25 27.9835 64.625 27.9835 65.0938V71.8281H12.046V57.4531C12.046 57.3594 12.0148 57.2812 11.9992 57.2031C14.296 57.0938 16.1554 55.3281 16.3898 53.0781C17.9835 52.7656 18.7179 50.6094 17.6398 49.3906C18.796 48.0781 17.8742 45.7969 16.1398 45.6563C16.0304 43.6406 16.796 41.6562 18.3898 40.3125C20.8742 38.1875 22.296 35.1094 22.296 31.8594C22.4054 26.25 17.7492 21.2031 12.1867 20.8281V5.09375H29.0929V7.45312C29.0929 7.92188 29.4679 8.29688 29.9367 8.29688H54.6398C55.1085 8.29688 55.4835 7.92188 55.4835 7.45312V5.09375H72.3898V19.6406C69.0929 20.0625 66.5304 22.875 66.5304 26.2969C66.5304 30 69.546 33.0156 73.2492 33.0156C81.6398 32.7656 82.3429 20.9219 74.0929 19.6406V4.25C74.0929 3.78125 73.7179 3.40625 73.2492 3.40625H55.4679V1.0625C55.4679 0.59375 55.0929 0.21875 54.6242 0.21875H29.921C29.4523 0.21875 29.0773 0.59375 29.0773 1.0625V3.40625H11.3273C10.8585 3.40625 10.4835 3.78125 10.4835 4.25V20.7812C4.68667 21.1719 -0.0164577 26.2656 0.124167 32.1094C0.202292 35.25 1.60854 38.2188 3.98354 40.25C5.63979 41.6562 6.40542 43.6094 6.28042 45.625C4.51479 45.7812 3.59292 48.0625 4.74917 49.375C3.67104 50.6094 4.40542 52.75 5.99917 53.0625C6.23354 55.3125 8.09292 57.0938 10.3898 57.1875C10.3585 57.2656 10.3429 57.3438 10.3429 57.4375V72.6562C10.3429 73.125 10.7179 73.5 11.1867 73.5H27.9679V78.9219C27.9679 79.3906 28.3429 79.7656 28.8117 79.7656H55.5773C56.046 79.7656 56.421 79.3906 56.421 78.9219V73.5H73.2023C73.671 73.5 74.046 73.125 74.046 72.6562V52.4531C82.3117 51.1719 81.6085 39.3281 73.2179 39.0781ZM73.2179 31.3125C66.5929 31.1094 66.5929 21.4844 73.2179 21.2812C79.8585 21.4844 79.8585 31.1094 73.2179 31.3125ZM43.1242 1.90625H53.7804V6.625H43.1242V1.90625ZM30.7648 1.90625H41.421V6.625H30.7648V1.90625ZM5.07729 38.9688C3.06167 37.2344 1.85854 34.7344 1.79604 32.0781C1.60854 23.8594 11.8429 19.2188 17.7335 25.1094C21.6867 28.7812 21.4523 35.5938 17.2804 39.0156C15.3273 40.6719 14.3117 43.1094 14.4367 45.625H12.046V38.875C14.1867 38.4688 15.8117 36.5938 15.8117 34.3438C15.8117 33.875 15.4367 33.5 14.9679 33.5C14.4992 33.5 14.1242 33.875 14.1242 34.3438C14.0148 38.1875 8.38979 38.1875 8.28042 34.3438C8.28042 33.875 7.90542 33.5 7.43667 33.5C6.96792 33.5 6.59292 33.875 6.59292 34.3438C6.59292 36.5938 8.21792 38.4844 10.3585 38.875V45.625H7.96792C8.09292 43.125 7.09292 40.6875 5.07729 38.9688ZM6.54604 51.4375C6.21792 51.4375 5.93667 51.1719 5.93667 50.8281C5.93667 50.5 6.20229 50.2188 6.54604 50.2188H9.37417C10.4835 50.2188 10.4835 48.5312 9.37417 48.5156H6.54604C6.21792 48.5156 5.93667 48.25 5.93667 47.9062C5.93667 47.5625 6.20229 47.2969 6.54604 47.2969H15.8585C16.1867 47.2969 16.4679 47.5625 16.4679 47.9062C16.4679 48.25 16.2023 48.5156 15.8585 48.5156H14.1398C13.0304 48.5156 13.0304 50.2031 14.1398 50.2188H15.8429C16.171 50.2188 16.4523 50.4844 16.4523 50.8281C16.4523 51.1562 16.1867 51.4375 15.8429 51.4375H6.54604ZM10.6085 55.5C9.18667 55.5 7.99917 54.4844 7.73354 53.125H14.671C14.4054 54.4688 13.2179 55.5 11.796 55.5H10.6085ZM54.7492 78.0938H29.671V65.9375H54.7492V78.0938ZM68.2023 45.7969C68.4054 39.1719 78.0304 39.1719 78.2335 45.7969C78.0304 52.4219 68.421 52.4219 68.2023 45.7969ZM75.3742 45.7969C75.3742 46.2656 74.9992 46.6406 74.5304 46.6406H71.921C71.4523 46.6406 71.0773 46.2656 71.0773 45.7969C71.0773 45.3281 71.4523 44.9531 71.921 44.9531H74.5304C74.9992 44.9531 75.3742 45.3281 75.3742 45.7969ZM71.921 25.4531H72.3742C72.3117 24.8281 72.4679 24.1719 73.2179 24.1406C73.9679 24.1563 74.1242 24.8125 74.0617 25.4531C74.6867 25.3906 75.3429 25.5469 75.3742 26.2969C75.3585 27.0469 74.7023 27.2031 74.0617 27.1406C74.1242 27.7656 73.9679 28.4219 73.2179 28.4531C72.4679 28.4219 72.3117 27.7812 72.3742 27.1406H71.921C70.8117 27.1406 70.8117 25.4531 71.921 25.4531Z" fill="url(#paint0_linear_1742_3299)"/>
</g>
<defs>
<linearGradient id="paint0_linear_1742_3299" x1="40.0229" y1="0.21875" x2="40.0229" y2="79.7656" gradientUnits="userSpaceOnUse">
<stop stop-color="#9747FF"/>
<stop offset="1" stop-color="#4B9ADB"/>
</linearGradient>
<clipPath id="clip0_1742_3299">
<rect width="80" height="80" fill="white"/>
</clipPath>
</defs>
</svg>
