<svg width="80" height="80" viewBox="0 0 80 80" fill="none" xmlns="http://www.w3.org/2000/svg">
<mask id="mask0_1808_4474" style="mask-type:luminance" maskUnits="userSpaceOnUse" x="0" y="0" width="80" height="80">
<path d="M0 7.62939e-06H80V80H0V7.62939e-06Z" fill="white"/>
</mask>
<g mask="url(#mask0_1808_4474)">
<path d="M71.3438 29.2708V33.5526L78.8283 45.4937" stroke="url(#paint0_linear_1808_4474)" stroke-width="2.5" stroke-miterlimit="10" stroke-linecap="round" stroke-linejoin="round"/>
</g>
<path d="M54.8438 10.8753H71.3436V15.9927" stroke="url(#paint1_linear_1808_4474)" stroke-width="2.5" stroke-miterlimit="10" stroke-linecap="round" stroke-linejoin="round"/>
<path d="M6.60156 57.3662V10.8753H22.7623" stroke="url(#paint2_linear_1808_4474)" stroke-width="2.5" stroke-miterlimit="10" stroke-linecap="round" stroke-linejoin="round"/>
<path d="M23.8808 71.2234H6.60156V62.1914" stroke="url(#paint3_linear_1808_4474)" stroke-width="2.5" stroke-miterlimit="10" stroke-linecap="round" stroke-linejoin="round"/>
<path d="M71.3417 65.9896V71.2234H54.0625" stroke="url(#paint4_linear_1808_4474)" stroke-width="2.5" stroke-miterlimit="10" stroke-linecap="round" stroke-linejoin="round"/>
<path d="M71.3438 46.0897V52.7085" stroke="url(#paint5_linear_1808_4474)" stroke-width="2.5" stroke-miterlimit="10" stroke-linecap="round" stroke-linejoin="round"/>
<mask id="mask1_1808_4474" style="mask-type:luminance" maskUnits="userSpaceOnUse" x="0" y="0" width="80" height="80">
<path d="M0 7.62939e-06H80V80H0V7.62939e-06Z" fill="white"/>
</mask>
<g mask="url(#mask1_1808_4474)">
<path d="M50.707 14.2415H52.7755C53.6319 14.2415 54.3262 13.5472 54.3262 12.6907V9.06021C54.3262 8.2038 53.6319 7.50942 52.7755 7.50942H50.707" stroke="url(#paint6_linear_1808_4474)" stroke-width="2.5" stroke-miterlimit="10" stroke-linecap="round" stroke-linejoin="round"/>
<path d="M33.543 15.9927H48.687C49.5434 15.9927 50.2378 15.2985 50.2378 14.4419V7.30877C50.2378 6.45236 49.5434 5.75799 48.687 5.75799H42.5013" stroke="url(#paint7_linear_1808_4474)" stroke-width="2.5" stroke-miterlimit="10" stroke-linecap="round" stroke-linejoin="round"/>
<path d="M37.1891 5.75799H25.0391C24.1827 5.75799 23.4883 6.45236 23.4883 7.30877V14.4419C23.4883 15.2985 24.1827 15.9927 25.0391 15.9927H28.2308" stroke="url(#paint8_linear_1808_4474)" stroke-width="2.5" stroke-miterlimit="10" stroke-linecap="round" stroke-linejoin="round"/>
<path d="M18.9889 39.5312V46.5425H6.59766" stroke="url(#paint9_linear_1808_4474)" stroke-width="2.5" stroke-miterlimit="10" stroke-linecap="round" stroke-linejoin="round"/>
<path d="M6.60156 21.217H18.9928V26.4844" stroke="url(#paint10_linear_1808_4474)" stroke-width="2.5" stroke-miterlimit="10" stroke-linecap="round" stroke-linejoin="round"/>
<path d="M25.1094 32.9517C25.1094 36.3313 22.3697 39.0708 18.9903 39.0708C15.6108 39.0708 12.8711 36.3313 12.8711 32.9517C12.8711 29.5724 15.6108 26.8327 18.9903 26.8327C22.3697 26.8327 25.1094 29.5724 25.1094 32.9517Z" stroke="url(#paint11_linear_1808_4474)" stroke-width="2.5" stroke-miterlimit="10" stroke-linecap="round" stroke-linejoin="round"/>
<path d="M17.6367 31.5969L20.3459 34.3062" stroke="url(#paint12_linear_1808_4474)" stroke-width="2.5" stroke-miterlimit="10" stroke-linecap="round" stroke-linejoin="round"/>
<path d="M20.3459 31.5969L17.6367 34.3062" stroke="url(#paint13_linear_1808_4474)" stroke-width="2.5" stroke-miterlimit="10" stroke-linecap="round" stroke-linejoin="round"/>
<path d="M77.4608 22.5848C77.4608 25.9642 74.7212 28.7039 71.3417 28.7039C67.9622 28.7039 65.2227 25.9642 65.2227 22.5848C65.2227 19.2053 67.9622 16.4656 71.3417 16.4656C74.7212 16.4656 77.4608 19.2053 77.4608 22.5848Z" stroke="url(#paint14_linear_1808_4474)" stroke-width="2.5" stroke-miterlimit="10" stroke-linecap="round" stroke-linejoin="round"/>
<path d="M73.2611 22.5847H69.4297" stroke="url(#paint15_linear_1808_4474)" stroke-width="2.5" stroke-miterlimit="10" stroke-linecap="round" stroke-linejoin="round"/>
<path d="M65.7539 61.7707C66.7077 63.9093 68.8508 65.4009 71.3436 65.4009C74.7231 65.4009 77.4628 62.6613 77.4628 59.2818C77.4628 55.9023 74.7231 53.1628 71.3436 53.1628C68.9831 53.1628 66.9359 54.5003 65.9155 56.4582" stroke="url(#paint16_linear_1808_4474)" stroke-width="2.5" stroke-miterlimit="10" stroke-linecap="round" stroke-linejoin="round"/>
<path d="M71.3438 57.3661V61.1975" stroke="url(#paint17_linear_1808_4474)" stroke-width="2.5" stroke-miterlimit="10" stroke-linecap="round" stroke-linejoin="round"/>
<path d="M73.2611 59.282H69.4297" stroke="url(#paint18_linear_1808_4474)" stroke-width="2.5" stroke-miterlimit="10" stroke-linecap="round" stroke-linejoin="round"/>
<path d="M1.17188 57.3662H12.0275" stroke="url(#paint19_linear_1808_4474)" stroke-width="2.5" stroke-miterlimit="10" stroke-linecap="round" stroke-linejoin="round"/>
<path d="M3.80859 62.1914H9.38906" stroke="url(#paint20_linear_1808_4474)" stroke-width="2.5" stroke-miterlimit="10" stroke-linecap="round" stroke-linejoin="round"/>
<path d="M29.9161 71.2233C29.9161 72.8904 28.5647 74.2419 26.8975 74.2419C25.2305 74.2419 23.8789 72.8904 23.8789 71.2233C23.8789 69.5563 25.2305 68.2049 26.8975 68.2049C28.5647 68.2049 29.9161 69.5563 29.9161 71.2233Z" stroke="url(#paint21_linear_1808_4474)" stroke-width="2.5" stroke-miterlimit="10" stroke-linecap="round" stroke-linejoin="round"/>
<path d="M35.955 71.2233C35.955 72.8904 34.6036 74.2419 32.9364 74.2419C31.2694 74.2419 29.918 72.8904 29.918 71.2233C29.918 69.5563 31.2694 68.2049 32.9364 68.2049C34.6036 68.2049 35.955 69.5563 35.955 71.2233Z" stroke="url(#paint22_linear_1808_4474)" stroke-width="2.5" stroke-miterlimit="10" stroke-linecap="round" stroke-linejoin="round"/>
<path d="M41.9902 71.2233C41.9902 72.8904 40.6387 74.2419 38.9717 74.2419C37.3045 74.2419 35.9531 72.8904 35.9531 71.2233C35.9531 69.5563 37.3045 68.2049 38.9717 68.2049C40.6387 68.2049 41.9902 69.5563 41.9902 71.2233Z" stroke="url(#paint23_linear_1808_4474)" stroke-width="2.5" stroke-miterlimit="10" stroke-linecap="round" stroke-linejoin="round"/>
<path d="M48.0255 71.2233C48.0255 72.8904 46.6741 74.2419 45.0069 74.2419C43.3398 74.2419 41.9883 72.8904 41.9883 71.2233C41.9883 69.5563 43.3398 68.2049 45.0069 68.2049C46.6741 68.2049 48.0255 69.5563 48.0255 71.2233Z" stroke="url(#paint24_linear_1808_4474)" stroke-width="2.5" stroke-miterlimit="10" stroke-linecap="round" stroke-linejoin="round"/>
<path d="M54.0644 71.2233C54.0644 72.8904 52.713 74.2419 51.0458 74.2419C49.3788 74.2419 48.0273 72.8904 48.0273 71.2233C48.0273 69.5563 49.3788 68.2049 51.0458 68.2049C52.713 68.2049 54.0644 69.5563 54.0644 71.2233Z" stroke="url(#paint25_linear_1808_4474)" stroke-width="2.5" stroke-miterlimit="10" stroke-linecap="round" stroke-linejoin="round"/>
</g>
<defs>
<linearGradient id="paint0_linear_1808_4474" x1="75.086" y1="45.4937" x2="75.086" y2="29.2708" gradientUnits="userSpaceOnUse">
<stop stop-color="#9747FF"/>
<stop offset="1" stop-color="#4B9ADB"/>
</linearGradient>
<linearGradient id="paint1_linear_1808_4474" x1="63.0937" y1="15.9927" x2="63.0937" y2="10.8753" gradientUnits="userSpaceOnUse">
<stop stop-color="#9747FF"/>
<stop offset="1" stop-color="#4B9ADB"/>
</linearGradient>
<linearGradient id="paint2_linear_1808_4474" x1="14.682" y1="57.3662" x2="14.682" y2="10.8753" gradientUnits="userSpaceOnUse">
<stop stop-color="#9747FF"/>
<stop offset="1" stop-color="#4B9ADB"/>
</linearGradient>
<linearGradient id="paint3_linear_1808_4474" x1="15.2412" y1="71.2234" x2="15.2412" y2="62.1914" gradientUnits="userSpaceOnUse">
<stop stop-color="#9747FF"/>
<stop offset="1" stop-color="#4B9ADB"/>
</linearGradient>
<linearGradient id="paint4_linear_1808_4474" x1="62.7021" y1="71.2234" x2="62.7021" y2="65.9896" gradientUnits="userSpaceOnUse">
<stop stop-color="#9747FF"/>
<stop offset="1" stop-color="#4B9ADB"/>
</linearGradient>
<linearGradient id="paint5_linear_1808_4474" x1="71.8438" y1="52.7085" x2="71.8438" y2="46.0897" gradientUnits="userSpaceOnUse">
<stop stop-color="#9747FF"/>
<stop offset="1" stop-color="#4B9ADB"/>
</linearGradient>
<linearGradient id="paint6_linear_1808_4474" x1="52.5166" y1="14.2415" x2="52.5166" y2="7.50942" gradientUnits="userSpaceOnUse">
<stop stop-color="#9747FF"/>
<stop offset="1" stop-color="#4B9ADB"/>
</linearGradient>
<linearGradient id="paint7_linear_1808_4474" x1="41.8904" y1="15.9927" x2="41.8904" y2="5.75799" gradientUnits="userSpaceOnUse">
<stop stop-color="#9747FF"/>
<stop offset="1" stop-color="#4B9ADB"/>
</linearGradient>
<linearGradient id="paint8_linear_1808_4474" x1="30.3387" y1="15.9927" x2="30.3387" y2="5.75799" gradientUnits="userSpaceOnUse">
<stop stop-color="#9747FF"/>
<stop offset="1" stop-color="#4B9ADB"/>
</linearGradient>
<linearGradient id="paint9_linear_1808_4474" x1="12.7933" y1="46.5425" x2="12.7933" y2="39.5312" gradientUnits="userSpaceOnUse">
<stop stop-color="#9747FF"/>
<stop offset="1" stop-color="#4B9ADB"/>
</linearGradient>
<linearGradient id="paint10_linear_1808_4474" x1="12.7972" y1="26.4844" x2="12.7972" y2="21.217" gradientUnits="userSpaceOnUse">
<stop stop-color="#9747FF"/>
<stop offset="1" stop-color="#4B9ADB"/>
</linearGradient>
<linearGradient id="paint11_linear_1808_4474" x1="18.9902" y1="39.0708" x2="18.9902" y2="26.8327" gradientUnits="userSpaceOnUse">
<stop stop-color="#9747FF"/>
<stop offset="1" stop-color="#4B9ADB"/>
</linearGradient>
<linearGradient id="paint12_linear_1808_4474" x1="18.9913" y1="34.3062" x2="18.9913" y2="31.5969" gradientUnits="userSpaceOnUse">
<stop stop-color="#9747FF"/>
<stop offset="1" stop-color="#4B9ADB"/>
</linearGradient>
<linearGradient id="paint13_linear_1808_4474" x1="18.9913" y1="34.3062" x2="18.9913" y2="31.5969" gradientUnits="userSpaceOnUse">
<stop stop-color="#9747FF"/>
<stop offset="1" stop-color="#4B9ADB"/>
</linearGradient>
<linearGradient id="paint14_linear_1808_4474" x1="71.3417" y1="28.7039" x2="71.3417" y2="16.4656" gradientUnits="userSpaceOnUse">
<stop stop-color="#9747FF"/>
<stop offset="1" stop-color="#4B9ADB"/>
</linearGradient>
<linearGradient id="paint15_linear_1808_4474" x1="71.3454" y1="22.5847" x2="71.3454" y2="21.5847" gradientUnits="userSpaceOnUse">
<stop stop-color="#9747FF"/>
<stop offset="1" stop-color="#4B9ADB"/>
</linearGradient>
<linearGradient id="paint16_linear_1808_4474" x1="71.6084" y1="65.4009" x2="71.6084" y2="53.1628" gradientUnits="userSpaceOnUse">
<stop stop-color="#9747FF"/>
<stop offset="1" stop-color="#4B9ADB"/>
</linearGradient>
<linearGradient id="paint17_linear_1808_4474" x1="71.8438" y1="61.1975" x2="71.8438" y2="57.3661" gradientUnits="userSpaceOnUse">
<stop stop-color="#9747FF"/>
<stop offset="1" stop-color="#4B9ADB"/>
</linearGradient>
<linearGradient id="paint18_linear_1808_4474" x1="71.3454" y1="59.282" x2="71.3454" y2="58.282" gradientUnits="userSpaceOnUse">
<stop stop-color="#9747FF"/>
<stop offset="1" stop-color="#4B9ADB"/>
</linearGradient>
<linearGradient id="paint19_linear_1808_4474" x1="6.59969" y1="57.3662" x2="6.59969" y2="56.3662" gradientUnits="userSpaceOnUse">
<stop stop-color="#9747FF"/>
<stop offset="1" stop-color="#4B9ADB"/>
</linearGradient>
<linearGradient id="paint20_linear_1808_4474" x1="6.59883" y1="62.1914" x2="6.59883" y2="61.1914" gradientUnits="userSpaceOnUse">
<stop stop-color="#9747FF"/>
<stop offset="1" stop-color="#4B9ADB"/>
</linearGradient>
<linearGradient id="paint21_linear_1808_4474" x1="26.8975" y1="74.2419" x2="26.8975" y2="68.2049" gradientUnits="userSpaceOnUse">
<stop stop-color="#9747FF"/>
<stop offset="1" stop-color="#4B9ADB"/>
</linearGradient>
<linearGradient id="paint22_linear_1808_4474" x1="32.9365" y1="74.2419" x2="32.9365" y2="68.2049" gradientUnits="userSpaceOnUse">
<stop stop-color="#9747FF"/>
<stop offset="1" stop-color="#4B9ADB"/>
</linearGradient>
<linearGradient id="paint23_linear_1808_4474" x1="38.9716" y1="74.2419" x2="38.9716" y2="68.2049" gradientUnits="userSpaceOnUse">
<stop stop-color="#9747FF"/>
<stop offset="1" stop-color="#4B9ADB"/>
</linearGradient>
<linearGradient id="paint24_linear_1808_4474" x1="45.0069" y1="74.2419" x2="45.0069" y2="68.2049" gradientUnits="userSpaceOnUse">
<stop stop-color="#9747FF"/>
<stop offset="1" stop-color="#4B9ADB"/>
</linearGradient>
<linearGradient id="paint25_linear_1808_4474" x1="51.0459" y1="74.2419" x2="51.0459" y2="68.2049" gradientUnits="userSpaceOnUse">
<stop stop-color="#9747FF"/>
<stop offset="1" stop-color="#4B9ADB"/>
</linearGradient>
</defs>
</svg>
