<svg width="80" height="80" viewBox="0 0 80 80" fill="none" xmlns="http://www.w3.org/2000/svg">
<path d="M56.0782 71.7967L42.5629 70.5849C42.4039 70.5715 42.2464 70.5189 42.0996 70.4303C41.9529 70.3416 41.8198 70.2187 41.708 70.0686C41.5963 69.9186 41.5081 69.7443 41.4487 69.5561C41.3893 69.3678 41.3598 69.1692 41.362 68.9719L41.4731 62.0178C41.4795 61.6286 41.6066 61.2677 41.828 61.01C42.0493 60.7524 42.348 60.6179 42.6618 60.6344L56.1271 61.5743C56.2865 61.5862 56.4446 61.6371 56.5922 61.7241C56.7399 61.8111 56.8743 61.9324 56.9877 62.0812C57.1011 62.2299 57.1913 62.4031 57.2531 62.5908C57.3148 62.7786 57.347 62.9771 57.3477 63.1751L57.3592 70.4526C57.354 70.6529 57.3165 70.8471 57.2489 71.0238C57.1814 71.2005 57.085 71.3561 56.9656 71.4814C56.8462 71.6066 56.7062 71.6991 56.5538 71.7533C56.4013 71.8074 56.2396 71.8222 56.0782 71.7967Z" stroke="#393939" stroke-width="2.3134" stroke-linecap="round"/>
<path d="M44.4342 60.6435L44.6993 48.9273C44.711 48.5522 44.7833 48.189 44.9121 47.8591C45.0408 47.5292 45.2234 47.2393 45.449 47.0066C47.6388 44.7627 54.3562 38.1355 57.0334 35.8775C59.0457 34.1764 61.516 35.0101 62.2741 37.1293C63.262 39.9646 61.9937 41.7482 60.8718 42.8378C60.7199 42.9878 60.5576 43.1214 60.3866 43.2373L55.2841 46.9413" stroke="#393939" stroke-width="2.3134" stroke-linecap="round"/>
<path d="M55.4495 61.0708L55.6598 57.3594L67.3026 45.9222C67.4212 45.8038 67.5167 45.6538 67.5826 45.482C67.6486 45.3102 67.6836 45.1204 67.6853 44.9252C67.7182 41.8935 67.769 28.6058 67.6337 21.9144C67.6703 21.4123 67.6044 20.8982 67.4421 20.4188C67.2797 19.9395 67.026 19.5101 66.7041 19.1699C66.3822 18.8297 66.0023 18.5894 65.599 18.4709C65.1957 18.3525 64.7818 18.3596 64.3951 18.4916C63.7271 18.6445 63.132 19.0671 62.6996 19.6956C62.2671 20.3242 62.0205 21.1248 61.997 21.977C61.8573 24.1454 62.1207 30.7704 62.1207 30.7704" stroke="#393939" stroke-width="2.3134" stroke-linecap="round"/>
<path d="M23.4756 71.9356L37.0005 70.9045C37.1596 70.8931 37.3177 70.8427 37.4655 70.7561C37.6133 70.6694 37.7479 70.5483 37.8614 70.3998C37.975 70.2512 38.0653 70.0782 38.127 69.8908C38.1887 69.7034 38.2206 69.5053 38.221 69.308L38.1961 62.3547C38.1945 61.9655 38.072 61.603 37.8539 61.3425C37.6358 61.082 37.339 60.9436 37.0251 60.9559L23.5536 61.7159C23.3941 61.7257 23.2355 61.7745 23.0867 61.8595C22.938 61.9445 22.8022 62.064 22.687 62.2111C22.5718 62.3583 22.4795 62.5303 22.4154 62.7171C22.3513 62.9039 22.3167 63.102 22.3136 63.2999L22.2118 70.5749C22.2145 70.7752 22.2495 70.9698 22.3149 71.1474C22.3803 71.3249 22.4747 71.4817 22.5925 71.6086C22.7103 71.7354 22.8491 71.8297 23.0008 71.8859C23.1525 71.942 23.3139 71.959 23.4756 71.9356Z" stroke="#393939" stroke-width="2.3134" stroke-linecap="round"/>
<path d="M35.229 60.9448L35.1095 49.2148C35.1025 48.8392 35.0346 48.4747 34.9098 48.1428C34.7851 47.8109 34.6059 47.5183 34.383 47.2824C32.2189 45.0073 25.5771 38.2847 22.9252 35.9889C20.9321 34.2595 18.4488 35.0609 17.6636 37.1718C16.6394 39.9965 17.8868 41.7986 18.9963 42.9042C19.1464 43.0563 19.3072 43.1922 19.477 43.3104L24.5386 47.0858" stroke="#393939" stroke-width="2.3134" stroke-linecap="round"/>
<path d="M24.1895 61.2006L24.0252 57.4835L12.5147 45.882C12.3974 45.762 12.3038 45.6105 12.2399 45.4377C12.176 45.2649 12.1433 45.0746 12.144 44.8792C12.1488 41.8447 12.2634 28.5459 12.4821 21.8511C12.4517 21.3481 12.524 20.8344 12.6925 20.3569C12.8609 19.8793 13.1202 19.453 13.4466 19.1169C13.773 18.7807 14.1562 18.5453 14.5614 18.4321C14.9665 18.3189 15.3806 18.3315 15.7661 18.4688C16.4328 18.6308 17.023 19.0616 17.4481 19.6964C17.8731 20.3313 18.1099 21.1358 18.1228 21.9889C18.2357 24.1609 17.8896 30.7875 17.8896 30.7875" stroke="#393939" stroke-width="2.3134" stroke-linecap="round"/>
<path d="M39.9805 9.12012C40.4208 8.9587 40.9043 8.9589 41.3447 9.12012V9.12109L52.6133 13.2725C52.9932 13.4138 53.3214 13.6686 53.5537 14.0029C53.7573 14.2961 53.879 14.6383 53.9062 14.9932L53.9121 15.1465V24.2363C53.8861 26.4969 53.2667 28.7106 52.1162 30.6543C50.9638 32.6011 49.319 34.2078 47.3496 35.3125L47.3418 35.3174L47.333 35.3223L41.6611 38.6494L41.6504 38.6562C41.355 38.8347 41.0162 38.9267 40.6719 38.9238H40.6543C40.31 38.9267 39.9712 38.8346 39.6758 38.6562L39.665 38.6494L33.9932 35.3223L33.9844 35.3174L33.9766 35.3125L33.6113 35.0996C31.8036 34.0057 30.2904 32.4795 29.21 30.6543C28.1296 28.8292 27.518 26.7659 27.4258 24.6494L27.4141 24.2256V15.1465C27.4142 14.7375 27.5397 14.338 27.7725 14.0029C28.0048 13.6686 28.333 13.4138 28.7129 13.2725L39.9805 9.12012Z" stroke="#393939" stroke-width="2"/>
<path d="M35.9805 23.1607L38.9475 26.1278L44.8817 19.7698" stroke="#393939" stroke-width="1.98387" stroke-linecap="round" stroke-linejoin="round"/>
</svg>
