<svg width="80" height="80" viewBox="0 0 80 80" fill="none" xmlns="http://www.w3.org/2000/svg">
<path d="M61.2334 71.8328H18.768C17.2053 71.8328 15.9336 70.5613 15.9336 68.9984V23.1479C15.9336 21.585 17.2051 20.3135 18.768 20.3135H61.2333C62.7962 20.3135 64.0677 21.585 64.0677 23.1479V68.9984C64.0678 70.5613 62.7963 71.8328 61.2334 71.8328ZM18.768 21.7306C17.9866 21.7306 17.3509 22.3663 17.3509 23.1479V68.9984C17.3509 69.78 17.9866 70.4156 18.768 70.4156H61.2333C62.0149 70.4156 62.6506 69.78 62.6506 68.9984V23.1479C62.6506 22.3663 62.0149 21.7306 61.2333 21.7306H18.768Z" fill="url(#paint0_linear_1743_3302)"/>
<path d="M27.942 40.5175C24.2628 40.5175 21.2695 37.5242 21.2695 33.845C21.2695 30.1656 24.2628 27.1724 27.942 27.1724C31.6214 27.1724 34.6145 30.1656 34.6145 33.845C34.6145 37.5242 31.6214 40.5175 27.942 40.5175ZM27.942 28.5896C25.0443 28.5896 22.6867 30.9472 22.6867 33.845C22.6867 36.7426 25.0443 39.1004 27.942 39.1004C30.8398 39.1004 33.1974 36.7426 33.1974 33.845C33.1972 30.9472 30.8398 28.5896 27.942 28.5896Z" fill="url(#paint1_linear_1743_3302)"/>
<path d="M27.942 63.0895C24.2628 63.0895 21.2695 60.0962 21.2695 56.4169C21.2695 52.7377 24.2628 49.7444 27.942 49.7444C31.6214 49.7444 34.6145 52.7377 34.6145 56.4169C34.6145 60.0962 31.6214 63.0895 27.942 63.0895ZM27.942 51.1615C25.0443 51.1615 22.6867 53.5193 22.6867 56.4169C22.6867 59.3146 25.0443 61.6722 27.942 61.6722C30.8398 61.6722 33.1974 59.3146 33.1974 56.4169C33.1972 53.5193 30.8398 51.1615 27.942 51.1615Z" fill="url(#paint2_linear_1743_3302)"/>
<path d="M50.047 39.7163C46.8095 39.7163 44.1758 37.0825 44.1758 33.8451C44.1758 30.6076 46.8095 27.9739 50.047 27.9739C53.2841 27.9739 55.9179 30.6076 55.9179 33.8451C55.9179 37.0825 53.2841 39.7163 50.047 39.7163ZM50.047 29.391C47.5911 29.391 45.5931 31.3892 45.5931 33.8451C45.5931 36.3009 47.5911 38.299 50.047 38.299C52.5028 38.299 54.5007 36.3009 54.5007 33.8451C54.5007 31.3891 52.5028 29.391 50.047 29.391Z" fill="url(#paint3_linear_1743_3302)"/>
<path d="M50.0485 26.6958C49.6573 26.6958 49.3398 26.3787 49.3398 25.9871V24.1254C49.3398 23.7342 49.6571 23.4167 50.0485 23.4167C50.4398 23.4167 50.7571 23.734 50.7571 24.1254V25.9871C50.7571 26.3785 50.4398 26.6958 50.0485 26.6958Z" fill="url(#paint4_linear_1743_3302)"/>
<path d="M55.6031 28.9974C55.422 28.9974 55.2405 28.9281 55.1021 28.7897C54.8253 28.5129 54.8253 28.0644 55.1021 27.7878L56.4186 26.4713C56.6954 26.1945 57.1439 26.1945 57.4205 26.4713C57.6973 26.7481 57.6973 27.1966 57.4205 27.4732L56.1041 28.7897C55.9657 28.9281 55.7844 28.9974 55.6031 28.9974Z" fill="url(#paint5_linear_1743_3302)"/>
<path d="M59.766 34.5535H57.904C57.5126 34.5535 57.1953 34.2362 57.1953 33.8449C57.1953 33.4535 57.5126 33.1362 57.904 33.1362H59.766C60.1572 33.1362 60.4747 33.4535 60.4747 33.8449C60.4747 34.2362 60.1572 34.5535 59.766 34.5535Z" fill="url(#paint6_linear_1743_3302)"/>
<path d="M56.9196 41.4265C56.7385 41.4265 56.557 41.3573 56.4186 41.2189L55.1021 39.9024C54.8253 39.6256 54.8253 39.1773 55.1021 38.9005C55.3789 38.6237 55.8274 38.6237 56.1041 38.9005L57.4205 40.217C57.6973 40.4938 57.6973 40.9422 57.4205 41.2189C57.2823 41.3573 57.101 41.4265 56.9196 41.4265Z" fill="url(#paint7_linear_1743_3302)"/>
<path d="M50.0485 44.2732C49.6573 44.2732 49.3398 43.9561 49.3398 43.5645V41.7028C49.3398 41.3116 49.6571 40.9941 50.0485 40.9941C50.4398 40.9941 50.7571 41.3114 50.7571 41.7028V43.5645C50.7571 43.9561 50.4398 44.2732 50.0485 44.2732Z" fill="url(#paint8_linear_1743_3302)"/>
<path d="M43.1734 41.4265C42.9921 41.4265 42.8108 41.3573 42.6724 41.2189C42.3956 40.9421 42.3956 40.4938 42.6724 40.217L43.9889 38.9005C44.2657 38.6237 44.7142 38.6237 44.9908 38.9005C45.2676 39.1773 45.2676 39.6258 44.9908 39.9024L43.6744 41.2189C43.5361 41.3573 43.3548 41.4265 43.1734 41.4265Z" fill="url(#paint9_linear_1743_3302)"/>
<path d="M42.1915 34.5535H40.3297C39.9384 34.5535 39.6211 34.2362 39.6211 33.8449C39.6211 33.4535 39.9384 33.1362 40.3297 33.1362H42.1915C42.5827 33.1362 42.9001 33.4535 42.9001 33.8449C42.9001 34.2362 42.5829 34.5535 42.1915 34.5535Z" fill="url(#paint10_linear_1743_3302)"/>
<path d="M44.4899 28.9974C44.3086 28.9974 44.1273 28.9281 43.9889 28.7897L42.6724 27.4732C42.3956 27.1964 42.3956 26.7479 42.6724 26.4713C42.9492 26.1945 43.3977 26.1945 43.6744 26.4713L44.9908 27.7878C45.2676 28.0646 45.2676 28.513 44.9908 28.7897C44.8524 28.9281 44.6712 28.9974 44.4899 28.9974Z" fill="url(#paint11_linear_1743_3302)"/>
<path d="M50.0485 32.5214C49.6573 32.5214 49.3398 32.2041 49.3398 31.8128V28.6825C49.3398 28.2913 49.6571 27.9739 50.0485 27.9739C50.4398 27.9739 50.7571 28.2912 50.7571 28.6825V31.8128C50.7571 32.2041 50.4398 32.5214 50.0485 32.5214Z" fill="url(#paint12_linear_1743_3302)"/>
<path d="M46.7985 49.7437H42.1891C41.7978 49.7437 41.4805 49.4264 41.4805 49.0351C41.4805 48.6437 41.7978 48.3264 42.1891 48.3264H46.7985C47.1897 48.3264 47.5072 48.6437 47.5072 49.0351C47.5072 49.4263 47.1897 49.7437 46.7985 49.7437Z" fill="url(#paint13_linear_1743_3302)"/>
<path d="M58.3925 49.7437H50.5993C50.2081 49.7437 49.8906 49.4264 49.8906 49.0351C49.8906 48.6437 50.2079 48.3264 50.5993 48.3264H58.3925C58.7837 48.3264 59.1012 48.6437 59.1012 49.0351C59.101 49.4263 58.7837 49.7437 58.3925 49.7437Z" fill="url(#paint14_linear_1743_3302)"/>
<path d="M46.7985 54.0601H42.1891C41.7978 54.0601 41.4805 53.7428 41.4805 53.3515C41.4805 52.9601 41.7978 52.6428 42.1891 52.6428H46.7985C47.1897 52.6428 47.5072 52.9601 47.5072 53.3515C47.5072 53.7428 47.1897 54.0601 46.7985 54.0601Z" fill="url(#paint15_linear_1743_3302)"/>
<path d="M58.3925 54.0601H50.5993C50.2081 54.0601 49.8906 53.7428 49.8906 53.3515C49.8906 52.9601 50.2079 52.6428 50.5993 52.6428H58.3925C58.7837 52.6428 59.1012 52.9601 59.1012 53.3515C59.101 53.7428 58.7837 54.0601 58.3925 54.0601Z" fill="url(#paint16_linear_1743_3302)"/>
<path d="M46.7985 58.3763H42.1891C41.7978 58.3763 41.4805 58.059 41.4805 57.6676C41.4805 57.2764 41.7978 56.959 42.1891 56.959H46.7985C47.1897 56.959 47.5072 57.2763 47.5072 57.6676C47.5072 58.059 47.1897 58.3763 46.7985 58.3763Z" fill="url(#paint17_linear_1743_3302)"/>
<path d="M58.3925 58.3763H50.5993C50.2081 58.3763 49.8906 58.059 49.8906 57.6676C49.8906 57.2764 50.2079 56.959 50.5993 56.959H58.3925C58.7837 56.959 59.1012 57.2763 59.1012 57.6676C59.101 58.059 58.7837 58.3763 58.3925 58.3763Z" fill="url(#paint18_linear_1743_3302)"/>
<path d="M46.7985 62.6924H42.1891C41.7978 62.6924 41.4805 62.3751 41.4805 61.9838C41.4805 61.5926 41.7978 61.2751 42.1891 61.2751H46.7985C47.1897 61.2751 47.5072 61.5924 47.5072 61.9838C47.5072 62.3753 47.1897 62.6924 46.7985 62.6924Z" fill="url(#paint19_linear_1743_3302)"/>
<path d="M58.3925 62.6924H50.5993C50.2081 62.6924 49.8906 62.3751 49.8906 61.9838C49.8906 61.5926 50.2079 61.2751 50.5993 61.2751H58.3925C58.7837 61.2751 59.1012 61.5924 59.1012 61.9838C59.101 62.3753 58.7837 62.6924 58.3925 62.6924Z" fill="url(#paint20_linear_1743_3302)"/>
<path d="M46.7985 67.0086H42.1891C41.7978 67.0086 41.4805 66.6913 41.4805 66.2999C41.4805 65.9086 41.7978 65.5913 42.1891 65.5913H46.7985C47.1897 65.5913 47.5072 65.9086 47.5072 66.2999C47.5072 66.6913 47.1897 67.0086 46.7985 67.0086Z" fill="url(#paint21_linear_1743_3302)"/>
<path d="M58.3925 67.0086H50.5993C50.2081 67.0086 49.8906 66.6913 49.8906 66.2999C49.8906 65.9086 50.2079 65.5913 50.5993 65.5913H58.3925C58.7837 65.5913 59.1012 65.9086 59.1012 66.2999C59.1012 66.6913 58.7837 67.0086 58.3925 67.0086Z" fill="url(#paint22_linear_1743_3302)"/>
<path d="M33.5142 45.2583H20.904C20.5126 45.2583 20.1953 44.9411 20.1953 44.5497C20.1953 44.1583 20.5126 43.8411 20.904 43.8411H33.5142C33.9054 43.8411 34.2228 44.1582 34.2228 44.5497C34.2228 44.9411 33.9054 45.2583 33.5142 45.2583Z" fill="url(#paint23_linear_1743_3302)"/>
<path d="M43.5754 16.3562H36.4274C36.0362 16.3562 35.7188 16.0389 35.7188 15.6475V4.70864C35.7188 4.31728 36.036 4 36.4274 4H43.5754C43.9666 4 44.284 4.31728 44.284 4.70864V15.6477C44.2839 16.0389 43.9666 16.3562 43.5754 16.3562ZM37.1359 14.939H42.8666V5.41712H37.1359V14.939Z" fill="url(#paint24_linear_1743_3302)"/>
<path d="M46.8857 21.7306H33.1188C32.7274 21.7306 32.4102 21.4134 32.4102 21.022V15.6476C32.4102 15.2564 32.7274 14.939 33.1188 14.939H46.8857C47.277 14.939 47.5943 15.2562 47.5943 15.6476V21.022C47.5943 21.4135 47.277 21.7306 46.8857 21.7306ZM33.8274 20.3135H46.177V16.3564H33.8274V20.3135Z" fill="url(#paint25_linear_1743_3302)"/>
<path d="M31.4962 76H23.6241C22.3559 76 21.3242 74.9682 21.3242 73.7002V71.1242C21.3242 70.733 21.6413 70.4155 22.0329 70.4155H33.0874C33.4786 70.4155 33.7961 70.7328 33.7961 71.1242V73.7002C33.7961 74.9682 32.7642 76 31.4962 76ZM22.7415 71.8328V73.7C22.7415 74.1869 23.1373 74.5827 23.6241 74.5827H31.4962C31.9829 74.5827 32.3788 74.1869 32.3788 73.7V71.8328H22.7415Z" fill="url(#paint26_linear_1743_3302)"/>
<path d="M56.379 76H48.5069C47.2387 76 46.207 74.9682 46.207 73.7002V71.1242C46.207 70.733 46.5241 70.4155 46.9157 70.4155H57.9702C58.3614 70.4155 58.6789 70.7328 58.6789 71.1242V73.7002C58.6789 74.9682 57.647 76 56.379 76ZM47.6242 71.8328V73.7C47.6242 74.1869 48.02 74.5827 48.5067 74.5827H56.3789C56.8656 74.5827 57.2614 74.1869 57.2614 73.7V71.8328H47.6242Z" fill="url(#paint27_linear_1743_3302)"/>
<path d="M27.943 34.5536C27.5518 34.5536 27.2344 34.2364 27.2344 33.845V27.881C27.2344 27.4898 27.5517 27.1724 27.943 27.1724C28.3342 27.1724 28.6517 27.4896 28.6517 27.881V33.845C28.6515 34.2364 28.3342 34.5536 27.943 34.5536Z" fill="url(#paint28_linear_1743_3302)"/>
<path d="M27.943 57.1255C27.5518 57.1255 27.2344 56.8082 27.2344 56.4169V50.453C27.2344 50.0617 27.5517 49.7444 27.943 49.7444C28.3342 49.7444 28.6517 50.0617 28.6517 50.453V56.4169C28.6515 56.8082 28.3342 57.1255 27.943 57.1255Z" fill="url(#paint29_linear_1743_3302)"/>
<defs>
<linearGradient id="paint0_linear_1743_3302" x1="40.0006" y1="20.3135" x2="40.0006" y2="71.8328" gradientUnits="userSpaceOnUse">
<stop stop-color="#9747FF"/>
<stop offset="1" stop-color="#4B9ADB"/>
</linearGradient>
<linearGradient id="paint1_linear_1743_3302" x1="27.942" y1="27.1724" x2="27.942" y2="40.5175" gradientUnits="userSpaceOnUse">
<stop stop-color="#9747FF"/>
<stop offset="1" stop-color="#4B9ADB"/>
</linearGradient>
<linearGradient id="paint2_linear_1743_3302" x1="27.942" y1="49.7444" x2="27.942" y2="63.0895" gradientUnits="userSpaceOnUse">
<stop stop-color="#9747FF"/>
<stop offset="1" stop-color="#4B9ADB"/>
</linearGradient>
<linearGradient id="paint3_linear_1743_3302" x1="50.0468" y1="27.9739" x2="50.0468" y2="39.7163" gradientUnits="userSpaceOnUse">
<stop stop-color="#9747FF"/>
<stop offset="1" stop-color="#4B9ADB"/>
</linearGradient>
<linearGradient id="paint4_linear_1743_3302" x1="50.0485" y1="23.4167" x2="50.0485" y2="26.6958" gradientUnits="userSpaceOnUse">
<stop stop-color="#9747FF"/>
<stop offset="1" stop-color="#4B9ADB"/>
</linearGradient>
<linearGradient id="paint5_linear_1743_3302" x1="56.2613" y1="26.2637" x2="56.2613" y2="28.9974" gradientUnits="userSpaceOnUse">
<stop stop-color="#9747FF"/>
<stop offset="1" stop-color="#4B9ADB"/>
</linearGradient>
<linearGradient id="paint6_linear_1743_3302" x1="58.835" y1="33.1362" x2="58.835" y2="34.5535" gradientUnits="userSpaceOnUse">
<stop stop-color="#9747FF"/>
<stop offset="1" stop-color="#4B9ADB"/>
</linearGradient>
<linearGradient id="paint7_linear_1743_3302" x1="56.2613" y1="38.6929" x2="56.2613" y2="41.4265" gradientUnits="userSpaceOnUse">
<stop stop-color="#9747FF"/>
<stop offset="1" stop-color="#4B9ADB"/>
</linearGradient>
<linearGradient id="paint8_linear_1743_3302" x1="50.0485" y1="40.9941" x2="50.0485" y2="44.2732" gradientUnits="userSpaceOnUse">
<stop stop-color="#9747FF"/>
<stop offset="1" stop-color="#4B9ADB"/>
</linearGradient>
<linearGradient id="paint9_linear_1743_3302" x1="43.8316" y1="38.6929" x2="43.8316" y2="41.4265" gradientUnits="userSpaceOnUse">
<stop stop-color="#9747FF"/>
<stop offset="1" stop-color="#4B9ADB"/>
</linearGradient>
<linearGradient id="paint10_linear_1743_3302" x1="41.2606" y1="33.1362" x2="41.2606" y2="34.5535" gradientUnits="userSpaceOnUse">
<stop stop-color="#9747FF"/>
<stop offset="1" stop-color="#4B9ADB"/>
</linearGradient>
<linearGradient id="paint11_linear_1743_3302" x1="43.8316" y1="26.2637" x2="43.8316" y2="28.9974" gradientUnits="userSpaceOnUse">
<stop stop-color="#9747FF"/>
<stop offset="1" stop-color="#4B9ADB"/>
</linearGradient>
<linearGradient id="paint12_linear_1743_3302" x1="50.0485" y1="27.9739" x2="50.0485" y2="32.5214" gradientUnits="userSpaceOnUse">
<stop stop-color="#9747FF"/>
<stop offset="1" stop-color="#4B9ADB"/>
</linearGradient>
<linearGradient id="paint13_linear_1743_3302" x1="44.4938" y1="48.3264" x2="44.4938" y2="49.7437" gradientUnits="userSpaceOnUse">
<stop stop-color="#9747FF"/>
<stop offset="1" stop-color="#4B9ADB"/>
</linearGradient>
<linearGradient id="paint14_linear_1743_3302" x1="54.4959" y1="48.3264" x2="54.4959" y2="49.7437" gradientUnits="userSpaceOnUse">
<stop stop-color="#9747FF"/>
<stop offset="1" stop-color="#4B9ADB"/>
</linearGradient>
<linearGradient id="paint15_linear_1743_3302" x1="44.4938" y1="52.6428" x2="44.4938" y2="54.0601" gradientUnits="userSpaceOnUse">
<stop stop-color="#9747FF"/>
<stop offset="1" stop-color="#4B9ADB"/>
</linearGradient>
<linearGradient id="paint16_linear_1743_3302" x1="54.4959" y1="52.6428" x2="54.4959" y2="54.0601" gradientUnits="userSpaceOnUse">
<stop stop-color="#9747FF"/>
<stop offset="1" stop-color="#4B9ADB"/>
</linearGradient>
<linearGradient id="paint17_linear_1743_3302" x1="44.4938" y1="56.959" x2="44.4938" y2="58.3763" gradientUnits="userSpaceOnUse">
<stop stop-color="#9747FF"/>
<stop offset="1" stop-color="#4B9ADB"/>
</linearGradient>
<linearGradient id="paint18_linear_1743_3302" x1="54.4959" y1="56.959" x2="54.4959" y2="58.3763" gradientUnits="userSpaceOnUse">
<stop stop-color="#9747FF"/>
<stop offset="1" stop-color="#4B9ADB"/>
</linearGradient>
<linearGradient id="paint19_linear_1743_3302" x1="44.4938" y1="61.2751" x2="44.4938" y2="62.6924" gradientUnits="userSpaceOnUse">
<stop stop-color="#9747FF"/>
<stop offset="1" stop-color="#4B9ADB"/>
</linearGradient>
<linearGradient id="paint20_linear_1743_3302" x1="54.4959" y1="61.2751" x2="54.4959" y2="62.6924" gradientUnits="userSpaceOnUse">
<stop stop-color="#9747FF"/>
<stop offset="1" stop-color="#4B9ADB"/>
</linearGradient>
<linearGradient id="paint21_linear_1743_3302" x1="44.4938" y1="65.5913" x2="44.4938" y2="67.0086" gradientUnits="userSpaceOnUse">
<stop stop-color="#9747FF"/>
<stop offset="1" stop-color="#4B9ADB"/>
</linearGradient>
<linearGradient id="paint22_linear_1743_3302" x1="54.4959" y1="65.5913" x2="54.4959" y2="67.0086" gradientUnits="userSpaceOnUse">
<stop stop-color="#9747FF"/>
<stop offset="1" stop-color="#4B9ADB"/>
</linearGradient>
<linearGradient id="paint23_linear_1743_3302" x1="27.2091" y1="43.8411" x2="27.2091" y2="45.2583" gradientUnits="userSpaceOnUse">
<stop stop-color="#9747FF"/>
<stop offset="1" stop-color="#4B9ADB"/>
</linearGradient>
<linearGradient id="paint24_linear_1743_3302" x1="40.0014" y1="4" x2="40.0014" y2="16.3562" gradientUnits="userSpaceOnUse">
<stop stop-color="#9747FF"/>
<stop offset="1" stop-color="#4B9ADB"/>
</linearGradient>
<linearGradient id="paint25_linear_1743_3302" x1="40.0022" y1="14.939" x2="40.0022" y2="21.7306" gradientUnits="userSpaceOnUse">
<stop stop-color="#9747FF"/>
<stop offset="1" stop-color="#4B9ADB"/>
</linearGradient>
<linearGradient id="paint26_linear_1743_3302" x1="27.5601" y1="70.4155" x2="27.5601" y2="76" gradientUnits="userSpaceOnUse">
<stop stop-color="#9747FF"/>
<stop offset="1" stop-color="#4B9ADB"/>
</linearGradient>
<linearGradient id="paint27_linear_1743_3302" x1="52.443" y1="70.4155" x2="52.443" y2="76" gradientUnits="userSpaceOnUse">
<stop stop-color="#9747FF"/>
<stop offset="1" stop-color="#4B9ADB"/>
</linearGradient>
<linearGradient id="paint28_linear_1743_3302" x1="27.943" y1="27.1724" x2="27.943" y2="34.5536" gradientUnits="userSpaceOnUse">
<stop stop-color="#9747FF"/>
<stop offset="1" stop-color="#4B9ADB"/>
</linearGradient>
<linearGradient id="paint29_linear_1743_3302" x1="27.943" y1="49.7444" x2="27.943" y2="57.1255" gradientUnits="userSpaceOnUse">
<stop stop-color="#9747FF"/>
<stop offset="1" stop-color="#4B9ADB"/>
</linearGradient>
</defs>
</svg>
