<svg width="80" height="80" viewBox="0 0 80 80" fill="none" xmlns="http://www.w3.org/2000/svg">
<g clip-path="url(#clip0_1716_3171)">
<mask id="path-1-inside-1_1716_3171" fill="white">
<path d="M79.6194 20.0723L40.2744 0.72228C40.0945 0.633915 39.8849 0.633915 39.7049 0.72228L0.35991 20.0723C0.14964 20.1761 0 20.4154 0 20.6515V59.3515C0 59.5972 0.139965 59.8217 0.360555 59.9301L39.7056 79.2801C39.8784 79.3646 40.1016 79.3646 40.2751 79.2801L79.6201 59.9301C79.8407 59.8217 79.9806 59.5972 79.9806 59.3515V20.6515C80.0606 20.4361 79.8858 20.0871 79.6194 20.0723ZM40.635 77.665V66.929C40.635 66.5729 40.3467 66.284 39.99 66.284C39.6333 66.284 39.345 66.5729 39.345 66.929V77.665L1.29 58.949V21.6874L15.7541 28.8004C16.0734 28.9578 16.461 28.8262 16.6178 28.5063C16.7745 28.1864 16.6429 27.8 16.3237 27.6426L2.10657 20.6508L39.99 2.02002L77.8734 20.6515L62.7637 28.0825C62.0174 28.4495 62.5902 29.6067 63.3332 29.2403L78.69 21.6874V58.9497L40.635 77.665Z"/>
</mask>
<path d="M79.6194 20.0723L40.2744 0.72228C40.0945 0.633915 39.8849 0.633915 39.7049 0.72228L0.35991 20.0723C0.14964 20.1761 0 20.4154 0 20.6515V59.3515C0 59.5972 0.139965 59.8217 0.360555 59.9301L39.7056 79.2801C39.8784 79.3646 40.1016 79.3646 40.2751 79.2801L79.6201 59.9301C79.8407 59.8217 79.9806 59.5972 79.9806 59.3515V20.6515C80.0606 20.4361 79.8858 20.0871 79.6194 20.0723ZM40.635 77.665V66.929C40.635 66.5729 40.3467 66.284 39.99 66.284C39.6333 66.284 39.345 66.5729 39.345 66.929V77.665L1.29 58.949V21.6874L15.7541 28.8004C16.0734 28.9578 16.461 28.8262 16.6178 28.5063C16.7745 28.1864 16.6429 27.8 16.3237 27.6426L2.10657 20.6508L39.99 2.02002L77.8734 20.6515L62.7637 28.0825C62.0174 28.4495 62.5902 29.6067 63.3332 29.2403L78.69 21.6874V58.9497L40.635 77.665Z" fill="#393939"/>
<path d="M79.6194 20.0723L75.2062 29.0458L77.032 29.9437L79.0634 30.0568L79.6194 20.0723ZM40.2744 0.72228L44.6876 -8.25122L44.6821 -8.25393L40.2744 0.72228ZM39.7049 0.72228L35.2972 -8.25394L35.2917 -8.25122L39.7049 0.72228ZM0.35991 20.0723L-4.05329 11.0988L-4.06073 11.1024L-4.06817 11.1061L0.35991 20.0723ZM0.360555 59.9301L4.77375 50.9566L4.76959 50.9545L0.360555 59.9301ZM39.7056 79.2801L35.2924 88.2536L35.3032 88.2589L35.3141 88.2642L39.7056 79.2801ZM40.2751 79.2801L44.6534 88.2706L44.6709 88.2621L44.6883 88.2536L40.2751 79.2801ZM79.6201 59.9301L75.211 50.9545L75.2069 50.9566L79.6201 59.9301ZM79.9806 20.6515L70.6059 17.171L69.9806 18.8551V20.6515H79.9806ZM40.635 77.665H30.635V93.7268L45.0481 86.6385L40.635 77.665ZM39.345 77.665L34.9317 86.6384L49.345 93.7271V77.665H39.345ZM1.29 58.949H-8.71V65.1748L-3.12327 67.9225L1.29 58.949ZM1.29 21.6874L5.70297 12.7138L-8.71 5.62585V21.6874H1.29ZM15.7541 28.8004L20.1755 19.8309L20.1671 19.8268L15.7541 28.8004ZM16.3237 27.6426L20.745 18.6731L20.7367 18.6691L16.3237 27.6426ZM2.10657 20.6508L-2.30656 11.6773L-20.5532 20.6509L-2.30652 29.6244L2.10657 20.6508ZM39.99 2.02002L44.4032 -6.95345L39.9901 -9.1239L35.5769 -6.95351L39.99 2.02002ZM77.8734 20.6515L82.2866 29.625L100.533 20.6516L82.2867 11.678L77.8734 20.6515ZM62.7637 28.0825L67.1768 37.0561L67.1769 37.056L62.7637 28.0825ZM63.3332 29.2403L58.9198 20.2669L58.911 20.2713L63.3332 29.2403ZM78.69 21.6874H88.69V5.625L74.2766 12.714L78.69 21.6874ZM78.69 58.9497L83.1031 67.9232L88.69 65.1756V58.9497H78.69ZM79.6194 20.0723L84.0326 11.0988L44.6876 -8.25122L40.2744 0.72228L35.8612 9.69578L75.2062 29.0458L79.6194 20.0723ZM40.2744 0.72228L44.6821 -8.25393C41.7222 -9.70735 38.2571 -9.70735 35.2972 -8.25393L39.7049 0.72228L44.1126 9.69849C41.5126 10.9752 38.4667 10.9752 35.8668 9.69849L40.2744 0.72228ZM39.7049 0.72228L35.2917 -8.25122L-4.05329 11.0988L0.35991 20.0723L4.77311 29.0458L44.1181 9.69578L39.7049 0.72228ZM0.35991 20.0723L-4.06817 11.1061C-7.67931 12.8895 -10 16.5975 -10 20.6515H0H10C10 22.6075 9.39932 24.298 8.59047 25.5972C7.78249 26.8951 6.53461 28.1758 4.78799 29.0384L0.35991 20.0723ZM0 20.6515H-10V59.3515H0H10V20.6515H0ZM0 59.3515H-10C-10 63.4146 -7.68769 67.1179 -4.04848 68.9056L0.360555 59.9301L4.76959 50.9545C7.96762 52.5255 10 55.7799 10 59.3515H0ZM0.360555 59.9301L-4.05264 68.9036L35.2924 88.2536L39.7056 79.2801L44.1187 70.3066L4.77375 50.9566L0.360555 59.9301ZM39.7056 79.2801L35.3141 88.2642C38.2631 89.7057 41.7213 89.6985 44.6534 88.2706L40.2751 79.2801L35.8968 70.2895C38.4818 69.0306 41.4938 69.0234 44.097 70.2959L39.7056 79.2801ZM40.2751 79.2801L44.6883 88.2536L84.0333 68.9036L79.6201 59.9301L75.2069 50.9566L35.8619 70.3066L40.2751 79.2801ZM79.6201 59.9301L84.0291 68.9056C87.6683 67.118 89.9806 63.4147 89.9806 59.3515H79.9806H69.9806C69.9806 55.7798 72.0131 52.5254 75.211 50.9545L79.6201 59.9301ZM79.9806 59.3515H89.9806V20.6515H79.9806H69.9806V59.3515H79.9806ZM79.9806 20.6515L89.3554 24.1319C90.7287 20.4331 89.6602 17.1396 88.5897 15.2858C87.4543 13.3197 84.7506 10.3425 80.1755 10.0878L79.6194 20.0723L79.0634 30.0568C74.7547 29.8169 72.2716 27.0216 71.2702 25.2875C70.3337 23.6658 69.3126 20.6545 70.6059 17.171L79.9806 20.6515ZM40.635 77.665H50.635V66.929H40.635H30.635V77.665H40.635ZM40.635 66.929H50.635C50.635 61.0567 45.8761 56.284 39.99 56.284V66.284V76.284C34.8172 76.284 30.635 72.0892 30.635 66.929H40.635ZM39.99 66.284V56.284C34.1039 56.284 29.345 61.0567 29.345 66.929H39.345H49.345C49.345 72.0892 45.1628 76.284 39.99 76.284V66.284ZM39.345 66.929H29.345V77.665H39.345H49.345V66.929H39.345ZM39.345 77.665L43.7583 68.6915L5.70327 49.9756L1.29 58.949L-3.12327 67.9225L34.9317 86.6384L39.345 77.665ZM1.29 58.949H11.29V21.6874H1.29H-8.71V58.949H1.29ZM1.29 21.6874L-3.12298 30.661L11.3411 37.774L15.7541 28.8004L20.1671 19.8268L5.70297 12.7138L1.29 21.6874ZM15.7541 28.8004L11.3328 37.7699C16.6022 40.3674 23.0013 38.206 25.598 32.9059L16.6178 28.5063L7.63759 24.1067C9.92074 19.4465 15.5446 17.5482 20.1755 19.8309L15.7541 28.8004ZM16.6178 28.5063L25.598 32.9059C28.177 27.6416 26.0162 21.2715 20.745 18.6731L16.3237 27.6426L11.9023 36.6121C7.26964 34.3286 5.37198 28.7312 7.63759 24.1067L16.6178 28.5063ZM16.3237 27.6426L20.7367 18.6691L6.51966 11.6773L2.10657 20.6508L-2.30652 29.6244L11.9106 36.6162L16.3237 27.6426ZM2.10657 20.6508L6.5197 29.6244L44.4031 10.9936L39.99 2.02002L35.5769 -6.95351L-2.30656 11.6773L2.10657 20.6508ZM39.99 2.02002L35.5767 10.9935L73.4602 29.625L77.8734 20.6515L82.2867 11.678L44.4032 -6.95345L39.99 2.02002ZM77.8734 20.6515L73.4602 11.678L58.3505 19.109L62.7637 28.0825L67.1769 37.056L82.2866 29.625L77.8734 20.6515ZM62.7637 28.0825L58.3506 19.109C55.618 20.4528 53.5338 22.9208 52.7475 25.9827C52.0304 28.7755 52.5502 31.3916 53.5223 33.3616C54.4943 35.3314 56.2508 37.3292 58.892 38.4593C61.7876 39.6983 65.0143 39.5609 67.7554 38.2094L63.3332 29.2403L58.911 20.2713C61.2805 19.1029 64.157 18.9582 66.7596 20.0718C69.1077 21.0765 70.6283 22.8309 71.4576 24.5113C72.2869 26.1919 72.7569 28.4728 72.1191 30.9568C71.4122 33.71 69.5361 35.8958 67.1768 37.0561L62.7637 28.0825ZM63.3332 29.2403L67.7466 38.2137L83.1034 30.6608L78.69 21.6874L74.2766 12.714L58.9198 20.2669L63.3332 29.2403ZM78.69 21.6874H68.69V58.9497H78.69H88.69V21.6874H78.69ZM78.69 58.9497L74.2768 49.9761L36.2219 68.6915L40.635 77.665L45.0481 86.6385L83.1031 67.9232L78.69 58.9497Z" fill="#393939" mask="url(#path-1-inside-1_1716_3171)"/>
<path d="M39.9883 63.7041C26.918 63.7041 16.2852 53.0712 16.2852 40.001C16.2852 26.9307 26.918 16.2979 39.9883 16.2979C53.0585 16.2979 63.6914 26.9307 63.6914 40.001C63.6914 53.0712 53.0585 63.7041 39.9883 63.7041ZM39.9883 17.5879C27.6294 17.5879 17.5752 27.6421 17.5752 40.001C17.5752 52.3598 27.6294 62.4141 39.9883 62.4141C52.3471 62.4141 62.4014 52.3598 62.4014 40.001C62.4014 27.6421 52.3471 17.5879 39.9883 17.5879Z" fill="#393939"/>
<path d="M57.3271 49.6463L55.0064 46.8973C54.7781 46.6258 54.3717 46.5903 54.0976 46.8206C53.8254 47.0502 53.7912 47.4572 54.0215 47.7294L55.4818 49.4592H45.2753C49.5297 47.3624 52.4799 42.917 52.4799 37.768C52.4799 30.6104 46.793 24.7874 39.8024 24.7874C32.8119 24.7874 27.125 30.6104 27.125 37.768C27.125 38.2517 27.1559 38.7335 27.2075 39.2121L25.9066 38.0853C25.6395 37.8518 25.23 37.8815 24.9971 38.1505C24.7643 38.4194 24.7933 38.8271 25.0629 39.0606L27.7364 41.3761C28.0435 41.6431 28.4982 41.5406 28.713 41.2181L30.6035 38.1808C30.7918 37.8783 30.6989 37.481 30.3971 37.2926C30.0952 37.1056 29.6966 37.1972 29.5089 37.4997L28.4956 39.1276C28.4446 38.6781 28.4156 38.2246 28.4156 37.7693C28.4156 31.3225 33.524 26.0786 39.8031 26.0786C46.0822 26.0786 51.1906 31.3231 51.1906 37.7693C51.1906 44.2154 46.0822 49.4605 39.8031 49.4605C36.8103 49.4605 33.9845 48.2783 31.8444 46.1311C31.5929 45.8789 31.1852 45.8776 30.9324 46.1298C30.6802 46.3813 30.6789 46.7896 30.9311 47.0424C31.9347 48.0493 33.0803 48.8529 34.3129 49.4612H24.5005C24.1438 49.4612 23.8555 49.7501 23.8555 50.1062C23.8555 50.4622 24.1438 50.7512 24.5005 50.7512H55.0135L53.401 52.0167C52.7553 52.523 53.5345 53.5524 54.1969 53.0313L57.2723 50.6183C57.5606 50.39 57.5825 49.9017 57.3271 49.6463Z" fill="#393939"/>
<path d="M37.8037 41.3179L35.3288 39.1095C35.063 38.8721 35.0398 38.4645 35.2772 38.1987C35.5139 37.9323 35.9235 37.9104 36.1879 38.1471L38.1874 39.9312L43.3661 34.2655C43.6067 34.0024 44.0144 33.9849 44.2775 34.2249C44.54 34.4655 44.5587 34.8731 44.3182 35.1363L38.7092 41.2722C38.5654 41.5198 38.0546 41.5334 37.8037 41.3179Z" fill="#393939"/>
</g>
<defs>
<clipPath id="clip0_1716_3171">
<rect width="80" height="80" fill="white"/>
</clipPath>
</defs>
</svg>
