<svg width="80" height="80" viewBox="0 0 80 80" fill="none" xmlns="http://www.w3.org/2000/svg">
<path fill-rule="evenodd" clip-rule="evenodd" d="M43.3522 59.0696L42.1513 60.2705C41.7846 60.6374 41.2299 60.7406 40.7557 60.5306L37.428 59.0565C35.8024 59.993 34.0595 60.7135 32.2471 61.2029L30.9406 64.5976C30.7541 65.0821 30.2886 65.4016 29.7695 65.4016H23.236C22.7168 65.4016 22.2514 65.0821 22.0649 64.5976L20.7585 61.2032C18.942 60.7128 17.2026 59.9885 15.5734 59.0554L12.2432 60.5306C11.769 60.7406 11.2144 60.6374 10.8476 60.2705L6.22879 55.6517C5.86158 55.2845 5.75852 54.729 5.9695 54.2545C5.9695 54.2545 7.44887 50.9274 7.44887 50.9276C6.51287 49.3025 5.79209 47.5602 5.29844 45.7483L1.90189 44.4412C1.41734 44.2547 1.09766 43.7891 1.09766 43.2699V36.7365C1.09766 36.2173 1.41734 35.7518 1.90189 35.5652L5.29781 34.2583C5.79177 32.4419 6.51256 30.7025 7.44919 29.0733L5.9695 25.7453C5.75852 25.2708 5.86158 24.7154 6.22879 24.3481L10.8476 19.7293C11.2148 19.3621 11.7703 19.2589 12.2448 19.4699C12.2448 19.4699 15.5728 20.9497 15.5726 20.9497C17.202 20.0131 18.9408 19.2928 20.7524 18.8034L22.0652 15.4012C22.252 14.9172 22.7173 14.5982 23.236 14.5982H29.7695C30.2889 14.5982 30.7546 14.918 30.941 15.4029L32.2475 18.8037C34.0588 19.2931 35.7973 20.0134 37.4261 20.9497L40.7541 19.4699C41.2286 19.2589 41.7841 19.3621 42.1513 19.7293L43.3522 20.9303L49.6159 11.919C49.8504 11.5816 50.2354 11.3803 50.6464 11.3803H66.1251C66.7097 8.42061 69.3221 6.18579 72.4522 6.18579C76.0117 6.18579 78.9016 9.07567 78.9016 12.6352C78.9016 16.1947 76.0117 19.0845 72.4522 19.0845C69.3221 19.0845 66.7097 16.8498 66.1251 13.8901H51.3024L45.1555 22.7334L46.7701 24.3481C47.1369 24.7149 47.2402 25.2694 47.0302 25.7436L45.5557 29.0722C46.4926 30.702 47.2134 32.4421 47.703 34.259L51.097 35.5652C51.5816 35.7518 51.9013 36.2173 51.9013 36.7365V38.745H66.1251C66.7097 35.7853 69.3221 33.5505 72.4522 33.5505C76.0117 33.5505 78.9016 36.4404 78.9016 39.9999C78.9016 43.5594 76.0117 46.4493 72.4522 46.4493C69.3221 46.4493 66.7097 44.2145 66.1251 41.2548H51.9013V43.2699C51.9013 43.7891 51.5816 44.2547 51.097 44.4412C51.097 44.4412 47.7022 45.7477 47.7022 45.7475C47.212 47.5588 46.4878 49.2973 45.5551 50.926L47.0302 54.2562C47.2402 54.7304 47.1369 55.2849 46.7701 55.6517L45.1555 57.2664L51.3024 66.1097H66.1251C66.7097 63.15 69.3221 60.9154 72.4522 60.9154C76.0117 60.9154 78.9016 63.8051 78.9016 67.3646C78.9016 70.9241 76.0117 73.814 72.4522 73.814C69.3221 73.814 66.7097 71.5792 66.1251 68.6195H50.6464C50.2354 68.6195 49.8504 68.4183 49.6159 68.0808L43.3522 59.0696ZM72.4522 8.69559C70.2779 8.69559 68.5127 10.4609 68.5127 12.6352C68.5127 14.8095 70.2779 16.5747 72.4522 16.5747C74.6266 16.5747 76.3918 14.8095 76.3918 12.6352C76.3918 10.4609 74.6266 8.69559 72.4522 8.69559ZM72.4522 36.0603C70.2779 36.0603 68.5127 37.8256 68.5127 39.9999C68.5127 42.1742 70.2779 43.9395 72.4522 43.9395C74.6266 43.9395 76.3918 42.1742 76.3918 39.9999C76.3918 37.8256 74.6266 36.0603 72.4522 36.0603ZM72.4522 63.4252C70.2779 63.4252 68.5127 65.1903 68.5127 67.3646C68.5127 69.5389 70.2779 71.3042 72.4522 71.3042C74.6266 71.3042 76.3918 69.5389 76.3918 67.3646C76.3918 65.1903 74.6266 63.4252 72.4522 63.4252ZM30.1377 20.31L28.9074 17.108H24.0969L22.8606 20.3118C22.7118 20.6975 22.3824 20.9852 21.98 21.0809C19.9783 21.5566 18.0693 22.3474 16.3148 23.4285C15.9621 23.6459 15.525 23.675 15.1466 23.5069L12.0128 22.1135L8.61295 25.5133L10.0064 28.647C10.1747 29.0255 10.1453 29.4625 9.92809 29.8151C8.84636 31.5707 8.0553 33.4807 7.57311 35.4896C7.47679 35.8912 7.18911 36.2197 6.8037 36.3681L3.60746 37.5982V42.4082L6.8037 43.6383C7.18879 43.7866 7.47632 44.1147 7.57295 44.5158C8.05499 46.5182 8.84558 48.4341 9.92699 50.183C10.1452 50.5359 10.175 50.9737 10.0064 51.3528L8.61295 54.4865L12.0137 57.8873L15.1482 56.4989C15.5253 56.3318 15.9602 56.3607 16.3119 56.5762C18.0672 57.6517 19.977 58.4495 21.9857 58.9254C22.3888 59.0208 22.7188 59.3091 22.8675 59.6958L24.0977 62.8918H28.9079L30.138 59.6958C30.2867 59.3094 30.6162 59.0212 31.0189 58.9256C33.02 58.4499 34.9347 57.6597 36.6826 56.5789C37.0349 56.361 37.4719 56.331 37.8508 56.4989L40.9852 57.8873L44.3868 54.4857L42.9984 51.3513C42.8313 50.9742 42.8603 50.539 43.0757 50.1874C44.1513 48.4319 44.9491 46.5221 45.425 44.5194C45.5209 44.1166 45.8089 43.787 46.1952 43.6383L49.3915 42.4082V37.5982L46.1952 36.3681C45.8087 36.2192 45.5204 35.8892 45.4249 35.4862C44.9493 33.4785 44.1585 31.5696 43.0774 29.8151C42.8605 29.4631 42.8308 29.0267 42.9984 28.6485L44.3868 25.5141L40.9861 22.1135L37.8523 23.5069C37.474 23.675 37.0368 23.6459 36.6842 23.4285C34.9297 22.3474 33.0206 21.5566 31.0189 21.0809C30.6159 20.985 30.2862 20.6967 30.1377 20.31ZM26.4984 23.5972C35.5607 23.5972 42.9088 30.9365 42.9088 39.9988C42.9088 49.0609 35.5606 56.4092 26.4984 56.4092C17.436 56.4092 10.0967 49.0612 10.0967 39.9988C10.0967 30.9362 17.4359 23.5972 26.4984 23.5972ZM26.4984 26.107C18.8225 26.107 12.6065 32.323 12.6065 39.9988C12.6065 47.6749 18.8224 53.8994 26.4984 53.8994C34.1745 53.8994 40.399 47.675 40.399 39.9988C40.399 32.3229 34.1744 26.107 26.4984 26.107ZM26.9962 28.3139L35.8175 32.0954C36.2788 32.2932 36.578 32.7469 36.578 33.2488V40.379C36.578 45.9489 32.5256 50.7612 27.0415 51.7177L26.7212 51.7747C26.5759 51.8004 26.4274 51.8004 26.2823 51.7747L25.9618 51.7177C20.4801 50.7612 16.4275 45.9491 16.4275 40.379V33.2488C16.4275 32.7469 16.7265 32.2932 17.1879 32.0954L26.0071 28.3139C26.3229 28.1786 26.6804 28.1786 26.9962 28.3139ZM26.5017 30.8327L18.9373 34.0761V40.379C18.9373 44.7356 22.108 48.4989 26.396 49.2457C26.3974 49.246 26.3988 49.2462 26.4002 49.2465L26.5017 49.2645L26.6031 49.2465C26.6046 49.2462 26.606 49.246 26.6075 49.2457C30.8973 48.4989 34.0682 44.7356 34.0682 40.379V34.0763L26.5017 30.8327ZM21.7005 41.1196C21.2108 40.6297 21.2108 39.8346 21.7005 39.3448C22.1902 38.8551 22.9855 38.8551 23.4752 39.3448L24.9135 40.7831L29.5745 36.5547C30.0875 36.0895 30.8817 36.1281 31.3471 36.641C31.8125 37.1539 31.7737 37.9483 31.2608 38.4137L25.7144 43.4451C25.2188 43.8948 24.4572 43.8763 23.9839 43.4029L21.7005 41.1196Z" fill="#393939"/>
</svg>
