<svg width="80" height="80" viewBox="0 0 80 80" fill="none" xmlns="http://www.w3.org/2000/svg">
<path d="M35.1269 39.75C34.6877 39.8648 34.2224 39.8254 33.8088 39.6383C33.3952 39.4513 33.0583 39.128 32.8544 38.7225C32.7002 38.4288 32.4357 38.2083 32.119 38.1096C31.8023 38.0109 31.4593 38.0421 31.1656 38.1962C30.8719 38.3504 30.6514 38.6149 30.5527 38.9316C30.454 39.2483 30.4852 39.5913 30.6394 39.885C30.9944 40.5245 31.4881 41.0763 32.0844 41.5C31.7431 43.5127 32.1116 45.5814 33.1269 47.3525C33.2966 47.6373 33.5725 47.843 33.8939 47.9243C34.2153 48.0056 34.5558 47.956 34.8406 47.7862C35.1254 47.6165 35.3311 47.3406 35.4124 47.0192C35.4938 46.6978 35.4441 46.3573 35.2744 46.0725C34.6364 44.9313 34.3551 43.6251 34.4669 42.3225C34.5044 42.3225 34.5319 42.34 34.5694 42.34C34.9766 42.3386 35.3818 42.2831 35.7744 42.175C36.0946 42.0891 36.3676 41.8796 36.5334 41.5924C36.6991 41.3052 36.744 40.964 36.6581 40.6437C36.5722 40.3235 36.3627 40.0505 36.0755 39.8847C35.7883 39.719 35.4471 39.6741 35.1269 39.76V39.75Z" fill="#393939"/>
<path d="M39.0753 18.8226C33.2367 19.2669 27.7535 21.7992 23.6294 25.9559C19.5052 30.1127 17.0162 35.6157 16.6179 41.4576C16.4822 46.5102 17.9782 51.4721 20.884 55.6077C23.7898 59.7433 27.9509 62.8326 32.7504 64.4176C32.7955 64.4275 32.8362 64.4515 32.8668 64.4861C32.8974 64.5207 32.9161 64.5641 32.9204 64.6101V65.6626C32.2224 65.7349 31.5677 66.0352 31.0575 66.517C30.5473 66.9988 30.2101 67.6353 30.098 68.328C29.9858 69.0207 30.105 69.731 30.4372 70.3491C30.7693 70.9673 31.2958 71.4588 31.9354 71.7476V75.0001C31.9354 75.3316 32.067 75.6496 32.3015 75.884C32.5359 76.1184 32.8538 76.2501 33.1854 76.2501H46.7504C47.0819 76.2501 47.3998 76.1184 47.6342 75.884C47.8687 75.6496 48.0004 75.3316 48.0004 75.0001V71.7501C48.6354 71.4638 49.1593 70.9775 49.492 70.3654C49.8247 69.7533 49.9479 69.0492 49.8428 68.3605C49.7376 67.6719 49.4099 67.0365 48.9098 66.5516C48.4096 66.0667 47.7644 65.7589 47.0729 65.6751V64.6176C47.0768 64.571 47.0954 64.5268 47.1259 64.4914C47.1564 64.4559 47.1973 64.431 47.2428 64.4201C52.6113 62.6719 57.166 59.0404 60.0658 54.1959C62.9655 49.3515 64.0145 43.6215 63.0191 38.064C62.0236 32.5065 59.0509 27.4969 54.6499 23.9602C50.2489 20.4235 44.7169 18.5987 39.0753 18.8226ZM45.5004 73.7501H34.4328V72.0726H45.5004V73.7501ZM47.3803 68.8276C47.3803 68.9261 47.3609 69.0236 47.3233 69.1146C47.2856 69.2056 47.2303 69.2883 47.1607 69.3579C47.091 69.4276 47.0084 69.4828 46.9174 69.5205C46.8264 69.5582 46.7288 69.5776 46.6304 69.5776H33.2803C33.0997 69.5541 32.9338 69.4657 32.8135 69.3289C32.6933 69.192 32.627 69.016 32.627 68.8339C32.627 68.6517 32.6933 68.4757 32.8135 68.3389C32.9338 68.202 33.0997 68.1136 33.2803 68.0901H46.6304C46.8288 68.0874 47.0203 68.1636 47.1628 68.3018C47.3052 68.4401 47.3871 68.6291 47.3903 68.8276H47.3803ZM46.4678 62.0401C45.9204 62.214 45.4421 62.5568 45.1016 63.0195C44.7611 63.4821 44.576 64.0407 44.5729 64.6151V65.5851H35.4179V64.6101C35.414 64.0365 35.2285 63.4788 34.8881 63.0171C34.5477 62.5554 34.0697 62.2134 33.5229 62.0401C29.2378 60.6245 25.5228 57.8661 22.9282 54.1737C20.3336 50.4813 18.9975 46.0513 19.1178 41.5401C19.472 36.3225 21.6942 31.4071 25.3774 27.6945C29.0606 23.9819 33.9582 21.7207 39.1728 21.3251C44.2109 21.1241 49.1516 22.7527 53.0826 25.9102C57.0135 29.0677 59.6694 33.5408 60.5597 38.5036C61.45 43.4665 60.5147 48.5839 57.9264 52.9109C55.3381 57.2379 51.2716 60.4823 46.4778 62.0451L46.4678 62.0401Z" fill="#393939"/>
<path d="M46.8292 35.77C46.9935 35.7703 47.1562 35.7382 47.3081 35.6756C47.4599 35.6129 47.5979 35.521 47.7142 35.405L49.7842 33.335C50.2663 33.5704 50.7952 33.6943 51.3317 33.6975C52.1168 33.7019 52.8822 33.452 53.5134 32.9852C54.1446 32.5184 54.6078 31.8598 54.8335 31.1079C55.0593 30.356 55.0356 29.5512 54.7659 28.8139C54.4962 28.0766 53.995 27.4464 53.3374 27.0176C52.6798 26.5888 51.901 26.3845 51.1175 26.4351C50.3341 26.4858 49.5881 26.7887 48.9912 27.2986C48.3942 27.8085 47.9784 28.498 47.8059 29.2639C47.6334 30.0297 47.7135 30.8309 48.0342 31.5475L46.3117 33.27H40.0992V27.5725C40.0986 27.4017 40.0631 27.2328 39.9947 27.0763C39.9263 26.9198 39.8266 26.779 39.7017 26.6625C39.0774 26.0998 38.3329 25.6871 37.5249 25.4558C36.7169 25.2244 35.8667 25.1805 35.0392 25.3275C33.5821 25.7246 32.253 26.493 31.1817 27.5575C30.8106 27.6677 30.4571 27.8302 30.1317 28.04C29.4394 28.4569 28.8956 29.081 28.5775 29.824C28.2594 30.567 28.1831 31.3912 28.3592 32.18C27.2867 32.5871 26.4132 33.3934 25.9217 34.43C25.5556 35.3361 25.4779 36.3331 25.6992 37.285C25.2078 37.8048 24.8402 38.4289 24.6237 39.1107C24.4073 39.7925 24.3476 40.5144 24.4492 41.2225C24.4702 41.8799 24.6413 42.5238 24.9492 43.105C24.6174 43.6228 24.3917 44.2013 24.2852 44.8069C24.1786 45.4126 24.1933 46.0334 24.3284 46.6333C24.4635 47.2333 24.7163 47.8005 25.0722 48.302C25.4281 48.8035 25.88 49.2294 26.4017 49.555C26.2682 50.8518 26.5966 52.1541 27.3292 53.2325C28.1032 54.2885 29.2145 55.0487 30.4792 55.3875C31.6232 56.5024 33.134 57.1626 34.7292 57.245C35.0536 57.2446 35.377 57.2102 35.6942 57.1425C36.643 56.8487 37.518 56.3558 38.2609 55.6966C39.0038 55.0373 39.5973 54.2271 40.0017 53.32C40.0712 53.1624 40.1077 52.9922 40.1092 52.82V49H46.3217L49.0717 51.75C48.8265 52.2408 48.6973 52.7814 48.6942 53.33C48.6925 54.1101 48.9427 54.8699 49.4075 55.4964C49.8724 56.1229 50.527 56.5826 51.2741 56.8071C52.0212 57.0316 52.8208 57.009 53.554 56.7425C54.2872 56.4761 54.9148 55.9801 55.3434 55.3283C55.772 54.6765 55.9788 53.9037 55.933 53.125C55.8871 52.3462 55.5911 51.6031 55.0889 51.0061C54.5868 50.4091 53.9053 49.9902 53.1459 49.8116C52.3866 49.633 51.5898 49.7043 50.8742 50.015L47.7192 46.8625C47.6031 46.746 47.4652 46.6536 47.3133 46.5906C47.1615 46.5275 46.9987 46.495 46.8342 46.495H40.0992V42.475H51.2892C51.5827 43.2713 52.1469 43.939 52.8831 44.3611C53.6194 44.7832 54.4806 44.9328 55.3161 44.7838C56.1516 44.6348 56.908 44.1965 57.4528 43.5459C57.9977 42.8952 58.2962 42.0736 58.2962 41.225C58.2962 40.3763 57.9977 39.5547 57.4528 38.9041C56.908 38.2534 56.1516 37.8152 55.3161 37.6662C54.4806 37.5171 53.6194 37.6668 52.8831 38.0889C52.1469 38.511 51.5827 39.1787 51.2892 39.975H40.0992V35.77H46.8292ZM51.3292 28.965C51.5505 28.9645 51.7669 29.0297 51.951 29.1523C52.1352 29.2749 52.2788 29.4494 52.3637 29.6537C52.4486 29.858 52.4709 30.0829 52.4279 30.2999C52.3848 30.5169 52.2783 30.7162 52.1219 30.8727C51.9655 31.0291 51.7661 31.1356 51.5491 31.1786C51.3321 31.2217 51.1072 31.1993 50.9029 31.1144C50.6986 31.0295 50.5241 30.8859 50.4015 30.7018C50.2789 30.5176 50.2137 30.3012 50.2142 30.08C50.2155 29.7842 50.3338 29.501 50.5431 29.2921C50.7525 29.0832 51.0335 28.9656 51.3292 28.965ZM53.4167 53.34C53.4167 53.5605 53.3513 53.7761 53.2288 53.9594C53.1063 54.1428 52.9322 54.2857 52.7284 54.3701C52.5247 54.4545 52.3005 54.4766 52.0842 54.4336C51.8679 54.3905 51.6692 54.2843 51.5133 54.1284C51.3574 53.9725 51.2512 53.7738 51.2081 53.5575C51.1651 53.3412 51.1872 53.117 51.2716 52.9133C51.356 52.7096 51.4989 52.5354 51.6823 52.4129C51.8656 52.2904 52.0812 52.225 52.3017 52.225C52.4484 52.2247 52.5936 52.2533 52.7292 52.3091C52.8647 52.365 52.988 52.4471 53.0918 52.5507C53.1956 52.6542 53.2779 52.7773 53.3341 52.9127C53.3903 53.0482 53.4192 53.1934 53.4192 53.34H53.4167ZM54.6667 40.11C54.8872 40.11 55.1028 40.1754 55.2862 40.2979C55.4695 40.4204 55.6125 40.5946 55.6968 40.7983C55.7812 41.002 55.8033 41.2262 55.7603 41.4425C55.7173 41.6588 55.6111 41.8575 55.4551 42.0134C55.2992 42.1693 55.1005 42.2755 54.8842 42.3186C54.668 42.3616 54.4438 42.3395 54.24 42.2551C54.0363 42.1707 53.8622 42.0278 53.7396 41.8444C53.6171 41.6611 53.5517 41.4455 53.5517 41.225C53.5517 41.0784 53.5806 40.9332 53.6368 40.7977C53.693 40.6623 53.7754 40.5392 53.8792 40.4357C53.983 40.3321 54.1062 40.25 54.2418 40.1941C54.3773 40.1383 54.5226 40.1097 54.6692 40.11H54.6667ZM37.5967 52.5225C37.1089 53.537 36.2386 54.3165 35.1767 54.69C34.5651 54.7345 33.9516 54.6334 33.3866 54.3948C32.8216 54.1562 32.3213 53.787 31.9267 53.3175C31.7527 53.1593 31.538 53.0529 31.3067 53.01C30.6822 52.8983 30.1117 52.5842 29.6834 52.1161C29.2551 51.648 28.9927 51.052 28.9367 50.42C28.9567 50.445 28.9642 50.475 28.9867 50.5C29.9158 51.4857 31.1956 52.0658 32.5492 52.115C33.566 52.1086 34.5421 51.7153 35.2792 51.015C35.4049 50.9062 35.5077 50.7735 35.5815 50.6245C35.6552 50.4755 35.6986 50.3134 35.7089 50.1475C35.7192 49.9816 35.6964 49.8153 35.6417 49.6583C35.587 49.5013 35.5015 49.3568 35.3902 49.2333C35.279 49.1098 35.1443 49.0097 34.9939 48.9388C34.8435 48.868 34.6805 48.8279 34.5144 48.8208C34.3483 48.8138 34.1825 48.8399 34.0267 48.8977C33.8708 48.9555 33.728 49.0438 33.6067 49.1575C32.3567 50.27 31.0492 49.035 30.7967 48.775C30.5687 48.5402 30.2576 48.4042 29.9304 48.3963C29.6032 48.3883 29.2859 48.509 29.0467 48.7325C29.0267 48.7525 29.0192 48.78 28.9992 48.8C28.9818 48.5736 28.9029 48.3562 28.7712 48.1712C28.6395 47.9862 28.4599 47.8406 28.2517 47.75C27.5805 47.4322 27.0563 46.8695 26.7867 46.1775C26.6891 45.7725 26.7108 45.3479 26.8492 44.955C27.6796 45.3936 28.5943 45.6493 29.5317 45.705H29.5867C29.7509 45.7088 29.9142 45.6802 30.0673 45.6208C30.2204 45.5615 30.3603 45.4726 30.479 45.3592C30.5978 45.2458 30.693 45.1101 30.7593 44.9599C30.8256 44.8097 30.8617 44.6479 30.8655 44.4837C30.8692 44.3196 30.8407 44.1563 30.7813 44.0032C30.722 43.8501 30.6331 43.7102 30.5197 43.5914C30.4063 43.4727 30.2706 43.3774 30.1204 43.3111C29.9702 43.2448 29.8084 43.2088 29.6442 43.205C28.8622 43.1638 28.1136 42.8748 27.5067 42.38C27.4435 42.2772 27.3651 42.1845 27.2742 42.105C27.0685 41.8156 26.952 41.4723 26.9392 41.1175C26.831 40.4211 26.9632 39.7086 27.3142 39.0975C27.5092 39.0752 27.6962 39.0073 27.8601 38.8993C28.0239 38.7912 28.1601 38.6462 28.2575 38.4758C28.3548 38.3054 28.4107 38.1144 28.4206 37.9184C28.4304 37.7224 28.394 37.5268 28.3142 37.3475C28.046 36.7345 28.0104 36.0448 28.2142 35.4075C28.3555 35.143 28.5518 34.9118 28.7898 34.7294C29.0278 34.547 29.3021 34.4176 29.5942 34.35C29.9589 34.1787 30.3589 34.0959 30.7617 34.1085C31.1644 34.1211 31.5585 34.2287 31.9117 34.4225C32.2387 34.7071 32.5 35.0592 32.6778 35.4545C32.8556 35.8499 32.9457 36.279 32.9417 36.7125C32.9523 37.044 33.0942 37.3577 33.3361 37.5847C33.578 37.8116 33.9002 37.9331 34.2317 37.9225C34.5632 37.9119 34.877 37.77 35.1039 37.5281C35.3308 37.2862 35.4523 36.964 35.4417 36.6325C35.433 35.8117 35.2394 35.0033 34.8754 34.2676C34.5114 33.5318 33.9864 32.8875 33.3392 32.3825C32.5764 31.8835 31.6777 31.6328 30.7667 31.665C30.7115 31.3717 30.7507 31.0685 30.8787 30.799C31.0068 30.5294 31.217 30.3074 31.4792 30.165C32.7292 29.36 33.9467 30.8525 34.0917 31.035C34.2933 31.2982 34.5912 31.4706 34.9198 31.5142C35.2485 31.5578 35.581 31.469 35.8442 31.2675C36.1074 31.0659 36.2798 30.768 36.3234 30.4394C36.367 30.1107 36.2783 29.7782 36.0767 29.515C35.6597 28.9881 35.1578 28.5344 34.5917 28.1725C34.9084 28.0051 35.2442 27.8767 35.5917 27.79C36.2895 27.6723 37.0059 27.8281 37.5917 28.225L37.5967 52.5225Z" fill="#393939"/>
<path d="M40 12.5C40.3315 12.5 40.6495 12.3683 40.8839 12.1339C41.1183 11.8995 41.25 11.5815 41.25 11.25V5C41.25 4.66848 41.1183 4.35054 40.8839 4.11612C40.6495 3.8817 40.3315 3.75 40 3.75C39.6685 3.75 39.3505 3.8817 39.1161 4.11612C38.8817 4.35054 38.75 4.66848 38.75 5V11.25C38.75 11.5815 38.8817 11.8995 39.1161 12.1339C39.3505 12.3683 39.6685 12.5 40 12.5Z" fill="#393939"/>
<path d="M68.094 14.115C67.8595 13.8807 67.5417 13.749 67.2102 13.749C66.8787 13.749 66.5609 13.8807 66.3265 14.115L61.909 18.535C61.7896 18.6503 61.6943 18.7882 61.6288 18.9408C61.5633 19.0933 61.5288 19.2573 61.5274 19.4233C61.5259 19.5892 61.5576 19.7538 61.6204 19.9074C61.6833 20.0611 61.7761 20.2006 61.8935 20.318C62.0108 20.4354 62.1504 20.5282 62.304 20.591C62.4576 20.6539 62.6222 20.6855 62.7882 20.6841C62.9542 20.6826 63.1182 20.6481 63.2707 20.5826C63.4232 20.5171 63.5611 20.4219 63.6765 20.3025L68.094 15.885C68.2104 15.7689 68.3027 15.631 68.3657 15.4791C68.4288 15.3272 68.4612 15.1644 68.4612 15C68.4612 14.8356 68.4288 14.6728 68.3657 14.5209C68.3027 14.3691 68.2104 14.2311 68.094 14.115Z" fill="#393939"/>
<path d="M18.439 20.67C18.6865 20.6704 18.9286 20.5973 19.1346 20.46C19.3406 20.3227 19.5011 20.1273 19.5959 19.8986C19.6907 19.6699 19.7155 19.4183 19.6671 19.1755C19.6187 18.9327 19.4992 18.7098 19.324 18.535L14.904 14.115C14.7878 13.9989 14.6498 13.9069 14.498 13.8441C14.3462 13.7814 14.1836 13.7492 14.0193 13.7493C13.8551 13.7494 13.6925 13.7818 13.5408 13.8448C13.3891 13.9078 13.2513 14 13.1352 14.1162C12.9008 14.3509 12.7693 14.6691 12.7695 15.0008C12.7696 15.1651 12.8021 15.3277 12.8651 15.4794C12.928 15.6311 13.0203 15.7689 13.1365 15.885L17.554 20.3025C17.6701 20.4189 17.808 20.5113 17.9599 20.5744C18.1117 20.6374 18.2745 20.6699 18.439 20.67Z" fill="#393939"/>
<path d="M11.25 39.9751H5C4.66848 39.9751 4.35054 40.1068 4.11612 40.3412C3.8817 40.5756 3.75 40.8936 3.75 41.2251C3.75 41.5566 3.8817 41.8746 4.11612 42.109C4.35054 42.3434 4.66848 42.4751 5 42.4751H11.25C11.5815 42.4751 11.8995 42.3434 12.1339 42.109C12.3683 41.8746 12.5 41.5566 12.5 41.2251C12.5 40.8936 12.3683 40.5756 12.1339 40.3412C11.8995 40.1068 11.5815 39.9751 11.25 39.9751Z" fill="#393939"/>
<path d="M75 39.9751H68.75C68.4185 39.9751 68.1005 40.1068 67.8661 40.3412C67.6317 40.5756 67.5 40.8936 67.5 41.2251C67.5 41.5566 67.6317 41.8746 67.8661 42.109C68.1005 42.3434 68.4185 42.4751 68.75 42.4751H75C75.3315 42.4751 75.6495 42.3434 75.8839 42.109C76.1183 41.8746 76.25 41.5566 76.25 41.2251C76.25 40.8936 76.1183 40.5756 75.8839 40.3412C75.6495 40.1068 75.3315 39.9751 75 39.9751Z" fill="#393939"/>
</svg>
