<svg width="80" height="80" viewBox="0 0 80 80" fill="none" xmlns="http://www.w3.org/2000/svg">
<path d="M71.8936 66.4866H58.8125V53.2974" stroke="#393939" stroke-width="2.5" stroke-miterlimit="10" stroke-linecap="round" stroke-linejoin="round"/>
<path d="M58.8139 66.4865L63.0301 62.2703C75.6787 49.6217 75.6787 29.0811 63.0301 16.4325C58.3814 11.7838 52.6517 8.86492 46.5977 7.56763" stroke="#393939" stroke-width="2.5" stroke-miterlimit="10" stroke-linecap="round" stroke-linejoin="round"/>
<path d="M8.10938 13.5137H21.1905V26.7029" stroke="#393939" stroke-width="2.5" stroke-miterlimit="10" stroke-linecap="round" stroke-linejoin="round"/>
<path d="M21.191 13.5137L16.9748 17.7299C4.32612 30.3785 4.32612 50.9191 16.9748 63.5677C21.6234 68.2164 27.3531 71.1353 33.4072 72.4326" stroke="#393939" stroke-width="2.5" stroke-miterlimit="10" stroke-linecap="round" stroke-linejoin="round"/>
<path d="M25.082 54.9189H32.7577L53.2982 34.3783C55.4604 32.2162 55.4604 28.8648 53.2982 26.7027C51.1361 24.5405 47.7847 24.5405 45.6226 26.7027L25.082 47.2432V54.9189Z" stroke="#393939" stroke-width="2.5" stroke-miterlimit="10" stroke-linecap="round" stroke-linejoin="round"/>
<path d="M42.918 29.4053L50.5936 37.0809" stroke="#393939" stroke-width="2.5" stroke-miterlimit="10" stroke-linecap="round" stroke-linejoin="round"/>
</svg>
