<svg width="80" height="80" viewBox="0 0 80 80" fill="none" xmlns="http://www.w3.org/2000/svg">
<g clip-path="url(#clip0_1786_3478)">
<path d="M71.5379 22.0228H78.8121C79.4682 22.0228 79.9998 21.4912 79.9998 20.835V6.94347C79.9998 6.28734 79.4682 5.75512 78.8121 5.75512H60.0792C59.4231 5.75512 58.8909 6.28734 58.8909 6.94347C58.8909 7.59959 59.4231 8.13182 60.0792 8.13182H65.4778L57.0263 18.9094L48.5753 8.13182H55.3264C55.9826 8.13182 56.5148 7.59959 56.5148 6.94347C56.5148 6.28734 55.9826 5.75512 55.3264 5.75512H35.9448V1.18847C35.9448 0.532348 35.4125 0.00012207 34.7564 0.00012207H9.06187C8.40574 0.00012207 7.87352 0.532348 7.87352 1.18847V5.75512H1.18835C0.532225 5.75512 0.00061035 6.28734 0.00061035 6.94347V20.835C0.00061035 21.4912 0.532225 22.0228 1.18835 22.0228H7.87352V55.1239C7.87352 55.78 8.40574 56.3123 9.06187 56.3123C9.718 56.3123 10.2496 55.78 10.2496 55.1239V2.37622H33.5687V11.2141H31.0308V6.94347C31.0308 6.28734 30.4986 5.75512 29.8425 5.75512H13.974C13.3178 5.75512 12.7862 6.28734 12.7862 6.94347V65.6818C12.7862 66.3385 13.3178 66.8701 13.974 66.8701H29.8425C30.4986 66.8701 31.0308 66.3385 31.0308 65.6818V52.2241C31.0308 52.2205 31.0314 52.2174 31.0308 52.2132C31.0308 52.2113 31.0308 52.2101 31.0308 52.2083V41.0975H33.5687V70.249H10.2496V59.8767C10.2496 59.2206 9.718 58.689 9.06187 58.689C8.40574 58.689 7.87352 59.2206 7.87352 59.8767V70.2496H4.44213C1.99279 70.249 0 72.2424 0 74.6917V78.8116C0 79.4677 0.532225 80 1.18835 80H42.6299C43.286 80 43.8183 79.4677 43.8183 78.8116V74.6917C43.8183 72.2424 41.8255 70.249 39.3761 70.249H35.9448V41.0975H41.4818C42.138 41.0975 42.6702 40.5658 42.6702 39.9097V26.4411C42.6702 26.2989 42.6446 26.1579 42.5951 26.0249L41.0985 22.0228H57.4389C57.9412 25.0153 60.3081 27.3817 63.3 27.8846V31.6572C60.996 32.1967 59.2742 34.2664 59.2742 36.7328C59.2742 39.1987 60.996 41.269 63.3 41.8079V44.8871C63.3 45.5432 63.8323 46.0755 64.4884 46.0755C66.0527 46.0755 67.3259 47.348 67.3259 48.913C67.3259 50.4773 66.0527 51.7505 64.4884 51.7505C62.9235 51.7505 61.6509 50.4773 61.6509 48.913C61.6509 48.2569 61.1187 47.7246 60.4625 47.7246C59.8064 47.7246 59.2742 48.2569 59.2742 48.913C59.2742 50.4785 59.9694 51.8842 61.0656 52.8406L49.7844 56.6528L49.7851 56.6541C49.3157 56.8128 48.977 57.2559 48.977 57.7789V74.5001C48.977 75.1562 49.5092 75.6884 50.1653 75.6884H78.8115C79.4676 75.6884 79.9992 75.1562 79.9992 74.5001V57.7789C79.9992 57.2559 79.6611 56.8128 79.1917 56.6541V56.6528L67.9106 52.8406C69.0074 51.8842 69.702 50.4785 69.702 48.913C69.702 46.4466 67.9808 44.375 65.6761 43.8355V41.8079C67.9802 41.269 69.702 39.1987 69.702 36.7328C69.702 34.2664 67.9802 32.1967 65.6761 31.6572V27.8846C68.6687 27.3817 71.035 25.0153 71.5379 22.0228ZM7.87352 8.13182V10.384L2.3767 17.3945V8.13182H7.87352ZM3.63036 19.6467L7.87352 14.2353V19.6467H3.63036ZM41.4422 74.6917V77.6233H2.37609V74.6917C2.37609 73.5522 3.30322 72.6257 4.44213 72.6257H39.3761C40.5151 72.6257 41.4422 73.5522 41.4422 74.6917ZM64.4884 54.1925L71.5843 56.5906H57.3919L64.4884 54.1925ZM77.6231 73.3124H51.353V58.9667H77.6231V73.3124ZM59.4677 19.6467L67.9192 8.86912L76.3701 19.6467H59.4677ZM77.6237 8.13182V17.3945L70.3606 8.13182H77.6237ZM35.9448 8.13182H43.6925L38.4185 14.8573L37.3449 11.9862C37.1709 11.5217 36.7278 11.2141 36.2322 11.2141H35.9448V8.13182ZM28.6547 11.2141H21.4068L17.4402 8.13182H28.6547V11.2141ZM15.1623 42.3371L27.9583 52.2785L15.1623 63.1195V42.3371ZM15.1623 9.37144L17.5341 11.2141H15.1623V9.37144ZM17.2155 64.494L28.6547 54.8029V64.494H17.2155ZM28.6547 49.8102L17.4408 41.0975H28.6547V49.8102ZM40.2941 38.7214H15.1629V13.5908H35.4076L40.2941 26.656V38.7214ZM39.3938 17.4647L46.1339 8.86912L54.5855 19.6467H40.2099L39.3938 17.4647ZM59.8638 22.0228H69.1124C68.5826 24.0821 66.7107 25.6086 64.4884 25.6086C62.2661 25.6086 60.3936 24.0821 59.8638 22.0228ZM67.3259 36.7328C67.3259 37.873 66.6484 38.8556 65.6761 39.3061V38.4876C65.6761 37.8315 65.1445 37.2999 64.4884 37.2999C63.8323 37.2999 63.3 37.8315 63.3 38.4876V39.3061C62.3278 38.8556 61.6509 37.873 61.6509 36.7328C61.6509 35.1685 62.9235 33.8953 64.4884 33.8953C66.0527 33.8953 67.3259 35.1685 67.3259 36.7328Z" fill="url(#paint0_linear_1786_3478)"/>
<path d="M32.9345 15.9668H18.7268C18.0707 15.9668 17.5391 16.4984 17.5391 17.1545V27.301C17.5391 27.9571 18.0707 28.4887 18.7268 28.4887H36.7291C37.1185 28.4887 37.4835 28.2983 37.7056 27.9779C37.9272 27.6581 37.9785 27.2497 37.8418 26.8847L34.0478 16.7383C33.8739 16.2744 33.4301 15.9668 32.9345 15.9668ZM19.9152 26.1127V18.3429H32.1106L35.0164 26.1127H19.9152Z" fill="url(#paint1_linear_1786_3478)"/>
<path d="M54.993 71.4569C55.6492 71.4569 56.1808 70.9247 56.1808 70.2685V62.0111C56.1808 61.355 55.6492 60.8228 54.993 60.8228C54.3369 60.8228 53.8047 61.355 53.8047 62.0111V70.2685C53.8047 70.9247 54.3369 71.4569 54.993 71.4569Z" fill="url(#paint2_linear_1786_3478)"/>
<path d="M73.9846 71.4569C74.6414 71.4569 75.173 70.9247 75.173 70.2685V62.0111C75.173 61.355 74.6414 60.8228 73.9846 60.8228C73.3285 60.8228 72.7969 61.355 72.7969 62.0111V70.2685C72.7969 70.9247 73.3285 71.4569 73.9846 71.4569Z" fill="url(#paint3_linear_1786_3478)"/>
<path d="M67.6532 71.4569C68.3093 71.4569 68.8415 70.9247 68.8415 70.2685V62.0111C68.8415 61.355 68.3093 60.8228 67.6532 60.8228C66.9971 60.8228 66.4648 61.355 66.4648 62.0111V70.2685C66.4648 70.9247 66.9971 71.4569 67.6532 71.4569Z" fill="url(#paint4_linear_1786_3478)"/>
<path d="M61.3206 71.4569C61.9767 71.4569 62.5089 70.9247 62.5089 70.2685V62.0111C62.5089 61.355 61.9767 60.8228 61.3206 60.8228C60.6644 60.8228 60.1328 61.355 60.1328 62.0111V70.2685C60.1328 70.9247 60.6644 71.4569 61.3206 71.4569Z" fill="url(#paint5_linear_1786_3478)"/>
</g>
<defs>
<linearGradient id="paint0_linear_1786_3478" x1="39.9999" y1="0.00012207" x2="39.9999" y2="80" gradientUnits="userSpaceOnUse">
<stop stop-color="#9747FF"/>
<stop offset="1" stop-color="#4B9ADB"/>
</linearGradient>
<linearGradient id="paint1_linear_1786_3478" x1="27.7281" y1="15.9668" x2="27.7281" y2="28.4887" gradientUnits="userSpaceOnUse">
<stop stop-color="#9747FF"/>
<stop offset="1" stop-color="#4B9ADB"/>
</linearGradient>
<linearGradient id="paint2_linear_1786_3478" x1="54.9927" y1="60.8228" x2="54.9927" y2="71.4569" gradientUnits="userSpaceOnUse">
<stop stop-color="#9747FF"/>
<stop offset="1" stop-color="#4B9ADB"/>
</linearGradient>
<linearGradient id="paint3_linear_1786_3478" x1="73.9849" y1="60.8228" x2="73.9849" y2="71.4569" gradientUnits="userSpaceOnUse">
<stop stop-color="#9747FF"/>
<stop offset="1" stop-color="#4B9ADB"/>
</linearGradient>
<linearGradient id="paint4_linear_1786_3478" x1="67.6532" y1="60.8228" x2="67.6532" y2="71.4569" gradientUnits="userSpaceOnUse">
<stop stop-color="#9747FF"/>
<stop offset="1" stop-color="#4B9ADB"/>
</linearGradient>
<linearGradient id="paint5_linear_1786_3478" x1="61.3209" y1="60.8228" x2="61.3209" y2="71.4569" gradientUnits="userSpaceOnUse">
<stop stop-color="#9747FF"/>
<stop offset="1" stop-color="#4B9ADB"/>
</linearGradient>
<clipPath id="clip0_1786_3478">
<rect width="80" height="80" fill="white"/>
</clipPath>
</defs>
</svg>
