<svg width="80" height="80" viewBox="0 0 80 80" fill="none" xmlns="http://www.w3.org/2000/svg">
<path d="M67.2876 29.0423H64.5708C64.9233 27.7602 65.1042 26.437 65.1086 25.1073C65.213 12.1824 49.4425 5.18196 39.9806 13.8302L12.7002 13.8299C10.6587 13.8323 8.70156 14.6444 7.25801 16.0879C5.81447 17.5314 5.00242 19.4886 5 21.5301V52.3174C5.00381 52.793 5.14475 53.2574 5.4059 53.6548C5.66706 54.0523 6.03734 54.366 6.47233 54.5582C6.90732 54.7505 7.38854 54.8132 7.85826 54.7387C8.32799 54.6643 8.76627 54.456 9.12053 54.1387L15.9698 47.8521C16.4056 47.447 16.9801 47.2245 17.5751 47.2302H28.0499V54.7302C28.0521 56.775 28.8654 58.7353 30.3113 60.1812C31.7572 61.6271 33.7175 62.4404 35.7623 62.4426H62.4249C63.0252 62.4378 63.6043 62.6644 64.0417 63.0755L70.8668 69.3505C71.2219 69.668 71.6609 69.8764 72.1314 69.951C72.6018 70.0256 73.0838 69.9632 73.5197 69.7711C73.9556 69.5791 74.327 69.2656 74.5895 68.8681C74.852 68.4707 74.9945 68.006 75 67.5297V36.7424C74.9961 34.6993 74.1819 32.7412 72.736 31.2976C71.2901 29.8541 69.3307 29.043 67.2876 29.0423ZM62.6086 25.1073C62.6049 28.4502 61.2753 31.6551 58.9115 34.0188C56.5477 36.3826 53.3429 37.7122 50 37.716C33.2729 37.0235 33.2778 13.1886 50.0001 12.4987C53.343 12.5024 56.5478 13.8321 58.9116 16.1958C61.2753 18.5596 62.6049 21.7645 62.6086 25.1073ZM17.5751 44.7301C16.3479 44.7223 15.1642 45.1844 14.267 46.0216L7.5 52.3174V21.5301C7.50156 20.1514 8.04994 18.8296 9.02483 17.8547C9.99972 16.8798 11.3215 16.3315 12.7002 16.3299H37.7267C36.4242 18.1455 35.5422 20.2283 35.1448 22.4271C34.7474 24.626 34.8446 26.8857 35.4292 29.0423H32.9498C31.6524 29.0421 30.4078 29.5566 29.4892 30.4729C28.5706 31.3892 28.053 32.6324 28.0499 33.9299V44.7301L17.5751 44.7301ZM65.7452 61.2456C64.8462 60.4021 63.6577 59.9357 62.4249 59.9425H35.7623C34.3804 59.941 33.0555 59.3913 32.0783 58.4141C31.1011 57.437 30.5515 56.1121 30.5499 54.7301V33.9299C30.5523 33.2953 30.8063 32.6875 31.2562 32.2399C31.7061 31.7922 32.3152 31.5414 32.9498 31.5422H36.3506C37.5788 34.1218 39.5128 36.3006 41.9286 37.826C44.3444 39.3514 47.143 40.161 50.0001 40.1609C52.8571 40.1609 55.6557 39.3513 58.0715 37.8258C60.4872 36.3004 62.4213 34.1216 63.6494 31.542L67.2876 31.5422C68.6679 31.5422 69.9919 32.0896 70.9691 33.0645C71.9463 34.0394 72.4968 35.3621 72.5 36.7424L72.5586 67.5096L65.7452 61.2456Z" fill="#393939"/>
<path d="M41.5925 27.5419L45.2375 31.2126C45.5998 31.5741 46.0299 31.8607 46.5031 32.0557C46.9763 32.2508 47.4833 32.3506 47.9951 32.3493C48.507 32.3481 49.0135 32.2458 49.4858 32.0484C49.958 31.8511 50.3867 31.5624 50.7472 31.1991L58.4455 23.3696C59.0304 22.7566 59.352 21.9391 59.3414 21.0919C59.3309 20.2448 58.989 19.4355 58.3892 18.8373C57.7893 18.2391 56.979 17.8996 56.1318 17.8915C55.2847 17.8834 54.4681 18.2073 53.8568 18.7939L48.0098 24.5738C46.9267 23.5036 45.5709 21.6499 43.8289 21.8658C43.1861 21.8983 42.5663 22.1152 42.0436 22.4907C41.5209 22.8663 41.1175 23.3844 40.8816 23.9832C40.6457 24.582 40.5873 25.2361 40.7133 25.8672C40.8394 26.4983 41.1447 27.0797 41.5925 27.5419ZM43.3192 24.6605C43.3915 24.5682 43.4831 24.4927 43.5875 24.4394C43.6919 24.3861 43.8067 24.3561 43.9239 24.3517C44.041 24.3472 44.1577 24.3683 44.2659 24.4135C44.3741 24.4587 44.4711 24.5269 44.5503 24.6134L46.8696 26.9822C47.0151 27.1314 47.1887 27.2503 47.3804 27.332C47.572 27.4138 47.778 27.4568 47.9863 27.4585C48.1947 27.4603 48.4013 27.4208 48.5943 27.3423C48.7874 27.2638 48.9629 27.1478 49.1109 27.0011L55.6148 20.5717C56.2766 19.8932 57.3431 20.9457 56.6627 21.6167L48.9644 29.4462C48.8374 29.5763 48.6857 29.6798 48.5183 29.7505C48.3509 29.8213 48.171 29.858 47.9892 29.8585C47.8074 29.8589 47.6273 29.8231 47.4595 29.7532C47.2917 29.6832 47.1396 29.5805 47.0119 29.4511L43.3663 25.7805C43.2192 25.6338 43.1327 25.4372 43.1239 25.2297C43.1152 25.0221 43.1849 24.8189 43.3192 24.6605Z" fill="#393939"/>
</svg>
