<svg width="80" height="80" viewBox="0 0 80 80" fill="none" xmlns="http://www.w3.org/2000/svg">
<mask id="path-1-inside-1_1709_3075" fill="white">
<path fill-rule="evenodd" clip-rule="evenodd" d="M23.5564 37.6974C23.5556 37.493 23.6361 37.2966 23.7801 37.1515C23.9241 37.0064 24.1198 36.9245 24.3242 36.9237C24.5286 36.9229 24.725 37.0033 24.8701 37.1473C25.0152 37.2913 25.0972 37.4871 25.098 37.6915V37.7445C25.5359 37.9002 25.9153 38.1871 26.1843 38.5661C26.4533 38.9452 26.599 39.3979 26.6014 39.8627C26.5994 40.0653 26.5177 40.259 26.3741 40.4018C26.2304 40.5446 26.0362 40.6251 25.8336 40.6259C25.631 40.6267 25.4363 40.5477 25.2915 40.406C25.1467 40.2643 25.0636 40.0712 25.06 39.8687C25.0591 39.7505 25.029 39.6345 24.9725 39.5307C24.916 39.427 24.8348 39.3388 24.7361 39.2739C24.6374 39.209 24.5243 39.1694 24.4066 39.1587C24.289 39.1479 24.1705 39.1663 24.0617 39.2123C23.9529 39.2582 23.857 39.3303 23.7827 39.4221C23.7084 39.5139 23.6578 39.6226 23.6355 39.7386C23.6132 39.8546 23.6198 39.9743 23.6547 40.0872C23.6897 40.2 23.7519 40.3025 23.8359 40.3855C24.262 40.8062 25.0672 40.3748 25.9481 41.2449C26.2192 41.512 26.4184 41.8432 26.5274 42.2078C26.6363 42.5724 26.6515 42.9586 26.5715 43.3306C26.4915 43.7026 26.3188 44.0484 26.0696 44.3359C25.8203 44.6234 25.5025 44.8434 25.1456 44.9754V45.0332C25.1474 45.1353 25.1289 45.2367 25.0912 45.3316C25.0535 45.4265 24.9973 45.5129 24.9258 45.5859C24.8544 45.6589 24.7692 45.7169 24.6752 45.7567C24.5811 45.7965 24.4801 45.8172 24.378 45.8176C24.2759 45.818 24.1747 45.7981 24.0804 45.7591C23.986 45.72 23.9004 45.6626 23.8284 45.5902C23.7564 45.5178 23.6995 45.4318 23.661 45.3373C23.6225 45.2427 23.6032 45.1414 23.6042 45.0393V44.9862C23.1802 44.8355 22.8108 44.5617 22.5433 44.1998C22.2759 43.838 22.1226 43.4045 22.103 42.9549C22.0906 42.8502 22.0998 42.7441 22.13 42.643C22.1602 42.542 22.2107 42.4482 22.2784 42.3674C22.3462 42.2865 22.4297 42.2204 22.5239 42.1731C22.6182 42.1257 22.7211 42.0981 22.8263 42.092C22.9316 42.0858 23.037 42.1013 23.1361 42.1373C23.2352 42.1734 23.3259 42.2294 23.4025 42.3017C23.4792 42.3741 23.5403 42.4614 23.582 42.5583C23.6237 42.6551 23.6452 42.7595 23.6452 42.8649C23.6452 42.8796 23.6452 42.8938 23.6439 42.9082C23.6543 43.0456 23.7039 43.1772 23.7869 43.2872C23.8699 43.3972 23.9828 43.481 24.1121 43.5287C24.2414 43.5763 24.3817 43.5858 24.5162 43.5559C24.6508 43.5261 24.7739 43.4582 24.8709 43.3604C25.0045 43.2248 25.0789 43.0419 25.078 42.8516C25.0771 42.6613 25.0009 42.4791 24.8661 42.3448C24.4495 41.9337 23.6295 42.3502 22.7539 41.4854C22.4829 41.2183 22.2836 40.8871 22.1747 40.5225C22.0657 40.1579 22.0506 39.7717 22.1306 39.3997C22.2106 39.0277 22.3833 38.6819 22.6326 38.3944C22.8818 38.1068 23.1997 37.8869 23.5566 37.7549L23.5564 37.6974ZM27.918 37.7527C27.0822 36.9282 25.9865 36.4191 24.8174 36.3119C23.6483 36.2048 22.4782 36.5064 21.5066 37.1652C20.5349 37.8241 19.8218 38.7995 19.4887 39.9252C19.1556 41.051 19.2231 42.2574 19.6798 43.3389C20.1365 44.4204 20.9541 45.3101 21.9932 45.8564C23.0323 46.4027 24.2288 46.5717 25.3786 46.3347C26.5284 46.0978 27.5605 45.4694 28.2989 44.5568C29.0374 43.6442 29.4366 42.5037 29.4284 41.3298C29.4243 40.6635 29.2888 40.0046 29.0296 39.3908C28.7704 38.7769 28.3926 38.2203 27.918 37.7527ZM24.3109 34.9391C22.8247 34.9489 21.3878 35.4737 20.2451 36.4241C19.1024 37.3745 18.3246 38.6918 18.0443 40.1514C17.7639 41.611 17.9984 43.1227 18.7077 44.4288C19.417 45.7349 20.5572 46.7547 21.9341 47.3143C23.3111 47.874 24.8394 47.9389 26.2588 47.4979C27.6782 47.057 28.9008 46.1376 29.7182 44.8963C30.5357 43.655 30.8974 42.1686 30.7418 40.6905C30.5862 39.2124 29.9229 37.8339 28.8648 36.7901C28.2649 36.1971 27.5538 35.7284 26.7724 35.4107C25.9909 35.0931 25.1545 34.9329 24.3109 34.9391ZM28.6547 52.0193H20.0481V53.8184C20.0488 53.8897 20.0774 53.9579 20.1278 54.0083C20.1783 54.0588 20.2465 54.0874 20.3178 54.088H28.3841C28.4554 54.0874 28.5236 54.0588 28.574 54.0083C28.6245 53.9579 28.6531 53.8897 28.6538 53.8184L28.6547 52.0193ZM19.8937 50.6652H28.7325C29.0478 48.028 30.0273 46.9448 30.9814 45.8899C31.8963 44.8784 32.7833 43.8974 32.7833 41.0196C32.7833 38.7833 31.8949 36.6387 30.3136 35.0574C28.7324 33.4761 26.5877 32.5877 24.3514 32.5877C22.1151 32.5877 19.9705 33.4761 18.3892 35.0574C16.8079 36.6387 15.9195 38.7833 15.9195 41.0196C15.9195 43.9146 16.8089 44.9438 17.7198 45.9982C18.6402 47.0634 19.5797 48.1504 19.8937 50.6652ZM21.6794 55.4421V55.9154C21.6801 56.0436 21.7313 56.1664 21.822 56.2571C21.9127 56.3478 22.0355 56.3991 22.1637 56.3998H26.5409C26.6692 56.3991 26.792 56.3478 26.8827 56.2571C26.9734 56.1664 27.0246 56.0436 27.0253 55.9154V55.4421H21.6794ZM28.3783 55.4421C28.592 55.4426 28.8037 55.401 29.0013 55.3197C29.1989 55.2383 29.3785 55.1189 29.53 54.9681C29.6814 54.8173 29.8016 54.6381 29.8838 54.4409C29.9659 54.2436 30.0084 54.0321 30.0088 53.8184V51.4035C30.0228 51.3326 30.0332 51.261 30.04 51.189C30.2602 48.6984 31.1338 47.7332 31.982 46.7943C33.0767 45.5838 34.1383 44.4101 34.1383 41.0196C34.1383 38.4242 33.1073 35.9351 31.272 34.0999C29.4368 32.2647 26.9477 31.2337 24.3523 31.2337C21.757 31.2337 19.2679 32.2647 17.4326 34.0999C15.5974 35.9351 14.5664 38.4242 14.5664 41.0196C14.5664 44.4123 15.6203 45.6321 16.7 46.8815C17.5292 47.841 18.3761 48.8213 18.5952 51.1974C18.6072 51.3299 18.631 51.461 18.6663 51.5893C18.6753 51.622 18.6852 51.6541 18.6955 51.686V53.8184C18.6958 54.0321 18.7383 54.2436 18.8205 54.4409C18.9026 54.6381 19.0228 54.8173 19.1743 54.9681C19.3257 55.1189 19.5053 55.2383 19.7029 55.3197C19.9005 55.401 20.1122 55.4426 20.3259 55.4421V55.9154C20.3269 56.4025 20.5208 56.8694 20.8653 57.2139C21.2097 57.5584 21.6766 57.7524 22.1637 57.7534H26.5409C27.0281 57.7524 27.495 57.5584 27.8394 57.2139C28.1839 56.8694 28.3778 56.4025 28.3788 55.9154L28.3783 55.4421ZM59.568 52.2234C56.3745 57.4768 51.2514 61.2714 45.2952 62.7949C39.339 64.3184 33.0231 63.4498 27.6994 60.3749C27.5444 60.2851 27.4314 60.1375 27.3853 59.9644C27.3392 59.7913 27.3637 59.607 27.4535 59.452C27.5433 59.297 27.691 59.1841 27.864 59.138C28.0371 59.0919 28.2214 59.1164 28.3764 59.2062C33.3922 62.1011 39.3413 62.9194 44.9524 61.4861C50.5634 60.0528 55.3913 56.4817 58.4042 51.5359L57.2195 51.8473C57.1334 51.8708 57.0435 51.8771 56.955 51.8657C56.8665 51.8542 56.7811 51.8254 56.7038 51.7808C56.6265 51.7362 56.5588 51.6767 56.5046 51.6058C56.4504 51.5349 56.4108 51.4539 56.3881 51.3676C56.3654 51.2813 56.36 51.1913 56.3723 51.1029C56.3845 51.0145 56.4142 50.9294 56.4595 50.8525C56.5049 50.7757 56.565 50.7085 56.6365 50.655C56.7079 50.6015 56.7893 50.5627 56.8758 50.5409L59.6333 49.8162C59.8065 49.7706 59.9908 49.7957 60.1455 49.8859C60.3003 49.9762 60.4128 50.1242 60.4584 50.2974L61.183 53.0549C61.2065 53.141 61.2128 53.2309 61.2014 53.3194C61.19 53.408 61.1611 53.4933 61.1165 53.5707C61.0719 53.648 61.0124 53.7157 60.9415 53.7699C60.8706 53.824 60.7896 53.8636 60.7033 53.8863C60.617 53.9091 60.527 53.9144 60.4386 53.9022C60.3502 53.8899 60.2651 53.8603 60.1882 53.8149C60.1114 53.7696 60.0443 53.7094 59.9907 53.638C59.9373 53.5665 59.8984 53.4852 59.8766 53.3987L59.568 52.2234ZM22.2589 27.1959C22.345 27.1723 22.4349 27.1661 22.5234 27.1775C22.6119 27.1889 22.6973 27.2177 22.7746 27.2623C22.852 27.3069 22.9197 27.3664 22.9738 27.4373C23.028 27.5082 23.0676 27.5892 23.0903 27.6755C23.113 27.7618 23.1184 27.8518 23.1062 27.9402C23.0939 28.0286 23.0642 28.1137 23.0189 28.1906C22.9735 28.2675 22.9134 28.3346 22.842 28.3881C22.7705 28.4416 22.6892 28.4804 22.6027 28.5023L19.845 29.227C19.6718 29.2725 19.4875 29.2473 19.3328 29.157C19.1781 29.0668 19.0656 28.9188 19.02 28.7455L18.2952 25.988C18.2716 25.902 18.2654 25.8121 18.2768 25.7235C18.2882 25.635 18.317 25.5496 18.3616 25.4723C18.4062 25.395 18.4657 25.3273 18.5366 25.2731C18.6075 25.2189 18.6885 25.1793 18.7748 25.1566C18.8611 25.1339 18.9511 25.1285 19.0395 25.1408C19.1279 25.1531 19.213 25.1827 19.2899 25.2281C19.3668 25.2734 19.4339 25.3335 19.4874 25.405C19.5409 25.4764 19.5797 25.5578 19.6016 25.6443L19.9283 26.8871C23.2527 21.9339 28.3346 18.4285 34.1456 17.0803C39.9567 15.732 46.0629 16.6416 51.2287 19.6249C51.3055 19.6694 51.3727 19.7285 51.4266 19.799C51.4805 19.8694 51.52 19.9498 51.5428 20.0355C51.5657 20.1211 51.5714 20.2105 51.5597 20.2984C51.548 20.3863 51.5191 20.4711 51.4746 20.5478C51.4302 20.6246 51.371 20.6918 51.3006 20.7457C51.2301 20.7996 51.1498 20.8391 51.0641 20.8619C50.9784 20.8847 50.889 20.8904 50.8011 20.8787C50.7132 20.867 50.6285 20.8381 50.5517 20.7937C45.7099 17.9994 39.9916 17.1364 34.5408 18.3773C29.09 19.6182 24.3088 22.8715 21.1538 27.4863L22.2589 27.1959ZM51.1695 25.147L48.9083 26.0815L49.2553 26.921C49.318 27.0659 49.3279 27.2282 49.2834 27.3796C49.2388 27.5311 49.1426 27.6621 49.0114 27.7499C48.072 28.3821 47.2638 29.1902 46.6314 30.1295C46.5442 30.2587 46.4149 30.3539 46.2656 30.3987C46.1162 30.4436 45.9559 30.4355 45.8119 30.3757L44.9623 30.0229L44.0248 32.2809L44.8483 32.6227C44.9993 32.6782 45.1256 32.7855 45.2045 32.9256C45.2835 33.0658 45.31 33.2294 45.2792 33.3873C45.0588 34.4993 45.0571 35.6436 45.2741 36.7563C45.3028 36.9091 45.2782 37.0671 45.2042 37.2039C45.1302 37.3406 45.0114 37.4478 44.8678 37.5073L44.0191 37.858L44.9536 40.1193L45.793 39.7724C45.9378 39.7097 46.1001 39.6998 46.2516 39.7444C46.403 39.7889 46.534 39.8852 46.6219 40.0163C47.2541 40.9557 48.062 41.7639 49.0013 42.3963C49.1305 42.4836 49.2257 42.6128 49.2705 42.7622C49.3154 42.9115 49.3073 43.0718 49.2475 43.2159L48.8947 44.0654L51.1527 45.0029L51.4945 44.1795C51.55 44.0285 51.6574 43.9022 51.7975 43.8232C51.9377 43.7442 52.1013 43.7177 52.2592 43.7485C53.3712 43.969 54.5156 43.9708 55.6283 43.7537C55.7811 43.7249 55.9391 43.7496 56.0758 43.8235C56.2126 43.8975 56.3197 44.0163 56.3792 44.1599L56.73 45.0087L58.9913 44.0741L58.6444 43.2348C58.5819 43.09 58.572 42.9279 58.6166 42.7766C58.6611 42.6254 58.7572 42.4945 58.8881 42.4066C59.8277 41.7746 60.636 40.9665 61.2681 40.027C61.3554 39.8977 61.4847 39.8027 61.634 39.7578C61.7834 39.713 61.9436 39.7211 62.0877 39.7809L62.9372 40.1335L63.8747 37.8755L63.0514 37.5338C62.9004 37.4784 62.774 37.371 62.6951 37.2309C62.6161 37.0907 62.5896 36.927 62.6205 36.7691C62.8409 35.6571 62.8426 34.5128 62.6255 33.4001C62.5967 33.2473 62.6214 33.0893 62.6954 32.9525C62.7694 32.8158 62.8881 32.7087 63.0317 32.6491L63.8805 32.2984L62.9459 30.0371L62.1064 30.384C61.9615 30.4467 61.7993 30.4566 61.6479 30.4121C61.4964 30.3675 61.3654 30.2713 61.2775 30.1402C60.6453 29.2008 59.8373 28.3926 58.898 27.7602C58.7687 27.673 58.6736 27.5437 58.6287 27.3944C58.5838 27.245 58.5919 27.0847 58.6517 26.9407L59.0045 26.0912L56.7466 25.1537L56.4047 25.9771C56.3493 26.1281 56.2419 26.2544 56.1017 26.3334C55.9616 26.4124 55.7979 26.4388 55.64 26.408C54.528 26.1881 53.3838 26.1864 52.2711 26.4029C52.1183 26.4317 51.9603 26.407 51.8235 26.333C51.6868 26.259 51.5797 26.1403 51.5202 25.9966L51.1695 25.147ZM47.7705 25.0913C47.6049 25.1594 47.4732 25.2904 47.4043 25.4556C47.3353 25.6208 47.3348 25.8066 47.4028 25.9721L47.8075 26.9513C47.0623 27.5144 46.3982 28.1775 45.8339 28.9218L44.8564 28.5155C44.6909 28.4468 44.5049 28.4467 44.3392 28.5151C44.1736 28.5835 44.0419 28.7149 43.9731 28.8804L42.5175 32.3866C42.4488 32.5522 42.4486 32.7382 42.517 32.9038C42.5854 33.0695 42.7168 33.2012 42.8823 33.2699L43.8602 33.6762C43.7321 34.6013 43.7311 35.5395 43.8572 36.4649L42.8811 36.8684C42.7156 36.9364 42.5839 37.0674 42.5149 37.2325C42.446 37.3977 42.4454 37.5835 42.5134 37.749L43.9634 41.2576C43.9972 41.3396 44.0467 41.4142 44.1093 41.4771C44.1719 41.5399 44.2462 41.5898 44.3281 41.6239C44.41 41.6581 44.4978 41.6757 44.5865 41.6759C44.6751 41.676 44.763 41.6587 44.845 41.6249L45.8241 41.2202C46.387 41.9654 47.0499 42.6296 47.7941 43.1938L47.3878 44.1713C47.3538 44.2533 47.3362 44.3412 47.3362 44.4299C47.3361 44.5187 47.3535 44.6065 47.3874 44.6886C47.4213 44.7706 47.471 44.8451 47.5337 44.9079C47.5964 44.9707 47.6708 45.0206 47.7528 45.0546L51.2591 46.5102C51.341 46.5443 51.4289 46.5618 51.5176 46.5619C51.6064 46.562 51.6943 46.5446 51.7763 46.5107C51.8583 46.4768 51.9329 46.4271 51.9957 46.3644C52.0585 46.3017 52.1083 46.2272 52.1423 46.1452L52.5486 45.1676C53.4737 45.2957 54.412 45.2967 55.3373 45.1705L55.7406 46.1466C55.7743 46.2286 55.8238 46.3031 55.8863 46.366C55.9489 46.4288 56.0231 46.4787 56.1049 46.5128C56.1867 46.5469 56.2744 46.5646 56.363 46.5648C56.4516 46.5651 56.5394 46.5478 56.6214 46.5141L60.13 45.0643C60.212 45.0306 60.2865 44.9811 60.3493 44.9186C60.4121 44.8561 60.462 44.7818 60.4962 44.7C60.5303 44.6182 60.548 44.5305 60.5482 44.4419C60.5484 44.3533 60.5312 44.2655 60.4975 44.1835L60.093 43.2045C60.8381 42.6415 61.5022 41.9786 62.0664 41.2345L63.0439 41.6407C63.1259 41.6747 63.2137 41.6923 63.3025 41.6924C63.3912 41.6924 63.4791 41.675 63.5611 41.6411C63.6432 41.6072 63.7177 41.5575 63.7805 41.4948C63.8433 41.4321 63.8932 41.3577 63.9272 41.2757L65.3828 37.7695C65.4168 37.6875 65.4344 37.5996 65.4345 37.5109C65.4346 37.4221 65.4172 37.3342 65.3833 37.2522C65.3494 37.1702 65.2996 37.0957 65.2369 37.0328C65.1742 36.97 65.0998 36.9202 65.0178 36.8862L64.0403 36.4799C64.1683 35.5548 64.1693 34.6164 64.0433 33.691L65.0192 33.2876C65.1012 33.2539 65.1757 33.2044 65.2386 33.1419C65.3014 33.0795 65.3513 33.0052 65.3855 32.9234C65.4196 32.8416 65.4373 32.7539 65.4376 32.6653C65.4378 32.5767 65.4206 32.4889 65.3869 32.407L63.9369 28.8984C63.8688 28.7328 63.7378 28.6011 63.5727 28.5322C63.4076 28.4632 63.2218 28.4627 63.0563 28.5307L62.077 28.9354C61.5142 28.1902 60.8512 27.5261 60.107 26.962L60.5133 25.9845C60.5473 25.9025 60.5649 25.8146 60.5649 25.7259C60.565 25.6371 60.5476 25.5492 60.5137 25.4672C60.4798 25.3852 60.4301 25.3107 60.3674 25.2478C60.3047 25.185 60.2303 25.1352 60.1483 25.1012L56.6419 23.6454C56.4763 23.5767 56.2903 23.5766 56.1246 23.645C55.9589 23.7134 55.8272 23.8449 55.7584 24.0104L55.3522 24.988C54.427 24.8601 53.4887 24.8591 52.5633 24.9852L52.16 24.009C52.0919 23.8435 51.9609 23.7118 51.7958 23.6429C51.6306 23.574 51.4449 23.5735 51.2794 23.6415L47.7705 25.0913ZM57.8294 31.1979C58.727 32.0955 59.2857 33.2766 59.4101 34.54C59.5346 35.8033 59.2172 37.0707 58.5119 38.1262C57.8066 39.1818 56.7572 39.9601 55.5424 40.3286C54.3276 40.6972 53.0226 40.6331 51.8498 40.1473C50.677 39.6615 49.7089 38.7841 49.1104 37.6645C48.512 36.5449 48.3203 35.2525 48.5679 34.0075C48.8156 32.7624 49.4873 31.6417 50.4686 30.8364C51.4499 30.031 52.6801 29.5909 53.9495 29.5909C54.6702 29.5899 55.384 29.7314 56.0498 30.0072C56.7157 30.283 57.3204 30.6876 57.8294 31.1979ZM53.9495 28.2368C52.3668 28.2367 50.8329 28.7855 49.6094 29.7895C48.3859 30.7936 47.5483 32.1908 47.2395 33.7432C46.9306 35.2955 47.1696 36.9069 47.9157 38.3028C48.6618 39.6987 49.8688 40.7927 51.3311 41.3985C52.7933 42.0042 54.4204 42.0842 55.935 41.6247C57.4497 41.1653 58.7581 40.1949 59.6375 38.8789C60.5168 37.5629 60.9127 35.9827 60.7575 34.4075C60.6024 32.8324 59.9059 31.3597 58.7867 30.2405C58.1522 29.6044 57.3983 29.0999 56.5682 28.756C55.7382 28.4122 54.848 28.2357 53.9495 28.2368Z"/>
</mask>
<path fill-rule="evenodd" clip-rule="evenodd" d="M23.5564 37.6974C23.5556 37.493 23.6361 37.2966 23.7801 37.1515C23.9241 37.0064 24.1198 36.9245 24.3242 36.9237C24.5286 36.9229 24.725 37.0033 24.8701 37.1473C25.0152 37.2913 25.0972 37.4871 25.098 37.6915V37.7445C25.5359 37.9002 25.9153 38.1871 26.1843 38.5661C26.4533 38.9452 26.599 39.3979 26.6014 39.8627C26.5994 40.0653 26.5177 40.259 26.3741 40.4018C26.2304 40.5446 26.0362 40.6251 25.8336 40.6259C25.631 40.6267 25.4363 40.5477 25.2915 40.406C25.1467 40.2643 25.0636 40.0712 25.06 39.8687C25.0591 39.7505 25.029 39.6345 24.9725 39.5307C24.916 39.427 24.8348 39.3388 24.7361 39.2739C24.6374 39.209 24.5243 39.1694 24.4066 39.1587C24.289 39.1479 24.1705 39.1663 24.0617 39.2123C23.9529 39.2582 23.857 39.3303 23.7827 39.4221C23.7084 39.5139 23.6578 39.6226 23.6355 39.7386C23.6132 39.8546 23.6198 39.9743 23.6547 40.0872C23.6897 40.2 23.7519 40.3025 23.8359 40.3855C24.262 40.8062 25.0672 40.3748 25.9481 41.2449C26.2192 41.512 26.4184 41.8432 26.5274 42.2078C26.6363 42.5724 26.6515 42.9586 26.5715 43.3306C26.4915 43.7026 26.3188 44.0484 26.0696 44.3359C25.8203 44.6234 25.5025 44.8434 25.1456 44.9754V45.0332C25.1474 45.1353 25.1289 45.2367 25.0912 45.3316C25.0535 45.4265 24.9973 45.5129 24.9258 45.5859C24.8544 45.6589 24.7692 45.7169 24.6752 45.7567C24.5811 45.7965 24.4801 45.8172 24.378 45.8176C24.2759 45.818 24.1747 45.7981 24.0804 45.7591C23.986 45.72 23.9004 45.6626 23.8284 45.5902C23.7564 45.5178 23.6995 45.4318 23.661 45.3373C23.6225 45.2427 23.6032 45.1414 23.6042 45.0393V44.9862C23.1802 44.8355 22.8108 44.5617 22.5433 44.1998C22.2759 43.838 22.1226 43.4045 22.103 42.9549C22.0906 42.8502 22.0998 42.7441 22.13 42.643C22.1602 42.542 22.2107 42.4482 22.2784 42.3674C22.3462 42.2865 22.4297 42.2204 22.5239 42.1731C22.6182 42.1257 22.7211 42.0981 22.8263 42.092C22.9316 42.0858 23.037 42.1013 23.1361 42.1373C23.2352 42.1734 23.3259 42.2294 23.4025 42.3017C23.4792 42.3741 23.5403 42.4614 23.582 42.5583C23.6237 42.6551 23.6452 42.7595 23.6452 42.8649C23.6452 42.8796 23.6452 42.8938 23.6439 42.9082C23.6543 43.0456 23.7039 43.1772 23.7869 43.2872C23.8699 43.3972 23.9828 43.481 24.1121 43.5287C24.2414 43.5763 24.3817 43.5858 24.5162 43.5559C24.6508 43.5261 24.7739 43.4582 24.8709 43.3604C25.0045 43.2248 25.0789 43.0419 25.078 42.8516C25.0771 42.6613 25.0009 42.4791 24.8661 42.3448C24.4495 41.9337 23.6295 42.3502 22.7539 41.4854C22.4829 41.2183 22.2836 40.8871 22.1747 40.5225C22.0657 40.1579 22.0506 39.7717 22.1306 39.3997C22.2106 39.0277 22.3833 38.6819 22.6326 38.3944C22.8818 38.1068 23.1997 37.8869 23.5566 37.7549L23.5564 37.6974ZM27.918 37.7527C27.0822 36.9282 25.9865 36.4191 24.8174 36.3119C23.6483 36.2048 22.4782 36.5064 21.5066 37.1652C20.5349 37.8241 19.8218 38.7995 19.4887 39.9252C19.1556 41.051 19.2231 42.2574 19.6798 43.3389C20.1365 44.4204 20.9541 45.3101 21.9932 45.8564C23.0323 46.4027 24.2288 46.5717 25.3786 46.3347C26.5284 46.0978 27.5605 45.4694 28.2989 44.5568C29.0374 43.6442 29.4366 42.5037 29.4284 41.3298C29.4243 40.6635 29.2888 40.0046 29.0296 39.3908C28.7704 38.7769 28.3926 38.2203 27.918 37.7527ZM24.3109 34.9391C22.8247 34.9489 21.3878 35.4737 20.2451 36.4241C19.1024 37.3745 18.3246 38.6918 18.0443 40.1514C17.7639 41.611 17.9984 43.1227 18.7077 44.4288C19.417 45.7349 20.5572 46.7547 21.9341 47.3143C23.3111 47.874 24.8394 47.9389 26.2588 47.4979C27.6782 47.057 28.9008 46.1376 29.7182 44.8963C30.5357 43.655 30.8974 42.1686 30.7418 40.6905C30.5862 39.2124 29.9229 37.8339 28.8648 36.7901C28.2649 36.1971 27.5538 35.7284 26.7724 35.4107C25.9909 35.0931 25.1545 34.9329 24.3109 34.9391ZM28.6547 52.0193H20.0481V53.8184C20.0488 53.8897 20.0774 53.9579 20.1278 54.0083C20.1783 54.0588 20.2465 54.0874 20.3178 54.088H28.3841C28.4554 54.0874 28.5236 54.0588 28.574 54.0083C28.6245 53.9579 28.6531 53.8897 28.6538 53.8184L28.6547 52.0193ZM19.8937 50.6652H28.7325C29.0478 48.028 30.0273 46.9448 30.9814 45.8899C31.8963 44.8784 32.7833 43.8974 32.7833 41.0196C32.7833 38.7833 31.8949 36.6387 30.3136 35.0574C28.7324 33.4761 26.5877 32.5877 24.3514 32.5877C22.1151 32.5877 19.9705 33.4761 18.3892 35.0574C16.8079 36.6387 15.9195 38.7833 15.9195 41.0196C15.9195 43.9146 16.8089 44.9438 17.7198 45.9982C18.6402 47.0634 19.5797 48.1504 19.8937 50.6652ZM21.6794 55.4421V55.9154C21.6801 56.0436 21.7313 56.1664 21.822 56.2571C21.9127 56.3478 22.0355 56.3991 22.1637 56.3998H26.5409C26.6692 56.3991 26.792 56.3478 26.8827 56.2571C26.9734 56.1664 27.0246 56.0436 27.0253 55.9154V55.4421H21.6794ZM28.3783 55.4421C28.592 55.4426 28.8037 55.401 29.0013 55.3197C29.1989 55.2383 29.3785 55.1189 29.53 54.9681C29.6814 54.8173 29.8016 54.6381 29.8838 54.4409C29.9659 54.2436 30.0084 54.0321 30.0088 53.8184V51.4035C30.0228 51.3326 30.0332 51.261 30.04 51.189C30.2602 48.6984 31.1338 47.7332 31.982 46.7943C33.0767 45.5838 34.1383 44.4101 34.1383 41.0196C34.1383 38.4242 33.1073 35.9351 31.272 34.0999C29.4368 32.2647 26.9477 31.2337 24.3523 31.2337C21.757 31.2337 19.2679 32.2647 17.4326 34.0999C15.5974 35.9351 14.5664 38.4242 14.5664 41.0196C14.5664 44.4123 15.6203 45.6321 16.7 46.8815C17.5292 47.841 18.3761 48.8213 18.5952 51.1974C18.6072 51.3299 18.631 51.461 18.6663 51.5893C18.6753 51.622 18.6852 51.6541 18.6955 51.686V53.8184C18.6958 54.0321 18.7383 54.2436 18.8205 54.4409C18.9026 54.6381 19.0228 54.8173 19.1743 54.9681C19.3257 55.1189 19.5053 55.2383 19.7029 55.3197C19.9005 55.401 20.1122 55.4426 20.3259 55.4421V55.9154C20.3269 56.4025 20.5208 56.8694 20.8653 57.2139C21.2097 57.5584 21.6766 57.7524 22.1637 57.7534H26.5409C27.0281 57.7524 27.495 57.5584 27.8394 57.2139C28.1839 56.8694 28.3778 56.4025 28.3788 55.9154L28.3783 55.4421ZM59.568 52.2234C56.3745 57.4768 51.2514 61.2714 45.2952 62.7949C39.339 64.3184 33.0231 63.4498 27.6994 60.3749C27.5444 60.2851 27.4314 60.1375 27.3853 59.9644C27.3392 59.7913 27.3637 59.607 27.4535 59.452C27.5433 59.297 27.691 59.1841 27.864 59.138C28.0371 59.0919 28.2214 59.1164 28.3764 59.2062C33.3922 62.1011 39.3413 62.9194 44.9524 61.4861C50.5634 60.0528 55.3913 56.4817 58.4042 51.5359L57.2195 51.8473C57.1334 51.8708 57.0435 51.8771 56.955 51.8657C56.8665 51.8542 56.7811 51.8254 56.7038 51.7808C56.6265 51.7362 56.5588 51.6767 56.5046 51.6058C56.4504 51.5349 56.4108 51.4539 56.3881 51.3676C56.3654 51.2813 56.36 51.1913 56.3723 51.1029C56.3845 51.0145 56.4142 50.9294 56.4595 50.8525C56.5049 50.7757 56.565 50.7085 56.6365 50.655C56.7079 50.6015 56.7893 50.5627 56.8758 50.5409L59.6333 49.8162C59.8065 49.7706 59.9908 49.7957 60.1455 49.8859C60.3003 49.9762 60.4128 50.1242 60.4584 50.2974L61.183 53.0549C61.2065 53.141 61.2128 53.2309 61.2014 53.3194C61.19 53.408 61.1611 53.4933 61.1165 53.5707C61.0719 53.648 61.0124 53.7157 60.9415 53.7699C60.8706 53.824 60.7896 53.8636 60.7033 53.8863C60.617 53.9091 60.527 53.9144 60.4386 53.9022C60.3502 53.8899 60.2651 53.8603 60.1882 53.8149C60.1114 53.7696 60.0443 53.7094 59.9907 53.638C59.9373 53.5665 59.8984 53.4852 59.8766 53.3987L59.568 52.2234ZM22.2589 27.1959C22.345 27.1723 22.4349 27.1661 22.5234 27.1775C22.6119 27.1889 22.6973 27.2177 22.7746 27.2623C22.852 27.3069 22.9197 27.3664 22.9738 27.4373C23.028 27.5082 23.0676 27.5892 23.0903 27.6755C23.113 27.7618 23.1184 27.8518 23.1062 27.9402C23.0939 28.0286 23.0642 28.1137 23.0189 28.1906C22.9735 28.2675 22.9134 28.3346 22.842 28.3881C22.7705 28.4416 22.6892 28.4804 22.6027 28.5023L19.845 29.227C19.6718 29.2725 19.4875 29.2473 19.3328 29.157C19.1781 29.0668 19.0656 28.9188 19.02 28.7455L18.2952 25.988C18.2716 25.902 18.2654 25.8121 18.2768 25.7235C18.2882 25.635 18.317 25.5496 18.3616 25.4723C18.4062 25.395 18.4657 25.3273 18.5366 25.2731C18.6075 25.2189 18.6885 25.1793 18.7748 25.1566C18.8611 25.1339 18.9511 25.1285 19.0395 25.1408C19.1279 25.1531 19.213 25.1827 19.2899 25.2281C19.3668 25.2734 19.4339 25.3335 19.4874 25.405C19.5409 25.4764 19.5797 25.5578 19.6016 25.6443L19.9283 26.8871C23.2527 21.9339 28.3346 18.4285 34.1456 17.0803C39.9567 15.732 46.0629 16.6416 51.2287 19.6249C51.3055 19.6694 51.3727 19.7285 51.4266 19.799C51.4805 19.8694 51.52 19.9498 51.5428 20.0355C51.5657 20.1211 51.5714 20.2105 51.5597 20.2984C51.548 20.3863 51.5191 20.4711 51.4746 20.5478C51.4302 20.6246 51.371 20.6918 51.3006 20.7457C51.2301 20.7996 51.1498 20.8391 51.0641 20.8619C50.9784 20.8847 50.889 20.8904 50.8011 20.8787C50.7132 20.867 50.6285 20.8381 50.5517 20.7937C45.7099 17.9994 39.9916 17.1364 34.5408 18.3773C29.09 19.6182 24.3088 22.8715 21.1538 27.4863L22.2589 27.1959ZM51.1695 25.147L48.9083 26.0815L49.2553 26.921C49.318 27.0659 49.3279 27.2282 49.2834 27.3796C49.2388 27.5311 49.1426 27.6621 49.0114 27.7499C48.072 28.3821 47.2638 29.1902 46.6314 30.1295C46.5442 30.2587 46.4149 30.3539 46.2656 30.3987C46.1162 30.4436 45.9559 30.4355 45.8119 30.3757L44.9623 30.0229L44.0248 32.2809L44.8483 32.6227C44.9993 32.6782 45.1256 32.7855 45.2045 32.9256C45.2835 33.0658 45.31 33.2294 45.2792 33.3873C45.0588 34.4993 45.0571 35.6436 45.2741 36.7563C45.3028 36.9091 45.2782 37.0671 45.2042 37.2039C45.1302 37.3406 45.0114 37.4478 44.8678 37.5073L44.0191 37.858L44.9536 40.1193L45.793 39.7724C45.9378 39.7097 46.1001 39.6998 46.2516 39.7444C46.403 39.7889 46.534 39.8852 46.6219 40.0163C47.2541 40.9557 48.062 41.7639 49.0013 42.3963C49.1305 42.4836 49.2257 42.6128 49.2705 42.7622C49.3154 42.9115 49.3073 43.0718 49.2475 43.2159L48.8947 44.0654L51.1527 45.0029L51.4945 44.1795C51.55 44.0285 51.6574 43.9022 51.7975 43.8232C51.9377 43.7442 52.1013 43.7177 52.2592 43.7485C53.3712 43.969 54.5156 43.9708 55.6283 43.7537C55.7811 43.7249 55.9391 43.7496 56.0758 43.8235C56.2126 43.8975 56.3197 44.0163 56.3792 44.1599L56.73 45.0087L58.9913 44.0741L58.6444 43.2348C58.5819 43.09 58.572 42.9279 58.6166 42.7766C58.6611 42.6254 58.7572 42.4945 58.8881 42.4066C59.8277 41.7746 60.636 40.9665 61.2681 40.027C61.3554 39.8977 61.4847 39.8027 61.634 39.7578C61.7834 39.713 61.9436 39.7211 62.0877 39.7809L62.9372 40.1335L63.8747 37.8755L63.0514 37.5338C62.9004 37.4784 62.774 37.371 62.6951 37.2309C62.6161 37.0907 62.5896 36.927 62.6205 36.7691C62.8409 35.6571 62.8426 34.5128 62.6255 33.4001C62.5967 33.2473 62.6214 33.0893 62.6954 32.9525C62.7694 32.8158 62.8881 32.7087 63.0317 32.6491L63.8805 32.2984L62.9459 30.0371L62.1064 30.384C61.9615 30.4467 61.7993 30.4566 61.6479 30.4121C61.4964 30.3675 61.3654 30.2713 61.2775 30.1402C60.6453 29.2008 59.8373 28.3926 58.898 27.7602C58.7687 27.673 58.6736 27.5437 58.6287 27.3944C58.5838 27.245 58.5919 27.0847 58.6517 26.9407L59.0045 26.0912L56.7466 25.1537L56.4047 25.9771C56.3493 26.1281 56.2419 26.2544 56.1017 26.3334C55.9616 26.4124 55.7979 26.4388 55.64 26.408C54.528 26.1881 53.3838 26.1864 52.2711 26.4029C52.1183 26.4317 51.9603 26.407 51.8235 26.333C51.6868 26.259 51.5797 26.1403 51.5202 25.9966L51.1695 25.147ZM47.7705 25.0913C47.6049 25.1594 47.4732 25.2904 47.4043 25.4556C47.3353 25.6208 47.3348 25.8066 47.4028 25.9721L47.8075 26.9513C47.0623 27.5144 46.3982 28.1775 45.8339 28.9218L44.8564 28.5155C44.6909 28.4468 44.5049 28.4467 44.3392 28.5151C44.1736 28.5835 44.0419 28.7149 43.9731 28.8804L42.5175 32.3866C42.4488 32.5522 42.4486 32.7382 42.517 32.9038C42.5854 33.0695 42.7168 33.2012 42.8823 33.2699L43.8602 33.6762C43.7321 34.6013 43.7311 35.5395 43.8572 36.4649L42.8811 36.8684C42.7156 36.9364 42.5839 37.0674 42.5149 37.2325C42.446 37.3977 42.4454 37.5835 42.5134 37.749L43.9634 41.2576C43.9972 41.3396 44.0467 41.4142 44.1093 41.4771C44.1719 41.5399 44.2462 41.5898 44.3281 41.6239C44.41 41.6581 44.4978 41.6757 44.5865 41.6759C44.6751 41.676 44.763 41.6587 44.845 41.6249L45.8241 41.2202C46.387 41.9654 47.0499 42.6296 47.7941 43.1938L47.3878 44.1713C47.3538 44.2533 47.3362 44.3412 47.3362 44.4299C47.3361 44.5187 47.3535 44.6065 47.3874 44.6886C47.4213 44.7706 47.471 44.8451 47.5337 44.9079C47.5964 44.9707 47.6708 45.0206 47.7528 45.0546L51.2591 46.5102C51.341 46.5443 51.4289 46.5618 51.5176 46.5619C51.6064 46.562 51.6943 46.5446 51.7763 46.5107C51.8583 46.4768 51.9329 46.4271 51.9957 46.3644C52.0585 46.3017 52.1083 46.2272 52.1423 46.1452L52.5486 45.1676C53.4737 45.2957 54.412 45.2967 55.3373 45.1705L55.7406 46.1466C55.7743 46.2286 55.8238 46.3031 55.8863 46.366C55.9489 46.4288 56.0231 46.4787 56.1049 46.5128C56.1867 46.5469 56.2744 46.5646 56.363 46.5648C56.4516 46.5651 56.5394 46.5478 56.6214 46.5141L60.13 45.0643C60.212 45.0306 60.2865 44.9811 60.3493 44.9186C60.4121 44.8561 60.462 44.7818 60.4962 44.7C60.5303 44.6182 60.548 44.5305 60.5482 44.4419C60.5484 44.3533 60.5312 44.2655 60.4975 44.1835L60.093 43.2045C60.8381 42.6415 61.5022 41.9786 62.0664 41.2345L63.0439 41.6407C63.1259 41.6747 63.2137 41.6923 63.3025 41.6924C63.3912 41.6924 63.4791 41.675 63.5611 41.6411C63.6432 41.6072 63.7177 41.5575 63.7805 41.4948C63.8433 41.4321 63.8932 41.3577 63.9272 41.2757L65.3828 37.7695C65.4168 37.6875 65.4344 37.5996 65.4345 37.5109C65.4346 37.4221 65.4172 37.3342 65.3833 37.2522C65.3494 37.1702 65.2996 37.0957 65.2369 37.0328C65.1742 36.97 65.0998 36.9202 65.0178 36.8862L64.0403 36.4799C64.1683 35.5548 64.1693 34.6164 64.0433 33.691L65.0192 33.2876C65.1012 33.2539 65.1757 33.2044 65.2386 33.1419C65.3014 33.0795 65.3513 33.0052 65.3855 32.9234C65.4196 32.8416 65.4373 32.7539 65.4376 32.6653C65.4378 32.5767 65.4206 32.4889 65.3869 32.407L63.9369 28.8984C63.8688 28.7328 63.7378 28.6011 63.5727 28.5322C63.4076 28.4632 63.2218 28.4627 63.0563 28.5307L62.077 28.9354C61.5142 28.1902 60.8512 27.5261 60.107 26.962L60.5133 25.9845C60.5473 25.9025 60.5649 25.8146 60.5649 25.7259C60.565 25.6371 60.5476 25.5492 60.5137 25.4672C60.4798 25.3852 60.4301 25.3107 60.3674 25.2478C60.3047 25.185 60.2303 25.1352 60.1483 25.1012L56.6419 23.6454C56.4763 23.5767 56.2903 23.5766 56.1246 23.645C55.9589 23.7134 55.8272 23.8449 55.7584 24.0104L55.3522 24.988C54.427 24.8601 53.4887 24.8591 52.5633 24.9852L52.16 24.009C52.0919 23.8435 51.9609 23.7118 51.7958 23.6429C51.6306 23.574 51.4449 23.5735 51.2794 23.6415L47.7705 25.0913ZM57.8294 31.1979C58.727 32.0955 59.2857 33.2766 59.4101 34.54C59.5346 35.8033 59.2172 37.0707 58.5119 38.1262C57.8066 39.1818 56.7572 39.9601 55.5424 40.3286C54.3276 40.6972 53.0226 40.6331 51.8498 40.1473C50.677 39.6615 49.7089 38.7841 49.1104 37.6645C48.512 36.5449 48.3203 35.2525 48.5679 34.0075C48.8156 32.7624 49.4873 31.6417 50.4686 30.8364C51.4499 30.031 52.6801 29.5909 53.9495 29.5909C54.6702 29.5899 55.384 29.7314 56.0498 30.0072C56.7157 30.283 57.3204 30.6876 57.8294 31.1979ZM53.9495 28.2368C52.3668 28.2367 50.8329 28.7855 49.6094 29.7895C48.3859 30.7936 47.5483 32.1908 47.2395 33.7432C46.9306 35.2955 47.1696 36.9069 47.9157 38.3028C48.6618 39.6987 49.8688 40.7927 51.3311 41.3985C52.7933 42.0042 54.4204 42.0842 55.935 41.6247C57.4497 41.1653 58.7581 40.1949 59.6375 38.8789C60.5168 37.5629 60.9127 35.9827 60.7575 34.4075C60.6024 32.8324 59.9059 31.3597 58.7867 30.2405C58.1522 29.6044 57.3983 29.0999 56.5682 28.756C55.7382 28.4122 54.848 28.2357 53.9495 28.2368Z" fill="#393939" stroke="#393939" stroke-width="20" mask="url(#path-1-inside-1_1709_3075)"/>
<mask id="path-2-inside-2_1709_3075" fill="white">
<path fill-rule="evenodd" clip-rule="evenodd" d="M40.001 2.50003C31.3252 2.4998 22.9177 5.5078 16.2111 11.0115C9.50445 16.5152 4.91362 24.1741 3.22082 32.6831C1.52801 41.1922 2.83797 50.025 6.9275 57.6765C11.017 65.328 17.6331 71.3248 25.6484 74.6451C33.6637 77.9654 42.5823 78.4038 50.8846 75.8856C59.1869 73.3674 66.3593 68.0484 71.1795 60.8349C75.9998 53.6214 78.1697 44.9597 77.3196 36.3256C76.4695 27.6915 72.652 19.6193 66.5174 13.4844C63.0391 9.997 58.9059 7.23131 54.3553 5.34625C49.8048 3.46119 44.9266 2.49392 40.001 2.50003ZM65.5635 14.4375C71.4776 20.3515 75.1581 28.1332 75.9779 36.4567C76.7977 44.7801 74.7061 53.1303 70.0595 60.0845C65.4129 67.0387 58.4988 72.1666 50.4952 74.5945C42.4916 77.0223 33.8938 76.6 26.1667 73.3993C18.4397 70.1987 12.0614 64.4178 8.11879 57.0417C4.17615 49.6655 2.91306 41.1505 4.54473 32.9475C6.1764 24.7445 10.6019 17.361 17.0671 12.0551C23.5324 6.74926 31.6373 3.84925 40.001 3.84925C44.7493 3.84334 49.4519 4.77571 53.8388 6.59279C58.2256 8.40987 62.2102 11.0758 65.5635 14.4375Z"/>
</mask>
<path fill-rule="evenodd" clip-rule="evenodd" d="M40.001 2.50003C31.3252 2.4998 22.9177 5.5078 16.2111 11.0115C9.50445 16.5152 4.91362 24.1741 3.22082 32.6831C1.52801 41.1922 2.83797 50.025 6.9275 57.6765C11.017 65.328 17.6331 71.3248 25.6484 74.6451C33.6637 77.9654 42.5823 78.4038 50.8846 75.8856C59.1869 73.3674 66.3593 68.0484 71.1795 60.8349C75.9998 53.6214 78.1697 44.9597 77.3196 36.3256C76.4695 27.6915 72.652 19.6193 66.5174 13.4844C63.0391 9.997 58.9059 7.23131 54.3553 5.34625C49.8048 3.46119 44.9266 2.49392 40.001 2.50003ZM65.5635 14.4375C71.4776 20.3515 75.1581 28.1332 75.9779 36.4567C76.7977 44.7801 74.7061 53.1303 70.0595 60.0845C65.4129 67.0387 58.4988 72.1666 50.4952 74.5945C42.4916 77.0223 33.8938 76.6 26.1667 73.3993C18.4397 70.1987 12.0614 64.4178 8.11879 57.0417C4.17615 49.6655 2.91306 41.1505 4.54473 32.9475C6.1764 24.7445 10.6019 17.361 17.0671 12.0551C23.5324 6.74926 31.6373 3.84925 40.001 3.84925C44.7493 3.84334 49.4519 4.77571 53.8388 6.59279C58.2256 8.40987 62.2102 11.0758 65.5635 14.4375Z" fill="#393939"/>
<path d="M40.001 2.50003L40.0008 10.5L40.011 10.5L40.001 2.50003ZM66.5174 13.4844L60.8532 19.1339L60.8604 19.1411L66.5174 13.4844ZM65.5635 14.4375L59.8997 20.0874L59.9067 20.0944L65.5635 14.4375ZM40.001 3.84925V11.8493L40.011 11.8492L40.001 3.84925ZM40.001 2.50003L40.0012 -5.49997C29.4746 -5.50025 19.2735 -1.85054 11.1361 4.82728L16.2111 11.0115L21.2861 17.1957C26.562 12.8661 33.1759 10.4999 40.0008 10.5L40.001 2.50003ZM16.2111 11.0115L11.1361 4.82728C2.99872 11.5051 -2.57149 20.7978 -4.62542 31.1222L3.22082 32.6831L11.0671 34.2441C12.3987 27.5503 16.0102 21.5253 21.2861 17.1957L16.2111 11.0115ZM3.22082 32.6831L-4.62542 31.1222C-6.67936 41.4465 -5.08994 52.1636 -0.127974 61.4474L6.9275 57.6765L13.983 53.9055C10.7659 47.8863 9.73538 40.9379 11.0671 34.2441L3.22082 32.6831ZM6.9275 57.6765L-0.127974 61.4474C4.83399 70.7313 12.8615 78.0074 22.5867 82.036L25.6484 74.6451L28.7101 67.2541C22.4047 64.6421 17.2001 59.9247 13.983 53.9055L6.9275 57.6765ZM25.6484 74.6451L22.5867 82.036C32.312 86.0647 43.1332 86.5966 53.2067 83.5412L50.8846 75.8856L48.5626 68.23C42.0314 70.211 35.0155 69.8661 28.7101 67.2541L25.6484 74.6451ZM50.8846 75.8856L53.2067 83.5412C63.2802 80.4858 71.9826 74.0321 77.8311 65.2797L71.1795 60.8349L64.5279 56.3901C60.736 62.0648 55.0937 66.249 48.5626 68.23L50.8846 75.8856ZM71.1795 60.8349L77.8311 65.2797C83.6797 56.5273 86.3126 46.0177 85.2811 35.5417L77.3196 36.3256L69.3581 37.1095C70.0268 43.9016 68.3198 50.7155 64.5279 56.3901L71.1795 60.8349ZM77.3196 36.3256L85.2811 35.5417C84.2496 25.0657 79.6177 15.2715 72.1745 7.82774L66.5174 13.4844L60.8604 19.1411C65.6862 23.9672 68.6894 30.3173 69.3581 37.1095L77.3196 36.3256ZM66.5174 13.4844L72.1816 7.8349C67.959 3.60124 62.9413 0.243735 57.417 -2.0447L54.3553 5.34625L51.2936 12.7372C54.8704 14.2189 58.1192 16.3928 60.8532 19.1339L66.5174 13.4844ZM54.3553 5.34625L57.417 -2.0447C51.8927 -4.33313 45.9706 -5.50738 39.9911 -5.49997L40.001 2.50003L40.011 10.5C43.8825 10.4952 47.7168 11.2555 51.2936 12.7372L54.3553 5.34625ZM65.5635 14.4375L59.9067 20.0944C64.512 24.6997 67.378 30.7593 68.0164 37.2408L75.9779 36.4567L83.9394 35.6725C82.9381 25.5071 78.4432 16.0034 71.2204 8.78066L65.5635 14.4375ZM75.9779 36.4567L68.0164 37.2408C68.6548 43.7223 67.0261 50.2247 63.4077 55.6399L70.0595 60.0845L76.7113 64.529C82.3861 56.0359 84.9406 45.8379 83.9394 35.6725L75.9779 36.4567ZM70.0595 60.0845L63.4077 55.6399C59.7894 61.0552 54.4053 65.0483 48.1729 66.9389L50.4952 74.5945L52.8175 82.25C62.5922 79.2848 71.0364 73.0221 76.7113 64.529L70.0595 60.0845ZM50.4952 74.5945L48.1729 66.9389C41.9405 68.8295 35.2453 68.5006 29.2282 66.0083L26.1667 73.3993L23.1053 80.7904C32.5423 84.6993 43.0428 85.2151 52.8175 82.25L50.4952 74.5945ZM26.1667 73.3993L29.2282 66.0083C23.2111 63.5159 18.2443 59.0143 15.1742 53.2705L8.11879 57.0417L1.06342 60.8128C5.87855 69.8213 13.6683 76.8814 23.1053 80.7904L26.1667 73.3993ZM8.11879 57.0417L15.1742 53.2705C12.104 47.5266 11.1204 40.896 12.391 34.5082L4.54473 32.9475L-3.30155 31.3868C-5.2943 41.4051 -3.7517 51.8044 1.06342 60.8128L8.11879 57.0417ZM4.54473 32.9475L12.391 34.5082C13.6616 28.1205 17.1078 22.371 22.1423 18.2392L17.0671 12.0551L11.992 5.87107C4.09601 12.3511 -1.3088 21.3685 -3.30155 31.3868L4.54473 32.9475ZM17.0671 12.0551L22.1423 18.2392C27.1768 14.1075 33.4882 11.8492 40.001 11.8492V3.84925L40.001 -4.15075C29.7865 -4.15075 19.8879 -0.608986 11.992 5.87107L17.0671 12.0551ZM40.001 3.84925L40.011 11.8492C43.7053 11.8446 47.3642 12.5701 50.7773 13.9838L53.8388 6.59279L56.9002 -0.798251C51.5397 -3.01864 45.7933 -4.15796 39.9911 -4.15075L40.001 3.84925ZM53.8388 6.59279L50.7773 13.9838C54.1905 15.3976 57.2906 17.4718 59.8997 20.0874L65.5635 14.4375L71.2274 8.78769C67.1297 4.67984 62.2608 1.42214 56.9002 -0.798251L53.8388 6.59279Z" fill="#393939" mask="url(#path-2-inside-2_1709_3075)"/>
</svg>
