<svg width="80" height="80" viewBox="0 0 80 80" fill="none" xmlns="http://www.w3.org/2000/svg">
<g clip-path="url(#clip0_1808_4227)">
<path d="M54.9498 31.2328H52.6016V41.2523H54.9498V31.2328Z" fill="url(#paint0_linear_1808_4227)"/>
<path d="M54.9498 24.9706H52.6016V28.7279H54.9498V24.9706Z" fill="url(#paint1_linear_1808_4227)"/>
<path d="M58.7084 27.5537V3.75734H57.4559V0H50.0978V3.75734H48.8453V13.6986H51.1936V11.1155H56.36V43.8356H51.1938V16.2036H48.8455V27.5539H40.3467L38.9167 17.1241L37.203 14.2261H37.1595L35.9069 9.21625H33.5892L33.022 0H27.3105L26.4105 9.21609H24.0542L22.8016 14.2259H22.7581L21.0444 17.1239L19.6144 27.5537H0V80H14.9511V77.6517H2.34828V29.9022H19.2922L17.6637 41.7797H16.2036V44.128H17.3419L17.2272 44.9653L18.7195 52.0006H19.7491V56.7308H22.0973V52.0006H23.1872L25.4894 36.6134H28.8064V37.9442H31.1547V36.6134H34.4719L36.7741 52.0006H37.8639V56.7308H40.2122V52.0006H41.2417L42.7341 44.9653L42.6194 44.128H43.7577V41.7797H42.2975L40.6689 29.9022H48.8456V46.1839H50.0981V49.9412H52.603V56.2817H54.9512V49.9412H57.4561V46.1839H58.7086V29.9022H77.6519V77.6517H17.4559V80H80V27.5537H58.7084ZM29.4406 2.34828H30.8137L31.2366 9.21609H28.7698L29.4406 2.34828ZM25.8873 11.5645H26.1809H33.7337H34.0734L34.7388 14.2259H31.1225L32.0516 20.4356L30.7467 21.7406H29.2145L27.9097 20.4356L28.8387 14.2259H25.2225L25.8873 11.5645ZM25.4186 21.2145L25.393 21.2402L25.412 21.2592L21.1641 49.6523H20.6219L19.6092 44.8786L23.3066 17.9119L24.0977 16.5742H26.1127L25.4186 21.2145ZM31.1545 34.265V32.9342H28.8062V34.265H25.8403L27.477 23.3244L28.2416 24.0889H31.7191L32.4836 23.3244L34.1203 34.265H31.1545ZM39.3391 49.6523H38.7969L34.5491 21.2592L34.5681 21.2402L34.5425 21.2145L33.8483 16.5742H35.8633L36.6544 17.9119L40.3517 44.8786L39.3391 49.6523ZM55.1077 47.593H52.4463V46.1839H55.1077V47.593ZM52.4463 2.34828H55.1077V3.75734H52.4463V2.34828ZM56.3602 8.76719H51.1938V6.10563H56.3602V8.76719Z" fill="url(#paint2_linear_1808_4227)"/>
<path d="M5.01172 32.5636V36.2427H7.36V34.9119H8.69078V32.5636H5.01172Z" fill="url(#paint3_linear_1808_4227)"/>
<path d="M7.36 72.6418V71.311H5.01172V74.9901H8.69078V72.6418H7.36Z" fill="url(#paint4_linear_1808_4227)"/>
<path d="M71.3125 32.5636V34.9119H72.6433V36.2427H74.9916V32.5636H71.3125Z" fill="url(#paint5_linear_1808_4227)"/>
<path d="M72.6433 71.311V72.6418H71.3125V74.9901H74.9916V71.311H72.6433Z" fill="url(#paint6_linear_1808_4227)"/>
<path d="M29.9805 61.2133V58.865H12.368V37.4169H16.2036V35.0685H10.0195V72.4854H17.4559V70.1371H12.368V61.2133H29.9805Z" fill="url(#paint7_linear_1808_4227)"/>
<path d="M61.2897 35.0685V37.4169H67.6302V52.6029H61.2897V54.9511H67.6302V70.1371H46.182V66.3015H43.8338V70.1371H24.9688V72.4854H45.008H46.182H69.9786V35.0685H61.2897Z" fill="url(#paint8_linear_1808_4227)"/>
<path d="M43.8342 51.272V58.8649H38.7461V61.2132H46.1825V51.272H43.8342Z" fill="url(#paint9_linear_1808_4227)"/>
<path d="M55.0283 58.865H52.5234V61.2133H55.0283V58.865Z" fill="url(#paint10_linear_1808_4227)"/>
<path d="M60.04 58.865H57.5352V61.2133H60.04V58.865Z" fill="url(#paint11_linear_1808_4227)"/>
<path d="M65.0478 58.865H62.543V61.2133H65.0478V58.865Z" fill="url(#paint12_linear_1808_4227)"/>
<path d="M52.5244 63.8746H50.0195V66.2229H52.5244V63.8746Z" fill="url(#paint13_linear_1808_4227)"/>
<path d="M57.5361 63.8746H55.0312V66.2229H57.5361V63.8746Z" fill="url(#paint14_linear_1808_4227)"/>
<path d="M62.5439 63.8746H60.0391V66.2229H62.5439V63.8746Z" fill="url(#paint15_linear_1808_4227)"/>
</g>
<defs>
<linearGradient id="paint0_linear_1808_4227" x1="53.7757" y1="31.2328" x2="53.7757" y2="41.2523" gradientUnits="userSpaceOnUse">
<stop stop-color="#9747FF"/>
<stop offset="1" stop-color="#4B9ADB"/>
</linearGradient>
<linearGradient id="paint1_linear_1808_4227" x1="53.7757" y1="24.9706" x2="53.7757" y2="28.7279" gradientUnits="userSpaceOnUse">
<stop stop-color="#9747FF"/>
<stop offset="1" stop-color="#4B9ADB"/>
</linearGradient>
<linearGradient id="paint2_linear_1808_4227" x1="40" y1="0" x2="40" y2="80" gradientUnits="userSpaceOnUse">
<stop stop-color="#9747FF"/>
<stop offset="1" stop-color="#4B9ADB"/>
</linearGradient>
<linearGradient id="paint3_linear_1808_4227" x1="6.85125" y1="32.5636" x2="6.85125" y2="36.2427" gradientUnits="userSpaceOnUse">
<stop stop-color="#9747FF"/>
<stop offset="1" stop-color="#4B9ADB"/>
</linearGradient>
<linearGradient id="paint4_linear_1808_4227" x1="6.85125" y1="71.311" x2="6.85125" y2="74.9901" gradientUnits="userSpaceOnUse">
<stop stop-color="#9747FF"/>
<stop offset="1" stop-color="#4B9ADB"/>
</linearGradient>
<linearGradient id="paint5_linear_1808_4227" x1="73.152" y1="32.5636" x2="73.152" y2="36.2427" gradientUnits="userSpaceOnUse">
<stop stop-color="#9747FF"/>
<stop offset="1" stop-color="#4B9ADB"/>
</linearGradient>
<linearGradient id="paint6_linear_1808_4227" x1="73.152" y1="71.311" x2="73.152" y2="74.9901" gradientUnits="userSpaceOnUse">
<stop stop-color="#9747FF"/>
<stop offset="1" stop-color="#4B9ADB"/>
</linearGradient>
<linearGradient id="paint7_linear_1808_4227" x1="20" y1="35.0685" x2="20" y2="72.4854" gradientUnits="userSpaceOnUse">
<stop stop-color="#9747FF"/>
<stop offset="1" stop-color="#4B9ADB"/>
</linearGradient>
<linearGradient id="paint8_linear_1808_4227" x1="47.4737" y1="35.0685" x2="47.4737" y2="72.4854" gradientUnits="userSpaceOnUse">
<stop stop-color="#9747FF"/>
<stop offset="1" stop-color="#4B9ADB"/>
</linearGradient>
<linearGradient id="paint9_linear_1808_4227" x1="42.4643" y1="51.272" x2="42.4643" y2="61.2132" gradientUnits="userSpaceOnUse">
<stop stop-color="#9747FF"/>
<stop offset="1" stop-color="#4B9ADB"/>
</linearGradient>
<linearGradient id="paint10_linear_1808_4227" x1="53.7759" y1="58.865" x2="53.7759" y2="61.2133" gradientUnits="userSpaceOnUse">
<stop stop-color="#9747FF"/>
<stop offset="1" stop-color="#4B9ADB"/>
</linearGradient>
<linearGradient id="paint11_linear_1808_4227" x1="58.7876" y1="58.865" x2="58.7876" y2="61.2133" gradientUnits="userSpaceOnUse">
<stop stop-color="#9747FF"/>
<stop offset="1" stop-color="#4B9ADB"/>
</linearGradient>
<linearGradient id="paint12_linear_1808_4227" x1="63.7954" y1="58.865" x2="63.7954" y2="61.2133" gradientUnits="userSpaceOnUse">
<stop stop-color="#9747FF"/>
<stop offset="1" stop-color="#4B9ADB"/>
</linearGradient>
<linearGradient id="paint13_linear_1808_4227" x1="51.272" y1="63.8746" x2="51.272" y2="66.2229" gradientUnits="userSpaceOnUse">
<stop stop-color="#9747FF"/>
<stop offset="1" stop-color="#4B9ADB"/>
</linearGradient>
<linearGradient id="paint14_linear_1808_4227" x1="56.2837" y1="63.8746" x2="56.2837" y2="66.2229" gradientUnits="userSpaceOnUse">
<stop stop-color="#9747FF"/>
<stop offset="1" stop-color="#4B9ADB"/>
</linearGradient>
<linearGradient id="paint15_linear_1808_4227" x1="61.2915" y1="63.8746" x2="61.2915" y2="66.2229" gradientUnits="userSpaceOnUse">
<stop stop-color="#9747FF"/>
<stop offset="1" stop-color="#4B9ADB"/>
</linearGradient>
<clipPath id="clip0_1808_4227">
<rect width="80" height="80" fill="white"/>
</clipPath>
</defs>
</svg>
