<svg width="80" height="80" viewBox="0 0 80 80" fill="none" xmlns="http://www.w3.org/2000/svg">
<g clip-path="url(#clip0_1782_3011)">
<path fill-rule="evenodd" clip-rule="evenodd" d="M74.9092 73.4974H5.09375C4.57591 73.4974 4.15625 73.0776 4.15625 72.5599V61.4531C4.15625 57.4366 7.42404 54.1686 11.4407 54.1686H68.5511C72.5741 54.1686 75.8467 57.4413 75.8467 61.4639V72.5599C75.8467 73.0776 75.427 73.4974 74.9092 73.4974ZM6.03126 71.6224H73.9717V61.4639C73.9717 58.4752 71.5399 56.0436 68.5511 56.0436H11.4407C8.4579 56.0436 6.03126 58.4702 6.03126 61.4531V71.6224Z" fill="url(#paint0_linear_1782_3011)"/>
<path fill-rule="evenodd" clip-rule="evenodd" d="M13.5846 68.2886C11.1277 68.2886 9.12891 66.2898 9.12891 63.8329C9.12891 61.376 11.1276 59.3772 13.5846 59.3772C16.0415 59.3772 18.0404 61.376 18.0404 63.8329C18.0404 66.2898 16.0415 68.2886 13.5846 68.2886ZM13.5846 61.2524C12.1616 61.2524 11.0039 62.4101 11.0039 63.8331C11.0039 65.256 12.1614 66.4138 13.5846 66.4138C15.0077 66.4138 16.1653 65.2562 16.1653 63.8331C16.1652 62.4101 15.0077 61.2524 13.5846 61.2524Z" fill="url(#paint1_linear_1782_3011)"/>
<path fill-rule="evenodd" clip-rule="evenodd" d="M25.4128 68.2886C22.9559 68.2886 20.957 66.2898 20.957 63.8329C20.957 61.376 22.9557 59.3772 25.4128 59.3772C27.8698 59.3772 29.8685 61.376 29.8685 63.8329C29.8685 66.2898 27.8696 68.2886 25.4128 68.2886ZM25.4128 61.2524C23.9897 61.2524 22.832 62.4101 22.832 63.8331C22.832 65.256 23.9897 66.4138 25.4128 66.4138C26.8358 66.4138 27.9935 65.2562 27.9935 63.8331C27.9935 62.4101 26.8358 61.2524 25.4128 61.2524Z" fill="url(#paint2_linear_1782_3011)"/>
<path fill-rule="evenodd" clip-rule="evenodd" d="M37.237 68.2886C34.7801 68.2886 32.7812 66.2898 32.7812 63.8329C32.7812 61.376 34.7799 59.3772 37.237 59.3772C39.6939 59.3772 41.6927 61.376 41.6927 63.8329C41.6927 66.2898 39.6939 68.2886 37.237 68.2886ZM37.237 61.2524C35.8139 61.2524 34.6563 62.4101 34.6563 63.8331C34.6563 65.256 35.8137 66.4138 37.237 66.4138C38.66 66.4138 39.8177 65.2562 39.8177 63.8331C39.8177 62.4101 38.6598 61.2524 37.237 61.2524Z" fill="url(#paint3_linear_1782_3011)"/>
<path fill-rule="evenodd" clip-rule="evenodd" d="M56.9685 56.0435C56.9677 56.0436 56.9696 56.0436 56.9685 56.0435H23.0234C22.5058 56.0435 22.0859 55.6236 22.0859 55.106C22.0859 50.3225 23.9488 45.8252 27.3312 42.4428C30.7138 39.0604 35.211 37.1974 39.9945 37.1974C44.778 37.1974 49.2752 39.0602 52.6577 42.4428C56.0214 45.8066 57.8824 50.2726 57.9027 55.0268C57.9049 55.0528 57.906 55.0792 57.906 55.106C57.906 55.6236 57.4863 56.0435 56.9685 56.0435ZM23.9877 54.1685H56.0013C55.7763 50.2381 54.1382 46.5749 51.332 43.7684C48.3036 40.7402 44.2773 39.0724 39.9945 39.0724C35.7117 39.0724 31.6852 40.7402 28.657 43.7684C25.8507 46.5747 24.2127 50.2382 23.9877 54.1685Z" fill="url(#paint4_linear_1782_3011)"/>
<path fill-rule="evenodd" clip-rule="evenodd" d="M48.829 56.0435C48.8282 56.0437 48.8301 56.0437 48.829 56.0435H31.1641C30.6464 56.0435 30.2266 55.6237 30.2266 55.106C30.2266 52.4971 31.2427 50.044 33.0874 48.1988C34.9327 46.3536 37.3857 45.3375 39.995 45.3375C42.6042 45.3375 45.0574 46.3536 46.9023 48.1986C48.7282 50.0249 49.7421 52.4465 49.7632 55.025C49.7656 55.0518 49.7665 55.0787 49.7665 55.106C49.7665 55.6237 49.3466 56.0435 48.829 56.0435ZM32.1564 54.1685H47.8335C47.6276 52.4151 46.8442 50.7922 45.5765 49.5244C44.0857 48.0336 42.1035 47.2125 39.995 47.2125C37.8866 47.2125 35.9043 48.0336 34.4136 49.5245C33.1459 50.7922 32.3625 52.4151 32.1564 54.1685Z" fill="url(#paint5_linear_1782_3011)"/>
<path fill-rule="evenodd" clip-rule="evenodd" d="M50.8702 43.013C50.6526 43.013 50.44 42.9374 50.2702 42.7958C49.589 42.2287 48.8562 41.7144 48.0925 41.2678L47.9355 41.177C47.1624 40.7368 46.3508 40.3592 45.5197 40.0533C45.2605 39.9579 45.0562 39.7525 44.9622 39.4924C44.8681 39.2324 44.8936 38.9443 45.0318 38.7048L53.6889 23.7099C53.8133 23.4945 54.018 23.3373 54.2583 23.2731C54.4986 23.2086 54.7545 23.2424 54.9697 23.3668L59.996 26.2688C60.2114 26.3932 60.3686 26.5979 60.4331 26.8381C60.4973 27.0782 60.4637 27.3342 60.3393 27.5494L51.6818 42.5441C51.5436 42.7835 51.3066 42.9499 51.0344 42.9985C50.98 43.0084 50.9248 43.013 50.8702 43.013ZM47.1949 38.7085C47.7644 38.9589 48.3216 39.239 48.8603 39.5461L48.9422 39.5925C48.937 39.5897 48.9474 39.5954 48.9422 39.5925L49.0418 39.6508C49.575 39.9627 50.0956 40.3048 50.5972 40.6728L58.2465 27.4239L54.844 25.4594L47.1949 38.7085Z" fill="url(#paint6_linear_1782_3011)"/>
<path fill-rule="evenodd" clip-rule="evenodd" d="M63.8579 26.9521C63.6983 26.9521 63.5368 26.9113 63.3897 26.8266L52.7893 20.7064C52.3694 20.4639 52.2037 19.9416 52.4067 19.5017L56.528 10.5701C57.6859 8.0612 60.2869 6.50269 63.3163 6.50269C64.7858 6.50269 66.2096 6.87621 67.4332 7.58247C69.4028 8.71966 70.8702 10.7251 71.3581 12.9465C71.7981 14.95 71.4218 16.9296 70.2986 18.5203L64.6245 26.5553C64.4427 26.8124 64.1532 26.9521 63.8579 26.9521ZM54.4677 19.5103L63.5861 24.7749L68.7667 17.4388C69.5824 16.2837 69.8522 14.8313 69.5267 13.3488C69.1498 11.6333 68.0167 10.0847 66.4955 9.20647C65.5565 8.66427 64.457 8.37785 63.3159 8.37785C61.0268 8.37785 59.078 9.51891 58.2303 11.3557L54.4677 19.5103Z" fill="url(#paint7_linear_1782_3011)"/>
<path fill-rule="evenodd" clip-rule="evenodd" d="M60.4671 28.5616C60.3041 28.5616 60.1421 28.5191 59.9983 28.4359L53.09 24.4474C52.6415 24.1885 52.488 23.6153 52.7469 23.1669L54.2914 20.4915C54.4158 20.2763 54.6204 20.1191 54.8607 20.0548C55.1006 19.9904 55.3566 20.024 55.5721 20.1484L62.4803 24.137C62.9286 24.396 63.0823 24.9692 62.8234 25.4176L61.2791 28.093C61.1547 28.3082 60.9501 28.4654 60.7098 28.5298C60.63 28.5509 60.5485 28.5616 60.4671 28.5616ZM54.8395 23.2924L60.124 26.3433L60.731 25.292L55.4465 22.2408L54.8395 23.2924Z" fill="url(#paint8_linear_1782_3011)"/>
<path fill-rule="evenodd" clip-rule="evenodd" d="M69.452 68.2886H50.5898C50.0722 68.2886 49.6523 67.8688 49.6523 67.3511V60.3147C49.6523 59.797 50.0722 59.3772 50.5898 59.3772H69.452C69.9696 59.3772 70.3895 59.797 70.3895 60.3147V67.3511C70.3895 67.8688 69.9698 68.2886 69.452 68.2886ZM51.5273 66.4136H68.5145V61.2522H51.5273V66.4136Z" fill="url(#paint9_linear_1782_3011)"/>
<path fill-rule="evenodd" clip-rule="evenodd" d="M79.0625 73.4974H0.937504C0.419847 73.4974 0 73.0776 0 72.5599C0 72.0423 0.419846 71.6224 0.937504 71.6224H79.0625C79.5802 71.6224 80 72.0423 80 72.5599C80 73.0776 79.5802 73.4974 79.0625 73.4974Z" fill="url(#paint10_linear_1782_3011)"/>
<path fill-rule="evenodd" clip-rule="evenodd" d="M66.6122 56.0434H13.3906C12.873 56.0434 12.4531 55.6236 12.4531 55.1059V49.7765C12.4531 49.2862 12.8311 48.8785 13.3203 48.8418L17.8342 48.5019C18.0588 47.2322 18.3934 45.9819 18.8329 44.769L15.0947 42.2184C14.6897 41.9419 14.566 41.4001 14.8113 40.9753L17.4763 36.3592C17.7216 35.9345 18.2527 35.7706 18.6945 35.9829L22.7773 37.947C23.6076 36.9615 24.522 36.0471 25.5075 35.2174L23.5432 31.1342C23.3306 30.6921 23.4944 30.1611 23.9193 29.9158L28.5354 27.251C28.96 27.0057 29.502 27.1294 29.7785 27.5344L32.3291 31.2728C33.5414 30.8336 34.7914 30.4994 36.0614 30.2748L36.4012 25.76C36.4379 25.271 36.8456 24.8928 37.3361 24.8928H42.666C43.1564 24.8928 43.5641 25.2708 43.6008 25.7598L43.9429 30.2955C45.2754 30.5933 47.1677 31.2367 49.6887 32.2483C50.169 32.4412 50.4023 32.9873 50.2094 33.4677C50.0164 33.948 49.4705 34.1813 48.9903 33.9885C46.1348 32.8428 44.0959 32.1777 42.9303 32.0121C42.4946 31.9503 42.1602 31.5934 42.1271 31.1545L41.7964 26.7678L38.2053 26.768L37.8752 31.1543C37.8421 31.5934 37.5079 31.9503 37.0722 32.0121C35.4445 32.2434 33.8459 32.6708 32.3206 33.2826C31.9124 33.4461 31.4451 33.3041 31.1973 32.9408L28.7196 29.3096L25.6095 31.1049L27.5176 35.0708C27.7082 35.467 27.5979 35.9424 27.2522 36.2143C25.9606 37.23 24.7902 38.4001 23.7737 39.6921C23.5016 40.0376 23.0264 40.1477 22.6304 39.9571L18.665 38.0494L16.8695 41.1594L20.5007 43.6368C20.8641 43.8848 21.0062 44.3521 20.8423 44.7603C20.2302 46.2865 19.8024 47.8855 19.5711 49.5124C19.5091 49.9483 19.1522 50.2824 18.7132 50.3154L14.3279 50.6457V54.1678H65.6746V50.6448L61.2893 50.3147C60.8503 50.2814 60.4934 49.9474 60.4315 49.5117C60.1998 47.8821 59.7722 46.2834 59.1604 44.76C58.9963 44.3517 59.1384 43.8843 59.502 43.6364L63.1328 41.1592L61.3375 38.0492L57.3708 39.9571C56.9752 40.1477 56.4996 40.0374 56.2279 39.6921C55.4469 38.7 54.5705 37.7741 53.6221 36.9405C53.2333 36.5985 53.1952 36.0063 53.5372 35.6173C53.879 35.2286 54.4714 35.1906 54.8602 35.5324C55.7051 36.2752 56.4979 37.0852 57.2243 37.947L61.3083 35.9825C61.7502 35.7701 62.2815 35.934 62.5267 36.3586L65.1916 40.9745C65.4367 41.3993 65.313 41.9414 64.9081 42.2176L61.1705 44.7679C61.6095 45.9793 61.9441 47.2294 62.1691 48.5004L66.6827 48.8403C67.172 48.8772 67.5499 49.2849 67.5499 49.7752V55.1052C67.5496 55.6236 67.1299 56.0434 66.6122 56.0434Z" fill="url(#paint11_linear_1782_3011)"/>
</g>
<defs>
<linearGradient id="paint0_linear_1782_3011" x1="40.0015" y1="54.1686" x2="40.0015" y2="73.4974" gradientUnits="userSpaceOnUse">
<stop stop-color="#9747FF"/>
<stop offset="1" stop-color="#4B9ADB"/>
</linearGradient>
<linearGradient id="paint1_linear_1782_3011" x1="13.5846" y1="59.3772" x2="13.5846" y2="68.2886" gradientUnits="userSpaceOnUse">
<stop stop-color="#9747FF"/>
<stop offset="1" stop-color="#4B9ADB"/>
</linearGradient>
<linearGradient id="paint2_linear_1782_3011" x1="25.4128" y1="59.3772" x2="25.4128" y2="68.2886" gradientUnits="userSpaceOnUse">
<stop stop-color="#9747FF"/>
<stop offset="1" stop-color="#4B9ADB"/>
</linearGradient>
<linearGradient id="paint3_linear_1782_3011" x1="37.237" y1="59.3772" x2="37.237" y2="68.2886" gradientUnits="userSpaceOnUse">
<stop stop-color="#9747FF"/>
<stop offset="1" stop-color="#4B9ADB"/>
</linearGradient>
<linearGradient id="paint4_linear_1782_3011" x1="39.996" y1="37.1974" x2="39.996" y2="56.0436" gradientUnits="userSpaceOnUse">
<stop stop-color="#9747FF"/>
<stop offset="1" stop-color="#4B9ADB"/>
</linearGradient>
<linearGradient id="paint5_linear_1782_3011" x1="39.9965" y1="45.3375" x2="39.9965" y2="56.0436" gradientUnits="userSpaceOnUse">
<stop stop-color="#9747FF"/>
<stop offset="1" stop-color="#4B9ADB"/>
</linearGradient>
<linearGradient id="paint6_linear_1782_3011" x1="52.6856" y1="23.2411" x2="52.6856" y2="43.013" gradientUnits="userSpaceOnUse">
<stop stop-color="#9747FF"/>
<stop offset="1" stop-color="#4B9ADB"/>
</linearGradient>
<linearGradient id="paint7_linear_1782_3011" x1="61.9288" y1="6.50269" x2="61.9288" y2="26.9521" gradientUnits="userSpaceOnUse">
<stop stop-color="#9747FF"/>
<stop offset="1" stop-color="#4B9ADB"/>
</linearGradient>
<linearGradient id="paint8_linear_1782_3011" x1="57.7851" y1="20.0228" x2="57.7851" y2="28.5616" gradientUnits="userSpaceOnUse">
<stop stop-color="#9747FF"/>
<stop offset="1" stop-color="#4B9ADB"/>
</linearGradient>
<linearGradient id="paint9_linear_1782_3011" x1="60.0209" y1="59.3772" x2="60.0209" y2="68.2886" gradientUnits="userSpaceOnUse">
<stop stop-color="#9747FF"/>
<stop offset="1" stop-color="#4B9ADB"/>
</linearGradient>
<linearGradient id="paint10_linear_1782_3011" x1="40" y1="71.6224" x2="40" y2="73.4974" gradientUnits="userSpaceOnUse">
<stop stop-color="#9747FF"/>
<stop offset="1" stop-color="#4B9ADB"/>
</linearGradient>
<linearGradient id="paint11_linear_1782_3011" x1="40.0015" y1="24.8928" x2="40.0015" y2="56.0434" gradientUnits="userSpaceOnUse">
<stop stop-color="#9747FF"/>
<stop offset="1" stop-color="#4B9ADB"/>
</linearGradient>
<clipPath id="clip0_1782_3011">
<rect width="80" height="80" fill="white"/>
</clipPath>
</defs>
</svg>
