<svg width="80" height="80" viewBox="0 0 80 80" fill="none" xmlns="http://www.w3.org/2000/svg">
<path d="M42.3439 7.46997C41.1394 7.46997 39.962 7.82714 38.9605 8.49632C37.959 9.1655 37.1784 10.1166 36.7175 11.2294C36.2565 12.3422 36.1359 13.5667 36.3709 14.7481C36.6059 15.9294 37.1859 17.0145 38.0376 17.8663C38.8893 18.718 39.9745 19.298 41.1558 19.533C42.3372 19.7679 43.5616 19.6473 44.6744 19.1864C45.7873 18.7255 46.7384 17.9449 47.4076 16.9434C48.0767 15.9419 48.4339 14.7645 48.4339 13.56C48.4323 11.9453 47.7901 10.3973 46.6484 9.25552C45.5066 8.11378 43.9586 7.47163 42.3439 7.46997ZM42.3439 17.1487C41.6338 17.1487 40.9397 16.9381 40.3493 16.5436C39.7589 16.1491 39.2987 15.5883 39.0271 14.9323C38.7554 14.2762 38.6844 13.5543 38.823 12.8579C38.9616 12.1615 39.3036 11.5218 39.8058 11.0198C40.308 10.5177 40.9478 10.1759 41.6443 10.0375C42.3408 9.89917 43.0626 9.97044 43.7186 10.2424C44.3746 10.5143 44.9352 10.9746 45.3295 11.5651C45.7238 12.1557 45.9342 12.8499 45.9339 13.56C45.9326 14.5116 45.5539 15.4238 44.8809 16.0966C44.2079 16.7694 43.2955 17.1477 42.3439 17.1487Z" fill="#393939"/>
<path d="M50.2928 49.9375H48.4328V46.7425C50.6307 45.7284 52.4928 44.107 53.7995 42.0694C55.1062 40.0318 55.8031 37.6631 55.8078 35.2425V31.1925H57.6828C58.8724 31.1727 60.0065 30.6863 60.8408 29.8381C61.675 28.9899 62.1425 27.8478 62.1425 26.6581C62.1425 25.4684 61.675 24.3263 60.8408 23.4781C60.0065 22.6299 58.8724 22.1435 57.6828 22.1237H57.5503V17.7075C57.5503 13.6742 55.9481 9.80613 53.0961 6.95417C50.2442 4.10221 46.3761 2.5 42.3428 2.5C38.3095 2.5 34.4414 4.10221 31.5895 6.95417C28.7375 9.80613 27.1353 13.6742 27.1353 17.7075V22.1175H26.9991C25.8095 22.1373 24.6754 22.6237 23.8411 23.4719C23.0069 24.3201 22.5394 25.4622 22.5394 26.6519C22.5393 27.8416 23.0069 28.9837 23.8411 29.8319C24.6754 30.6801 25.8095 31.1665 26.9991 31.1862H28.8741V35.2362C28.8788 37.6568 29.5756 40.0256 30.8823 42.0631C32.189 44.1007 34.0511 45.7222 36.2491 46.7363V49.9375H34.3928C33.7841 49.9375 33.1778 49.9688 32.5766 50.0175C32.5384 49.3502 32.2471 48.7226 31.7621 48.2627C31.2771 47.8028 30.6349 47.5452 29.9666 47.5425H29.2266C29.2012 47.5432 29.1762 47.5361 29.155 47.5223C29.1337 47.5084 29.1172 47.4885 29.1076 47.465C29.0979 47.4415 29.0957 47.4157 29.1011 47.3909C29.1065 47.3661 29.1193 47.3436 29.1378 47.3262L29.6591 46.8025C29.903 46.5587 30.0966 46.2693 30.2286 45.9506C30.3607 45.632 30.4286 45.2905 30.4286 44.9456C30.4286 44.6007 30.3607 44.2592 30.2286 43.9406C30.0966 43.622 29.903 43.3325 29.6591 43.0888L28.2128 41.6425C27.7194 41.1512 27.0516 40.8754 26.3553 40.8754C25.6591 40.8754 24.9912 41.1512 24.4978 41.6425L23.9753 42.1663C23.9589 42.1857 23.9365 42.1992 23.9115 42.2044C23.8866 42.2096 23.8606 42.2063 23.8378 42.195C23.813 42.1873 23.7916 42.1713 23.7772 42.1497C23.7629 42.128 23.7565 42.1021 23.7591 42.0762V41.3363C23.7591 40.6401 23.4825 39.9724 22.9902 39.4801C22.4979 38.9878 21.8303 38.7113 21.1341 38.7113H19.0891C18.3929 38.7113 17.7252 38.9878 17.2329 39.4801C16.7406 39.9724 16.4641 40.6401 16.4641 41.3363V42.0762C16.4671 42.102 16.4608 42.128 16.4464 42.1496C16.432 42.1711 16.4103 42.1868 16.3853 42.1938C16.3631 42.2072 16.3367 42.2118 16.3112 42.2067C16.2858 42.2017 16.2631 42.1872 16.2478 42.1663L15.7241 41.6425C15.2307 41.1512 14.5628 40.8754 13.8666 40.8754C13.1703 40.8754 12.5024 41.1512 12.0091 41.6425L10.5628 43.0888C10.3188 43.3325 10.1253 43.622 9.99326 43.9406C9.86121 44.2592 9.79325 44.6007 9.79325 44.9456C9.79325 45.2905 9.86121 45.632 9.99326 45.9506C10.1253 46.2693 10.3188 46.5587 10.5628 46.8025L11.0866 47.3262C11.1052 47.3436 11.118 47.3663 11.1234 47.3912C11.1288 47.4161 11.1264 47.4421 11.1166 47.4656C11.1068 47.4891 11.0901 47.5091 11.0686 47.5229C11.0472 47.5366 11.022 47.5434 10.9966 47.5425H10.2578C9.56162 47.5425 8.89394 47.8191 8.40166 48.3113C7.90937 48.8036 7.63281 49.4713 7.63281 50.1675V52.2113C7.63281 52.9074 7.90937 53.5751 8.40166 54.0674C8.89394 54.5597 9.56162 54.8363 10.2578 54.8363H10.9991C11.0248 54.8335 11.0507 54.8398 11.0721 54.8542C11.0936 54.8686 11.1094 54.8902 11.1166 54.915C11.1289 54.9375 11.133 54.9636 11.1279 54.9888C11.1229 55.0139 11.1091 55.0365 11.0891 55.0525L10.5666 55.5762C10.3224 55.8201 10.1287 56.1096 9.99655 56.4283C9.8644 56.7471 9.79637 57.0887 9.79637 57.4337C9.79637 57.7788 9.8644 58.1204 9.99655 58.4392C10.1287 58.7579 10.3224 59.0474 10.5666 59.2912L12.0116 60.7363C12.4246 61.1464 12.9622 61.4077 13.5398 61.4789C14.1175 61.5502 14.7025 61.4275 15.2028 61.13C13.3095 64.4414 12.3157 68.1906 12.3203 72.005V76.25C12.3203 76.5815 12.452 76.8995 12.6864 77.1339C12.9208 77.3683 13.2388 77.5 13.5703 77.5H71.1241C71.4556 77.5 71.7735 77.3683 72.0079 77.1339C72.2424 76.8995 72.3741 76.5815 72.3741 76.25V72.0125C72.3674 66.1588 70.0387 60.5468 65.8989 56.4082C61.7591 52.2696 56.1465 49.9425 50.2928 49.9375ZM29.6366 17.7075C29.6366 14.3373 30.9754 11.1051 33.3585 8.72194C35.7416 6.33882 38.9738 5 42.3441 5C45.7143 5 48.9465 6.33882 51.3296 8.72194C53.7127 11.1051 55.0516 14.3373 55.0516 17.7075V22.1175H29.6366V17.7075ZM24.9703 26.6512C24.971 26.1129 25.1848 25.5968 25.5649 25.2157C25.9451 24.8345 26.4607 24.6195 26.9991 24.6175H57.6841C58.2149 24.6307 58.7195 24.8508 59.0903 25.2309C59.4611 25.6109 59.6686 26.1209 59.6686 26.6519C59.6686 27.1829 59.4611 27.6928 59.0903 28.0729C58.7195 28.453 58.2149 28.6731 57.6841 28.6862H26.9991C26.4605 28.6843 25.9447 28.469 25.5645 28.0876C25.1843 27.7063 24.9706 27.1898 24.9703 26.6512ZM31.3741 35.2362V31.1862H53.3078V35.2362C53.3038 37.2956 52.6763 39.3055 51.5077 41.0013C50.3392 42.6971 48.6845 43.9992 46.7616 44.7363C46.7276 44.7465 46.6942 44.7586 46.6616 44.7725C45.5297 45.198 44.3308 45.4173 43.1216 45.42H41.5666C40.3556 45.4175 39.1549 45.1978 38.0216 44.7713C37.9916 44.7563 37.9603 44.7488 37.9291 44.7363C36.0043 44.0008 34.3477 42.6993 33.1775 41.0033C32.0073 39.3074 31.3785 37.2967 31.3741 35.2362ZM41.5616 47.9238H43.1241C44.0704 47.9211 45.0134 47.8121 45.9353 47.5987V51.175V51.1875V51.2V53.7812C45.9353 54.7334 45.5571 55.6465 44.8838 56.3198C44.2106 56.993 43.2974 57.3713 42.3453 57.3713C41.3932 57.3713 40.4801 56.993 39.8068 56.3198C39.1335 55.6465 38.7553 54.7334 38.7553 53.7812V51.2V51.1875V51.175V47.5987C39.6773 47.8119 40.6203 47.9209 41.5666 47.9238H41.5616ZM13.9566 58.9725C13.9449 58.9848 13.9308 58.9946 13.9152 59.0013C13.8997 59.008 13.8829 59.0114 13.8659 59.0114C13.849 59.0114 13.8322 59.008 13.8166 59.0013C13.801 58.9946 13.787 58.9848 13.7753 58.9725L12.3316 57.5262V57.3475L12.8541 56.8237C13.222 56.4568 13.4728 55.989 13.5746 55.4795C13.6764 54.9699 13.6248 54.4416 13.4261 53.9615C13.2275 53.4813 12.8908 53.071 12.4587 52.7823C12.0267 52.4936 11.5187 52.3397 10.9991 52.34H10.2578C10.2414 52.34 10.2251 52.3368 10.21 52.3305C10.1948 52.3242 10.181 52.315 10.1694 52.3034C10.1578 52.2918 10.1486 52.278 10.1423 52.2628C10.136 52.2477 10.1328 52.2314 10.1328 52.215V50.17C10.1328 50.1368 10.146 50.1051 10.1694 50.0816C10.1929 50.0582 10.2247 50.045 10.2578 50.045H10.9991C11.519 50.046 12.0275 49.8926 12.4602 49.6043C12.8928 49.3159 13.23 48.9055 13.4292 48.4253C13.6283 47.945 13.6803 47.4163 13.5785 46.9065C13.4768 46.3966 13.226 45.9284 12.8578 45.5613L12.3328 45.0375C12.3128 45.012 12.302 44.9805 12.302 44.9481C12.302 44.9157 12.3128 44.8843 12.3328 44.8587L13.7766 43.4137C13.7882 43.4016 13.8022 43.392 13.8177 43.3855C13.8331 43.3789 13.8498 43.3755 13.8666 43.3755C13.8834 43.3755 13.9 43.3789 13.9155 43.3855C13.9309 43.392 13.9449 43.4016 13.9566 43.4137L14.4803 43.9375C14.8474 44.3057 15.3156 44.5565 15.8255 44.6582C16.3354 44.7599 16.864 44.708 17.3443 44.5088C17.8246 44.3097 18.235 43.9725 18.5233 43.5398C18.8117 43.1072 18.9651 42.5987 18.9641 42.0787V41.3387C18.9641 41.3056 18.9772 41.2738 19.0007 41.2504C19.0241 41.2269 19.0559 41.2138 19.0891 41.2138H21.1328C21.166 41.2138 21.1978 41.2269 21.2212 41.2504C21.2446 41.2738 21.2578 41.3056 21.2578 41.3387V42.0787C21.256 42.5999 21.4094 43.1098 21.6984 43.5435C21.9874 43.9772 22.399 44.315 22.8807 44.514C23.3624 44.7129 23.8924 44.764 24.4032 44.6606C24.9141 44.5573 25.3826 44.3043 25.7491 43.9338L26.2703 43.4113C26.282 43.3992 26.296 43.3895 26.3114 43.383C26.3269 43.3764 26.3435 43.373 26.3603 43.373C26.3771 43.373 26.3937 43.3764 26.4092 43.383C26.4247 43.3895 26.4387 43.3992 26.4503 43.4113L27.8953 44.8562C27.9161 44.8814 27.9276 44.913 27.9276 44.9456C27.9276 44.9783 27.9161 45.0099 27.8953 45.035L27.3728 45.5587C27.0047 45.9258 26.7539 46.3939 26.6522 46.9037C26.5504 47.4134 26.6023 47.9419 26.8012 48.4222C27.0002 48.9024 27.3372 49.3128 27.7697 49.6012C28.2021 49.8897 28.7105 50.0433 29.2303 50.0425H29.9703C30.0035 50.0425 30.0353 50.0557 30.0587 50.0791C30.0821 50.1026 30.0953 50.1343 30.0953 50.1675V52.2113C30.0953 52.2444 30.0821 52.2762 30.0587 52.2996C30.0353 52.3231 30.0035 52.3363 29.9703 52.3363H29.2303C28.7098 52.335 28.2007 52.4884 27.7676 52.7772C27.3346 53.0659 26.9971 53.4769 26.7982 53.9579C26.5992 54.4388 26.5477 54.9681 26.6503 55.4784C26.7528 55.9887 27.0048 56.457 27.3741 56.8237L27.8966 57.3475V57.5262L26.4528 58.9725C26.4412 58.9846 26.4272 58.9942 26.4117 59.0008C26.3962 59.0074 26.3796 59.0108 26.3628 59.0108C26.346 59.0108 26.3294 59.0074 26.3139 59.0008C26.2985 58.9942 26.2845 58.9846 26.2728 58.9725L25.7491 58.4487C25.382 58.0807 24.9139 57.8298 24.4042 57.7281C23.8944 57.6263 23.3659 57.6782 22.8856 57.8772C22.4054 58.0761 21.995 58.4132 21.7066 58.8456C21.4181 59.2781 21.2645 59.7864 21.2653 60.3062V61.0463C21.2653 61.0627 21.2621 61.0789 21.2558 61.0941C21.2495 61.1092 21.2403 61.123 21.2287 61.1346C21.2171 61.1462 21.2033 61.1555 21.1881 61.1617C21.173 61.168 21.1567 61.1712 21.1403 61.1712H19.0891C19.0726 61.1712 19.0564 61.168 19.0412 61.1617C19.0261 61.1555 19.0123 61.1462 19.0007 61.1346C18.9891 61.123 18.9799 61.1092 18.9736 61.0941C18.9673 61.0789 18.9641 61.0627 18.9641 61.0463V60.3062C18.9593 59.9982 18.8996 59.6934 18.7878 59.4062C18.7494 59.2537 18.6814 59.1102 18.5878 58.9837C18.3054 58.4895 17.8684 58.1017 17.3441 57.88C16.8639 57.6804 16.3352 57.6278 15.8252 57.7291C15.3151 57.8303 14.8466 58.0808 14.4791 58.4487L13.9566 58.9725ZM14.8178 72.0125C14.8123 68.7922 15.6092 65.6213 17.1366 62.7863C17.3807 63.0638 17.681 63.2864 18.0176 63.4391C18.3542 63.5919 18.7194 63.6715 19.0891 63.6725H21.1328C21.829 63.6725 22.4967 63.3959 22.989 62.9037C23.4812 62.4114 23.7578 61.7437 23.7578 61.0475V60.3075C23.7569 60.282 23.7637 60.2569 23.7775 60.2354C23.7912 60.214 23.8112 60.1972 23.8347 60.1874C23.8582 60.1776 23.8842 60.1753 23.9091 60.1806C23.934 60.186 23.9567 60.1989 23.9741 60.2175L24.4978 60.7412C24.991 61.2324 25.6586 61.5082 26.3547 61.5082C27.0507 61.5082 27.7184 61.2324 28.2116 60.7412L29.6566 59.2962C29.9007 59.0524 30.0944 58.7629 30.2266 58.4442C30.3587 58.1254 30.4268 57.7838 30.4268 57.4388C30.4268 57.0937 30.3587 56.7521 30.2266 56.4333C30.0944 56.1146 29.9007 55.8251 29.6566 55.5812L29.1328 55.0575C29.1142 55.0401 29.1013 55.0174 29.096 54.9925C29.0906 54.9676 29.093 54.9417 29.1027 54.9181C29.1125 54.8946 29.1293 54.8746 29.1507 54.8609C29.1722 54.8472 29.1973 54.8403 29.2228 54.8413H29.9628C30.6018 54.8384 31.2177 54.6025 31.6952 54.178C32.1727 53.7534 32.479 53.1692 32.5566 52.535C33.1616 52.4775 33.7728 52.4388 34.3891 52.4388H36.2491V53.7825C36.2511 55.1799 36.7329 56.5342 37.6139 57.6189C38.4949 58.7036 39.7217 59.4528 41.0891 59.7412V75H14.8178V72.0125ZM69.8741 75H43.5928V59.74C44.9601 59.4516 46.1869 58.7024 47.068 57.6177C47.949 56.533 48.4308 55.1787 48.4328 53.7812V52.4375H50.2928C55.4837 52.4418 60.4608 54.5053 64.1319 58.1753C67.803 61.8452 69.8681 66.8216 69.8741 72.0125V75Z" fill="#393939"/>
<path d="M49.1133 63.875C48.7818 63.875 48.4638 64.0067 48.2294 64.2411C47.995 64.4755 47.8633 64.7935 47.8633 65.125V71.7375C47.8633 72.069 47.995 72.387 48.2294 72.6214C48.4638 72.8558 48.7818 72.9875 49.1133 72.9875H63.672C64.0036 72.9875 64.3215 72.8558 64.5559 72.6214C64.7903 72.387 64.922 72.069 64.922 71.7375V65.125C64.922 64.7935 64.7903 64.4755 64.5559 64.2411C64.3215 64.0067 64.0036 63.875 63.672 63.875H49.1133ZM62.422 70.4875H50.3633V66.375H62.422V70.4875Z" fill="#393939"/>
<path d="M26.433 51.1913C26.433 49.9414 26.0623 48.7195 25.3679 47.6801C24.6734 46.6408 23.6864 45.8308 22.5315 45.3524C21.3767 44.8741 20.106 44.7489 18.88 44.9928C17.654 45.2366 16.5279 45.8386 15.6441 46.7224C14.7602 47.6063 14.1583 48.7324 13.9144 49.9584C13.6705 51.1843 13.7957 52.4551 14.2741 53.6099C14.7524 54.7647 15.5624 55.7518 16.6018 56.4462C17.6411 57.1407 18.863 57.5113 20.113 57.5113C21.7885 57.5094 23.3949 56.8429 24.5797 55.6581C25.7645 54.4733 26.431 52.8669 26.433 51.1913ZM16.293 51.1913C16.293 50.4358 16.517 49.6973 16.9368 49.0691C17.3565 48.4409 17.9531 47.9512 18.6511 47.6621C19.3491 47.373 20.1172 47.2973 20.8582 47.4447C21.5992 47.5921 22.2799 47.956 22.8141 48.4902C23.3484 49.0244 23.7122 49.7051 23.8596 50.4461C24.007 51.1871 23.9313 51.9552 23.6422 52.6532C23.3531 53.3512 22.8634 53.9478 22.2353 54.3676C21.6071 54.7873 20.8685 55.0113 20.113 55.0113C19.1003 55.01 18.1294 54.6071 17.4133 53.891C16.6972 53.1749 16.2943 52.2041 16.293 51.1913Z" fill="#393939"/>
</svg>
