<svg width="80" height="80" viewBox="0 0 80 80" fill="none" xmlns="http://www.w3.org/2000/svg">
<path d="M9.33761 50.5376C9.18238 50.5994 9.04185 50.6931 8.92511 50.8126C8.75371 50.9896 8.6367 51.2121 8.58795 51.4536C8.53921 51.6951 8.56078 51.9455 8.65011 52.1751C8.71806 52.327 8.81102 52.4665 8.92511 52.5876C9.16207 52.82 9.48072 52.9502 9.81261 52.9502C10.1445 52.9502 10.4632 52.82 10.7001 52.5876C10.8104 52.466 10.8992 52.3265 10.9626 52.1751C11.0267 52.0248 11.0606 51.8635 11.0626 51.7001C11.0636 51.4943 11.0139 51.2915 10.9177 51.1096C10.8215 50.9276 10.6818 50.7723 10.5112 50.6573C10.3405 50.5423 10.1441 50.4712 9.9394 50.4503C9.73468 50.4294 9.52796 50.4594 9.33761 50.5376Z" fill="#393939"/>
<path d="M15.0743 50.6624C15.008 50.6135 14.9368 50.5716 14.8618 50.5374C14.7843 50.5108 14.7049 50.4899 14.6243 50.4749C14.464 50.4374 14.2972 50.4374 14.1368 50.4749C14.0562 50.4899 13.9769 50.5108 13.8993 50.5374C13.8244 50.5716 13.7531 50.6135 13.6868 50.6624C13.6162 50.7014 13.5528 50.7521 13.4993 50.8124C13.3279 50.9894 13.2109 51.2119 13.1622 51.4534C13.1134 51.6949 13.135 51.9453 13.2243 52.1749C13.2923 52.3268 13.3852 52.4663 13.4993 52.5874C13.5493 52.6374 13.6243 52.6874 13.6868 52.7374C13.7506 52.787 13.8225 52.825 13.8993 52.8499C13.9745 52.8861 14.0545 52.9114 14.1368 52.9249C14.2976 52.9583 14.4635 52.9583 14.6243 52.9249C14.7067 52.9114 14.7866 52.8861 14.8618 52.8499C14.9387 52.825 15.0106 52.787 15.0743 52.7374C15.1368 52.6874 15.2118 52.6374 15.2618 52.5874C15.3759 52.4663 15.4689 52.3268 15.5368 52.1749C15.6262 51.9453 15.6477 51.6949 15.599 51.4534C15.5502 51.2119 15.4332 50.9894 15.2618 50.8124C15.2083 50.7521 15.1449 50.7014 15.0743 50.6624Z" fill="#393939"/>
<path d="M18.4742 50.5375C18.3223 50.6054 18.1829 50.6984 18.0617 50.8125C17.8315 51.0508 17.7017 51.3686 17.6992 51.7C17.7012 51.8633 17.7352 52.0247 17.7992 52.175C17.8626 52.3264 17.9514 52.4659 18.0617 52.5875C18.2987 52.8199 18.6173 52.9501 18.9492 52.9501C19.2811 52.9501 19.5998 52.8199 19.8367 52.5875C19.9508 52.4663 20.0438 52.3269 20.1117 52.175C20.2011 51.9454 20.2226 51.6949 20.1739 51.4534C20.1251 51.2119 20.0081 50.9895 19.8367 50.8125C19.6605 50.6399 19.438 50.522 19.1962 50.4732C18.9544 50.4244 18.7036 50.4467 18.4742 50.5375Z" fill="#393939"/>
<path d="M62.1953 50.4463H54.1641C53.8325 50.4463 53.5146 50.578 53.2802 50.8124C53.0458 51.0468 52.9141 51.3648 52.9141 51.6963C52.9141 52.0278 53.0458 52.3458 53.2802 52.5802C53.5146 52.8146 53.8325 52.9463 54.1641 52.9463H62.1953C62.5268 52.9463 62.8448 52.8146 63.0792 52.5802C63.3136 52.3458 63.4453 52.0278 63.4453 51.6963C63.4453 51.3648 63.3136 51.0468 63.0792 50.8124C62.8448 50.578 62.5268 50.4463 62.1953 50.4463Z" fill="#393939"/>
<path d="M48.4037 25.6699H40.5163V17.9612C40.5163 17.6297 40.3846 17.3117 40.1501 17.0773C39.9157 16.8429 39.5978 16.7112 39.2663 16.7112H23.5625C23.231 16.7112 22.913 16.8429 22.6786 17.0773C22.4442 17.3117 22.3125 17.6297 22.3125 17.9612V33.6849C22.3125 34.0165 22.4442 34.3344 22.6786 34.5688C22.913 34.8032 23.231 34.9349 23.5625 34.9349H31.445V42.6249C31.445 42.9565 31.5767 43.2744 31.8111 43.5088C32.0455 43.7432 32.3635 43.8749 32.695 43.8749H48.4037C48.7353 43.8749 49.0532 43.7432 49.2876 43.5088C49.5221 43.2744 49.6537 42.9565 49.6537 42.6249V26.9199C49.6537 26.5884 49.5221 26.2705 49.2876 26.036C49.0532 25.8016 48.7353 25.6699 48.4037 25.6699ZM24.8125 32.4349V19.2112H38.0162V25.6699H32.695C32.3635 25.6699 32.0455 25.8016 31.8111 26.036C31.5767 26.2705 31.445 26.5884 31.445 26.9199V32.4349H24.8125ZM47.1537 41.3749H33.945V33.6999V33.6849V33.6699V28.1699H39.2325C39.245 28.1699 39.255 28.1774 39.2663 28.1774C39.2775 28.1774 39.2875 28.1699 39.3 28.1699H47.1537V41.3749Z" fill="#393939"/>
<path d="M66.3538 8.94385C65.1848 8.94448 64.0234 9.1301 62.9125 9.49385H8.04125C6.57224 9.49518 5.16376 10.0792 4.1249 11.1179C3.08603 12.1565 2.50165 13.5648 2.5 15.0339V51.1701C2.50165 52.6391 3.08603 54.0475 4.1249 55.0861C5.16376 56.1247 6.57224 56.7088 8.04125 56.7101H29.5413V61.7101H16.2913C16.1045 61.71 15.9201 61.7516 15.7516 61.8321C15.5831 61.9126 15.4348 62.0298 15.3175 62.1751L9.805 69.0151C9.6568 69.1988 9.56361 69.4206 9.53622 69.655C9.50882 69.8894 9.54834 70.1268 9.65021 70.3396C9.75207 70.5525 9.91211 70.7322 10.1118 70.8579C10.3115 70.9837 10.5428 71.0503 10.7788 71.0501H61.2C61.436 71.0503 61.6672 70.9837 61.8669 70.8579C62.0666 70.7322 62.2267 70.5525 62.3286 70.3396C62.4304 70.1268 62.4699 69.8894 62.4425 69.655C62.4151 69.4206 62.322 69.1988 62.1738 69.0151L56.6613 62.1751C56.544 62.0298 56.3956 61.9126 56.2271 61.8321C56.0586 61.7516 55.8742 61.71 55.6875 61.7101H42.4375V56.7101H63.9375C65.4064 56.7085 66.8147 56.1243 67.8535 55.0857C68.8923 54.0472 69.4768 52.639 69.4788 51.1701V30.7851C72.0557 30.0353 74.2754 28.3805 75.7298 26.125C77.1843 23.8696 77.7759 21.1649 77.3957 18.5082C77.0156 15.8514 75.6894 13.4212 73.6608 11.664C71.6322 9.90692 69.0375 8.94101 66.3538 8.94385ZM58.5875 68.5564H13.3813L16.8813 64.2164H55.0888L58.5875 68.5564ZM32.035 61.7164V56.7164H39.9338V61.7164H32.035ZM63.9275 54.2164H8.04125C7.64154 54.216 7.24581 54.137 6.87665 53.9837C6.50749 53.8304 6.17213 53.606 5.88973 53.3231C5.60732 53.0402 5.38339 52.7045 5.23074 52.3351C5.07808 51.9657 4.99967 51.5698 5 51.1701V48.6964H66.9688V51.1701C66.9674 51.9762 66.6466 52.7488 66.0765 53.3187C65.5064 53.8885 64.7336 54.2091 63.9275 54.2101V54.2164ZM66.9688 46.2026H5V15.0339C5.00265 14.2288 5.32415 13.4575 5.89414 12.8889C6.46412 12.3204 7.23616 12.0008 8.04125 12.0001H58.7163C57.0864 13.5275 55.9541 15.5101 55.4667 17.6899C54.9793 19.8697 55.1593 22.1457 55.9833 24.2218C56.8073 26.2979 58.2372 28.0778 60.0868 29.33C61.9364 30.5822 64.1201 31.2487 66.3538 31.2426C66.5613 31.2426 66.7638 31.2226 66.9688 31.2114V46.2026ZM66.3538 28.7426C64.644 28.7426 62.9725 28.2357 61.5508 27.2859C60.1291 26.3361 59.0209 24.9861 58.3663 23.4066C57.7117 21.827 57.5401 20.0889 57.8732 18.4118C58.2063 16.7348 59.0292 15.1942 60.2377 13.9847C61.4463 12.7753 62.9863 11.9513 64.6631 11.617C66.3399 11.2827 68.0782 11.453 69.6582 12.1065C71.2382 12.7599 72.589 13.8672 73.5398 15.2882C74.4906 16.7093 74.9988 18.3803 75 20.0901C74.9974 22.3824 74.0856 24.5801 72.4647 26.201C70.8437 27.8219 68.6461 28.7337 66.3538 28.7364V28.7426Z" fill="#393939"/>
<path d="M68.868 16.8675L65.073 20.6625L63.8405 19.43C63.7252 19.3106 63.5873 19.2154 63.4348 19.1499C63.2823 19.0844 63.1182 19.0499 62.9523 19.0484C62.7863 19.047 62.6217 19.0786 62.4681 19.1415C62.3145 19.2043 62.1749 19.2971 62.0575 19.4145C61.9402 19.5319 61.8473 19.6714 61.7845 19.8251C61.7216 19.9787 61.69 20.1433 61.6915 20.3092C61.6929 20.4752 61.7274 20.6392 61.7929 20.7917C61.8584 20.9443 61.9536 21.0822 62.073 21.1975L64.1893 23.3137C64.4237 23.5481 64.7416 23.6797 65.073 23.6797C65.4045 23.6797 65.7224 23.5481 65.9568 23.3137L70.6355 18.635C70.8632 18.3992 70.9892 18.0835 70.9864 17.7557C70.9835 17.428 70.8521 17.1145 70.6203 16.8827C70.3885 16.651 70.075 16.5195 69.7473 16.5166C69.4195 16.5138 69.1038 16.6398 68.868 16.8675Z" fill="#393939"/>
</svg>
