<svg width="80" height="80" viewBox="0 0 80 80" fill="none" xmlns="http://www.w3.org/2000/svg">
<path d="M33.2844 46.6703C33.2844 47.188 32.8645 47.6078 32.3469 47.6078H19.808C19.2903 47.6078 18.8705 47.188 18.8705 46.6703C18.8705 46.1527 19.2903 45.7328 19.808 45.7328H32.3469C32.8645 45.7328 33.2844 46.1527 33.2844 46.6703ZM32.3469 50.842H19.808C19.2903 50.842 18.8705 51.2619 18.8705 51.7795C18.8705 52.2972 19.2903 52.717 19.808 52.717H32.3469C32.8645 52.717 33.2844 52.2972 33.2844 51.7795C33.2844 51.2619 32.8645 50.842 32.3469 50.842ZM32.3469 55.9512H19.808C19.2903 55.9512 18.8705 56.3711 18.8705 56.8887C18.8705 57.4064 19.2903 57.8262 19.808 57.8262H32.3469C32.8645 57.8262 33.2844 57.4064 33.2844 56.8887C33.2844 56.3711 32.8645 55.9512 32.3469 55.9512ZM32.3469 61.0605H19.808C19.2903 61.0605 18.8705 61.4803 18.8705 61.998C18.8705 62.5156 19.2903 62.9355 19.808 62.9355H32.3469C32.8645 62.9355 33.2844 62.5156 33.2844 61.998C33.2844 61.4803 32.8645 61.0605 32.3469 61.0605ZM32.3469 66.1697H19.808C19.2903 66.1697 18.8705 66.5895 18.8705 67.1072C18.8705 67.6248 19.2903 68.0447 19.808 68.0447H32.3469C32.8645 68.0447 33.2844 67.6248 33.2844 67.1072C33.2844 66.5895 32.8645 66.1697 32.3469 66.1697ZM32.3469 71.2789H19.808C19.2903 71.2789 18.8705 71.6986 18.8705 72.2162C18.8705 72.7339 19.2903 73.1537 19.808 73.1537H32.3469C32.8645 73.1537 33.2844 72.7341 33.2844 72.2164C33.2844 71.6987 32.8645 71.2789 32.3469 71.2789ZM16.1752 46.6702V51.7794C16.1752 52.297 15.7553 52.7169 15.2377 52.7169H10.1284C9.61078 52.7169 9.19094 52.297 9.19094 51.7794V46.6702C9.19094 46.1525 9.61078 45.7327 10.1284 45.7327H15.2377C15.7553 45.7327 16.1752 46.1525 16.1752 46.6702ZM14.3002 47.6077H11.0659V50.8419H14.3002V47.6077ZM16.1752 56.8886V61.9978C16.1752 62.5155 15.7553 62.9353 15.2377 62.9353H10.1284C9.61078 62.9353 9.19094 62.5155 9.19094 61.9978V56.8886C9.19094 56.3709 9.61078 55.9511 10.1284 55.9511H15.2377C15.7553 55.9511 16.1752 56.3709 16.1752 56.8886ZM14.3002 57.8261H11.0659V61.0603H14.3002V57.8261ZM16.1752 67.1069V72.2161C16.1752 72.7337 15.7553 73.1536 15.2377 73.1536H10.1284C9.61078 73.1536 9.19094 72.7337 9.19094 72.2161V67.1069C9.19094 66.5892 9.61078 66.1694 10.1284 66.1694H15.2377C15.7553 66.1694 16.1752 66.5892 16.1752 67.1069ZM14.3002 68.0444H11.0659V71.2786H14.3002V68.0444ZM77.8717 58.7191C77.8717 70.1022 68.6109 79.3628 57.228 79.3628H3.06641C2.54875 79.3628 2.12891 78.943 2.12891 78.4253V9.68781C2.12891 9.17016 2.54875 8.75031 3.06641 8.75031H10.3183L10.3244 1.57344C10.3248 1.05594 10.7444 0.636719 11.2619 0.636719H65.4198C65.9375 0.636719 66.3573 1.05656 66.3573 1.57422C66.3573 15.2669 66.3458 28.7477 66.3345 40.1964C73.163 43.5672 77.8717 50.6033 77.8717 58.7195V58.7191ZM12.1933 8.75031H46.0642C46.0956 8.75031 46.1269 8.75187 46.158 8.755C46.1803 8.75719 46.2019 8.76109 46.2237 8.76484C46.232 8.76625 46.2406 8.76703 46.2489 8.76875C46.2747 8.77391 46.2998 8.78063 46.3247 8.78781C46.3289 8.78906 46.3334 8.78984 46.3377 8.79109C46.3631 8.79891 46.388 8.80813 46.4125 8.81797C46.4162 8.81953 46.4202 8.82062 46.4239 8.82203C46.4472 8.83172 46.4698 8.84281 46.4923 8.85437C46.4972 8.85687 46.5022 8.85891 46.5069 8.86141C46.5281 8.87281 46.5484 8.88547 46.5686 8.89828C46.5742 8.90188 46.58 8.90484 46.5855 8.90859C46.6067 8.92281 46.6272 8.93828 46.6472 8.95422C46.6509 8.95734 46.6552 8.95984 46.6589 8.96297C46.6831 8.98281 46.7062 9.00391 46.7284 9.02609L57.8897 20.1875C57.9119 20.2097 57.9328 20.2328 57.9528 20.257C57.9558 20.2606 57.9583 20.2647 57.9613 20.2683C57.9773 20.2884 57.993 20.3091 58.0073 20.3306C58.0106 20.3355 58.0133 20.3405 58.0164 20.3453C58.0298 20.3663 58.0428 20.3873 58.0547 20.4092C58.0569 20.4131 58.0584 20.4173 58.0606 20.4214C58.0727 20.4445 58.0839 20.468 58.0941 20.4922C58.0951 20.495 58.0961 20.4978 58.0972 20.5006C58.1073 20.5261 58.1169 20.5519 58.125 20.5783C58.1259 20.5816 58.1266 20.5848 58.1277 20.5881C58.1352 20.6141 58.142 20.6402 58.1473 20.6669C58.1489 20.6742 58.1495 20.6817 58.1508 20.6892C58.1547 20.7119 58.1587 20.7345 58.1609 20.7577C58.1641 20.7886 58.1656 20.8198 58.1656 20.8512V38.0975C60.3708 38.1966 62.4869 38.6433 64.4605 39.3839C64.4712 28.3759 64.4822 15.5586 64.4827 2.51125H12.1986L12.1933 8.74984V8.75031ZM47.0017 11.9511V19.9141H54.9645L47.0017 11.9511ZM48.6361 77.4883C41.5305 74.2227 36.5841 67.0383 36.5841 58.7195C36.5841 47.6508 45.3408 38.5898 56.2903 38.098V21.7892H46.0642C45.5466 21.7892 45.1267 21.3694 45.1267 20.8517V10.6255H4.00391V77.4884H48.6362L48.6361 77.4883ZM75.9966 58.7195C75.9966 48.3705 67.5769 39.9508 57.2278 39.9508C46.8787 39.9508 38.4591 48.3705 38.4591 58.7195C38.4591 69.0686 46.8787 77.4883 57.2278 77.4883C67.5769 77.4883 75.9966 69.0686 75.9966 58.7195ZM73.6281 58.7195C73.6281 67.7626 66.2709 75.1198 57.2278 75.1198C48.1847 75.1198 40.8275 67.7626 40.8275 58.7195C40.8275 49.6764 48.1847 42.3194 57.2278 42.3194C66.2709 42.3194 73.6281 49.6764 73.6281 58.7195ZM71.7531 58.7195C71.7531 50.7103 65.2372 44.1944 57.2278 44.1944C49.2184 44.1944 42.7025 50.7103 42.7025 58.7195C42.7025 66.7287 49.2184 73.2448 57.2278 73.2448C65.2372 73.2448 71.7531 66.7289 71.7531 58.7195ZM65.0348 57.7827H58.1653V50.913C58.1653 50.3953 57.7455 49.9755 57.2278 49.9755C56.7102 49.9755 56.2903 50.3953 56.2903 50.913V58.7172V58.7202C56.2903 59.2378 56.7102 59.6577 57.2278 59.6577H65.035C65.5527 59.6577 65.9725 59.2378 65.9725 58.7202C65.9725 58.2025 65.5525 57.7827 65.0348 57.7827ZM57.227 47.6711C57.307 47.6711 57.3884 47.6609 57.4694 47.6392L57.5259 47.6241C58.0262 47.4906 58.3234 46.9767 58.19 46.4766C58.0566 45.9764 57.5425 45.6787 57.0425 45.8125L56.9859 45.8277C56.4856 45.9611 56.1884 46.475 56.3219 46.9752C56.4338 47.3945 56.8128 47.6711 57.227 47.6711ZM62.977 49.2444L63.0336 49.2597C63.1153 49.2819 63.1973 49.2922 63.2781 49.2922C63.6916 49.2922 64.0698 49.0167 64.1827 48.5986C64.3173 48.0987 64.0214 47.5842 63.5216 47.4495L63.465 47.4342C62.965 47.2991 62.4508 47.5953 62.3159 48.0953C62.1812 48.5952 62.4772 49.1097 62.977 49.2444ZM66.987 53.4309C67.17 53.6141 67.41 53.7056 67.6498 53.7056C67.8897 53.7056 68.1297 53.6141 68.3127 53.4309C68.6789 53.0648 68.6789 52.4712 68.3127 52.1053L68.2712 52.0639C67.9053 51.6977 67.3114 51.6977 66.9456 52.0639C66.5794 52.43 66.5794 53.0236 66.9456 53.3895L66.987 53.4309ZM70.1352 58.535L70.12 58.4784C69.9866 57.9783 69.472 57.6805 68.9725 57.8144C68.4722 57.9478 68.175 58.4617 68.3084 58.9619L68.3236 59.0184C68.4355 59.4378 68.8145 59.7144 69.2287 59.7144C69.3087 59.7144 69.3902 59.7042 69.4711 59.6825C69.9714 59.5491 70.2686 59.0352 70.1352 58.535ZM67.8525 63.8083C67.3525 63.6734 66.8383 63.9694 66.7034 64.4694L66.6881 64.5259C66.5534 65.0258 66.8494 65.5403 67.3492 65.675C67.4309 65.6972 67.513 65.7075 67.5937 65.7075C68.0072 65.7075 68.3855 65.432 68.4983 65.0139L68.5136 64.9573C68.6483 64.4575 68.3523 63.943 67.8525 63.8083ZM62.5569 68.4392L62.5155 68.4808C62.15 68.8475 62.1511 69.4411 62.518 69.8064C62.7009 69.9887 62.9402 70.0798 63.1795 70.0798C63.4189 70.0798 63.6605 69.9878 63.8436 69.8039L63.885 69.7623C64.2505 69.3956 64.2494 68.802 63.8825 68.4367C63.5156 68.0714 62.9222 68.0722 62.5569 68.4392ZM56.9859 69.8011L56.9294 69.8162C56.4291 69.9497 56.1319 70.4636 56.2653 70.9637C56.3772 71.3831 56.7562 71.6597 57.1705 71.6597C57.2505 71.6597 57.3319 71.6495 57.4128 71.6278L57.4694 71.6127C57.9697 71.4792 58.2669 70.9653 58.1334 70.4651C58 69.9648 57.4859 69.667 56.9859 69.8011ZM51.4759 68.1952L51.4194 68.18C50.9186 68.0462 50.4055 68.3439 50.2719 68.8441C50.1383 69.3442 50.4356 69.858 50.9359 69.9916L50.9925 70.0067C51.0736 70.0284 51.1548 70.0386 51.2348 70.0386C51.6491 70.0386 52.0281 69.7619 52.14 69.3427C52.2734 68.8425 51.9762 68.3288 51.4759 68.1952ZM47.4683 64.0092C47.1023 63.643 46.5084 63.643 46.1427 64.0092C45.7764 64.3753 45.7764 64.9689 46.1427 65.3348L46.1842 65.3764C46.3672 65.5595 46.6072 65.6511 46.847 65.6511C47.0869 65.6511 47.3269 65.5595 47.5098 65.3764C47.8761 65.0103 47.8761 64.4167 47.5098 64.0508L47.4683 64.0092ZM46.1467 58.4786L46.1316 58.422C45.9981 57.9219 45.4837 57.6241 44.9841 57.758C44.4837 57.8914 44.1866 58.4053 44.32 58.9055L44.3352 58.962C44.447 59.3814 44.8261 59.658 45.2403 59.658C45.3203 59.658 45.4017 59.6478 45.4827 59.6261C45.983 59.4927 46.2802 58.9787 46.1467 58.4786ZM47.1037 51.7645C46.6025 51.6305 46.0897 51.9283 45.9562 52.4286L45.9411 52.4852C45.8077 52.9853 46.1048 53.4991 46.6052 53.6327C46.6862 53.6544 46.7675 53.6645 46.8475 53.6645C47.2617 53.6645 47.6408 53.3878 47.7527 52.9686L47.7678 52.912C47.9012 52.4119 47.6041 51.8981 47.1037 51.7645ZM50.6142 47.6339L50.5727 47.6753C50.2058 48.0408 50.2048 48.6344 50.5702 49.0009C50.7533 49.1848 50.9937 49.2769 51.2342 49.2769C51.4747 49.2769 51.7128 49.1858 51.8958 49.0034L51.9373 48.962C52.3042 48.5967 52.3052 48.003 51.9398 47.6364C51.5744 47.2694 50.9808 47.2686 50.6142 47.6339ZM37.2398 38.7083C36.8739 39.0745 36.28 39.0745 35.9142 38.7083L35.7786 38.5727C35.2142 38.0086 34.4483 38.0417 33.9198 38.2605C33.3909 38.4795 32.8259 38.998 32.8259 39.7958V39.9875C32.8259 40.5052 32.4061 40.925 31.8884 40.925H28.4055C27.8878 40.925 27.468 40.5052 27.468 39.9875V39.7955C27.468 38.9975 26.9031 38.4791 26.3745 38.2602C25.8456 38.0414 25.0802 38.0086 24.5158 38.5725L24.3794 38.7089C24.0131 39.0747 23.4195 39.0745 23.0541 38.7084L20.5912 36.2456C20.225 35.8795 20.225 35.2859 20.5912 34.92L20.7269 34.7844C21.2909 34.2202 21.258 33.4541 21.0391 32.9256C20.8202 32.3969 20.3017 31.8319 19.5037 31.8319H19.312C18.7944 31.8319 18.3745 31.412 18.3745 30.8944V27.4114C18.3745 26.8938 18.7944 26.4739 19.312 26.4739H19.5041C20.302 26.4739 20.8205 25.9091 21.0394 25.3803C21.2583 24.8517 21.2912 24.0859 20.7272 23.5216L20.5912 23.3856C20.225 23.0195 20.225 22.4259 20.5912 22.06L23.0541 19.5972C23.4198 19.2311 24.0134 19.2309 24.3794 19.5967L24.5155 19.7327C25.0798 20.297 25.8459 20.2641 26.3744 20.0455C26.903 19.8266 27.4678 19.3081 27.4678 18.5102V18.3181C27.4678 17.8005 27.8877 17.3806 28.4053 17.3806H31.8883C32.4059 17.3806 32.8258 17.8005 32.8258 18.3181V18.5103C32.8258 19.3081 33.3906 19.8266 33.9192 20.0455C34.4477 20.2639 35.2136 20.2975 35.778 19.7331L35.9139 19.5972C36.2798 19.2309 36.8737 19.2309 37.2395 19.5972L39.7023 22.06C40.0686 22.4261 40.0686 23.0197 39.7023 23.3856L39.5667 23.5212C39.0027 24.0855 39.0356 24.8516 39.2545 25.38C39.4734 25.9088 39.9919 26.4738 40.7898 26.4738H40.9817C41.4994 26.4738 41.9192 26.8936 41.9192 27.4113V30.8942C41.9192 31.4119 41.4994 31.8317 40.9817 31.8317H40.7895C39.9917 31.8317 39.4733 32.3966 39.2544 32.9253C39.0355 33.4539 39.0025 34.2197 39.5666 34.7841L39.7025 34.92C40.0687 35.2861 40.0687 35.8797 39.7025 36.2456L37.2397 38.7084L37.2398 38.7083ZM37.7702 35.5266C37.1516 34.5647 37.0491 33.35 37.5222 32.2078C37.9955 31.0653 38.9269 30.2789 40.0445 30.0361V28.2692C38.9272 28.0263 37.9958 27.2398 37.5225 26.0977C37.0495 24.9553 37.1519 23.7408 37.7702 22.7789L36.5209 21.5297C35.5591 22.1486 34.3442 22.2509 33.202 21.7777C32.0595 21.3045 31.2733 20.3731 31.0305 19.2555H29.2637C29.0208 20.373 28.2344 21.3044 27.0922 21.7777C25.9498 22.2509 24.7352 22.1483 23.7733 21.5297L22.5241 22.7789C23.1427 23.7408 23.2452 24.9553 22.772 26.0977C22.2989 27.24 21.3675 28.0266 20.2498 28.2692V30.0362C21.367 30.2794 22.2984 31.0656 22.7717 32.2078C23.2447 33.3502 23.1423 34.5647 22.5241 35.5266L23.7733 36.7758C24.7352 36.1575 25.9503 36.0547 27.0922 36.5278C28.2345 37.0009 29.0209 37.9323 29.2637 39.05H31.0306C31.2737 37.9328 32.0602 37.0014 33.2025 36.5281C34.3444 36.0553 35.5592 36.1577 36.5209 36.7758L37.7702 35.5266ZM35.9528 29.1527C35.9528 32.3539 33.3483 34.9584 30.147 34.9584C26.9458 34.9584 24.3414 32.3539 24.3414 29.1527C24.3414 25.9514 26.9458 23.347 30.147 23.347C33.3483 23.347 35.9528 25.9514 35.9528 29.1527ZM34.0778 29.1527C34.0778 26.9853 32.3145 25.222 30.147 25.222C27.9795 25.222 26.2164 26.9853 26.2164 29.1527C26.2164 31.32 27.9797 33.0834 30.147 33.0834C32.3144 33.0834 34.0778 31.3202 34.0778 29.1527Z" fill="#393939"/>
</svg>
