<svg width="80" height="80" viewBox="0 0 80 80" fill="none" xmlns="http://www.w3.org/2000/svg">
<g clip-path="url(#clip0_1707_3019)">
<path d="M11.391 20.4174H7.01292C6.47081 20.4174 6.03125 19.9672 6.03125 19.412C6.03125 18.8567 6.47081 18.4065 7.01292 18.4065H11.391C11.9331 18.4065 12.3726 18.8567 12.3726 19.412C12.3726 19.9672 11.9331 20.4174 11.391 20.4174Z" fill="url(#paint0_linear_1707_3019)"/>
<path d="M83.0183 40.6073H76.6965C76.1544 40.6073 75.7148 40.157 75.7148 39.6018C75.7148 39.0465 76.1544 38.5963 76.6965 38.5963H83.0183C83.5604 38.5963 84 39.0465 84 39.6018C84 40.157 83.5604 40.6073 83.0183 40.6073Z" fill="url(#paint1_linear_1707_3019)"/>
<path d="M78.3876 59.9719C77.8455 59.9719 77.4059 59.5216 77.4059 58.9664V51.0196C77.4059 50.2789 76.9779 49.6089 76.3154 49.3127L69.4922 46.2607C69.24 46.1479 69.0457 45.9319 68.9563 45.6653L66.3647 37.9219C65.8055 36.251 64.272 35.1281 62.5489 35.1281H47.5766V58.9661C47.5766 59.5214 47.1371 59.9716 46.595 59.9716C46.0528 59.9716 45.6133 59.5214 45.6133 58.9661V34.1229C45.6133 33.5676 46.0528 33.1174 46.595 33.1174H62.5489C65.1107 33.1174 67.3905 34.7863 68.222 37.2699L70.6737 44.595L77.1012 47.4697C78.479 48.086 79.3693 49.4794 79.3693 51.0196V58.9664C79.3693 59.5216 78.9297 59.9719 78.3876 59.9719Z" fill="url(#paint2_linear_1707_3019)"/>
<path d="M46.5889 59.9719H22.4097C21.8676 59.9719 21.428 59.5217 21.428 58.9664C21.428 58.4112 21.8676 57.9609 22.4097 57.9609H45.6073V30.5245C45.6073 29.8489 45.0716 29.299 44.4131 29.299H4.74187C4.08218 29.299 3.54538 29.8489 3.54538 30.5245V57.9609H10.26C10.8022 57.9609 11.2417 58.4112 11.2417 58.9664C11.2417 59.5217 10.8022 59.9719 10.26 59.9719H2.56371C2.02159 59.9719 1.58203 59.5217 1.58203 58.9664V30.5245C1.58203 28.74 2.99957 27.2881 4.74187 27.2881H44.4131C46.1542 27.2881 47.5706 28.74 47.5706 30.5245V58.9664C47.5706 59.5217 47.131 59.9719 46.5889 59.9719Z" fill="url(#paint3_linear_1707_3019)"/>
<path d="M58.7948 59.9719H22.4035C21.8614 59.9719 21.4219 59.5217 21.4219 58.9664C21.4219 58.4112 21.8614 57.9609 22.4035 57.9609H58.7948C59.3369 57.9609 59.7765 58.4112 59.7765 58.9664C59.7765 59.5217 59.3369 59.9719 58.7948 59.9719Z" fill="url(#paint4_linear_1707_3019)"/>
<path d="M57.2102 68.5857H23.9973C23.4552 68.5857 23.0156 68.1354 23.0156 67.5802C23.0156 67.0249 23.4552 66.5747 23.9973 66.5747H57.2102C57.7523 66.5747 58.1919 67.0249 58.1919 67.5802C58.1919 68.1354 57.7523 68.5857 57.2102 68.5857Z" fill="url(#paint5_linear_1707_3019)"/>
<path d="M8.66645 68.5858H2.30289C1.03295 68.5858 0 67.5276 0 66.2271V60.3197C0 59.0189 1.03318 57.9609 2.30289 57.9609H10.2556C10.7977 57.9609 11.2373 58.4112 11.2373 58.9664C11.2373 59.5217 10.7977 59.9719 10.2556 59.9719H2.30289C2.11557 59.9719 1.96335 60.1278 1.96335 60.3197V66.2271C1.96335 66.419 2.1158 66.5749 2.30289 66.5749H8.66645C9.20857 66.5749 9.64813 67.0251 9.64813 67.5804C9.64813 68.1356 9.20857 68.5858 8.66645 68.5858Z" fill="url(#paint6_linear_1707_3019)"/>
<path d="M78.4172 68.5858H72.5318C71.9897 68.5858 71.5501 68.1356 71.5501 67.5804C71.5501 67.0251 71.9897 66.5749 72.5318 66.5749H78.4172C78.6045 66.5749 78.7567 66.4187 78.7567 66.2271V60.3197C78.7567 60.1278 78.6043 59.9719 78.4172 59.9719H70.9426C70.4005 59.9719 69.9609 59.5217 69.9609 58.9664C69.9609 58.4112 70.4005 57.9609 70.9426 57.9609H78.4172C79.6871 57.9609 80.7201 59.0189 80.7201 60.3197V66.2271C80.7201 67.5278 79.6871 68.5858 78.4172 68.5858Z" fill="url(#paint7_linear_1707_3019)"/>
<path d="M16.3373 74C11.277 74 7.16016 69.7834 7.16016 64.6003C7.16016 59.4173 11.277 55.2007 16.3373 55.2007C21.3977 55.2007 25.5145 59.4173 25.5145 64.6003C25.5145 69.7834 21.3979 74 16.3373 74ZM16.3373 57.2116C12.3596 57.2116 9.12351 60.5261 9.12351 64.6003C9.12351 68.6745 12.3596 71.989 16.3373 71.989C20.3151 71.989 23.5511 68.6745 23.5511 64.6003C23.5511 60.5261 20.3153 57.2116 16.3373 57.2116Z" fill="url(#paint8_linear_1707_3019)"/>
<path d="M78.3901 55.1847H75.1965C74.6544 55.1847 74.2148 54.7344 74.2148 54.1792C74.2148 53.6239 74.6544 53.1737 75.1965 53.1737H78.3901C78.9322 53.1737 79.3718 53.6239 79.3718 54.1792C79.3718 54.7344 78.9322 55.1847 78.3901 55.1847Z" fill="url(#paint9_linear_1707_3019)"/>
<path d="M16.3291 68.5863C14.1833 68.5863 12.4375 66.7982 12.4375 64.6003C12.4375 62.4025 14.1833 60.6144 16.3291 60.6144C18.4749 60.6144 20.2207 62.4025 20.2207 64.6003C20.2207 66.7982 18.4749 68.5863 16.3291 68.5863ZM16.3291 62.6253C15.2659 62.6253 14.4008 63.5113 14.4008 64.6003C14.4008 65.6893 15.2659 66.5753 16.3291 66.5753C17.3923 66.5753 18.2573 65.6893 18.2573 64.6003C18.2573 63.5113 17.3923 62.6253 16.3291 62.6253Z" fill="url(#paint10_linear_1707_3019)"/>
<path d="M64.8725 74C59.8121 74 55.6953 69.7834 55.6953 64.6003C55.6953 59.4173 59.8121 55.2007 64.8725 55.2007C69.9328 55.2007 74.0496 59.4173 74.0496 64.6003C74.0496 69.7834 69.9328 74 64.8725 74ZM64.8725 57.2116C60.8947 57.2116 57.6587 60.5261 57.6587 64.6003C57.6587 68.6745 60.8947 71.989 64.8725 71.989C68.8502 71.989 72.0863 68.6745 72.0863 64.6003C72.0863 60.5261 68.8502 57.2116 64.8725 57.2116Z" fill="url(#paint11_linear_1707_3019)"/>
<path d="M64.8721 68.5863C62.7262 68.5863 60.9805 66.7982 60.9805 64.6003C60.9805 62.4025 62.7262 60.6144 64.8721 60.6144C67.0179 60.6144 68.7636 62.4025 68.7636 64.6003C68.7636 66.7982 67.0179 68.5863 64.8721 68.5863ZM64.8721 62.6253C63.8088 62.6253 62.9438 63.5113 62.9438 64.6003C62.9438 65.6893 63.8088 66.5753 64.8721 66.5753C65.9353 66.5753 66.8003 65.6893 66.8003 64.6003C66.8003 63.5113 65.9353 62.6253 64.8721 62.6253Z" fill="url(#paint12_linear_1707_3019)"/>
<path d="M61.2884 35.1295H48.9465C48.4044 35.1295 47.9648 34.6793 47.9648 34.124V31.1168C47.9648 29.8575 48.9652 28.8329 50.1947 28.8329H60.0399C61.2694 28.8329 62.2698 29.8575 62.2698 31.1168V34.124C62.27 34.6793 61.8305 35.1295 61.2884 35.1295ZM49.9282 33.1186H60.3067V31.1168C60.3067 30.9661 60.187 30.8438 60.0401 30.8438H50.195C50.0478 30.8438 49.9284 30.9664 49.9284 31.1168V33.1186H49.9282Z" fill="url(#paint13_linear_1707_3019)"/>
<path d="M59.3769 30.8436H50.8606C50.3185 30.8436 49.8789 30.3934 49.8789 29.8381V27.2199C49.8789 24.2605 52.2294 21.853 55.1187 21.853C58.0081 21.853 60.3586 24.2605 60.3586 27.2199V29.8381C60.3586 30.3934 59.9192 30.8436 59.3769 30.8436ZM51.8423 28.8327H58.3952V27.2199C58.3952 25.3693 56.9255 23.864 55.1187 23.864C53.312 23.864 51.8423 25.3693 51.8423 27.2199V28.8327Z" fill="url(#paint14_linear_1707_3019)"/>
<path d="M69.8846 46.3456H57.9387C57.3966 46.3456 56.957 45.8954 56.957 45.3402V37.595C56.957 37.0397 57.3966 36.5895 57.9387 36.5895H67.2923C67.7118 36.5895 68.0848 36.8625 68.2211 37.2689L70.8137 45.0142C70.9164 45.3212 70.8682 45.6605 70.6838 45.9248C70.4993 46.1888 70.2018 46.3456 69.8846 46.3456ZM58.9204 44.3347H68.5105L66.5911 38.6004H58.9204V44.3347Z" fill="url(#paint15_linear_1707_3019)"/>
<path d="M55.1184 20.4085C54.5763 20.4085 54.1367 19.9583 54.1367 19.403V17.0055C54.1367 16.4502 54.5763 16 55.1184 16C55.6605 16 56.1001 16.4502 56.1001 17.0055V19.403C56.1001 19.9583 55.6605 20.4085 55.1184 20.4085Z" fill="url(#paint16_linear_1707_3019)"/>
<path d="M58.9341 21.4557C58.7675 21.4557 58.5987 21.4122 58.4441 21.3209C57.9746 21.0431 57.8138 20.4283 58.0847 19.9473L59.2551 17.8711C59.5263 17.3903 60.1266 17.2257 60.5962 17.5029C61.0658 17.7807 61.2266 18.3956 60.9556 18.8765L59.7852 20.9528C59.6032 21.2755 59.2734 21.4557 58.9341 21.4557Z" fill="url(#paint17_linear_1707_3019)"/>
<path d="M61.7289 24.3171C61.3896 24.3171 61.0597 24.1368 60.8777 23.8143C60.6068 23.3334 60.7675 22.7185 61.2371 22.4407L63.2642 21.242C63.7336 20.9645 64.3341 21.1291 64.6053 21.6101C64.8762 22.0911 64.7155 22.7059 64.2459 22.9837L62.2188 24.1825C62.0643 24.2735 61.8957 24.3171 61.7289 24.3171Z" fill="url(#paint18_linear_1707_3019)"/>
<path d="M51.2977 21.4558C50.9584 21.4558 50.6285 21.2755 50.4465 20.9531L49.2761 18.8768C49.0052 18.3959 49.166 17.781 49.6356 17.5032C50.1051 17.2255 50.7055 17.3902 50.9766 17.8714L52.147 19.9476C52.418 20.4286 52.2572 21.0435 51.7876 21.3212C51.6329 21.4123 51.4642 21.4558 51.2977 21.4558Z" fill="url(#paint19_linear_1707_3019)"/>
<path d="M48.5122 24.3171C48.3456 24.3171 48.1768 24.2736 48.0223 24.1822L45.9949 22.9835C45.5253 22.706 45.3646 22.0908 45.6355 21.6099C45.9065 21.1289 46.5072 20.9645 46.9766 21.2418L49.0039 22.4405C49.4735 22.718 49.6343 23.3331 49.3633 23.8141C49.1813 24.1366 48.8513 24.3171 48.5122 24.3171Z" fill="url(#paint20_linear_1707_3019)"/>
<path d="M19.289 52.9699C19.0866 52.9699 18.8841 52.9058 18.712 52.7778C18.3678 52.5216 18.2239 52.0681 18.3554 51.6536L20.1549 45.9811L15.4438 42.4754C15.0997 42.2192 14.9558 41.7656 15.0872 41.3511C15.2186 40.9369 15.5956 40.6563 16.0208 40.6563H21.8441L23.6437 34.9838C23.7751 34.5695 24.1521 34.2889 24.5773 34.2889C25.0026 34.2889 25.3795 34.5695 25.511 34.9838L27.3105 40.6563H33.1336C33.5588 40.6563 33.9358 40.9369 34.0672 41.3511C34.1987 41.7654 34.0548 42.2192 33.7106 42.4754L28.9995 45.9811L30.7991 51.6536C30.9305 52.0678 30.7866 52.5216 30.4424 52.7778C30.0983 53.0338 29.6324 53.0338 29.2884 52.7778L24.5773 49.2719L19.8662 52.7778C19.6939 52.9058 19.4913 52.9699 19.289 52.9699ZM19.0421 42.6675L21.8859 44.7837C22.2301 45.0399 22.374 45.4935 22.2426 45.908L21.1562 49.332L24.0001 47.2158C24.344 46.9598 24.8102 46.9598 25.1541 47.2158L27.9979 49.332L26.9116 45.908C26.7802 45.4937 26.9241 45.0399 27.2683 44.7837L30.1121 42.6675H26.597C26.1718 42.6675 25.7948 42.3869 25.6634 41.9727L24.5771 38.5484L23.4908 41.9727C23.3594 42.3869 22.9824 42.6675 22.5572 42.6675H19.0421Z" fill="url(#paint21_linear_1707_3019)"/>
<path d="M73.8837 74H7.31761C6.7755 74 6.33594 73.5497 6.33594 72.9945C6.33594 72.4392 6.7755 71.989 7.31761 71.989H73.8837C74.4258 71.989 74.8654 72.4392 74.8654 72.9945C74.8654 73.5497 74.426 74 73.8837 74Z" fill="url(#paint22_linear_1707_3019)"/>
</g>
<defs>
<linearGradient id="paint0_linear_1707_3019" x1="9.20194" y1="18.4065" x2="9.20194" y2="20.4174" gradientUnits="userSpaceOnUse">
<stop stop-color="#9747FF"/>
<stop offset="1" stop-color="#4B9ADB"/>
</linearGradient>
<linearGradient id="paint1_linear_1707_3019" x1="79.8574" y1="38.5963" x2="79.8574" y2="40.6073" gradientUnits="userSpaceOnUse">
<stop stop-color="#9747FF"/>
<stop offset="1" stop-color="#4B9ADB"/>
</linearGradient>
<linearGradient id="paint2_linear_1707_3019" x1="62.4913" y1="33.1174" x2="62.4913" y2="59.9719" gradientUnits="userSpaceOnUse">
<stop stop-color="#9747FF"/>
<stop offset="1" stop-color="#4B9ADB"/>
</linearGradient>
<linearGradient id="paint3_linear_1707_3019" x1="24.5763" y1="27.2881" x2="24.5763" y2="59.9719" gradientUnits="userSpaceOnUse">
<stop stop-color="#9747FF"/>
<stop offset="1" stop-color="#4B9ADB"/>
</linearGradient>
<linearGradient id="paint4_linear_1707_3019" x1="40.5992" y1="57.9609" x2="40.5992" y2="59.9719" gradientUnits="userSpaceOnUse">
<stop stop-color="#9747FF"/>
<stop offset="1" stop-color="#4B9ADB"/>
</linearGradient>
<linearGradient id="paint5_linear_1707_3019" x1="40.6038" y1="66.5747" x2="40.6038" y2="68.5857" gradientUnits="userSpaceOnUse">
<stop stop-color="#9747FF"/>
<stop offset="1" stop-color="#4B9ADB"/>
</linearGradient>
<linearGradient id="paint6_linear_1707_3019" x1="5.61864" y1="57.9609" x2="5.61864" y2="68.5858" gradientUnits="userSpaceOnUse">
<stop stop-color="#9747FF"/>
<stop offset="1" stop-color="#4B9ADB"/>
</linearGradient>
<linearGradient id="paint7_linear_1707_3019" x1="75.3405" y1="57.9609" x2="75.3405" y2="68.5858" gradientUnits="userSpaceOnUse">
<stop stop-color="#9747FF"/>
<stop offset="1" stop-color="#4B9ADB"/>
</linearGradient>
<linearGradient id="paint8_linear_1707_3019" x1="16.3373" y1="55.2007" x2="16.3373" y2="74" gradientUnits="userSpaceOnUse">
<stop stop-color="#9747FF"/>
<stop offset="1" stop-color="#4B9ADB"/>
</linearGradient>
<linearGradient id="paint9_linear_1707_3019" x1="76.7933" y1="53.1737" x2="76.7933" y2="55.1847" gradientUnits="userSpaceOnUse">
<stop stop-color="#9747FF"/>
<stop offset="1" stop-color="#4B9ADB"/>
</linearGradient>
<linearGradient id="paint10_linear_1707_3019" x1="16.3291" y1="60.6144" x2="16.3291" y2="68.5863" gradientUnits="userSpaceOnUse">
<stop stop-color="#9747FF"/>
<stop offset="1" stop-color="#4B9ADB"/>
</linearGradient>
<linearGradient id="paint11_linear_1707_3019" x1="64.8725" y1="55.2007" x2="64.8725" y2="74" gradientUnits="userSpaceOnUse">
<stop stop-color="#9747FF"/>
<stop offset="1" stop-color="#4B9ADB"/>
</linearGradient>
<linearGradient id="paint12_linear_1707_3019" x1="64.8721" y1="60.6144" x2="64.8721" y2="68.5863" gradientUnits="userSpaceOnUse">
<stop stop-color="#9747FF"/>
<stop offset="1" stop-color="#4B9ADB"/>
</linearGradient>
<linearGradient id="paint13_linear_1707_3019" x1="55.1173" y1="28.8329" x2="55.1173" y2="35.1295" gradientUnits="userSpaceOnUse">
<stop stop-color="#9747FF"/>
<stop offset="1" stop-color="#4B9ADB"/>
</linearGradient>
<linearGradient id="paint14_linear_1707_3019" x1="55.1187" y1="21.853" x2="55.1187" y2="30.8436" gradientUnits="userSpaceOnUse">
<stop stop-color="#9747FF"/>
<stop offset="1" stop-color="#4B9ADB"/>
</linearGradient>
<linearGradient id="paint15_linear_1707_3019" x1="63.9119" y1="36.5895" x2="63.9119" y2="46.3456" gradientUnits="userSpaceOnUse">
<stop stop-color="#9747FF"/>
<stop offset="1" stop-color="#4B9ADB"/>
</linearGradient>
<linearGradient id="paint16_linear_1707_3019" x1="55.1184" y1="16" x2="55.1184" y2="20.4085" gradientUnits="userSpaceOnUse">
<stop stop-color="#9747FF"/>
<stop offset="1" stop-color="#4B9ADB"/>
</linearGradient>
<linearGradient id="paint17_linear_1707_3019" x1="59.5202" y1="17.3683" x2="59.5202" y2="21.4557" gradientUnits="userSpaceOnUse">
<stop stop-color="#9747FF"/>
<stop offset="1" stop-color="#4B9ADB"/>
</linearGradient>
<linearGradient id="paint18_linear_1707_3019" x1="62.7415" y1="21.1072" x2="62.7415" y2="24.3171" gradientUnits="userSpaceOnUse">
<stop stop-color="#9747FF"/>
<stop offset="1" stop-color="#4B9ADB"/>
</linearGradient>
<linearGradient id="paint19_linear_1707_3019" x1="50.7116" y1="17.3683" x2="50.7116" y2="21.4558" gradientUnits="userSpaceOnUse">
<stop stop-color="#9747FF"/>
<stop offset="1" stop-color="#4B9ADB"/>
</linearGradient>
<linearGradient id="paint20_linear_1707_3019" x1="47.4994" y1="21.1071" x2="47.4994" y2="24.3171" gradientUnits="userSpaceOnUse">
<stop stop-color="#9747FF"/>
<stop offset="1" stop-color="#4B9ADB"/>
</linearGradient>
<linearGradient id="paint21_linear_1707_3019" x1="24.5772" y1="34.2889" x2="24.5772" y2="52.9699" gradientUnits="userSpaceOnUse">
<stop stop-color="#9747FF"/>
<stop offset="1" stop-color="#4B9ADB"/>
</linearGradient>
<linearGradient id="paint22_linear_1707_3019" x1="40.6007" y1="71.989" x2="40.6007" y2="74" gradientUnits="userSpaceOnUse">
<stop stop-color="#9747FF"/>
<stop offset="1" stop-color="#4B9ADB"/>
</linearGradient>
<clipPath id="clip0_1707_3019">
<rect width="80" height="80" fill="white"/>
</clipPath>
</defs>
</svg>
