<svg width="80" height="80" viewBox="0 0 80 80" fill="none" xmlns="http://www.w3.org/2000/svg">
<path d="M39.9987 41.6667C51.0265 41.6667 59.9987 32.6946 59.9987 21.6667C59.9987 10.6389 51.0265 1.66675 39.9987 1.66675C28.9709 1.66675 19.9987 10.6389 19.9987 21.6667C19.9987 32.6946 28.9709 41.6667 39.9987 41.6667ZM39.9987 3.33341C50.1077 3.33341 58.332 11.5577 58.332 21.6667C58.332 31.7758 50.1077 40.0001 39.9987 40.0001C29.8897 40.0001 21.6654 31.7758 21.6654 21.6667C21.6654 11.5577 29.8897 3.33341 39.9987 3.33341ZM34.0645 29.9797C34.5397 30.5225 35.2249 30.8334 35.9468 30.8334C36.5872 30.8334 37.1968 30.5909 37.6631 30.1506L50.8337 17.7109C51.3626 17.2136 51.6654 16.5113 51.6654 15.7813C51.6654 14.3181 50.4715 13.1283 49.0042 13.1283C48.3345 13.1283 47.6924 13.3863 47.196 13.8559L35.889 24.5338L33.5103 21.8157C33.0309 21.2672 32.3734 20.9661 31.6597 20.9661C30.2607 20.9661 29.1654 22.0566 29.1654 23.449C29.1654 24.0496 29.3835 24.6298 29.779 25.0815L34.0645 29.9797ZM31.6597 22.6327C31.82 22.6327 32.0535 22.6807 32.2562 22.9127L35.2046 26.2826C35.3543 26.4535 35.5659 26.5561 35.7922 26.5667C36.0306 26.5789 36.2397 26.495 36.4041 26.3396L48.3402 15.0668C48.5786 14.8422 48.8325 14.795 49.0042 14.795C49.4933 14.795 49.9987 15.1637 49.9987 15.7838C49.9987 16.0531 49.8864 16.3136 49.6903 16.4991L36.5189 28.9389C36.1877 29.253 35.6172 29.2229 35.3193 28.8827L31.0339 23.9845C30.9036 23.8355 30.832 23.6459 30.832 23.449C30.832 22.8858 31.3154 22.6327 31.6597 22.6327ZM74.1654 63.3334H64.1654C62.7868 63.3334 61.6654 64.4548 61.6654 65.8334V75.8334C61.6654 77.212 62.7868 78.3334 64.1654 78.3334H74.1654C75.5439 78.3334 76.6654 77.212 76.6654 75.8334V65.8334C76.6654 64.4548 75.5439 63.3334 74.1654 63.3334ZM74.9987 75.8334C74.9987 76.2932 74.6252 76.6667 74.1654 76.6667H64.1654C63.7056 76.6667 63.332 76.2932 63.332 75.8334V65.8334C63.332 65.3736 63.7056 65.0001 64.1654 65.0001H74.1654C74.6252 65.0001 74.9987 65.3736 74.9987 65.8334V75.8334ZM15.832 63.3334H5.83203C4.45345 63.3334 3.33203 64.4548 3.33203 65.8334V75.8334C3.33203 77.212 4.45345 78.3334 5.83203 78.3334H15.832C17.2106 78.3334 18.332 77.212 18.332 75.8334V65.8334C18.332 64.4548 17.2106 63.3334 15.832 63.3334ZM16.6654 75.8334C16.6654 76.2932 16.2918 76.6667 15.832 76.6667H5.83203C5.37223 76.6667 4.9987 76.2932 4.9987 75.8334V65.8334C4.9987 65.3736 5.37223 65.0001 5.83203 65.0001H15.832C16.2918 65.0001 16.6654 65.3736 16.6654 65.8334V75.8334ZM44.9987 63.3334H34.9987C33.6201 63.3334 32.4987 64.4548 32.4987 65.8334V75.8334C32.4987 77.212 33.6201 78.3334 34.9987 78.3334H44.9987C46.3773 78.3334 47.4987 77.212 47.4987 75.8334V65.8334C47.4987 64.4548 46.3773 63.3334 44.9987 63.3334ZM45.832 75.8334C45.832 76.2932 45.4585 76.6667 44.9987 76.6667H34.9987C34.5389 76.6667 34.1654 76.2932 34.1654 75.8334V65.8334C34.1654 65.3736 34.5389 65.0001 34.9987 65.0001H44.9987C45.4585 65.0001 45.832 65.3736 45.832 65.8334V75.8334ZM9.9987 60.8334V55.8334C9.9987 53.536 11.868 51.6667 14.1654 51.6667H39.1654V44.1667C39.1654 43.7061 39.5381 43.3334 39.9987 43.3334C40.4593 43.3334 40.832 43.7061 40.832 44.1667V51.6667H65.832C68.1294 51.6667 69.9987 53.536 69.9987 55.8334V60.8334C69.9987 61.294 69.626 61.6667 69.1654 61.6667C68.7048 61.6667 68.332 61.294 68.332 60.8334V55.8334C68.332 54.4548 67.2106 53.3334 65.832 53.3334H40.832V60.8334C40.832 61.294 40.4593 61.6667 39.9987 61.6667C39.5381 61.6667 39.1654 61.294 39.1654 60.8334V53.3334H14.1654C12.7868 53.3334 11.6654 54.4548 11.6654 55.8334V60.8334C11.6654 61.294 11.2926 61.6667 10.832 61.6667C10.3714 61.6667 9.9987 61.294 9.9987 60.8334Z" fill="#393939"/>
</svg>
