<svg width="80" height="80" viewBox="0 0 80 80" fill="none" xmlns="http://www.w3.org/2000/svg">
<path d="M43.2376 42.4998C43.2376 35.2958 35.2056 29.4398 28.0016 29.4398C20.7976 29.4398 12.7656 35.2958 12.7656 42.4998M28.0016 22.9118C30.3106 22.9118 32.525 21.9945 34.1577 20.3618C35.7904 18.7291 36.7076 16.5147 36.7076 14.2058C36.7076 11.8968 35.7904 9.68238 34.1577 8.04968C32.525 6.41699 30.3106 5.49976 28.0016 5.49976C25.6927 5.49976 23.4782 6.41699 21.8456 8.04968C20.2129 9.68238 19.2956 11.8968 19.2956 14.2058C19.2956 16.5147 20.2129 18.7291 21.8456 20.3618C23.4782 21.9945 25.6927 22.9118 28.0016 22.9118Z" stroke="#393939" stroke-width="3" stroke-linecap="round" stroke-linejoin="round"/>
<path d="M32.25 39.6415L51.0094 34.1665L69.75 39.6415V50.8686C69.7493 56.6223 67.9384 62.2299 64.5738 66.8974C61.2093 71.5648 56.4616 75.0554 51.0031 76.8748C45.5427 75.0562 40.793 71.5652 37.4272 66.8967C34.0614 62.2281 32.2501 56.6187 32.25 50.8634V39.6415Z" fill="white" stroke="#393939" stroke-width="3" stroke-linejoin="round"/>
<path d="M41.625 53.9583L48.9167 61.25L61.4167 48.75" stroke="#393939" stroke-width="3" stroke-linecap="round" stroke-linejoin="round"/>
</svg>
