<svg width="89" height="80" viewBox="0 0 89 80" fill="none" xmlns="http://www.w3.org/2000/svg">
<path d="M69.2157 63.4452C70.1304 64.1793 70.2645 65.527 69.4603 66.3807C64.2266 71.937 57.4398 75.906 49.9138 77.7832C41.6854 79.8356 33.0006 79.2811 25.1171 76.1999C17.2335 73.1188 10.5605 67.671 6.06437 60.6455C1.56825 53.6199 -0.517568 45.3814 0.10899 37.123C0.735548 28.8645 4.04195 21.0149 9.54937 14.7108C15.0568 8.40679 22.4793 3.97559 30.742 2.05896C39.0048 0.142335 47.6787 0.839771 55.5078 4.05027C62.6655 6.98547 68.7773 11.8819 73.1152 18.1246C73.7857 19.0896 73.4542 20.4048 72.4403 20.9987C71.458 21.574 70.2012 21.2551 69.548 20.3227C65.6722 14.7899 60.2343 10.4494 53.8727 7.84067C46.8691 4.96867 39.1097 4.34477 31.7182 6.05931C24.3266 7.77386 17.6867 11.7379 12.76 17.3772C7.83323 23.0166 4.87544 30.0386 4.31494 37.4263C3.75444 44.814 5.62034 52.1839 9.64241 58.4687C13.6645 64.7535 19.6339 69.6269 26.6863 72.3832C33.7386 75.1394 41.5077 75.6355 48.8685 73.7995C55.561 72.1302 61.6 68.6119 66.2705 63.6878C67.0498 62.8662 68.3325 62.7364 69.2157 63.4452Z" fill="url(#paint0_linear_1784_3228)"/>
<path d="M45.9058 35.0291C44.4428 33.566 41.8682 32.5501 39.5017 32.4853M39.5017 32.4853C36.6867 32.4098 34.166 33.6848 34.166 37.1628C34.166 43.5668 45.9058 40.3648 45.9058 46.7689C45.9058 50.4226 42.7809 51.992 39.5017 51.8733M39.5017 32.4853V28.625M33.0977 48.9041C34.4744 50.7387 37.032 51.7839 39.5017 51.8733M39.5017 51.8733V56.375" stroke="url(#paint1_linear_1784_3228)" stroke-width="3" stroke-linecap="round" stroke-linejoin="round"/>
<path d="M71.4986 29.3751C72.0787 29.3751 72.6351 29.6055 73.0454 30.0158C73.4556 30.426 73.6861 30.9824 73.6861 31.5626V48.8876L79.4319 43.1417C79.8466 42.7553 80.3951 42.545 80.9618 42.555C81.5285 42.565 82.0692 42.7945 82.47 43.1953C82.8708 43.5961 83.1003 44.1368 83.1103 44.7035C83.1203 45.2702 82.91 45.8187 82.5236 46.2334L73.0444 55.7126C72.6343 56.1222 72.0783 56.3523 71.4986 56.3523C70.9189 56.3523 70.3629 56.1222 69.9527 55.7126L60.4736 46.2334C60.2587 46.0331 60.0863 45.7916 59.9667 45.5233C59.8472 45.255 59.7829 44.9653 59.7777 44.6716C59.7725 44.3779 59.8265 44.0861 59.9366 43.8137C60.0466 43.5413 60.2103 43.2939 60.418 43.0862C60.6258 42.8785 60.8732 42.7147 61.1456 42.6047C61.418 42.4947 61.7097 42.4406 62.0034 42.4458C62.2972 42.451 62.5868 42.5153 62.8551 42.6349C63.1235 42.7544 63.365 42.9268 63.5652 43.1417L69.3111 48.8876V31.5626C69.3111 30.3551 70.2911 29.3751 71.4986 29.3751Z" fill="url(#paint2_linear_1784_3228)"/>
<defs>
<linearGradient id="paint0_linear_1784_3228" x1="40" y1="1" x2="40" y2="79" gradientUnits="userSpaceOnUse">
<stop stop-color="#9747FF"/>
<stop offset="1" stop-color="#4B9ADB"/>
</linearGradient>
<linearGradient id="paint1_linear_1784_3228" x1="39.5017" y1="28.625" x2="39.5017" y2="56.375" gradientUnits="userSpaceOnUse">
<stop stop-color="#9747FF"/>
<stop offset="1" stop-color="#4B9ADB"/>
</linearGradient>
<linearGradient id="paint2_linear_1784_3228" x1="71.444" y1="56.3523" x2="71.444" y2="29.3751" gradientUnits="userSpaceOnUse">
<stop stop-color="#9747FF"/>
<stop offset="1" stop-color="#4B9ADB"/>
</linearGradient>
</defs>
</svg>
