<svg width="80" height="80" viewBox="0 0 80 80" fill="none" xmlns="http://www.w3.org/2000/svg">
<g clip-path="url(#clip0_1731_3008)">
<path fill-rule="evenodd" clip-rule="evenodd" d="M45.1318 79.9063H34.9151C34.2589 79.9063 33.7434 79.3908 33.7434 78.7346V74.1886C28.8694 73.2982 24.2765 71.4236 20.2461 68.6116L17.0123 71.8922C16.5437 72.314 15.8407 72.314 15.372 71.8922L8.20153 64.6749C7.73287 64.2062 7.73287 63.5032 8.20153 63.0346L11.4353 59.8008C8.57646 55.7704 6.60809 51.0838 5.76451 46.3035H1.21852C0.562399 46.3035 0.046875 45.7879 0.046875 45.1318V39.9766C0.046875 39.3205 0.562399 38.8049 1.21852 38.8049H27.5103C28.1664 38.8049 28.6819 39.3205 28.6819 39.9766C28.6819 40.6327 28.1664 41.1482 27.5103 41.1482H2.3433V44.007H6.74869C7.35795 44.007 7.77974 44.4288 7.87347 44.9912C8.62333 50.0996 10.6386 55.0674 13.7786 59.2853C14.1066 59.7071 14.1066 60.3632 13.638 60.785L10.498 63.8782L16.1687 69.5489L19.2619 66.4089C19.6837 66.034 20.3398 65.9403 20.7616 66.2683C24.9326 69.3146 29.8536 71.4236 35.0557 72.1734C35.6649 72.2671 36.0398 72.7827 36.0398 73.2982V77.6567H44.007V73.2982C44.007 72.7358 44.4288 72.2671 44.9912 72.1734C50.0996 71.4236 55.0674 69.3146 59.2853 66.2683C59.7071 65.9403 60.3632 66.034 60.785 66.4089L63.8782 69.5489L69.5489 63.8782L66.4089 60.785C66.034 60.3632 65.9403 59.7071 66.2683 59.2853C69.3146 55.1142 71.4236 50.1933 72.1734 44.9912C72.2672 44.4288 72.7827 44.007 73.2982 44.007H77.6567V41.1482H52.5366C51.8805 41.1482 51.365 40.6327 51.365 39.9766C51.365 39.3205 51.8805 38.8049 52.5366 38.8049H78.8284C79.4845 38.8049 80 39.3205 80 39.9766V45.1318C80 45.7879 79.4845 46.3035 78.8284 46.3035H74.2824C73.3451 51.1775 71.4704 55.7704 68.7053 59.8008L71.9391 63.0346C72.1266 63.222 72.2672 63.5501 72.2672 63.8313C72.2672 64.0656 72.1266 64.3937 71.9391 64.5811L64.6749 71.8922C64.2062 72.314 63.5032 72.314 63.0346 71.8922L59.8008 68.6116C55.7704 71.4236 51.1775 73.3451 46.3035 74.1886V78.7346C46.3035 79.3908 45.7879 79.9063 45.1318 79.9063Z" fill="#393939"/>
<path fill-rule="evenodd" clip-rule="evenodd" d="M39.9766 59.6602C29.1506 59.6602 20.3398 50.8495 20.3398 39.9766C20.3398 39.3205 20.8554 38.8049 21.5115 38.8049C22.1207 38.8049 22.6363 39.3205 22.6363 39.9766C22.6363 49.5841 30.4629 57.4107 40.0704 57.4107C49.6779 57.4107 57.5045 49.5841 57.5045 39.9766C57.5045 39.3205 58.02 38.8049 58.6761 38.8049C59.3322 38.8049 59.8478 39.3205 59.8478 39.9766C59.7072 50.8495 50.8964 59.6602 39.9766 59.6602Z" fill="#393939"/>
<path fill-rule="evenodd" clip-rule="evenodd" d="M39.9778 53.6145C32.4793 53.6145 26.3398 47.522 26.3398 39.9766C26.3398 39.3205 26.9022 38.8049 27.5115 38.8049C28.1676 38.8049 28.6831 39.3205 28.6831 39.9766C28.6831 46.3035 33.7446 51.365 40.0715 51.365C46.3516 51.365 51.4131 46.2097 51.4131 39.9766C51.4131 39.3205 51.9286 38.8049 52.5847 38.8049C53.2408 38.8049 53.7564 39.3205 53.7564 39.9766C53.6158 47.522 47.5232 53.6145 39.9778 53.6145Z" fill="#393939"/>
<path fill-rule="evenodd" clip-rule="evenodd" d="M73.2993 41.1483C72.6432 41.1483 72.1276 40.6328 72.1276 39.9767C72.1276 23.7142 59.9894 9.98254 43.8207 8.06104C42.4147 7.92044 41.1493 7.87357 39.9777 7.87357C38.5717 7.87357 37.0251 7.96731 35.4317 8.2485C19.7316 10.4512 7.92142 24.0892 7.92142 39.9767C7.92142 40.6328 7.40589 41.1483 6.74977 41.1483C6.09365 41.1483 5.57812 40.6328 5.57812 39.9767C5.67186 22.9644 18.3256 8.3891 35.1036 5.95208C36.7908 5.71775 38.4311 5.57715 39.9777 5.57715C41.243 5.57715 42.6021 5.67088 44.1019 5.85834C61.3485 7.92044 74.4241 22.5895 74.4241 39.9767C74.4241 40.6328 73.8617 41.1483 73.2993 41.1483Z" fill="#393939"/>
<path fill-rule="evenodd" clip-rule="evenodd" d="M39.9763 15.4658C39.3202 15.4658 38.8047 14.9503 38.8047 14.2942V10.2637C38.8047 9.60757 39.3202 9.09204 39.9763 9.09204C40.6325 9.09204 41.148 9.60757 41.148 10.2637V14.2942C41.148 14.9503 40.6325 15.4658 39.9763 15.4658Z" fill="#393939"/>
<path fill-rule="evenodd" clip-rule="evenodd" d="M52.8661 18.9806C52.6318 18.9806 52.4443 18.8869 52.2569 18.84C51.7414 18.512 51.5539 17.8558 51.882 17.2466L53.8972 13.7785C54.2253 13.263 54.8814 13.0287 55.4438 13.3567C55.9593 13.6848 56.1467 14.3409 55.8187 14.9502L53.8035 18.4182C53.616 18.6994 53.2411 18.9806 52.8661 18.9806Z" fill="#393939"/>
<path fill-rule="evenodd" clip-rule="evenodd" d="M62.2372 28.3071C61.8623 28.3071 61.4874 28.1196 61.2999 27.7447C60.9719 27.1823 61.1593 26.4793 61.6749 26.1513L65.1898 24.136C65.7053 23.808 66.4083 24.0423 66.7364 24.5578C67.0644 25.0733 66.877 25.7763 66.3614 26.1044L62.8465 28.1196C62.659 28.3071 62.4716 28.3071 62.2372 28.3071Z" fill="#393939"/>
<path fill-rule="evenodd" clip-rule="evenodd" d="M17.8108 28.307C17.5764 28.307 17.389 28.2602 17.2015 28.1664L13.6866 26.1512C13.171 25.8232 12.9836 25.167 13.3116 24.6046C13.6397 24.0423 14.3427 23.9017 14.8582 24.2297L18.3732 26.2449C18.8887 26.573 19.0761 27.1823 18.7481 27.7915C18.5606 28.1196 18.1857 28.307 17.8108 28.307Z" fill="#393939"/>
<path fill-rule="evenodd" clip-rule="evenodd" d="M27.1822 18.9807C26.8072 18.9807 26.4323 18.7464 26.2448 18.3714L24.2296 14.8565C23.9016 14.341 24.089 13.638 24.6045 13.3099C25.1201 12.9819 25.8231 13.1693 26.1511 13.6849L28.1663 17.1998C28.4944 17.7153 28.3069 18.4183 27.7914 18.7464C27.604 18.887 27.4165 18.9807 27.1822 18.9807Z" fill="#393939"/>
<path fill-rule="evenodd" clip-rule="evenodd" d="M39.9756 46.3034C37.2105 46.3034 34.9141 44.007 34.9141 41.1482C34.9141 38.2894 37.2105 36.0398 39.9756 36.0398C42.7875 36.0398 45.1308 38.2894 45.1308 41.1482C45.1308 44.007 42.7875 46.3034 39.9756 46.3034ZM39.9756 38.3831C38.429 38.3831 37.2105 39.6485 37.2105 41.2419C37.2105 42.7885 38.429 44.1007 39.9756 44.1007C41.569 44.1007 42.8344 42.7885 42.8344 41.2419C42.8344 39.6485 41.569 38.3831 39.9756 38.3831Z" fill="#393939"/>
<path fill-rule="evenodd" clip-rule="evenodd" d="M43.2576 39.9765C42.9764 39.9765 42.6483 39.8827 42.4609 39.6484C41.9922 39.2266 41.9922 38.4768 42.4609 38.055L50.7093 29.8066C51.1779 29.3379 51.8809 29.3379 52.3496 29.8066C52.7714 30.2752 52.7714 30.9782 52.3496 31.4L44.1012 39.6484C43.82 39.9296 43.5856 39.9765 43.2576 39.9765Z" fill="#393939"/>
<path fill-rule="evenodd" clip-rule="evenodd" d="M39.9763 38.3831C39.3202 38.3831 38.8047 37.8676 38.8047 37.2115V19.918C38.8047 19.2619 39.3202 18.7463 39.9763 18.7463C40.6325 18.7463 41.148 19.2619 41.148 19.918V37.2583C41.148 37.8676 40.6325 38.3831 39.9763 38.3831Z" fill="#393939"/>
<path fill-rule="evenodd" clip-rule="evenodd" d="M78.8283 41.1482C78.1722 41.1482 77.6567 40.6327 77.6567 39.9766C77.6567 20.9022 63.3626 4.87406 44.4757 2.57763C43.0228 2.39017 41.57 2.3433 39.9766 2.3433C38.1957 2.3433 36.4148 2.4839 34.6807 2.71823C16.2156 5.38958 2.34329 21.3708 2.34329 39.9766C2.34329 40.6327 1.82777 41.1482 1.17165 41.1482C0.515524 41.1482 0 40.6327 0 39.9766C0.0468658 20.2461 14.8096 3.23375 34.3527 0.515533C36.2273 0.281204 38.1019 0.046875 39.9766 0.046875C41.6169 0.046875 43.2572 0.140607 44.71 0.32807C64.8155 2.71823 79.9063 19.7305 79.9063 39.9766C79.9063 40.6327 79.3907 41.1482 78.8283 41.1482Z" fill="#393939"/>
</g>
<defs>
<clipPath id="clip0_1731_3008">
<rect width="80" height="80" fill="white"/>
</clipPath>
</defs>
</svg>
