<svg width="55" height="80" viewBox="0 0 55 80" fill="none" xmlns="http://www.w3.org/2000/svg">
<path d="M6.78563 25.6573C6.58377 25.855 6.31639 25.9875 6.01518 26.018C5.99855 26.0197 5.98191 26.021 5.96514 26.0222C5.96428 26.0222 5.96328 26.0223 5.96227 26.0223C5.93575 26.0239 5.90966 26.0247 5.88356 26.0247C5.5812 26.0247 5.29963 25.9187 5.07727 25.7397L5.07713 25.7395C5.07612 25.7388 5.07526 25.7381 5.0744 25.7374C5.07411 25.7372 5.07383 25.7369 5.07354 25.7368C5.07297 25.7364 5.07225 25.7358 5.07168 25.7352C5.07125 25.7349 5.07067 25.7345 5.07024 25.7341C5.06981 25.7336 5.06938 25.7333 5.06895 25.7331C5.06838 25.7326 5.06766 25.732 5.06709 25.7316C5.0668 25.7315 5.06652 25.7312 5.06623 25.7309C5.06551 25.7303 5.06465 25.7297 5.06393 25.729C5.05734 25.7236 5.05075 25.718 5.04415 25.7123C5.04329 25.7116 5.04243 25.7109 5.04157 25.7102L5.04114 25.7099C5.04042 25.7093 5.03971 25.7086 5.03885 25.708C5.0387 25.7077 5.03827 25.7075 5.03799 25.7073C5.03741 25.7067 5.03684 25.7063 5.03612 25.7057C5.03569 25.7054 5.03526 25.705 5.03483 25.7047C5.0344 25.7043 5.03397 25.7039 5.0334 25.7034C5.03282 25.7028 5.03211 25.7023 5.03139 25.7017C5.03125 25.7014 5.03096 25.7013 5.03067 25.701C5.001 25.6747 4.97261 25.647 4.94537 25.6183L0.359058 20.8201C-0.134125 20.3042 -0.117207 19.4846 0.397194 18.9899C0.911451 18.4951 1.72821 18.5121 2.22154 19.028L4.57649 21.4911C5.13375 13.0431 10.3256 5.44899 18.214 1.96313C23.8168 -0.512473 30.0452 -0.651269 35.7522 1.57278C41.459 3.79667 45.9608 8.11718 48.4283 13.7382C48.7156 14.3925 48.4197 15.1565 47.7677 15.4446C47.1154 15.7327 46.3538 15.4358 46.0668 14.7817C43.8771 9.79367 39.8821 5.95973 34.8179 3.9861C29.7539 2.01261 24.2267 2.13544 19.2543 4.33259C12.2352 7.43428 7.62175 14.2013 7.14735 21.7218L9.78258 19.1858C10.2971 18.691 11.1137 18.708 11.6071 19.2239C12.1004 19.7398 12.0833 20.5592 11.5691 21.0541L6.78563 25.6573ZM54.6353 25.243L49.9546 20.4082C49.7024 20.1438 49.3394 19.9881 48.951 20.0099C48.9503 20.0099 48.9496 20.0099 48.9486 20.0101C48.9281 20.0112 48.9077 20.0129 48.8872 20.0149C48.5829 20.0467 48.3131 20.1831 48.1109 20.3853L43.4182 25.0271C42.9107 25.5291 42.905 26.3486 43.4052 26.8578C43.9057 27.367 44.7226 27.3727 45.2299 26.8707L47.7523 24.3759C47.2487 31.8625 42.6423 38.5916 35.6514 41.6806C32.9927 42.8554 30.2164 43.4113 27.4821 43.4112C19.6606 43.4109 12.1884 38.861 8.83893 31.2314C8.55177 30.5772 7.79035 30.2804 7.13803 30.5685C6.48585 30.8566 6.19008 31.6206 6.47739 32.2749C10.2521 40.8732 18.6712 46.0006 27.4858 46C30.5664 45.9999 33.6963 45.3733 36.6919 44.0498C44.5813 40.5635 49.7757 32.9631 50.3299 24.5112L52.7844 27.0465C53.2809 27.5593 54.0976 27.5713 54.609 27.0733C55.1198 26.5755 55.1317 25.7559 54.6353 25.243Z" fill="#393939"/>
<path d="M28.0283 64.9079C31.2411 64.9079 33.8457 62.4232 33.8457 59.3581C33.8457 56.2931 31.2411 53.8083 28.0283 53.8083C24.8155 53.8083 22.2109 56.2931 22.2109 59.3581C22.2109 62.4232 24.8155 64.9079 28.0283 64.9079Z" stroke="#393939" stroke-width="2.11538" stroke-linecap="round" stroke-linejoin="round"/>
<path d="M36.1753 76.007C36.1753 73.9463 35.3173 71.9701 33.7899 70.513C32.2626 69.0559 30.191 68.2373 28.031 68.2373C25.871 68.2373 23.7995 69.0559 22.2721 70.513C20.7448 71.9701 19.8867 73.9463 19.8867 76.007H36.1753Z" stroke="#393939" stroke-width="2.11538" stroke-linecap="round" stroke-linejoin="round"/>
<path d="M37.3375 60.4679C38.3291 60.4679 39.3042 60.2261 40.1703 59.7655C41.0364 59.3048 41.7647 58.6406 42.286 57.8359C42.8073 57.0311 43.1044 56.1127 43.149 55.1676C43.1935 54.2226 42.9841 53.2824 42.5407 52.4362C42.0972 51.5901 41.4344 50.8662 40.6152 50.3332C39.796 49.8002 38.8475 49.4758 37.8599 49.3908C36.8723 49.3059 35.8783 49.4632 34.9724 49.8478C34.0664 50.2324 33.2786 50.8315 32.6836 51.5883" stroke="#393939" stroke-width="2.11538" stroke-linecap="round" stroke-linejoin="round"/>
<path d="M38.4994 71.5678H45.4802C45.4802 69.5071 44.6222 67.5309 43.0948 66.0738C41.5675 64.6167 39.4959 63.7981 37.3359 63.7981" stroke="#393939" stroke-width="2.11538" stroke-linecap="round" stroke-linejoin="round"/>
<path d="M23.3775 51.5883C22.7825 50.8315 21.9947 50.2324 21.0887 49.8478C20.1828 49.4632 19.1888 49.3059 18.2012 49.3908C17.2136 49.4758 16.2651 49.8002 15.4459 50.3332C14.6267 50.8662 13.9639 51.5901 13.5204 52.4362C13.0769 53.2824 12.8676 54.2226 12.9121 55.1676C12.9567 56.1127 13.2538 57.0311 13.7751 57.8359C14.2964 58.6406 15.0247 59.3048 15.8908 59.7655C16.7569 60.2261 17.732 60.4679 18.7236 60.4679" stroke="#393939" stroke-width="2.11538" stroke-linecap="round" stroke-linejoin="round"/>
<path d="M18.7224 63.7981C16.5624 63.7981 14.4909 64.6167 12.9635 66.0738C11.4362 67.5309 10.5781 69.5071 10.5781 71.5678H17.559" stroke="#393939" stroke-width="2.11538" stroke-linecap="round" stroke-linejoin="round"/>
<path fill-rule="evenodd" clip-rule="evenodd" d="M27.5009 18.2537C26.186 18.2537 24.9249 18.776 23.9951 19.7058C23.0653 20.6356 22.543 21.8967 22.543 23.2116C22.543 24.5265 23.0653 25.7876 23.9951 26.7174C24.9249 27.6472 26.186 28.1695 27.5009 28.1695C28.8158 28.1695 30.0769 27.6472 31.0067 26.7174C31.9365 25.7876 32.4588 24.5265 32.4588 23.2116C32.4588 21.8967 31.9365 20.6356 31.0067 19.7058C30.0769 18.776 28.8158 18.2537 27.5009 18.2537ZM24.5261 23.2116C24.5261 22.4226 24.8396 21.666 25.3974 21.1081C25.9553 20.5502 26.7119 20.2368 27.5009 20.2368C28.2899 20.2368 29.0465 20.5502 29.6044 21.1081C30.1622 21.666 30.4757 22.4226 30.4757 23.2116C30.4757 24.0005 30.1622 24.7572 29.6044 25.3151C29.0465 25.8729 28.2899 26.1864 27.5009 26.1864C26.7119 26.1864 25.9553 25.8729 25.3974 25.3151C24.8396 24.7572 24.5261 24.0005 24.5261 23.2116Z" fill="#393939"/>
<path fill-rule="evenodd" clip-rule="evenodd" d="M27.4671 8.99878C26.8787 8.99878 26.3882 8.99878 25.9863 9.02522C25.5754 9.04177 25.1701 9.12667 24.7871 9.27642C24.3459 9.45899 23.9449 9.7267 23.6071 10.0643C23.2693 10.4018 23.0014 10.8026 22.8185 11.2437C22.6268 11.7065 22.5752 12.1957 22.5541 12.7271C22.5517 12.9215 22.5001 13.112 22.4042 13.281C22.3083 13.45 22.171 13.592 22.0054 13.6936C21.8346 13.7866 21.643 13.8347 21.4486 13.8336C21.2541 13.8324 21.0632 13.782 20.8935 13.687C20.4228 13.4384 19.9733 13.2388 19.4762 13.1727C19.0028 13.1104 18.5218 13.142 18.0606 13.2656C17.5994 13.3893 17.1671 13.6025 16.7883 13.8933C16.4676 14.1504 16.1919 14.4591 15.9726 14.8068C15.7478 15.1426 15.5019 15.567 15.2084 16.0761L15.1753 16.1342C14.8805 16.6432 14.6359 17.0676 14.4588 17.4299C14.2737 17.808 14.1282 18.1809 14.0753 18.5934C13.9492 19.5492 14.2079 20.5161 14.7946 21.2812C15.1 21.6792 15.4979 21.9687 15.9475 22.2517C16.1149 22.3509 16.2544 22.4911 16.3529 22.6589C16.4514 22.8268 16.5057 23.0169 16.5107 23.2115C16.5057 23.4061 16.4514 23.5962 16.3529 23.7641C16.2544 23.932 16.1149 24.0721 15.9475 24.1714C15.4979 24.4543 15.1013 24.7439 14.7946 25.1418C14.5039 25.5206 14.2906 25.9529 14.167 26.4141C14.0433 26.8753 14.0118 27.3563 14.074 27.8297C14.1282 28.2422 14.2723 28.615 14.4574 28.9931C14.6359 29.3554 14.8805 29.7798 15.1753 30.2888L15.2084 30.347C15.5019 30.856 15.7478 31.2804 15.9726 31.6162C16.2066 31.9639 16.4578 32.2773 16.7883 32.5285C17.167 32.8194 17.5993 33.0329 18.0604 33.1568C18.5216 33.2806 19.0027 33.3124 19.4762 33.2503C19.9733 33.1842 20.4228 32.9859 20.8935 32.736C21.063 32.6413 21.2537 32.591 21.4479 32.5898C21.6421 32.5887 21.8334 32.6367 22.0041 32.7294C22.1711 32.8298 22.3095 32.9714 22.406 33.1406C22.5026 33.3099 22.554 33.5011 22.5554 33.6959C22.5752 34.2274 22.6268 34.7166 22.8198 35.1793C23.0024 35.6206 23.2701 36.0215 23.6076 36.3593C23.9452 36.6971 24.346 36.9651 24.7871 37.1479C25.1705 37.3066 25.5672 37.3687 25.9863 37.3965C26.3882 37.4243 26.8787 37.4243 27.4671 37.4243H27.5332C28.1215 37.4243 28.612 37.4243 29.0139 37.3978C29.4344 37.3687 29.8297 37.3066 30.2131 37.1466C30.6543 36.964 31.0553 36.6963 31.3931 36.3588C31.7309 36.0212 31.9988 35.6204 32.1817 35.1793C32.3734 34.7166 32.425 34.2274 32.4461 33.6959C32.4483 33.5013 32.4997 33.3105 32.5957 33.1413C32.6916 32.972 32.829 32.8298 32.9948 32.7281C33.1657 32.6353 33.3573 32.5874 33.5518 32.5888C33.7462 32.5902 33.9372 32.6408 34.1067 32.736C34.5774 32.9846 35.0269 33.1842 35.524 33.249C36.4799 33.3751 37.4467 33.1164 38.2119 32.5298C38.5424 32.2759 38.7936 31.9639 39.0276 31.6162C39.2524 31.2804 39.4983 30.856 39.7918 30.347L39.8249 30.2888C40.1197 29.7798 40.3643 29.3554 40.5415 28.9931C40.7265 28.615 40.872 28.2408 40.9249 27.8297C41.051 26.8738 40.7923 25.907 40.2056 25.1418C39.9002 24.7439 39.5023 24.4543 39.0527 24.1714C38.8853 24.0721 38.7458 23.932 38.6473 23.7641C38.5488 23.5962 38.4945 23.4061 38.4895 23.2115C38.4895 22.844 38.6905 22.4791 39.0527 22.2517C39.5023 21.9687 39.8989 21.6792 40.2056 21.2812C40.4963 20.9025 40.7096 20.4701 40.8332 20.009C40.9569 19.5478 40.9885 19.0668 40.9262 18.5934C40.8639 18.1869 40.7343 17.7937 40.5428 17.4299C40.317 16.9907 40.0776 16.5586 39.8249 16.1342L39.7918 16.0761C39.5503 15.6452 39.2955 15.2219 39.0276 14.8068C38.8082 14.4596 38.5325 14.1513 38.2119 13.8946C37.8332 13.6036 37.4009 13.3901 36.9398 13.2663C36.4786 13.1424 35.9975 13.1106 35.524 13.1727C35.0269 13.2388 34.5774 13.4371 34.1067 13.687C33.9372 13.7818 33.7465 13.8321 33.5523 13.8332C33.3581 13.8344 33.1668 13.7863 32.9961 13.6936C32.83 13.5923 32.6923 13.4505 32.5958 13.2815C32.4994 13.1124 32.4475 12.9217 32.4448 12.7271C32.425 12.1957 32.3734 11.7065 32.1804 11.2437C31.9978 10.8025 31.7301 10.4015 31.3926 10.0637C31.055 9.72594 30.6542 9.45797 30.2131 9.2751C29.8297 9.11645 29.433 9.05431 29.0139 9.02654C28.612 8.99878 28.1215 8.99878 27.5332 8.99878H27.4671ZM25.546 11.1076C25.6478 11.0652 25.8025 11.0269 26.1211 11.0044C26.4477 10.982 26.8708 10.982 27.5001 10.982C28.1294 10.982 28.5525 10.982 28.8791 11.0044C29.1977 11.0269 29.3524 11.0652 29.4542 11.1076C29.8601 11.2755 30.1814 11.5967 30.3493 12.0026C30.4021 12.1295 30.4458 12.3292 30.463 12.8012C30.5026 13.8483 31.0434 14.8571 32.0032 15.411C32.9631 15.965 34.1067 15.9293 35.0335 15.4401C35.4513 15.2193 35.6457 15.1572 35.7832 15.14C36.2176 15.0826 36.657 15.2001 37.0048 15.4666C37.0921 15.534 37.2031 15.649 37.3816 15.9134C37.5654 16.1858 37.7769 16.552 38.0916 17.0967C38.4062 17.6414 38.6165 18.009 38.7606 18.3025C38.902 18.5894 38.9457 18.7428 38.9589 18.8525C39.0163 19.2869 38.8988 19.7263 38.6323 20.0741C38.5477 20.1839 38.397 20.3214 37.9977 20.5726C37.1092 21.1305 36.5064 22.1036 36.5064 23.2115C36.5064 24.3195 37.1092 25.2925 37.9977 25.8505C38.397 26.1017 38.5477 26.2392 38.6323 26.3489C38.8994 26.6966 39.0157 27.1356 38.9589 27.5705C38.9457 27.6803 38.9007 27.835 38.7606 28.1205C38.6165 28.4154 38.4062 28.7816 38.0916 29.3263C37.7769 29.871 37.564 30.2372 37.3816 30.5096C37.2031 30.774 37.0921 30.889 37.0048 30.9565C36.657 31.223 36.2176 31.3404 35.7832 31.283C35.6457 31.2658 35.4526 31.2037 35.0335 30.9829C34.108 30.4937 32.9631 30.4567 32.0032 31.0107C31.0434 31.5646 30.5026 32.5747 30.463 33.6219C30.4458 34.0939 30.4021 34.2935 30.3493 34.4204C30.2662 34.6211 30.1444 34.8035 29.9908 34.957C29.8372 35.1106 29.6549 35.2324 29.4542 35.3155C29.3524 35.3578 29.1977 35.3961 28.8791 35.4186C28.5525 35.4411 28.1294 35.4411 27.5001 35.4411C26.8708 35.4411 26.4477 35.4411 26.1211 35.4186C25.8025 35.3961 25.6478 35.3578 25.546 35.3155C25.3453 35.2324 25.163 35.1106 25.0094 34.957C24.8558 34.8035 24.734 34.6211 24.6509 34.4204C24.5981 34.2935 24.5544 34.0939 24.5372 33.6219C24.4976 32.5747 23.9568 31.566 22.997 31.012C22.0371 30.458 20.8935 30.4937 19.9667 30.9829C19.5489 31.2037 19.3545 31.2658 19.217 31.283C18.7826 31.3404 18.3432 31.223 17.9954 30.9565C17.9082 30.889 17.7971 30.774 17.6186 30.5096C17.3699 30.1225 17.1331 29.7279 16.9086 29.3263C16.594 28.7816 16.3838 28.414 16.2396 28.1205C16.0982 27.8336 16.0545 27.6803 16.0413 27.5705C15.9839 27.1361 16.1014 26.6967 16.3679 26.3489C16.4525 26.2392 16.6032 26.1017 17.0025 25.8505C17.891 25.2925 18.4939 24.3195 18.4939 23.2115C18.4939 22.1036 17.891 21.1305 17.0025 20.5726C16.6032 20.3214 16.4525 20.1839 16.3679 20.0741C16.1014 19.7263 15.9839 19.2869 16.0413 18.8525C16.0545 18.7428 16.0995 18.5881 16.2396 18.3025C16.3838 18.0077 16.594 17.6414 16.9086 17.0967C17.2233 16.552 17.4362 16.1858 17.6186 15.9134C17.7971 15.649 17.9082 15.534 17.9954 15.4666C18.3432 15.2001 18.7826 15.0826 19.217 15.14C19.3545 15.1572 19.5476 15.2193 19.9667 15.4401C20.8922 15.9293 22.0371 15.9663 22.997 15.411C23.9568 14.8571 24.4976 13.8483 24.5372 12.8012C24.5544 12.3292 24.5981 12.1295 24.6509 12.0026C24.8189 11.5967 25.1401 11.2755 25.546 11.1076Z" fill="#393939"/>
</svg>
