<svg width="80" height="80" viewBox="0 0 80 80" fill="none" xmlns="http://www.w3.org/2000/svg">
<g clip-path="url(#clip0_1784_3182)">
<path d="M56.5097 57.1429H45.0812V56.5562C47.6056 55.986 49.9789 55.0032 52.1618 53.6279L54.3675 55.8349L61.551 48.6514L59.344 46.4457C60.7193 44.2629 61.7008 41.8895 62.2723 39.3651H65.3986V31.746H70.478V29.2064H67.9383C67.9383 16.0051 58.6761 4.64889 45.8291 1.92C45.1701 0.778413 43.951 0 42.5415 0H37.4621C36.0526 0 34.8335 0.778413 34.1745 1.92C21.3275 4.64889 12.0653 16.0051 12.0653 29.2064H9.52561V31.746H14.605V39.3651H17.7313C18.3015 41.8895 19.2843 44.2629 20.6596 46.4457L18.4526 48.6514L25.6361 55.8349L27.8418 53.6279C30.0247 55.0032 32.398 55.9848 34.9224 56.5562V57.1429H23.4939C23.2551 57.1429 23.0227 57.1721 22.7853 57.1784L15.645 50.0368C15.7974 49.4349 15.8748 48.8368 15.8748 48.254C15.8748 43.2152 10.9237 39.2254 5.68307 41.106L3.80116 41.7841L7.73005 45.7143L5.71608 47.7283L1.78593 43.7981L1.10783 45.68C0.795449 46.5511 0.636719 47.4171 0.636719 48.254C0.636719 52.4559 4.05386 55.873 8.25577 55.873C8.83862 55.873 9.43672 55.7956 10.0386 55.6432L13.7504 59.3537C6.01323 63.021 0.636719 70.8851 0.636719 80H3.1764C3.1764 74.259 5.58021 69.0768 9.42275 65.3778C12.7612 69.5086 14.605 74.6832 14.605 80H17.1447C17.1447 79.1492 17.0913 78.3022 17.0075 77.4603H38.732V80H41.2716V77.4603H62.9961C62.9123 78.3022 62.8589 79.1492 62.8589 80H65.3986C65.3986 74.6832 67.2424 69.5086 70.5808 65.3778C74.4234 69.0768 76.8272 74.259 76.8272 80H79.3669C79.3669 67.3968 69.1129 57.1429 56.5097 57.1429ZM14.605 29.2064C14.605 17.5695 22.5237 7.50857 33.6526 4.64635V19.0476H36.1923V3.80952C36.1923 3.10857 36.7612 2.53968 37.4621 2.53968H42.5415C43.2424 2.53968 43.8113 3.10857 43.8113 3.80952V19.0476H46.351V4.64635C57.4799 7.50857 65.3986 17.5695 65.3986 29.2064H63.2132L61.9434 33.0159H18.0602L16.7904 29.2064H14.605ZM51.3554 35.5556C50.7218 41.261 45.8748 45.7143 40.0018 45.7143C34.1288 45.7143 29.2818 41.261 28.6481 35.5556H51.3554ZM28.4031 50.9549L27.5307 50.3467L25.6348 52.2438L22.0424 48.6514L23.9396 46.7556L23.3313 45.8832C21.6526 43.473 20.5377 40.7771 20.0196 37.8705L19.8342 36.8254H17.1447V35.5556H26.0983C26.7421 42.6641 32.7281 48.254 40.0018 48.254C47.2754 48.254 53.2615 42.6641 53.9053 35.5556H62.8589V36.8254H60.1694L59.984 37.8717C59.4659 40.7771 58.351 43.473 56.6723 45.8844L56.064 46.7568L57.9612 48.6527L54.3688 52.2451L52.4729 50.3479L51.6005 50.9562C49.1904 52.6349 46.4945 53.7498 43.5878 54.2679L42.5415 54.4533V57.1429H37.4621V54.4533L36.4158 54.2667C33.5104 53.7486 30.8145 52.6337 28.4031 50.9549ZM10.7269 52.7391L9.96751 53.0108C9.36688 53.2279 8.80688 53.3333 8.25577 53.3333C5.64243 53.3333 3.4837 51.3498 3.20561 48.8102L5.71608 51.3194L11.3212 45.7143L8.81196 43.2038C11.3516 43.4819 13.3351 45.6406 13.3351 48.254C13.3351 48.8051 13.2297 49.3651 13.0126 49.967L12.7408 50.7263L19.5269 57.5124C18.4247 57.7067 17.3491 57.9733 16.3066 58.32L10.7269 52.7391ZM38.732 74.9206H16.6189C15.7986 70.8444 14.0081 66.9968 11.3656 63.7384C14.7548 61.2038 18.9453 59.6825 23.4939 59.6825H27.9383L38.732 74.0749V74.9206ZM40.0018 71.534L31.1129 59.6825H34.9224H45.0812H48.8907L40.0018 71.534ZM63.3847 74.9206H41.2716V74.0749L52.0653 59.6825H56.5097C61.0583 59.6825 65.2488 61.2038 68.638 63.7384C65.9954 66.9968 64.2062 70.8444 63.3847 74.9206Z" fill="#393939"/>
<path d="M60.3185 26.6667H19.6836V29.2064H60.3185V26.6667Z" fill="#393939"/>
</g>
<defs>
<clipPath id="clip0_1784_3182">
<rect width="80" height="80" fill="white"/>
</clipPath>
</defs>
</svg>
