<svg width="80" height="80" viewBox="0 0 80 80" fill="none" xmlns="http://www.w3.org/2000/svg">
<path d="M14.5109 59.9875C14.8734 59.9875 15.2484 59.875 15.5609 59.65C16.3609 59.0625 16.5359 57.95 15.9609 57.15C12.1472 51.9291 10.0979 45.628 10.1109 39.1625C10.1109 24.275 20.7234 11.6125 35.3484 9.03751C36.3234 8.86251 36.9734 7.93751 36.7984 6.96251C36.7577 6.7309 36.6717 6.50961 36.5453 6.31132C36.4189 6.11302 36.2546 5.94161 36.0618 5.80691C35.8691 5.67222 35.6516 5.57688 35.422 5.52636C35.1923 5.47584 34.9549 5.47113 34.7234 5.51251C18.3859 8.38751 6.52344 22.5375 6.52344 39.1625C6.52344 46.4375 8.78594 53.375 13.0484 59.25C13.4109 59.7375 13.9484 59.9875 14.5109 59.9875Z" fill="url(#paint0_linear_1734_3065)"/>
<path d="M78.2123 69.7875H55.9373C67.1873 64.175 74.9373 52.5625 74.9373 39.1625C74.9373 25.575 66.7123 13.3 54.4998 7.89999L60.3373 5.11249C61.2248 4.68749 61.6123 3.61249 61.1873 2.72499C60.9818 2.29715 60.6156 1.9678 60.1685 1.80861C59.7213 1.64942 59.2294 1.67327 58.7998 1.87499L48.8123 6.64999C48.3623 6.86249 48.0248 7.24999 47.8748 7.72499C47.7248 8.19999 47.7873 8.71249 48.0248 9.14999L53.5123 18.7625C53.6296 18.9669 53.786 19.1463 53.9726 19.2902C54.1593 19.4342 54.3725 19.54 54.6 19.6015C54.8275 19.663 55.065 19.6791 55.2987 19.6488C55.5325 19.6185 55.7579 19.5425 55.9623 19.425C56.8248 18.9375 57.1248 17.8375 56.6248 16.9875L53.3748 11.3C64.1373 16.2 71.3623 27.1 71.3623 39.15C71.3623 56.0375 57.6248 69.775 40.7498 69.775H6.36229L8.32479 67.95C9.04979 67.275 9.08729 66.1375 8.41229 65.425C7.73729 64.7 6.59979 64.6625 5.88729 65.3375L0.624789 70.2375C0.330572 70.4818 0.125603 70.8167 0.0419232 71.1899C-0.0417563 71.5631 0.000571404 71.9534 0.162289 72.3L0.174789 72.3125C0.224789 72.4125 0.274789 72.5125 0.337289 72.6C0.362289 72.6375 0.399789 72.675 0.424789 72.7C0.474789 72.75 0.512289 72.8125 0.562289 72.85C0.574789 72.8625 0.574789 72.875 0.587289 72.8875L5.88729 77.8125C6.23729 78.1375 6.67479 78.2875 7.09979 78.2875C7.57479 78.2875 8.06229 78.1 8.41229 77.7125C9.08729 76.9875 9.03729 75.85 8.31229 75.175L6.34979 73.35H78.1998C79.1873 73.35 79.9873 72.55 79.9873 71.5625C79.9873 70.575 79.1998 69.7875 78.2123 69.7875Z" fill="url(#paint1_linear_1734_3065)"/>
<path d="M41.4391 19.675C30.3266 19.675 21.2891 28.7125 21.2891 39.8251C21.2891 50.9375 30.3266 59.9875 41.4391 59.9875C52.5516 59.9875 61.6016 50.9375 61.6016 39.8251C61.6016 28.7125 52.5516 19.675 41.4391 19.675ZM41.4391 56.4C32.3016 56.4 24.8766 48.9625 24.8766 39.8251C24.8766 30.6875 32.3016 23.2625 41.4391 23.2625C50.5766 23.2625 58.0141 30.6875 58.0141 39.8251C58.0141 48.9625 50.5766 56.4 41.4391 56.4Z" fill="url(#paint2_linear_1734_3065)"/>
<path d="M51.4745 29.7999C50.7745 29.0999 49.637 29.0999 48.937 29.7999L42.4495 36.2874C41.1995 35.9374 39.812 36.2374 38.8245 37.2124C38.1338 37.9065 37.7461 38.8458 37.7461 39.8249C37.7461 40.804 38.1338 41.7433 38.8245 42.4374C39.5495 43.1624 40.4995 43.5249 41.437 43.5249C42.387 43.5249 43.337 43.1624 44.0495 42.4374C45.037 41.4624 45.3245 40.0749 44.9745 38.8249L51.4745 32.3374C52.1745 31.6374 52.1745 30.4999 51.4745 29.7999ZM41.5245 39.9124C41.4745 39.9499 41.412 39.9499 41.362 39.9124C41.312 39.8624 41.312 39.7999 41.362 39.7499C41.387 39.7249 41.412 39.7124 41.437 39.7124C41.4745 39.7124 41.4995 39.7249 41.5245 39.7499C41.562 39.7999 41.562 39.8624 41.5245 39.9124Z" fill="url(#paint3_linear_1734_3065)"/>
<defs>
<linearGradient id="paint0_linear_1734_3065" x1="21.6752" y1="5.48462" x2="21.6752" y2="59.9875" gradientUnits="userSpaceOnUse">
<stop stop-color="#9747FF"/>
<stop offset="1" stop-color="#4B9ADB"/>
</linearGradient>
<linearGradient id="paint1_linear_1734_3065" x1="39.9936" y1="1.70435" x2="39.9936" y2="78.2875" gradientUnits="userSpaceOnUse">
<stop stop-color="#9747FF"/>
<stop offset="1" stop-color="#4B9ADB"/>
</linearGradient>
<linearGradient id="paint2_linear_1734_3065" x1="41.4453" y1="19.675" x2="41.4453" y2="59.9875" gradientUnits="userSpaceOnUse">
<stop stop-color="#9747FF"/>
<stop offset="1" stop-color="#4B9ADB"/>
</linearGradient>
<linearGradient id="paint3_linear_1734_3065" x1="44.8728" y1="29.2749" x2="44.8728" y2="43.5249" gradientUnits="userSpaceOnUse">
<stop stop-color="#9747FF"/>
<stop offset="1" stop-color="#4B9ADB"/>
</linearGradient>
</defs>
</svg>
