<svg width="80" height="80" viewBox="0 0 80 80" fill="none" xmlns="http://www.w3.org/2000/svg">
<g clip-path="url(#clip0_1732_3041)">
<path d="M57.2023 29.8711C54.1628 31.9187 51.0075 33.4417 47.3845 34.6113C51.1155 27.3959 52.7457 20.2448 52.8925 11.5077L55.2349 12.4032C57.5977 13.3065 59.5186 10.3441 57.73 8.55531L51.0338 1.85909C50.1181 0.943456 48.6337 0.943456 47.7181 1.85909L40.9975 8.57953C39.21 10.367 41.1272 13.3281 43.4897 12.4285L45.8585 11.5265C45.7313 19.1429 44.4834 24.9238 41.3928 30.9613C38.9303 23.2258 35.0298 17.0192 28.9617 10.7414L31.2593 9.71461C33.5688 8.68254 32.8323 5.22947 30.3027 5.22947H20.8328C19.538 5.22947 18.4883 6.27921 18.4883 7.57403V17.0783C18.4883 19.6062 21.9378 20.3442 22.9722 18.0376L24.0057 15.7329C25.3272 17.1003 26.5186 18.4361 27.5946 19.7717" stroke="#393939" stroke-width="2" stroke-miterlimit="10" stroke-linecap="round" stroke-linejoin="round"/>
<path d="M24.3868 49.1615C26.9456 47.5986 29.615 46.3804 32.5927 45.4082C28.9404 52.575 27.2809 59.8358 27.1268 68.4988L24.7674 67.5969C22.4045 66.6936 20.4837 69.6561 22.2723 71.4448L28.9685 78.141C29.8841 79.0567 31.3686 79.0567 32.2842 78.141L39.0046 71.4206C40.7921 69.6331 38.8749 66.6721 36.5124 67.5716L34.16 68.4674C34.2896 60.8243 35.5281 55.0405 38.5673 49.0544C41.0539 56.7094 45.018 63.02 51.0408 69.2586L48.7428 70.2855C46.4333 71.3176 47.1698 74.7706 49.6994 74.7706H59.1693C60.4641 74.7706 61.5138 73.7209 61.5138 72.4261V62.9217C61.5138 60.3938 58.0643 59.6557 57.0299 61.9623L55.9963 64.2672C50.6741 58.7646 47.456 53.7957 45.3703 47.4078C52.5476 51.0654 59.819 52.7246 68.4987 52.8746L67.5972 55.2331C66.6939 57.596 69.6563 59.5168 71.4451 57.7282L78.1413 51.032C79.0569 50.1163 79.0569 48.6319 78.1413 47.7163L71.4208 40.9958C69.6333 39.2084 66.6723 41.1256 67.5718 43.4881L68.4679 45.8413C60.8073 45.7153 55.0152 44.4781 49.0204 41.4352C56.7695 38.9716 62.984 35.0665 69.271 28.987L70.2859 31.2578C71.318 33.5673 74.7711 32.8308 74.7711 30.3012V20.8314C74.7711 19.5366 73.7213 18.4868 72.4265 18.4868H62.9226C60.3947 18.4868 59.6566 21.9363 61.9632 22.9707L64.2949 24.0164C63.143 25.1308 62.0135 26.1529 60.888 27.0914" stroke="#393939" stroke-width="2" stroke-miterlimit="10" stroke-linecap="round" stroke-linejoin="round"/>
<path d="M30.5502 23.9038C32.2421 26.6061 33.5442 29.4307 34.5729 32.6171C27.3679 28.8916 20.2268 27.2607 11.5071 27.11L12.4029 24.7669C13.3061 22.404 10.3437 20.4832 8.55497 22.2718L1.8586 28.9679C0.942968 29.8835 0.942968 31.3679 1.8586 32.2835L8.5792 39.0041C10.3667 40.7916 13.3277 38.8744 12.4282 36.5119L11.5265 34.1439C19.1255 34.2747 24.898 35.524 30.9268 38.6109C23.2849 41.0963 16.9827 45.0556 10.7532 51.0671L9.71428 48.7423C8.68221 46.4328 5.22914 47.1693 5.22914 49.6989V59.1688C5.22914 60.4636 6.27887 61.5133 7.5737 61.5133H17.0779C19.6058 61.5133 20.3439 58.0639 18.0373 57.0294L15.7595 56.008C17.439 54.3852 19.0689 52.9583 20.7051 51.6998" stroke="#393939" stroke-width="2" stroke-miterlimit="10" stroke-linecap="round" stroke-linejoin="round"/>
</g>
<defs>
<clipPath id="clip0_1732_3041">
<rect width="80" height="80" fill="white"/>
</clipPath>
</defs>
</svg>
