<svg width="80" height="80" viewBox="0 0 80 80" fill="none" xmlns="http://www.w3.org/2000/svg">
<path d="M14.7745 37.8771H14.7752C14.8466 37.9187 14.9228 37.9501 15.0008 37.9715C15.0834 37.9942 15.1673 38.0054 15.2512 38.0054H15.2522C15.2686 38.0054 15.2858 37.9996 15.3028 37.9987C15.368 37.9954 15.4336 37.9898 15.4961 37.9728C15.5148 37.9682 15.532 37.9578 15.5509 37.951C15.6116 37.9309 15.6716 37.9095 15.7269 37.8781C15.7284 37.8771 15.7297 37.8771 15.7306 37.8762L29.0327 30.1757C29.3275 30.0057 29.5089 29.6906 29.5089 29.35V22.6239H42.4547C43.0644 22.6239 43.5792 23.1473 43.5792 23.7673V30.3096L43.1867 29.9929C42.7761 29.6606 42.1755 29.7253 41.8428 30.1354C41.512 30.5459 41.5756 31.1479 41.9863 31.4792L43.9341 33.0526C43.9398 33.0575 43.9477 33.0593 43.9539 33.0635C44.0298 33.1218 44.1128 33.1692 44.2033 33.2031C44.2191 33.2085 44.2336 33.2123 44.2486 33.2171C44.3394 33.2459 44.4344 33.2654 44.5344 33.2654C44.6339 33.2654 44.7272 33.2459 44.817 33.2175C44.8334 33.2132 44.8483 33.2092 44.8637 33.2031C44.9541 33.1701 45.0361 33.125 45.1111 33.0667C45.1173 33.0625 45.1252 33.0606 45.1312 33.056L47.0988 31.4826C47.5106 31.1525 47.5778 30.5521 47.248 30.1395C46.9188 29.7271 46.3172 29.6598 45.9047 29.9903L45.4898 30.322V23.7675C45.4898 22.0832 44.1284 20.7132 42.4548 20.7132H29.5091V13.9875C29.5091 13.9084 29.4969 13.8334 29.4788 13.7601C29.4744 13.7393 29.467 13.7201 29.4606 13.7C29.443 13.6459 29.4217 13.5934 29.3955 13.545C29.3858 13.526 29.3764 13.5078 29.3656 13.4895C29.3269 13.4267 29.2836 13.3681 29.2327 13.3153C29.2313 13.3153 29.2306 13.3137 29.2302 13.3125C29.1763 13.2596 29.1153 13.2145 29.0503 13.1745C29.0436 13.1706 29.0384 13.1642 29.0312 13.1601L15.7295 5.47761C15.4345 5.30855 15.0706 5.3073 14.7745 5.47761L1.45391 13.1598C1.44594 13.164 1.44109 13.1704 1.43344 13.1757C1.36922 13.2145 1.30859 13.2596 1.25594 13.3125C1.25359 13.3137 1.25266 13.3164 1.24984 13.3185C1.20047 13.3692 1.15781 13.4268 1.11969 13.4895C1.10875 13.5078 1.1 13.526 1.08938 13.545C1.06359 13.5943 1.04219 13.6459 1.02563 13.7C1.01906 13.7201 1.01141 13.7393 1.00672 13.7601C0.988906 13.8334 0.976562 13.9084 0.976562 13.9875V29.35C0.976562 29.6906 1.15797 30.0057 1.45344 30.177L14.7739 37.8768C14.7745 37.8771 14.7745 37.8771 14.7745 37.8771ZM25.95 22.6239H27.5984V28.7989L16.2072 35.3925V22.2204L27.5984 15.642V20.7131H25.95C25.4216 20.7131 24.9947 21.1406 24.9947 21.6682C24.9947 22.1959 25.4216 22.6239 25.95 22.6239ZM15.2512 7.40933L26.6431 13.9875L15.2512 20.5656L3.84406 13.9875L15.2512 7.40933ZM2.88656 15.6409L14.2967 22.2207V35.3937L2.88656 28.7989V15.6409ZM78.07 34.6328H28.5917C28.0639 34.6328 27.6366 35.0609 27.6366 35.5889V50.0139H17.3316C16.7117 50.0139 16.2073 49.5096 16.2073 48.8893V42.3317L16.6047 42.6484C17.0164 42.9782 17.6187 42.9103 17.9473 42.4979C18.2764 42.0856 18.2084 41.4839 17.7962 41.1545L15.8477 39.6C15.8417 39.5954 15.8347 39.5942 15.8288 39.5896C15.7541 39.532 15.6714 39.4862 15.5817 39.4539C15.5662 39.4478 15.5516 39.4435 15.5358 39.4392C15.4475 39.4104 15.3552 39.3918 15.2569 39.3915C15.2558 39.3915 15.2552 39.3915 15.2536 39.3915H15.252C15.1536 39.3915 15.0612 39.4098 14.9722 39.4379C14.9563 39.4421 14.9414 39.4462 14.9261 39.4523C14.8353 39.485 14.753 39.531 14.6777 39.5875C14.6716 39.5914 14.665 39.5929 14.6595 39.5975L12.693 41.152C12.2786 41.4798 12.2086 42.08 12.5358 42.4945C12.7244 42.7331 13.0041 42.857 13.2859 42.857C13.4937 42.857 13.702 42.7901 13.878 42.651L14.2967 42.3203V48.8892C14.2967 50.5637 15.658 51.9254 17.3316 51.9254H27.6366V65.9003C27.6366 66.4282 28.0639 66.8567 28.5917 66.8567H47.6263V68.805H47.1763C45.3787 68.805 43.9167 70.2676 43.9167 72.0642V73.6945C43.9167 74.2228 44.3441 74.6493 44.872 74.6493H61.7894C62.3173 74.6493 62.7447 74.2228 62.7447 73.6945V72.0642C62.7447 70.2676 61.2911 68.805 59.5041 68.805H59.0353V66.8567H78.0698C78.5977 66.8567 79.0252 66.4282 79.0252 65.9003V35.589C79.0253 35.061 78.5978 34.6328 78.07 34.6328ZM33.837 50.014H29.5467V36.5439H77.1148V58.894H29.5467V51.9256H33.837C34.365 51.9256 34.7923 51.4975 34.7923 50.9695C34.7923 50.4421 34.365 50.014 33.837 50.014ZM53.3402 63.1103C53.2123 63.1103 53.0959 62.9934 53.0959 62.8664C53.0959 62.7443 53.2077 62.6409 53.3402 62.6409C53.4727 62.6409 53.5842 62.7443 53.5842 62.8664C53.5842 62.9934 53.4678 63.1103 53.3402 63.1103ZM29.5467 60.8059H52.8037C51.8758 61.0434 51.1856 61.8734 51.1856 62.8665C51.1856 63.869 51.8772 64.7064 52.8061 64.9457H29.5467V60.8059ZM60.8342 72.0645V72.7398H45.8272V72.0645C45.8272 71.3207 46.4328 70.7156 47.1763 70.7156H59.5041C60.2375 70.7156 60.8342 71.3207 60.8342 72.0645ZM57.1248 68.8053H49.5367V66.857H57.1248V68.8053ZM53.8745 64.9456C54.8031 64.7064 55.4947 63.8689 55.4947 62.8664C55.4947 61.8734 54.8045 61.0432 53.8764 60.8057H77.1148V64.9454H53.8745V64.9456ZM35.7481 46.0229V43.1942C35.7481 43.1829 35.7519 43.1714 35.7525 43.1596C35.7547 43.1001 35.7628 43.0409 35.7766 42.9814C35.7806 42.9634 35.7838 42.9448 35.7887 42.9259C35.8102 42.8548 35.8372 42.785 35.8763 42.7171C35.8763 42.7165 35.8763 42.7165 35.8763 42.7165C35.8767 42.7159 35.8767 42.7153 35.8767 42.7153C35.9152 42.6484 35.9625 42.5904 36.0136 42.537C36.0277 42.522 36.0444 42.5089 36.0597 42.4937C36.102 42.4562 36.1466 42.4214 36.1942 42.3915C36.205 42.3835 36.2142 42.3735 36.2258 42.3671L38.6617 40.9612C39.1178 40.6981 39.7028 40.8537 39.967 41.3125C40.2311 41.769 40.0739 42.3534 39.6172 42.6175L38.613 43.1967L40.2552 44.1479C40.7116 44.4121 40.868 44.997 40.603 45.4534C40.4256 45.7592 40.105 45.9295 39.7759 45.9295C39.6131 45.9295 39.4487 45.8885 39.2977 45.8014L37.6588 44.852V46.0229C37.6588 46.5509 37.2316 46.979 36.7036 46.979C36.1756 46.979 35.7481 46.5509 35.7481 46.0229ZM47.8184 54.8978C48.0806 55.3559 47.922 55.939 47.4634 56.2012L45.0088 57.6071C44.998 57.6126 44.9858 57.6148 44.9748 57.6203C44.9236 57.6471 44.8708 57.6689 44.8153 57.6859C44.7959 57.6926 44.7772 57.6993 44.7577 57.7039C44.6861 57.7212 44.6119 57.7332 44.5344 57.7332C44.457 57.7332 44.382 57.7214 44.3097 57.7039C44.2905 57.6987 44.2719 57.6914 44.2525 57.6859C44.1956 57.6676 44.142 57.6459 44.0903 57.6187C44.0794 57.6126 44.0678 57.6114 44.0569 57.604L41.6214 56.2C41.1647 55.9357 41.0078 55.3518 41.272 54.8946C41.5353 54.4381 42.1206 54.2806 42.5767 54.5453L43.5794 55.1235V53.236C43.5794 52.7087 44.0067 52.2809 44.5345 52.2809C45.0625 52.2809 45.4898 52.7087 45.4898 53.236V55.13L46.5148 54.5424C46.9698 54.2815 47.5553 54.4393 47.8184 54.8978ZM35.7481 52.262V49.4332C35.7481 48.9053 36.1755 48.4778 36.7034 48.4778C37.2314 48.4778 37.6586 48.9053 37.6586 49.4332V51.7101L39.6169 52.8396C40.0736 53.1031 40.2308 53.6878 39.9667 54.1451C39.79 54.4512 39.4684 54.6228 39.1386 54.6228C38.9764 54.6228 38.812 54.5809 38.6616 54.495L36.2256 53.0906C35.93 52.9196 35.7481 52.6034 35.7481 52.262ZM53.3402 49.4332V52.262C53.3402 52.6035 53.1581 52.9196 52.8625 53.0906L50.4266 54.495C50.2764 54.581 50.1116 54.6228 49.9497 54.6228C49.6198 54.6228 49.2986 54.4512 49.1219 54.1451C48.8578 53.6876 49.0145 53.1029 49.4714 52.8396L51.4297 51.7101V49.4332C51.4297 48.9053 51.8569 48.4778 52.3848 48.4778C52.913 48.4778 53.3402 48.9053 53.3402 49.4332ZM40.9911 40.7131C40.7266 40.2565 40.8828 39.6721 41.3391 39.4078L44.0558 37.8343C44.3503 37.6628 44.7159 37.6628 45.0108 37.8328L47.7459 39.4062C48.2038 39.6687 48.3613 40.2534 48.0977 40.7103C47.9211 41.0179 47.5997 41.1896 47.2691 41.1896C47.1072 41.1896 46.9433 41.149 46.7934 41.0625L44.5364 39.7645L42.2969 41.0609C41.8398 41.3262 41.2564 41.17 40.9911 40.7131ZM43.5792 49.8075V48.4482L42.1459 47.619C41.6889 47.3553 41.5325 46.7703 41.7973 46.3135C42.0611 45.8564 42.6466 45.7014 43.1022 45.9648L44.5373 46.7951L45.9895 45.9629C46.447 45.7014 47.0305 45.8592 47.2936 46.3176C47.5559 46.7748 47.3969 47.3595 46.9395 47.6214L45.4898 48.4509V49.8078C45.4898 50.336 45.0625 50.7635 44.5345 50.7635C44.0066 50.7632 43.5792 50.3356 43.5792 49.8075ZM48.4853 45.4534C48.2206 44.9968 48.377 44.4121 48.8331 44.1479L50.4756 43.1967L49.4712 42.6175C49.0144 42.3535 48.8575 41.769 49.1217 41.3125C49.3855 40.8543 49.9697 40.699 50.4266 40.9612L52.8625 42.3671C52.8734 42.3735 52.8817 42.3825 52.892 42.3898C52.9409 42.4203 52.9872 42.4564 53.0305 42.4964C53.0453 42.5092 53.0605 42.5223 53.0741 42.5364C53.1258 42.5907 53.173 42.6487 53.2116 42.7154C53.2116 42.7154 53.2116 42.716 53.2123 42.7167V42.7173C53.2511 42.7851 53.278 42.8549 53.2994 42.926C53.3045 42.945 53.3077 42.9635 53.3117 42.9818C53.3252 43.041 53.3334 43.1003 53.3355 43.1598C53.3361 43.1714 53.34 43.1829 53.34 43.1943V46.0231C53.34 46.551 52.9128 46.9792 52.3847 46.9792C51.8567 46.9792 51.4295 46.551 51.4295 46.0231V44.8521L49.7908 45.8015C49.6398 45.8889 49.475 45.9296 49.3125 45.9296C48.9834 45.9295 48.6628 45.7592 48.4853 45.4534ZM60.2159 42.0328C60.2159 41.5054 60.6433 41.0776 61.1711 41.0776H70.4259C70.9539 41.0776 71.3808 41.5054 71.3808 42.0328C71.3808 42.5607 70.9539 42.9889 70.4259 42.9889H61.1711C60.6433 42.9889 60.2159 42.5607 60.2159 42.0328ZM60.2159 46.5667C60.2159 46.04 60.6433 45.6112 61.1711 45.6112H70.4259C70.9539 45.6112 71.3808 46.04 71.3808 46.5667C71.3808 47.094 70.9539 47.5225 70.4259 47.5225H61.1711C60.6433 47.5226 60.2159 47.094 60.2159 46.5667ZM60.2159 51.1193C60.2159 50.5917 60.6433 50.1639 61.1711 50.1639H70.4259C70.9539 50.1639 71.3808 50.5917 71.3808 51.1193C71.3808 51.647 70.9539 52.0751 70.4259 52.0751H61.1711C60.6433 52.0751 60.2159 51.647 60.2159 51.1193Z" fill="url(#paint0_linear_1796_3660)"/>
<defs>
<linearGradient id="paint0_linear_1796_3660" x1="40.0009" y1="5.35034" x2="40.0009" y2="74.6493" gradientUnits="userSpaceOnUse">
<stop stop-color="#9747FF"/>
<stop offset="1" stop-color="#4B9ADB"/>
</linearGradient>
</defs>
</svg>
