<svg width="80" height="80" viewBox="0 0 80 80" fill="none" xmlns="http://www.w3.org/2000/svg">
<path d="M19.7352 18.6666C21.4997 18.6666 22.9352 17.2311 22.9352 15.4666C22.9352 13.7021 21.4997 12.2666 19.7352 12.2666C17.9706 12.2666 16.5352 13.7021 16.5352 15.4666C16.5352 17.2311 17.9706 18.6666 19.7352 18.6666ZM19.7352 14.3999C20.3232 14.3999 20.8018 14.8786 20.8018 15.4666C20.8018 16.0546 20.3232 16.5333 19.7352 16.5333C19.1472 16.5333 18.6685 16.0546 18.6685 15.4666C18.6685 14.8786 19.1472 14.3999 19.7352 14.3999Z" fill="url(#paint0_linear_1808_4381)"/>
<path d="M61.8668 27.8069C62.4967 27.8069 63.0071 27.2963 63.0071 26.6667C63.0071 26.0371 62.4964 25.5261 61.8668 25.5261C61.2372 25.5261 60.7266 26.0368 60.7266 26.6667C60.7266 27.2965 61.237 27.8069 61.8668 27.8069Z" fill="url(#paint1_linear_1808_4381)"/>
<path d="M51.6056 17.729C51.8138 17.9373 52.0869 18.0416 52.3597 18.0416C52.6325 18.0416 52.9056 17.9373 53.1138 17.729L53.868 16.9749L54.6221 17.729C54.8304 17.9373 55.1034 18.0416 55.3762 18.0416C55.649 18.0416 55.9221 17.9373 56.1304 17.729C56.5469 17.3125 56.5469 16.6373 56.1304 16.2208L55.3762 15.4666L56.1304 14.7125C56.5469 14.296 56.5469 13.6208 56.1304 13.2042C55.7138 12.7877 55.0386 12.7877 54.6221 13.2042L53.868 13.9584L53.1138 13.2042C52.6973 12.7877 52.0221 12.7877 51.6056 13.2042C51.189 13.6208 51.189 14.296 51.6056 14.7125L52.3597 15.4666L51.6056 16.2208C51.1888 16.6376 51.1888 17.3125 51.6056 17.729Z" fill="url(#paint2_linear_1808_4381)"/>
<path d="M67.7336 55.9999C70.6741 55.9999 73.0669 53.6071 73.0669 50.6666C73.0669 50.0775 72.5899 49.5999 72.0003 49.5999H71.7032C71.8923 49.1666 72.0003 48.6906 72.0003 48.1885V39.9999C72.0003 39.4109 71.5232 38.9333 70.9336 38.9333C69.196 38.9333 67.6645 39.781 66.6904 41.0714C66.6821 41.0711 66.6752 41.0666 66.6669 41.0666H61.5347C60.2464 41.0666 59.0749 41.5271 58.1336 42.2679V39.9999C58.1336 39.4109 57.6565 38.9333 57.0669 38.9333H49.6003V32.5333C50.1899 32.5333 50.6669 32.0557 50.6669 31.4666C50.6669 30.8775 50.1899 30.3999 49.6003 30.3999V22.9333C49.6003 22.3442 49.1232 21.8666 48.5336 21.8666H45.3336C44.744 21.8666 44.2669 22.3442 44.2669 22.9333V30.3999C43.6773 30.3999 43.2003 30.8775 43.2003 31.4666C43.2003 32.0557 43.6773 32.5333 44.2669 32.5333V38.9333H35.7336V23.9999C36.3227 23.9999 36.8003 23.5223 36.8003 22.9333C36.8003 22.3442 36.3227 21.8666 35.7336 21.8666V14.3999C35.7336 13.8109 35.256 13.3333 34.6669 13.3333H31.4669C30.8779 13.3333 30.4003 13.8109 30.4003 14.3999V21.8666C29.8112 21.8666 29.3336 22.3442 29.3336 22.9333C29.3336 23.5223 29.8112 23.9999 30.4003 23.9999V38.9333H21.8669V37.8666C22.456 37.8666 22.9336 37.389 22.9336 36.7999C22.9336 36.2109 22.456 35.7333 21.8669 35.7333V28.2666C21.8669 27.6775 21.3893 27.1999 20.8003 27.1999H17.6003C17.0112 27.1999 16.5336 27.6775 16.5336 28.2666V35.7333C15.9445 35.7333 15.4669 36.2109 15.4669 36.7999C15.4669 37.389 15.9445 37.8666 16.5336 37.8666V38.9333H9.06693C8.47786 38.9333 8.00026 39.4109 8.00026 39.9999V54.9333C8.00026 55.5223 8.47786 55.9999 9.06693 55.9999H11.2003V65.5999H8.00026C7.41119 65.5999 6.93359 66.0775 6.93359 66.6666C6.93359 67.2557 7.41119 67.7333 8.00026 67.7333H69.8669C70.4565 67.7333 70.9336 67.2557 70.9336 66.6666C70.9336 66.0775 70.4565 65.5999 69.8669 65.5999H66.6669V55.9999H67.7336ZM69.8669 41.2495V48.1885C69.8669 48.9666 69.2336 49.5999 68.4555 49.5999H67.7336V44.2666C67.7336 42.8759 68.6253 41.6895 69.8669 41.2495ZM61.5347 43.1999H65.6003V44.2666V49.5999H58.1336V46.6015C58.1336 44.7261 59.6597 43.1999 61.5347 43.1999ZM46.4003 23.9999H47.4669V30.3999H46.4003V23.9999ZM47.4669 32.5333V44.2666H46.4003V32.5333H47.4669ZM32.5336 15.4666H33.6003V21.8666H32.5336V15.4666ZM33.6003 23.9999V42.9135C32.9632 42.5442 32.5336 41.8546 32.5336 41.0666V23.9999H33.6003ZM18.6669 29.3333H19.7336V35.7333H18.6669V29.3333ZM19.7336 37.8666V44.2666H18.6669V37.8666H19.7336ZM10.1336 41.0666H16.5336V44.2666H14.4003C13.8112 44.2666 13.3336 44.7442 13.3336 45.3333C13.3336 45.9223 13.8112 46.3999 14.4003 46.3999H24.0003C24.5893 46.3999 25.0669 45.9223 25.0669 45.3333C25.0669 44.7442 24.5893 44.2666 24.0003 44.2666H21.8669V41.0666H30.4003C30.4003 42.3469 30.9789 43.4839 31.8749 44.2666H28.2669C27.6779 44.2666 27.2003 44.7442 27.2003 45.3333C27.2003 45.9223 27.6779 46.3999 28.2669 46.3999H37.8669C38.4565 46.3999 38.9336 45.9223 38.9336 45.3333C38.9336 44.7442 38.4565 44.2666 37.8669 44.2666H35.7336V41.0666H44.2669V44.2666H42.1336C41.544 44.2666 41.0669 44.7442 41.0669 45.3333C41.0669 45.9223 41.544 46.3999 42.1336 46.3999H51.7336C52.3232 46.3999 52.8003 45.9223 52.8003 45.3333C52.8003 44.7442 52.3232 44.2666 51.7336 44.2666H49.6003V41.0666H56.0003V50.6666C56.0003 51.2557 56.4773 51.7333 57.0669 51.7333H66.6669H68.4555H70.7512C70.3107 52.9749 69.124 53.8666 67.7336 53.8666H10.1336V41.0666ZM19.7336 55.9999V57.8469C19.0965 57.4775 18.6669 56.7879 18.6669 55.9999H19.7336ZM20.8003 60.2666C21.3893 60.2666 21.8669 59.789 21.8669 59.1999V55.9999H61.3336V65.5999H16.5336V55.9999C16.5336 58.3525 18.4477 60.2666 20.8003 60.2666ZM13.3336 55.9999H14.4003V65.5999H13.3336V55.9999ZM64.5336 65.5999H63.4669V55.9999H64.5336V65.5999Z" fill="url(#paint3_linear_1808_4381)"/>
<defs>
<linearGradient id="paint0_linear_1808_4381" x1="19.7352" y1="12.2666" x2="19.7352" y2="18.6666" gradientUnits="userSpaceOnUse">
<stop stop-color="#9747FF"/>
<stop offset="1" stop-color="#4B9ADB"/>
</linearGradient>
<linearGradient id="paint1_linear_1808_4381" x1="61.8668" y1="25.5261" x2="61.8668" y2="27.8069" gradientUnits="userSpaceOnUse">
<stop stop-color="#9747FF"/>
<stop offset="1" stop-color="#4B9ADB"/>
</linearGradient>
<linearGradient id="paint2_linear_1808_4381" x1="53.8679" y1="12.8918" x2="53.8679" y2="18.0416" gradientUnits="userSpaceOnUse">
<stop stop-color="#9747FF"/>
<stop offset="1" stop-color="#4B9ADB"/>
</linearGradient>
<linearGradient id="paint3_linear_1808_4381" x1="40.0003" y1="13.3333" x2="40.0003" y2="67.7333" gradientUnits="userSpaceOnUse">
<stop stop-color="#9747FF"/>
<stop offset="1" stop-color="#4B9ADB"/>
</linearGradient>
</defs>
</svg>
