<svg width="80" height="80" viewBox="0 0 80 80" fill="none" xmlns="http://www.w3.org/2000/svg">
<path d="M40 43.75C40.7417 43.75 41.4667 43.5301 42.0834 43.118C42.7001 42.706 43.1807 42.1203 43.4645 41.4351C43.7484 40.7498 43.8226 39.9958 43.6779 39.2684C43.5333 38.541 43.1761 37.8728 42.6516 37.3484C42.1272 36.8239 41.459 36.4668 40.7316 36.3221C40.0042 36.1774 39.2502 36.2516 38.5649 36.5355C37.8797 36.8193 37.294 37.2999 36.882 37.9166C36.4699 38.5333 36.25 39.2583 36.25 40C36.25 40.9946 36.6451 41.9484 37.3483 42.6517C38.0516 43.3549 39.0054 43.75 40 43.75ZM40 38.75C40.2472 38.75 40.4889 38.8233 40.6945 38.9607C40.9 39.098 41.0602 39.2932 41.1548 39.5216C41.2495 39.7501 41.2742 40.0014 41.226 40.2439C41.1778 40.4863 41.0587 40.7091 40.8839 40.8839C40.7091 41.0587 40.4863 41.1778 40.2439 41.226C40.0014 41.2742 39.7501 41.2495 39.5216 41.1548C39.2932 41.0602 39.098 40.9 38.9607 40.6945C38.8233 40.4889 38.75 40.2472 38.75 40C38.75 39.6685 38.8817 39.3505 39.1161 39.1161C39.3505 38.8817 39.6685 38.75 40 38.75Z" fill="url(#paint0_linear_1800_3666)"/>
<path d="M72.5 36.25H67.5C67.1685 36.25 66.8505 36.3817 66.6161 36.6161C66.3817 36.8505 66.25 37.1685 66.25 37.5V38.75H51.25V30C51.25 29.6685 51.1183 29.3505 50.8839 29.1161C50.6495 28.8817 50.3315 28.75 50 28.75H41.25V13.75H42.5C42.8315 13.75 43.1495 13.6183 43.3839 13.3839C43.6183 13.1495 43.75 12.8315 43.75 12.5V7.5C43.75 7.16848 43.6183 6.85054 43.3839 6.61612C43.1495 6.3817 42.8315 6.25 42.5 6.25H37.5C37.1685 6.25 36.8505 6.3817 36.6161 6.61612C36.3817 6.85054 36.25 7.16848 36.25 7.5V12.5C36.25 12.8315 36.3817 13.1495 36.6161 13.3839C36.8505 13.6183 37.1685 13.75 37.5 13.75H38.75V28.75H30C29.6685 28.75 29.3505 28.8817 29.1161 29.1161C28.8817 29.3505 28.75 29.6685 28.75 30V38.75H13.75V37.5C13.75 37.1685 13.6183 36.8505 13.3839 36.6161C13.1495 36.3817 12.8315 36.25 12.5 36.25H7.5C7.16848 36.25 6.85054 36.3817 6.61612 36.6161C6.3817 36.8505 6.25 37.1685 6.25 37.5V42.5C6.25 42.8315 6.3817 43.1495 6.61612 43.3839C6.85054 43.6183 7.16848 43.75 7.5 43.75H12.5C12.8315 43.75 13.1495 43.6183 13.3839 43.3839C13.6183 43.1495 13.75 42.8315 13.75 42.5V41.25H28.75V50C28.75 50.3315 28.8817 50.6495 29.1161 50.8839C29.3505 51.1183 29.6685 51.25 30 51.25H38.75V66.25H37.5C37.1685 66.25 36.8505 66.3817 36.6161 66.6161C36.3817 66.8505 36.25 67.1685 36.25 67.5V72.5C36.25 72.8315 36.3817 73.1495 36.6161 73.3839C36.8505 73.6183 37.1685 73.75 37.5 73.75H42.5C42.8315 73.75 43.1495 73.6183 43.3839 73.3839C43.6183 73.1495 43.75 72.8315 43.75 72.5V67.5C43.75 67.1685 43.6183 66.8505 43.3839 66.6161C43.1495 66.3817 42.8315 66.25 42.5 66.25H41.25V51.25H50C50.3315 51.25 50.6495 51.1183 50.8839 50.8839C51.1183 50.6495 51.25 50.3315 51.25 50V41.25H66.25V42.5C66.25 42.8315 66.3817 43.1495 66.6161 43.3839C66.8505 43.6183 67.1685 43.75 67.5 43.75H72.5C72.8315 43.75 73.1495 43.6183 73.3839 43.3839C73.6183 43.1495 73.75 42.8315 73.75 42.5V37.5C73.75 37.1685 73.6183 36.8505 73.3839 36.6161C73.1495 36.3817 72.8315 36.25 72.5 36.25ZM38.75 8.75H41.25V11.25H38.75V8.75ZM11.25 41.25H8.75V38.75H11.25V41.25ZM41.25 71.25H38.75V68.75H41.25V71.25ZM48.75 48.75H31.25V31.25H48.75V48.75ZM71.25 41.25H68.75V38.75H71.25V41.25Z" fill="url(#paint1_linear_1800_3666)"/>
<path d="M40 1.25C32.336 1.25 24.8441 3.52265 18.4717 7.78055C12.0993 12.0385 7.13258 18.0904 4.19969 25.171C1.26679 32.2517 0.499411 40.043 1.99459 47.5597C3.48976 55.0765 7.18035 61.9811 12.5996 67.4004C18.0189 72.8197 24.9235 76.5102 32.4403 78.0054C39.957 79.5006 47.7484 78.7332 54.829 75.8003C61.9096 72.8674 67.9616 67.9007 72.2195 61.5283C76.4774 55.1559 78.75 47.664 78.75 40C78.7384 29.7264 74.6521 19.8769 67.3876 12.6124C60.1231 5.34788 50.2736 1.26158 40 1.25ZM40 76.25C32.8304 76.25 25.8219 74.124 19.8606 70.1408C13.8993 66.1576 9.25306 60.4961 6.50938 53.8723C3.76571 47.2485 3.04784 39.9598 4.44655 32.928C5.84526 25.8962 9.29774 19.437 14.3674 14.3674C19.437 9.29772 25.8962 5.84525 32.928 4.44653C39.9598 3.04782 47.2485 3.76569 53.8723 6.50937C60.4961 9.25304 66.1576 13.8993 70.1408 19.8606C74.124 25.8219 76.25 32.8304 76.25 40C76.2391 49.6107 72.4164 58.8247 65.6206 65.6206C58.8247 72.4164 49.6108 76.2391 40 76.25Z" fill="url(#paint2_linear_1800_3666)"/>
<path d="M10.9335 32.4463C11.0515 32.4818 11.1741 32.4999 11.2973 32.5001C11.5654 32.5001 11.8263 32.414 12.0417 32.2545C12.2571 32.0949 12.4155 31.8703 12.4935 31.6138C13.8692 27.0745 16.3497 22.9474 19.7126 19.6024C23.0754 16.2574 27.2157 13.799 31.7623 12.4476C32.0736 12.3475 32.3332 12.1294 32.4856 11.8401C32.638 11.5508 32.671 11.2133 32.5774 10.9C32.4839 10.5867 32.2713 10.3225 31.9853 10.1641C31.6992 10.0057 31.3625 9.96563 31.0473 10.0526C26.1049 11.5214 21.6042 14.1936 17.9485 17.8296C14.2929 21.4657 11.5965 25.9519 10.101 30.8863C10.0532 31.0434 10.0368 31.2084 10.0528 31.3718C10.0688 31.5352 10.1168 31.6939 10.1941 31.8388C10.2714 31.9837 10.3765 32.1119 10.5034 32.2161C10.6302 32.3204 10.7764 32.3986 10.9335 32.4463Z" fill="url(#paint3_linear_1800_3666)"/>
<defs>
<linearGradient id="paint0_linear_1800_3666" x1="40" y1="36.25" x2="40" y2="43.75" gradientUnits="userSpaceOnUse">
<stop stop-color="#9747FF"/>
<stop offset="1" stop-color="#4B9ADB"/>
</linearGradient>
<linearGradient id="paint1_linear_1800_3666" x1="40" y1="6.25" x2="40" y2="73.75" gradientUnits="userSpaceOnUse">
<stop stop-color="#9747FF"/>
<stop offset="1" stop-color="#4B9ADB"/>
</linearGradient>
<linearGradient id="paint2_linear_1800_3666" x1="40" y1="1.25" x2="40" y2="78.75" gradientUnits="userSpaceOnUse">
<stop stop-color="#9747FF"/>
<stop offset="1" stop-color="#4B9ADB"/>
</linearGradient>
<linearGradient id="paint3_linear_1800_3666" x1="21.3383" y1="10.0076" x2="21.3383" y2="32.5001" gradientUnits="userSpaceOnUse">
<stop stop-color="#9747FF"/>
<stop offset="1" stop-color="#4B9ADB"/>
</linearGradient>
</defs>
</svg>
