<svg width="96" height="96" viewBox="0 0 96 96" fill="none" xmlns="http://www.w3.org/2000/svg">
<path d="M90.6404 35.92H85.7194C84.8344 31.934 83.2804 28.173 81.0914 24.715L84.5784 21.214C85.0324 20.758 85.0324 20.02 84.5784 19.564L75.3124 10.261C75.0934 10.041 74.7954 9.917 74.4844 9.917C74.1734 9.917 73.8754 10.041 73.6564 10.261L70.1744 13.757C66.7324 11.561 62.9884 10.003 59.0194 9.115V4.169C59.0194 3.523 58.4954 3 57.8504 3H44.7464C44.1014 3 43.5774 3.523 43.5774 4.169V9.115C39.6094 10.003 35.8654 11.561 32.4224 13.757L28.9394 10.261C28.7204 10.041 28.4224 9.917 28.1114 9.917C27.8004 9.917 27.5024 10.041 27.2834 10.261L18.0174 19.564C17.5634 20.02 17.5634 20.758 18.0174 21.214L21.5034 24.714C19.3144 28.171 17.7604 31.932 16.8754 35.92H11.9554C11.3104 35.92 10.7864 36.443 10.7864 37.089V50.245C10.7864 50.89 11.3094 51.414 11.9554 51.414H16.8774C17.1814 52.779 17.5674 54.128 18.0314 55.447C10.0504 57.735 4.19141 65.122 4.19141 73.857C4.19141 84.413 12.7474 93 23.2634 93C32.4314 93 40.1084 86.473 41.9264 77.806C42.4734 77.957 43.0244 78.096 43.5784 78.221V83.166C43.5784 83.811 44.1014 84.335 44.7474 84.335H57.8504C58.4954 84.335 59.0194 83.812 59.0194 83.166V78.219C62.9874 77.331 66.7304 75.773 70.1734 73.577L73.6564 77.073C73.8754 77.293 74.1734 77.417 74.4844 77.417C74.7954 77.417 75.0934 77.293 75.3124 77.073L84.5784 67.77C85.0324 67.314 85.0324 66.576 84.5784 66.12L81.0924 62.62C83.2814 59.163 84.8354 55.401 85.7204 51.413H90.6404C91.2854 51.413 91.8094 50.89 91.8094 50.244V37.089C91.8094 36.444 91.2854 35.92 90.6404 35.92ZM23.2634 90.662C14.0364 90.662 6.52941 83.123 6.52941 73.857C6.52941 64.591 14.0364 57.052 23.2634 57.052C32.4904 57.052 39.9974 64.591 39.9974 73.857C39.9974 83.123 32.4904 90.662 23.2634 90.662ZM30.0854 55.982C27.9344 52.253 26.7964 48.005 26.7964 43.667C26.7964 30.1 37.7874 19.063 51.2984 19.063C64.8094 19.063 75.8004 30.101 75.8004 43.667C75.8004 57.233 64.8084 68.271 51.2984 68.271C47.5224 68.271 43.9104 67.432 40.5524 65.782C38.4674 61.305 34.7074 57.765 30.0854 55.982ZM89.4714 49.076H84.7704C84.2104 49.076 83.7294 49.473 83.6224 50.022C82.7794 54.368 81.0984 58.44 78.6254 62.123C78.3144 62.586 78.3744 63.204 78.7674 63.599L82.0994 66.945L74.4834 74.591L71.1564 71.251C70.7604 70.854 70.1384 70.794 69.6734 71.108C66.0034 73.59 61.9504 75.277 57.6254 76.123C57.0764 76.23 56.6804 76.711 56.6804 77.27V81.997H45.9154V77.272C45.9154 76.713 45.5194 76.232 44.9704 76.125C44.0634 75.948 43.1574 75.73 42.2654 75.475C42.3104 74.942 42.3344 74.403 42.3344 73.858C42.3344 72.115 42.0994 70.426 41.6624 68.82C44.7224 70.006 47.9524 70.609 51.2974 70.609C66.0964 70.609 78.1374 58.523 78.1374 43.667C78.1374 28.811 66.0974 16.725 51.2974 16.725C36.4974 16.725 24.4574 28.811 24.4574 43.667C24.4574 47.63 25.3244 51.526 26.9804 55.081C25.7774 54.841 24.5344 54.715 23.2624 54.715C22.2664 54.715 21.2884 54.792 20.3334 54.941C19.7554 53.342 19.2984 51.692 18.9754 50.023C18.8684 49.474 18.3874 49.077 17.8274 49.077H13.1244V38.258H17.8264C18.3864 38.258 18.8674 37.861 18.9744 37.312C19.8174 32.966 21.4984 28.895 23.9714 25.212C24.2824 24.749 24.2224 24.131 23.8294 23.736L20.4974 20.39L28.1134 12.744L31.4404 16.085C31.8364 16.482 32.4584 16.542 32.9234 16.228C36.5934 13.746 40.6464 12.058 44.9714 11.213C45.5204 11.106 45.9164 10.625 45.9164 10.066V5.338H56.6824V10.065C56.6824 10.624 57.0784 11.105 57.6274 11.212C61.9534 12.057 66.0074 13.744 69.6754 16.227C70.1404 16.541 70.7624 16.481 71.1584 16.084L74.4854 12.744L82.1014 20.39L78.7684 23.737C78.3744 24.132 78.3154 24.75 78.6264 25.213C81.0994 28.898 82.7804 32.969 83.6224 37.313C83.7294 37.862 84.2104 38.259 84.7704 38.259H89.4734V49.076H89.4714ZM65.9814 57.235V30.099C65.9814 29.454 65.4584 28.93 64.8124 28.93H37.7834C37.1384 28.93 36.6144 29.453 36.6144 30.099V57.235C36.6144 57.88 37.1374 58.404 37.7834 58.404H64.8124C65.4584 58.404 65.9814 57.881 65.9814 57.235ZM56.2604 39.606L52.2574 33.849C52.0394 33.535 51.6804 33.348 51.2974 33.348C50.9144 33.348 50.5564 33.535 50.3374 33.849L46.3344 39.606V31.267H56.2594L56.2604 39.606ZM43.9984 31.268V41.809C43.9984 42.454 44.5214 42.978 45.1674 42.978H46.2114H46.2134H46.2284C46.5974 42.978 46.9614 42.802 47.1884 42.476L51.2984 36.565L55.4084 42.476C55.6354 42.802 55.9984 42.977 56.3684 42.978H57.4294C58.0744 42.978 58.5984 42.455 58.5984 41.809V31.268H63.6444V49.984H38.9524V31.268H43.9984ZM38.9524 56.066V52.321H63.6434V56.066H38.9524ZM32.1194 67.451C32.5894 67.893 32.6124 68.633 32.1704 69.103L21.7264 80.213C21.4964 80.458 21.1864 80.581 20.8744 80.581C20.5874 80.581 20.3004 80.476 20.0744 80.264L14.4084 74.944C13.9374 74.502 13.9144 73.762 14.3564 73.292C14.7984 72.821 15.5384 72.798 16.0084 73.24L20.8234 77.76L30.4674 67.501C30.9094 67.031 31.6484 67.009 32.1194 67.451Z" fill="url(#paint0_linear_1815_2985)"/>
<defs>
<linearGradient id="paint0_linear_1815_2985" x1="48.0004" y1="3" x2="48.0004" y2="93" gradientUnits="userSpaceOnUse">
<stop stop-color="#9747FF"/>
<stop offset="1" stop-color="#4B9ADB"/>
</linearGradient>
</defs>
</svg>
