<svg width="80" height="80" viewBox="0 0 80 80" fill="none" xmlns="http://www.w3.org/2000/svg">
<path d="M74.7854 47.084C74.1143 47.084 73.5703 46.5402 73.5703 45.869V43.925C73.5703 43.2538 74.1143 42.71 74.7854 42.71C75.4564 42.71 76.0004 43.2538 76.0004 43.925V45.869C76.0004 46.54 75.4564 47.084 74.7854 47.084Z" fill="url(#paint0_linear_1734_3047)"/>
<path d="M74.7854 38.3045C74.1143 38.3045 73.5703 37.7606 73.5703 37.0896V33.6717C73.5703 33.0006 74.1143 32.4568 74.7854 32.4568C75.4564 32.4568 76.0004 33.0006 76.0004 33.6717V37.0896C76.0004 37.7605 75.4564 38.3045 74.7854 38.3045ZM74.7854 28.0512C74.1143 28.0512 73.5703 27.5074 73.5703 26.8362V23.4184C73.5703 22.7474 74.1143 22.2034 74.7854 22.2034C75.4564 22.2034 76.0004 22.7474 76.0004 23.4184V26.8362C76.0004 27.5072 75.4564 28.0512 74.7854 28.0512Z" fill="url(#paint1_linear_1734_3047)"/>
<path d="M74.7854 17.7975C74.1143 17.7975 73.5703 17.2537 73.5703 16.5826V14.6385C73.5703 13.9674 74.1143 13.4236 74.7854 13.4236C75.4564 13.4236 76.0004 13.9674 76.0004 14.6385V16.5826C76.0004 17.2537 75.4564 17.7975 74.7854 17.7975Z" fill="url(#paint2_linear_1734_3047)"/>
<path d="M69.544 58.0707H10.456C6.89616 58.0707 4 55.1745 4 51.6148V12.7307C4 9.17099 6.89616 6.27515 10.456 6.27515H69.544C73.1038 6.27515 76 9.17099 76 12.7307V14.6385C76 15.3097 75.456 15.8535 74.785 15.8535C74.1139 15.8535 73.5699 15.3097 73.5699 14.6385V12.7307C73.5699 10.5113 71.7646 8.70523 69.5442 8.70523H10.456C8.23552 8.70523 6.43024 10.5113 6.43024 12.7307V51.615C6.43024 53.8343 8.23552 55.6407 10.456 55.6407H69.544C71.7645 55.6407 73.5698 53.8343 73.5698 51.615V45.8691C73.5698 45.198 74.1138 44.6542 74.7848 44.6542C75.4558 44.6542 75.9998 45.198 75.9998 45.8691V51.615C76 55.1745 73.1038 58.0707 69.544 58.0707Z" fill="url(#paint3_linear_1734_3047)"/>
<path d="M74.785 52.8298H5.2152C4.54416 52.8298 4 52.286 4 51.6149C4 50.9437 4.544 50.3999 5.2152 50.3999H74.785C75.456 50.3999 76 50.9437 76 51.6149C76 52.286 75.456 52.8298 74.785 52.8298Z" fill="url(#paint4_linear_1734_3047)"/>
<path d="M47.2224 63.2753H32.7814C32.1102 63.2753 31.5664 62.7315 31.5664 62.0603V56.8555C31.5664 56.1845 32.1102 55.6406 32.7814 55.6406H47.2224C47.8936 55.6406 48.4374 56.1845 48.4374 56.8555V62.0603C48.4374 62.7315 47.8936 63.2753 47.2224 63.2753ZM33.9965 60.8453H46.0075V58.0705H33.9965V60.8453Z" fill="url(#paint5_linear_1734_3047)"/>
<path d="M51.6528 73.7247H28.3479C27.6767 73.7247 27.1328 73.1808 27.1328 72.5098V67.6144C27.1328 66.9432 27.6767 66.3994 28.3479 66.3994H29.4232V62.0603C29.4232 61.3893 29.9672 60.8455 30.6383 60.8455H49.3623C50.0333 60.8455 50.5773 61.3893 50.5773 62.0603V66.3994H51.6527C52.3239 66.3994 52.8679 66.9432 52.8679 67.6144V72.5098C52.868 73.1808 52.324 73.7247 51.6528 73.7247ZM29.5627 71.2946H50.4379V68.8293H49.3624C48.6914 68.8293 48.1474 68.2855 48.1474 67.6144V63.2754H31.8535V67.6144C31.8535 68.2855 31.3095 68.8293 30.6384 68.8293H29.5629V71.2946H29.5627Z" fill="url(#paint6_linear_1734_3047)"/>
<path d="M60.0983 73.7248H19.8986C19.2274 73.7248 18.6836 73.1809 18.6836 72.5099C18.6836 71.8387 19.2274 71.2947 19.8986 71.2947H60.0985C60.7697 71.2947 61.3137 71.8385 61.3137 72.5099C61.3135 73.1809 60.7697 73.7248 60.0983 73.7248Z" fill="url(#paint7_linear_1734_3047)"/>
<path d="M43.8771 68.8293H30.6369C29.9659 68.8293 29.4219 68.2855 29.4219 67.6145C29.4219 66.9433 29.9659 66.3994 30.6369 66.3994H43.8771C44.5483 66.3994 45.0923 66.9433 45.0923 67.6145C45.0923 68.2855 44.5483 68.8293 43.8771 68.8293Z" fill="url(#paint8_linear_1734_3047)"/>
<path d="M56.1263 40.1231C55.7543 40.1231 55.4022 39.9527 55.1715 39.6593L50.7289 34.0156C50.314 33.4882 50.4052 32.7247 50.9321 32.3094C51.4607 31.8942 52.223 31.986 52.6388 32.5129L56.0703 36.8724L61.6158 28.9646C62.0011 28.4161 62.7587 28.2831 63.3083 28.6674C63.8579 29.0529 63.9908 29.8103 63.6054 30.3599L57.1211 39.6057C56.9009 39.9204 56.5439 40.1121 56.1595 40.1225C56.1492 40.1231 56.1379 40.1231 56.1263 40.1231Z" fill="url(#paint9_linear_1734_3047)"/>
<path d="M57.1503 47.0841C49.8276 47.0841 43.8711 41.1265 43.8711 33.8041C43.8711 26.4815 49.8276 20.5244 57.1503 20.5244C64.4727 20.5244 70.4303 26.4814 70.4303 33.8041C70.4303 41.1265 64.4727 47.0841 57.1503 47.0841ZM57.1503 22.9545C51.1679 22.9545 46.3012 27.822 46.3012 33.8041C46.3012 39.7868 51.1679 44.654 57.1503 44.654C63.1333 44.654 68.0002 39.7868 68.0002 33.8041C68.0002 27.8219 63.1333 22.9545 57.1503 22.9545Z" fill="url(#paint10_linear_1734_3047)"/>
<path d="M37.2571 28.7677H12.043C11.372 28.7677 10.8281 28.2239 10.8281 27.5527V14.6385C10.8281 13.9674 11.372 13.4236 12.043 13.4236H37.2571C37.9281 13.4236 38.472 13.9674 38.472 14.6385V27.5525C38.4721 28.2239 37.9281 28.7677 37.2571 28.7677ZM13.258 26.3377H36.0419V15.8535H13.258V26.3377Z" fill="url(#paint11_linear_1734_3047)"/>
<path d="M37.2571 35.5005H12.043C11.372 35.5005 10.8281 34.9566 10.8281 34.2854C10.8281 33.6144 11.372 33.0706 12.043 33.0706H37.2571C37.9281 33.0706 38.472 33.6144 38.472 34.2854C38.4721 34.9565 37.9281 35.5005 37.2571 35.5005Z" fill="url(#paint12_linear_1734_3047)"/>
<path d="M37.2571 40.7992H12.043C11.372 40.7992 10.8281 40.2554 10.8281 39.584C10.8281 38.913 11.372 38.3691 12.043 38.3691H37.2571C37.9281 38.3691 38.472 38.913 38.472 39.584C38.4721 40.2552 37.9281 40.7992 37.2571 40.7992Z" fill="url(#paint13_linear_1734_3047)"/>
<path d="M37.2571 46.0976H12.043C11.372 46.0976 10.8281 45.5538 10.8281 44.8826C10.8281 44.2116 11.372 43.6677 12.043 43.6677H37.2571C37.9281 43.6677 38.472 44.2116 38.472 44.8826C38.4721 45.5538 37.9281 46.0976 37.2571 46.0976Z" fill="url(#paint14_linear_1734_3047)"/>
<defs>
<linearGradient id="paint0_linear_1734_3047" x1="74.7854" y1="42.71" x2="74.7854" y2="47.084" gradientUnits="userSpaceOnUse">
<stop stop-color="#9747FF"/>
<stop offset="1" stop-color="#4B9ADB"/>
</linearGradient>
<linearGradient id="paint1_linear_1734_3047" x1="74.7854" y1="22.2034" x2="74.7854" y2="38.3045" gradientUnits="userSpaceOnUse">
<stop stop-color="#9747FF"/>
<stop offset="1" stop-color="#4B9ADB"/>
</linearGradient>
<linearGradient id="paint2_linear_1734_3047" x1="74.7854" y1="13.4236" x2="74.7854" y2="17.7975" gradientUnits="userSpaceOnUse">
<stop stop-color="#9747FF"/>
<stop offset="1" stop-color="#4B9ADB"/>
</linearGradient>
<linearGradient id="paint3_linear_1734_3047" x1="40" y1="6.27515" x2="40" y2="58.0707" gradientUnits="userSpaceOnUse">
<stop stop-color="#9747FF"/>
<stop offset="1" stop-color="#4B9ADB"/>
</linearGradient>
<linearGradient id="paint4_linear_1734_3047" x1="40" y1="50.3999" x2="40" y2="52.8298" gradientUnits="userSpaceOnUse">
<stop stop-color="#9747FF"/>
<stop offset="1" stop-color="#4B9ADB"/>
</linearGradient>
<linearGradient id="paint5_linear_1734_3047" x1="40.0019" y1="55.6406" x2="40.0019" y2="63.2753" gradientUnits="userSpaceOnUse">
<stop stop-color="#9747FF"/>
<stop offset="1" stop-color="#4B9ADB"/>
</linearGradient>
<linearGradient id="paint6_linear_1734_3047" x1="40.0003" y1="60.8455" x2="40.0003" y2="73.7247" gradientUnits="userSpaceOnUse">
<stop stop-color="#9747FF"/>
<stop offset="1" stop-color="#4B9ADB"/>
</linearGradient>
<linearGradient id="paint7_linear_1734_3047" x1="39.9986" y1="71.2947" x2="39.9986" y2="73.7248" gradientUnits="userSpaceOnUse">
<stop stop-color="#9747FF"/>
<stop offset="1" stop-color="#4B9ADB"/>
</linearGradient>
<linearGradient id="paint8_linear_1734_3047" x1="37.2571" y1="66.3994" x2="37.2571" y2="68.8293" gradientUnits="userSpaceOnUse">
<stop stop-color="#9747FF"/>
<stop offset="1" stop-color="#4B9ADB"/>
</linearGradient>
<linearGradient id="paint9_linear_1734_3047" x1="57.1473" y1="28.4478" x2="57.1473" y2="40.1231" gradientUnits="userSpaceOnUse">
<stop stop-color="#9747FF"/>
<stop offset="1" stop-color="#4B9ADB"/>
</linearGradient>
<linearGradient id="paint10_linear_1734_3047" x1="57.1507" y1="20.5244" x2="57.1507" y2="47.0841" gradientUnits="userSpaceOnUse">
<stop stop-color="#9747FF"/>
<stop offset="1" stop-color="#4B9ADB"/>
</linearGradient>
<linearGradient id="paint11_linear_1734_3047" x1="24.65" y1="13.4236" x2="24.65" y2="28.7677" gradientUnits="userSpaceOnUse">
<stop stop-color="#9747FF"/>
<stop offset="1" stop-color="#4B9ADB"/>
</linearGradient>
<linearGradient id="paint12_linear_1734_3047" x1="24.65" y1="33.0706" x2="24.65" y2="35.5005" gradientUnits="userSpaceOnUse">
<stop stop-color="#9747FF"/>
<stop offset="1" stop-color="#4B9ADB"/>
</linearGradient>
<linearGradient id="paint13_linear_1734_3047" x1="24.65" y1="38.3691" x2="24.65" y2="40.7992" gradientUnits="userSpaceOnUse">
<stop stop-color="#9747FF"/>
<stop offset="1" stop-color="#4B9ADB"/>
</linearGradient>
<linearGradient id="paint14_linear_1734_3047" x1="24.65" y1="43.6677" x2="24.65" y2="46.0976" gradientUnits="userSpaceOnUse">
<stop stop-color="#9747FF"/>
<stop offset="1" stop-color="#4B9ADB"/>
</linearGradient>
</defs>
</svg>
