<svg width="80" height="80" viewBox="0 0 80 80" fill="none" xmlns="http://www.w3.org/2000/svg">
<path d="M27.4868 46.5423H24.7134C23.3268 46.5423 22.2068 45.4223 22.2068 44.0356V41.1023L20.1268 43.1823C19.6645 43.6445 19.0245 43.9112 18.3668 43.9112C17.709 43.9112 17.069 43.6445 16.6068 43.1823L14.6334 41.209C14.1534 40.7467 13.9045 40.1067 13.9045 39.449C13.9045 38.7734 14.1712 38.1512 14.6334 37.689L16.7134 35.609H13.7801C12.3934 35.609 11.2734 34.489 11.2734 33.1023V30.329C11.2734 28.9423 12.3934 27.8223 13.7801 27.8223H16.7134L14.6334 25.7423C14.1534 25.2801 13.9045 24.6401 13.9045 23.9823C13.9045 23.3245 14.1712 22.6845 14.6334 22.2223L16.6068 20.2667C17.0868 19.8045 17.709 19.5378 18.3668 19.5378C19.0423 19.5378 19.6645 19.8045 20.1268 20.2667L22.2068 22.3467V19.4134C22.2068 18.0267 23.3268 16.9067 24.7134 16.9067H27.4868C28.8734 16.9067 29.9934 18.0267 29.9934 19.4134V22.3467L32.0734 20.2667C32.5357 19.8045 33.1757 19.5378 33.8334 19.5378C34.4912 19.5378 35.1312 19.8045 35.5934 20.2667L37.5668 22.2401C38.029 22.7023 38.2957 23.3423 38.2957 24.0001C38.2957 24.6578 38.029 25.2978 37.5668 25.7601L35.4868 27.8401H38.4201C39.8068 27.8401 40.9268 28.9601 40.9268 30.3467V33.1201C40.9268 34.5067 39.8068 35.6267 38.4201 35.6267H35.4868L37.5668 37.7067C38.029 38.169 38.2957 38.809 38.2957 39.4667C38.2957 40.1245 38.029 40.7645 37.5668 41.2267L35.5934 43.1823C35.1312 43.6445 34.4912 43.9112 33.8334 43.9112C33.1579 43.9112 32.5357 43.6445 32.0734 43.1823L29.9934 41.1023V44.0356C29.9757 45.4223 28.8557 46.5423 27.4868 46.5423ZM22.1712 39.0045C22.2957 39.0045 22.4379 39.0401 22.5623 39.0934C22.829 39.2178 23.1134 39.3423 23.3979 39.449C23.7534 39.5734 24.0023 39.9112 24.0023 40.2845V44.0534C24.0023 44.4445 24.3223 44.7645 24.7312 44.7645H27.5045C27.8957 44.7645 28.2334 44.4445 28.2334 44.0534V40.2845C28.2334 39.9112 28.4645 39.5734 28.8379 39.449C29.1223 39.3423 29.4068 39.2356 29.6734 39.0934C30.0112 38.9334 30.4201 39.0045 30.6868 39.2712L33.3534 41.9378C33.4957 42.0801 33.6734 42.1512 33.869 42.1512C34.0645 42.1512 34.2423 42.0801 34.3846 41.9378L36.3579 39.9645C36.5001 39.8223 36.5712 39.6445 36.5712 39.449C36.5712 39.2534 36.5001 39.0756 36.3579 38.9334L33.6912 36.2667C33.4245 36.0001 33.3534 35.5912 33.5134 35.2534C33.6379 34.9867 33.7623 34.7023 33.869 34.4179C33.9934 34.0623 34.3312 33.8134 34.7045 33.8134H38.4734C38.8645 33.8134 39.2023 33.4934 39.2023 33.0845V30.3112C39.2023 29.9201 38.8823 29.5823 38.4734 29.5823H34.7223C34.349 29.5823 34.0112 29.3512 33.8868 28.9778C33.7801 28.6934 33.6734 28.409 33.5312 28.1423C33.3712 27.8045 33.4423 27.3956 33.709 27.129L36.3757 24.4623C36.5179 24.3201 36.589 24.1423 36.589 23.9467C36.589 23.7512 36.5179 23.5734 36.3757 23.4312L34.4023 21.4578C34.2601 21.3156 34.0823 21.2445 33.8868 21.2445C33.6912 21.2445 33.5134 21.3156 33.3712 21.4578L30.7045 24.1245C30.4379 24.3912 30.029 24.4623 29.6912 24.3023C29.4245 24.1778 29.1401 24.0534 28.8557 23.9467C28.5001 23.8223 28.2512 23.4845 28.2512 23.1112V19.3423C28.2512 18.9512 27.9312 18.6134 27.5223 18.6134H24.7134C24.3223 18.6134 23.9845 18.9334 23.9845 19.3423V23.1112C23.9845 23.4845 23.7534 23.8223 23.3801 23.9467C23.0957 24.0534 22.8112 24.1601 22.5445 24.3023C22.2068 24.4623 21.7979 24.3912 21.5312 24.1245L18.8645 21.4578C18.5801 21.1734 18.1179 21.1734 17.8512 21.4578L15.8779 23.4312C15.7357 23.5734 15.6645 23.7512 15.6645 23.9467C15.6645 24.1423 15.7357 24.3201 15.8779 24.4623L18.5445 27.129C18.8112 27.3956 18.8823 27.8045 18.7223 28.1423C18.5979 28.409 18.4734 28.6934 18.3668 28.9778C18.2423 29.3334 17.9045 29.5823 17.5312 29.5823H13.7801C13.389 29.5823 13.0512 29.9023 13.0512 30.3112V33.0845C13.0512 33.4756 13.3712 33.8134 13.7801 33.8134H17.549C17.9223 33.8134 18.2601 34.0445 18.3845 34.4179C18.4912 34.7023 18.5979 34.9867 18.7401 35.2534C18.9001 35.5912 18.829 36.0001 18.5623 36.2667L15.8957 38.9334C15.7534 39.0756 15.6823 39.2534 15.6823 39.449C15.6823 39.6445 15.7534 39.8223 15.8957 39.9645L17.869 41.9378C18.1534 42.2223 18.6157 42.2223 18.8823 41.9378L21.549 39.2712C21.709 39.0934 21.9401 39.0045 22.1712 39.0045Z" fill="url(#paint0_linear_1802_3673)"/>
<path d="M26.0979 38.1689C22.5423 38.1689 19.6445 35.2711 19.6445 31.7155C19.6445 28.16 22.5423 25.2622 26.0979 25.2622C29.6534 25.2622 32.5512 28.16 32.5512 31.7155C32.5512 35.2711 29.6534 38.1689 26.0979 38.1689ZM26.0979 27.0578C23.5201 27.0578 21.4223 29.1555 21.4223 31.7333C21.4223 34.3111 23.5201 36.4089 26.0979 36.4089C28.6756 36.4089 30.7734 34.3111 30.7734 31.7333C30.7734 29.1555 28.6756 27.0578 26.0979 27.0578Z" fill="url(#paint1_linear_1802_3673)"/>
<path d="M78.4563 58.2932H72.9096C72.4118 58.2932 72.0207 57.9021 72.0207 57.4043C72.0207 56.9066 72.4118 56.5155 72.9096 56.5155H77.5674V48.3732C77.5674 45.6355 75.3274 43.3955 72.5896 43.3955H50.5451C50.0474 43.3955 49.6562 43.0043 49.6562 42.5066C49.6562 42.0088 50.0474 41.6177 50.5451 41.6177H72.5896C76.3229 41.6177 79.3451 44.6399 79.3451 48.3732V57.4043C79.3451 57.9021 78.9363 58.2932 78.4563 58.2932ZM56.0918 58.2932H50.5451C50.0474 58.2932 49.6562 57.9021 49.6562 57.4043C49.6562 56.9066 50.0474 56.5155 50.5451 56.5155H56.0918C56.5896 56.5155 56.9807 56.9066 56.9807 57.4043C56.9807 57.9021 56.5896 58.2932 56.0918 58.2932Z" fill="url(#paint2_linear_1802_3673)"/>
<path d="M78.4543 50.8267H74.3299C72.6232 50.8267 71.2188 49.44 71.2188 47.7156V46.24C71.2188 45.3334 71.9476 44.6045 72.8543 44.6045H77.6899C78.0099 44.6045 78.3121 44.7823 78.4721 45.0489C79.041 46.0623 79.3432 47.2 79.3432 48.3556V49.92C79.3432 50.4178 78.9343 50.8267 78.4543 50.8267ZM72.9965 46.4V47.7334C72.9965 48.4623 73.5832 49.0667 74.3299 49.0667H77.5654V48.3912C77.5654 47.7156 77.4232 47.0401 77.1565 46.4178L72.9965 46.4Z" fill="url(#paint3_linear_1802_3673)"/>
<path d="M72.5896 43.3954C72.2163 43.3954 71.8607 43.1643 71.7363 42.7732L67.9318 31.0399C66.9007 27.8932 65.514 26.4177 63.5407 26.4177H50.5451C50.0474 26.4177 49.6562 26.0266 49.6562 25.5288C49.6562 25.031 50.0474 24.6399 50.5451 24.6399H63.5407C67.7185 24.6399 69.1407 29.0488 69.6207 30.4888L73.4251 42.2221C73.5851 42.6843 73.3185 43.1999 72.8563 43.3421C72.7674 43.3777 72.6785 43.3954 72.5896 43.3954Z" fill="url(#paint4_linear_1802_3673)"/>
<path d="M50.5434 58.2933H23.8412C23.3434 58.2933 22.9523 57.9022 22.9523 57.4044C22.9523 56.9067 23.3434 56.5156 23.8412 56.5156H49.6545V15.3422H6.08118C4.12563 15.3422 2.52562 16.9422 2.52562 18.8978V56.5156H7.0234C7.52118 56.5156 7.91229 56.9067 7.91229 57.4044C7.91229 57.9022 7.52118 58.2933 7.0234 58.2933H1.65451C1.15674 58.2933 0.765625 57.9022 0.765625 57.4044V18.8978C0.765625 15.9645 3.14785 13.5645 6.09896 13.5645H50.5612C51.059 13.5645 51.4501 13.9556 51.4501 14.4533V57.4044C51.4323 57.9022 51.0412 58.2933 50.5434 58.2933Z" fill="url(#paint5_linear_1802_3673)"/>
<path d="M50.5434 51.9999H20.9967C20.499 51.9999 20.1078 51.6088 20.1078 51.1111C20.1078 50.6133 20.499 50.2222 20.9967 50.2222H50.5434C51.0412 50.2222 51.4323 50.6133 51.4323 51.1111C51.4323 51.6088 51.0412 51.9999 50.5434 51.9999ZM9.88562 51.9999H1.65451C1.15674 51.9999 0.765625 51.6088 0.765625 51.1111C0.765625 50.6133 1.15674 50.2222 1.65451 50.2222H9.88562C10.3834 50.2222 10.7745 50.6133 10.7745 51.1111C10.7745 51.6088 10.3656 51.9999 9.88562 51.9999Z" fill="url(#paint6_linear_1802_3673)"/>
<path d="M68.0012 21.8489H50.5434C50.0456 21.8489 49.6545 21.4578 49.6545 20.96C49.6545 20.4622 50.0456 20.0711 50.5434 20.0711H67.1123V17.7067C67.1123 16.4089 66.0456 15.3422 64.7478 15.3422H50.5256C50.0278 15.3422 49.6367 14.9511 49.6367 14.4533C49.6367 13.9556 50.0278 13.5645 50.5256 13.5645H64.7478C67.0234 13.5645 68.89 15.4133 68.89 17.7067V20.96C68.89 21.44 68.4989 21.8489 68.0012 21.8489Z" fill="url(#paint7_linear_1802_3673)"/>
<path d="M15.4306 66.7022C10.3106 66.7022 6.13281 62.5245 6.13281 57.4045C6.13281 52.2845 10.3106 48.1067 15.4306 48.1067C20.5506 48.1067 24.7284 52.2845 24.7284 57.4045C24.7284 62.5245 20.5684 66.7022 15.4306 66.7022ZM15.4306 49.8845C11.2884 49.8845 7.91059 53.2622 7.91059 57.4045C7.91059 61.5467 11.2884 64.9245 15.4306 64.9245C19.5728 64.9245 22.9506 61.5467 22.9506 57.4045C22.9506 53.2622 19.5728 49.8845 15.4306 49.8845Z" fill="url(#paint8_linear_1802_3673)"/>
<path d="M64.5009 66.7022C59.3809 66.7022 55.2031 62.5245 55.2031 57.4045C55.2031 52.2845 59.3809 48.1067 64.5009 48.1067C69.6209 48.1067 73.7987 52.2845 73.7987 57.4045C73.7987 62.5245 69.6209 66.7022 64.5009 66.7022ZM64.5009 49.8845C60.3587 49.8845 56.9809 53.2622 56.9809 57.4045C56.9809 61.5467 60.3587 64.9245 64.5009 64.9245C68.6431 64.9245 72.0209 61.5467 72.0209 57.4045C72.0209 53.2622 68.6431 49.8845 64.5009 49.8845Z" fill="url(#paint9_linear_1802_3673)"/>
<path d="M15.4322 61.4577C13.1922 61.4577 11.3789 59.6444 11.3789 57.4044C11.3789 55.1822 13.1922 53.3511 15.4322 53.3511C17.6722 53.3511 19.4856 55.1644 19.4856 57.4044C19.4856 59.6444 17.6722 61.4577 15.4322 61.4577ZM15.4322 55.1289C14.1878 55.1289 13.1567 56.1422 13.1567 57.4044C13.1567 58.6488 14.17 59.68 15.4322 59.68C16.6945 59.68 17.7078 58.6666 17.7078 57.4044C17.7078 56.16 16.6945 55.1289 15.4322 55.1289Z" fill="url(#paint10_linear_1802_3673)"/>
<path d="M64.4986 61.4577C62.2586 61.4577 60.4453 59.6444 60.4453 57.4044C60.4453 55.1822 62.2586 53.3511 64.4986 53.3511C66.7386 53.3511 68.552 55.1644 68.552 57.4044C68.552 59.6444 66.7209 61.4577 64.4986 61.4577ZM64.4986 55.1289C63.2542 55.1289 62.2231 56.1422 62.2231 57.4044C62.2231 58.6488 63.2364 59.68 64.4986 59.68C65.7609 59.68 66.7742 58.6666 66.7742 57.4044C66.7564 56.16 65.7431 55.1289 64.4986 55.1289Z" fill="url(#paint11_linear_1802_3673)"/>
<path d="M7.21701 42.649C6.71924 42.649 6.32812 42.2579 6.32812 41.7601V21.7068C6.32812 21.209 6.71924 20.8179 7.21701 20.8179C7.71479 20.8179 8.1059 21.209 8.1059 21.7068V41.7601C8.1059 42.2401 7.69701 42.649 7.21701 42.649Z" fill="url(#paint12_linear_1802_3673)"/>
<path d="M44.9787 42.649C44.481 42.649 44.0898 42.2579 44.0898 41.7601V21.7068C44.0898 21.209 44.481 20.8179 44.9787 20.8179C45.4765 20.8179 45.8676 21.209 45.8676 21.7068V41.7601C45.8676 42.2401 45.4765 42.649 44.9787 42.649Z" fill="url(#paint13_linear_1802_3673)"/>
<path d="M57.4592 35.0221C57.2281 35.0221 56.997 34.9332 56.837 34.7555C56.4814 34.4177 56.4814 33.8488 56.837 33.4932L61.0681 29.2621C61.4236 28.9243 61.9748 28.9243 62.3303 29.2621C62.6859 29.5999 62.6859 30.1688 62.3303 30.5243L58.0992 34.7555C57.9036 34.9332 57.6725 35.0221 57.4592 35.0221Z" fill="url(#paint14_linear_1802_3673)"/>
<path d="M57.674 39.0222C57.4429 39.0222 57.2118 38.9333 57.0518 38.7555C56.6963 38.4178 56.6963 37.8489 57.0518 37.4933L65.0518 29.4933C65.4074 29.1555 65.9585 29.1555 66.314 29.4933C66.6696 29.8311 66.6696 30.4 66.314 30.7555L58.314 38.7555C58.1363 38.9333 57.9052 39.0222 57.674 39.0222Z" fill="url(#paint15_linear_1802_3673)"/>
<defs>
<linearGradient id="paint0_linear_1802_3673" x1="26.1001" y1="16.9067" x2="26.1001" y2="46.5423" gradientUnits="userSpaceOnUse">
<stop stop-color="#9747FF"/>
<stop offset="1" stop-color="#4B9ADB"/>
</linearGradient>
<linearGradient id="paint1_linear_1802_3673" x1="26.0979" y1="25.2622" x2="26.0979" y2="38.1689" gradientUnits="userSpaceOnUse">
<stop stop-color="#9747FF"/>
<stop offset="1" stop-color="#4B9ADB"/>
</linearGradient>
<linearGradient id="paint2_linear_1802_3673" x1="64.5007" y1="41.6177" x2="64.5007" y2="58.2932" gradientUnits="userSpaceOnUse">
<stop stop-color="#9747FF"/>
<stop offset="1" stop-color="#4B9ADB"/>
</linearGradient>
<linearGradient id="paint3_linear_1802_3673" x1="75.281" y1="44.6045" x2="75.281" y2="50.8267" gradientUnits="userSpaceOnUse">
<stop stop-color="#9747FF"/>
<stop offset="1" stop-color="#4B9ADB"/>
</linearGradient>
<linearGradient id="paint4_linear_1802_3673" x1="61.564" y1="24.6399" x2="61.564" y2="43.3954" gradientUnits="userSpaceOnUse">
<stop stop-color="#9747FF"/>
<stop offset="1" stop-color="#4B9ADB"/>
</linearGradient>
<linearGradient id="paint5_linear_1802_3673" x1="26.1078" y1="13.5645" x2="26.1078" y2="58.2933" gradientUnits="userSpaceOnUse">
<stop stop-color="#9747FF"/>
<stop offset="1" stop-color="#4B9ADB"/>
</linearGradient>
<linearGradient id="paint6_linear_1802_3673" x1="26.099" y1="50.2222" x2="26.099" y2="51.9999" gradientUnits="userSpaceOnUse">
<stop stop-color="#9747FF"/>
<stop offset="1" stop-color="#4B9ADB"/>
</linearGradient>
<linearGradient id="paint7_linear_1802_3673" x1="59.2634" y1="13.5645" x2="59.2634" y2="21.8489" gradientUnits="userSpaceOnUse">
<stop stop-color="#9747FF"/>
<stop offset="1" stop-color="#4B9ADB"/>
</linearGradient>
<linearGradient id="paint8_linear_1802_3673" x1="15.4306" y1="48.1067" x2="15.4306" y2="66.7022" gradientUnits="userSpaceOnUse">
<stop stop-color="#9747FF"/>
<stop offset="1" stop-color="#4B9ADB"/>
</linearGradient>
<linearGradient id="paint9_linear_1802_3673" x1="64.5009" y1="48.1067" x2="64.5009" y2="66.7022" gradientUnits="userSpaceOnUse">
<stop stop-color="#9747FF"/>
<stop offset="1" stop-color="#4B9ADB"/>
</linearGradient>
<linearGradient id="paint10_linear_1802_3673" x1="15.4322" y1="53.3511" x2="15.4322" y2="61.4577" gradientUnits="userSpaceOnUse">
<stop stop-color="#9747FF"/>
<stop offset="1" stop-color="#4B9ADB"/>
</linearGradient>
<linearGradient id="paint11_linear_1802_3673" x1="64.4986" y1="53.3511" x2="64.4986" y2="61.4577" gradientUnits="userSpaceOnUse">
<stop stop-color="#9747FF"/>
<stop offset="1" stop-color="#4B9ADB"/>
</linearGradient>
<linearGradient id="paint12_linear_1802_3673" x1="7.21701" y1="20.8179" x2="7.21701" y2="42.649" gradientUnits="userSpaceOnUse">
<stop stop-color="#9747FF"/>
<stop offset="1" stop-color="#4B9ADB"/>
</linearGradient>
<linearGradient id="paint13_linear_1802_3673" x1="44.9787" y1="20.8179" x2="44.9787" y2="42.649" gradientUnits="userSpaceOnUse">
<stop stop-color="#9747FF"/>
<stop offset="1" stop-color="#4B9ADB"/>
</linearGradient>
<linearGradient id="paint14_linear_1802_3673" x1="59.5836" y1="29.0088" x2="59.5836" y2="35.0221" gradientUnits="userSpaceOnUse">
<stop stop-color="#9747FF"/>
<stop offset="1" stop-color="#4B9ADB"/>
</linearGradient>
<linearGradient id="paint15_linear_1802_3673" x1="61.6829" y1="29.24" x2="61.6829" y2="39.0222" gradientUnits="userSpaceOnUse">
<stop stop-color="#9747FF"/>
<stop offset="1" stop-color="#4B9ADB"/>
</linearGradient>
</defs>
</svg>
