<svg width="80" height="80" viewBox="0 0 80 80" fill="none" xmlns="http://www.w3.org/2000/svg">
<path fill-rule="evenodd" clip-rule="evenodd" d="M20.8571 53.575L18.3438 51.6067L29.7321 37.0583L40.2804 47.0667L49.0571 43.74L60.3771 31.9133L62.6854 34.1217L50.8621 46.4683L39.5421 50.7667L30.0821 41.7933L20.8571 53.575Z" fill="url(#paint0_linear_1784_3214)"/>
<path fill-rule="evenodd" clip-rule="evenodd" d="M5.72656 58.6634V20.4484C5.72656 17.6651 7.9849 15.4067 10.7682 15.4067H68.5182C71.2982 15.4067 73.5649 17.6617 73.5649 20.4484V58.6634C73.5649 61.4484 71.3049 63.7067 68.5182 63.7067H10.7682C7.9849 63.7067 5.72656 61.4484 5.72656 58.6634ZM70.3749 58.6634V20.4484C70.3749 19.4317 69.5432 18.5984 68.5182 18.5984H10.7682C9.7499 18.5984 8.91823 19.4284 8.91823 20.4484V58.6634C8.91823 59.6867 9.7499 60.5167 10.7682 60.5167H68.5182C69.5416 60.5167 70.3749 59.6867 70.3749 58.6634Z" fill="url(#paint1_linear_1784_3214)"/>
<path fill-rule="evenodd" clip-rule="evenodd" d="M11.3281 21.8051C11.3281 20.9618 12.0165 20.2734 12.8615 20.2734C13.7065 20.2734 14.3915 20.9618 14.3915 21.8051C14.3915 22.6468 13.7065 23.3334 12.8615 23.3334C12.0165 23.3334 11.3281 22.6468 11.3281 21.8051ZM15.6648 21.8051C15.6648 20.9618 16.3498 20.2734 17.1931 20.2734C18.0381 20.2734 18.7248 20.9618 18.7248 21.8051C18.7248 22.6468 18.0381 23.3334 17.1931 23.3334C16.3498 23.3334 15.6648 22.6468 15.6648 21.8051ZM19.9948 21.8051C19.9948 20.9618 20.6815 20.2734 21.5231 20.2734C22.3665 20.2734 23.0548 20.9618 23.0548 21.8051C23.0548 22.6468 22.3665 23.3334 21.5231 23.3334C20.6815 23.3334 19.9948 22.6468 19.9948 21.8051Z" fill="url(#paint2_linear_1784_3214)"/>
<path fill-rule="evenodd" clip-rule="evenodd" d="M19.8514 49.9302C21.3164 49.9302 22.5114 51.1252 22.5114 52.5902C22.5114 54.0552 21.3164 55.2502 19.8514 55.2502C18.3864 55.2502 17.1914 54.0552 17.1914 52.5902C17.1914 51.1252 18.3864 49.9302 19.8514 49.9302Z" fill="url(#paint3_linear_1784_3214)"/>
<path fill-rule="evenodd" clip-rule="evenodd" d="M29.9061 36.7651C31.3711 36.7651 32.5661 37.9601 32.5661 39.4251C32.5661 40.8901 31.3711 42.0851 29.9061 42.0851C28.4411 42.0851 27.2461 40.8901 27.2461 39.4251C27.2461 37.9601 28.4411 36.7651 29.9061 36.7651Z" fill="url(#paint4_linear_1784_3214)"/>
<path fill-rule="evenodd" clip-rule="evenodd" d="M39.8592 45.8052C41.3242 45.8052 42.5192 47.0002 42.5192 48.4652C42.5192 49.9302 41.3242 51.1252 39.8592 51.1252C38.3942 51.1252 37.1992 49.9302 37.1992 48.4652C37.1992 47.0002 38.3942 45.8052 39.8592 45.8052Z" fill="url(#paint5_linear_1784_3214)"/>
<path fill-rule="evenodd" clip-rule="evenodd" d="M61.5311 30.3567C62.9961 30.3567 64.1911 31.5517 64.1911 33.0167C64.1911 34.4817 62.9961 35.6767 61.5311 35.6767C60.0661 35.6767 58.8711 34.4817 58.8711 33.0167C58.8711 31.5517 60.0661 30.3567 61.5311 30.3567Z" fill="url(#paint6_linear_1784_3214)"/>
<path fill-rule="evenodd" clip-rule="evenodd" d="M49.9334 42.3118C51.3968 42.3118 52.5934 43.5068 52.5934 44.9718C52.5934 46.4368 51.3968 47.6318 49.9334 47.6318C48.4684 47.6318 47.2734 46.4368 47.2734 44.9718C47.2734 43.5068 48.4684 42.3118 49.9334 42.3118Z" fill="url(#paint7_linear_1784_3214)"/>
<path fill-rule="evenodd" clip-rule="evenodd" d="M28.5399 56.405L28.7733 47.8866C28.7866 47.3966 29.1933 47.0116 29.6833 47.025C30.1716 47.035 30.5566 47.4433 30.5449 47.9316L30.3116 56.4516C30.2999 56.94 29.8916 57.3266 29.4016 57.3133C28.9133 57.3033 28.5249 56.895 28.5399 56.405ZM60.1833 56.2166L60.4166 41.6433C60.4233 41.1583 60.8283 40.765 61.3183 40.775C61.8033 40.7816 62.1983 41.1866 62.1883 41.6766L61.9533 56.25C61.9433 56.735 61.5416 57.1283 61.0533 57.1183C60.5649 57.1116 60.1716 56.7066 60.1833 56.2166ZM18.4649 45.2366L18.6999 28.0116C18.7016 27.5216 19.1066 27.1316 19.5949 27.1383C20.0849 27.1433 20.4749 27.5466 20.4683 28.035L20.2349 45.2616C20.2316 45.75 19.8266 46.1416 19.3366 46.1333C18.8483 46.13 18.4583 45.7266 18.4649 45.2366ZM38.6166 40.2866L38.8499 27.8516C38.8583 27.3616 39.2616 26.9716 39.7516 26.9816C40.2399 26.99 40.6283 27.3933 40.6199 27.885L40.3849 40.3166C40.3799 40.8066 39.9749 41.1983 39.4849 41.1866C38.9966 41.1783 38.6066 40.775 38.6166 40.2866ZM48.6933 38.2116L48.9266 27.785C48.9366 27.2933 49.3416 26.905 49.8316 26.9183C50.3199 26.93 50.7099 27.3333 50.6966 27.8233L50.4599 38.2516C50.4516 38.74 50.0466 39.13 49.5583 39.1166C49.0666 39.105 48.6783 38.7 48.6933 38.2116Z" fill="url(#paint8_linear_1784_3214)"/>
<path fill-rule="evenodd" clip-rule="evenodd" d="M28.543 26.915H30.473V28.8484H28.543V26.915ZM28.543 30.22H30.473V32.155H28.543V30.22ZM28.543 33.53H30.473V35.4584H28.543V33.53Z" fill="url(#paint9_linear_1784_3214)"/>
<path fill-rule="evenodd" clip-rule="evenodd" d="M48.7734 48.7734H50.7018V50.7068H48.7734V48.7734ZM48.7734 52.0784H50.7018V54.0068H48.7734V52.0784ZM48.7734 55.3851H50.7018V57.3134H48.7734V55.3851Z" fill="url(#paint10_linear_1784_3214)"/>
<defs>
<linearGradient id="paint0_linear_1784_3214" x1="40.5146" y1="31.9133" x2="40.5146" y2="53.575" gradientUnits="userSpaceOnUse">
<stop stop-color="#9747FF"/>
<stop offset="1" stop-color="#4B9ADB"/>
</linearGradient>
<linearGradient id="paint1_linear_1784_3214" x1="39.6457" y1="15.4067" x2="39.6457" y2="63.7067" gradientUnits="userSpaceOnUse">
<stop stop-color="#9747FF"/>
<stop offset="1" stop-color="#4B9ADB"/>
</linearGradient>
<linearGradient id="paint2_linear_1784_3214" x1="17.1915" y1="20.2734" x2="17.1915" y2="23.3334" gradientUnits="userSpaceOnUse">
<stop stop-color="#9747FF"/>
<stop offset="1" stop-color="#4B9ADB"/>
</linearGradient>
<linearGradient id="paint3_linear_1784_3214" x1="19.8514" y1="49.9302" x2="19.8514" y2="55.2502" gradientUnits="userSpaceOnUse">
<stop stop-color="#9747FF"/>
<stop offset="1" stop-color="#4B9ADB"/>
</linearGradient>
<linearGradient id="paint4_linear_1784_3214" x1="29.9061" y1="36.7651" x2="29.9061" y2="42.0851" gradientUnits="userSpaceOnUse">
<stop stop-color="#9747FF"/>
<stop offset="1" stop-color="#4B9ADB"/>
</linearGradient>
<linearGradient id="paint5_linear_1784_3214" x1="39.8592" y1="45.8052" x2="39.8592" y2="51.1252" gradientUnits="userSpaceOnUse">
<stop stop-color="#9747FF"/>
<stop offset="1" stop-color="#4B9ADB"/>
</linearGradient>
<linearGradient id="paint6_linear_1784_3214" x1="61.5311" y1="30.3567" x2="61.5311" y2="35.6767" gradientUnits="userSpaceOnUse">
<stop stop-color="#9747FF"/>
<stop offset="1" stop-color="#4B9ADB"/>
</linearGradient>
<linearGradient id="paint7_linear_1784_3214" x1="49.9334" y1="42.3118" x2="49.9334" y2="47.6318" gradientUnits="userSpaceOnUse">
<stop stop-color="#9747FF"/>
<stop offset="1" stop-color="#4B9ADB"/>
</linearGradient>
<linearGradient id="paint8_linear_1784_3214" x1="40.3266" y1="26.918" x2="40.3266" y2="57.3136" gradientUnits="userSpaceOnUse">
<stop stop-color="#9747FF"/>
<stop offset="1" stop-color="#4B9ADB"/>
</linearGradient>
<linearGradient id="paint9_linear_1784_3214" x1="29.508" y1="26.915" x2="29.508" y2="35.4584" gradientUnits="userSpaceOnUse">
<stop stop-color="#9747FF"/>
<stop offset="1" stop-color="#4B9ADB"/>
</linearGradient>
<linearGradient id="paint10_linear_1784_3214" x1="49.7376" y1="48.7734" x2="49.7376" y2="57.3134" gradientUnits="userSpaceOnUse">
<stop stop-color="#9747FF"/>
<stop offset="1" stop-color="#4B9ADB"/>
</linearGradient>
</defs>
</svg>
