<svg width="80" height="80" viewBox="0 0 80 80" fill="none" xmlns="http://www.w3.org/2000/svg">
<path d="M24.9728 27.5322C26.4236 28.5627 27.112 30.225 26.8148 31.9797C26.4247 34.2855 26.9492 36.0656 28.4656 37.5819C29.1053 38.2216 29.7928 38.6827 30.5456 38.9753L24.583 51.6077C24.4506 51.888 24.4966 52.2202 24.7002 52.4541C24.9039 52.688 25.2264 52.7791 25.5225 52.6867L31.9706 50.6709L35.1128 56.6516C35.2484 56.9097 35.5156 57.0695 35.8042 57.0695C35.8225 57.0695 35.8409 57.0689 35.8594 57.0675C36.1686 57.0456 36.4358 56.843 36.5402 56.5509L41.2361 43.4036C41.9627 43.7152 42.7589 43.8691 43.6441 43.8691C44.5487 43.8691 45.3608 43.7091 46.1002 43.3834L50.8164 56.532C50.9211 56.8239 51.1884 57.0262 51.4978 57.0477C51.5159 57.0489 51.5339 57.0495 51.5519 57.0495C51.8409 57.0495 52.1083 56.8894 52.2438 56.6306L55.378 50.6458L61.8288 52.653C62.1252 52.7455 62.4473 52.6533 62.6508 52.4192C62.8541 52.185 62.8997 51.8528 62.7669 51.5725L56.7909 38.9553C57.525 38.6619 58.1969 38.2077 58.8227 37.5817C60.3397 36.0648 60.8642 34.2845 60.4733 31.9795C60.1761 30.2252 60.8647 28.5627 62.3155 27.5322C64.222 26.1781 65.11 24.5484 65.11 22.4034C65.11 20.2584 64.222 18.6286 62.3156 17.2745C60.865 16.2441 60.1764 14.5817 60.4734 12.827C60.8638 10.5213 60.3392 8.74125 58.8227 7.22484C57.3055 5.70781 55.5256 5.18359 53.2203 5.57422C51.4653 5.87094 49.8033 5.18281 48.773 3.73203C47.4189 1.82563 45.7892 0.9375 43.6441 0.9375C41.4989 0.9375 39.8692 1.82563 38.5152 3.73203C37.4848 5.18281 35.8222 5.87156 34.0678 5.57406C31.7619 5.18344 29.9817 5.70813 28.4655 7.22484C26.9484 8.74188 26.4239 10.5222 26.8148 12.8272C27.112 14.5816 26.4234 16.2441 24.9728 17.2745C23.0662 18.6286 22.1783 20.2584 22.1783 22.4034C22.1783 24.5484 23.0662 26.1781 24.9727 27.5322H24.9728ZM35.668 54.3484L33.0511 49.3677C32.8756 49.0336 32.4866 48.8728 32.1264 48.9853L26.7563 50.6641L32.105 39.332C32.7161 39.3845 33.3675 39.3516 34.0681 39.2327C35.8222 38.9358 37.485 39.6241 38.5153 41.0748C38.9391 41.6716 39.39 42.1684 39.8752 42.5695L35.6678 54.3484H35.668ZM60.5928 50.632L55.2205 48.9605C54.8603 48.8487 54.4714 49.0097 54.2962 49.3441L51.6859 54.3283L47.4552 42.533C47.9242 42.1381 48.3617 41.6542 48.7731 41.0748C49.8033 39.6241 51.4656 38.9353 53.2205 39.2328C53.942 39.3548 54.612 39.3873 55.2386 39.328L60.5927 50.632H60.5928ZM25.8777 18.5483C27.8291 17.1623 28.7553 14.9259 28.3555 12.5661C28.0525 10.7794 28.4272 9.47281 29.5705 8.32953C30.7133 7.18688 32.0203 6.8125 33.807 7.11453C36.1672 7.51453 38.4033 6.58813 39.7892 4.63688C40.8387 3.15906 42.0278 2.5 43.6442 2.5C45.2606 2.5 46.4497 3.15906 47.4992 4.63688C48.8852 6.58797 51.1219 7.515 53.4814 7.11469C55.2683 6.81156 56.5747 7.18625 57.718 8.32953C58.8608 9.47234 59.2355 10.7791 58.933 12.5663C58.5331 14.9261 59.4595 17.1623 61.4108 18.5483C62.8886 19.5978 63.5475 20.7867 63.5475 22.4034C63.5475 24.0202 62.8886 25.2087 61.4108 26.2584C59.4594 27.6445 58.5331 29.8808 58.933 32.2406C59.2359 34.0273 58.8612 35.3339 57.718 36.477C56.5752 37.6198 55.2681 37.9944 53.4814 37.6922C51.122 37.2928 48.8852 38.2186 47.4992 40.1698C46.4497 41.6477 45.2608 42.3066 43.6442 42.3066C42.0277 42.3066 40.8387 41.6477 39.7892 40.1698C38.6159 38.5178 36.8333 37.6005 34.882 37.6005C34.5283 37.6005 34.1691 37.6306 33.807 37.692C32.0205 37.9955 30.7139 37.6203 29.5705 36.4772C28.4277 35.3344 28.053 34.0277 28.3553 32.2405C28.7552 29.8806 27.8289 27.6444 25.8775 26.2584C24.3997 25.2087 23.7408 24.02 23.7408 22.4034C23.7408 20.7869 24.3997 19.5978 25.8775 18.5483H25.8777ZM72.0909 60.5717C71.1619 59.5923 68.7316 58.275 62.8914 60.4555C58.7684 61.9947 53.4834 63.6214 50.2798 64.3591C50.2989 64.1325 50.3019 63.8991 50.2883 63.6587C50.2083 62.2436 49.3791 59.8514 44.7245 59.7275C39.768 59.5955 35.3295 59.1472 29.7745 58.4666C27.1513 58.145 24.8075 58.7512 22.3263 59.3934C20.1497 59.9564 17.6898 60.5908 14.64 60.7061C14.3403 59.9942 13.6358 59.4931 12.8162 59.4931H9.00922C7.91859 59.4931 7.03125 60.3805 7.03125 61.4709V77.0847C7.03125 78.1752 7.91859 79.0625 9.00922 79.0625H12.8162C13.817 79.0625 14.6445 78.3147 14.7744 77.3489C19.9166 76.1192 25.1748 77.003 30.2636 77.8595C32.0658 78.1628 33.7678 78.4494 35.4253 78.6337C36.672 78.7723 37.6923 78.8745 38.6727 78.8745C40.6308 78.8745 42.4292 78.4667 45.5527 77.1264L67.6342 67.5392C67.6409 67.5363 67.6477 67.5333 67.6544 67.5302C69.2422 66.7866 71.3861 65.6492 72.3411 64.9086C72.4448 64.8281 72.5266 64.723 72.5788 64.6027C73.2352 63.0923 73.0527 61.5855 72.0909 60.5717ZM13.2316 77.0845C13.2316 77.3097 13.0414 77.4998 12.8161 77.4998H9.00906C8.78391 77.4998 8.59359 77.3097 8.59359 77.0845V61.4708C8.59359 61.2456 8.78375 61.0555 9.00906 61.0555H12.8161C13.0412 61.0555 13.2316 61.2456 13.2316 61.4708V77.0845ZM71.2203 63.7948C70.4083 64.3744 68.6937 65.3177 67.0016 66.1105L44.9333 75.6919C40.4414 77.6194 39.0234 77.4617 35.5977 77.0806C33.9839 76.9014 32.3027 76.6183 30.5228 76.3187C25.6398 75.4967 20.1333 74.5716 14.7939 75.7416V62.2634C17.9655 62.1331 20.4853 61.4831 22.7173 60.9058C25.1523 60.2758 27.2552 59.7314 29.5842 60.0172C35.1848 60.7034 39.6641 61.1555 44.6827 61.2892C47.2787 61.3583 48.6398 62.1852 48.7281 63.7469C48.7759 64.5942 48.5314 65.273 47.9802 65.8219C45.6911 68.1019 38.8406 67.687 35.5483 67.4877C35.0058 67.4547 34.5372 67.4262 34.1509 67.4116C33.7206 67.3909 33.3567 67.7311 33.3403 68.1622C33.3238 68.5933 33.6597 68.9562 34.0909 68.9728C34.4598 68.987 34.9206 69.015 35.4539 69.0473C36.7702 69.127 38.3737 69.2242 40.0355 69.2242C43.4933 69.2242 47.2011 68.8034 49.0828 66.9291C49.3481 66.6648 49.5695 66.3791 49.7483 66.0731C52.8736 65.4398 58.8694 63.6248 63.4378 61.9191C68.767 59.9295 70.5408 61.2077 70.9573 61.647C71.4464 62.1625 71.5387 62.9377 71.2203 63.7948ZM30.3408 25.3597L32.5753 25.8002L33.4161 27.8273L32.1469 29.7198C31.9389 30.0298 31.9794 30.4436 32.2433 30.7073L35.3402 33.8042C35.6041 34.0681 36.0177 34.1083 36.3277 33.9006L38.2203 32.6314L40.2473 33.4722L40.688 35.7067C40.7602 36.073 41.0813 36.3369 41.4544 36.3369H45.8341C46.2073 36.3369 46.5283 36.073 46.6005 35.7067L47.0411 33.4722L49.0681 32.6314L50.9608 33.9006C51.2706 34.1083 51.6842 34.0681 51.9483 33.8042L55.0452 30.7073C55.3091 30.4436 55.3494 30.0298 55.1416 29.7198L53.8723 27.8273L54.7131 25.8002L56.9477 25.3597C57.3138 25.2875 57.5778 24.9664 57.5778 24.5933V20.2136C57.5778 19.8403 57.3139 19.5194 56.9477 19.4472L54.7131 19.0066L53.8723 16.9797L55.1417 15.087C55.3495 14.777 55.3091 14.3633 55.0453 14.0995L51.9484 11.0027C51.6845 10.7387 51.2709 10.6983 50.9609 10.9062L49.0683 12.1755L47.0412 11.3347L46.6006 9.10016C46.5284 8.73391 46.2073 8.47 45.8342 8.47H41.4545C41.0812 8.47 40.7603 8.73391 40.6881 9.10016L40.2475 11.3347L38.2205 12.1755L36.3278 10.9062C36.0178 10.6983 35.6042 10.7384 35.3403 11.0027L32.2434 14.0995C31.9797 14.3633 31.9392 14.777 32.147 15.087L33.4164 16.9797L32.5756 19.0066L30.3411 19.4472C29.975 19.5194 29.7109 19.8405 29.7109 20.2136V24.5933C29.7109 24.9666 29.9748 25.2875 30.3411 25.3597H30.3408ZM31.2731 20.8558L33.2878 20.4584C33.5441 20.408 33.7581 20.2327 33.8583 19.9914L35.0198 17.1916C35.1202 16.95 35.0928 16.6742 34.947 16.457L33.8023 14.75L35.9909 12.5612L37.698 13.7059C37.915 13.8516 38.1906 13.8789 38.4323 13.7787L41.2323 12.6173C41.4736 12.5172 41.6491 12.3031 41.6995 12.0469L42.0967 10.0322H45.192L45.5892 12.0469C45.6397 12.3033 45.815 12.5173 46.0564 12.6173L48.8564 13.7787C49.098 13.8791 49.3736 13.8516 49.5908 13.7059L51.2978 12.5612L53.4864 14.75L52.3417 16.457C52.1959 16.6744 52.1688 16.95 52.2689 17.1916L53.4305 19.9914C53.5306 20.2327 53.7447 20.408 54.0009 20.4584L56.0156 20.8558V23.9511L54.0009 24.3483C53.7447 24.3987 53.5306 24.5741 53.4305 24.8153L52.2689 27.6155C52.1686 27.8572 52.1959 28.1328 52.3417 28.35L53.4864 30.0569L51.2978 32.2456L49.5908 31.1009C49.3736 30.9552 49.098 30.9278 48.8564 31.0281L46.0564 32.1895C45.8152 32.2897 45.6397 32.5037 45.5892 32.76L45.192 34.7747H42.0967L41.6995 32.76C41.6491 32.5036 41.4737 32.2895 41.2323 32.1895L38.4323 31.0281C38.1908 30.9278 37.915 30.9553 37.698 31.1009L35.9909 32.2456L33.8023 30.0569L34.947 28.35C35.0928 28.1327 35.12 27.8572 35.0198 27.6155L33.8583 24.8153C33.7581 24.5741 33.5441 24.3987 33.2878 24.3483L31.2731 23.9511V20.8558ZM43.6442 29.9295C47.7942 29.9295 51.1703 26.5533 51.1703 22.4033C51.1703 18.2533 47.7941 14.8772 43.6442 14.8772C39.4944 14.8772 36.1181 18.2533 36.1181 22.4033C36.1181 26.5533 39.4944 29.9295 43.6442 29.9295ZM43.6442 16.4397C46.9327 16.4397 49.6078 19.115 49.6078 22.4033C49.6078 25.6916 46.9325 28.367 43.6442 28.367C40.3559 28.367 37.6806 25.6917 37.6806 22.4033C37.6806 19.1148 40.3559 16.4397 43.6442 16.4397Z" fill="#393939"/>
</svg>
