<svg width="80" height="80" viewBox="0 0 80 80" fill="none" xmlns="http://www.w3.org/2000/svg">
<g clip-path="url(#clip0_1631_3034)">
<path d="M34.5 73.5H45.5V62.5H34.5V73.5ZM50.5 20C50.5 21.3796 49.3796 22.5 48 22.5H32C30.6204 22.5 29.5 21.3796 29.5 20V16.6445L27.2471 17.9502C23.3932 20.1852 20.1853 23.3932 17.9502 27.2471L16.6445 29.5H20C21.3806 29.5 22.5 30.6174 22.5 32V48C22.5 49.3796 21.3796 50.5 20 50.5H16.6426L17.9512 52.7529C20.1858 56.6019 23.3926 59.8144 27.2471 62.0498L29.5 63.3555V60C29.5 58.6174 30.6195 57.5 32 57.5H48C49.3805 57.5 50.5 58.6174 50.5 60V63.3555L52.7529 62.0498C56.6074 59.8144 59.8142 56.6019 62.0488 52.7529L63.3574 50.5H60C58.6204 50.5 57.5 49.3796 57.5 48V32C57.5 30.6174 58.6194 29.5 60 29.5H63.2363L62.0791 27.3018C59.8104 22.9887 56.5548 20.155 52.7529 17.9502L50.5 16.6445V20ZM6.5 45.5H17.5V34.5H6.5V45.5ZM62.5 45.5H73.5V34.5H62.5V45.5ZM34.5 17.5H45.5V6.5H34.5V17.5ZM29.5 68.6416L28.5635 68.2617C20.924 65.1663 14.834 59.0728 11.7383 51.4365L11.3584 50.5H4C2.62043 50.5 1.5 49.3796 1.5 48V32C1.5 30.6174 2.61945 29.5 4 29.5H11.3584L11.7383 28.5635C14.834 20.9233 20.9237 14.8297 28.5625 11.7383L29.5 11.3584V4C29.5 2.6174 30.6194 1.5 32 1.5H48C49.3806 1.5 50.5 2.6174 50.5 4V11.3584L51.4375 11.7383C59.0753 14.8293 65.1656 20.9385 68.2617 28.5645L68.6416 29.5H76C77.3806 29.5 78.5 30.6174 78.5 32V48C78.5 49.3796 77.3796 50.5 76 50.5H68.6416L68.2617 51.4365C65.166 59.0728 59.076 65.1663 51.4365 68.2617L50.5 68.6416V76C50.5 77.3796 49.3796 78.5 48 78.5H32C30.6204 78.5 29.5 77.3796 29.5 76V68.6416Z" stroke="#393939" stroke-width="3"/>
</g>
<defs>
<clipPath id="clip0_1631_3034">
<rect width="80" height="80" fill="white"/>
</clipPath>
</defs>
</svg>
