<svg width="80" height="80" viewBox="0 0 80 80" fill="none" xmlns="http://www.w3.org/2000/svg">
<path fill-rule="evenodd" clip-rule="evenodd" d="M39.9993 40.3279C40.3569 40.3279 40.7053 40.4411 40.9947 40.6512C41.2841 40.8613 41.4996 41.1576 41.6103 41.4976C41.7211 41.8377 41.7214 42.204 41.6113 42.5442C41.5012 42.8845 41.2862 43.1812 40.9972 43.3918V44.7043C40.9989 44.8364 40.9743 44.9675 40.9249 45.0901C40.8755 45.2126 40.8022 45.3241 40.7094 45.4181C40.6165 45.5121 40.506 45.5868 40.3841 45.6377C40.2621 45.6887 40.1313 45.7149 39.9992 45.7149C39.8671 45.7149 39.7363 45.6887 39.6144 45.6377C39.4924 45.5868 39.3819 45.5121 39.289 45.4181C39.1962 45.3241 39.1229 45.2126 39.0735 45.0901C39.0241 44.9675 38.9995 44.8364 39.0012 44.7043V43.3918C38.7122 43.1811 38.4972 42.8845 38.3871 42.5442C38.277 42.204 38.2773 41.8376 38.3881 41.4975C38.4989 41.1575 38.7144 40.8612 39.0038 40.6511C39.2932 40.441 39.6417 40.3279 39.9993 40.3279ZM34.3515 34.6882H33.6171C32.528 34.6908 31.4843 35.1246 30.7142 35.8947C29.9441 36.6648 29.5103 37.7085 29.5077 38.7976V46.4569C29.5103 47.546 29.9441 48.5898 30.7142 49.3598C31.4843 50.1299 32.528 50.5637 33.6171 50.5663H46.3827C47.4718 50.5637 48.5155 50.1299 49.2856 49.3598C50.0557 48.5898 50.4895 47.546 50.4921 46.4569V38.7976C50.4895 37.7085 50.0557 36.6648 49.2856 35.8947C48.5155 35.1246 47.4718 34.6908 46.3827 34.6882H45.6483V33.0779C45.6483 30.3477 43.5146 28.0063 40.7901 28.0063H39.2096C36.4854 28.0063 34.3515 30.3476 34.3515 33.0779V34.6882ZM43.651 34.6882H36.3476V33.0779C36.3476 31.433 37.5896 30.0024 39.2096 30.0024H40.7888C42.409 30.0024 43.651 31.4332 43.651 33.0779V34.6882ZM46.3818 36.6843H33.6162C33.0563 36.6866 32.52 36.91 32.1241 37.3059C31.7281 37.7019 31.5047 38.2382 31.5024 38.798V46.4574C31.5047 47.0173 31.7281 47.5536 32.1241 47.9495C32.52 48.3454 33.0563 48.5689 33.6162 48.5712H46.3818C46.9416 48.5688 47.4779 48.3454 47.8738 47.9495C48.2697 47.5536 48.4931 47.0173 48.4954 46.4574V38.798C48.4931 38.2382 48.2697 37.7019 47.8738 37.306C47.4779 36.9101 46.9416 36.6866 46.3818 36.6843ZM39.7277 65.7884C39.8978 65.8368 40.0777 65.8388 40.2488 65.7941C52.6997 62.5471 61.1944 51.1235 61.1944 38.5562V25.0348H61.1899C61.1898 24.8189 61.1194 24.6089 60.9894 24.4366C60.8594 24.2643 60.6768 24.139 60.4693 24.0796L40.2869 18.2634C40.1044 18.2079 39.9097 18.2064 39.7263 18.2591L19.6213 24.053C19.3919 24.0954 19.1845 24.2168 19.0352 24.3961C18.8859 24.5755 18.8042 24.8014 18.8041 25.0348V38.5562C18.8041 51.1212 27.2702 62.5093 39.7277 65.7884ZM26.2791 54.5816C29.7183 59.0757 34.5389 62.3151 39.9993 63.8015C45.4596 62.3151 50.2802 59.0757 53.7193 54.5816C57.2564 49.9867 59.1819 44.3548 59.1983 38.5562V25.781L39.9993 20.248L20.8002 25.781V38.5562C20.8166 44.3548 22.742 49.9867 26.2791 54.5816ZM69.3282 10.6716C69.9841 11.3278 70.4435 12.1542 70.6548 13.0576C70.866 13.961 70.8205 14.9055 70.5236 15.7844C70.2266 16.6634 69.69 17.4419 68.9742 18.0321C68.2583 18.6223 67.3918 19.0007 66.4724 19.1247C65.5529 19.2486 64.6171 19.1132 63.7706 18.7336C62.924 18.3541 62.2003 17.7455 61.6812 16.9766C61.1621 16.2076 60.8682 15.3089 60.8326 14.3819C60.797 13.4548 61.0212 12.5362 61.4799 11.7298C56.1608 7.68987 49.8106 5.2311 43.1579 4.63547C36.5052 4.03985 29.8193 5.3315 23.8671 8.36227C23.6327 8.4794 23.3615 8.49922 23.1126 8.41742C22.8636 8.33562 22.657 8.15881 22.5378 7.92547C22.4185 7.69213 22.3963 7.42113 22.4758 7.17145C22.5554 6.92177 22.7303 6.71361 22.9626 6.59227C29.2682 3.37714 36.355 2.01237 43.4037 2.65573C50.4524 3.2991 57.1751 5.92432 62.7944 10.2279C63.753 9.49925 64.9432 9.1427 66.1445 9.22429C67.3459 9.30588 68.4769 9.82008 69.3282 10.6716ZM67.9171 12.0829C66.0447 10.2104 62.8257 11.5405 62.8257 14.1923C62.8257 16.844 66.0444 18.1732 67.9171 16.3016C68.4763 15.7423 68.7905 14.9837 68.7905 14.1927C68.7905 13.4018 68.4763 12.6423 67.9171 12.0829ZM10.6712 10.6716C11.3273 10.0158 12.1537 9.5563 13.0571 9.34507C13.9605 9.13385 14.905 9.17928 15.7839 9.47623C16.6629 9.77318 17.4414 10.3098 18.0316 11.0257C18.6218 11.7415 19.0002 12.608 19.1242 13.5275C19.2481 14.4469 19.1127 15.3827 18.7331 16.2293C18.3536 17.0758 17.745 17.7995 16.9761 18.3186C16.2072 18.8377 15.3085 19.1317 14.3814 19.1672C13.4543 19.2028 12.5357 18.9786 11.7293 18.5199C7.68958 23.8389 5.23091 30.1889 4.63528 36.8415C4.03966 43.494 5.33121 50.1797 8.36178 56.1318C8.42257 56.2481 8.45971 56.3754 8.47106 56.5062C8.4824 56.637 8.46772 56.7687 8.42786 56.8938C8.38801 57.0189 8.32377 57.1348 8.23886 57.2349C8.15395 57.335 8.05005 57.4173 7.93315 57.4771C7.81625 57.5368 7.68868 57.5728 7.5578 57.583C7.42691 57.5931 7.29532 57.5773 7.1706 57.5363C7.04588 57.4953 6.93052 57.43 6.83117 57.3442C6.73183 57.2584 6.65047 57.1538 6.59178 57.0363C3.37666 50.7307 2.01188 43.6439 2.65524 36.5952C3.29861 29.5466 5.92384 22.8239 10.2274 17.2046C9.49898 16.2461 9.14256 15.0561 9.22415 13.8549C9.30573 12.6538 9.8198 11.5229 10.6712 10.6716ZM12.0824 12.0827C10.2099 13.9551 11.5401 17.1741 14.1918 17.1741C16.8435 17.1741 18.1729 13.9554 16.3012 12.0827C15.7418 11.5235 14.9832 11.2093 14.1923 11.2093C13.4013 11.2093 12.6418 11.5235 12.0824 12.0827ZM10.6712 69.3288C10.0153 68.6727 9.55584 67.8463 9.34463 66.9429C9.13342 66.0395 9.17884 65.095 9.47579 64.2161C9.77273 63.3372 10.3094 62.5587 11.0252 61.9685C11.741 61.3783 12.6075 60.9998 13.5269 60.8759C14.4464 60.7519 15.3821 60.8873 16.2287 61.2668C17.0753 61.6464 17.799 62.2549 18.3181 63.0238C18.8372 63.7927 19.1312 64.6914 19.1668 65.6185C19.2024 66.5455 18.9782 67.4641 18.5196 68.2705C23.8387 72.3104 30.1888 74.769 36.8415 75.3645C43.4942 75.96 50.1801 74.6682 56.1321 71.6373C56.3665 71.5201 56.6377 71.5003 56.8866 71.5821C57.1356 71.6639 57.3422 71.8407 57.4614 72.0741C57.5807 72.3074 57.6029 72.5784 57.5234 72.8281C57.4438 73.0778 57.2689 73.2859 57.0366 73.4073C50.731 76.6226 43.644 77.9875 36.5952 77.3441C29.5464 76.7008 22.8236 74.0754 17.2043 69.7716C16.2458 70.5002 15.0558 70.8568 13.8547 70.7754C12.6535 70.694 11.5225 70.1801 10.6712 69.3288ZM12.0823 67.9176C13.9548 69.7899 17.1737 68.4596 17.1737 65.8082C17.1737 63.1568 13.9549 61.827 12.0823 63.6988C11.8052 63.9758 11.5855 64.3047 11.4356 64.6666C11.2856 65.0285 11.2085 65.4164 11.2085 65.8082C11.2085 66.2 11.2856 66.5879 11.4356 66.9498C11.5855 67.3117 11.8052 67.6406 12.0823 67.9176ZM69.329 69.3288C68.6728 69.9847 67.8464 70.4441 66.943 70.6553C66.0396 70.8665 65.0951 70.8211 64.2162 70.5241C63.3373 70.2271 62.5588 69.6905 61.9686 68.9747C61.3784 68.2588 61 67.3923 60.876 66.4729C60.7521 65.5535 60.8875 64.6177 61.2671 63.7711C61.6466 62.9246 62.2552 62.2009 63.0241 61.6818C63.793 61.1626 64.6917 60.8687 65.6188 60.8331C66.5458 60.7975 67.4644 61.0217 68.2708 61.4804C72.3105 56.1611 74.769 49.8109 75.3643 43.1582C75.9597 36.5054 74.6678 29.8196 71.6368 23.8676C71.5755 23.7512 71.5379 23.6238 71.5262 23.4927C71.5145 23.3617 71.529 23.2296 71.5687 23.1042C71.6084 22.9788 71.6727 22.8625 71.7577 22.7621C71.8427 22.6618 71.9468 22.5792 72.064 22.5194C72.1811 22.4595 72.309 22.4235 72.4401 22.4135C72.5713 22.4034 72.7032 22.4195 72.8281 22.4607C72.953 22.502 73.0685 22.5677 73.1678 22.654C73.2672 22.7402 73.3484 22.8453 73.4068 22.9632C76.6219 29.2688 77.9867 36.3556 77.3433 43.4042C76.6999 50.4528 74.0747 57.1755 69.7712 62.7948C70.4999 63.7533 70.8566 64.9435 70.7752 66.1449C70.6937 67.3462 70.1804 68.4774 69.329 69.3288ZM67.9177 67.9176C69.7902 66.0451 68.4599 62.8262 65.8083 62.8262C63.1568 62.8262 61.8271 66.0449 63.699 67.9176C64.2583 68.4769 65.0169 68.791 65.8079 68.791C66.599 68.791 67.3583 68.4769 67.9177 67.9176Z" fill="#393939"/>
</svg>
