<svg width="80" height="80" viewBox="0 0 80 80" fill="none" xmlns="http://www.w3.org/2000/svg">
<g clip-path="url(#clip0_1754_3665)">
<path d="M74.7156 57.4062C77.3469 52.1703 78.8281 46.2578 78.8281 40C78.8281 18.5562 61.4438 1.17188 40 1.17188C18.5562 1.17188 1.17188 18.5562 1.17188 40C1.17188 61.4438 18.5562 78.8281 40 78.8281C46.2578 78.8281 52.1703 77.3469 57.4062 74.7156" stroke="#393939" stroke-width="3" stroke-miterlimit="10" stroke-linecap="round" stroke-linejoin="round"/>
<path d="M20.418 14.8862C12.9547 20.7144 8.15625 29.7969 8.15625 39.9998C8.15625 57.5873 22.4141 71.8451 40.0016 71.8451C45.2 71.8451 50.1078 70.5998 54.4422 68.3904" stroke="#393939" stroke-width="3" stroke-miterlimit="10" stroke-linecap="round" stroke-linejoin="round"/>
<path d="M68.3908 54.4407C70.6002 50.1063 71.8455 45.1985 71.8455 40.0001C71.8455 22.4126 57.5877 8.15479 40.0002 8.15479C34.5814 8.15479 29.4788 9.50822 25.0117 11.8956" stroke="#393939" stroke-width="3" stroke-miterlimit="10" stroke-linecap="round" stroke-linejoin="round"/>
<path d="M52.4916 41.1772L58.2055 50.1624C58.9331 51.3068 58.1111 52.8037 56.755 52.8037H40.707" stroke="#393939" stroke-width="3" stroke-miterlimit="10" stroke-linecap="round" stroke-linejoin="round"/>
<path d="M31.5742 34.7789L38.5483 23.8121C39.2236 22.7501 40.7737 22.7501 41.4492 23.8121L49.4303 36.3625" stroke="#393939" stroke-width="3" stroke-miterlimit="10" stroke-linecap="round" stroke-linejoin="round"/>
<path d="M35.1412 52.8039H23.2412C21.8851 52.8039 21.0631 51.307 21.7907 50.1626L28.5074 39.6006" stroke="#393939" stroke-width="3" stroke-miterlimit="10" stroke-linecap="round" stroke-linejoin="round"/>
<path d="M58.2311 42.6002L52.493 41.1777L51.0703 46.9159" stroke="#393939" stroke-width="3" stroke-miterlimit="10" stroke-linecap="round" stroke-linejoin="round"/>
<path d="M30.1484 29.0415L31.5742 34.7788L37.3116 33.3531" stroke="#393939" stroke-width="3" stroke-miterlimit="10" stroke-linecap="round" stroke-linejoin="round"/>
<path d="M30.9609 56.9842L35.1412 52.8038L30.9609 48.6235" stroke="#393939" stroke-width="3" stroke-miterlimit="10" stroke-linecap="round" stroke-linejoin="round"/>
<path d="M78.5845 69.002C77.4553 74.6071 72.5033 78.8282 66.5655 78.8282C59.7941 78.8282 54.3047 73.3388 54.3047 66.5674C54.3047 59.796 59.7941 54.3066 66.5655 54.3066C72.3062 54.3066 77.1255 58.2521 78.4595 63.5793" stroke="#393939" stroke-width="3" stroke-miterlimit="10" stroke-linecap="round" stroke-linejoin="round"/>
<path d="M71.8747 63.3047L65.5089 69.6705C65.2969 69.8825 64.9533 69.8825 64.7414 69.6705L61.2539 66.183" stroke="#393939" stroke-width="3" stroke-miterlimit="10" stroke-linecap="round" stroke-linejoin="round"/>
</g>
<defs>
<clipPath id="clip0_1754_3665">
<rect width="80" height="80" fill="white"/>
</clipPath>
</defs>
</svg>
