<svg width="80" height="80" viewBox="0 0 80 80" fill="none" xmlns="http://www.w3.org/2000/svg">
<g clip-path="url(#clip0_1803_3708)">
<path d="M41.2236 43.5969C41.2236 42.9066 41.7833 42.3469 42.4736 42.3469H56.145C56.8353 42.3469 57.395 42.9066 57.395 43.5969C57.395 44.2872 56.8353 44.8469 56.145 44.8469H42.4736C41.7833 44.8469 41.2236 44.2872 41.2236 43.5969ZM27.8116 44.8469H36.9258C37.6161 44.8469 38.1758 44.2872 38.1758 43.5969C38.1758 42.9066 37.6161 42.3469 36.9258 42.3469H27.8116C27.1212 42.3469 26.5616 42.9066 26.5616 43.5969C26.5616 44.2872 27.1212 44.8469 27.8116 44.8469ZM79.5344 61.5303V76.7616C79.5344 78.5472 78.0817 80 76.2961 80H61.0648C59.2792 80 57.8266 78.5472 57.8266 76.7616V70.3959H9.75047C4.6325 70.3959 0.46875 66.2322 0.46875 61.1142V51.6286C0.46875 46.5106 4.6325 42.3469 9.75047 42.3469H18.1684C18.7838 37.6005 22.8492 33.9214 27.7605 33.9214H56.1964C61.1077 33.9214 65.173 37.6005 65.7883 42.3469H69.6514C73.3909 42.3469 76.4333 39.3045 76.4333 35.5652V23.3375C76.4333 19.598 73.3909 16.5559 69.6514 16.5559H31.0802V17.2058C31.0802 17.82 30.6341 18.343 30.0277 18.44L26.7131 18.9706C26.5436 19.4764 26.3388 19.9702 26.1002 20.4484L28.0694 23.1681C28.4295 23.6655 28.375 24.3508 27.9408 24.7852L25.2539 27.472C24.8197 27.9061 24.1342 27.9608 23.637 27.6005L20.9172 25.6312C20.4392 25.8697 19.9455 26.0744 19.4395 26.2439L18.9089 29.5591C18.8119 30.1655 18.2887 30.6114 17.6747 30.6114H13.8744C13.2603 30.6114 12.7372 30.1655 12.6402 29.5591L12.1095 26.2442C11.6036 26.0748 11.11 25.87 10.6317 25.6312L7.91203 27.6005C7.41469 27.9609 6.72937 27.9061 6.29516 27.472L3.60828 24.7852C3.17406 24.3509 3.11953 23.6655 3.47969 23.1681L5.44906 20.4484C5.21047 19.9702 5.00578 19.4767 4.83625 18.9706L1.52125 18.44C0.915 18.343 0.468906 17.8197 0.468906 17.2058V13.4058C0.468906 12.7917 0.915 12.2686 1.52125 12.1716L4.83609 11.6409C5.00563 11.135 5.21031 10.6412 5.44891 10.163L3.47953 7.44328C3.11938 6.94594 3.17391 6.26062 3.60813 5.82625L6.295 3.13937C6.72906 2.70531 7.41437 2.65047 7.91203 3.01094L10.6316 4.98016C11.1098 4.74156 11.6036 4.53672 12.1095 4.36719L12.6402 1.0525C12.7372 0.445938 13.2603 0 13.8744 0H17.6742C18.2883 0 18.8114 0.445938 18.9084 1.05234L19.4391 4.36703C19.945 4.53656 20.4386 4.74141 20.9169 4.98L23.6367 3.01078C24.1342 2.65031 24.8194 2.70516 25.2536 3.13922L27.9405 5.82609C28.3747 6.26031 28.4292 6.94578 28.0691 7.44313L26.1 10.1631C26.3386 10.6411 26.5433 11.1348 26.7128 11.6409L30.0278 12.1716C30.6341 12.2686 31.0802 12.7919 31.0802 13.4058V14.0558H69.6513C74.7692 14.0558 78.9331 18.2194 78.9331 23.3373V35.565C78.9331 40.683 74.7694 44.8467 69.6513 44.8467H65.7881C65.1728 49.5931 61.1073 53.2722 56.1963 53.2722H27.7603C22.8491 53.2722 18.7838 49.5931 18.1683 44.8467H9.75047C6.01094 44.8467 2.96875 47.8891 2.96875 51.6284V61.1141C2.96875 64.8536 6.01109 67.8958 9.75047 67.8958H57.8266V61.5302C57.8266 59.7445 59.2792 58.2919 61.0648 58.2919H76.2961C78.0817 58.292 79.5344 59.7447 79.5344 61.5303ZM28.5802 14.4716L25.5402 13.985C25.0484 13.9062 24.6503 13.5431 24.5267 13.0606C24.3152 12.2339 23.9867 11.4416 23.5503 10.7058C23.2962 10.2772 23.3208 9.73875 23.613 9.33516L25.4192 6.84047L24.2395 5.66094L21.7448 7.46703C21.3412 7.75922 20.8027 7.78375 20.3742 7.52969C19.638 7.09297 18.8458 6.76453 18.0197 6.55328C17.5372 6.42984 17.1737 6.03156 17.0952 5.53984L16.6084 2.5H14.9403L14.4538 5.53969C14.375 6.03141 14.0117 6.42969 13.5291 6.55312C12.703 6.76437 11.9108 7.09281 11.1744 7.52953C10.7456 7.78344 10.2072 7.75891 9.80359 7.46687L7.30922 5.66078L6.12953 6.84031L7.93578 9.335C8.22797 9.73859 8.2525 10.277 7.99844 10.7056C7.56187 11.4419 7.23328 12.2341 7.02203 13.0602C6.89859 13.5428 6.50047 13.9061 6.00859 13.9848L2.96875 14.4716V16.1398L6.00875 16.6264C6.50047 16.7052 6.89875 17.0683 7.02219 17.5509C7.23359 18.3773 7.56219 19.1695 7.99859 19.9055C8.25266 20.3341 8.22812 20.8725 7.93594 21.2761L6.12969 23.7708L7.30937 24.9503L9.80391 23.1442C10.2075 22.852 10.7461 22.8277 11.1745 23.0816C11.9113 23.5186 12.7034 23.847 13.5289 24.058C14.0116 24.1812 14.375 24.5795 14.4538 25.0714L14.9403 28.1112H16.6084L17.0952 25.0712C17.1739 24.5795 17.537 24.1814 18.0195 24.058C18.8464 23.8464 19.6386 23.5178 20.3744 23.0816C20.8028 22.8275 21.3414 22.852 21.745 23.1442L24.2397 24.9503L25.4194 23.7708L23.6131 21.2761C23.3209 20.8725 23.2964 20.3339 23.5506 19.9053C23.9873 19.1691 24.3159 18.3769 24.527 17.5509C24.6505 17.0683 25.0486 16.705 25.5406 16.6262L28.5803 16.1398V14.4716H28.5802ZM20.5848 43.5969C20.5848 47.5534 23.8037 50.7723 27.7603 50.7723H56.1963C60.1528 50.7723 63.3716 47.5534 63.3716 43.5969C63.3716 39.6403 60.1527 36.4214 56.1963 36.4214H27.7603C23.8037 36.4214 20.5848 39.6402 20.5848 43.5969ZM77.0344 61.5303C77.0344 61.1302 76.6963 60.792 76.2961 60.792H61.0648C60.6645 60.792 60.3266 61.1302 60.3266 61.5303V76.7616C60.3266 77.1619 60.6647 77.5 61.0648 77.5H76.2961C76.6964 77.5 77.0344 77.1619 77.0344 76.7616V61.5303ZM73.5183 65.2292C72.9814 64.7948 72.1945 64.8781 71.7603 65.4148L67.8694 70.2248L65.5127 67.8681C65.0245 67.3802 64.2331 67.3802 63.745 67.8681C63.2567 68.3564 63.2569 69.1478 63.745 69.6359L67.0839 72.9747C67.3189 73.2097 67.6372 73.3408 67.9677 73.3408C67.9895 73.3408 68.0116 73.3402 68.0334 73.3391C68.3873 73.3203 68.7167 73.1525 68.9395 72.8769L73.7041 66.987C74.1381 66.4505 74.055 65.6633 73.5183 65.2292ZM22.6389 15.3056C22.6389 19.0908 19.5595 22.1702 15.7744 22.1702C11.9892 22.1702 8.90984 19.0908 8.90984 15.3056C8.90984 11.5205 11.9892 8.44109 15.7744 8.44109C19.5595 8.44109 22.6389 11.5205 22.6389 15.3056ZM20.1389 15.3056C20.1389 12.8991 18.1811 10.9411 15.7744 10.9411C13.3677 10.9411 11.4098 12.8989 11.4098 15.3056C11.4098 17.7123 13.3677 19.6702 15.7744 19.6702C18.1811 19.6702 20.1389 17.7122 20.1389 15.3056Z" fill="url(#paint0_linear_1803_3708)"/>
</g>
<defs>
<linearGradient id="paint0_linear_1803_3708" x1="40.0016" y1="0" x2="40.0016" y2="80" gradientUnits="userSpaceOnUse">
<stop stop-color="#9747FF"/>
<stop offset="1" stop-color="#4B9ADB"/>
</linearGradient>
<clipPath id="clip0_1803_3708">
<rect width="80" height="80" fill="white"/>
</clipPath>
</defs>
</svg>
