<svg width="80" height="80" viewBox="0 0 80 80" fill="none" xmlns="http://www.w3.org/2000/svg">
<mask id="mask0_1808_4576" style="mask-type:luminance" maskUnits="userSpaceOnUse" x="0" y="0" width="80" height="80">
<path d="M0 7.62939e-06H80V80H0V7.62939e-06Z" fill="white"/>
</mask>
<g mask="url(#mask0_1808_4576)">
<path d="M4.6875 24.375H35.9375C37.6564 24.375 39.0625 25.7813 39.0625 27.5V71.2502C39.0625 72.9689 37.6564 74.375 35.9375 74.375H4.6875C2.96875 74.375 1.5625 72.9689 1.5625 71.2502V27.5C1.5625 25.7813 2.96875 24.375 4.6875 24.375Z" stroke="url(#paint0_linear_1808_4576)" stroke-width="2.5" stroke-miterlimit="2.613" stroke-linecap="round" stroke-linejoin="round"/>
<path d="M27.3433 32.188H31.25V41.563H9.375V32.188H13.2808" stroke="url(#paint1_linear_1808_4576)" stroke-width="2.5" stroke-miterlimit="2.613" stroke-linecap="round" stroke-linejoin="round"/>
<path d="M20.3125 61.875C22.4641 61.875 24.2187 60.1203 24.2187 57.9688C24.2187 55.8172 22.4641 54.0625 20.3125 54.0625C18.1609 54.0625 16.4062 55.8172 16.4062 57.9688C16.4062 60.1203 18.1609 61.875 20.3125 61.875Z" stroke="url(#paint2_linear_1808_4576)" stroke-width="2.5" stroke-miterlimit="2.613" stroke-linecap="round" stroke-linejoin="round"/>
<path d="M20.3125 49.375V47.0628" stroke="url(#paint3_linear_1808_4576)" stroke-width="2.5" stroke-miterlimit="2.613" stroke-linecap="round" stroke-linejoin="round"/>
<path d="M11.7183 57.9688H9.40625" stroke="url(#paint4_linear_1808_4576)" stroke-width="2.5" stroke-miterlimit="2.613" stroke-linecap="round" stroke-linejoin="round"/>
<path d="M20.3125 66.563V68.875" stroke="url(#paint5_linear_1808_4576)" stroke-width="2.5" stroke-miterlimit="2.613" stroke-linecap="round" stroke-linejoin="round"/>
<path d="M28.9062 57.9688H31.2184" stroke="url(#paint6_linear_1808_4576)" stroke-width="2.5" stroke-miterlimit="2.613" stroke-linecap="round" stroke-linejoin="round"/>
<path d="M23.4375 22.8125V21.25C23.4375 19.5313 24.8436 18.125 26.5625 18.125H32.8125C34.5312 18.125 35.9375 19.5313 35.9375 21.25V24.375" stroke="url(#paint7_linear_1808_4576)" stroke-width="2.5" stroke-miterlimit="2.613" stroke-linecap="round" stroke-linejoin="round"/>
<path d="M62.8125 60.25C71.4186 60.25 78.4375 53.3433 78.4375 44.8752C78.4375 36.4067 71.4186 29.5 62.8125 29.5C54.2067 29.5 47.1875 36.4067 47.1875 44.8752C47.1875 53.3433 54.2067 60.25 62.8125 60.25Z" stroke="url(#paint8_linear_1808_4576)" stroke-width="2.5" stroke-miterlimit="2.613" stroke-linecap="round" stroke-linejoin="round"/>
<path d="M61.25 38.625H64.375C66.0939 38.625 67.5 40.0313 67.5 41.75V48C67.5 49.7188 66.0939 51.125 64.375 51.125H61.25C59.5312 51.125 58.125 49.7188 58.125 48V41.75C58.125 40.0313 59.5312 38.625 61.25 38.625Z" stroke="url(#paint9_linear_1808_4576)" stroke-width="2.5" stroke-miterlimit="2.613" stroke-linecap="round" stroke-linejoin="round"/>
<path d="M29.6875 17.8556V8.74985C29.6875 7.0311 31.0937 5.625 32.8125 5.625H59.6877C61.4064 5.625 62.8125 7.03125 62.8125 8.74985V38.1328" stroke="url(#paint10_linear_1808_4576)" stroke-width="2.5" stroke-miterlimit="2.613" stroke-linecap="round" stroke-linejoin="round"/>
<path d="M20.3125 32.188H20.3136" stroke="url(#paint11_linear_1808_4576)" stroke-width="2.5" stroke-miterlimit="2.613" stroke-linecap="round" stroke-linejoin="round"/>
</g>
<defs>
<linearGradient id="paint0_linear_1808_4576" x1="20.3125" y1="74.375" x2="20.3125" y2="24.375" gradientUnits="userSpaceOnUse">
<stop stop-color="#9747FF"/>
<stop offset="1" stop-color="#4B9ADB"/>
</linearGradient>
<linearGradient id="paint1_linear_1808_4576" x1="20.3125" y1="41.563" x2="20.3125" y2="32.188" gradientUnits="userSpaceOnUse">
<stop stop-color="#9747FF"/>
<stop offset="1" stop-color="#4B9ADB"/>
</linearGradient>
<linearGradient id="paint2_linear_1808_4576" x1="20.3125" y1="61.875" x2="20.3125" y2="54.0625" gradientUnits="userSpaceOnUse">
<stop stop-color="#9747FF"/>
<stop offset="1" stop-color="#4B9ADB"/>
</linearGradient>
<linearGradient id="paint3_linear_1808_4576" x1="20.8125" y1="49.375" x2="20.8125" y2="47.0628" gradientUnits="userSpaceOnUse">
<stop stop-color="#9747FF"/>
<stop offset="1" stop-color="#4B9ADB"/>
</linearGradient>
<linearGradient id="paint4_linear_1808_4576" x1="10.5623" y1="57.9688" x2="10.5623" y2="56.9688" gradientUnits="userSpaceOnUse">
<stop stop-color="#9747FF"/>
<stop offset="1" stop-color="#4B9ADB"/>
</linearGradient>
<linearGradient id="paint5_linear_1808_4576" x1="20.8125" y1="68.875" x2="20.8125" y2="66.563" gradientUnits="userSpaceOnUse">
<stop stop-color="#9747FF"/>
<stop offset="1" stop-color="#4B9ADB"/>
</linearGradient>
<linearGradient id="paint6_linear_1808_4576" x1="30.0623" y1="57.9688" x2="30.0623" y2="56.9688" gradientUnits="userSpaceOnUse">
<stop stop-color="#9747FF"/>
<stop offset="1" stop-color="#4B9ADB"/>
</linearGradient>
<linearGradient id="paint7_linear_1808_4576" x1="29.6875" y1="24.375" x2="29.6875" y2="18.125" gradientUnits="userSpaceOnUse">
<stop stop-color="#9747FF"/>
<stop offset="1" stop-color="#4B9ADB"/>
</linearGradient>
<linearGradient id="paint8_linear_1808_4576" x1="62.8125" y1="60.25" x2="62.8125" y2="29.5" gradientUnits="userSpaceOnUse">
<stop stop-color="#9747FF"/>
<stop offset="1" stop-color="#4B9ADB"/>
</linearGradient>
<linearGradient id="paint9_linear_1808_4576" x1="62.8125" y1="51.125" x2="62.8125" y2="38.625" gradientUnits="userSpaceOnUse">
<stop stop-color="#9747FF"/>
<stop offset="1" stop-color="#4B9ADB"/>
</linearGradient>
<linearGradient id="paint10_linear_1808_4576" x1="46.25" y1="38.1328" x2="46.25" y2="5.625" gradientUnits="userSpaceOnUse">
<stop stop-color="#9747FF"/>
<stop offset="1" stop-color="#4B9ADB"/>
</linearGradient>
<linearGradient id="paint11_linear_1808_4576" x1="20.313" y1="32.188" x2="20.313" y2="31.188" gradientUnits="userSpaceOnUse">
<stop stop-color="#9747FF"/>
<stop offset="1" stop-color="#4B9ADB"/>
</linearGradient>
</defs>
</svg>
