<svg width="80" height="80" viewBox="0 0 80 80" fill="none" xmlns="http://www.w3.org/2000/svg">
<path d="M72.725 56.0348C72.1215 55.101 71.1997 54.4179 70.1307 54.1122C69.0617 53.8064 67.9181 53.8988 66.9121 54.3722L52.5437 61.2281C52.5655 61.076 52.5665 60.9216 52.5468 60.7692C52.4206 59.1205 51.7215 57.5679 50.5706 56.3807C49.4197 55.1934 47.8895 54.4464 46.2455 54.269L37.8923 53.3657C32.9731 52.9062 28.6247 48.0937 23.5295 48.4769L20.0004 48.8463C20.0656 48.477 20.0504 48.0979 19.9557 47.7351C19.861 47.3722 19.6891 47.034 19.4518 46.7437C19.2145 46.4533 18.9173 46.2176 18.5805 46.0526C18.2437 45.8876 17.8753 45.7972 17.5004 45.7876H9.05078C8.38797 45.7884 7.75253 46.052 7.28385 46.5207C6.81518 46.9893 6.55154 47.6248 6.55078 48.2876V71.5749C6.55154 72.2377 6.81518 72.8732 7.28385 73.3418C7.75253 73.8105 8.38797 74.0742 9.05078 74.0749H17.5004C18.1632 74.0742 18.7987 73.8105 19.2674 73.3418C19.736 72.8732 19.9997 72.2377 20.0004 71.5749V70.3882L29.5695 74.139C31.1 74.7381 32.7333 75.0308 34.3767 75.0002L48.0986 74.7249C52.1306 74.9215 56.4038 71.5913 59.6733 69.6113C59.9479 69.433 60.1416 69.1541 60.2128 68.8345C60.2839 68.5149 60.2269 68.1801 60.0539 67.9021C59.8809 67.6242 59.6058 67.4251 59.2877 67.3478C58.9695 67.2705 58.6337 67.3211 58.3524 67.4887C55.5171 69.1373 51.5159 72.413 48.0498 72.2249L34.3303 72.5002C33.0144 72.5274 31.7061 72.2932 30.4814 71.8111L20.0004 67.7024V62.488C20.0004 62.1565 19.8687 61.8385 19.6343 61.6041C19.3999 61.3697 19.082 61.238 18.7504 61.238C18.4189 61.238 18.101 61.3697 17.8665 61.6041C17.6321 61.8385 17.5004 62.1565 17.5004 62.488V71.5749H9.05072V48.2876H12.0231V50.9811C12.0231 51.3126 12.1548 51.6305 12.3892 51.8649C12.6237 52.0994 12.9416 52.2311 13.2731 52.2311C13.6047 52.2311 13.9226 52.0994 14.157 51.8649C14.3914 51.6305 14.5231 51.3126 14.5231 50.9811V48.2876H17.5004V57.488C17.5048 57.8166 17.6385 58.1303 17.8724 58.3611C18.1064 58.5919 18.4218 58.7213 18.7504 58.7213C19.0791 58.7213 19.3945 58.5919 19.6284 58.3611C19.8624 58.1303 19.996 57.8166 20.0004 57.488V51.3601C21.5155 51.1416 23.0436 51.0265 24.5743 51.0158C29.023 51.4757 33.085 55.6493 37.6274 55.8515L45.977 56.7544C47.0564 56.8664 48.0605 57.3593 48.8093 58.1447C49.558 58.9302 50.0024 59.9567 50.0627 61.0402C50.0622 61.3502 49.9388 61.6473 49.7196 61.8664C49.5004 62.0855 49.2032 62.2087 48.8933 62.209C46.9682 62.211 41.5414 62.2141 39.5378 62.2127C39.2093 62.2173 38.8959 62.3511 38.6653 62.585C38.4346 62.8189 38.3053 63.1342 38.3053 63.4627C38.3053 63.7912 38.4346 64.1065 38.6653 64.3404C38.8959 64.5743 39.2093 64.7081 39.5378 64.7127H50.7633C50.9497 64.7128 51.1336 64.6711 51.3017 64.5906L67.9862 56.6292C68.4638 56.4112 69.0062 56.3824 69.5041 56.5485C70.002 56.7147 70.4185 57.0634 70.6695 57.5245C70.9204 57.9855 70.9873 58.5245 70.8566 59.0329C70.7258 59.5413 70.4072 59.9812 69.9649 60.264L62.5895 64.8513C62.3134 65.029 62.1183 65.3081 62.0462 65.6284C61.9742 65.9487 62.031 66.2845 62.2045 66.5632C62.378 66.842 62.6541 67.0413 62.9733 67.1182C63.2925 67.1951 63.6291 67.1433 63.9104 66.974L71.2822 62.3885C71.7965 62.0682 72.2423 61.6491 72.5936 61.1555C72.945 60.6619 73.1949 60.1035 73.3291 59.5126C73.4633 58.9218 73.479 58.3102 73.3753 57.7132C73.2716 57.1163 73.0506 56.5458 72.725 56.0348Z" fill="#393939"/>
<path d="M28.0778 37.594L30.9978 42.6514C31.2965 43.1642 31.777 43.546 32.3441 43.7213C32.9111 43.8965 33.5233 43.8523 34.0593 43.5974L39.2583 41.0999C40.7045 42.3079 42.3452 43.2618 44.1106 43.921L44.5463 49.6491C44.5926 50.2413 44.86 50.7944 45.2954 51.1984C45.7308 51.6025 46.3022 51.8279 46.8962 51.8299H52.736C53.3296 51.828 53.9008 51.603 54.3362 51.1994C54.7715 50.7958 55.0391 50.2433 55.0859 49.6516L55.5217 43.921C57.287 43.2618 58.9278 42.3079 60.374 41.0999L65.5717 43.5969C66.1077 43.8525 66.7202 43.8971 67.2877 43.722C67.8551 43.5468 68.3358 43.1647 68.6345 42.6514L71.5544 37.5935C71.849 37.0782 71.9393 36.4712 71.8075 35.8926C71.6757 35.3139 71.3314 34.8059 70.8427 34.4691L66.0881 31.2208C66.4183 29.3648 66.4183 27.4651 66.0881 25.6092L70.8415 22.3615C71.3305 22.0249 71.6752 21.5168 71.8072 20.938C71.9393 20.3592 71.849 19.7519 71.5544 19.2365L68.6345 14.1785C68.3356 13.6658 67.8551 13.2841 67.2881 13.1089C66.7211 12.9336 66.109 12.9778 65.573 13.2325L60.374 15.7306C58.9278 14.5223 57.2871 13.5682 55.5217 12.9089L55.0859 7.18144C55.0397 6.58919 54.7723 6.03601 54.3369 5.63185C53.9016 5.22768 53.3301 5.00212 52.736 5H46.8962C46.3025 5.00201 45.7313 5.2272 45.296 5.63086C44.8607 6.03452 44.5931 6.58712 44.5463 7.17895L44.1106 12.9089C42.3451 13.5682 40.7044 14.5223 39.2583 15.7306L34.0593 13.2324C33.5234 12.9772 32.9111 12.9329 32.3439 13.1081C31.7768 13.2834 31.2963 13.6654 30.9978 14.1785L28.0778 19.2365C27.7833 19.7517 27.693 20.3587 27.8248 20.9374C27.9566 21.516 28.3009 22.024 28.7895 22.3608L33.5442 25.6091C33.2138 27.4651 33.2138 29.3648 33.5442 31.2207L28.7908 34.4684C28.3017 34.8051 27.957 35.3133 27.825 35.8922C27.6929 36.4711 27.7832 37.0785 28.0778 37.594ZM35.6377 32.8186C35.8442 32.677 36.0036 32.4768 36.0952 32.2437C36.1868 32.0107 36.2064 31.7555 36.1516 31.5112C35.6779 29.4742 35.6779 27.3556 36.1516 25.3186C36.2064 25.0743 36.1868 24.8191 36.0952 24.5861C36.0036 24.353 35.8442 24.1528 35.6377 24.0112L30.3093 20.3711L33.0974 15.5432L38.9213 18.3417C39.1471 18.4503 39.4004 18.4884 39.6482 18.4511C39.896 18.4137 40.1267 18.3027 40.3105 18.1323C41.8385 16.7056 43.6686 15.6418 45.6645 15.0201C45.904 14.946 46.1157 14.8015 46.272 14.6055C46.4283 14.4094 46.522 14.1709 46.541 13.9209L47.0293 7.5H52.603L53.0913 13.9209C53.1102 14.1709 53.204 14.4094 53.3603 14.6055C53.5166 14.8015 53.7282 14.946 53.9678 15.0201C55.9637 15.6418 57.7937 16.7056 59.3218 18.1323C59.5055 18.3026 59.7363 18.4137 59.9841 18.451C60.2318 18.4883 60.4851 18.4502 60.7109 18.3417L66.5349 15.5432L69.3229 20.3711L63.9946 24.0112C63.7881 24.1528 63.6287 24.3531 63.5371 24.5861C63.4455 24.8192 63.4258 25.0743 63.4807 25.3186C63.9543 27.3557 63.9543 29.4742 63.4807 31.5112C63.4258 31.7556 63.4455 32.0107 63.5371 32.2438C63.6287 32.4768 63.7881 32.6771 63.9946 32.8186L69.3229 36.4587L66.5349 41.2866L60.7109 38.4888C60.4851 38.3804 60.2319 38.3423 59.9842 38.3796C59.7365 38.4168 59.5057 38.5275 59.3217 38.6975C57.7938 40.1243 55.9637 41.1881 53.9677 41.8097C53.7282 41.8839 53.5166 42.0284 53.3603 42.2244C53.204 42.4204 53.1103 42.6589 53.0913 42.9089L52.603 49.3298H47.0292L46.541 42.9089C46.522 42.6589 46.4282 42.4204 46.2719 42.2244C46.1156 42.0284 45.904 41.8839 45.6645 41.8097C43.6685 41.1881 41.8384 40.1243 40.3105 38.6975C40.1265 38.5275 39.8957 38.4167 39.648 38.3795C39.4003 38.3423 39.1471 38.3803 38.9213 38.4888L33.0974 41.2866L30.3093 36.4587L35.6377 32.8186Z" fill="#393939"/>
<path d="M46.6108 40.4659C48.2992 40.9031 50.0603 40.9834 51.7815 40.7017C53.5027 40.42 55.1462 39.7824 56.6071 38.8296C58.068 37.8769 59.3142 36.63 60.266 35.1685C61.2179 33.707 61.8544 32.0631 62.1351 30.3417C62.1603 30.1795 62.1532 30.0139 62.1144 29.8544C62.0756 29.6949 62.0057 29.5446 61.9088 29.4121C61.8119 29.2796 61.6898 29.1675 61.5496 29.0822C61.4093 28.9968 61.2536 28.94 61.0914 28.9148C60.9292 28.8897 60.7636 28.8967 60.6041 28.9355C60.4446 28.9744 60.2943 29.0442 60.1618 29.1412C60.0293 29.2381 59.9172 29.3601 59.8319 29.5004C59.7466 29.6406 59.6897 29.7963 59.6645 29.9585C59.4086 31.5903 58.7499 33.1326 57.7482 34.4459C56.7465 35.7593 55.4333 36.8022 53.9272 37.4806V32.1338C55.0437 31.2535 55.847 30.0371 56.2183 28.6646C56.5896 27.2922 56.5092 25.8367 55.989 24.5136C55.9159 24.3318 55.8013 24.1695 55.6545 24.0398C55.5076 23.9101 55.3325 23.8164 55.1431 23.7663C54.9537 23.7161 54.7552 23.7109 54.5634 23.751C54.3715 23.7911 54.1918 23.8754 54.0383 23.9973L51.2942 26.2159C51.2178 26.2712 51.123 26.2949 51.0295 26.282C50.9361 26.2691 50.8512 26.2207 50.7926 26.1467C50.7341 26.0728 50.7063 25.9791 50.7151 25.8852C50.724 25.7913 50.7687 25.7044 50.8401 25.6427L53.5708 23.4363C53.7214 23.3121 53.8411 23.1546 53.9204 22.9763C53.9997 22.7979 54.0364 22.6035 54.0277 22.4085C54.0189 22.2135 53.9649 22.0231 53.8699 21.8526C53.775 21.682 53.6416 21.5359 53.4804 21.4258C52.0569 20.4792 50.3225 20.1196 48.6399 20.4223C46.9574 20.725 45.457 21.6664 44.4526 23.0498C43.4482 24.4332 43.0175 26.1513 43.2506 27.8449C43.4837 29.5384 44.3626 31.0763 45.7034 32.1368L45.7033 37.5005C36.0162 33.0484 39.0918 18.5311 49.8124 18.4253C51.9504 18.4345 54.0294 19.127 55.7459 20.4016C57.4623 21.6762 58.7263 23.4663 59.3533 25.5103C59.45 25.8264 59.668 26.0914 59.9595 26.2472C60.2511 26.4031 60.5925 26.4371 60.9091 26.3419C61.2257 26.2467 61.4917 26.03 61.649 25.7392C61.8062 25.4484 61.8419 25.1071 61.7482 24.79C60.9638 22.2329 59.3825 19.9935 57.2351 18.3987C55.0878 16.8039 52.4869 15.9373 49.8122 15.9253C35.2289 16.2662 32.6026 36.4239 46.6108 40.4659ZM46.8581 24.0644C47.3033 23.6082 47.8477 23.2608 48.449 23.0492C49.0502 22.8376 49.6922 22.7675 50.3249 22.8443L49.2617 23.7036C48.6843 24.1861 48.3198 24.8762 48.2469 25.625C48.1739 26.3739 48.3984 27.1214 48.8717 27.7062C49.3451 28.291 50.0295 28.6662 50.7771 28.7509C51.5247 28.8355 52.2756 28.6227 52.8677 28.1585L53.9309 27.2992C53.8814 27.8511 53.7215 28.3874 53.4606 28.8762C53.1997 29.365 52.8432 29.7964 52.4123 30.1447C51.9334 30.4675 51.3981 30.844 51.4273 31.4924V38.2415C50.3611 38.4319 49.2695 38.4312 48.2035 38.2394V31.4923C48.1834 30.3657 46.7266 30.0876 46.3249 29.1491C45.8289 28.3651 45.6118 27.4368 45.7085 26.5141C45.8053 25.5915 46.2103 24.7284 46.8581 24.0644Z" fill="#393939"/>
</svg>
