<svg width="80" height="80" viewBox="0 0 80 80" fill="none" xmlns="http://www.w3.org/2000/svg">
<g clip-path="url(#clip0_1761_3725)">
<path d="M40 0.5C18.1667 0.5 0.5 18.1667 0.5 40C0.5 61.8333 18.1667 79.6667 40 79.6667C61.8333 79.6667 79.6667 61.8333 79.6667 40C79.6667 18.1667 61.8333 0.5 40 0.5ZM40 77.1667C19.5 77.1667 2.83333 60.5 2.83333 40C2.83333 19.5 19.5 3 40 3C60.5 3 77.1667 19.6667 77.1667 40.1667C77.1667 60.6667 60.5 77.1667 40 77.1667Z" fill="#393939"/>
<path d="M40.8333 26.9998C40.6667 26.8332 40.3333 26.6665 40 26.6665C39.6667 26.6665 39.3333 26.8332 39.1667 26.9998C39.1667 26.9998 35.8333 30.3332 29.8333 30.3332C29.1667 30.3332 28.5 30.8332 28.5 31.6665V42.4998C28.5 43.9998 29 45.3332 29.6667 46.4998C31.1667 48.6665 34.1667 51.6665 39.5 53.6665H40C40 53.6665 40.3333 53.6665 40.5 53.6665C45.8333 51.6665 48.6667 48.6665 50.3333 46.4998C51.1667 45.3332 51.5 43.9998 51.5 42.4998V31.6665C51.5 30.9998 51 30.3332 50.1667 30.3332C44.1667 30.3332 41 26.9998 40.8333 26.9998ZM49 42.3332C49 43.3332 48.6667 44.1665 48.1667 44.8332C47.1667 46.3332 44.6667 49.1665 40 50.9998C35.3333 49.1665 32.8333 46.3332 31.8333 44.8332C31.3333 44.1665 31 43.3332 31 42.3332V32.6665C35.5 32.3332 38.5 30.4998 40 29.4998C41.3333 30.4998 44.5 32.3332 49 32.6665V42.3332Z" fill="#393939"/>
<path d="M35.1654 39.1667L33.332 40.8333L37.332 44.8333C37.4987 45 37.832 45.1667 38.1654 45.1667C38.4987 45.1667 38.832 45 38.9987 44.8333L46.4987 37.3333L44.6654 35.5L37.9987 42.1667L35.1654 39.1667Z" fill="#393939"/>
<path d="M39.9987 61.6668C32.832 61.6668 26.332 58.1668 22.1654 52.3335L26.6654 52.6668L26.832 50.1668L18.4987 49.5002L17.832 57.8335L20.332 58.0002L20.6654 54.5002C25.1654 60.3335 32.332 64.0002 39.832 64.0002C53.1654 64.0002 63.9987 53.1668 63.9987 39.8335H61.6654C61.6654 52.0002 51.9987 61.6668 39.9987 61.6668Z" fill="#393939"/>
<path d="M39.9987 18.3335C47.332 18.3335 53.9987 22.0002 57.9987 27.8335L53.332 27.5002L53.1654 30.0002L61.4987 30.6668L62.1654 22.3335L59.6654 22.1668L59.332 25.5002C54.832 19.5002 47.6654 15.8335 39.9987 15.8335C26.6654 15.8335 15.832 26.6668 15.832 40.0002H18.332C18.332 28.0002 27.9987 18.3335 39.9987 18.3335Z" fill="#393939"/>
</g>
<defs>
<clipPath id="clip0_1761_3725">
<rect width="80" height="80" fill="white"/>
</clipPath>
</defs>
</svg>
