<svg width="80" height="80" viewBox="0 0 80 80" fill="none" xmlns="http://www.w3.org/2000/svg">
<path d="M58.1289 24.6124C58.1287 27.1608 57.3443 29.6474 55.8821 31.7346C54.4198 33.8217 52.3507 35.4082 49.9556 36.2788C47.5605 37.1493 44.9555 37.2616 42.4944 36.6004C40.0333 35.9392 37.8353 34.5366 36.1989 32.5831L36.7339 32.6937C36.8962 32.7273 37.0653 32.695 37.2038 32.6039C37.3424 32.5128 37.4391 32.3704 37.4726 32.2081C37.5062 32.0457 37.4739 31.8767 37.3828 31.7381C37.2918 31.5996 37.1494 31.5029 36.987 31.4693L34.8676 31.0318L34.8439 31.0281H34.8376C34.8164 31.0249 34.7951 31.0224 34.7751 31.0212C34.6252 31.0119 34.4771 31.0576 34.3584 31.1496C34.2397 31.2416 34.1586 31.3737 34.1301 31.5212L33.6926 33.6393C33.6591 33.8017 33.6914 33.9707 33.7824 34.1093C33.8735 34.2478 34.0159 34.3445 34.1783 34.3781C34.3406 34.4116 34.5097 34.3793 34.6482 34.2883C34.7868 34.1972 34.8834 34.0548 34.917 33.8924L35.0651 33.1743C36.999 35.5786 39.6895 37.2578 42.699 37.9385C45.7085 38.6192 48.8598 38.2613 51.6401 36.9233C54.4204 35.5852 56.666 33.3456 58.0116 30.5689C59.3571 27.7922 59.7234 24.6419 59.0508 21.6306C59.0326 21.5505 58.9989 21.4748 58.9515 21.4078C58.9041 21.3407 58.844 21.2837 58.7745 21.2399C58.7051 21.1961 58.6277 21.1664 58.5468 21.1526C58.4659 21.1387 58.383 21.1409 58.3029 21.159C58.2229 21.1771 58.1472 21.2109 58.0801 21.2583C58.0131 21.3057 57.9561 21.3658 57.9123 21.4352C57.8685 21.5047 57.8388 21.5821 57.8249 21.663C57.8111 21.7439 57.8132 21.8268 57.8314 21.9068C58.0306 22.7949 58.1304 23.7023 58.1289 24.6124Z" fill="#393939"/>
<path d="M33.1883 28.8627C33.2464 28.8625 33.3043 28.8543 33.3602 28.8383C33.4393 28.8157 33.5132 28.7776 33.5776 28.7263C33.642 28.6751 33.6956 28.6116 33.7354 28.5395C33.7752 28.4674 33.8003 28.3882 33.8094 28.3064C33.8185 28.2246 33.8113 28.1418 33.7883 28.0627C33.4662 26.9401 33.3021 25.7781 33.3008 24.6102C33.3008 22.046 34.0947 19.5448 35.5733 17.4499C37.052 15.355 39.143 13.7693 41.559 12.9105C43.9751 12.0517 46.5978 11.962 49.067 12.6537C51.5361 13.3453 53.7305 14.7844 55.3489 16.7733L54.7833 16.6565C54.6227 16.6277 54.4572 16.6628 54.3222 16.7544C54.1872 16.846 54.0933 16.9868 54.0607 17.1466C54.028 17.3065 54.0592 17.4728 54.1475 17.61C54.2358 17.7471 54.3743 17.8444 54.5333 17.8808L56.652 18.3183C56.6992 18.327 56.7472 18.3312 56.7952 18.3308C56.9491 18.3274 57.0964 18.2673 57.2087 18.162C57.321 18.0567 57.3906 17.9136 57.4039 17.7602L57.8277 15.7146C57.8614 15.5522 57.8292 15.3831 57.7383 15.2445C57.6473 15.1058 57.505 15.0089 57.3427 14.9752C57.1803 14.9415 57.0112 14.9736 56.8725 15.0646C56.7339 15.1555 56.637 15.2979 56.6033 15.4602L56.4595 16.1577C54.7024 13.9239 52.2927 12.2935 49.5656 11.4933C46.8385 10.6931 43.9298 10.763 41.2443 11.6933C38.5588 12.6235 36.2301 14.3678 34.5824 16.6834C32.9346 18.999 32.0497 21.7707 32.0508 24.6127C32.0519 25.8972 32.2326 27.1752 32.5877 28.4096C32.625 28.5401 32.7038 28.6549 32.8122 28.7367C32.9205 28.8184 33.0525 28.8627 33.1883 28.8627Z" fill="#393939"/>
<path d="M29.0097 19.14C28.9655 19.2607 28.8845 19.3646 28.7783 19.437C28.672 19.5094 28.5457 19.5468 28.4172 19.5438H26.9297C26.4324 19.5438 25.9555 19.7413 25.6039 20.0929C25.2522 20.4446 25.0547 20.9215 25.0547 21.4188V27.8C25.0547 28.2973 25.2522 28.7742 25.6039 29.1258C25.9555 29.4775 26.4324 29.675 26.9297 29.675H28.4172C28.5462 29.672 28.6728 29.7097 28.7792 29.7826C28.8856 29.8554 28.9665 29.9599 29.0103 30.0813C29.2885 30.9338 29.6312 31.7639 30.0353 32.5644C30.0885 32.6794 30.1046 32.8081 30.0813 32.9326C30.058 33.0572 29.9965 33.1714 29.9053 33.2594L28.8503 34.3219C28.5003 34.6733 28.3038 35.149 28.3038 35.645C28.3038 36.141 28.5003 36.6167 28.8503 36.9681L33.3597 41.4781C33.7162 41.8219 34.1922 42.0139 34.6875 42.0139C35.1828 42.0139 35.6588 41.8219 36.0153 41.4781L37.0716 40.4219C37.1589 40.3302 37.2726 40.2679 37.397 40.2439C37.5213 40.2198 37.65 40.235 37.7653 40.2875C38.5639 40.693 39.3929 41.0357 40.2447 41.3125C40.3675 41.3566 40.4733 41.4383 40.5469 41.5461C40.6206 41.6538 40.6583 41.782 40.6547 41.9125V43.4062C40.6547 43.9035 40.8522 44.3804 41.2039 44.7321C41.5555 45.0837 42.0324 45.2812 42.5297 45.2812H48.9109C49.4082 45.2812 49.8851 45.0837 50.2368 44.7321C50.5884 44.3804 50.7859 43.9035 50.7859 43.4062V41.9125C50.7821 41.7829 50.8191 41.6554 50.8917 41.548C50.9642 41.4405 51.0687 41.3586 51.1903 41.3137C52.0435 41.0363 52.8741 40.6936 53.6747 40.2887C53.7901 40.2365 53.9189 40.2214 54.0433 40.2455C54.1676 40.2695 54.2815 40.3316 54.3691 40.4231L55.4222 41.4769C55.5955 41.6535 55.8024 41.7936 56.0307 41.8892C56.259 41.9847 56.5041 42.0336 56.7516 42.0331C56.9982 42.0336 57.2425 41.9849 57.4702 41.8898C57.6978 41.7947 57.9041 41.6552 58.0772 41.4794L62.5903 36.9669C62.9399 36.6155 63.1362 36.14 63.1362 35.6444C63.1362 35.1487 62.9399 34.6732 62.5903 34.3219L61.5278 33.2519C61.4368 33.1609 61.3763 33.0439 61.3546 32.917C61.333 32.7902 61.3514 32.6597 61.4072 32.5438C61.8063 31.7559 62.1435 30.9382 62.4159 30.0981C62.4579 29.9751 62.5372 29.8683 62.6427 29.7925C62.7482 29.7166 62.8747 29.6756 63.0047 29.675H64.5109C65.0082 29.675 65.4851 29.4775 65.8368 29.1258C66.1884 28.7742 66.3859 28.2973 66.3859 27.8V21.4188C66.3859 20.9215 66.1884 20.4446 65.8368 20.0929C65.4851 19.7413 65.0082 19.5438 64.5109 19.5438H63.0047C62.8761 19.5432 62.7508 19.503 62.6459 19.4286C62.5409 19.3542 62.4615 19.2493 62.4184 19.1281C62.1457 18.286 61.8078 17.4665 61.4078 16.6769C61.352 16.5603 61.3337 16.4294 61.3554 16.302C61.3772 16.1746 61.4378 16.0571 61.5291 15.9656L62.5916 14.8981C62.9415 14.5467 63.138 14.071 63.138 13.575C63.138 13.079 62.9415 12.6033 62.5916 12.2519L58.0797 7.73938C57.7222 7.39837 57.2472 7.20812 56.7531 7.20812C56.2591 7.20812 55.784 7.39837 55.4266 7.73938L54.3709 8.795C54.2832 8.88684 54.169 8.94911 54.0442 8.97319C53.9195 8.99726 53.7903 8.98195 53.6747 8.92937C52.876 8.52553 52.0475 8.18348 51.1966 7.90625C51.0738 7.86208 50.9682 7.7803 50.8947 7.67256C50.8212 7.56482 50.7836 7.43663 50.7872 7.30625V5.8125C50.7872 5.31522 50.5896 4.83831 50.238 4.48667C49.8864 4.13504 49.4095 3.9375 48.9122 3.9375H42.5297C42.0324 3.9375 41.5555 4.13504 41.2039 4.48667C40.8522 4.83831 40.6547 5.31522 40.6547 5.8125V7.30625C40.6584 7.43589 40.6213 7.56341 40.5486 7.67084C40.4759 7.77826 40.3714 7.86016 40.2497 7.905C39.3963 8.18139 38.5659 8.5241 37.7659 8.93C37.6505 8.98224 37.5217 8.99737 37.3974 8.9733C37.273 8.94923 37.1592 8.88715 37.0716 8.79562L36.0153 7.73938C35.8412 7.56514 35.6344 7.42692 35.4069 7.33262C35.1793 7.23831 34.9354 7.18977 34.6891 7.18977C34.4427 7.18977 34.1988 7.23831 33.9713 7.33262C33.7437 7.42692 33.5369 7.56514 33.3628 7.73938L28.8503 12.2519C28.5011 12.6032 28.3051 13.0784 28.3051 13.5738C28.3051 14.0691 28.5011 14.5443 28.8503 14.8956L29.9128 15.9713C30.0024 16.0587 30.0625 16.1719 30.0849 16.2951C30.1073 16.4183 30.0908 16.5453 30.0378 16.6588C29.6315 17.458 29.2877 18.2876 29.0097 19.14ZM30.7922 15.0856L29.7341 14.0144C29.6184 13.8974 29.5536 13.7395 29.5536 13.575C29.5536 13.4105 29.6184 13.2526 29.7341 13.1356L34.2484 8.625C34.3065 8.5668 34.3755 8.52062 34.4514 8.48911C34.5273 8.4576 34.6087 8.44138 34.6909 8.44138C34.7731 8.44138 34.8545 8.4576 34.9305 8.48911C35.0064 8.52062 35.0754 8.5668 35.1334 8.625L36.1897 9.68125C36.4624 9.96113 36.8169 10.1473 37.2021 10.2129C37.5874 10.2784 37.9835 10.2201 38.3334 10.0462C39.0766 9.66938 39.8481 9.35133 40.6409 9.095C41.0129 8.96764 41.3353 8.72621 41.5622 8.40507C41.7891 8.08393 41.9089 7.69943 41.9047 7.30625V5.8125C41.9047 5.64674 41.9705 5.48777 42.0877 5.37056C42.205 5.25335 42.3639 5.1875 42.5297 5.1875H48.9109C49.0767 5.1875 49.2357 5.25335 49.3529 5.37056C49.4701 5.48777 49.5359 5.64674 49.5359 5.8125V7.30625C49.5324 7.70007 49.6532 8.08496 49.8813 8.40605C50.1093 8.72714 50.4329 8.96803 50.8059 9.09437C51.5968 9.35195 52.3668 9.66975 53.1091 10.045C53.4592 10.2182 53.8552 10.2761 54.2403 10.2104C54.6254 10.1448 54.9799 9.95886 55.2528 9.67938L56.3109 8.625C56.4302 8.51129 56.5887 8.44786 56.7534 8.44786C56.9182 8.44786 57.0767 8.51129 57.1959 8.625L61.7078 13.1375C61.8238 13.2545 61.8889 13.4127 61.8889 13.5775C61.8889 13.7423 61.8238 13.9004 61.7078 14.0175L60.6453 15.0887C60.3702 15.3661 60.1886 15.7224 60.1259 16.108C60.0631 16.4936 60.1223 16.8891 60.2953 17.2394C60.6666 17.9739 60.98 18.7362 61.2328 19.5194C61.357 19.8914 61.5952 20.2149 61.9135 20.444C62.2319 20.6731 62.6143 20.7961 63.0066 20.7956H64.5128C64.6786 20.7956 64.8375 20.8615 64.9548 20.9787C65.072 21.0959 65.1378 21.2549 65.1378 21.4206V27.8C65.1378 27.9658 65.072 28.1247 64.9548 28.2419C64.8375 28.3592 64.6786 28.425 64.5128 28.425H63.0066C62.613 28.4248 62.2294 28.5489 61.9104 28.7795C61.5915 29.0102 61.3535 29.3356 61.2303 29.7094C60.9771 30.4904 60.6637 31.2506 60.2928 31.9831C60.1183 32.3334 60.0585 32.7297 60.1219 33.1158C60.1853 33.5019 60.3686 33.8583 60.6459 34.1344L61.7084 35.2044C61.8241 35.3214 61.8889 35.4792 61.8889 35.6437C61.8889 35.8083 61.8241 35.9661 61.7084 36.0831L57.1928 40.5988C57.0751 40.7141 56.9167 40.7788 56.7519 40.7788C56.587 40.7788 56.4287 40.7141 56.3109 40.5988L55.2541 39.5419C54.9813 39.2627 54.6271 39.0771 54.2424 39.0115C53.8577 38.946 53.462 39.0038 53.1122 39.1769C52.3671 39.5515 51.5944 39.8685 50.8009 40.125C50.4289 40.2521 50.1064 40.4932 49.8793 40.8141C49.6522 41.135 49.5321 41.5194 49.5359 41.9125V43.4062C49.5359 43.572 49.4701 43.731 49.3529 43.8482C49.2357 43.9654 49.0767 44.0312 48.9109 44.0312H42.5297C42.3639 44.0312 42.205 43.9654 42.0877 43.8482C41.9705 43.731 41.9047 43.572 41.9047 43.4062V41.9125C41.908 41.5188 41.7871 41.1341 41.5591 40.8132C41.331 40.4922 41.0075 40.2514 40.6347 40.125C39.8431 39.8688 39.0728 39.5509 38.3309 39.1744C38.0791 39.0469 37.8007 38.9806 37.5184 38.9806C37.2708 38.9819 37.0258 39.0319 36.7975 39.1279C36.5691 39.2239 36.362 39.3639 36.1878 39.54L35.1253 40.5988C35.0077 40.7144 34.8493 40.7793 34.6844 40.7793C34.5194 40.7793 34.361 40.7144 34.2434 40.5988L29.7309 36.0863C29.6149 35.9692 29.5498 35.8111 29.5498 35.6463C29.5498 35.4814 29.6149 35.3233 29.7309 35.2063L30.7853 34.1438C31.0642 33.8706 31.2493 33.5161 31.3141 33.1312C31.3789 32.7462 31.32 32.3506 31.1459 32.0013C30.7713 31.2587 30.4535 30.4887 30.1953 29.6981C30.0725 29.3246 29.834 28.9998 29.5143 28.7709C29.1946 28.542 28.8104 28.4209 28.4172 28.425H26.9297C26.8474 28.4259 26.7657 28.4104 26.6894 28.3793C26.6132 28.3482 26.5439 28.3022 26.4857 28.244C26.4275 28.1858 26.3815 28.1165 26.3504 28.0403C26.3193 27.964 26.3038 27.8823 26.3047 27.8V21.4188C26.3038 21.3364 26.3193 21.2547 26.3504 21.1785C26.3815 21.1022 26.4275 21.033 26.4857 20.9748C26.5439 20.9165 26.6132 20.8705 26.6894 20.8395C26.7657 20.8084 26.8474 20.7928 26.9297 20.7938H28.4172C28.8105 20.7989 29.1953 20.6787 29.5157 20.4504C29.8361 20.2222 30.0755 19.8978 30.1991 19.5244C30.4562 18.7337 30.7747 17.9643 31.1516 17.2231C31.3256 16.8747 31.3846 16.48 31.32 16.0958C31.2554 15.7117 31.0706 15.358 30.7922 15.0856Z" fill="#393939"/>
<path d="M45.7206 34.8123C47.7391 34.8123 49.7122 34.2138 51.3905 33.0923C53.0687 31.9709 54.3767 30.3769 55.1491 28.5121C55.9214 26.6472 56.1233 24.5952 55.7294 22.6155C55.3354 20.6359 54.3632 18.8175 52.9358 17.3904C51.5083 15.9633 49.6897 14.9916 47.71 14.5981C45.7302 14.2046 43.6783 14.4071 41.8136 15.1799C39.9489 15.9527 38.3553 17.261 37.2343 18.9396C36.1132 20.6181 35.5151 22.5914 35.5156 24.6098C35.5194 27.315 36.5959 29.9082 38.509 31.8208C40.422 33.7334 43.0155 34.8092 45.7206 34.8123ZM45.7206 15.6523C47.4916 15.6523 49.2229 16.1775 50.6955 17.1614C52.1681 18.1452 53.3159 19.5437 53.9937 21.1798C54.6716 22.816 54.8491 24.6164 54.5037 26.3535C54.1584 28.0905 53.3058 29.6861 52.0537 30.9386C50.8015 32.1911 49.2061 33.0442 47.4692 33.39C45.7323 33.7358 43.9318 33.5588 42.2954 32.8814C40.6591 32.204 39.2603 31.0566 38.276 29.5843C37.2917 28.112 36.7661 26.3809 36.7656 24.6098C36.7683 22.2356 37.7126 19.9594 39.3914 18.2806C41.0702 16.6018 43.3464 15.6575 45.7206 15.6548V15.6523Z" fill="#393939"/>
<path d="M44.2067 27.6104C44.0432 27.6101 43.8865 27.545 43.7709 27.4294C43.6553 27.3138 43.5902 27.1571 43.5898 26.9936C43.5898 26.8278 43.524 26.6688 43.4068 26.5516C43.2896 26.4344 43.1306 26.3686 42.9648 26.3686C42.7991 26.3686 42.6401 26.4344 42.5229 26.5516C42.4057 26.6688 42.3398 26.8278 42.3398 26.9936C42.3403 27.4885 42.5372 27.9631 42.8872 28.3131C43.2372 28.6631 43.7117 28.8599 44.2067 28.8604H45.0955V29.7011C45.0955 29.8668 45.1613 30.0258 45.2785 30.143C45.3957 30.2602 45.5547 30.3261 45.7205 30.3261C45.8862 30.3261 46.0452 30.2602 46.1624 30.143C46.2796 30.0258 46.3455 29.8668 46.3455 29.7011V28.8604H46.6636C47.3101 28.8604 47.93 28.6036 48.3872 28.1465C48.8443 27.6894 49.1011 27.0694 49.1011 26.4229C49.1011 25.7765 48.8443 25.1565 48.3872 24.6994C47.93 24.2422 47.3101 23.9854 46.6636 23.9854H46.3455V21.6129H47.2323C47.3965 21.6134 47.5538 21.6789 47.6698 21.7951C47.7857 21.9113 47.8509 22.0688 47.8511 22.2329C47.8511 22.3987 47.9169 22.5577 48.0342 22.6749C48.1514 22.7921 48.3103 22.8579 48.4761 22.8579C48.6419 22.8579 48.8008 22.7921 48.918 22.6749C49.0352 22.5577 49.1011 22.3987 49.1011 22.2329C49.0998 21.7381 48.9029 21.2639 48.5535 20.9136C48.204 20.5634 47.7303 20.3654 47.2355 20.3629H46.3455V19.5186C46.3455 19.3528 46.2796 19.1938 46.1624 19.0766C46.0452 18.9594 45.8862 18.8936 45.7205 18.8936C45.5547 18.8936 45.3957 18.9594 45.2785 19.0766C45.1613 19.1938 45.0955 19.3528 45.0955 19.5186V20.3598H44.7773C44.1309 20.3598 43.5109 20.6166 43.0538 21.0737C42.5966 21.5309 42.3398 22.1508 42.3398 22.7973C42.3398 23.4438 42.5966 24.0638 43.0538 24.5209C43.5109 24.978 44.1309 25.2348 44.7773 25.2348H45.0948V27.6098L44.2067 27.6104ZM46.3455 25.2354H46.6636C46.9785 25.2354 47.2806 25.3605 47.5033 25.5832C47.726 25.8059 47.8511 26.108 47.8511 26.4229C47.8511 26.7379 47.726 27.0399 47.5033 27.2626C47.2806 27.4853 46.9785 27.6104 46.6636 27.6104H46.3455V25.2354ZM44.778 23.9854C44.463 23.9854 44.161 23.8603 43.9383 23.6376C43.7156 23.4149 43.5905 23.1129 43.5905 22.7979C43.5905 22.483 43.7156 22.1809 43.9383 21.9582C44.161 21.7355 44.463 21.6104 44.778 21.6104H45.0973V23.9854H44.778Z" fill="#393939"/>
<path d="M67.7901 44.8846C67.1781 44.3712 66.4144 44.0731 65.6165 44.0361C64.8185 43.9992 64.0306 44.2255 63.3738 44.6802L50.9032 53.3415C50.8305 52.4568 50.428 51.6317 49.7756 51.0297C49.1231 50.4277 48.2684 50.0929 47.3807 50.0915H41.4832C41.4113 50.0477 41.3394 49.9971 41.2713 49.9634L38.5694 48.5434C38.0497 48.2724 37.4724 48.1303 36.8863 48.129H29.1807C28.7038 48.1276 28.2314 48.2208 27.7908 48.4031C27.3502 48.5855 26.9502 48.8535 26.6138 49.1915L20.4369 55.3752C20.1334 54.9016 19.6565 54.5655 19.1084 54.4389C18.5603 54.3123 17.9843 54.4052 17.5038 54.6977L11.9813 58.0102C11.7353 58.1569 11.5207 58.3506 11.3496 58.5803C11.1786 58.81 11.0544 59.0711 10.9843 59.3488C10.9142 59.6265 10.8995 59.9152 10.941 60.1986C10.9825 60.4819 11.0795 60.7543 11.2263 61.0002L19.6301 75.0002C19.776 75.2464 19.9692 75.4611 20.1985 75.6322C20.4279 75.8033 20.6888 75.9273 20.9663 75.997C21.2438 76.0667 21.5324 76.0808 21.8154 76.0385C22.0983 75.9961 22.3701 75.8981 22.6151 75.7502L28.1382 72.4377C28.6074 72.1603 28.9542 71.7156 29.1089 71.1929C29.2637 70.6703 29.215 70.1084 28.9726 69.6202L31.2982 67.6277C31.7304 67.2575 32.2803 67.0533 32.8494 67.0515H50.6807C51.7027 67.0522 52.7124 66.8287 53.6386 66.3968C54.5648 65.9648 55.385 65.3349 56.0413 64.5515L68.2357 49.994C68.8517 49.2563 69.1506 48.3048 69.0671 47.3473C68.9836 46.3899 68.5245 45.5045 67.7901 44.8846ZM27.4994 71.3627H27.4963L21.9688 74.6752C21.865 74.738 21.7498 74.7797 21.6299 74.7977C21.5099 74.8157 21.3876 74.8097 21.2699 74.7801C21.1523 74.7505 21.0417 74.6979 20.9445 74.6253C20.8473 74.5527 20.7655 74.4615 20.7038 74.3571L12.3001 60.3559C12.2372 60.251 12.1957 60.1348 12.1778 60.0139C12.16 59.893 12.1661 59.7698 12.1959 59.6513C12.2256 59.5327 12.2785 59.4212 12.3514 59.3232C12.4243 59.2251 12.5158 59.1423 12.6207 59.0796L18.1482 55.7671C18.252 55.7041 18.3672 55.6623 18.4873 55.6442C18.6073 55.6261 18.7297 55.6321 18.8475 55.6617C18.9652 55.6912 19.0759 55.7439 19.1731 55.8166C19.2703 55.8894 19.3522 55.9806 19.4138 56.0852L19.4276 56.1077L19.4232 56.1009L19.4744 56.1859V56.1821L19.4944 56.2152L19.5082 56.2384L19.5332 56.2796L19.5244 56.2646C19.9294 56.9402 21.6544 59.814 27.8207 70.089C27.8832 70.1937 27.9246 70.3097 27.9423 70.4304C27.96 70.5511 27.9537 70.6741 27.9239 70.7924C27.8941 70.9107 27.8412 71.0219 27.7684 71.1198C27.6956 71.2176 27.6042 71.3002 27.4994 71.3627ZM67.2769 49.1921L55.0838 63.7502C54.5447 64.3936 53.871 64.9108 53.1102 65.2654C52.3494 65.6201 51.5201 65.8035 50.6807 65.8027H32.8494C31.9828 65.8047 31.1452 66.1148 30.4863 66.6777L28.3351 68.5215L21.1044 56.4727L27.4994 50.0796C27.7196 49.8579 27.9816 49.6821 28.2702 49.5622C28.5587 49.4424 28.8682 49.381 29.1807 49.3815H36.8863C37.2708 49.3812 37.6495 49.4743 37.9901 49.6527L40.7013 51.0784C40.8653 51.1985 41.0517 51.2845 41.2494 51.3315C41.27 51.3369 41.2909 51.3411 41.3119 51.344H47.3807C47.7445 51.3433 48.1033 51.4296 48.427 51.5956C48.7508 51.7617 49.0301 52.0027 49.2418 52.2986C49.4535 52.5946 49.5915 52.9368 49.6441 53.2968C49.6967 53.6568 49.6626 54.0242 49.5444 54.3684C49.5307 54.3949 49.519 54.4225 49.5094 54.4509C49.348 54.8844 49.0572 55.2577 48.6764 55.5204C48.2956 55.783 47.8432 55.9222 47.3807 55.919H37.0307C36.8649 55.919 36.7059 55.9848 36.5887 56.102C36.4715 56.2192 36.4057 56.3782 36.4057 56.544C36.4057 56.7097 36.4715 56.8687 36.5887 56.9859C36.7059 57.1031 36.8649 57.169 37.0307 57.169H47.3807C48.0616 57.1738 48.729 56.9783 49.2998 56.607C49.8706 56.2356 50.3197 55.7047 50.5913 55.0802L64.0863 45.7052C64.56 45.3749 65.1376 45.2278 65.7116 45.2913C66.2856 45.3548 66.8171 45.6246 67.2071 46.0505C67.5971 46.4765 67.8192 47.0296 67.8321 47.6069C67.8449 48.1843 67.6476 48.7467 67.2769 49.1896V49.1921Z" fill="#393939"/>
</svg>
