<svg width="80" height="80" viewBox="0 0 80 80" fill="none" xmlns="http://www.w3.org/2000/svg">
<g clip-path="url(#clip0_1784_3275)">
<path d="M49.6094 62.0902C46.0339 62.0902 43.125 64.9991 43.125 68.5745C43.125 72.15 46.0339 75.0589 49.6094 75.0589C53.1848 75.0589 56.0938 72.15 56.0938 68.5745C56.0938 64.9991 53.1848 62.0902 49.6094 62.0902ZM49.6094 72.7152C47.3262 72.7152 45.4688 70.8577 45.4688 68.5745C45.4688 66.2914 47.3262 64.4339 49.6094 64.4339C51.8925 64.4339 53.75 66.2914 53.75 68.5745C53.75 70.8577 51.8925 72.7152 49.6094 72.7152ZM77.7344 0H2.26562C1.01641 0 0 1.01641 0 2.26562V7.26562C0 8.51484 1.01641 9.53125 2.26562 9.53125H13.1411C13.7883 9.53125 14.313 9.00656 14.313 8.35938C14.313 7.71219 13.7883 7.1875 13.1411 7.1875H2.34375V2.34375H77.6562V7.1875H18.6098C17.9627 7.1875 17.438 7.71219 17.438 8.35938C17.438 9.00656 17.9627 9.53125 18.6098 9.53125H35.3078V17.0672C35.3078 17.252 35.3325 17.4308 35.3744 17.6028L33.2163 19.7064C32.5603 20.3459 32.3544 21.3098 32.692 22.1633L33.9077 25.2289C34.09 25.6887 34.5309 25.9691 34.9973 25.9691C35.1411 25.9691 35.2872 25.9425 35.4291 25.8862C36.0306 25.6478 36.325 24.9666 36.0864 24.365L34.8902 21.348L37.0286 19.2638C37.2036 19.3072 37.3855 19.3328 37.5737 19.3328H42.4269C42.6152 19.3328 42.797 19.3072 42.972 19.2638L45.1103 21.348L43.9141 24.365C43.6755 24.9667 43.9697 25.6477 44.5714 25.8862C44.7131 25.9425 44.8594 25.9691 45.0031 25.9691C45.4694 25.9691 45.9105 25.6887 46.0928 25.2289L47.3089 22.1623C47.6459 21.3098 47.44 20.3458 46.7839 19.7063L44.6259 17.6031C44.668 17.4309 44.6927 17.2522 44.6927 17.0673V9.53125H77.7344C78.9836 9.53125 80 8.51484 80 7.26562V2.26562C80 1.01641 78.9836 0 77.7344 0ZM42.3484 16.9891H37.6516V9.53125H42.3484V16.9891ZM68.8281 62.0902C65.2527 62.0902 62.3438 64.9991 62.3438 68.5745C62.3438 72.15 65.2527 75.0589 68.8281 75.0589C72.4036 75.0589 75.3125 72.15 75.3125 68.5745C75.3125 64.9991 72.4036 62.0902 68.8281 62.0902ZM68.8281 72.7152C66.545 72.7152 64.6875 70.8577 64.6875 68.5745C64.6875 66.2914 66.545 64.4339 68.8281 64.4339C71.1113 64.4339 72.9688 66.2914 72.9688 68.5745C72.9688 70.8577 71.1113 72.7152 68.8281 72.7152ZM30.3906 62.0902C26.8152 62.0902 23.9062 64.9991 23.9062 68.5745C23.9062 72.15 26.8152 75.0589 30.3906 75.0589C33.9661 75.0589 36.875 72.15 36.875 68.5745C36.875 64.9991 33.9661 62.0902 30.3906 62.0902ZM30.3906 72.7152C28.1075 72.7152 26.25 70.8577 26.25 68.5745C26.25 66.2914 28.1075 64.4339 30.3906 64.4339C32.6738 64.4339 34.5312 66.2914 34.5312 68.5745C34.5312 70.8577 32.6738 72.7152 30.3906 72.7152ZM11.1719 62.0902C7.59641 62.0902 4.6875 64.9991 4.6875 68.5745C4.6875 72.15 7.59641 75.0589 11.1719 75.0589C14.7473 75.0589 17.6562 72.15 17.6562 68.5745C17.6562 64.9991 14.7473 62.0902 11.1719 62.0902ZM11.1719 72.7152C8.88875 72.7152 7.03125 70.8577 7.03125 68.5745C7.03125 66.2914 8.88875 64.4339 11.1719 64.4339C13.455 64.4339 15.3125 66.2914 15.3125 68.5745C15.3125 70.8577 13.455 72.7152 11.1719 72.7152ZM68.5745 57.1489H57.6548C57.8314 56.7142 57.9297 56.2395 57.9297 55.7422V45.313H59.3848C60.0509 45.313 60.675 44.9861 61.0544 44.4386C61.4339 43.8913 61.5206 43.192 61.2867 42.5684L58.0641 33.9747C57.7684 33.1862 57.0042 32.6566 56.1622 32.6566H23.8378C22.9959 32.6566 22.2316 33.1862 21.9359 33.9747L18.7133 42.5684C18.4794 43.192 18.5664 43.8913 18.9456 44.4386C19.325 44.9859 19.9491 45.3128 20.6152 45.3128H22.0703V55.742C22.0703 56.2394 22.1684 56.7141 22.3452 57.1488H11.4255C5.12547 57.1489 0 62.2745 0 68.5745C0 74.8745 5.12547 80 11.4255 80H68.5745C74.8745 80 80 74.8745 80 68.5745C80 62.2745 74.8745 57.1489 68.5745 57.1489ZM55.9456 35.0005L58.9339 42.9692H44.6794L41.6911 35.0005H55.9456ZM40 47.9467C40.6473 47.9467 41.1719 47.422 41.1719 46.7748V40.2909L42.5609 43.9948C42.8566 44.7831 43.6208 45.313 44.4628 45.313H55.5859V55.7422C55.5859 56.5175 54.9552 57.1484 54.1797 57.1484H41.1719V52.2436C41.1719 51.5964 40.6473 51.0717 40 51.0717C39.3528 51.0717 38.8281 51.5964 38.8281 52.2436V57.1484H25.8203C25.045 57.1484 24.4141 56.5175 24.4141 55.7422V45.313H35.5372C36.3791 45.313 37.1434 44.7833 37.4391 43.995L38.828 40.2911V46.7748C38.8281 47.422 39.3528 47.9467 40 47.9467ZM21.0659 42.9692L24.0542 35.0005H38.3089L35.3206 42.9692H21.0659ZM68.5745 77.6562H11.4255C6.41781 77.6562 2.34375 73.5822 2.34375 68.5745C2.34375 63.5669 6.41781 59.4927 11.4255 59.4927H68.5745C73.5822 59.4927 77.6562 63.5667 77.6562 68.5745C77.6562 73.5823 73.5822 77.6562 68.5745 77.6562Z" fill="url(#paint0_linear_1784_3275)"/>
</g>
<defs>
<linearGradient id="paint0_linear_1784_3275" x1="40" y1="0" x2="40" y2="80" gradientUnits="userSpaceOnUse">
<stop stop-color="#9747FF"/>
<stop offset="1" stop-color="#4B9ADB"/>
</linearGradient>
<clipPath id="clip0_1784_3275">
<rect width="80" height="80" fill="white"/>
</clipPath>
</defs>
</svg>
