<svg width="80" height="80" viewBox="0 0 80 80" fill="none" xmlns="http://www.w3.org/2000/svg">
<path d="M14.8286 53.1998C15.1084 53.1998 15.3884 53.093 15.602 52.8795L34.2875 34.1941C35.7452 34.7195 37.2953 35.0492 38.9061 35.1528V52.1063C38.9061 52.7103 39.3958 53.2 39.9998 53.2C40.6039 53.2 41.0936 52.7103 41.0936 52.1063V35.1528C42.7044 35.0494 44.2544 34.7195 45.7122 34.1941L64.3975 52.8795C64.6111 53.0931 64.8911 53.1998 65.1709 53.1998C65.4508 53.1998 65.7308 53.093 65.9444 52.8795C66.3714 52.4523 66.3714 51.7598 65.9444 51.3328L47.858 33.2461C53.2245 30.4136 56.8913 24.7763 56.8913 18.2977C56.8913 8.98375 49.3139 1.40625 40 1.40625C30.6861 1.40625 23.1086 8.98375 23.1086 18.2977C23.1086 24.7763 26.7753 30.4134 32.1419 33.2461L14.0552 51.3328C13.6281 51.7598 13.6281 52.4525 14.0552 52.8795C14.2688 53.0931 14.5488 53.1998 14.8286 53.1998ZM40 33.0016C36.418 33.0016 33.1316 31.7134 30.5781 29.5769C31.6711 25.3105 35.5372 22.2742 40.0003 22.2742C44.4633 22.2742 48.3292 25.3105 49.4219 29.5767C46.8684 31.7134 43.582 33.0016 40 33.0016ZM25.2961 18.2977C25.2961 10.1898 31.8922 3.59375 40 3.59375C48.1078 3.59375 54.7038 10.1898 54.7038 18.2977C54.7038 21.94 53.372 25.2767 51.1706 27.848C49.4648 23.2531 45.0434 20.0869 40.0003 20.0869C34.957 20.0869 30.5352 23.2531 28.8294 27.848C26.6278 25.2769 25.2961 21.94 25.2961 18.2977ZM40.0003 19.3914C43.3619 19.3914 46.0967 16.6567 46.0967 13.2952C46.0967 9.93406 43.3619 7.19953 40.0003 7.19953C36.6388 7.19953 33.9041 9.93391 33.9041 13.2952C33.9041 16.6567 36.6388 19.3914 40.0003 19.3914ZM40.0003 9.38719C42.1556 9.38719 43.9092 11.1403 43.9092 13.2953C43.9092 15.4506 42.1556 17.2041 40.0003 17.2041C37.845 17.2041 36.0916 15.4506 36.0916 13.2953C36.0916 11.1403 37.845 9.38719 40.0003 9.38719ZM22.4323 56.4738H6.83906C6.54906 56.4738 6.27078 56.5891 6.06578 56.7941L1.72656 61.1331C1.52156 61.3383 1.40625 61.6164 1.40625 61.9066V77.5C1.40625 78.1041 1.89594 78.5938 2.5 78.5938H18.0934C18.3834 78.5938 18.6617 78.4784 18.8667 78.2734L23.2058 73.9344C23.4109 73.7292 23.5262 73.4511 23.5262 73.1609V57.5675C23.5261 56.9634 23.0366 56.4738 22.4323 56.4738ZM17.6405 60.8128H15.192L17.3436 58.6613H19.7919L17.6405 60.8128ZM9.13547 63.0003H11.4578V66.0127H9.13547V63.0003ZM10.6822 60.8128L12.8337 58.6613H14.25L12.0984 60.8128H10.6822ZM7.29203 58.6613H9.74031L7.58859 60.8128H5.14047L7.29203 58.6613ZM3.59375 63.0003H6.94797V67.1064C6.94797 67.7105 7.43766 68.2002 8.04172 68.2002H12.5516C13.1556 68.2002 13.6453 67.7105 13.6453 67.1064V63.0003H16.9997V76.4062H3.59375V63.0003ZM19.1872 74.8594V62.3595L21.3387 60.208V72.7078L19.1872 74.8594ZM49.9661 56.4738H34.3727C34.0827 56.4738 33.8044 56.5891 33.5994 56.7941L29.2603 61.1331C29.0552 61.3383 28.9398 61.6164 28.9398 61.9066V77.5C28.9398 78.1041 29.4295 78.5938 30.0336 78.5938H45.627C45.917 78.5938 46.1953 78.4784 46.4003 78.2734L50.7395 73.9344C50.9445 73.7292 51.0598 73.4511 51.0598 73.1609V57.5675C51.0598 56.9634 50.5702 56.4738 49.9661 56.4738ZM45.1742 60.8128H42.7259L44.8775 58.6613H47.3258L45.1742 60.8128ZM36.6692 63.0003H38.9916V66.0127H36.6692V63.0003ZM38.2159 60.8128L40.3675 58.6613H41.7836L39.632 60.8128H38.2159ZM34.8258 58.6613H37.2741L35.1223 60.8128H32.6742L34.8258 58.6613ZM31.1275 63.0003H34.4817V67.1064C34.4817 67.7105 34.9714 68.2002 35.5755 68.2002H40.0853C40.6894 68.2002 41.1791 67.7105 41.1791 67.1064V63.0003H44.5334V76.4062H31.1275V63.0003ZM46.7209 74.8594V62.3595L48.8725 60.208V72.7078L46.7209 74.8594ZM77.5 56.4738H61.9064C61.6164 56.4738 61.3381 56.5891 61.1331 56.7941L56.7939 61.1331C56.5889 61.3383 56.4736 61.6164 56.4736 61.9066V77.5C56.4736 78.1041 56.9633 78.5938 57.5673 78.5938H73.1608C73.4508 78.5938 73.7291 78.4784 73.9341 78.2734L78.2733 73.9344C78.4784 73.7292 78.5938 73.4511 78.5938 73.1609V57.5675C78.5938 56.9634 78.1041 56.4738 77.5 56.4738ZM72.708 60.8128H70.2597L72.4113 58.6613H74.8597L72.708 60.8128ZM64.203 63.0003H66.5252V66.0127H64.203V63.0003ZM65.7498 60.8128L67.9014 58.6613H69.3177L67.1659 60.8128H65.7498ZM62.3595 58.6613H64.8077L62.6562 60.8128H60.2081L62.3595 58.6613ZM58.6613 63.0003H62.0156V67.1064C62.0156 67.7105 62.5053 68.2002 63.1094 68.2002H67.6191C68.2231 68.2002 68.7128 67.7105 68.7128 67.1064V63.0003H72.0672V76.4062H58.6613V63.0003ZM74.2545 74.8595V62.3595L76.4062 60.208V72.708L74.2545 74.8595Z" fill="#393939"/>
</svg>
