<svg width="80" height="80" viewBox="0 0 80 80" fill="none" xmlns="http://www.w3.org/2000/svg">
<path fill-rule="evenodd" clip-rule="evenodd" d="M58.3297 30.7717C57.2623 31.8388 55.9026 32.5654 54.4223 32.8596C52.9421 33.1539 51.4078 33.0027 50.0135 32.425C48.6192 31.8474 47.4275 30.8692 46.589 29.6143C45.7506 28.3594 45.3031 26.8841 45.3031 25.3749C45.3031 23.8656 45.7506 22.3903 46.589 21.1354C47.4275 19.8805 48.6192 18.9024 50.0135 18.3247C51.4078 17.7471 52.9421 17.5958 54.4223 17.8901C55.9026 18.1844 57.2623 18.911 58.3297 19.978C59.7609 21.4094 60.5649 23.3507 60.5649 25.3749C60.5649 27.399 59.7609 29.3403 58.3297 30.7717ZM52.9344 30.7342C53.9944 30.7342 55.0305 30.4199 55.9119 29.831C56.7932 29.2421 57.4801 28.4051 57.8858 27.4258C58.2914 26.4465 58.3976 25.3689 58.1908 24.3293C57.984 23.2897 57.4735 22.3347 56.724 21.5852C55.9745 20.8357 55.0196 20.3253 53.9799 20.1185C52.9403 19.9117 51.8627 20.0178 50.8834 20.4235C49.9041 20.8291 49.0671 21.516 48.4782 22.3974C47.8893 23.2787 47.575 24.3149 47.575 25.3749C47.575 26.7963 48.1396 28.1594 49.1447 29.1645C50.1498 30.1696 51.513 30.7342 52.9344 30.7342ZM41.2156 22.078C39.0078 22.078 39.5312 21.8749 37.9688 23.4374C37.8613 23.543 37.776 23.669 37.7178 23.8079C37.6596 23.9469 37.6296 24.0961 37.6297 24.2467V26.5108C37.6295 26.66 37.6589 26.8077 37.716 26.9456C37.7731 27.0834 37.8569 27.2086 37.9625 27.3139L38.9844 28.3374C39.0899 28.4449 39.2159 28.5303 39.3548 28.5886C39.4938 28.6468 39.6431 28.6767 39.7938 28.6764H41.2188C41.4789 29.6028 41.8493 30.4946 42.3219 31.3327L41.3203 32.3358C41.2127 32.4413 41.1273 32.5673 41.0691 32.7063C41.0109 32.8453 40.981 32.9945 40.9813 33.1452V34.5999C40.9811 34.7491 41.0104 34.8968 41.0675 35.0346C41.1247 35.1724 41.2084 35.2976 41.3141 35.403L42.9094 36.9983C43.0148 37.1059 43.1408 37.1914 43.2798 37.2496C43.4188 37.3079 43.568 37.3377 43.7188 37.3374H45.1719C45.3213 37.3377 45.4694 37.3085 45.6075 37.2514C45.7456 37.1943 45.871 37.1104 45.9766 37.0046L46.9844 35.9967C47.8227 36.4693 48.7144 36.8402 49.6406 37.1014C49.6406 39.303 49.4391 38.7827 50.9953 40.3514C51.1008 40.459 51.2268 40.5444 51.3658 40.6026C51.5048 40.6609 51.654 40.6907 51.8047 40.6905H54.0625C54.2117 40.6906 54.3594 40.6613 54.4973 40.6042C54.6351 40.5471 54.7603 40.4633 54.8656 40.3577L55.8891 39.3358C55.9966 39.2303 56.082 39.1043 56.1403 38.9653C56.1985 38.8263 56.2284 38.6771 56.2281 38.5264V37.103C57.1543 36.8416 58.046 36.4707 58.8844 35.9983L59.8875 37.0014C59.9935 37.1103 60.1203 37.1967 60.2605 37.2555C60.4006 37.3143 60.5512 37.3443 60.7031 37.3436H62.1578C62.307 37.3438 62.4547 37.3144 62.5926 37.2573C62.7304 37.2002 62.8556 37.1164 62.9609 37.0108L64.5562 35.4171C64.6633 35.3112 64.7483 35.1852 64.8063 35.0462C64.8642 34.9073 64.8939 34.7582 64.8937 34.6077V33.153C64.8939 33.0038 64.8646 32.8561 64.8074 32.7182C64.7503 32.5804 64.6666 32.4552 64.5609 32.3499L63.5531 31.3405C64.0255 30.5021 64.3964 29.6104 64.6578 28.6842C66.8594 28.6842 66.3391 28.8842 67.9078 27.328C68.0149 27.2222 68.0999 27.0961 68.1578 26.9572C68.2158 26.8182 68.2455 26.6692 68.2453 26.5186V24.2421C68.2455 24.0929 68.2161 23.9451 68.159 23.8073C68.1019 23.6695 68.0181 23.5443 67.9125 23.4389L66.8906 22.4171C66.7851 22.3095 66.6591 22.2241 66.5201 22.1658C66.3812 22.1076 66.2319 22.0778 66.0812 22.078H64.6578C64.3963 21.1519 64.0254 20.2602 63.5531 19.4217L64.5562 18.4202C64.6632 18.3143 64.7481 18.1882 64.806 18.0493C64.8639 17.9103 64.8938 17.7613 64.8937 17.6108V16.1561C64.8941 16.0069 64.8648 15.8591 64.8077 15.7213C64.7506 15.5834 64.6667 15.4582 64.5609 15.353L62.9688 13.7499C62.8631 13.6424 62.7371 13.5571 62.5982 13.4989C62.4592 13.4407 62.31 13.4107 62.1594 13.4108H60.7031C60.5535 13.4115 60.4055 13.4418 60.2676 13.5C60.1298 13.5582 60.0048 13.6431 59.9 13.7499L58.8906 14.7592C58.0525 14.2862 57.1608 13.9153 56.2344 13.6546C56.2344 11.4514 56.4344 11.9717 54.8781 10.4046C54.7721 10.2957 54.6453 10.2092 54.5051 10.1504C54.365 10.0917 54.2145 10.0617 54.0625 10.0624H51.8016C51.6524 10.0622 51.5046 10.0916 51.3668 10.1487C51.229 10.2058 51.1038 10.2896 50.9984 10.3952L49.9766 11.4171C49.8691 11.5227 49.7838 11.6487 49.7256 11.7876C49.6674 11.9266 49.6374 12.0758 49.6375 12.2264V13.6514C48.7108 13.9113 47.8189 14.2822 46.9812 14.7561L45.9734 13.7499C45.868 13.6422 45.742 13.5568 45.603 13.4985C45.464 13.4403 45.3148 13.4105 45.1641 13.4108H43.7109C43.561 13.4113 43.4127 13.4415 43.2746 13.4997C43.1365 13.5579 43.0113 13.6429 42.9062 13.7499L41.3125 15.3421C41.2049 15.4476 41.1195 15.5735 41.0613 15.7125C41.0031 15.8515 40.9732 16.0007 40.9734 16.1514V17.6061C40.9733 17.7553 41.0026 17.9031 41.0597 18.0409C41.1169 18.1787 41.2006 18.3039 41.3062 18.4092L42.3141 19.4171C41.8416 20.2552 41.4713 21.147 41.2109 22.0733L41.2156 22.078ZM44.6531 19.9467C43.9695 20.9935 43.4893 22.1597 43.2375 23.3842C43.1967 23.653 43.061 23.8982 42.8548 24.0754C42.6487 24.2526 42.3859 24.3499 42.1141 24.3499H40.2563L39.8938 24.7124V26.0358L40.2563 26.3983H42.1047C42.3765 26.3982 42.6393 26.4956 42.8455 26.6728C43.0516 26.85 43.1874 27.0952 43.2281 27.3639C43.4109 28.3999 44.0437 29.9702 44.6437 30.8014C44.815 31.0203 44.9003 31.2943 44.8836 31.5717C44.8669 31.8491 44.7494 32.1109 44.5531 32.3077L43.2453 33.6139V34.128L44.1828 35.0655H44.6875L45.9953 33.7592C46.1915 33.5625 46.4531 33.4446 46.7304 33.4279C47.0078 33.4111 47.2816 33.4968 47.5 33.6686C48.3328 34.2671 49.9016 34.8999 50.9375 35.0749C51.2061 35.1159 51.4511 35.2518 51.6283 35.4578C51.8054 35.6639 51.9029 35.9266 51.9031 36.1983V38.0467L52.2656 38.4092H53.5938L53.9562 38.0467V36.203C53.9565 35.9313 54.054 35.6686 54.2311 35.4625C54.4082 35.2565 54.6533 35.1206 54.9219 35.0796C55.9578 34.8967 57.5266 34.2639 58.3594 33.6733C58.5778 33.5015 58.8516 33.4158 59.1289 33.4325C59.4063 33.4492 59.6679 33.5672 59.8641 33.7639L61.1719 35.0702H61.6844L62.6219 34.1327V33.6186L61.3141 32.3124C61.1178 32.1156 61.0002 31.8538 60.9836 31.5764C60.9669 31.299 61.0522 31.025 61.2234 30.8061C61.8234 29.9733 62.4562 28.4046 62.6391 27.3686C62.6801 27.1 62.816 26.855 63.022 26.6779C63.2281 26.5007 63.4908 26.4032 63.7625 26.403H65.6109L65.9734 26.0405V24.7171L65.6109 24.3546H63.7625C63.4908 24.3543 63.2281 24.2568 63.022 24.0797C62.816 23.9026 62.6801 23.6575 62.6391 23.3889C62.4562 22.353 61.8234 20.7842 61.2234 19.9514C61.0523 19.7328 60.967 19.4591 60.9837 19.1819C61.0004 18.9048 61.1179 18.6433 61.3141 18.4467L62.6219 17.1389V16.6264L61.6844 15.6889H61.1719L59.8641 16.9967C59.6675 17.1929 59.406 17.3104 59.1289 17.3271C58.8517 17.3438 58.578 17.2585 58.3594 17.0874C57.5266 16.4874 55.9578 15.8546 54.9219 15.6717C54.653 15.6313 54.4076 15.4956 54.2304 15.2894C54.0531 15.0832 53.9558 14.8202 53.9562 14.5483V12.6983L53.5938 12.3342H52.2703L51.9078 12.6983V14.5452C51.9082 14.8171 51.8109 15.0801 51.6337 15.2863C51.4565 15.4925 51.2111 15.6282 50.9422 15.6686C49.9062 15.8514 48.3375 16.4842 47.5047 17.0842C47.286 17.2554 47.0123 17.3406 46.7352 17.324C46.458 17.3073 46.1965 17.1898 46 16.9936L44.6875 15.6858H44.175L43.2375 16.6233V17.1358L44.5453 18.4436C44.7415 18.6401 44.859 18.9016 44.8756 19.1788C44.8923 19.456 44.8071 19.7297 44.6359 19.9483L44.6531 19.9467ZM43.9062 40.6936L43.9688 40.7467C46.3984 42.7952 49.3766 44.4967 52.9391 45.903C58.9766 43.5374 63.3344 40.278 66.1969 35.9717C69.1344 31.5483 70.5375 25.9717 70.6094 19.0514V10.2202C64.4969 9.29337 58.5479 7.49925 52.9422 4.89205C47.3363 7.49887 41.3874 9.29297 35.275 10.2202V19.0436V19.1296C35.3562 26.0046 36.7609 31.5592 39.6859 35.9639C40.8621 37.7321 42.283 39.3245 43.9062 40.6936ZM60.4688 68.4608H67.9281V52.2108H60.4688V68.4608ZM44.3328 68.4608V43.9061C46.6531 45.5239 49.157 46.8608 51.7922 47.8889V68.4608H44.3328ZM28.1984 68.4608V45.3233H35.6578V68.4608H28.1984ZM12.0625 68.4608H19.5312V27.6124H12.0672V68.4608H12.0625ZM5.62031 68.4608C5.31917 68.4612 5.03048 68.581 4.81754 68.794C4.6046 69.0069 4.48479 69.2956 4.48438 69.5967V76.3639C4.48458 76.5134 4.51426 76.6614 4.57171 76.7995C4.62916 76.9375 4.71326 77.0629 4.8192 77.1684C4.92514 77.2739 5.05083 77.3574 5.1891 77.4143C5.32737 77.4712 5.47549 77.5003 5.625 77.4999H74.375C74.6761 77.4995 74.9648 77.3796 75.1778 77.1667C75.3907 76.9538 75.5105 76.6651 75.5109 76.3639V69.5967C75.5105 69.2956 75.3907 69.0069 75.1778 68.794C74.9648 68.581 74.6761 68.4612 74.375 68.4608H70.2047V51.078C70.2049 50.9287 70.1757 50.7808 70.1187 50.6428C70.0617 50.5048 69.978 50.3794 69.8725 50.2738C69.767 50.1681 69.6417 50.0843 69.5038 50.0271C69.3659 49.9699 69.2181 49.9405 69.0687 49.9405H59.3359C59.0345 49.9409 58.7456 50.0609 58.5326 50.2742C58.3196 50.4875 58.2 50.7766 58.2 51.078V68.4608H54.0703V47.8874C60.3937 45.3561 65 41.8592 68.0828 37.2171C71.2719 32.4139 72.7937 26.4264 72.8687 19.053V19.0436V9.24049C72.8687 8.95307 72.7596 8.67637 72.5636 8.46616C72.3676 8.25594 72.0992 8.12784 71.8125 8.10768C68.6281 7.66491 65.4816 6.98224 62.4 6.06549C59.3228 5.14682 56.3212 3.99182 53.4219 2.6108C53.2694 2.53786 53.1026 2.5 52.9336 2.5C52.7646 2.5 52.5978 2.53786 52.4453 2.6108C46.6091 5.38873 40.3789 7.24868 33.975 8.12487C33.7037 8.16226 33.4551 8.29667 33.2753 8.50321C33.0955 8.70975 32.9966 8.97445 32.9969 9.2483V19.0514C32.9945 19.0899 32.9945 19.1285 32.9969 19.1671C33.0859 26.4921 34.6078 32.4483 37.7812 37.2249C38.9866 39.0366 40.4261 40.6811 42.0625 42.1155V68.4608H37.9344V44.1858C37.9344 43.8845 37.8147 43.5956 37.6017 43.3826C37.3886 43.1695 37.0997 43.0499 36.7984 43.0499H27.0656C26.7645 43.0503 26.4758 43.1701 26.2629 43.383C26.0499 43.596 25.9301 43.8847 25.9297 44.1858V68.4608H21.8V26.4749C21.7996 26.1737 21.6798 25.885 21.4668 25.6721C21.2539 25.4592 20.9652 25.3393 20.6641 25.3389H10.9375C10.6362 25.3389 10.3473 25.4586 10.1343 25.6716C9.92124 25.8847 9.80156 26.1736 9.80156 26.4749V68.4608H5.62031ZM73.2375 70.7342V75.2264H6.7625V70.7342H73.2375Z" fill="#393939"/>
</svg>
