<svg width="80" height="80" viewBox="0 0 80 80" fill="none" xmlns="http://www.w3.org/2000/svg">
<g clip-path="url(#clip0_1804_3738)">
<path d="M76.9633 67.1873H17.9883C17.4883 67.1873 17.0758 66.7748 17.0758 66.2748C17.0758 65.7748 17.4883 65.3623 17.9883 65.3623H76.9633C77.6258 65.3623 78.1633 64.8248 78.1633 64.1623V11.3373C78.1633 10.6748 77.6258 10.1373 76.9633 10.1373H6.82578C6.16328 10.1373 5.62578 10.6748 5.62578 11.3373V54.1873C5.62578 54.6873 5.21328 55.0998 4.71328 55.0998C4.21328 55.0998 3.80078 54.6873 3.80078 54.1873V11.3373C3.80078 9.6623 5.16328 8.2998 6.83828 8.2998H76.9758C78.6508 8.2998 80.0133 9.6623 80.0133 11.3373V64.1498C80.0008 65.8248 78.6383 67.1873 76.9633 67.1873Z" fill="url(#paint0_linear_1804_3738)"/>
<path d="M60.6383 50.0624C60.1383 50.0624 59.7258 49.6499 59.7258 49.1499V43.5624L24.0633 43.3624V49.1374C24.0633 49.6374 23.6508 50.0499 23.1508 50.0499C22.6508 50.0499 22.2383 49.6374 22.2383 49.1374V42.4374C22.2383 42.1874 22.3383 41.9624 22.5133 41.7874C22.6883 41.6124 22.9133 41.5249 23.1633 41.5249L60.6633 41.7374C61.1633 41.7374 61.5758 42.1499 61.5758 42.6499V49.1499C61.5633 49.6499 61.1508 50.0624 60.6383 50.0624Z" fill="url(#paint1_linear_1804_3738)"/>
<path d="M41.8617 52.5995C41.3617 52.5995 40.9492 52.187 40.9492 51.687V39.162C40.9492 38.662 41.3617 38.2495 41.8617 38.2495C42.3617 38.2495 42.7742 38.662 42.7742 39.162V51.6995C42.7742 52.1995 42.3617 52.5995 41.8617 52.5995Z" fill="url(#paint2_linear_1804_3738)"/>
<path d="M43.851 17.1997C43.376 17.1997 42.976 16.8372 42.9385 16.3622L42.7885 14.5247H40.9385L40.7885 16.3622C40.751 16.8622 40.301 17.2372 39.801 17.1997C39.301 17.1622 38.926 16.7122 38.9635 16.2122L39.1885 13.5372C39.226 13.0622 39.626 12.6997 40.101 12.6997L43.6385 12.7122C44.1135 12.7122 44.5135 13.0747 44.551 13.5497L44.776 16.2247C44.8135 16.7247 44.4385 17.1747 43.9385 17.2122C43.901 17.1997 43.876 17.1997 43.851 17.1997Z" fill="url(#paint3_linear_1804_3738)"/>
<path d="M43.5995 35.9749H40.062C39.587 35.9749 39.187 35.6124 39.1495 35.1374L38.9245 32.4623C38.887 31.9623 39.262 31.5124 39.762 31.4749C40.262 31.4499 40.712 31.8124 40.7495 32.3124L40.8995 34.1499H42.7495L42.8995 32.3124C42.937 31.8124 43.3995 31.4499 43.887 31.4749C44.387 31.5124 44.762 31.9623 44.7245 32.4623L44.4995 35.1374C44.4745 35.6124 44.087 35.9749 43.5995 35.9749Z" fill="url(#paint4_linear_1804_3738)"/>
<path d="M33.4369 32.1371C33.1244 32.1371 32.8119 31.9746 32.6369 31.6746L30.8744 28.5996C30.6369 28.1871 30.7619 27.6621 31.1494 27.3871L33.3619 25.8621C33.7744 25.5746 34.3494 25.6746 34.6369 26.0996C34.9244 26.5121 34.8244 27.0871 34.3994 27.3746L32.8869 28.4246L33.8119 30.0371L35.4869 29.2496C35.9494 29.0371 36.4869 29.2371 36.7119 29.6871C36.9244 30.1496 36.7369 30.6871 36.2744 30.9121L33.8369 32.0621C33.6994 32.1121 33.5619 32.1371 33.4369 32.1371Z" fill="url(#paint5_linear_1804_3738)"/>
<path d="M50.2512 32.1498C50.1262 32.1498 49.9887 32.1248 49.8637 32.0623L47.4387 30.9123C46.9762 30.6998 46.7887 30.1498 47.0012 29.6873C47.2137 29.2248 47.7637 29.0373 48.2262 29.2498L49.9012 30.0373L50.8262 28.4373L49.3137 27.3873C48.9012 27.0998 48.7887 26.5248 49.0887 26.1123C49.3762 25.6998 49.9512 25.5873 50.3637 25.8873L52.5762 27.4248C52.9637 27.6998 53.0887 28.2248 52.8512 28.6373L51.0762 31.6998C50.8762 31.9873 50.5637 32.1498 50.2512 32.1498Z" fill="url(#paint6_linear_1804_3738)"/>
<path d="M33.8861 22.9372C33.7111 22.9372 33.5236 22.8872 33.3611 22.7747L31.1611 21.2372C30.7736 20.9622 30.6486 20.4372 30.8861 20.0247L32.6611 16.9622C32.8986 16.5497 33.4111 16.3872 33.8486 16.5872L36.2736 17.7372C36.7361 17.9497 36.9236 18.4997 36.7111 18.9622C36.4986 19.4247 35.9486 19.6122 35.4861 19.3997L33.8236 18.6122L32.8986 20.2122L34.4111 21.2622C34.8236 21.5497 34.9236 22.1247 34.6361 22.5372C34.4611 22.7997 34.1736 22.9372 33.8861 22.9372Z" fill="url(#paint7_linear_1804_3738)"/>
<path d="M49.8231 22.962C49.5356 22.962 49.2481 22.8245 49.0731 22.5745C48.7856 22.162 48.8856 21.587 49.2981 21.2995L50.8106 20.2495L49.8856 18.6495L48.2106 19.437C47.7481 19.6495 47.2106 19.4495 46.9856 18.9995C46.7731 18.537 46.9606 17.9995 47.4231 17.787L49.8606 16.637C50.2981 16.437 50.8106 16.5995 51.0481 17.012L52.8106 20.0745C53.0481 20.487 52.9356 21.012 52.5356 21.287L50.3231 22.8245C50.1856 22.912 49.9981 22.962 49.8231 22.962Z" fill="url(#paint8_linear_1804_3738)"/>
<path d="M35.8861 19.4997C35.6611 19.4997 35.4236 19.4122 35.2486 19.2372C34.8861 18.8872 34.8736 18.2997 35.2236 17.9372C36.4361 16.6872 37.9611 15.7997 39.6486 15.3872C40.1361 15.2622 40.6361 15.5622 40.7611 16.0622C40.8861 16.5497 40.5861 17.0497 40.0861 17.1747C38.7361 17.5122 37.5111 18.2122 36.5361 19.2247C36.3611 19.3997 36.1236 19.4997 35.8861 19.4997Z" fill="url(#paint9_linear_1804_3738)"/>
<path d="M47.8362 19.5122C47.5987 19.5122 47.3487 19.4122 47.1737 19.2247C46.2112 18.2122 44.9862 17.4997 43.6362 17.1622C43.1487 17.0372 42.8487 16.5497 42.9737 16.0497C43.0987 15.5622 43.5987 15.2622 44.0862 15.3747C45.7737 15.7872 47.2987 16.6747 48.5112 17.9497C48.8612 18.3122 48.8487 18.8997 48.4862 19.2497C48.2862 19.4247 48.0612 19.5122 47.8362 19.5122Z" fill="url(#paint10_linear_1804_3738)"/>
<path d="M39.8502 33.2996C39.7752 33.2996 39.7002 33.2871 39.6252 33.2746C37.9377 32.8621 36.4127 31.9746 35.2002 30.7121C34.8502 30.3496 34.8627 29.7621 35.2252 29.4121C35.5877 29.0621 36.1752 29.0746 36.5252 29.4371C37.4877 30.4496 38.7127 31.1496 40.0627 31.4871C40.5502 31.6121 40.8502 32.0996 40.7252 32.5996C40.6377 33.0246 40.2627 33.2996 39.8502 33.2996Z" fill="url(#paint11_linear_1804_3738)"/>
<path d="M49.8135 27.5621C49.726 27.5621 49.6385 27.5496 49.551 27.5246C49.0635 27.3871 48.7885 26.8746 48.926 26.3871C49.126 25.7246 49.2135 25.0371 49.2135 24.3496C49.2135 23.6496 49.1135 22.9621 48.926 22.3121C48.7885 21.8246 49.0635 21.3121 49.551 21.1746C50.0385 21.0246 50.5385 21.3121 50.6885 21.7996C50.926 22.6121 51.051 23.4746 51.051 24.3496C51.051 25.2121 50.926 26.0746 50.6885 26.8996C50.576 27.2996 50.2135 27.5621 49.8135 27.5621Z" fill="url(#paint12_linear_1804_3738)"/>
<path d="M43.8253 33.2995C43.4128 33.2995 43.0378 33.0245 42.9378 32.5995C42.8128 32.112 43.1253 31.612 43.6128 31.4995C44.9628 31.1745 46.1878 30.4745 47.1628 29.462C47.5128 29.0995 48.1003 29.087 48.4628 29.437C48.8253 29.787 48.8378 30.3745 48.4878 30.737C47.2753 31.987 45.7378 32.8745 44.0628 33.287C43.9753 33.287 43.9003 33.2995 43.8253 33.2995Z" fill="url(#paint13_linear_1804_3738)"/>
<path d="M33.8859 27.5372C33.4859 27.5372 33.1234 27.2747 33.0109 26.8747C32.7734 26.0497 32.6484 25.1872 32.6484 24.3122C32.6484 23.4622 32.7734 22.6122 33.0109 21.7622C33.1484 21.2747 33.6484 20.9872 34.1359 21.1247C34.6234 21.2622 34.9109 21.7622 34.7734 22.2497C34.5859 22.9247 34.4859 23.6122 34.4859 24.2997C34.4859 24.9997 34.5859 25.6872 34.7734 26.3497C34.9109 26.8372 34.6359 27.3372 34.1484 27.4872C34.0484 27.5372 33.9609 27.5372 33.8859 27.5372Z" fill="url(#paint14_linear_1804_3738)"/>
<path d="M41.8477 29.3874C39.0477 29.3874 36.7852 27.1124 36.7852 24.3249C36.7852 22.9749 37.3102 21.6999 38.2727 20.7499C39.2227 19.7999 40.4977 19.2749 41.8477 19.2749H41.8602C43.2102 19.2749 44.4852 19.7999 45.4352 20.7624C46.3852 21.7249 46.9102 22.9874 46.9102 24.3374C46.9102 27.1249 44.6352 29.3874 41.8477 29.3874ZM41.8477 21.1124C40.9852 21.1124 40.1727 21.4499 39.5727 22.0499C38.9602 22.6624 38.6227 23.4749 38.6227 24.3249C38.6227 26.0999 40.0727 27.5499 41.8477 27.5624C43.6227 27.5624 45.0727 26.1124 45.0727 24.3374C45.0727 23.4749 44.7352 22.6624 44.1352 22.0499C43.5227 21.4499 42.7102 21.1124 41.8477 21.1124Z" fill="url(#paint15_linear_1804_3738)"/>
<path d="M22.3377 58.5746C22.1127 58.5746 21.8752 58.4871 21.7002 58.3246L20.1002 56.7871C19.7377 56.4371 19.7252 55.8621 20.0752 55.4871C20.4252 55.1246 21.0002 55.1121 21.3752 55.4621L22.3377 56.3871L24.9252 53.9121C25.2877 53.5621 25.8752 53.5746 26.2252 53.9371C26.5752 54.2996 26.5627 54.8871 26.2002 55.2371L22.9877 58.3121C22.7877 58.4871 22.5627 58.5746 22.3377 58.5746Z" fill="url(#paint16_linear_1804_3738)"/>
<path d="M59.8377 58.5746C59.6127 58.5746 59.3752 58.4871 59.2002 58.3246L57.6002 56.7871C57.2377 56.4371 57.2252 55.8621 57.5752 55.4871C57.9252 55.1246 58.5002 55.1121 58.8752 55.4621L59.8377 56.3871L62.4252 53.9121C62.7877 53.5621 63.3752 53.5746 63.7252 53.9371C64.0752 54.2996 64.0627 54.8871 63.7002 55.2371L60.4752 58.3121C60.2877 58.4871 60.0627 58.5746 59.8377 58.5746Z" fill="url(#paint17_linear_1804_3738)"/>
<path d="M40.9619 62.7997C40.7369 62.7997 40.4994 62.7122 40.3244 62.5497L38.5494 60.8497C38.1869 60.4997 38.1744 59.9247 38.5244 59.5497C38.8744 59.1872 39.4494 59.1747 39.8244 59.5247L40.9619 60.6122L43.8869 57.8247C44.2494 57.4747 44.8244 57.4872 45.1869 57.8497C45.5369 58.2122 45.5244 58.7997 45.1619 59.1497L41.6119 62.5497C41.4119 62.7122 41.1869 62.7997 40.9619 62.7997Z" fill="url(#paint18_linear_1804_3738)"/>
<path d="M10.1001 71.7C7.53761 71.7 4.96261 70.725 3.00011 68.7875C1.08761 66.8875 0.0251116 64.3625 0.000111647 61.6625C-0.0123884 58.9625 1.02511 56.425 2.92511 54.5125C6.83761 50.5625 13.2376 50.525 17.2001 54.4375C21.1626 58.35 21.1876 64.7625 17.2751 68.7125C15.3001 70.7 12.7001 71.7 10.1001 71.7ZM10.1001 53.35C7.97511 53.35 5.83761 54.1625 4.22511 55.8C2.67511 57.3625 1.82511 59.45 1.83761 61.65C1.85011 63.8625 2.72511 65.925 4.28761 67.475C7.52511 70.675 12.7626 70.65 15.9751 67.4125C19.1751 64.175 19.1501 58.9375 15.9126 55.725C14.3001 54.15 12.2001 53.35 10.1001 53.35Z" fill="url(#paint19_linear_1804_3738)"/>
<path d="M6.48908 66.1502C6.25158 66.1502 6.02658 66.0627 5.85158 65.8877C5.48908 65.5377 5.48908 64.9502 5.83908 64.5877L12.6516 57.6252C12.9016 57.3627 13.2766 57.2877 13.6141 57.4002C13.9516 57.5252 14.1891 57.8252 14.2141 58.1877L14.6141 62.9252C14.6516 63.4252 14.2891 63.8752 13.7766 63.9127C13.2641 63.9627 12.8266 63.5877 12.7891 63.0752L12.5516 60.3252L7.13908 65.8752C6.96408 66.0627 6.72658 66.1502 6.48908 66.1502Z" fill="url(#paint20_linear_1804_3738)"/>
<path d="M13.3027 59.1875C13.2777 59.1875 13.2652 59.1875 13.2527 59.1875L8.59021 58.9125C8.09021 58.8875 7.70271 58.45 7.72771 57.9375C7.75271 57.4375 8.20271 57.0625 8.70271 57.075L13.3652 57.35C13.8652 57.375 14.2527 57.8125 14.2277 58.325C14.1902 58.8125 13.7902 59.1875 13.3027 59.1875Z" fill="url(#paint21_linear_1804_3738)"/>
</g>
<defs>
<linearGradient id="paint0_linear_1804_3738" x1="41.907" y1="8.2998" x2="41.907" y2="67.1873" gradientUnits="userSpaceOnUse">
<stop stop-color="#9747FF"/>
<stop offset="1" stop-color="#4B9ADB"/>
</linearGradient>
<linearGradient id="paint1_linear_1804_3738" x1="41.907" y1="41.5249" x2="41.907" y2="50.0624" gradientUnits="userSpaceOnUse">
<stop stop-color="#9747FF"/>
<stop offset="1" stop-color="#4B9ADB"/>
</linearGradient>
<linearGradient id="paint2_linear_1804_3738" x1="41.8617" y1="38.2495" x2="41.8617" y2="52.5995" gradientUnits="userSpaceOnUse">
<stop stop-color="#9747FF"/>
<stop offset="1" stop-color="#4B9ADB"/>
</linearGradient>
<linearGradient id="paint3_linear_1804_3738" x1="41.8698" y1="12.6997" x2="41.8698" y2="17.2122" gradientUnits="userSpaceOnUse">
<stop stop-color="#9747FF"/>
<stop offset="1" stop-color="#4B9ADB"/>
</linearGradient>
<linearGradient id="paint4_linear_1804_3738" x1="41.8245" y1="31.4736" x2="41.8245" y2="35.9749" gradientUnits="userSpaceOnUse">
<stop stop-color="#9747FF"/>
<stop offset="1" stop-color="#4B9ADB"/>
</linearGradient>
<linearGradient id="paint5_linear_1804_3738" x1="33.7765" y1="25.6987" x2="33.7765" y2="32.1371" gradientUnits="userSpaceOnUse">
<stop stop-color="#9747FF"/>
<stop offset="1" stop-color="#4B9ADB"/>
</linearGradient>
<linearGradient id="paint6_linear_1804_3738" x1="49.9429" y1="25.7178" x2="49.9429" y2="32.1498" gradientUnits="userSpaceOnUse">
<stop stop-color="#9747FF"/>
<stop offset="1" stop-color="#4B9ADB"/>
</linearGradient>
<linearGradient id="paint7_linear_1804_3738" x1="33.782" y1="16.502" x2="33.782" y2="22.9372" gradientUnits="userSpaceOnUse">
<stop stop-color="#9747FF"/>
<stop offset="1" stop-color="#4B9ADB"/>
</linearGradient>
<linearGradient id="paint8_linear_1804_3738" x1="49.9162" y1="16.5518" x2="49.9162" y2="22.962" gradientUnits="userSpaceOnUse">
<stop stop-color="#9747FF"/>
<stop offset="1" stop-color="#4B9ADB"/>
</linearGradient>
<linearGradient id="paint9_linear_1804_3738" x1="37.8791" y1="15.3589" x2="37.8791" y2="19.4997" gradientUnits="userSpaceOnUse">
<stop stop-color="#9747FF"/>
<stop offset="1" stop-color="#4B9ADB"/>
</linearGradient>
<linearGradient id="paint10_linear_1804_3738" x1="45.8557" y1="15.3511" x2="45.8557" y2="19.5122" gradientUnits="userSpaceOnUse">
<stop stop-color="#9747FF"/>
<stop offset="1" stop-color="#4B9ADB"/>
</linearGradient>
<linearGradient id="paint11_linear_1804_3738" x1="37.8494" y1="29.1572" x2="37.8494" y2="33.2996" gradientUnits="userSpaceOnUse">
<stop stop-color="#9747FF"/>
<stop offset="1" stop-color="#4B9ADB"/>
</linearGradient>
<linearGradient id="paint12_linear_1804_3738" x1="49.9708" y1="21.1348" x2="49.9708" y2="27.5621" gradientUnits="userSpaceOnUse">
<stop stop-color="#9747FF"/>
<stop offset="1" stop-color="#4B9ADB"/>
</linearGradient>
<linearGradient id="paint13_linear_1804_3738" x1="45.8264" y1="29.1821" x2="45.8264" y2="33.2995" gradientUnits="userSpaceOnUse">
<stop stop-color="#9747FF"/>
<stop offset="1" stop-color="#4B9ADB"/>
</linearGradient>
<linearGradient id="paint14_linear_1804_3738" x1="33.7286" y1="21.0903" x2="33.7286" y2="27.5372" gradientUnits="userSpaceOnUse">
<stop stop-color="#9747FF"/>
<stop offset="1" stop-color="#4B9ADB"/>
</linearGradient>
<linearGradient id="paint15_linear_1804_3738" x1="41.8477" y1="19.2749" x2="41.8477" y2="29.3874" gradientUnits="userSpaceOnUse">
<stop stop-color="#9747FF"/>
<stop offset="1" stop-color="#4B9ADB"/>
</linearGradient>
<linearGradient id="paint16_linear_1804_3738" x1="23.1502" y1="53.6572" x2="23.1502" y2="58.5746" gradientUnits="userSpaceOnUse">
<stop stop-color="#9747FF"/>
<stop offset="1" stop-color="#4B9ADB"/>
</linearGradient>
<linearGradient id="paint17_linear_1804_3738" x1="60.6502" y1="53.6572" x2="60.6502" y2="58.5746" gradientUnits="userSpaceOnUse">
<stop stop-color="#9747FF"/>
<stop offset="1" stop-color="#4B9ADB"/>
</linearGradient>
<linearGradient id="paint18_linear_1804_3738" x1="41.8557" y1="57.5698" x2="41.8557" y2="62.7997" gradientUnits="userSpaceOnUse">
<stop stop-color="#9747FF"/>
<stop offset="1" stop-color="#4B9ADB"/>
</linearGradient>
<linearGradient id="paint19_linear_1804_3738" x1="10.0954" y1="51.5264" x2="10.0954" y2="71.7" gradientUnits="userSpaceOnUse">
<stop stop-color="#9747FF"/>
<stop offset="1" stop-color="#4B9ADB"/>
</linearGradient>
<linearGradient id="paint20_linear_1804_3738" x1="10.0974" y1="57.3496" x2="10.0974" y2="66.1502" gradientUnits="userSpaceOnUse">
<stop stop-color="#9747FF"/>
<stop offset="1" stop-color="#4B9ADB"/>
</linearGradient>
<linearGradient id="paint21_linear_1804_3738" x1="10.9777" y1="57.0747" x2="10.9777" y2="59.1875" gradientUnits="userSpaceOnUse">
<stop stop-color="#9747FF"/>
<stop offset="1" stop-color="#4B9ADB"/>
</linearGradient>
<clipPath id="clip0_1804_3738">
<rect width="80" height="80" fill="white"/>
</clipPath>
</defs>
</svg>
