<svg width="80" height="80" viewBox="0 0 80 80" fill="none" xmlns="http://www.w3.org/2000/svg">
<path d="M28.5 60.85H11.7656C10.0902 60.8483 8.48379 60.1821 7.2989 58.9975C6.11402 57.8129 5.44741 56.2067 5.44531 54.5312V37.4219C5.44531 37.1732 5.54408 36.9348 5.7199 36.759C5.89572 36.5831 6.13417 36.4844 6.38281 36.4844C6.63145 36.4844 6.86991 36.5831 7.04572 36.759C7.22154 36.9348 7.32031 37.1732 7.32031 37.4219V54.5312C7.32186 55.7096 7.79075 56.8392 8.62412 57.6723C9.45749 58.5054 10.5873 58.9739 11.7656 58.975H28.5C29.6784 58.9739 30.8081 58.5054 31.6415 57.6723C32.4749 56.8392 32.9438 55.7096 32.9453 54.5312V25.4687C32.944 24.2902 32.4752 23.1603 31.6418 22.3269C30.8085 21.4935 29.6786 21.0248 28.5 21.0234H11.7656C10.5871 21.0248 9.45716 21.4936 8.62379 22.3269C7.79043 23.1603 7.32165 24.2902 7.32031 25.4687V30.1078C7.32031 30.3565 7.22154 30.5949 7.04572 30.7707C6.86991 30.9465 6.63145 31.0453 6.38281 31.0453C6.13417 31.0453 5.89572 30.9465 5.7199 30.7707C5.54408 30.5949 5.44531 30.3565 5.44531 30.1078V25.4687C5.44722 23.7931 6.11372 22.1866 7.29859 21.0017C8.48347 19.8168 10.09 19.1503 11.7656 19.1484H28.5C30.1757 19.1503 31.7822 19.8168 32.967 21.0017C34.1519 22.1866 34.8184 23.7931 34.8203 25.4687V54.5312C34.8182 56.2067 34.1516 57.8129 32.9667 58.9975C31.7819 60.1821 30.1755 60.8483 28.5 60.85Z" fill="#393939"/>
<path d="M6.38281 35.4062C6.13417 35.4062 5.89572 35.3075 5.7199 35.1317C5.54408 34.9558 5.44531 34.7174 5.44531 34.4688V33.0625C5.44531 32.8139 5.54408 32.5754 5.7199 32.3996C5.89572 32.2238 6.13417 32.125 6.38281 32.125C6.63145 32.125 6.86991 32.2238 7.04572 32.3996C7.22154 32.5754 7.32031 32.8139 7.32031 33.0625V34.4688C7.32031 34.7174 7.22154 34.9558 7.04572 35.1317C6.86991 35.3075 6.63145 35.4062 6.38281 35.4062Z" fill="#393939"/>
<path d="M26.8516 43.5151H13.4141C12.4817 43.5151 11.5874 43.1447 10.9281 42.4854C10.2688 41.8261 9.89844 40.9319 9.89844 39.9995C9.89844 39.0671 10.2688 38.1729 10.9281 37.5136C11.5874 36.8543 12.4817 36.4839 13.4141 36.4839H26.8516C27.784 36.4839 28.6782 36.8543 29.3375 37.5136C29.9968 38.1729 30.3672 39.0671 30.3672 39.9995C30.3672 40.9319 29.9968 41.8261 29.3375 42.4854C28.6782 43.1447 27.784 43.5151 26.8516 43.5151ZM13.4141 38.3589C12.9789 38.3589 12.5616 38.5317 12.254 38.8394C11.9463 39.1471 11.7734 39.5644 11.7734 39.9995C11.7734 40.4346 11.9463 40.8519 12.254 41.1596C12.5616 41.4673 12.9789 41.6401 13.4141 41.6401H26.8516C27.2867 41.6401 27.704 41.4673 28.0117 41.1596C28.3193 40.8519 28.4922 40.4346 28.4922 39.9995C28.4922 39.5644 28.3193 39.1471 28.0117 38.8394C27.704 38.5317 27.2867 38.3589 26.8516 38.3589H13.4141Z" fill="#393939"/>
<path d="M26.8516 32.5776H13.4141C12.4817 32.5776 11.5874 32.2072 10.9281 31.5479C10.2688 30.8886 9.89844 29.9944 9.89844 29.062C9.89844 28.1296 10.2688 27.2354 10.9281 26.5761C11.5874 25.9168 12.4817 25.5464 13.4141 25.5464H26.8516C27.784 25.5464 28.6782 25.9168 29.3375 26.5761C29.9968 27.2354 30.3672 28.1296 30.3672 29.062C30.3672 29.9944 29.9968 30.8886 29.3375 31.5479C28.6782 32.2072 27.784 32.5776 26.8516 32.5776ZM13.4141 27.4214C12.9789 27.4214 12.5616 27.5942 12.254 27.9019C11.9463 28.2096 11.7734 28.6269 11.7734 29.062C11.7734 29.4971 11.9463 29.9144 12.254 30.2221C12.5616 30.5298 12.9789 30.7026 13.4141 30.7026H26.8516C27.2867 30.7026 27.704 30.5298 28.0117 30.2221C28.3193 29.9144 28.4922 29.4971 28.4922 29.062C28.4922 28.6269 28.3193 28.2096 28.0117 27.9019C27.704 27.5942 27.2867 27.4214 26.8516 27.4214H13.4141Z" fill="#393939"/>
<path d="M20.131 56.1054C19.3341 56.1054 18.555 55.8691 17.8924 55.4263C17.2297 54.9835 16.7133 54.3542 16.4083 53.6179C16.1033 52.8816 16.0235 52.0714 16.179 51.2898C16.3345 50.5081 16.7182 49.7901 17.2818 49.2266C17.8453 48.6631 18.5633 48.2793 19.3449 48.1238C20.1266 47.9683 20.9368 48.0481 21.6731 48.3531C22.4094 48.6581 23.0387 49.1746 23.4815 49.8372C23.9242 50.4998 24.1606 51.2789 24.1606 52.0759C24.1594 53.1442 23.7344 54.1684 22.979 54.9238C22.2236 55.6793 21.1994 56.1042 20.131 56.1054ZM20.131 49.9214C19.7049 49.9214 19.2884 50.0478 18.9341 50.2845C18.5798 50.5212 18.3036 50.8577 18.1406 51.2514C17.9775 51.6451 17.9348 52.0783 18.018 52.4962C18.1011 52.9142 18.3063 53.2981 18.6076 53.5994C18.9089 53.9007 19.2928 54.1059 19.7108 54.189C20.1287 54.2721 20.5619 54.2295 20.9556 54.0664C21.3493 53.9033 21.6858 53.6271 21.9225 53.2728C22.1592 52.9185 22.2856 52.502 22.2856 52.0759C22.2849 51.5046 22.0577 50.957 21.6538 50.5531C21.2499 50.1492 20.7022 49.922 20.131 49.9214Z" fill="#393939"/>
<path d="M68.2348 60.8503H51.4996C49.824 60.8484 48.2176 60.182 47.0328 58.9972C45.848 57.8124 45.1816 56.206 45.1797 54.5304V25.4679C45.1816 23.7923 45.848 22.1859 47.0328 21.0011C48.2176 19.8163 49.824 19.1498 51.4996 19.1479H68.2348C69.9103 19.1498 71.5167 19.8163 72.7015 21.0011C73.8864 22.1859 74.5528 23.7923 74.5547 25.4679V54.5304C74.5528 56.206 73.8863 57.8124 72.7015 58.9972C71.5167 60.182 69.9103 60.8484 68.2348 60.8503ZM51.4996 21.0229C50.3211 21.0243 49.1913 21.493 48.358 22.3263C47.5247 23.1596 47.056 24.2895 47.0547 25.4679V54.5304C47.056 55.7089 47.5248 56.8387 48.3581 57.6719C49.1914 58.5052 50.3211 58.974 51.4996 58.9753H68.2348C69.4132 58.974 70.543 58.5052 71.3763 57.6719C72.2096 56.8387 72.6783 55.7089 72.6797 54.5304V25.4679C72.6784 24.2895 72.2096 23.1596 71.3763 22.3263C70.543 21.493 69.4132 21.0243 68.2348 21.0229H51.4996Z" fill="#393939"/>
<path d="M66.5859 43.5151H53.1484C52.216 43.5151 51.3218 43.1447 50.6625 42.4854C50.0032 41.8261 49.6328 40.9319 49.6328 39.9995C49.6328 39.0671 50.0032 38.1729 50.6625 37.5136C51.3218 36.8543 52.216 36.4839 53.1484 36.4839H66.5859C67.5183 36.4839 68.4125 36.8543 69.0719 37.5136C69.7312 38.1729 70.1016 39.0671 70.1016 39.9995C70.1016 40.9319 69.7312 41.8261 69.0719 42.4854C68.4125 43.1447 67.5183 43.5151 66.5859 43.5151ZM53.1484 38.3589C52.7133 38.3589 52.296 38.5317 51.9883 38.8394C51.6807 39.1471 51.5078 39.5644 51.5078 39.9995C51.5078 40.4346 51.6807 40.8519 51.9883 41.1596C52.296 41.4673 52.7133 41.6401 53.1484 41.6401H66.5859C67.0211 41.6401 67.4384 41.4673 67.746 41.1596C68.0537 40.8519 68.2266 40.4346 68.2266 39.9995C68.2266 39.5644 68.0537 39.1471 67.746 38.8394C67.4384 38.5317 67.0211 38.3589 66.5859 38.3589H53.1484Z" fill="#393939"/>
<path d="M66.5859 32.5776H53.1484C52.216 32.5776 51.3218 32.2072 50.6625 31.5479C50.0032 30.8886 49.6328 29.9944 49.6328 29.062C49.6328 28.1296 50.0032 27.2354 50.6625 26.5761C51.3218 25.9168 52.216 25.5464 53.1484 25.5464H66.5859C67.5183 25.5464 68.4125 25.9168 69.0719 26.5761C69.7312 27.2354 70.1016 28.1296 70.1016 29.062C70.1016 29.9944 69.7312 30.8886 69.0719 31.5479C68.4125 32.2072 67.5183 32.5776 66.5859 32.5776ZM53.1484 27.4214C52.7133 27.4214 52.296 27.5942 51.9883 27.9019C51.6807 28.2096 51.5078 28.6269 51.5078 29.062C51.5078 29.4971 51.6807 29.9144 51.9883 30.2221C52.296 30.5298 52.7133 30.7026 53.1484 30.7026H66.5859C67.0211 30.7026 67.4384 30.5298 67.746 30.2221C68.0537 29.9144 68.2266 29.4971 68.2266 29.062C68.2266 28.6269 68.0537 28.2096 67.746 27.9019C67.4384 27.5942 67.0211 27.4214 66.5859 27.4214H53.1484Z" fill="#393939"/>
<path d="M59.8654 56.1054C59.0685 56.1054 58.2894 55.8691 57.6268 55.4263C56.9641 54.9835 56.4476 54.3542 56.1427 53.6179C55.8377 52.8816 55.7579 52.0714 55.9134 51.2898C56.0688 50.5081 56.4526 49.7901 57.0161 49.2266C57.5797 48.6631 58.2977 48.2793 59.0793 48.1238C59.861 47.9683 60.6711 48.0481 61.4074 48.3531C62.1437 48.6581 62.7731 49.1746 63.2158 49.8372C63.6586 50.4998 63.8949 51.2789 63.8949 52.0759C63.8937 53.1442 63.4688 54.1684 62.7134 54.9238C61.958 55.6793 60.9338 56.1042 59.8654 56.1054ZM59.8654 49.9214C59.4393 49.9214 59.0228 50.0478 58.6684 50.2845C58.3141 50.5212 58.038 50.8577 57.8749 51.2514C57.7119 51.6451 57.6692 52.0783 57.7523 52.4962C57.8355 52.9142 58.0407 53.2981 58.342 53.5994C58.6433 53.9007 59.0272 54.1059 59.4451 54.189C59.8631 54.2721 60.2963 54.2295 60.69 54.0664C61.0836 53.9033 61.4201 53.6272 61.6569 53.2728C61.8936 52.9185 62.0199 52.502 62.0199 52.0759C62.0193 51.5046 61.7921 50.957 61.3882 50.5531C60.9843 50.1492 60.4366 49.922 59.8654 49.9214Z" fill="#393939"/>
<path d="M63.7766 18.2844C63.6638 18.3341 63.5424 18.3611 63.4192 18.3638C63.296 18.3665 63.1735 18.3449 63.0587 18.3002C62.9439 18.2555 62.8391 18.1886 62.7501 18.1033C62.6612 18.018 62.59 17.916 62.5406 17.8031C58.4922 8.60156 49.4797 2.65625 39.5828 2.65625C35.8042 2.66454 32.0767 3.53015 28.6811 5.18789C25.2855 6.84564 22.3103 9.25228 19.9797 12.2266C19.5922 12.7172 19.2214 13.2245 18.8672 13.7484L17.2344 12.8188C17.2415 12.804 17.2499 12.7899 17.2594 12.7766C17.6031 12.2656 17.9615 11.7693 18.3344 11.2875C20.8362 8.02725 24.0529 5.38465 27.7367 3.56318C31.4206 1.74172 35.4733 0.789977 39.5828 0.78125C50.2234 0.78125 59.9094 7.16563 64.2563 17.0484C64.306 17.1611 64.333 17.2824 64.3358 17.4055C64.3386 17.5286 64.3171 17.651 64.2725 17.7658C64.228 17.8806 64.1613 17.9855 64.0762 18.0745C63.9911 18.1634 63.8892 18.2348 63.7766 18.2844Z" fill="#393939"/>
<path d="M17.0497 17.4122C16.46 17.4101 15.895 17.1756 15.4771 16.7596C15.0592 16.3436 14.8221 15.7797 14.8172 15.1901L14.8047 13.131C14.8023 12.7391 14.9031 12.3536 15.097 12.013C15.2909 11.6725 15.571 11.389 15.9091 11.1911C16.2473 10.9931 16.6316 10.8876 17.0235 10.8853C17.4153 10.8829 17.8008 10.9838 18.1414 11.1777L19.9309 12.1966C20.2714 12.3905 20.5549 12.6706 20.7528 13.0088C20.9508 13.3469 21.0562 13.7312 21.0585 14.1231C21.0609 14.5149 20.96 14.9005 20.7661 15.241C20.5723 15.5815 20.2921 15.8649 19.954 16.0629L18.1769 17.1029C17.8354 17.3045 17.4462 17.4113 17.0497 17.4122ZM17.0377 12.7583C16.9739 12.759 16.9114 12.7766 16.8565 12.8092C16.8016 12.8399 16.7561 12.8851 16.7249 12.9398C16.6938 12.9945 16.6782 13.0567 16.6798 13.1196L16.6923 15.1787C16.6927 15.2414 16.7095 15.3029 16.7412 15.357C16.7729 15.4111 16.8183 15.4559 16.8727 15.4869C16.9272 15.5179 16.9889 15.534 17.0516 15.5336C17.1143 15.5333 17.1758 15.5164 17.2299 15.4847L19.0069 14.4447C19.0611 14.413 19.1059 14.3676 19.1369 14.3131C19.1679 14.2587 19.1841 14.1969 19.1837 14.1342C19.1833 14.0715 19.1665 14.01 19.1348 13.9559C19.1031 13.9018 19.0577 13.857 19.0032 13.8259L17.2137 12.807C17.1604 12.7756 17.0997 12.7587 17.0377 12.7583Z" fill="#393939"/>
<path d="M62.7658 67.1797C62.7586 67.1944 62.7503 67.2086 62.7408 67.2219C62.3986 67.7329 62.0402 68.2292 61.6658 68.711C59.1641 71.9719 55.9473 74.615 52.2631 76.4368C48.579 78.2585 44.5258 79.2103 40.4158 79.2188C29.7768 79.2188 20.0908 72.8329 15.744 62.95C15.6942 62.8374 15.6671 62.716 15.6643 62.5928C15.6615 62.4697 15.683 62.3472 15.7276 62.2323C15.7721 62.1175 15.8389 62.0126 15.9241 61.9236C16.0092 61.8346 16.1111 61.7632 16.2239 61.7136C16.3366 61.664 16.458 61.6371 16.5812 61.6345C16.7044 61.6319 16.8268 61.6535 16.9416 61.6983C17.0564 61.743 17.1612 61.81 17.2501 61.8953C17.339 61.9805 17.4101 62.0825 17.4596 62.1954C21.508 71.3969 30.519 77.3438 40.4158 77.3438C44.1948 77.3354 47.9227 76.4696 51.3185 74.8116C54.7144 73.1535 57.6898 70.7466 60.0205 67.7719C60.4095 67.2813 60.7809 66.774 61.1346 66.25L62.7658 67.1797Z" fill="#393939"/>
<path d="M62.9634 69.1173C62.5757 69.1164 62.1949 69.0144 61.8586 68.8212L60.0691 67.8023C59.7286 67.6085 59.4451 67.3284 59.2472 66.9902C59.0492 66.652 58.9438 66.2677 58.9414 65.8759C58.9391 65.4841 59.0399 65.0985 59.2338 64.758C59.4277 64.4175 59.7078 64.1341 60.046 63.9361L61.8231 62.896C62.1612 62.6981 62.5455 62.5927 62.9373 62.5904C63.3291 62.588 63.7146 62.6889 64.0551 62.8827C64.3956 63.0766 64.679 63.3566 64.877 63.6948C65.0749 64.0329 65.1804 64.4171 65.1828 64.8089L65.1953 66.868C65.1964 67.1623 65.1396 67.4538 65.0281 67.7261C64.9165 67.9984 64.7525 68.246 64.5452 68.4549C64.338 68.6637 64.0916 68.8297 63.8202 68.9434C63.5488 69.057 63.2577 69.1161 62.9634 69.1173ZM60.9931 65.5543C60.939 65.586 60.8942 65.6314 60.8632 65.6858C60.8321 65.7403 60.816 65.802 60.8164 65.8647C60.8168 65.9274 60.8336 65.9889 60.8653 66.043C60.897 66.0971 60.9423 66.142 60.9968 66.173L62.7863 67.1919C62.8408 67.2229 62.9025 67.2391 62.9652 67.2387C63.0279 67.2383 63.0894 67.2215 63.1435 67.1898C63.1976 67.1581 63.2424 67.1127 63.2735 67.0583C63.3045 67.0038 63.3206 66.9421 63.3203 66.8794L63.3078 64.8203C63.3074 64.7576 63.2905 64.6961 63.2588 64.642C63.2271 64.5879 63.1818 64.5431 63.1273 64.5121C63.0728 64.4811 63.0111 64.4649 62.9484 64.4653C62.8858 64.4657 62.8243 64.4825 62.7702 64.5142L60.9931 65.5543Z" fill="#393939"/>
</svg>
