<svg width="80" height="80" viewBox="0 0 80 80" fill="none" xmlns="http://www.w3.org/2000/svg">
<path d="M38.4502 7.27246C39.4504 6.90799 40.5486 6.9082 41.5488 7.27246V7.27344L66.0596 16.2441V16.2451C66.9236 16.5635 67.6682 17.1375 68.1934 17.8887C68.7183 18.6396 68.9996 19.5317 69 20.4453V40.0928C68.9433 45.0051 67.588 49.8167 65.0703 54.042C62.5489 58.2735 58.9508 61.7678 54.6387 64.1709L54.6211 64.1807L54.6045 64.1895L42.2656 71.3809L42.2549 71.3867L42.2441 71.3936C41.5729 71.7964 40.8013 72.0067 40.0166 72H39.9834C39.1987 72.0067 38.4271 71.7964 37.7559 71.3936L37.7451 71.3867L37.7344 71.3809L25.3955 64.1895L25.3789 64.1807L25.3613 64.1709L24.96 63.9424C20.8259 61.5487 17.3724 58.1414 14.9297 54.042C12.4871 49.9427 11.1388 45.2917 11.0088 40.5322L11 40.0713V20.4453C11.0004 19.5317 11.2817 18.6396 11.8066 17.8887C12.3317 17.1377 13.0756 16.5626 13.9395 16.2441L38.4512 7.27344L38.4502 7.27246Z" stroke="#393939" stroke-width="4"/>
<path d="M28.6719 39.0469L35.8906 46.2656L50.3281 30.7969" stroke="#393939" stroke-width="3" stroke-linecap="round" stroke-linejoin="round"/>
</svg>
