<svg width="80" height="80" viewBox="0 0 80 80" fill="none" xmlns="http://www.w3.org/2000/svg">
<g clip-path="url(#clip0_1786_3513)">
<path d="M71.92 29.6774C71.369 27.9677 70.6826 26.3097 69.8723 24.7252L75.5832 19.0142L60.9858 4.41677L55.2748 10.1277C53.6903 9.31742 52.0323 8.63097 50.3226 8.08V0H29.6774V8.08C27.9677 8.63097 26.3097 9.31742 24.7252 10.1277L19.0142 4.41677L4.41677 19.0142L10.1277 24.7252C9.31742 26.3097 8.63097 27.9677 8.08 29.6774H0V50.3226H8.08C8.63097 52.0323 9.31742 53.6903 10.1277 55.2748L4.41677 60.9858L19.0142 75.5832L24.7252 69.8723C26.3097 70.6826 27.9677 71.369 29.6774 71.92V80H50.3226V71.92C52.0323 71.369 53.6903 70.6826 55.2748 69.8723L60.9858 75.5832L75.5832 60.9858L69.8723 55.2748C70.6826 53.6903 71.369 52.0323 71.92 50.3226H80V29.6774H71.92ZM2.58065 32.2581H10.0013L10.271 31.329C10.9032 29.1574 11.769 27.0645 12.8439 25.1084L13.3097 24.2594L8.06452 19.0142L19.0129 8.06581L24.2581 13.311L25.1071 12.8452C27.0632 11.7703 29.1561 10.9045 31.3277 10.2723L32.2581 10.0013V2.58065H38.7097L38.7071 19.2839L40.5161 18.4942C41.1677 18.209 41.8619 18.0645 42.5806 18.0645C45.4271 18.0645 47.7419 20.3794 47.7419 23.2258C47.7419 26.0723 45.4271 28.3871 42.5806 28.3871C41.8619 28.3871 41.1665 28.2426 40.5148 27.9574L38.6981 27.1626L38.7045 38.7058L30.8606 38.7097C30.9316 38.2864 30.9677 37.8555 30.9677 37.4194C30.9677 33.1497 27.4955 29.6774 23.2258 29.6774C18.9561 29.6774 15.4839 33.1497 15.4839 37.4194C15.4839 37.8555 15.52 38.2864 15.591 38.7097H2.58065V32.2581ZM38.7097 77.4193H32.2581V69.9987L31.329 69.729C29.1574 69.0968 27.0645 68.231 25.1084 67.1561L24.2594 66.6903L19.0142 71.9355L8.06581 60.9871L13.311 55.7419L12.8452 54.8929C11.7703 52.9368 10.9045 50.8439 10.2723 48.6723L10.0013 47.7419H2.58065V41.2903L19.2839 41.2929L18.4942 39.4839C18.209 38.8323 18.0645 38.1381 18.0645 37.4194C18.0645 34.5729 20.3794 32.2581 23.2258 32.2581C26.0723 32.2581 28.3871 34.5729 28.3871 37.4194C28.3871 38.1381 28.2426 38.8335 27.9574 39.4852L27.1626 41.3019L38.7058 41.2955L38.7097 49.1394C38.2864 49.0684 37.8555 49.0323 37.4194 49.0323C33.1497 49.0323 29.6774 52.5045 29.6774 56.7742C29.6774 61.0439 33.1497 64.5161 37.4194 64.5161C37.8555 64.5161 38.2864 64.48 38.7097 64.409V77.4193ZM77.4193 47.7419H69.9987L69.729 48.671C69.0968 50.8426 68.231 52.9355 67.1561 54.8916L66.6903 55.7406L71.9355 60.9858L60.9871 71.9342L55.7419 66.689L54.8929 67.1548C52.9368 68.2297 50.8439 69.0955 48.6723 69.7277L47.7419 69.9987V77.4193H41.2903L41.2929 60.7161L39.4839 61.5058C38.8323 61.791 38.1381 61.9355 37.4194 61.9355C34.5729 61.9355 32.2581 59.6206 32.2581 56.7742C32.2581 53.9277 34.5729 51.6129 37.4194 51.6129C38.1381 51.6129 38.8335 51.7574 39.4852 52.0426L41.3019 52.8374L41.2955 41.2942L49.1394 41.2903C49.0684 41.7135 49.0323 42.1445 49.0323 42.5806C49.0323 46.8503 52.5045 50.3226 56.7742 50.3226C61.0439 50.3226 64.5161 46.8503 64.5161 42.5806C64.5161 42.1445 64.48 41.7135 64.409 41.2903H77.4193V47.7419ZM77.4193 38.7097L60.7161 38.7071L61.5058 40.5161C61.791 41.1677 61.9355 41.8619 61.9355 42.5806C61.9355 45.4271 59.6206 47.7419 56.7742 47.7419C53.9277 47.7419 51.6129 45.4271 51.6129 42.5806C51.6129 41.8619 51.7574 41.1665 52.0426 40.5148L52.8374 38.6981L41.2942 38.7045L41.2903 30.8606C41.7135 30.9316 42.1445 30.9677 42.5806 30.9677C46.8503 30.9677 50.3226 27.4955 50.3226 23.2258C50.3226 18.9561 46.8503 15.4839 42.5806 15.4839C42.1445 15.4839 41.7135 15.52 41.2903 15.591V2.58065H47.7419V10.0013L48.671 10.271C50.8426 10.9032 52.9355 11.769 54.8916 12.8439L55.7406 13.3097L60.9858 8.06452L71.9342 19.0129L66.689 24.2581L67.1548 25.1071C68.2297 27.0632 69.0955 29.1561 69.7277 31.3277L69.9987 32.2581H77.4193V38.7097Z" fill="#393939"/>
</g>
<defs>
<clipPath id="clip0_1786_3513">
<rect width="80" height="80" fill="white"/>
</clipPath>
</defs>
</svg>
