<svg width="80" height="80" viewBox="0 0 80 80" fill="none" xmlns="http://www.w3.org/2000/svg">
<path d="M10 66.25C6.55 66.25 3.75 63.45 3.75 60C3.75 56.55 6.55 53.75 10 53.75C13.45 53.75 16.25 56.55 16.25 60C16.25 60.6875 15.6875 61.25 15 61.25C14.3125 61.25 13.75 60.6875 13.75 60C13.75 57.9375 12.0625 56.25 10 56.25C7.9375 56.25 6.25 57.9375 6.25 60C6.25 62.0625 7.9375 63.75 10 63.75C10.6875 63.75 11.25 64.3125 11.25 65C11.25 65.6875 10.6875 66.25 10 66.25Z" fill="url(#paint0_linear_1807_3948)"/>
<path d="M75 21.25C74.3125 21.25 73.75 20.6875 73.75 20C73.75 17.9375 72.0625 16.25 70 16.25C69.3125 16.25 68.75 15.6875 68.75 15C68.75 14.3125 69.3125 13.75 70 13.75C73.45 13.75 76.25 16.55 76.25 20C76.25 20.6875 75.6875 21.25 75 21.25Z" fill="url(#paint1_linear_1807_3948)"/>
<path d="M15 11.25C14.3125 11.25 13.75 10.6875 13.75 10C13.75 7.9375 12.0625 6.25 10 6.25C7.9375 6.25 6.25 7.9375 6.25 10C6.25 10.6875 5.6875 11.25 5 11.25C4.3125 11.25 3.75 10.6875 3.75 10C3.75 6.55 6.55 3.75 10 3.75C13.45 3.75 16.25 6.55 16.25 10C16.25 10.6875 15.6875 11.25 15 11.25Z" fill="url(#paint2_linear_1807_3948)"/>
<path d="M15 61.25C14.3125 61.25 13.75 60.6875 13.75 60C13.75 57.9375 12.0625 56.25 10 56.25C7.9375 56.25 6.25 57.9375 6.25 60C6.25 60.6875 5.6875 61.25 5 61.25C4.3125 61.25 3.75 60.6875 3.75 60V10C3.75 9.3125 4.3125 8.75 5 8.75C5.6875 8.75 6.25 9.3125 6.25 10V55C7.3 54.2125 8.6 53.75 10 53.75C11.4 53.75 12.7 54.2125 13.75 55V10C13.75 9.3125 14.3125 8.75 15 8.75C15.6875 8.75 16.25 9.3125 16.25 10V60C16.25 60.6875 15.6875 61.25 15 61.25Z" fill="url(#paint3_linear_1807_3948)"/>
<path d="M70 66.25H10C9.3125 66.25 8.75 65.6875 8.75 65C8.75 64.3125 9.3125 63.75 10 63.75H70C70.6875 63.75 71.25 64.3125 71.25 65C71.25 65.6875 70.6875 66.25 70 66.25Z" fill="url(#paint4_linear_1807_3948)"/>
<path d="M75 71.25C74.3125 71.25 73.75 70.6875 73.75 70V20C73.75 19.3125 74.3125 18.75 75 18.75C75.6875 18.75 76.25 19.3125 76.25 20V70C76.25 70.6875 75.6875 71.25 75 71.25Z" fill="url(#paint5_linear_1807_3948)"/>
<path d="M70 16.25H15C14.3125 16.25 13.75 15.6875 13.75 15C13.75 14.3125 14.3125 13.75 15 13.75H70C70.6875 13.75 71.25 14.3125 71.25 15C71.25 15.6875 70.6875 16.25 70 16.25Z" fill="url(#paint6_linear_1807_3948)"/>
<path d="M70 76.25C66.55 76.25 63.75 73.45 63.75 70V65C63.75 64.3125 64.3125 63.75 65 63.75C65.6875 63.75 66.25 64.3125 66.25 65V70C66.25 72.0625 67.9375 73.75 70 73.75C72.0625 73.75 73.75 72.0625 73.75 70C73.75 67.9375 72.0625 66.25 70 66.25C69.3125 66.25 68.75 65.6875 68.75 65C68.75 64.3125 69.3125 63.75 70 63.75C73.45 63.75 76.25 66.55 76.25 70C76.25 73.45 73.45 76.25 70 76.25Z" fill="url(#paint7_linear_1807_3948)"/>
<path d="M32.5 46.25C27.2625 46.25 22.55 43.3375 20.2 38.6375C19.9375 38.1125 20.075 37.4625 20.5375 37.1C20.9875 36.7375 21.25 36.2 21.25 35.625C21.25 34.7375 20.625 33.9625 19.75 33.7875C19.1625 33.675 18.75 33.1625 18.75 32.5625C18.75 24.9125 24.9125 18.75 32.5 18.75C35.1375 18.75 37.6875 19.5 39.875 20.9125C40.425 21.2625 40.6125 21.9875 40.2875 22.5625C40.1 22.9125 40 23.325 40 23.75C40 25.125 41.125 26.25 42.5 26.25C42.8125 26.25 43.1 26.2 43.375 26.0875C43.9875 25.85 44.6875 26.125 44.9625 26.7125C45.8125 28.4875 46.25 30.4875 46.25 32.5C46.25 40.0875 40.0875 46.25 32.5 46.25ZM22.85 38.2875C24.8875 41.675 28.5 43.75 32.5 43.75C38.7 43.75 43.75 38.7 43.75 32.5C43.75 31.2 43.525 29.9125 43.0875 28.7125C42.9 28.7375 42.7 28.75 42.5 28.75C39.7375 28.75 37.5 26.5125 37.5 23.75C37.5 23.325 37.55 22.9125 37.65 22.5125C36.075 21.6875 34.3125 21.25 32.5 21.25C26.575 21.25 21.7 25.8625 21.275 31.6875C22.7625 32.4 23.75 33.925 23.75 35.625C23.75 36.6 23.425 37.525 22.85 38.2875Z" fill="url(#paint8_linear_1807_3948)"/>
<path d="M28.75 35C26.6875 35 25 33.3125 25 31.25C25 29.1875 26.6875 27.5 28.75 27.5C30.8125 27.5 32.5 29.1875 32.5 31.25C32.5 33.3125 30.8125 35 28.75 35ZM28.75 30C28.0625 30 27.5 30.5625 27.5 31.25C27.5 31.9375 28.0625 32.5 28.75 32.5C29.4375 32.5 30 31.9375 30 31.25C30 30.5625 29.4375 30 28.75 30Z" fill="url(#paint9_linear_1807_3948)"/>
<path d="M37.5 38.75C36.125 38.75 35 37.625 35 36.25C35 34.875 36.125 33.75 37.5 33.75C38.875 33.75 40 34.875 40 36.25C40 37.625 38.875 38.75 37.5 38.75Z" fill="url(#paint10_linear_1807_3948)"/>
<path d="M51.25 36.25C50.5625 36.25 50 35.6875 50 35V32.5C50 31.8125 50.5625 31.25 51.25 31.25C51.9375 31.25 52.5 31.8125 52.5 32.5V35C52.5 35.6875 51.9375 36.25 51.25 36.25Z" fill="url(#paint11_linear_1807_3948)"/>
<path d="M51.25 42.5C50.5625 42.5 50 41.9375 50 41.25V38.75C50 38.0625 50.5625 37.5 51.25 37.5C51.9375 37.5 52.5 38.0625 52.5 38.75V41.25C52.5 41.9375 51.9375 42.5 51.25 42.5Z" fill="url(#paint12_linear_1807_3948)"/>
<path d="M51.25 51.25C50.5625 51.25 50 50.6875 50 50V45C50 44.3125 50.5625 43.75 51.25 43.75C51.9375 43.75 52.5 44.3125 52.5 45V50C52.5 50.6875 51.9375 51.25 51.25 51.25Z" fill="url(#paint13_linear_1807_3948)"/>
<path d="M51.25 51.25H46.25C45.5625 51.25 45 50.6875 45 50C45 49.3125 45.5625 48.75 46.25 48.75H51.25C51.9375 48.75 52.5 49.3125 52.5 50C52.5 50.6875 51.9375 51.25 51.25 51.25Z" fill="url(#paint14_linear_1807_3948)"/>
<path d="M42.5 51.25H40C39.3125 51.25 38.75 50.6875 38.75 50C38.75 49.3125 39.3125 48.75 40 48.75H42.5C43.1875 48.75 43.75 49.3125 43.75 50C43.75 50.6875 43.1875 51.25 42.5 51.25Z" fill="url(#paint15_linear_1807_3948)"/>
<path d="M36.25 51.25H33.75C33.0625 51.25 32.5 50.6875 32.5 50C32.5 49.3125 33.0625 48.75 33.75 48.75H36.25C36.9375 48.75 37.5 49.3125 37.5 50C37.5 50.6875 36.9375 51.25 36.25 51.25Z" fill="url(#paint16_linear_1807_3948)"/>
<path d="M22.5 51.25H20C19.3125 51.25 18.75 50.6875 18.75 50C18.75 49.3125 19.3125 48.75 20 48.75H22.5C23.1875 48.75 23.75 49.3125 23.75 50C23.75 50.6875 23.1875 51.25 22.5 51.25Z" fill="url(#paint17_linear_1807_3948)"/>
<path d="M70 30H56.25C55.5625 30 55 29.4375 55 28.75V20C55 19.3125 55.5625 18.75 56.25 18.75H70C70.6875 18.75 71.25 19.3125 71.25 20V28.75C71.25 29.4375 70.6875 30 70 30ZM57.5 27.5H68.75V21.25H57.5V27.5Z" fill="url(#paint18_linear_1807_3948)"/>
<path d="M43.7492 25C43.4242 25 43.1117 24.875 42.8617 24.6375C42.3742 24.15 42.3742 23.3625 42.8617 22.875L46.6117 19.125C46.8492 18.8875 47.1617 18.75 47.4992 18.75H56.2492C56.9367 18.75 57.4992 19.3125 57.4992 20C57.4992 20.6875 56.9367 21.25 56.2492 21.25H48.0117L44.6242 24.6375C44.3867 24.875 44.0742 25 43.7492 25Z" fill="url(#paint19_linear_1807_3948)"/>
<path d="M32.5 58.75H27.5C26.8125 58.75 26.25 58.1875 26.25 57.5V47.5C26.25 46.8125 26.8125 46.25 27.5 46.25C28.1875 46.25 28.75 46.8125 28.75 47.5V56.25H32.5C33.1875 56.25 33.75 56.8125 33.75 57.5C33.75 58.1875 33.1875 58.75 32.5 58.75Z" fill="url(#paint20_linear_1807_3948)"/>
<path d="M48.75 62.5H32.5C31.8125 62.5 31.25 61.9375 31.25 61.25V55C31.25 54.3125 31.8125 53.75 32.5 53.75H48.75C49.4375 53.75 50 54.3125 50 55V61.25C50 61.9375 49.4375 62.5 48.75 62.5ZM33.75 60H47.5V56.25H33.75V60Z" fill="url(#paint21_linear_1807_3948)"/>
<path d="M70 37.5H60C59.3125 37.5 58.75 36.9375 58.75 36.25C58.75 35.5625 59.3125 35 60 35H70C70.6875 35 71.25 35.5625 71.25 36.25C71.25 36.9375 70.6875 37.5 70 37.5Z" fill="url(#paint22_linear_1807_3948)"/>
<path d="M61.25 41.25H57.5C56.8125 41.25 56.25 40.6875 56.25 40C56.25 39.3125 56.8125 38.75 57.5 38.75H61.25C61.9375 38.75 62.5 39.3125 62.5 40C62.5 40.6875 61.9375 41.25 61.25 41.25Z" fill="url(#paint23_linear_1807_3948)"/>
<path d="M70 41.25H65C64.3125 41.25 63.75 40.6875 63.75 40C63.75 39.3125 64.3125 38.75 65 38.75H70C70.6875 38.75 71.25 39.3125 71.25 40C71.25 40.6875 70.6875 41.25 70 41.25Z" fill="url(#paint24_linear_1807_3948)"/>
<path d="M62.5 45H58.75C58.0625 45 57.5 44.4375 57.5 43.75C57.5 43.0625 58.0625 42.5 58.75 42.5H62.5C63.1875 42.5 63.75 43.0625 63.75 43.75C63.75 44.4375 63.1875 45 62.5 45Z" fill="url(#paint25_linear_1807_3948)"/>
<path d="M70 45H66.25C65.5625 45 65 44.4375 65 43.75C65 43.0625 65.5625 42.5 66.25 42.5H70C70.6875 42.5 71.25 43.0625 71.25 43.75C71.25 44.4375 70.6875 45 70 45Z" fill="url(#paint26_linear_1807_3948)"/>
<path d="M70 48.75H62.5C61.8125 48.75 61.25 48.1875 61.25 47.5C61.25 46.8125 61.8125 46.25 62.5 46.25H70C70.6875 46.25 71.25 46.8125 71.25 47.5C71.25 48.1875 70.6875 48.75 70 48.75Z" fill="url(#paint27_linear_1807_3948)"/>
<path d="M70 52.5H60C59.3125 52.5 58.75 51.9375 58.75 51.25C58.75 50.5625 59.3125 50 60 50H70C70.6875 50 71.25 50.5625 71.25 51.25C71.25 51.9375 70.6875 52.5 70 52.5Z" fill="url(#paint28_linear_1807_3948)"/>
<defs>
<linearGradient id="paint0_linear_1807_3948" x1="10" y1="53.75" x2="10" y2="66.25" gradientUnits="userSpaceOnUse">
<stop stop-color="#9747FF"/>
<stop offset="1" stop-color="#4B9ADB"/>
</linearGradient>
<linearGradient id="paint1_linear_1807_3948" x1="72.5" y1="13.75" x2="72.5" y2="21.25" gradientUnits="userSpaceOnUse">
<stop stop-color="#9747FF"/>
<stop offset="1" stop-color="#4B9ADB"/>
</linearGradient>
<linearGradient id="paint2_linear_1807_3948" x1="10" y1="3.75" x2="10" y2="11.25" gradientUnits="userSpaceOnUse">
<stop stop-color="#9747FF"/>
<stop offset="1" stop-color="#4B9ADB"/>
</linearGradient>
<linearGradient id="paint3_linear_1807_3948" x1="10" y1="8.75" x2="10" y2="61.25" gradientUnits="userSpaceOnUse">
<stop stop-color="#9747FF"/>
<stop offset="1" stop-color="#4B9ADB"/>
</linearGradient>
<linearGradient id="paint4_linear_1807_3948" x1="40" y1="63.75" x2="40" y2="66.25" gradientUnits="userSpaceOnUse">
<stop stop-color="#9747FF"/>
<stop offset="1" stop-color="#4B9ADB"/>
</linearGradient>
<linearGradient id="paint5_linear_1807_3948" x1="75" y1="18.75" x2="75" y2="71.25" gradientUnits="userSpaceOnUse">
<stop stop-color="#9747FF"/>
<stop offset="1" stop-color="#4B9ADB"/>
</linearGradient>
<linearGradient id="paint6_linear_1807_3948" x1="42.5" y1="13.75" x2="42.5" y2="16.25" gradientUnits="userSpaceOnUse">
<stop stop-color="#9747FF"/>
<stop offset="1" stop-color="#4B9ADB"/>
</linearGradient>
<linearGradient id="paint7_linear_1807_3948" x1="70" y1="63.75" x2="70" y2="76.25" gradientUnits="userSpaceOnUse">
<stop stop-color="#9747FF"/>
<stop offset="1" stop-color="#4B9ADB"/>
</linearGradient>
<linearGradient id="paint8_linear_1807_3948" x1="32.5" y1="18.75" x2="32.5" y2="46.25" gradientUnits="userSpaceOnUse">
<stop stop-color="#9747FF"/>
<stop offset="1" stop-color="#4B9ADB"/>
</linearGradient>
<linearGradient id="paint9_linear_1807_3948" x1="28.75" y1="27.5" x2="28.75" y2="35" gradientUnits="userSpaceOnUse">
<stop stop-color="#9747FF"/>
<stop offset="1" stop-color="#4B9ADB"/>
</linearGradient>
<linearGradient id="paint10_linear_1807_3948" x1="37.5" y1="33.75" x2="37.5" y2="38.75" gradientUnits="userSpaceOnUse">
<stop stop-color="#9747FF"/>
<stop offset="1" stop-color="#4B9ADB"/>
</linearGradient>
<linearGradient id="paint11_linear_1807_3948" x1="51.25" y1="31.25" x2="51.25" y2="36.25" gradientUnits="userSpaceOnUse">
<stop stop-color="#9747FF"/>
<stop offset="1" stop-color="#4B9ADB"/>
</linearGradient>
<linearGradient id="paint12_linear_1807_3948" x1="51.25" y1="37.5" x2="51.25" y2="42.5" gradientUnits="userSpaceOnUse">
<stop stop-color="#9747FF"/>
<stop offset="1" stop-color="#4B9ADB"/>
</linearGradient>
<linearGradient id="paint13_linear_1807_3948" x1="51.25" y1="43.75" x2="51.25" y2="51.25" gradientUnits="userSpaceOnUse">
<stop stop-color="#9747FF"/>
<stop offset="1" stop-color="#4B9ADB"/>
</linearGradient>
<linearGradient id="paint14_linear_1807_3948" x1="48.75" y1="48.75" x2="48.75" y2="51.25" gradientUnits="userSpaceOnUse">
<stop stop-color="#9747FF"/>
<stop offset="1" stop-color="#4B9ADB"/>
</linearGradient>
<linearGradient id="paint15_linear_1807_3948" x1="41.25" y1="48.75" x2="41.25" y2="51.25" gradientUnits="userSpaceOnUse">
<stop stop-color="#9747FF"/>
<stop offset="1" stop-color="#4B9ADB"/>
</linearGradient>
<linearGradient id="paint16_linear_1807_3948" x1="35" y1="48.75" x2="35" y2="51.25" gradientUnits="userSpaceOnUse">
<stop stop-color="#9747FF"/>
<stop offset="1" stop-color="#4B9ADB"/>
</linearGradient>
<linearGradient id="paint17_linear_1807_3948" x1="21.25" y1="48.75" x2="21.25" y2="51.25" gradientUnits="userSpaceOnUse">
<stop stop-color="#9747FF"/>
<stop offset="1" stop-color="#4B9ADB"/>
</linearGradient>
<linearGradient id="paint18_linear_1807_3948" x1="63.125" y1="18.75" x2="63.125" y2="30" gradientUnits="userSpaceOnUse">
<stop stop-color="#9747FF"/>
<stop offset="1" stop-color="#4B9ADB"/>
</linearGradient>
<linearGradient id="paint19_linear_1807_3948" x1="49.9977" y1="18.75" x2="49.9977" y2="25" gradientUnits="userSpaceOnUse">
<stop stop-color="#9747FF"/>
<stop offset="1" stop-color="#4B9ADB"/>
</linearGradient>
<linearGradient id="paint20_linear_1807_3948" x1="30" y1="46.25" x2="30" y2="58.75" gradientUnits="userSpaceOnUse">
<stop stop-color="#9747FF"/>
<stop offset="1" stop-color="#4B9ADB"/>
</linearGradient>
<linearGradient id="paint21_linear_1807_3948" x1="40.625" y1="53.75" x2="40.625" y2="62.5" gradientUnits="userSpaceOnUse">
<stop stop-color="#9747FF"/>
<stop offset="1" stop-color="#4B9ADB"/>
</linearGradient>
<linearGradient id="paint22_linear_1807_3948" x1="65" y1="35" x2="65" y2="37.5" gradientUnits="userSpaceOnUse">
<stop stop-color="#9747FF"/>
<stop offset="1" stop-color="#4B9ADB"/>
</linearGradient>
<linearGradient id="paint23_linear_1807_3948" x1="59.375" y1="38.75" x2="59.375" y2="41.25" gradientUnits="userSpaceOnUse">
<stop stop-color="#9747FF"/>
<stop offset="1" stop-color="#4B9ADB"/>
</linearGradient>
<linearGradient id="paint24_linear_1807_3948" x1="67.5" y1="38.75" x2="67.5" y2="41.25" gradientUnits="userSpaceOnUse">
<stop stop-color="#9747FF"/>
<stop offset="1" stop-color="#4B9ADB"/>
</linearGradient>
<linearGradient id="paint25_linear_1807_3948" x1="60.625" y1="42.5" x2="60.625" y2="45" gradientUnits="userSpaceOnUse">
<stop stop-color="#9747FF"/>
<stop offset="1" stop-color="#4B9ADB"/>
</linearGradient>
<linearGradient id="paint26_linear_1807_3948" x1="68.125" y1="42.5" x2="68.125" y2="45" gradientUnits="userSpaceOnUse">
<stop stop-color="#9747FF"/>
<stop offset="1" stop-color="#4B9ADB"/>
</linearGradient>
<linearGradient id="paint27_linear_1807_3948" x1="66.25" y1="46.25" x2="66.25" y2="48.75" gradientUnits="userSpaceOnUse">
<stop stop-color="#9747FF"/>
<stop offset="1" stop-color="#4B9ADB"/>
</linearGradient>
<linearGradient id="paint28_linear_1807_3948" x1="65" y1="50" x2="65" y2="52.5" gradientUnits="userSpaceOnUse">
<stop stop-color="#9747FF"/>
<stop offset="1" stop-color="#4B9ADB"/>
</linearGradient>
</defs>
</svg>
