<svg width="74" height="67" viewBox="0 0 74 67" fill="none" xmlns="http://www.w3.org/2000/svg">
<path d="M63.3395 40.8701C64.1688 35.561 63.349 30.1253 60.9909 25.297C58.6327 20.4686 54.8498 16.4801 50.1528 13.8701C50.1528 13.8001 50.1728 13.7367 50.1728 13.6667C50.1728 10.173 48.7849 6.82227 46.3144 4.35179C43.844 1.88131 40.4933 0.493408 36.9995 0.493408C33.5057 0.493408 30.155 1.88131 27.6845 4.35179C25.2141 6.82227 23.8262 10.173 23.8262 13.6667C23.8262 13.7334 23.8462 13.8001 23.8462 13.8667C19.1486 16.477 15.3652 20.466 13.0071 25.295C10.6489 30.1241 9.82947 35.5605 10.6595 40.8701C7.40401 41.6394 4.56397 43.6202 2.71726 46.4095C0.870559 49.1987 0.155953 52.5867 0.718858 55.8842C1.28176 59.1816 3.07988 62.1407 5.74733 64.1593C8.41477 66.178 11.7511 67.1044 15.0775 66.7502C18.4038 66.396 21.4702 64.7877 23.6527 62.2526C25.8353 59.7175 26.9699 56.4461 26.8257 53.104C26.6816 49.762 25.2695 46.6004 22.8768 44.2626C20.4842 41.9249 17.2907 40.5866 13.9462 40.5201C13.7608 39.3557 13.6628 38.1791 13.6528 37.0001C13.6538 33.0881 14.6416 29.2395 16.5247 25.8106C18.4078 22.3817 21.1255 19.4832 24.4262 17.3834C25.2132 20.1099 26.8651 22.5067 29.133 24.2125C31.4008 25.9183 34.1617 26.8407 36.9995 26.8407C39.8373 26.8407 42.5982 25.9183 44.866 24.2125C47.1339 22.5067 48.7858 20.1099 49.5728 17.3834C52.8735 19.4832 55.5912 22.3817 57.4743 25.8106C59.3574 29.2395 60.3452 33.0881 60.3462 37.0001C60.3362 38.1791 60.2381 39.3557 60.0528 40.5201C56.6959 40.5853 53.49 41.9273 51.0877 44.2729C48.6854 46.6186 47.2672 49.7915 47.1218 53.1458C46.9763 56.5002 48.1146 59.784 50.3049 62.3287C52.4952 64.8734 55.5729 66.4878 58.9116 66.8434C62.2503 67.1989 65.5989 66.2688 68.276 64.2424C70.9531 62.2161 72.7574 59.2457 73.3216 55.9359C73.8859 52.6261 73.1677 49.2257 71.3132 46.4268C69.4587 43.6279 66.6074 41.6408 63.3395 40.8701ZM23.4928 53.6667C23.4928 55.6103 22.9165 57.5102 21.8367 59.1261C20.757 60.7421 19.2223 62.0016 17.4267 62.7454C15.6311 63.4892 13.6553 63.6838 11.7491 63.3046C9.84289 62.9254 8.09194 61.9895 6.71766 60.6152C5.34338 59.241 4.40748 57.49 4.02831 55.5838C3.64915 53.6776 3.84375 51.7018 4.58751 49.9062C5.33126 48.1106 6.59077 46.5759 8.20676 45.4962C9.82275 44.4164 11.7226 43.8401 13.6662 43.8401C16.2715 43.8427 18.7695 44.8789 20.6117 46.7212C22.454 48.5634 23.4902 51.0614 23.4928 53.6667ZM36.9995 23.4934C35.056 23.4934 33.1561 22.9171 31.5401 21.8373C29.9241 20.7575 28.6646 19.2228 27.9208 17.4272C27.1771 15.6317 26.9825 13.6558 27.3616 11.7497C27.7408 9.84347 28.6767 8.09252 30.051 6.71824C31.4253 5.34395 33.1762 4.40806 35.0824 4.02889C36.9886 3.64973 38.9644 3.84433 40.76 4.58809C42.5556 5.33184 44.0903 6.59135 45.1701 8.20734C46.2498 9.82333 46.8262 11.7232 46.8262 13.6667C46.8235 16.2721 45.7874 18.77 43.9451 20.6123C42.1028 22.4546 39.6049 23.4908 36.9995 23.4934ZM60.3328 63.4934C58.3893 63.4934 56.4894 62.9171 54.8734 61.8373C53.2574 60.7575 51.9979 59.2228 51.2542 57.4272C50.5104 55.6317 50.3158 53.6558 50.695 51.7496C51.0741 49.8435 52.01 48.0925 53.3843 46.7182C54.7586 45.344 56.5095 44.4081 58.4157 44.0289C60.3219 43.6497 62.2977 43.8443 64.0933 44.5881C65.8889 45.3318 67.4236 46.5913 68.5034 48.2073C69.5832 49.8233 70.1595 51.7232 70.1595 53.6667C70.1568 56.2721 69.1207 58.77 67.2784 60.6123C65.4361 62.4546 62.9382 63.4908 60.3328 63.4934Z" fill="black"/>
</svg>
