<svg width="80" height="80" viewBox="0 0 80 80" fill="none" xmlns="http://www.w3.org/2000/svg">
<path fill-rule="evenodd" clip-rule="evenodd" d="M14.8787 28.3719C15.5944 28.6844 15.3834 29.711 15.3741 30.3813C16.2506 30.3563 17.1475 30.3282 18.0303 30.2969C20.0066 25.8223 23.3024 22.0579 27.4766 19.5076C31.6509 16.9573 36.5044 15.7427 41.3879 16.0263C46.2713 16.3099 50.9517 18.0781 54.8026 21.0945C58.6536 24.1108 61.4915 28.2314 62.9366 32.9047C63.5772 32.8938 64.21 32.8797 64.8303 32.8641L64.8709 30.4657C64.9033 30.2657 65.0058 30.0838 65.1602 29.9527C65.3145 29.8215 65.5106 29.7497 65.7131 29.75C65.0413 28.065 64.2038 26.4508 63.2131 24.9313C63.1228 24.7931 63.0747 24.6315 63.0747 24.4664C63.0747 24.3013 63.1228 24.1398 63.2131 24.0016L67.4319 16.8297L63.1241 12.5266L55.9366 16.7766C55.7927 16.8609 55.6273 16.9014 55.4608 16.8931C55.2943 16.8847 55.1338 16.828 54.9991 16.7297C52.1832 14.9126 49.0589 13.6253 45.7803 12.9313C45.6158 12.8965 45.4651 12.8141 45.3471 12.6943C45.229 12.5746 45.1487 12.4228 45.1162 12.2578L43.0147 4.21878H36.9209L34.8553 12.2532C34.8254 12.421 34.7461 12.5761 34.6275 12.6986C34.5089 12.821 34.3565 12.9053 34.1897 12.9407C30.8945 13.6443 27.7561 14.946 24.9303 16.7813C24.7918 16.8708 24.6304 16.9184 24.4655 16.9184C24.3005 16.9184 24.1391 16.8708 24.0006 16.7813L16.8287 12.5625L12.5256 16.875L16.7756 24.0625C16.8602 24.2062 16.9009 24.3715 16.8929 24.538C16.8848 24.7046 16.8283 24.8651 16.7303 25C16.035 26.076 15.4163 27.1996 14.8787 28.3625V28.3719ZM19.9616 30.2235C21.9041 26.2472 24.9858 22.9388 28.8143 20.7192C32.6429 18.4997 37.0452 17.4693 41.4611 17.7593C45.877 18.0493 50.1068 19.6466 53.6122 22.3478C57.1176 25.049 59.7401 28.732 61.1459 32.9282C58.4178 32.95 55.6772 32.9016 52.9225 32.6891C52.0235 32.6068 51.1306 32.4679 50.2491 32.2735C50.5165 31.8414 50.6772 31.3518 50.7178 30.8453C50.7632 30.3857 50.7151 29.9216 50.5766 29.481C50.438 29.0403 50.2118 28.6323 49.9116 28.2813C49.4772 27.7485 47.4397 27.3438 44.8772 27.0453C42.3237 26.7533 39.7566 26.5947 37.1866 26.5703C36.5616 26.5703 35.1553 26.9219 33.5709 27.4063C31.8037 27.9453 29.7725 28.6563 28.4147 29.2078C27.7106 29.477 26.9815 29.6753 26.2381 29.8C24.9256 29.9985 21.8631 30.1453 19.9616 30.2235ZM62.4819 48.4235C60.7207 53.1184 57.5339 57.1441 53.3686 59.936C49.2033 62.7278 44.2685 64.1457 39.2565 63.9906C34.2445 63.8355 29.4068 62.1152 25.4221 59.0712C21.4374 56.0272 18.5057 51.812 17.0381 47.0172C16.4428 46.9016 15.7975 46.8125 15.1631 46.7469L15.1381 49.0328C15.1381 49.625 14.6694 49.8922 14.1428 49.8922C14.8371 51.703 15.7196 53.4359 16.7756 55.0625C16.8652 55.201 16.9128 55.3624 16.9128 55.5274C16.9128 55.6923 16.8652 55.8537 16.7756 55.9922L12.5569 63.1641L16.8741 67.4735L24.0616 63.2235C24.2054 63.1391 24.3708 63.0987 24.5373 63.107C24.7038 63.1153 24.8643 63.1721 24.9991 63.2703C27.8149 65.0874 30.9392 66.3747 34.2178 67.0688C34.3823 67.1036 34.533 67.186 34.651 67.3057C34.7691 67.4254 34.8494 67.5772 34.8819 67.7422L36.9834 75.7813H43.0772L45.1444 67.7469C45.1744 67.5793 45.2537 67.4244 45.3723 67.3022C45.4909 67.18 45.6433 67.096 45.81 67.061C49.1052 66.3574 52.2435 65.0556 55.0694 63.2203C55.2086 63.1288 55.3715 63.08 55.5381 63.08C55.7047 63.08 55.8677 63.1288 56.0069 63.2203L63.1772 67.4391L67.4725 63.125L63.2225 55.9375C63.1382 55.7937 63.0977 55.6283 63.106 55.4618C63.1143 55.2952 63.1711 55.1348 63.2694 55C63.91 54.0625 64.7741 52.4141 65.2584 51.3313C65.0571 51.2821 64.8804 51.1616 64.7611 50.9921C64.6419 50.8225 64.5882 50.6155 64.61 50.4094L64.6366 48.2828C63.9022 48.311 63.1756 48.3594 62.4819 48.4391V48.4235ZM21.0756 51.7813C21.5522 51.8304 22.0337 51.7679 22.4819 51.5985C22.4178 52.6375 22.4819 53.5422 22.7225 54.0782C22.1267 53.3479 21.5777 52.5808 21.0787 51.7813H21.0756ZM23.6147 55.111C24.0222 55.482 24.5228 55.7353 25.0631 55.8438C26.0645 56.025 27.0971 55.8098 27.9428 55.2438C27.9944 55.5422 28.0553 55.8297 28.1272 56.1C28.3787 57.0375 29.2991 57.8797 30.5381 58.325C31.5109 58.6688 32.5556 58.7575 33.5725 58.5828C33.9239 58.9173 34.3905 59.1036 34.8756 59.1032C35.56 59.1032 36.9069 58.6516 38.1272 57.9688C38.8437 57.5796 39.5021 57.0921 40.0834 56.5203C41.26 57.0813 42.3678 57.4375 43.135 57.4391C44.5897 57.4391 45.5584 55.85 45.7241 54.4813C47.6897 55.8047 49.9631 55.2875 50.5787 52.8641C52.9397 54.4922 56.3397 53.2766 55.7647 50.3407C57.4069 50.6735 59.1803 50.3063 59.8912 48.9032C60.0881 48.8453 60.2959 48.7907 60.5162 48.7469C59.0554 52.1715 56.7603 55.1759 53.8402 57.4858C50.9202 59.7957 47.4683 61.3378 43.7994 61.9711C40.1304 62.6045 36.3613 62.3092 32.8358 61.112C29.3103 59.9147 26.1408 57.8538 23.6162 55.1172L23.6147 55.111ZM67.5537 29.7735L72.3303 29.8328C73.1116 29.8172 73.5616 29.9766 73.5537 30.6141L73.5037 34.5703L76.8194 35.4235C77.0095 35.4658 77.1796 35.5716 77.3014 35.7236C77.4233 35.8756 77.4897 36.0646 77.4897 36.2594V43.6438C77.4971 43.839 77.4376 44.0309 77.3211 44.1877C77.2046 44.3446 77.0381 44.457 76.8491 44.5063L73.3615 45.4094L73.3006 50.4844C73.3006 50.5972 73.2784 50.7089 73.2352 50.813C73.192 50.9172 73.1286 51.0118 73.0488 51.0915C72.969 51.1712 72.8742 51.2343 72.77 51.2774C72.6657 51.3204 72.554 51.3424 72.4412 51.3422H67.1162C66.5125 52.7867 65.7935 54.1802 64.9662 55.5094L69.2866 62.8235C69.3875 62.9929 69.427 63.192 69.3986 63.3871C69.3701 63.5823 69.2754 63.7617 69.1303 63.8953L63.9209 69.1125C63.7819 69.2524 63.599 69.3401 63.4029 69.3608C63.2068 69.3816 63.0096 69.3342 62.8444 69.2266L55.5584 64.9375C52.826 66.6464 49.8291 67.8903 46.6897 68.6188L44.5803 76.8203C44.5377 77.0102 44.4317 77.1799 44.2797 77.3015C44.1278 77.423 43.939 77.4892 43.7444 77.4891H36.36C36.1648 77.4965 35.9729 77.437 35.816 77.3205C35.6592 77.204 35.5468 77.0375 35.4975 76.8485L33.3678 68.6235C30.2283 67.8986 27.2301 66.66 24.4944 64.9578L17.1803 69.2797C17.0108 69.3806 16.8118 69.4202 16.6166 69.3917C16.4215 69.3633 16.242 69.2686 16.1084 69.1235L10.885 63.9157C10.7451 63.7767 10.6575 63.5937 10.6367 63.3976C10.6159 63.2016 10.6633 63.0043 10.7709 62.8391L15.06 55.5532C13.9462 53.7727 13.0289 51.8768 12.3241 49.8985H7.29905C7.18561 49.8981 7.07337 49.8752 6.96883 49.8311C6.8643 49.787 6.76954 49.7226 6.69005 49.6417C6.61056 49.5608 6.54792 49.4649 6.50575 49.3595C6.46358 49.2542 6.44271 49.1416 6.44437 49.0282L6.48968 45.4344L3.17874 44.5828C2.98858 44.5405 2.81854 44.4347 2.69667 44.2827C2.5748 44.1307 2.5084 43.9417 2.50843 43.7469V36.3625C2.50103 36.1673 2.5605 35.9754 2.67699 35.8186C2.79348 35.6617 2.96002 35.5494 3.14905 35.5L6.63187 34.5985L6.69749 29.1657C6.69749 29.0529 6.71973 28.9412 6.76294 28.837C6.80614 28.7328 6.86947 28.6382 6.94929 28.5585C7.02911 28.4789 7.12386 28.4157 7.22811 28.3727C7.33237 28.3297 7.44408 28.3076 7.55687 28.3078H13.0412C13.6131 26.9903 14.281 25.7165 15.0397 24.4969L10.7116 17.175C10.6106 17.0056 10.5711 16.8065 10.5995 16.6114C10.628 16.4162 10.7227 16.2368 10.8678 16.1032L16.0772 10.886C16.2162 10.7461 16.3991 10.6584 16.5952 10.6377C16.7913 10.6169 16.9885 10.6643 17.1537 10.7719L24.4397 15.061C27.1721 13.3521 30.169 12.1082 33.3084 11.3797L35.4194 3.17815C35.4617 2.98841 35.5674 2.81876 35.7191 2.69718C35.8707 2.5756 36.0593 2.50937 36.2537 2.5094H43.6381C43.8333 2.50201 44.0252 2.56147 44.1821 2.67796C44.3389 2.79446 44.4513 2.96099 44.5006 3.15003L46.6303 11.375C49.7695 12.1001 52.7676 13.338 55.5037 15.0391L62.8178 10.7188C62.9873 10.6179 63.1863 10.5783 63.3815 10.6068C63.5766 10.6352 63.7561 10.7299 63.8897 10.875L69.1069 16.0844C69.2467 16.2234 69.3344 16.4063 69.3552 16.6024C69.3759 16.7985 69.3285 16.9957 69.2209 17.161L64.9319 24.4469C65.9825 26.1289 66.8589 27.9137 67.5475 29.7735H67.5537ZM71.8319 31.5375L71.6037 49.6266H66.3303L66.5616 31.4719L71.835 31.5375H71.8319ZM73.4819 36.3328L73.3897 43.636L75.785 43.011V36.9172L73.4881 36.3266L73.4819 36.3328ZM20.2491 48.4469C20.4053 47.1313 20.5616 45.4953 21.3647 44.4141C21.7866 43.961 23.4053 44.7469 23.4944 45.7828C23.1585 46.9645 22.9043 48.1679 22.7334 49.3844C22.4662 50.1532 20.035 50.6969 20.2491 48.4469ZM13.4678 45.8703L13.4366 48.1797H8.16624L8.39437 30.0172H13.6678L13.4678 45.8703ZM15.1866 45.0328L15.3428 32.0938C18.1381 32.0141 24.2662 31.8313 26.4834 31.4985C27.3465 31.3539 28.193 31.123 29.01 30.8094C30.2444 30.2875 35.9491 28.2813 37.1866 28.2813C38.5053 28.2813 48.0991 28.8328 48.5928 29.375C49.2334 30.0782 49.1787 31.7953 48.0756 31.7547L47.2037 31.5313C43.5037 30.5782 40.7147 30.461 36.8334 30.5938C34.3037 30.6828 32.0287 30.9641 31.3303 31.4688C30.3741 32.1578 27.0241 34.2125 26.2397 34.4375C24.7272 34.8797 18.2319 36.8969 19.7459 39.8C20.9522 42.1157 25.8397 41.6875 28.2787 41.3875C30.3334 41.136 32.4147 39.5516 34.0678 39.1375C39.4366 37.7891 45.2334 38.9422 50.1319 41.325C51.5819 42.0282 55.7881 44.6641 57.2991 45.9735C57.9069 46.5016 59.1334 47.9688 57.8694 48.5532C57.3475 48.7953 56.5678 48.8235 55.6272 48.5391C54.0787 48.0703 52.0553 46.6641 50.7037 45.7485C48.8506 44.5016 47.0303 43.2813 45.4678 42.8828C45.2492 42.8335 45.0199 42.8717 44.8291 42.9892C44.6382 43.1067 44.501 43.2943 44.4467 43.5117C44.3923 43.7292 44.4253 43.9593 44.5385 44.1527C44.6516 44.3462 44.836 44.4877 45.0522 44.5469C46.3334 44.8594 48.0209 46.0094 49.7537 47.1782C50.9787 48.0047 52.2194 48.8438 53.4209 49.4625C55.1069 51.425 53.2084 52.5625 51.7709 51.6016C51.3256 51.3032 50.6287 50.7938 49.8319 50.211C47.6444 48.6125 44.7241 46.4735 43.2803 46.0563C43.0652 46.002 42.8374 46.0334 42.6449 46.1438C42.4524 46.2542 42.3104 46.435 42.2486 46.6481C42.1868 46.8612 42.2101 47.09 42.3137 47.2862C42.4173 47.4824 42.5929 47.6308 42.8037 47.7C44.2412 48.1157 47.5084 50.6375 48.8209 51.5938C49.3834 52.7891 47.8834 53.836 47.3991 53.5313C46.4834 52.9578 45.0178 51.8969 43.6491 50.9047C42.2287 49.875 40.9069 48.9188 40.2725 48.5703C40.0739 48.4699 39.8442 48.4506 39.6316 48.5164C39.4191 48.5823 39.2405 48.7281 39.1334 48.9231C39.0264 49.1182 38.9993 49.3472 39.0579 49.5618C39.1165 49.7764 39.2562 49.9599 39.4475 50.0735C40.8241 50.8297 42.3834 52.1047 43.7131 53.0657C44.4584 53.7985 43.7569 55.7297 43.1428 55.7219C41.8928 55.7219 39.2116 54.15 38.0366 53.2922C37.9878 52.9494 38.0053 52.6003 38.0881 52.2641C38.6241 50.2688 36.0256 49.3782 34.3084 49.7078C33.1756 47.8469 33.2225 45.7375 31.0584 45.2813C30.7591 45.2151 30.4486 45.2183 30.1507 45.2906C29.8528 45.3629 29.5754 45.5024 29.3397 45.6985C28.4881 44.4313 26.2991 43.9797 24.8866 44.4672C24.1053 42.9703 21.3131 41.4047 20.1162 43.25C19.6475 43.9391 19.0006 45.486 18.9366 45.75C17.8319 45.3688 16.3787 45.1516 15.1991 45.0344L15.1866 45.0328ZM24.2178 53.2719C23.7397 52.6469 24.8912 47.0922 25.1553 46.2735C25.4569 45.8282 28.5397 45.6078 28.0381 47.9922C27.7584 49.3282 27.6959 51.5235 27.7366 52.9125C27.0928 54.4203 25.2866 54.675 24.2194 53.2703L24.2178 53.2719ZM29.7881 55.6578C29.3303 53.9594 29.4444 50.1297 29.6694 48.4219C29.7272 48.0125 30.2162 46.8922 30.6803 46.9625C31.2819 47.0532 31.5756 47.7891 31.9116 48.6344C32.1556 49.3053 32.4567 49.954 32.8116 50.5735C32.31 51.3125 32.1569 53.9891 32.1569 54.8766C32.0381 54.8766 32.3506 56.7688 32.4116 56.9563C31.4225 56.9282 29.9897 56.4391 29.7787 55.6578H29.7881ZM36.3709 53.7672C36.4475 54.5828 37.8459 55.2688 38.4991 55.661C37.5819 56.4219 35.6553 57.3953 34.8787 57.3922C33.435 57.3922 34.0241 52.3407 34.2537 51.5125C34.3334 51.2594 35.6975 51.3016 36.2584 51.6469C36.5334 51.8157 36.2397 53.0719 36.3709 53.7672ZM60.0616 47.0875C59.8662 46.3172 59.3444 45.4875 58.4209 44.686C56.8006 43.2797 52.4537 40.5516 50.8787 39.7875C45.6303 37.2407 39.4147 36.0375 33.6522 37.486C31.8287 37.9438 29.7256 39.4938 28.0725 39.6969C26.3647 39.9063 22.5866 40.2047 21.4772 39.261C21.2272 39.0469 21.1975 38.9485 21.3709 38.7203C22.2397 37.5563 25.635 36.4063 26.7178 36.0938C28.8694 35.4688 30.6241 34.1 32.3319 32.8657C32.735 32.575 34.6537 32.3969 36.8881 32.3125C39.5741 32.2188 42.6209 32.3125 44.16 32.5782C44.86 32.6985 45.7694 32.9328 46.7834 33.1938C48.7209 33.6922 50.8991 34.2532 52.7959 34.4C56.7131 34.7032 60.9209 34.6735 64.8084 34.5766L64.6522 46.5594C63.1366 46.6125 61.4694 46.7563 60.0553 47.0875H60.0616ZM4.2178 36.9844V43.0782L6.50999 43.6672L6.60218 36.3657L4.2178 36.9844Z" fill="#393939"/>
</svg>
