<svg width="80" height="80" viewBox="0 0 80 80" fill="none" xmlns="http://www.w3.org/2000/svg">
<path d="M44.375 58.125C44.2092 58.125 44.0503 58.1908 43.9331 58.3081C43.8158 58.4253 43.75 58.5842 43.75 58.75C43.75 58.9158 43.8158 59.0747 43.9331 59.1919C44.0503 59.3092 44.2092 59.375 44.375 59.375H51.25C51.4158 59.375 51.5747 59.3092 51.6919 59.1919C51.8092 59.0747 51.875 58.9158 51.875 58.75C51.875 58.5842 51.8092 58.4253 51.6919 58.3081C51.5747 58.1908 51.4158 58.125 51.25 58.125H44.375Z" fill="#393939"/>
<path d="M13.75 23.75C13.9158 23.75 14.0747 23.6842 14.1919 23.5669C14.3092 23.4497 14.375 23.2908 14.375 23.125V5.25891L25.625 16.5089V22.6562C25.625 22.822 25.6908 22.981 25.8081 23.0982C25.9253 23.2154 26.0842 23.2812 26.25 23.2812C26.4158 23.2812 26.5747 23.2154 26.6919 23.0982C26.8092 22.981 26.875 22.822 26.875 22.6562V16.875H68.125V48.75C68.125 48.9158 68.1908 49.0747 68.3081 49.1919C68.4253 49.3092 68.5842 49.375 68.75 49.375C68.9158 49.375 69.0747 49.3092 69.1919 49.1919C69.3092 49.0747 69.375 48.9158 69.375 48.75V16.25C69.3751 16.1678 69.3589 16.0864 69.3275 16.0105C69.296 15.9346 69.2498 15.8657 69.1916 15.8077L56.6916 3.30766C56.5744 3.19069 56.4156 3.12499 56.25 3.125H13.75C13.5842 3.125 13.4253 3.19085 13.3081 3.30806C13.1908 3.42527 13.125 3.58424 13.125 3.75V23.125C13.125 23.2908 13.1908 23.4497 13.3081 23.5669C13.4253 23.6842 13.5842 23.75 13.75 23.75ZM55.625 4.375V5.625H56.875V5.25891L67.2411 15.625H56.875V15H55.625V15.625H26.5089L15.2589 4.375H55.625Z" fill="#393939"/>
<path d="M58.4492 49.3447L59.3329 48.4611L60.6585 49.7867L59.7748 50.6704L58.4492 49.3447Z" fill="#393939"/>
<path d="M61.0977 51.9961L61.9813 51.1125L63.3069 52.4381L62.4233 53.3217L61.0977 51.9961Z" fill="#393939"/>
<path d="M55.625 26.25H56.875V28.125H55.625V26.25Z" fill="#393939"/>
<path d="M55.625 18.75H56.875V20.625H55.625V18.75Z" fill="#393939"/>
<path d="M55.625 22.5H56.875V24.375H55.625V22.5Z" fill="#393939"/>
<path d="M55.625 30H56.875V31.875H55.625V30Z" fill="#393939"/>
<path d="M55.625 41.25H56.875V43.125H55.625V41.25Z" fill="#393939"/>
<path d="M55.625 46.875H55.9912L57.1339 48.0177L58.0177 47.1339L56.875 45.9912V45H55.625V46.875Z" fill="#393939"/>
<path d="M55.625 37.5H56.875V39.375H55.625V37.5Z" fill="#393939"/>
<path d="M55.625 33.75H56.875V35.625H55.625V33.75Z" fill="#393939"/>
<path d="M55.625 7.5H56.875V9.375H55.625V7.5Z" fill="#393939"/>
<path d="M55.625 11.25H56.875V13.125H55.625V11.25Z" fill="#393939"/>
<path d="M28.5433 72.5495C26.1321 72.9411 23.6928 73.1335 21.25 73.125C16.6452 73.125 12.3253 72.4878 9.08562 71.3308C6.09187 70.2616 4.375 68.8652 4.375 67.5V33.8381C5.3125 34.7545 6.76062 35.5778 8.66547 36.2581C12.0364 37.462 16.5058 38.125 21.25 38.125C25.9942 38.125 30.4636 37.462 33.8345 36.2581C35.7394 35.5781 37.1875 34.7545 38.125 33.8381V46.875C38.125 47.0408 38.1908 47.1997 38.3081 47.3169C38.4253 47.4342 38.5842 47.5 38.75 47.5C38.9158 47.5 39.0747 47.4342 39.1919 47.3169C39.3092 47.1997 39.375 47.0408 39.375 46.875V31.25C39.375 29.2969 37.4073 27.518 33.8345 26.2419C30.4636 25.038 25.9942 24.375 21.25 24.375C16.5058 24.375 12.0364 25.038 8.66547 26.2419C5.09266 27.518 3.125 29.2969 3.125 31.25V67.5C3.125 69.4531 5.09266 71.2319 8.66516 72.508C12.0363 73.7119 16.5056 74.375 21.25 74.375C23.7617 74.3836 26.2698 74.1854 28.7489 73.7825C28.9121 73.7549 29.0578 73.6637 29.1538 73.5289C29.2499 73.3941 29.2886 73.2267 29.2613 73.0634C29.2341 72.9001 29.1432 72.7543 29.0086 72.658C28.874 72.5616 28.7066 72.5226 28.5433 72.5495ZM9.08578 27.4191C12.3255 26.2622 16.6453 25.625 21.25 25.625C25.8547 25.625 30.1745 26.2622 33.4142 27.4191C36.408 28.4883 38.125 29.8847 38.125 31.25C38.125 32.6153 36.408 34.0117 33.4142 35.0809C30.3217 36.1852 26.2442 36.8153 21.875 36.8695V35H20.625V36.8695C16.2558 36.8145 12.1783 36.1852 9.08578 35.0809C6.09203 34.0117 4.375 32.6153 4.375 31.25C4.375 29.8847 6.09203 28.4883 9.08578 27.4191Z" fill="#393939"/>
<path d="M32.3839 62.0267C31.6183 61.8065 30.7963 61.6078 29.9416 61.436L29.6953 62.6617C30.5169 62.8267 31.3047 63.0173 32.0391 63.2281L32.3839 62.0267Z" fill="#393939"/>
<path d="M27.4705 61.0255C26.665 60.9177 25.8298 60.8302 24.9861 60.7656L24.8906 62.012C25.7102 62.0745 26.5222 62.1597 27.3042 62.2645L27.4705 61.0255Z" fill="#393939"/>
<path d="M10.4617 63.2279C11.1961 63.0171 11.9839 62.8265 12.8055 62.6617L12.5594 61.436C11.7053 61.6079 10.8836 61.8064 10.1172 62.0265L10.4617 63.2279Z" fill="#393939"/>
<path d="M6.13437 65.0903C6.78745 64.6635 7.48057 64.3014 8.20391 64.0092L7.72359 62.855C6.9244 63.179 6.15874 63.5802 5.4375 64.0529L6.13437 65.0903Z" fill="#393939"/>
<path d="M15.193 62.2655C15.9753 62.1608 16.7867 62.0758 17.6069 62.013L17.5109 60.7666C16.6684 60.8313 15.8328 60.9188 15.0273 61.0264L15.193 62.2655Z" fill="#393939"/>
<path d="M20.625 31.25H21.875V33.125H20.625V31.25Z" fill="#393939"/>
<path d="M22.5 66.875H24.375V68.125H22.5V66.875Z" fill="#393939"/>
<path d="M20.625 50H21.875V51.875H20.625V50Z" fill="#393939"/>
<path d="M20.625 53.75H21.875V55.625H20.625V53.75Z" fill="#393939"/>
<path d="M20.625 57.5H21.875V59.375H20.625V57.5Z" fill="#393939"/>
<path d="M30 66.875H31.875V68.125H30V66.875Z" fill="#393939"/>
<path d="M20.625 46.25H21.875V48.125H20.625V46.25Z" fill="#393939"/>
<path d="M20.625 38.75H21.875V40.625H20.625V38.75Z" fill="#393939"/>
<path d="M20.625 65H21.875V66.875H20.625V65Z" fill="#393939"/>
<path d="M21.8758 61.883C22.0725 61.8855 22.2697 61.8854 22.4656 61.8904L22.4969 60.6404C21.6688 60.6199 20.832 60.6199 20.0039 60.6404L20.0352 61.8904C20.2316 61.8854 20.4294 61.8855 20.6266 61.883V63.1252H21.8766L21.8758 61.883Z" fill="#393939"/>
<path d="M20.625 42.5H21.875V44.375H20.625V42.5Z" fill="#393939"/>
<path d="M26.25 66.875H28.125V68.125H26.25V66.875Z" fill="#393939"/>
<path d="M47.8398 35.625C48.2107 35.625 48.5732 35.515 48.8815 35.309C49.1899 35.103 49.4302 34.8101 49.5721 34.4675C49.714 34.1249 49.7512 33.7479 49.6788 33.3842C49.6065 33.0205 49.4279 32.6864 49.1657 32.4242C48.9034 32.162 48.5694 31.9834 48.2056 31.911C47.8419 31.8387 47.4649 31.8758 47.1223 32.0177C46.7797 32.1596 46.4869 32.4 46.2808 32.7083C46.0748 33.0166 45.9648 33.3792 45.9648 33.75C45.9654 34.2471 46.1631 34.7237 46.5146 35.0752C46.8661 35.4267 47.3427 35.6245 47.8398 35.625ZM47.8398 33.125C47.9635 33.125 48.0843 33.1617 48.1871 33.2303C48.2899 33.299 48.37 33.3966 48.4173 33.5108C48.4646 33.625 48.4769 33.7507 48.4528 33.8719C48.4287 33.9932 48.3692 34.1045 48.2818 34.1919C48.1944 34.2794 48.083 34.3389 47.9618 34.363C47.8405 34.3871 47.7149 34.3747 47.6007 34.3274C47.4865 34.2801 47.3889 34.2 47.3202 34.0972C47.2515 33.9945 47.2148 33.8736 47.2148 33.75C47.2148 33.5842 47.2807 33.4253 47.3979 33.3081C47.5151 33.1908 47.6741 33.125 47.8398 33.125Z" fill="#393939"/>
<path d="M39.9101 65.9375L47.8368 44.1562L53.5774 59.9277C53.6055 60.0048 53.6485 60.0756 53.7039 60.1362C53.7594 60.1967 53.8262 60.2457 53.9006 60.2804C53.975 60.3151 54.0555 60.3348 54.1375 60.3383C54.2195 60.3419 54.3014 60.3293 54.3785 60.3013C54.4556 60.2732 54.5265 60.2302 54.587 60.1747C54.6475 60.1193 54.6965 60.0525 54.7312 59.9781C54.7659 59.9037 54.7856 59.8232 54.7892 59.7412C54.7928 59.6592 54.7802 59.5773 54.7521 59.5002L46.9379 38.0312C47.5767 38.1655 48.2375 38.155 48.8716 38.0003C49.5058 37.8456 50.0972 37.5507 50.6024 37.1373L57.8152 56.9531C57.8719 57.1089 57.9882 57.2358 58.1384 57.3058C58.2886 57.3759 58.4606 57.3834 58.6163 57.3267C58.7721 57.27 58.899 57.1538 58.969 57.0035C59.0391 56.8533 59.0466 56.6814 58.9899 56.5256L51.544 36.0702C52.1411 35.1191 52.3489 33.9746 52.124 32.8744C51.8992 31.7742 51.2591 30.8029 50.3368 30.1623V26.25C50.3368 26.0842 50.2709 25.9253 50.1537 25.8081C50.0365 25.6908 49.8776 25.625 49.7118 25.625V23.75C49.7118 23.2527 49.5143 22.7758 49.1626 22.4242C48.811 22.0725 48.3341 21.875 47.8368 21.875C47.3395 21.875 46.8626 22.0725 46.511 22.4242C46.1593 22.7758 45.9618 23.2527 45.9618 23.75V25.625C45.796 25.625 45.6371 25.6908 45.5199 25.8081C45.4026 25.9253 45.3368 26.0842 45.3368 26.25V30.1631C44.415 30.8037 43.7753 31.7747 43.5506 32.8746C43.3258 33.9744 43.5333 35.1185 44.1299 36.0694L30.0885 74.6475C30.0377 74.787 30.0382 74.9399 30.0899 75.0791C30.1416 75.2182 30.2411 75.3344 30.3707 75.4068C30.5002 75.4793 30.6513 75.5033 30.7969 75.4745C30.9425 75.4458 31.0731 75.3661 31.1654 75.2498L35.9245 69.2531C36.8227 69.1024 37.6649 68.7161 38.3651 68.1336C39.0653 67.5512 39.5984 66.7933 39.9101 65.9375ZM46.5868 26.875C46.7526 26.875 46.9115 26.8092 47.0287 26.6919C47.1459 26.5747 47.2118 26.4158 47.2118 26.25V23.75C47.2118 23.5842 47.2776 23.4253 47.3949 23.3081C47.5121 23.1908 47.671 23.125 47.8368 23.125C48.0026 23.125 48.1615 23.1908 48.2787 23.3081C48.3959 23.4253 48.4618 23.5842 48.4618 23.75V26.25C48.4618 26.4158 48.5276 26.5747 48.6449 26.6919C48.7621 26.8092 48.921 26.875 49.0868 26.875V29.5577C48.2713 29.3138 47.4023 29.3138 46.5868 29.5577V26.875ZM47.8368 30.625C48.313 30.6248 48.7829 30.7333 49.2107 30.9424C49.6385 31.1515 50.0128 31.4556 50.3052 31.8315C50.5975 32.2073 50.8001 32.645 50.8974 33.1111C50.9948 33.5772 50.9843 34.0594 50.8668 34.5209C50.7494 34.9823 50.528 35.4108 50.2197 35.7737C49.9113 36.1365 49.5241 36.4241 49.0877 36.6144C48.6512 36.8048 48.177 36.8929 47.7013 36.872C47.2256 36.8511 46.761 36.7218 46.3429 36.4939C46.2556 36.3805 46.132 36.3004 45.9927 36.2672C45.4606 35.8787 45.0651 35.3319 44.8627 34.7049C44.6604 34.0779 44.6616 33.403 44.8663 32.7767C45.0709 32.1505 45.4685 31.6051 46.002 31.2186C46.5355 30.8321 47.1777 30.6243 47.8365 30.625H47.8368ZM37.4871 67.2361C36.9195 67.6847 36.2379 67.9658 35.5191 68.0478C35.4375 68.0571 35.3585 68.0825 35.2866 68.1224C35.2148 68.1623 35.1515 68.2159 35.1004 68.2803L32.5805 71.4556L45.0715 37.1369C45.1652 37.2131 45.2617 37.2855 45.361 37.3541L47.1712 42.3281L38.7352 65.5102C38.4877 66.1903 38.0555 66.788 37.4871 67.2361Z" fill="#393939"/>
<path d="M52.0355 70.196C52.0767 70.3209 52.1563 70.4296 52.2629 70.5066C52.3695 70.5836 52.4977 70.625 52.6292 70.6249H71.2483C71.414 70.6249 71.573 70.5591 71.6902 70.4419C71.8074 70.3247 71.8733 70.1657 71.8733 69.9999V56.1856C71.8733 56.0698 71.8411 55.9562 71.7803 55.8576C71.7196 55.759 71.6326 55.6793 71.5292 55.6272C71.4257 55.5752 71.3099 55.5529 71.1945 55.5629C71.0791 55.5728 70.9688 55.6147 70.8758 55.6837L52.2564 69.4981C52.1509 69.5764 52.0727 69.686 52.033 69.8113C51.9934 69.9366 51.9942 70.0712 52.0355 70.196ZM70.6233 57.4274V69.3749H54.5202L70.6233 57.4274Z" fill="#393939"/>
<path d="M76.5309 45.6917C76.4275 45.6397 76.3116 45.6174 76.1962 45.6273C76.0809 45.6373 75.9705 45.6791 75.8775 45.7481L37.1275 74.4981C37.022 74.5764 36.9438 74.686 36.9042 74.8113C36.8645 74.9366 36.8653 75.0712 36.9065 75.196C36.9477 75.3208 37.0272 75.4294 37.1337 75.5064C37.2402 75.5834 37.3683 75.6249 37.4997 75.625H76.2497C76.4155 75.625 76.5744 75.5591 76.6916 75.4419C76.8089 75.3247 76.8747 75.1658 76.8747 75V46.25C76.8747 46.1342 76.8426 46.0207 76.7819 45.9222C76.7212 45.8236 76.6343 45.7438 76.5309 45.6917ZM75.6247 74.375H39.3903L75.6247 47.4919V74.375Z" fill="#393939"/>
</svg>
