<svg width="80" height="80" viewBox="0 0 80 80" fill="none" xmlns="http://www.w3.org/2000/svg">
<path d="M4.9987 41.3333C3.9987 41.3333 3.33203 40.6667 3.33203 40C3.33203 20 19.6654 4 39.332 4C40.332 4 40.9987 4.66667 40.9987 5.33333C40.9987 6.33333 40.332 7 39.332 7C20.9987 7 6.33203 22 6.33203 40C6.33203 40.6667 5.66536 41.3333 4.9987 41.3333Z" fill="url(#paint0_linear_1782_3044)"/>
<path d="M39.3307 76C38.3307 76 37.6641 75.3333 37.6641 74.3333C37.6641 73.6667 38.3307 72.6667 39.3307 72.6667C57.6641 72.6667 72.3307 58 72.3307 39.6667C72.3307 38.6667 72.9974 38 73.9974 38C74.9974 38 75.6641 38.6667 75.6641 39.6667C75.3307 59.6667 59.3307 76 39.3307 76Z" fill="url(#paint1_linear_1782_3044)"/>
<path d="M34.6641 11.3335C34.3307 11.3335 33.9974 11.3335 33.6641 11.0002C32.9974 10.3335 32.9974 9.3335 33.6641 9.00016L38.3307 4.3335C38.9974 3.66683 39.9974 3.66683 40.3307 4.3335C40.9974 5.00016 40.9974 6.00016 40.3307 6.3335L35.6641 11.0002C35.6641 11.3335 34.9974 11.3335 34.6641 11.3335Z" fill="url(#paint2_linear_1782_3044)"/>
<path d="M39.332 76C38.9987 76 38.6654 76 38.332 75.6667C37.6654 75 37.6654 74 38.332 73.6667L42.9987 69C43.6654 68.3333 44.332 68.3333 44.9987 69C45.6654 69.6667 45.6654 70.6667 44.9987 71.3333L40.332 76C40.332 75.6667 39.6654 76 39.332 76Z" fill="url(#paint3_linear_1782_3044)"/>
<path d="M41.9991 62.6668H36.6658C34.9991 62.6668 33.9991 61.6668 33.3324 60.3335L32.6658 57.3335C30.6658 56.6668 28.9991 55.6668 27.6658 54.3335L24.6658 55.0002C23.3324 55.3335 21.6658 55.0002 20.9991 53.3335L18.3324 49.0002C17.6658 47.6668 17.6658 46.0002 18.9991 45.0002L20.9991 43.0002C20.6658 41.0002 20.6658 39.0002 20.9991 37.0002L18.9991 35.0002C17.9991 34.0002 17.6658 32.3335 18.3324 31.0002L20.9991 26.3335C21.9991 25.0002 23.3324 24.3335 24.9991 24.6668L27.9991 25.6668C28.6658 25.0002 29.6658 24.3335 30.3324 24.0002C31.3324 23.6668 31.9991 23.0002 32.9991 22.6668L33.6658 19.6668C33.9991 18.3335 35.3324 17.3335 36.9991 17.3335H42.3324C43.9991 17.3335 44.9991 18.3335 45.3324 19.6668L45.9991 22.6668C47.9991 23.3335 49.6658 24.3335 50.9991 25.6668L53.9991 24.6668C55.3324 24.3335 56.9991 25.0002 57.6658 26.3335L60.3324 31.0002C60.9991 32.3335 60.6658 34.0002 59.6658 35.0002L57.3324 37.0002C57.6658 39.0002 57.6658 41.0002 57.3324 43.0002L59.6658 45.0002C60.6658 46.0002 60.9991 47.6668 60.3324 49.0002L57.6658 53.3335C56.9991 54.6668 55.3324 55.3335 53.9991 55.0002L50.9991 54.3335C50.3324 55.0002 49.3324 55.6668 48.6658 56.0002C47.9991 56.3335 46.9991 57.0002 45.9991 57.3335L44.9991 60.0002C44.9991 61.6668 43.6658 62.6668 41.9991 62.6668ZM27.9991 51.0002C28.3324 51.0002 28.6658 51.0002 28.9991 51.3335C30.6658 52.6668 32.3324 53.6668 34.3324 54.6668C34.6658 55.0002 35.3324 55.0002 35.3324 55.6668L36.3324 59.3335C36.3324 59.3335 36.3324 59.6668 36.6658 59.6668H41.9991C41.9991 59.6668 42.3324 59.6668 42.3324 59.3335L43.3324 55.6668C43.3324 55.0002 43.9991 54.6668 44.3324 54.6668C45.3324 54.3335 46.3324 53.6668 47.3324 53.3335C48.3324 52.6668 48.9991 52.0002 49.9991 51.3335C50.3324 51.0002 50.9991 50.6668 51.3324 51.0002L54.9991 52.0002H55.3324L57.9991 47.3335V47.0002L55.3324 44.3335C54.9991 44.0002 54.6658 43.3335 54.9991 43.0002C55.3324 41.0002 55.3324 38.6668 54.9991 36.6668C54.9991 36.3335 54.9991 35.6668 55.3324 35.3335L57.9991 32.6668C57.9991 32.6668 57.9991 32.6668 57.9991 32.3335L55.3324 27.6668H54.9991L51.3324 28.6668C50.6658 28.6668 50.3324 28.6668 49.9991 28.3335C48.3324 27.0002 46.6658 25.6668 44.6658 25.0002C44.3324 25.0002 43.6658 24.3335 43.6658 24.0002L42.6658 20.3335C42.6658 20.3335 42.6658 20.3335 42.3324 20.3335H36.6658H36.3324L35.3324 24.0002C35.3324 24.3335 34.9991 25.0002 34.3324 25.0002C33.6658 25.6668 32.6658 26.0002 31.6658 26.6668C30.6658 27.0002 29.9991 27.6668 28.9991 28.6668C28.6658 28.6668 28.3324 29.0002 27.6658 28.6668L23.9991 27.6668H23.6658L20.9991 32.3335V32.6668L23.6658 35.3335C23.9991 35.6668 24.3324 36.3335 23.9991 36.6668C23.6658 38.6668 23.6658 41.0002 23.9991 43.0002C23.9991 43.6668 23.9991 44.0002 23.6658 44.3335L20.9991 47.0002V47.3335L23.6658 52.0002H23.9991L27.6658 51.0002H27.9991Z" fill="url(#paint4_linear_1782_3044)"/>
<path d="M39.3307 51.6668C32.9974 51.6668 27.6641 46.3335 27.6641 40.0002C27.6641 33.6668 32.9974 28.3335 39.3307 28.3335C45.6641 28.3335 50.9974 33.6668 50.9974 40.0002C50.9974 46.3335 45.6641 51.6668 39.3307 51.6668ZM39.3307 31.3335C34.6641 31.3335 30.6641 35.3335 30.6641 40.0002C30.6641 44.6668 34.6641 48.6668 39.3307 48.6668C43.9974 48.6668 47.9974 44.6668 47.9974 40.0002C47.9974 35.0002 44.3307 31.3335 39.3307 31.3335Z" fill="url(#paint5_linear_1782_3044)"/>
<path d="M39.33 41.3336C38.9967 41.3336 38.6633 41.3336 38.6633 41.0003L29.9967 36.0003C29.33 35.667 28.9967 34.667 29.33 34.0003C29.6633 33.3336 30.6633 33.0003 31.33 33.3336L39.33 38.0003L47.33 33.3336C47.9967 33.0003 48.9967 33.0003 49.33 34.0003C49.6633 34.667 49.6633 35.667 48.6633 36.0003L39.9967 41.3336C39.9967 41.3336 39.6633 41.3336 39.33 41.3336Z" fill="url(#paint6_linear_1782_3044)"/>
<path d="M39.3307 51.6672C38.3307 51.6672 37.6641 51.0005 37.6641 50.0005V39.6672C37.6641 38.6672 38.3307 38.0005 39.3307 38.0005C40.3307 38.0005 40.9974 38.6672 40.9974 39.6672V50.0005C40.9974 51.0005 40.3307 51.6672 39.3307 51.6672Z" fill="url(#paint7_linear_1782_3044)"/>
<defs>
<linearGradient id="paint0_linear_1782_3044" x1="22.1654" y1="4" x2="22.1654" y2="41.3333" gradientUnits="userSpaceOnUse">
<stop stop-color="#9747FF"/>
<stop offset="1" stop-color="#4B9ADB"/>
</linearGradient>
<linearGradient id="paint1_linear_1782_3044" x1="56.6641" y1="38" x2="56.6641" y2="76" gradientUnits="userSpaceOnUse">
<stop stop-color="#9747FF"/>
<stop offset="1" stop-color="#4B9ADB"/>
</linearGradient>
<linearGradient id="paint2_linear_1782_3044" x1="36.9974" y1="3.8335" x2="36.9974" y2="11.3335" gradientUnits="userSpaceOnUse">
<stop stop-color="#9747FF"/>
<stop offset="1" stop-color="#4B9ADB"/>
</linearGradient>
<linearGradient id="paint3_linear_1782_3044" x1="41.6654" y1="68.5" x2="41.6654" y2="76" gradientUnits="userSpaceOnUse">
<stop stop-color="#9747FF"/>
<stop offset="1" stop-color="#4B9ADB"/>
</linearGradient>
<linearGradient id="paint4_linear_1782_3044" x1="39.2869" y1="17.3335" x2="39.2869" y2="62.6668" gradientUnits="userSpaceOnUse">
<stop stop-color="#9747FF"/>
<stop offset="1" stop-color="#4B9ADB"/>
</linearGradient>
<linearGradient id="paint5_linear_1782_3044" x1="39.3307" y1="28.3335" x2="39.3307" y2="51.6668" gradientUnits="userSpaceOnUse">
<stop stop-color="#9747FF"/>
<stop offset="1" stop-color="#4B9ADB"/>
</linearGradient>
<linearGradient id="paint6_linear_1782_3044" x1="39.3643" y1="33.1343" x2="39.3643" y2="41.3336" gradientUnits="userSpaceOnUse">
<stop stop-color="#9747FF"/>
<stop offset="1" stop-color="#4B9ADB"/>
</linearGradient>
<linearGradient id="paint7_linear_1782_3044" x1="39.3307" y1="38.0005" x2="39.3307" y2="51.6672" gradientUnits="userSpaceOnUse">
<stop stop-color="#9747FF"/>
<stop offset="1" stop-color="#4B9ADB"/>
</linearGradient>
</defs>
</svg>
