<svg width="80" height="80" viewBox="0 0 80 80" fill="none" xmlns="http://www.w3.org/2000/svg">
<g clip-path="url(#clip0_1786_3466)">
<path d="M74.6667 16H66.6667V12C66.6667 10.5855 66.1048 9.22896 65.1046 8.22876C64.1044 7.22857 62.7478 6.66667 61.3333 6.66667H32.88C31.8193 6.66495 30.802 6.24474 30.0493 5.49733L26.5027 1.95067C25.2488 0.704979 23.5542 0.004051 21.7867 0L5.33333 0C3.91885 0 2.56229 0.561903 1.5621 1.5621C0.561903 2.56229 0 3.91885 0 5.33333L0 58.6667C0.00211791 60.7878 0.845653 62.8214 2.34548 64.3212C3.84532 65.821 5.87892 66.6646 8 66.6667H22.6667V76C22.6667 77.0609 23.0881 78.0783 23.8382 78.8284C24.5884 79.5786 25.6058 80 26.6667 80H66.6667C67.7275 80 68.7449 79.5786 69.4951 78.8284C70.2452 78.0783 70.6667 77.0609 70.6667 76V66.6667H72C74.1211 66.6646 76.1547 65.821 77.6545 64.3212C79.1544 62.8214 79.9979 60.7878 80 58.6667V21.3333C80 19.9188 79.4381 18.5623 78.4379 17.5621C77.4377 16.5619 76.0812 16 74.6667 16ZM13.3333 58.6667C13.3333 60.0812 12.7714 61.4377 11.7712 62.4379C10.771 63.4381 9.41449 64 8 64C6.58551 64 5.22896 63.4381 4.22876 62.4379C3.22857 61.4377 2.66667 60.0812 2.66667 58.6667V5.33333C2.66667 4.62609 2.94762 3.94781 3.44772 3.44772C3.94781 2.94762 4.62609 2.66667 5.33333 2.66667H21.7867C22.8474 2.66839 23.8646 3.0886 24.6173 3.836L28.164 7.38267C29.4179 8.62836 31.1125 9.32928 32.88 9.33333H61.3333C62.0406 9.33333 62.7189 9.61429 63.219 10.1144C63.7191 10.6145 64 11.2928 64 12V16H18.6667C17.2522 16 15.8956 16.5619 14.8954 17.5621C13.8952 18.5623 13.3333 19.9188 13.3333 21.3333V58.6667ZM68 76C68 76.3536 67.8595 76.6928 67.6095 76.9428C67.3594 77.1929 67.0203 77.3333 66.6667 77.3333H26.6667C26.313 77.3333 25.9739 77.1929 25.7239 76.9428C25.4738 76.6928 25.3333 76.3536 25.3333 76V34.6667C25.3333 34.313 25.4738 33.9739 25.7239 33.7239C25.9739 33.4738 26.313 33.3333 26.6667 33.3333H37.3333V49.3333C37.3332 49.729 37.4504 50.1159 37.6701 50.4449C37.8899 50.774 38.2023 51.0305 38.5678 51.1819C38.9334 51.3334 39.3357 51.373 39.7238 51.2958C40.1118 51.2185 40.4683 51.0279 40.748 50.748L42.6667 48.828L45.252 51.4147C45.4377 51.6005 45.6583 51.748 45.901 51.8485C46.1437 51.9491 46.4039 52.0009 46.6667 52.0009C46.9294 52.0009 47.1896 51.9491 47.4323 51.8485C47.6751 51.748 47.8956 51.6005 48.0813 51.4147L50.6667 48.828L52.5853 50.748C52.865 51.0279 53.2215 51.2185 53.6096 51.2958C53.9977 51.373 54.3999 51.3334 54.7655 51.1819C55.1311 51.0305 55.4435 50.774 55.6632 50.4449C55.883 50.1159 56.0002 49.729 56 49.3333V33.3333H66.6667C67.0203 33.3333 67.3594 33.4738 67.6095 33.7239C67.8595 33.9739 68 34.313 68 34.6667V76ZM53.3333 33.3333V47.724L52.0813 46.472C51.8956 46.2861 51.6751 46.1387 51.4323 46.0381C51.1896 45.9375 50.9294 45.8858 50.6667 45.8858C50.4039 45.8858 50.1437 45.9375 49.901 46.0381C49.6583 46.1387 49.4377 46.2861 49.252 46.472L46.6667 49.0573L44.0813 46.472C43.8956 46.2861 43.6751 46.1387 43.4323 46.0381C43.1896 45.9375 42.9294 45.8858 42.6667 45.8858C42.4039 45.8858 42.1437 45.9375 41.901 46.0381C41.6583 46.1387 41.4377 46.2861 41.252 46.472L40 47.724V33.3333H53.3333ZM77.3333 58.6667C77.3333 60.0812 76.7714 61.4377 75.7712 62.4379C74.771 63.4381 73.4145 64 72 64H70.6667V34.6667C70.6667 33.6058 70.2452 32.5884 69.4951 31.8382C68.7449 31.0881 67.7275 30.6667 66.6667 30.6667H26.6667C25.6058 30.6667 24.5884 31.0881 23.8382 31.8382C23.0881 32.5884 22.6667 33.6058 22.6667 34.6667V64H13.972C15.2812 62.5323 16.0033 60.6334 16 58.6667V21.3333C16 20.6261 16.281 19.9478 16.781 19.4477C17.2811 18.9476 17.9594 18.6667 18.6667 18.6667H74.6667C75.3739 18.6667 76.0522 18.9476 76.5523 19.4477C77.0524 19.9478 77.3333 20.6261 77.3333 21.3333V58.6667Z" fill="#393939"/>
<path d="M44 58.6665H30.6667C29.9594 58.6665 29.2811 58.9475 28.781 59.4476C28.281 59.9476 28 60.6259 28 61.3332V71.9998C28 72.7071 28.281 73.3854 28.781 73.8855C29.2811 74.3856 29.9594 74.6665 30.6667 74.6665H44C44.7072 74.6665 45.3855 74.3856 45.8856 73.8855C46.3857 73.3854 46.6667 72.7071 46.6667 71.9998V61.3332C46.6667 60.6259 46.3857 59.9476 45.8856 59.4476C45.3855 58.9475 44.7072 58.6665 44 58.6665ZM30.6667 71.9998V61.3332H44V71.9998H30.6667Z" fill="#393939"/>
<path d="M34.6654 64C34.3117 64 33.9726 64.1405 33.7226 64.3905C33.4725 64.6406 33.332 64.9797 33.332 65.3333V68C33.332 68.3536 33.4725 68.6928 33.7226 68.9428C33.9726 69.1929 34.3117 69.3333 34.6654 69.3333C35.019 69.3333 35.3581 69.1929 35.6082 68.9428C35.8582 68.6928 35.9987 68.3536 35.9987 68V65.3333C35.9987 64.9797 35.8582 64.6406 35.6082 64.3905C35.3581 64.1405 35.019 64 34.6654 64Z" fill="#393939"/>
<path d="M40.0013 64C39.6477 64 39.3085 64.1405 39.0585 64.3905C38.8084 64.6406 38.668 64.9797 38.668 65.3333V68C38.668 68.3536 38.8084 68.6928 39.0585 68.9428C39.3085 69.1929 39.6477 69.3333 40.0013 69.3333C40.3549 69.3333 40.6941 69.1929 40.9441 68.9428C41.1942 68.6928 41.3346 68.3536 41.3346 68V65.3333C41.3346 64.9797 41.1942 64.6406 40.9441 64.3905C40.6941 64.1405 40.3549 64 40.0013 64Z" fill="#393939"/>
</g>
<defs>
<clipPath id="clip0_1786_3466">
<rect width="80" height="80" fill="white"/>
</clipPath>
</defs>
</svg>
