<svg width="80" height="80" viewBox="0 0 80 80" fill="none" xmlns="http://www.w3.org/2000/svg">
<path fill-rule="evenodd" clip-rule="evenodd" d="M28.8148 54.8047C28.174 54.4999 27.5455 54.1689 26.9302 53.8127L22.8272 55.6301C22.353 55.8403 21.7983 55.7369 21.4316 55.3701L15.9003 49.8388C15.5331 49.4716 15.43 48.9162 15.641 48.4417L17.464 44.3418C16.3019 42.3471 15.4146 40.2014 14.8173 37.9681L10.6322 36.3574C10.1478 36.1709 9.82812 35.7054 9.82812 35.1863V27.3621C9.82812 26.8429 10.1478 26.3774 10.6322 26.1909L14.8168 24.5805C15.4142 22.3414 16.3017 20.1998 17.4644 18.1996L15.641 14.0988C15.43 13.6243 15.5331 13.0688 15.9003 12.7016L21.4316 7.1703C21.7988 6.80309 22.3542 6.70003 22.8288 6.91101L26.9296 8.73438C28.9296 7.57187 31.0706 6.68481 33.3037 6.09312L34.9213 1.90128C35.108 1.41736 35.5734 1.09814 36.0921 1.09814H43.9163C44.4357 1.09814 44.9014 1.41814 45.0876 1.90301L46.6976 6.09344C48.9304 6.68513 51.0711 7.57203 53.0708 8.73438L57.1717 6.91101C57.6462 6.70003 58.2016 6.80309 58.5688 7.1703L64.1001 12.7016C64.4669 13.0683 64.5702 13.623 64.36 14.0972L62.5433 18.1987C63.7064 20.1993 64.5936 22.3416 65.1855 24.5811L69.3682 26.1909C69.8526 26.3774 70.1723 26.8429 70.1723 27.3621V35.1863C70.1723 35.7054 69.8526 36.1709 69.3682 36.3574L65.1848 37.9673C64.5922 40.2 63.7003 42.3407 62.5426 44.3402L64.36 48.4432C64.5702 48.9174 64.4669 49.4721 64.1001 49.8388L58.5688 55.3701C58.2021 55.7369 57.6474 55.8403 57.1732 55.6301L53.0727 53.8138C52.4579 54.172 51.8286 54.5041 51.187 54.8094L51.8768 56.9799H54.971C56.6549 56.9799 58.0325 58.3573 58.0325 60.0414C58.0325 61.7253 56.6549 63.103 54.971 63.103H53.8228L54.9136 66.535C54.9716 66.7174 54.9872 66.9107 54.9589 67.0999L53.5756 76.3923H66.083C66.7756 76.3923 67.3379 76.9546 67.3379 77.6472C67.3379 78.3397 66.7756 78.9021 66.083 78.9021H13.7153C13.0228 78.9021 12.4604 78.3397 12.4604 77.6472C12.4604 76.9546 13.0228 76.3923 13.7153 76.3923H26.4247L25.0413 67.0999C25.0131 66.9107 25.0286 66.7174 25.0865 66.535L26.1773 63.103H25.0292C23.3453 63.103 21.9679 61.7253 21.9679 60.0414C21.9679 58.3573 23.3453 56.9799 25.0292 56.9799H28.1233L28.8148 54.8047ZM50.4189 52.3926C51.07 52.0709 51.7064 51.7181 52.3254 51.3353C52.6777 51.1174 53.1149 51.0875 53.4935 51.2552L57.4027 52.9868L61.7167 48.6727L59.9851 44.7636C59.8182 44.3865 59.8471 43.9515 60.0625 43.5998C61.3643 41.4752 62.3298 39.1637 62.9058 36.7399C63.0016 36.3372 63.2898 36.0075 63.676 35.8589L67.6625 34.3247V28.2238L63.676 26.6895C63.2895 26.5407 63.0011 26.2108 62.9056 25.8076C62.3299 23.3775 61.3727 21.0669 60.0642 18.9433C59.8473 18.5913 59.8178 18.1549 59.9851 17.7769L61.7167 13.8677L57.4037 9.55462L53.4953 11.2923C53.1167 11.4607 52.6796 11.4313 52.3271 11.2141C50.2033 9.90552 47.8927 8.94818 45.4698 8.3725C45.0669 8.27665 44.7371 7.98834 44.5886 7.60167L43.054 3.60795H36.9528L35.4112 7.6034C35.2623 7.98913 34.9329 8.27681 34.5306 8.3725C32.1077 8.94818 29.7971 9.90552 27.6733 11.2141C27.3208 11.4313 26.8837 11.4607 26.5051 11.2923L22.5968 9.55462L18.2846 13.8668L20.0223 17.7752C20.1906 18.1537 20.1613 18.5909 19.944 18.9433C18.6349 21.068 17.6774 23.3799 17.0939 25.8112C16.9975 26.2127 16.7099 26.5411 16.3244 26.6895L12.3379 28.2238V34.3247L16.3244 35.8589C16.7095 36.007 16.9971 36.3352 17.0937 36.7363C17.6771 39.1598 18.6341 41.4787 19.9429 43.5954C20.1611 43.9482 20.1909 44.3861 20.0223 44.7653L18.2846 48.6737L22.5977 52.9868L26.5069 51.2552C26.884 51.0883 27.3189 51.1171 27.6706 51.3327C28.2926 51.7137 28.9306 52.0658 29.5828 52.388L30.8564 48.3807C24.7569 45.1124 20.6104 38.6749 20.6104 31.269C20.6104 20.556 29.286 11.8804 39.9989 11.8804C50.7116 11.8804 59.3979 20.5562 59.3979 31.269C59.3979 38.6748 55.2463 45.1124 49.1437 48.3807L50.4189 52.3926ZM49.2433 56.9799L43.979 40.4166C43.3202 40.7733 42.6079 41.0442 41.8575 41.2142L46.8683 56.9799H49.2433ZM46.0948 38.7876L48.3685 45.9414C53.4576 43.0316 56.888 37.5504 56.888 31.269C56.888 21.9425 49.3252 14.3902 39.9989 14.3902C30.6727 14.3902 23.1202 21.9427 23.1202 31.269C23.1202 37.5502 26.5458 43.0313 31.6317 45.9414L33.9055 38.7874C32.4953 37.2895 31.6313 35.2716 31.6313 33.052C31.6313 29.6276 33.6885 26.6839 36.6339 25.3882V23.29C36.6339 21.4387 38.1488 19.924 40.0002 19.924C41.8515 19.924 43.3663 21.4387 43.3663 23.29L43.3662 25.3882C46.312 26.6839 48.369 29.6276 48.369 33.052C48.369 35.2718 47.505 37.2895 46.0948 38.7876ZM51.1894 63.103H48.8143L51.6761 72.1072L52.4338 67.018L51.1894 63.103ZM46.1808 63.103H33.8195L29.5958 76.3923H50.4046L46.1808 63.103ZM31.1859 63.103H28.8109L27.5665 67.018L28.3241 72.1072L31.1859 63.103ZM30.7569 56.9799H33.132L38.1428 41.2142C37.3922 41.0442 36.68 40.7733 36.0211 40.4166L30.7569 56.9799ZM35.7655 56.9799H44.2347L40 43.6563L35.7655 56.9799ZM40.8565 26.2566V23.29C40.8565 22.8191 40.4711 22.4337 40.0002 22.4337C39.5291 22.4337 39.1437 22.8191 39.1437 23.29V26.2566C39.1437 26.8064 38.7859 27.2922 38.2609 27.4552C35.8741 28.1959 34.1411 30.4216 34.1411 33.052C34.1411 36.2881 36.7641 38.9113 40.0002 38.9113C43.2361 38.9113 45.8593 36.2881 45.8593 33.052C45.8593 30.4218 44.1265 28.1959 41.7393 27.4552C41.2143 27.2922 40.8565 26.8064 40.8565 26.2566ZM40.0002 28.6473C42.4328 28.6473 44.4049 30.6194 44.4049 33.052C44.4049 35.485 42.4328 37.4567 40.0002 37.4567C37.5676 37.4567 35.5955 35.485 35.5955 33.052C35.5955 30.6194 37.5676 28.6473 40.0002 28.6473ZM40.0002 31.1571C38.9536 31.1571 38.1053 32.0056 38.1053 33.052C38.1053 34.0988 38.9536 34.9471 40.0002 34.9471C41.0468 34.9471 41.8951 34.0988 41.8951 33.052C41.8951 32.0056 41.0468 31.1571 40.0002 31.1571ZM25.0292 59.4897C24.7258 59.4897 24.4777 59.738 24.4777 60.0414C24.4777 60.3449 24.7258 60.5932 25.0292 60.5932H54.971C55.2744 60.5932 55.5227 60.3449 55.5227 60.0414C55.5227 59.738 55.2744 59.4897 54.971 59.4897H25.0292Z" fill="#393939"/>
</svg>
