<svg width="80" height="80" viewBox="0 0 80 80" fill="none" xmlns="http://www.w3.org/2000/svg">
<path d="M13.2882 30.8414L13.4202 38.4086C11.6174 38.4535 10.1875 39.9274 10.2193 41.7416L10.7371 71.4047C10.7693 73.2471 12.2943 74.7457 14.1368 74.7457H62.1196C63.9619 74.7457 65.4347 73.2471 65.4025 71.4047L65.2724 63.9464H69.1863C71.1797 63.9464 72.773 62.3247 72.7383 60.3317L71.9802 16.8963C71.9771 16.7214 71.8854 16.4961 71.7505 16.3631C68.0599 12.7289 64.3696 9.10158 60.6721 5.47471C60.5341 5.33955 60.2918 5.25439 60.135 5.25439H29.8783C27.8849 5.25439 26.2916 6.87611 26.3263 8.86955L26.6533 27.6064C26.2818 27.4867 25.8915 27.4211 25.4924 27.4211H16.6486C14.7629 27.421 13.2554 28.9552 13.2882 30.8414ZM63.8933 71.4047C63.911 72.4147 63.1036 73.2364 62.0933 73.2364H14.1104C13.1 73.2364 12.264 72.4147 12.2463 71.4047L11.7285 41.7416C11.7108 40.7313 12.5182 39.9096 13.5285 39.9096H61.5113C62.5216 39.9096 63.3577 40.7313 63.3754 41.7416L63.8933 71.4047ZM60.9347 7.83033C63.756 10.5989 66.5738 13.3688 69.3911 16.1416H62.1079C61.5411 16.1416 61.0718 15.6803 61.0619 15.1131L60.9347 7.83033ZM27.8357 8.8694C27.8154 7.7083 28.7436 6.76361 29.9047 6.76361H59.4069L59.5527 15.1131C59.5771 16.5127 60.7352 17.6508 62.1343 17.6508H70.4843L71.2293 60.3317C71.2496 61.4928 70.3213 62.4372 69.1602 62.4372H65.2463L64.885 41.7416C64.8533 39.9274 63.3721 38.4535 61.5677 38.4086L61.5311 36.3152C61.4982 34.4294 59.9371 32.895 58.0513 32.895H31.8538L28.4136 28.7913C28.3396 28.7028 28.2597 28.621 28.179 28.5403L27.8357 8.8694ZM27.2638 29.7486L30.9351 34.1283C31.0815 34.303 31.2972 34.4042 31.5232 34.4042H58.0775C59.1315 34.4042 60.0033 35.2613 60.0218 36.3152L60.0582 38.4003H14.9294L14.7975 30.8414C14.7791 29.7875 15.6213 28.9302 16.675 28.9302H25.5188C26.1916 28.9302 26.8277 29.2286 27.2638 29.7486Z" fill="#393939"/>
<path d="M17.1687 43.2886C15.5747 43.2886 14.3008 44.5853 14.3286 46.1789C14.3564 47.7725 15.6756 49.0692 17.2697 49.0692C18.8633 49.0692 20.1373 47.7725 20.1095 46.1789C20.0815 44.5853 18.7623 43.2886 17.1687 43.2886ZM17.2433 47.56C16.4817 47.56 15.8511 46.9406 15.8378 46.1789C15.8245 45.4172 16.4334 44.7978 17.1951 44.7978C17.9569 44.7978 18.587 45.4172 18.6003 46.1789C18.6136 46.9406 18.0048 47.56 17.2433 47.56Z" fill="#393939"/>
<path d="M24.8598 43.2886C23.2662 43.2886 21.9922 44.5853 22.02 46.1789C22.0478 47.7725 23.367 49.0692 24.9608 49.0692C26.5544 49.0692 27.8284 47.7725 27.8006 46.1789C27.7728 44.5853 26.4536 43.2886 24.8598 43.2886ZM24.9345 47.56C24.1729 47.56 23.5426 46.9406 23.5294 46.1789C23.5161 45.4172 24.1247 44.7978 24.8862 44.7978C25.6478 44.7978 26.2781 45.4172 26.2914 46.1789C26.3047 46.9406 25.6961 47.56 24.9345 47.56Z" fill="#393939"/>
<path d="M32.5473 43.2886C30.9537 43.2886 29.6797 44.5853 29.7075 46.1789C29.7353 47.7725 31.0545 49.0692 32.6483 49.0692C34.242 49.0692 35.5159 47.7725 35.4881 46.1789C35.4603 44.5853 34.1409 43.2886 32.5473 43.2886ZM32.6219 47.56C31.8603 47.56 31.23 46.9406 31.2167 46.1789C31.2034 45.4173 31.812 44.7978 32.5736 44.7978C33.3351 44.7978 33.9654 45.4172 33.9787 46.1789C33.992 46.9406 33.3836 47.56 32.6219 47.56Z" fill="#393939"/>
<path d="M8.28494 22.5875L22.5507 17.5852C23.0723 17.4021 23.2142 16.7325 22.8145 16.3389L18.6018 12.1952L19.7721 11.0041C20.0618 10.7093 20.0534 10.2318 19.7535 9.93706C19.4535 9.64222 18.976 9.64222 18.6865 9.93706L17.5167 11.1277L13.3042 6.98425C12.906 6.59378 12.2371 6.74191 12.0626 7.26941L7.30713 21.6266C7.11666 22.201 7.68166 22.7999 8.28494 22.5875ZM20.9007 16.5557L10.8571 20.0775L17.5531 13.2625L20.9007 16.5557ZM13.1203 8.90206L16.4679 12.195L9.7726 19.0093L13.1203 8.90206Z" fill="#393939"/>
</svg>
