<svg width="80" height="80" viewBox="0 0 80 80" fill="none" xmlns="http://www.w3.org/2000/svg">
<g clip-path="url(#clip0_1808_4088)">
<path d="M71.5379 22.0227H78.8121C79.4682 22.0227 79.9998 21.491 79.9998 20.8349V6.94335C79.9998 6.28722 79.4682 5.75499 78.8121 5.75499H60.0792C59.4231 5.75499 58.8909 6.28722 58.8909 6.94335C58.8909 7.59947 59.4231 8.1317 60.0792 8.1317H65.4778L57.0263 18.9093L48.5753 8.1317H55.3264C55.9826 8.1317 56.5148 7.59947 56.5148 6.94335C56.5148 6.28722 55.9826 5.75499 55.3264 5.75499H35.9448V1.18835C35.9448 0.532225 35.4125 0 34.7564 0H9.06187C8.40574 0 7.87352 0.532225 7.87352 1.18835V5.75499H1.18835C0.532225 5.75499 0.00061035 6.28722 0.00061035 6.94335V20.8349C0.00061035 21.491 0.532225 22.0227 1.18835 22.0227H7.87352V55.1238C7.87352 55.7799 8.40574 56.3121 9.06187 56.3121C9.718 56.3121 10.2496 55.7799 10.2496 55.1238V2.37609H33.5687V11.214H31.0308V6.94335C31.0308 6.28722 30.4986 5.75499 29.8425 5.75499H13.974C13.3178 5.75499 12.7862 6.28722 12.7862 6.94335V65.6816C12.7862 66.3384 13.3178 66.87 13.974 66.87H29.8425C30.4986 66.87 31.0308 66.3384 31.0308 65.6816V52.224C31.0308 52.2204 31.0314 52.2173 31.0308 52.213C31.0308 52.2112 31.0308 52.21 31.0308 52.2081V41.0973H33.5687V70.2489H10.2496V59.8766C10.2496 59.2205 9.718 58.6888 9.06187 58.6888C8.40574 58.6888 7.87352 59.2205 7.87352 59.8766V70.2495H4.44213C1.99279 70.2489 0 72.2423 0 74.6916V78.8115C0 79.4676 0.532225 79.9998 1.18835 79.9998H42.6299C43.286 79.9998 43.8183 79.4676 43.8183 78.8115V74.6916C43.8183 72.2423 41.8255 70.2489 39.3761 70.2489H35.9448V41.0973H41.4818C42.138 41.0973 42.6702 40.5657 42.6702 39.9096V26.441C42.6702 26.2988 42.6446 26.1578 42.5951 26.0247L41.0985 22.0227H57.4389C57.9412 25.0152 60.3081 27.3815 63.3 27.8845V31.657C60.996 32.1966 59.2742 34.2663 59.2742 36.7327C59.2742 39.1985 60.996 41.2688 63.3 41.8078V44.887C63.3 45.5431 63.8323 46.0753 64.4884 46.0753C66.0527 46.0753 67.3259 47.3479 67.3259 48.9129C67.3259 50.4772 66.0527 51.7504 64.4884 51.7504C62.9235 51.7504 61.6509 50.4772 61.6509 48.9129C61.6509 48.2567 61.1187 47.7245 60.4625 47.7245C59.8064 47.7245 59.2742 48.2567 59.2742 48.9129C59.2742 50.4784 59.9694 51.8841 61.0656 52.8405L49.7844 56.6527L49.7851 56.6539C49.3157 56.8126 48.977 57.2557 48.977 57.7788V74.5C48.977 75.1561 49.5092 75.6883 50.1653 75.6883H78.8115C79.4676 75.6883 79.9992 75.1561 79.9992 74.5V57.7788C79.9992 57.2557 79.6611 56.8126 79.1917 56.6539V56.6527L67.9106 52.8405C69.0074 51.8841 69.702 50.4784 69.702 48.9129C69.702 46.4464 67.9808 44.3749 65.6761 43.8354V41.8078C67.9802 41.2688 69.702 39.1985 69.702 36.7327C69.702 34.2663 67.9802 32.1966 65.6761 31.657V27.8845C68.6687 27.3815 71.035 25.0152 71.5379 22.0227ZM7.87352 8.1317V10.3839L2.3767 17.3944V8.1317H7.87352ZM3.63036 19.6466L7.87352 14.2352V19.6466H3.63036ZM41.4422 74.6916V77.6231H2.37609V74.6916C2.37609 73.5521 3.30322 72.6256 4.44213 72.6256H39.3761C40.5151 72.6256 41.4422 73.5521 41.4422 74.6916ZM64.4884 54.1924L71.5843 56.5905H57.3919L64.4884 54.1924ZM77.6231 73.3122H51.353V58.9666H77.6231V73.3122ZM59.4677 19.6466L67.9192 8.869L76.3701 19.6466H59.4677ZM77.6237 8.1317V17.3944L70.3606 8.1317H77.6237ZM35.9448 8.1317H43.6925L38.4185 14.8571L37.3449 11.9861C37.1709 11.5216 36.7278 11.214 36.2322 11.214H35.9448V8.1317ZM28.6547 11.214H21.4068L17.4402 8.1317H28.6547V11.214ZM15.1623 42.337L27.9583 52.2783L15.1623 63.1194V42.337ZM15.1623 9.37132L17.5341 11.214H15.1623V9.37132ZM17.2155 64.4939L28.6547 54.8027V64.4939H17.2155ZM28.6547 49.8101L17.4408 41.0973H28.6547V49.8101ZM40.2941 38.7212H15.1629V13.5907H35.4076L40.2941 26.6558V38.7212ZM39.3938 17.4646L46.1339 8.869L54.5855 19.6466H40.2099L39.3938 17.4646ZM59.8638 22.0227H69.1124C68.5826 24.082 66.7107 25.6085 64.4884 25.6085C62.2661 25.6085 60.3936 24.082 59.8638 22.0227ZM67.3259 36.7327C67.3259 37.8728 66.6484 38.8555 65.6761 39.306V38.4875C65.6761 37.8313 65.1445 37.2997 64.4884 37.2997C63.8323 37.2997 63.3 37.8313 63.3 38.4875V39.306C62.3278 38.8555 61.6509 37.8728 61.6509 36.7327C61.6509 35.1684 62.9235 33.8952 64.4884 33.8952C66.0527 33.8952 67.3259 35.1684 67.3259 36.7327Z" fill="url(#paint0_linear_1808_4088)"/>
<path d="M32.9345 15.9668H18.7268C18.0707 15.9668 17.5391 16.4984 17.5391 17.1545V27.301C17.5391 27.9571 18.0707 28.4887 18.7268 28.4887H36.7291C37.1185 28.4887 37.4835 28.2983 37.7056 27.9779C37.9272 27.6581 37.9785 27.2497 37.8418 26.8847L34.0478 16.7383C33.8739 16.2744 33.4301 15.9668 32.9345 15.9668ZM19.9152 26.1127V18.3429H32.1106L35.0164 26.1127H19.9152Z" fill="url(#paint1_linear_1808_4088)"/>
<path d="M54.993 71.4569C55.6492 71.4569 56.1808 70.9247 56.1808 70.2685V62.0111C56.1808 61.355 55.6492 60.8228 54.993 60.8228C54.3369 60.8228 53.8047 61.355 53.8047 62.0111V70.2685C53.8047 70.9247 54.3369 71.4569 54.993 71.4569Z" fill="url(#paint2_linear_1808_4088)"/>
<path d="M73.9846 71.4569C74.6414 71.4569 75.173 70.9247 75.173 70.2685V62.0111C75.173 61.355 74.6414 60.8228 73.9846 60.8228C73.3285 60.8228 72.7969 61.355 72.7969 62.0111V70.2685C72.7969 70.9247 73.3285 71.4569 73.9846 71.4569Z" fill="url(#paint3_linear_1808_4088)"/>
<path d="M67.6532 71.4569C68.3093 71.4569 68.8415 70.9247 68.8415 70.2685V62.0111C68.8415 61.355 68.3093 60.8228 67.6532 60.8228C66.9971 60.8228 66.4648 61.355 66.4648 62.0111V70.2685C66.4648 70.9247 66.9971 71.4569 67.6532 71.4569Z" fill="url(#paint4_linear_1808_4088)"/>
<path d="M61.3206 71.4569C61.9767 71.4569 62.5089 70.9247 62.5089 70.2685V62.0111C62.5089 61.355 61.9767 60.8228 61.3206 60.8228C60.6644 60.8228 60.1328 61.355 60.1328 62.0111V70.2685C60.1328 70.9247 60.6644 71.4569 61.3206 71.4569Z" fill="url(#paint5_linear_1808_4088)"/>
</g>
<defs>
<linearGradient id="paint0_linear_1808_4088" x1="39.9999" y1="0" x2="39.9999" y2="79.9998" gradientUnits="userSpaceOnUse">
<stop stop-color="#9747FF"/>
<stop offset="1" stop-color="#4B9ADB"/>
</linearGradient>
<linearGradient id="paint1_linear_1808_4088" x1="27.7281" y1="15.9668" x2="27.7281" y2="28.4887" gradientUnits="userSpaceOnUse">
<stop stop-color="#9747FF"/>
<stop offset="1" stop-color="#4B9ADB"/>
</linearGradient>
<linearGradient id="paint2_linear_1808_4088" x1="54.9927" y1="60.8228" x2="54.9927" y2="71.4569" gradientUnits="userSpaceOnUse">
<stop stop-color="#9747FF"/>
<stop offset="1" stop-color="#4B9ADB"/>
</linearGradient>
<linearGradient id="paint3_linear_1808_4088" x1="73.9849" y1="60.8228" x2="73.9849" y2="71.4569" gradientUnits="userSpaceOnUse">
<stop stop-color="#9747FF"/>
<stop offset="1" stop-color="#4B9ADB"/>
</linearGradient>
<linearGradient id="paint4_linear_1808_4088" x1="67.6532" y1="60.8228" x2="67.6532" y2="71.4569" gradientUnits="userSpaceOnUse">
<stop stop-color="#9747FF"/>
<stop offset="1" stop-color="#4B9ADB"/>
</linearGradient>
<linearGradient id="paint5_linear_1808_4088" x1="61.3209" y1="60.8228" x2="61.3209" y2="71.4569" gradientUnits="userSpaceOnUse">
<stop stop-color="#9747FF"/>
<stop offset="1" stop-color="#4B9ADB"/>
</linearGradient>
<clipPath id="clip0_1808_4088">
<rect width="80" height="80" fill="white"/>
</clipPath>
</defs>
</svg>
