<svg width="80" height="80" viewBox="0 0 80 80" fill="none" xmlns="http://www.w3.org/2000/svg">
<path fill-rule="evenodd" clip-rule="evenodd" d="M25.8359 55.8332H22.5026V45.8332C22.5026 45.3732 22.1293 44.9998 21.6693 44.9998H10.0026C9.5426 44.9998 9.16927 45.3732 9.16927 45.8332V55.8332H7.5026C5.2026 55.8332 3.33594 57.6998 3.33594 59.9998V64.1665C3.33594 66.4665 5.2026 68.3332 7.5026 68.3332H72.5034C74.8034 68.3332 76.6701 66.4665 76.6701 64.1665V59.9998C76.6701 57.6998 74.8034 55.8332 72.5034 55.8332H70.1018L64.9151 45.4598C64.7751 45.1782 64.4851 44.9998 64.1701 44.9998C63.8551 44.9998 63.5651 45.1782 63.4251 45.4598L58.2384 55.8332H54.1701V39.1665C54.1701 38.7065 53.7968 38.3332 53.3368 38.3332H26.6701C26.2101 38.3332 25.8359 38.7065 25.8359 39.1665V55.8332ZM72.5034 61.6665C71.1234 61.6665 70.0034 62.7865 70.0034 64.1665C70.0034 65.5465 71.1234 66.6665 72.5034 66.6665H72.5118C73.8884 66.6615 75.0034 65.5432 75.0034 64.1665V64.1582C74.9984 62.7815 73.8801 61.6665 72.5034 61.6665ZM69.1701 61.6665H10.8359C11.3593 62.3632 11.6693 63.2282 11.6693 64.1665C11.6693 65.1048 11.3593 65.9698 10.8359 66.6665H69.1701C68.6468 65.9698 68.3368 65.1048 68.3368 64.1665C68.3368 63.2282 68.6468 62.3632 69.1701 61.6665ZM7.5026 61.6665C6.12594 61.6665 5.0076 62.7815 5.0026 64.1582V64.1665C5.0026 65.5465 6.1226 66.6665 7.5026 66.6665C8.88261 66.6665 10.0026 65.5465 10.0026 64.1665C10.0026 62.7898 8.8876 61.6715 7.51094 61.6665H7.5026ZM72.5034 63.3332C72.9634 63.3332 73.3368 63.7065 73.3368 64.1665C73.3368 64.6265 72.9634 64.9998 72.5034 64.9998C72.0434 64.9998 71.6701 64.6265 71.6701 64.1665C71.6701 63.7065 72.0434 63.3332 72.5034 63.3332ZM7.5026 63.3332C7.9626 63.3332 8.33594 63.7065 8.33594 64.1665C8.33594 64.6265 7.9626 64.9998 7.5026 64.9998C7.0426 64.9998 6.66927 64.6265 6.66927 64.1665C6.66927 63.7065 7.0426 63.3332 7.5026 63.3332ZM70.8368 57.4998C70.8368 57.6515 70.7951 57.8048 70.7118 57.9382C70.5601 58.1832 70.2918 58.3332 70.0034 58.3332H58.3368C58.0484 58.3332 57.7801 58.1832 57.6284 57.9382C57.5451 57.8048 57.5034 57.6515 57.5034 57.4998H54.1701V59.9998H72.5034C73.4418 59.9998 74.3068 60.3098 75.0034 60.8332V59.9998C75.0034 58.6198 73.8834 57.4998 72.5034 57.4998H70.8368ZM9.16927 57.4998H7.5026C6.1226 57.4998 5.0026 58.6198 5.0026 59.9998V60.8332C5.69927 60.3098 6.56427 59.9998 7.5026 59.9998H25.8359V57.4998H22.5026C22.5026 57.9598 22.1293 58.3332 21.6693 58.3332H10.0026C9.5426 58.3332 9.16927 57.9598 9.16927 57.4998ZM52.5034 59.9998H27.5034V39.9998H52.5034V59.9998ZM49.1701 44.1665C49.1701 43.7065 48.7968 43.3332 48.3368 43.3332H31.6701C31.2101 43.3332 30.8368 43.7065 30.8368 44.1665V55.8332C30.8368 56.2932 31.2101 56.6665 31.6701 56.6665H48.3368C48.7968 56.6665 49.1701 56.2932 49.1701 55.8332V44.1665ZM20.8359 46.6665V56.6665H10.8359V46.6665H20.8359ZM59.6851 56.6665L64.1701 47.6965L68.6551 56.6665H59.6851ZM47.5034 44.9998V54.9998H32.5034V44.9998H47.5034ZM15.0026 36.6665H10.8359C10.3759 36.6665 10.0026 37.0398 10.0026 37.4998C10.0026 37.9598 10.3759 38.3332 10.8359 38.3332H15.0026V40.8332C15.0026 41.1398 15.1709 41.4232 15.4426 41.5682C15.7143 41.7132 16.0426 41.6965 16.2976 41.5265L21.2976 38.1932C21.5293 38.0382 21.6693 37.7782 21.6693 37.4998C21.6693 37.2215 21.5293 36.9615 21.2976 36.8065L16.2976 33.4732C16.0426 33.3032 15.7143 33.2865 15.4426 33.4315C15.1709 33.5765 15.0026 33.8598 15.0026 34.1665V36.6665ZM63.3368 36.6665H59.1701C58.7101 36.6665 58.3368 37.0398 58.3368 37.4998C58.3368 37.9598 58.7101 38.3332 59.1701 38.3332H63.3368V40.8332C63.3368 41.1398 63.5051 41.4232 63.7768 41.5682C64.0484 41.7132 64.3768 41.6965 64.6318 41.5265L69.6318 38.1932C69.8634 38.0382 70.0034 37.7782 70.0034 37.4998C70.0034 37.2215 69.8634 36.9615 69.6318 36.8065L64.6318 33.4732C64.3768 33.3032 64.0484 33.2865 63.7768 33.4315C63.5051 33.5765 63.3368 33.8598 63.3368 34.1665V36.6665ZM16.6693 35.7232L19.3343 37.4998L16.6693 39.2765V35.7232ZM65.0034 35.7232L67.6684 37.4998L65.0034 39.2765V35.7232ZM31.6701 13.3332V18.3332C31.6701 18.7932 32.0434 19.1665 32.5034 19.1665H33.3368V24.1665H27.5034C26.1234 24.1665 25.0026 25.2865 25.0026 26.6665C25.0026 27.1232 25.1259 27.5532 25.3409 27.9215C25.3376 27.9165 28.6701 33.7465 28.6701 33.7465C28.6701 33.7482 28.6718 33.7482 28.6718 33.7498C29.3618 34.9448 30.8918 35.3548 32.0868 34.6648C33.2818 33.9748 33.6918 32.4448 33.0018 31.2498L31.8118 29.1665H35.8368C37.2168 29.1665 38.3368 28.0465 38.3368 26.6665V19.1665H41.6701V26.6665C41.6701 28.0465 42.7901 29.1665 44.1701 29.1665H48.1951L47.0034 31.2532C46.3151 32.4448 46.7251 33.9748 47.9201 34.6648C49.1151 35.3548 50.6451 34.9448 51.3351 33.7498L54.6684 27.9165C54.8801 27.5532 55.0034 27.1232 55.0034 26.6665C55.0034 25.2865 53.8834 24.1665 52.5034 24.1665H46.6701V19.1665H47.5034C47.9634 19.1665 48.3368 18.7932 48.3368 18.3332V13.3332H54.1701C54.6301 13.3332 55.0034 12.9598 55.0034 12.4998C55.0034 12.0398 54.6301 11.6665 54.1701 11.6665H25.8359C25.3759 11.6665 25.0026 12.0398 25.0026 12.4998C25.0026 12.9598 25.3759 13.3332 25.8359 13.3332H31.6701ZM29.8918 29.1665H27.9718L30.1151 32.9165C30.3451 33.3148 30.8551 33.4515 31.2534 33.2215C31.6518 32.9915 31.7884 32.4815 31.5584 32.0832L29.8918 29.1665ZM52.0351 29.1665H50.1151L48.4484 32.0832C48.2184 32.4815 48.3551 32.9915 48.7534 33.2215C49.1518 33.4515 49.6618 33.3148 49.8918 32.9165L52.0351 29.1665ZM46.6701 25.8332V26.6665C46.6701 26.8048 46.6584 26.9415 46.6368 27.0782C46.6134 27.2198 46.5768 27.3582 46.5301 27.4948L46.5284 27.4998H52.5034C52.8118 27.4998 53.0801 27.3315 53.2251 27.0832C53.2968 26.9615 53.3368 26.8182 53.3368 26.6665C53.3368 26.2065 52.9634 25.8332 52.5034 25.8332H46.6701ZM36.6701 26.6665C36.6701 26.2065 36.2968 25.8332 35.8368 25.8332C35.3768 25.8332 35.0034 26.2065 35.0034 26.6665C35.0034 27.1115 35.3534 27.4765 35.7934 27.4982L35.8368 27.4998C36.2968 27.4998 36.6701 27.1265 36.6701 26.6665ZM33.3368 25.8332H27.5034C27.0434 25.8332 26.6701 26.2065 26.6701 26.6665C26.6701 26.8182 26.7101 26.9615 26.7818 27.0832C26.9268 27.3315 27.1951 27.4998 27.5034 27.4998H33.4784C33.3868 27.2398 33.3368 26.9582 33.3368 26.6665V25.8332ZM44.1701 27.4998C44.6301 27.4998 45.0034 27.1265 45.0034 26.6665C45.0034 26.2065 44.6301 25.8332 44.1701 25.8332C43.7251 25.8332 43.3601 26.1832 43.3384 26.6232L43.3368 26.6665C43.3368 27.1265 43.7101 27.4998 44.1701 27.4998ZM36.6701 24.3082V19.1665H35.0034V24.3082H35.0068C35.1234 24.2665 35.2418 24.2348 35.3634 24.2115C35.6484 24.1565 35.9418 24.1515 36.2268 24.1965C36.3734 24.2198 36.5168 24.2565 36.6568 24.3048L36.6701 24.3082ZM45.0034 24.3082V19.1665H43.3368V24.3082L43.7018 24.2098C43.9701 24.1598 44.2451 24.1532 44.5151 24.1898C44.6818 24.2132 44.8451 24.2532 45.0034 24.3082ZM46.6701 13.3332H33.3368V17.4998H46.6701V13.3332Z" fill="url(#paint0_linear_1808_4096)"/>
<defs>
<linearGradient id="paint0_linear_1808_4096" x1="40.003" y1="11.6665" x2="40.003" y2="68.3332" gradientUnits="userSpaceOnUse">
<stop stop-color="#9747FF"/>
<stop offset="1" stop-color="#4B9ADB"/>
</linearGradient>
</defs>
</svg>
