<svg width="80" height="80" viewBox="0 0 80 80" fill="none" xmlns="http://www.w3.org/2000/svg">
<g clip-path="url(#clip0_1786_3547)">
<path d="M63.9987 7.9999H55.628C55.1555 7.17757 54.2805 6.66943 53.332 6.66657L48.9507 6.7079C47.7916 2.73961 44.1576 0.00860254 40.0235 -0.00095142C35.8894 -0.0105054 32.2428 2.70368 31.0654 6.66657H26.6654C25.7169 6.66943 24.8419 7.17757 24.3694 7.9999H15.9987C12.3186 8.00431 9.33644 10.9865 9.33203 14.6666V73.3332C9.33644 77.0133 12.3186 79.9955 15.9987 79.9999H63.9987C67.6788 79.9955 70.661 77.0133 70.6654 73.3332V14.6666C70.661 10.9865 67.6788 8.00431 63.9987 7.9999ZM26.6654 18.6666H53.332C54.8048 18.6666 55.9987 17.4727 55.9987 15.9999H62.6654V71.9999H17.332V15.9999H23.9987C23.9987 17.4727 25.1926 18.6666 26.6654 18.6666ZM31.0654 9.33323C32.2351 9.33698 33.2688 8.57273 33.608 7.45323C34.4402 4.61665 37.0426 2.66806 39.9987 2.66806C42.9548 2.66806 45.5572 4.61665 46.3894 7.45323C46.7286 8.57273 47.7623 9.33698 48.932 9.33323H53.332V15.9999H26.6654V9.33323H31.0654ZM67.9987 73.3332C67.9987 75.5424 66.2078 77.3332 63.9987 77.3332H15.9987C13.7896 77.3332 11.9987 75.5424 11.9987 73.3332V14.6666C11.9987 12.4574 13.7896 10.6666 15.9987 10.6666H23.9987V13.3332H17.332C15.8593 13.3332 14.6654 14.5271 14.6654 15.9999V71.9999C14.6654 73.4727 15.8593 74.6666 17.332 74.6666H62.6654C64.1381 74.6666 65.332 73.4727 65.332 71.9999V15.9999C65.332 14.5271 64.1381 13.3332 62.6654 13.3332H55.9987V10.6666H63.9987C66.2078 10.6666 67.9987 12.4574 67.9987 14.6666V73.3332Z" fill="#393939"/>
<path d="M40 13.333C42.2091 13.333 44 11.5421 44 9.33301C44 7.12387 42.2091 5.33301 40 5.33301C37.7909 5.33301 36 7.12387 36 9.33301C36 11.5421 37.7909 13.333 40 13.333ZM40 7.99967C40.7364 7.99967 41.3333 8.59663 41.3333 9.33301C41.3333 10.0694 40.7364 10.6663 40 10.6663C39.2636 10.6663 38.6667 10.0694 38.6667 9.33301C38.6667 8.59663 39.2636 7.99967 40 7.99967Z" fill="#393939"/>
<path d="M22.6667 34.6663H26.6667C27.6151 34.6635 28.4901 34.1553 28.9627 33.333H31.3707L30.7427 43.9997H29.3333C27.1242 43.9997 25.3333 45.7905 25.3333 47.9997V49.333H22.6667C21.9303 49.333 21.3333 49.93 21.3333 50.6663C21.3333 51.4027 21.9303 51.9997 22.6667 51.9997H57.3333C58.0697 51.9997 58.6667 51.4027 58.6667 50.6663C58.6667 49.93 58.0697 49.333 57.3333 49.333H46.6667V47.9997C46.6667 45.7905 44.8758 43.9997 42.6667 43.9997H41.2573L40.6293 33.333H52V37.5303C51.9786 38.6645 52.6854 39.685 53.7547 40.0637C54.4004 40.2788 54.7805 40.9457 54.6365 41.6109C54.4924 42.2761 53.8704 42.726 53.1936 42.6547C52.5167 42.5833 52.0022 42.0136 52 41.333C52 40.5966 51.403 39.9997 50.6667 39.9997C49.9303 39.9997 49.3333 40.5966 49.3333 41.333C49.3493 43.3631 50.8835 45.0593 52.9019 45.2782C54.9202 45.4971 56.7824 44.1694 57.2333 42.1899C57.6842 40.2104 56.5807 38.2071 54.6667 37.5303V33.333H57.3333C58.2588 33.3325 59.1178 32.8523 59.6029 32.0642C60.088 31.276 60.1298 30.2928 59.7133 29.4663L58.3933 26.8263C57.9492 25.9097 57.0186 25.329 56 25.333H40.1587L40.072 23.8437C39.9893 22.4322 38.8193 21.3306 37.4053 21.333H34.5907C33.1767 21.3306 32.0067 22.4322 31.924 23.8437L31.8413 25.333H28.9627C28.4901 24.5107 27.6151 24.0025 26.6667 23.9997H22.6667C21.1939 23.9997 20 25.1936 20 26.6663V31.9997C20 33.4724 21.1939 34.6663 22.6667 34.6663ZM44 47.9997V49.333H28V47.9997C28 47.2633 28.597 46.6663 29.3333 46.6663H42.6667C43.403 46.6663 44 47.2633 44 47.9997ZM56 27.9997L57.3333 30.6663H40.4733L40.316 27.9997H56ZM34.5907 23.9997H37.4093L38.5853 43.9997H33.4147L34.5907 23.9997ZM31.524 30.6663H29.3333V27.9997H31.684L31.524 30.6663ZM22.6667 26.6663H26.6667V31.9997H22.6667V26.6663Z" fill="#393939"/>
<path fill-rule="evenodd" clip-rule="evenodd" d="M31.9987 57.333H30.6654C29.929 57.333 29.332 57.93 29.332 58.6663C29.332 59.4027 29.929 59.9997 30.6654 59.9997H31.9987C32.7351 59.9997 33.332 59.4027 33.332 58.6663C33.332 57.93 32.7351 57.333 31.9987 57.333Z" fill="#393939"/>
<path fill-rule="evenodd" clip-rule="evenodd" d="M58.6667 57.333H37.3333C36.597 57.333 36 57.93 36 58.6663C36 59.4027 36.597 59.9997 37.3333 59.9997H58.6667C59.403 59.9997 60 59.4027 60 58.6663C60 57.93 59.403 57.333 58.6667 57.333Z" fill="#393939"/>
<path fill-rule="evenodd" clip-rule="evenodd" d="M21.7232 60.9427C22.2439 61.4632 23.0879 61.4632 23.6086 60.9427L27.6086 56.9427C28.1139 56.4196 28.1066 55.5879 27.5923 55.0736C27.078 54.5593 26.2464 54.5521 25.7232 55.0574L22.6659 58.1147L22.2752 57.7241C21.7521 57.2188 20.9205 57.226 20.4061 57.7403C19.8918 58.2546 19.8846 59.0862 20.3899 59.6094L21.7232 60.9427Z" fill="#393939"/>
<path fill-rule="evenodd" clip-rule="evenodd" d="M31.9987 65.333H30.6654C29.929 65.333 29.332 65.93 29.332 66.6663C29.332 67.4027 29.929 67.9997 30.6654 67.9997H31.9987C32.7351 67.9997 33.332 67.4027 33.332 66.6663C33.332 65.93 32.7351 65.333 31.9987 65.333Z" fill="#393939"/>
<path fill-rule="evenodd" clip-rule="evenodd" d="M58.6667 65.333H37.3333C36.597 65.333 36 65.93 36 66.6663C36 67.4027 36.597 67.9997 37.3333 67.9997H58.6667C59.403 67.9997 60 67.4027 60 66.6663C60 65.93 59.403 65.333 58.6667 65.333Z" fill="#393939"/>
<path fill-rule="evenodd" clip-rule="evenodd" d="M21.7232 68.9427C22.2439 69.4632 23.0879 69.4632 23.6086 68.9427L27.6086 64.9427C28.1139 64.4196 28.1066 63.5879 27.5923 63.0736C27.078 62.5593 26.2464 62.5521 25.7232 63.0574L22.6659 66.1147L22.2752 65.7241C21.7521 65.2188 20.9205 65.226 20.4061 65.7403C19.8918 66.2546 19.8846 67.0862 20.3899 67.6094L21.7232 68.9427Z" fill="#393939"/>
</g>
<defs>
<clipPath id="clip0_1786_3547">
<rect width="80" height="80" fill="white"/>
</clipPath>
</defs>
</svg>
