<svg width="80" height="80" viewBox="0 0 80 80" fill="none" xmlns="http://www.w3.org/2000/svg">
<path d="M18.0742 38.1677H19.0923V47.843C19.0923 48.5339 19.652 49.093 20.3423 49.093H32.943C33.5253 49.093 34.0306 48.6914 34.1613 48.1238L34.9767 44.5825H45.0231L45.8385 48.1238C45.9691 48.6914 46.4745 49.093 47.0568 49.093H59.6575C60.3478 49.093 60.9075 48.5339 60.9075 47.843V38.1677H61.9255C62.6158 38.1677 63.1755 37.6086 63.1755 36.9177V31.4551C63.1755 30.7642 62.6158 30.2051 61.9255 30.2051H55.4722C55.6737 29.7237 55.7866 29.1962 55.7866 28.6426C55.7866 26.4026 53.9641 24.5801 51.7241 24.5801H50.3942L49.7045 20.5493C49.6013 19.9487 49.0813 19.5105 48.4722 19.5105H46.0759V12.2192C46.0759 11.5283 45.5162 10.9692 44.8259 10.9692H35.1738C34.4835 10.9692 33.9238 11.5283 33.9238 12.2192V19.5105H31.5276C30.9185 19.5105 30.3984 19.9487 30.2953 20.5493L29.6052 24.5801H28.2756C26.0356 24.5801 24.2131 26.4026 24.2131 28.6426C24.2131 29.1962 24.326 29.7237 24.5275 30.2051H18.0742C17.3839 30.2051 16.8242 30.7642 16.8242 31.4551V36.9177C16.8242 37.6086 17.3839 38.1677 18.0742 38.1677ZM58.4075 46.593H48.0516L47.2362 43.0518C47.1056 42.4841 46.6002 42.0825 46.0179 42.0825H33.9818C33.3995 42.0825 32.8942 42.4841 32.7635 43.0518L31.9481 46.593H21.5923V38.1714H58.4075V46.593ZM49.3517 27.0801H49.3651H51.7241C52.5859 27.0801 53.2866 27.7808 53.2866 28.6426C53.2866 29.5044 52.5859 30.2051 51.7241 30.2051H49.3517V27.0801ZM36.4238 13.4692H43.5759V19.5105H36.4238V13.4692ZM32.5817 22.0105H35.1738H44.8259H47.4181L47.8582 24.5801H32.1416L32.5817 22.0105ZM46.8517 27.0801V30.2051H41.2499V27.0801H46.8517ZM38.7499 27.0801V30.2051H33.1481V27.0801H38.7499ZM28.2756 27.0801H30.6481V30.2051H28.2756C27.4138 30.2051 26.7131 29.5044 26.7131 28.6426C26.7131 27.7808 27.4138 27.0801 28.2756 27.0801ZM19.3242 32.7051H60.6755V35.6677H19.3242V32.7051Z" fill="url(#paint0_linear_1808_4102)"/>
<path d="M61.9255 61.0679H60.9075V53.6179C60.9075 52.927 60.3478 52.3679 59.6575 52.3679H45.7933L45.2886 49.8301C45.172 49.2454 44.6587 48.8242 44.0624 48.8242H35.9374C35.3411 48.8242 34.8278 49.2454 34.7112 49.8301L34.2064 52.3679H20.3423C19.652 52.3679 19.0923 52.927 19.0923 53.6179V61.0679H18.0742C17.3839 61.0679 16.8242 61.627 16.8242 62.3179V67.7805C16.8242 68.4714 17.3839 69.0305 18.0742 69.0305H61.9255C62.6158 69.0305 63.1755 68.4714 63.1755 67.7805V62.3179C63.1755 61.627 62.6158 61.0679 61.9255 61.0679ZM21.5923 54.8679H35.2318C35.8281 54.8679 36.3414 54.4468 36.458 53.8621L36.9628 51.3242H43.037L43.5417 53.8621C43.6583 54.4468 44.1716 54.8679 44.7679 54.8679H58.4075V61.0679H21.5923V54.8679ZM60.6755 66.5305H19.3242V63.5679H60.6755V66.5305Z" fill="url(#paint1_linear_1808_4102)"/>
<path d="M17.8979 49.7048C17.4097 49.2166 16.6187 49.2166 16.1304 49.7048L14.1028 51.7324V42.3818C14.1028 41.6909 13.5431 41.1318 12.8528 41.1318C12.1625 41.1318 11.6028 41.6909 11.6028 42.3818V51.7324L9.5752 49.7048C9.08691 49.2166 8.2959 49.2166 7.80762 49.7048C7.31934 50.1931 7.31934 50.9841 7.80762 51.4724L11.969 55.6338C12.2131 55.8779 12.533 56 12.8528 56C13.1726 56 13.4924 55.8779 13.7366 55.6338L17.8979 51.4724C18.3862 50.9841 18.3862 50.1931 17.8979 49.7048Z" fill="url(#paint2_linear_1808_4102)"/>
<path d="M72.1948 49.7048C71.7065 49.2166 70.9155 49.2166 70.4272 49.7048L68.3997 51.7324V42.3818C68.3997 41.6909 67.84 41.1318 67.1497 41.1318C66.4594 41.1318 65.8997 41.6909 65.8997 42.3818V51.7324L63.8721 49.7048C63.3838 49.2166 62.5928 49.2166 62.1045 49.7048C61.6162 50.1931 61.6162 50.9841 62.1045 51.4724L66.2659 55.6338C66.51 55.8779 66.8298 56 67.1497 56C67.4695 56 67.7893 55.8779 68.0334 55.6338L72.1948 51.4724C72.6831 50.9841 72.6831 50.1931 72.1948 49.7048Z" fill="url(#paint3_linear_1808_4102)"/>
<defs>
<linearGradient id="paint0_linear_1808_4102" x1="39.9999" y1="10.9692" x2="39.9999" y2="49.093" gradientUnits="userSpaceOnUse">
<stop stop-color="#9747FF"/>
<stop offset="1" stop-color="#4B9ADB"/>
</linearGradient>
<linearGradient id="paint1_linear_1808_4102" x1="39.9999" y1="48.8242" x2="39.9999" y2="69.0305" gradientUnits="userSpaceOnUse">
<stop stop-color="#9747FF"/>
<stop offset="1" stop-color="#4B9ADB"/>
</linearGradient>
<linearGradient id="paint2_linear_1808_4102" x1="12.8528" y1="41.1318" x2="12.8528" y2="56" gradientUnits="userSpaceOnUse">
<stop stop-color="#9747FF"/>
<stop offset="1" stop-color="#4B9ADB"/>
</linearGradient>
<linearGradient id="paint3_linear_1808_4102" x1="67.1497" y1="41.1318" x2="67.1497" y2="56" gradientUnits="userSpaceOnUse">
<stop stop-color="#9747FF"/>
<stop offset="1" stop-color="#4B9ADB"/>
</linearGradient>
</defs>
</svg>
