<svg width="80" height="80" viewBox="0 0 80 80" fill="none" xmlns="http://www.w3.org/2000/svg">
<path d="M72.2711 44.3719C72.2711 36.9172 66.5273 30.7781 59.232 30.1437V13.5625C59.232 10.9047 57.0727 8.74375 54.418 8.74375H46.7945C46.0836 7.50625 44.7852 6.675 43.3055 6.675H40.9133C40.343 2.89688 37.2273 0 33.4805 0C29.7367 0 26.6227 2.89688 26.0523 6.675H23.657C22.1773 6.675 20.882 7.50625 20.1711 8.74375H12.5492C9.89141 8.74375 7.73047 10.9047 7.73047 13.5625V75.1844C7.73047 77.8391 9.89297 79.9984 12.5492 79.9984H54.418C57.0727 79.9984 59.232 77.8391 59.232 75.1844V58.6047C66.5273 57.9703 72.2711 51.8297 72.2711 44.3719ZM56.7336 13.5625V30.1422C56.0414 30.2031 55.3617 30.3125 54.7008 30.4688V14.8375C54.7008 14.1469 54.1414 13.5891 53.4523 13.5891H47.3711V11.2422H54.418C55.6945 11.2422 56.7336 12.2828 56.7336 13.5625ZM19.9008 16.0875C20.5102 17.6297 21.9633 18.7188 23.657 18.7188H43.3039C44.9992 18.7188 46.4555 17.6297 47.0648 16.0875H52.2023V31.3109C47.1977 33.5344 43.6977 38.5516 43.6977 44.3719C43.6977 50.1938 47.1977 55.2125 52.2023 57.4375V72.6609H14.7586V16.0875H19.9008ZM23.657 9.17344H27.2086C27.8992 9.17344 28.457 8.61406 28.457 7.925C28.457 4.93281 30.7102 2.5 33.4789 2.5C36.2508 2.5 38.5055 4.93438 38.5055 7.925C38.5055 8.61406 39.0648 9.17344 39.7539 9.17344H43.3023C44.1664 9.17344 44.8695 9.95625 44.8695 10.9187V14.475C44.8695 15.4375 44.1664 16.2203 43.3023 16.2203H23.657C22.7945 16.2203 22.093 15.4375 22.093 14.475V10.9187C22.0945 9.95625 22.7945 9.17344 23.657 9.17344ZM54.418 77.5016H12.5492C11.2695 77.5016 10.2289 76.4625 10.2289 75.1844V13.5625C10.2289 12.2828 11.2695 11.2422 12.5492 11.2422H19.5961V13.5891H13.5102C12.8195 13.5891 12.2617 14.1484 12.2617 14.8375V73.9094C12.2617 74.6 12.8211 75.1578 13.5102 75.1578H53.4523C54.143 75.1578 54.7008 74.5984 54.7008 73.9094V58.2781C55.3617 58.4344 56.0414 58.5438 56.7336 58.6047V75.1844C56.7336 76.4625 55.6945 77.5016 54.418 77.5016ZM57.9836 56.1625C51.4852 56.1625 46.1977 50.8734 46.1977 44.3719C46.1977 37.8734 51.4852 32.5859 57.9836 32.5859C64.4852 32.5859 69.7742 37.8734 69.7742 44.3719C69.7727 50.8734 64.4836 56.1625 57.9836 56.1625ZM64.9367 41.0547H61.3055V37.4188C61.3055 36.7281 60.7461 36.1703 60.057 36.1703H55.9164C55.2258 36.1703 54.668 36.7297 54.668 37.4188V41.0547H51.032C50.3414 41.0547 49.7836 41.6141 49.7836 42.3031V46.4437C49.7836 47.1328 50.343 47.6922 51.032 47.6922H54.668V51.3234C54.668 52.0141 55.2273 52.5719 55.9164 52.5719H60.057C60.7477 52.5719 61.3055 52.0125 61.3055 51.3234V47.6922H64.9367C65.6273 47.6922 66.1852 47.1328 66.1852 46.4437V42.3031C66.1852 41.6125 65.6273 41.0547 64.9367 41.0547ZM63.6883 45.1953H60.057C59.3664 45.1953 58.8086 45.7547 58.8086 46.4437V50.075H57.1648V46.4437C57.1648 45.7531 56.6055 45.1953 55.9164 45.1953H52.2805V43.5516H55.9164C56.607 43.5516 57.1648 42.9922 57.1648 42.3031V38.6672H58.8086V42.3031C58.8086 42.9922 59.368 43.5516 60.057 43.5516H63.6883V45.1953ZM18.5773 35.1141H28.8523C29.543 35.1141 30.1008 34.5547 30.1008 33.8656V23.5906C30.1008 22.9 29.5414 22.3422 28.8523 22.3422H18.5773C17.8867 22.3422 17.3289 22.9016 17.3289 23.5906V33.8656C17.3273 34.5563 17.8867 35.1141 18.5773 35.1141ZM19.8258 24.8391H27.6039V32.6172H19.8258V24.8391ZM26.6227 26.6578C27.1102 27.1453 27.1086 27.9375 26.6211 28.4234L24.2477 30.7938C24.0039 31.0375 23.6852 31.1594 23.3648 31.1594C23.0445 31.1594 22.7258 31.0375 22.482 30.7938L20.8086 29.1203C20.3211 28.6328 20.3211 27.8422 20.8086 27.3547C21.2961 26.8672 22.0867 26.8672 22.5742 27.3547L23.3664 28.1469L24.857 26.6594C25.3445 26.1703 26.1352 26.1703 26.6227 26.6578ZM18.5773 52.0734H28.8523C29.543 52.0734 30.1008 51.5141 30.1008 50.825V40.55C30.1008 39.8594 29.5414 39.3016 28.8523 39.3016H18.5773C17.8867 39.3016 17.3289 39.8609 17.3289 40.55V50.825C17.3273 51.5141 17.8867 52.0734 18.5773 52.0734ZM19.8258 41.7984H27.6039V49.5766H19.8258V41.7984ZM26.6227 43.6219C27.1102 44.1094 27.1086 44.9016 26.6211 45.3875L24.2477 47.7578C24.0039 48.0016 23.6852 48.1234 23.3648 48.1234C23.0445 48.1234 22.7258 48.0016 22.482 47.7578L20.8086 46.0844C20.3211 45.5969 20.3211 44.8063 20.8086 44.3188C21.2961 43.8313 22.0867 43.8313 22.5742 44.3188L23.3664 45.1109L24.857 43.6234C25.3445 43.1328 26.1352 43.1344 26.6227 43.6219ZM18.5773 69.0375H28.8523C29.543 69.0375 30.1008 68.4781 30.1008 67.7891V57.5141C30.1008 56.8234 29.5414 56.2656 28.8523 56.2656H18.5773C17.8867 56.2656 17.3289 56.825 17.3289 57.5141V67.7891C17.3273 68.4781 17.8867 69.0375 18.5773 69.0375ZM19.8258 58.7625H27.6039V66.5406H19.8258V58.7625ZM26.6227 60.5797C27.1102 61.0672 27.1102 61.8578 26.6227 62.3453L24.2492 64.7188C24.0148 64.9531 23.6977 65.0844 23.3664 65.0844C23.0352 65.0844 22.7164 64.9516 22.482 64.7172L20.8086 63.0391C20.3211 62.55 20.3227 61.7594 20.8117 61.2719C21.3008 60.7844 22.0914 60.7859 22.5773 61.275L23.368 62.0687L24.857 60.5797C25.343 60.0922 26.1352 60.0922 26.6227 60.5797ZM34.393 26.4422C34.393 25.7531 34.9523 25.1938 35.6414 25.1938H48.6539C49.3445 25.1938 49.9023 25.7531 49.9023 26.4422C49.9023 27.1312 49.343 27.6906 48.6539 27.6906H35.6414C34.9523 27.6906 34.393 27.1328 34.393 26.4422ZM34.393 31.0141C34.393 30.325 34.9523 29.7656 35.6414 29.7656H43.1008C43.7914 29.7656 44.3492 30.325 44.3492 31.0141C44.3492 31.7031 43.7898 32.2625 43.1008 32.2625H35.6414C34.9523 32.2625 34.393 31.7031 34.393 31.0141ZM34.393 43.4016C34.393 42.7109 34.9523 42.1531 35.6414 42.1531H39.968C40.6586 42.1531 41.2164 42.7125 41.2164 43.4016C41.2164 44.0906 40.657 44.65 39.968 44.65H35.6414C34.9523 44.65 34.393 44.0922 34.393 43.4016ZM34.393 47.9766C34.393 47.2859 34.9523 46.7281 35.6414 46.7281H40.3055C40.9961 46.7281 41.5539 47.2875 41.5539 47.9766C41.5539 48.6656 40.9945 49.225 40.3055 49.225H35.6414C34.9523 49.2266 34.393 48.6672 34.393 47.9766ZM34.393 60.3656C34.393 59.6766 34.9523 59.1172 35.6414 59.1172H48.6539C49.3445 59.1172 49.9023 59.6766 49.9023 60.3656C49.9023 61.0547 49.343 61.6141 48.6539 61.6141H35.6414C34.9523 61.6141 34.393 61.0547 34.393 60.3656ZM34.393 64.9359C34.393 64.2469 34.9523 63.6875 35.6414 63.6875H43.1008C43.7914 63.6875 44.3492 64.2469 44.3492 64.9359C44.3492 65.625 43.7898 66.1844 43.1008 66.1844H35.6414C34.9523 66.1844 34.393 65.6266 34.393 64.9359Z" fill="url(#paint0_linear_1808_4108)"/>
<defs>
<linearGradient id="paint0_linear_1808_4108" x1="40.0008" y1="0" x2="40.0008" y2="79.9984" gradientUnits="userSpaceOnUse">
<stop stop-color="#9747FF"/>
<stop offset="1" stop-color="#4B9ADB"/>
</linearGradient>
</defs>
</svg>
