<svg width="80" height="80" viewBox="0 0 80 80" fill="none" xmlns="http://www.w3.org/2000/svg">
<path d="M40 2.5C19.75 2.5 3.25 18.625 2.5 38.75H77.5C76.75 18.625 60.25 2.5 40 2.5ZM62.75 13.375C60.5 14.5 58.125 15.375 55.875 16.125C54.25 12.125 52.125 8.75 49.5 6.25C54.375 7.75 58.875 10.125 62.75 13.375ZM41.25 5.125C46.625 5.75 50.75 10.375 53.375 16.875C49.375 18 45.25 18.5 41.25 18.625V5.125ZM38.75 5.125V18.75C34.625 18.625 30.625 18.125 26.625 17C29.25 10.25 33.375 5.75 38.75 5.125ZM30.5 6.375C28.25 8.375 26.375 11.125 24.75 14.625C24.5 15.125 24.25 15.625 24.125 16.25C21.875 15.5 19.5 14.625 17.25 13.5C21.125 10.125 25.625 7.75 30.5 6.375ZM5.25 36.25C6.125 28.125 9.75 20.75 15.25 15.25C17.875 16.5 20.625 17.625 23.25 18.5C21.5 23.625 20.375 29.75 20.125 36.25H5.25ZM22.625 36.25C22.875 30.125 24 24.25 25.75 19.25C30.125 20.5 34.5 21.125 38.875 21.25V36.25H22.625ZM41.25 36.25V21.125C45.625 21 50 20.375 54.375 19.125C56.125 24.125 57.125 30.125 57.5 36.125H41.25V36.25ZM59.875 36.25C59.625 30 58.5 23.875 56.75 18.5C59.375 17.625 62.125 16.5 64.75 15.25C70.25 20.75 73.875 28.125 74.75 36.25H59.875Z" fill="url(#paint0_linear_1782_3071)"/>
<path d="M77.5 46.125V41.25H52.375C51.75 47.5 46.375 52.5 40 52.5C33.625 52.5 28.25 47.5 27.625 41.25H2.5V46.125L10.875 47C11 47.5 11.125 48 11.25 48.5L4.5 53.375L10.625 64L18.25 60.5C18.625 60.875 19 61.25 19.375 61.625L15.875 69.25L26.5 75.375L31.375 68.625C31.875 68.75 32.5 68.875 33 69L33.875 77.375H46.125L47 69C47.5 68.875 48 68.75 48.625 68.625L53.5 75.375L64.125 69.25L60.625 61.625L61.75 60.5L69.375 64L75.5 53.375L68.75 48.5C68.875 48 69 47.375 69.125 46.875L77.5 46.125ZM72.25 54.125L68.375 60.875L61.125 57.625L60.5 58.25C59.75 59 59 59.75 58.25 60.5L57.625 61.125L60.875 68.375L54.125 72.25L49.5 65.875L48.625 66.125C47.625 66.5 46.5 66.75 45.5 67L44.625 67.125L43.875 75H36.125L35.375 67.125L34.5 67C33.5 66.75 32.5 66.5 31.375 66.125L30.5 65.875L25.875 72.25L19.125 68.375L22.375 61.125L21.75 60.5C21 59.75 20.25 59 19.5 58.25L18.875 57.625L11.625 60.875L7.75 54.125L14.125 49.5L13.875 48.625C13.5 47.625 13.25 46.5 13 45.5L12.875 44.625L5 43.875V43.75H25.5C27.125 50.25 33 55 40 55C47 55 52.875 50.25 54.5 43.75H75V43.875L67.125 44.625L67 45.5C66.75 46.5 66.5 47.5 66.125 48.625L65.875 49.5L72.25 54.125Z" fill="url(#paint1_linear_1782_3071)"/>
<defs>
<linearGradient id="paint0_linear_1782_3071" x1="40" y1="2.5" x2="40" y2="38.75" gradientUnits="userSpaceOnUse">
<stop stop-color="#9747FF"/>
<stop offset="1" stop-color="#4B9ADB"/>
</linearGradient>
<linearGradient id="paint1_linear_1782_3071" x1="40" y1="41.25" x2="40" y2="77.375" gradientUnits="userSpaceOnUse">
<stop stop-color="#9747FF"/>
<stop offset="1" stop-color="#4B9ADB"/>
</linearGradient>
</defs>
</svg>
