<svg width="80" height="80" viewBox="0 0 80 80" fill="none" xmlns="http://www.w3.org/2000/svg">
<path d="M40 12.5C24.8359 12.5 12.5 24.8359 12.5 40C12.5 55.1641 24.8359 67.5 40 67.5C55.1641 67.5 67.5 55.1641 67.5 40C67.5 24.8359 55.1641 12.5 40 12.5ZM40 65C26.2156 65 15 53.7844 15 40C15 26.2156 26.2156 15 40 15C53.7844 15 65 26.2156 65 40C65 53.7844 53.7844 65 40 65Z" fill="#393939"/>
<path d="M77.5 33.75H71.8969C71.0617 29.501 69.3874 25.4612 66.9719 21.8672L70.9359 17.9031C71.1701 17.6684 71.3016 17.3503 71.3016 17.0187C71.3016 16.6872 71.1701 16.3691 70.9359 16.1344L63.8656 9.06406C63.6309 8.82991 63.3128 8.69842 62.9812 8.69842C62.6497 8.69842 62.3316 8.82991 62.0969 9.06406L58.1328 13.0281C54.5388 10.6126 50.499 8.93828 46.25 8.10313V2.5C46.25 2.16848 46.1183 1.85054 45.8839 1.61612C45.6495 1.3817 45.3315 1.25 45 1.25H35C34.6685 1.25 34.3505 1.3817 34.1161 1.61612C33.8817 1.85054 33.75 2.16848 33.75 2.5V8.10313C29.501 8.93828 25.4612 10.6126 21.8672 13.0281L17.9031 9.06406C17.6684 8.82991 17.3503 8.69842 17.0187 8.69842C16.6872 8.69842 16.3691 8.82991 16.1344 9.06406L9.06406 16.1344C8.82991 16.3691 8.69842 16.6872 8.69842 17.0187C8.69842 17.3503 8.82991 17.6684 9.06406 17.9031L13.0281 21.8672C10.6126 25.4612 8.93828 29.501 8.10313 33.75H2.5C2.16848 33.75 1.85054 33.8817 1.61612 34.1161C1.3817 34.3505 1.25 34.6685 1.25 35V45C1.25 45.3315 1.3817 45.6495 1.61612 45.8839C1.85054 46.1183 2.16848 46.25 2.5 46.25H8.10313C8.93828 50.499 10.6126 54.5388 13.0281 58.1328L9.06406 62.0969C8.82991 62.3316 8.69842 62.6497 8.69842 62.9812C8.69842 63.3128 8.82991 63.6309 9.06406 63.8656L16.1344 70.9359C16.3691 71.1701 16.6872 71.3016 17.0187 71.3016C17.3503 71.3016 17.6684 71.1701 17.9031 70.9359L21.8672 66.9719C25.4612 69.3874 29.501 71.0617 33.75 71.8969V77.5C33.75 77.8315 33.8817 78.1495 34.1161 78.3839C34.3505 78.6183 34.6685 78.75 35 78.75H45C45.3315 78.75 45.6495 78.6183 45.8839 78.3839C46.1183 78.1495 46.25 77.8315 46.25 77.5V71.8969C50.499 71.0617 54.5388 69.3874 58.1328 66.9719L62.0969 70.9359C62.3316 71.1701 62.6497 71.3016 62.9812 71.3016C63.3128 71.3016 63.6309 71.1701 63.8656 70.9359L70.9359 63.8656C71.1701 63.6309 71.3016 63.3128 71.3016 62.9812C71.3016 62.6497 71.1701 62.3316 70.9359 62.0969L66.9719 58.1328C69.3874 54.5388 71.0617 50.499 71.8969 46.25H77.5C77.8315 46.25 78.1495 46.1183 78.3839 45.8839C78.6183 45.6495 78.75 45.3315 78.75 45V35C78.75 34.6685 78.6183 34.3505 78.3839 34.1161C78.1495 33.8817 77.8315 33.75 77.5 33.75ZM76.25 43.75H70.85C70.5528 43.7499 70.2654 43.8558 70.0392 44.0485C69.813 44.2412 69.6628 44.5082 69.6156 44.8016C68.8691 49.4021 67.0609 53.7654 64.3344 57.5453C64.1603 57.786 64.0778 58.0809 64.1016 58.377C64.1254 58.6731 64.2539 58.951 64.4641 59.1609L68.2844 62.9812L62.9812 68.2844L59.1609 64.4641C58.9509 64.2542 58.673 64.1259 58.377 64.1022C58.081 64.0784 57.7862 64.1607 57.5453 64.3344C53.7654 67.0609 49.4021 68.8691 44.8016 69.6156C44.5082 69.6628 44.2412 69.813 44.0485 70.0392C43.8558 70.2654 43.7499 70.5528 43.75 70.85V76.25H36.25V70.85C36.2501 70.5528 36.1442 70.2654 35.9515 70.0392C35.7588 69.813 35.4918 69.6628 35.1984 69.6156C30.5979 68.8691 26.2346 67.0609 22.4547 64.3344C22.214 64.1603 21.9191 64.0778 21.623 64.1016C21.3269 64.1254 21.049 64.2539 20.8391 64.4641L17.0187 68.2844L11.7156 62.9812L15.5359 59.1609C15.7461 58.951 15.8746 58.6731 15.8984 58.377C15.9222 58.0809 15.8397 57.786 15.6656 57.5453C12.9391 53.7654 11.1309 49.4021 10.3844 44.8016C10.3372 44.5082 10.187 44.2412 9.96084 44.0485C9.73463 43.8558 9.44716 43.7499 9.15 43.75H3.75V36.25H9.15C9.44716 36.2501 9.73463 36.1442 9.96084 35.9515C10.187 35.7588 10.3372 35.4918 10.3844 35.1984C11.1309 30.5979 12.9391 26.2346 15.6656 22.4547C15.8397 22.214 15.9222 21.9191 15.8984 21.623C15.8746 21.3269 15.7461 21.049 15.5359 20.8391L11.7156 17.0187L17.0187 11.7156L20.8391 15.5359C21.0491 15.7458 21.327 15.8741 21.623 15.8978C21.919 15.9216 22.2138 15.8393 22.4547 15.6656C26.2346 12.9391 30.5979 11.1309 35.1984 10.3844C35.4918 10.3372 35.7588 10.187 35.9515 9.96084C36.1442 9.73463 36.2501 9.44716 36.25 9.15V3.75H43.75V9.15C43.7499 9.44716 43.8558 9.73463 44.0485 9.96084C44.2412 10.187 44.5082 10.3372 44.8016 10.3844C49.4021 11.1309 53.7654 12.9391 57.5453 15.6656C57.7862 15.8393 58.081 15.9216 58.377 15.8978C58.673 15.8741 58.9509 15.7458 59.1609 15.5359L62.9812 11.7156L68.2844 17.0187L64.4641 20.8391C64.2539 21.049 64.1254 21.3269 64.1016 21.623C64.0778 21.9191 64.1603 22.214 64.3344 22.4547C67.0609 26.2346 68.8691 30.5979 69.6156 35.1984C69.6628 35.4918 69.813 35.7588 70.0392 35.9515C70.2654 36.1442 70.5528 36.2501 70.85 36.25H76.25V43.75Z" fill="#393939"/>
<path d="M57.5007 40.0001C57.5003 43.1295 56.6609 46.2015 55.07 48.8962C53.479 51.5909 51.1946 53.8098 48.4547 55.3217C45.7149 56.8337 42.6197 57.5834 39.4917 57.4927C36.3637 57.4021 33.3172 56.4744 30.6694 54.8064C30.401 54.6242 30.214 54.3448 30.1478 54.0272C30.0816 53.7097 30.1414 53.3788 30.3146 53.1046C30.4879 52.8303 30.7609 52.6341 31.0761 52.5575C31.3913 52.4809 31.724 52.5298 32.0038 52.6939C34.7503 54.4246 37.984 55.2178 41.2196 54.9543C44.4552 54.6909 47.518 53.385 49.9483 51.2327C52.3785 49.0804 54.045 46.1979 54.6977 43.0179C55.3503 39.8378 54.9538 36.5319 53.5677 33.5964C52.1816 30.6609 49.8806 28.2543 47.0104 26.7377C44.1401 25.2212 40.8553 24.6766 37.6492 25.1858C34.443 25.6949 31.4886 27.2303 29.2293 29.5614C26.9701 31.8926 25.5279 34.8937 25.1194 38.1142L26.6163 36.6157C26.8509 36.3812 27.169 36.2494 27.5007 36.2494C27.8324 36.2494 28.1505 36.3812 28.3851 36.6157C28.6196 36.8503 28.7514 37.1684 28.7514 37.5001C28.7514 37.8318 28.6196 38.1499 28.3851 38.3845L24.6351 42.1345C24.4003 42.3686 24.0823 42.5001 23.7507 42.5001C23.4191 42.5001 23.1011 42.3686 22.8663 42.1345L19.1163 38.3845C18.8818 38.1499 18.75 37.8318 18.75 37.5001C18.75 37.1684 18.8818 36.8503 19.1163 36.6157C19.3509 36.3812 19.669 36.2494 20.0007 36.2494C20.3324 36.2494 20.6505 36.3812 20.8851 36.6157L22.5819 38.3142C23.0146 33.8396 25.1527 29.7031 28.5528 26.7624C31.953 23.8216 36.3544 22.3021 40.8446 22.5189C45.3349 22.7357 49.5694 24.6722 52.6705 27.9268C55.7715 31.1815 57.5011 35.5047 57.5007 40.0001Z" fill="#393939"/>
</svg>
