<svg width="80" height="80" viewBox="0 0 80 80" fill="none" xmlns="http://www.w3.org/2000/svg">
<path d="M13.0341 8.636H9.1773C8.69972 8.636 8.3125 8.06159 8.3125 7.35316C8.3125 6.64473 8.69972 6.07031 9.1773 6.07031H13.0341C13.5117 6.07031 13.8989 6.64473 13.8989 7.35316C13.8989 8.06159 13.5117 8.636 13.0341 8.636Z" fill="url(#paint0_linear_1808_4062)"/>
<path d="M76.1331 34.3953H70.564C70.0864 34.3953 69.6992 33.8209 69.6992 33.1124C69.6992 32.404 70.0864 31.8296 70.564 31.8296H76.1331C76.6107 31.8296 76.9979 32.404 76.9979 33.1124C76.9979 33.8209 76.6107 34.3953 76.1331 34.3953Z" fill="url(#paint1_linear_1808_4062)"/>
<path d="M72.0558 59.1019C71.5782 59.1019 71.191 58.5275 71.191 57.819V47.68C71.191 46.735 70.8139 45.8801 70.2303 45.5022L64.2195 41.6084C63.9973 41.4644 63.8262 41.1888 63.7474 40.8487L61.4644 30.9692C60.9717 28.8373 59.6208 27.4047 58.1028 27.4047H44.9132V57.8188C44.9132 58.5272 44.526 59.1016 44.0484 59.1016C43.5708 59.1016 43.1836 58.5272 43.1836 57.8188V26.1222C43.1836 25.4138 43.5708 24.8394 44.0484 24.8394H58.1028C60.3597 24.8394 62.368 26.9686 63.1005 30.1374L65.2603 39.4831L70.9226 43.1508C72.1363 43.9371 72.9206 45.715 72.9206 47.68V57.819C72.9206 58.5275 72.5333 59.1019 72.0558 59.1019Z" fill="url(#paint2_linear_1808_4062)"/>
<path d="M44.039 59.1019H22.7385C22.261 59.1019 21.8737 58.5275 21.8737 57.819C21.8737 57.1106 22.261 56.5362 22.7385 56.5362H43.1742V21.5311C43.1742 20.669 42.7023 19.9675 42.1222 19.9675H7.17425C6.59311 19.9675 6.12022 20.669 6.12022 21.5311V56.5362H12.0354C12.513 56.5362 12.9002 57.1106 12.9002 57.819C12.9002 58.5275 12.513 59.1019 12.0354 59.1019H5.25542C4.77785 59.1019 4.39062 58.5275 4.39062 57.819V21.5311C4.39062 19.2543 5.63939 17.4019 7.17425 17.4019H42.1222C43.656 17.4019 44.9038 19.2543 44.9038 21.5311V57.819C44.9038 58.5275 44.5165 59.1019 44.039 59.1019Z" fill="url(#paint3_linear_1808_4062)"/>
<path d="M54.7944 59.1023H22.7359C22.2583 59.1023 21.8711 58.5279 21.8711 57.8195C21.8711 57.111 22.2583 56.5366 22.7359 56.5366H54.7944C55.2719 56.5366 55.6592 57.111 55.6592 57.8195C55.6592 58.5279 55.2719 59.1023 54.7944 59.1023Z" fill="url(#paint4_linear_1808_4062)"/>
<path d="M53.3968 70.0921H24.1382C23.6607 70.0921 23.2734 69.5176 23.2734 68.8092C23.2734 68.1008 23.6607 67.5264 24.1382 67.5264H53.3968C53.8744 67.5264 54.2616 68.1008 54.2616 68.8092C54.2616 69.5176 53.8744 70.0921 53.3968 70.0921Z" fill="url(#paint5_linear_1808_4062)"/>
<path d="M10.6346 70.0925H5.02871C3.90997 70.0925 3 68.7424 3 67.0831V59.546C3 57.8865 3.91017 56.5366 5.02871 56.5366H12.0346C12.5121 56.5366 12.8994 57.111 12.8994 57.8195C12.8994 58.5279 12.5121 59.1023 12.0346 59.1023H5.02871C4.86369 59.1023 4.72959 59.3012 4.72959 59.546V67.0831C4.72959 67.3279 4.86389 67.5268 5.02871 67.5268H10.6346C11.1122 67.5268 11.4994 68.1012 11.4994 68.8097C11.4994 69.5181 11.1122 70.0925 10.6346 70.0925Z" fill="url(#paint6_linear_1808_4062)"/>
<path d="M72.0823 70.0925H66.8976C66.42 70.0925 66.0328 69.5181 66.0328 68.8097C66.0328 68.1012 66.42 67.5268 66.8976 67.5268H72.0823C72.2473 67.5268 72.3814 67.3276 72.3814 67.0831V59.546C72.3814 59.3012 72.2471 59.1023 72.0823 59.1023H65.4976C65.02 59.1023 64.6328 58.5279 64.6328 57.8195C64.6328 57.111 65.02 56.5366 65.4976 56.5366H72.0823C73.201 56.5366 74.111 57.8865 74.111 59.546V67.0831C74.111 68.7427 73.201 70.0925 72.0823 70.0925Z" fill="url(#paint7_linear_1808_4062)"/>
<path d="M17.3892 76.9999C12.9313 76.9999 9.30469 71.6201 9.30469 65.0073C9.30469 58.3945 12.9313 53.0146 17.3892 53.0146C21.8471 53.0146 25.4737 58.3945 25.4737 65.0073C25.4737 71.6201 21.8473 76.9999 17.3892 76.9999ZM17.3892 55.5803C13.8851 55.5803 11.0343 59.8092 11.0343 65.0073C11.0343 70.2054 13.8851 74.4342 17.3892 74.4342C20.8934 74.4342 23.7441 70.2054 23.7441 65.0073C23.7441 59.8092 20.8936 55.5803 17.3892 55.5803Z" fill="url(#paint8_linear_1808_4062)"/>
<path d="M72.057 52.9944H69.2437C68.7661 52.9944 68.3789 52.42 68.3789 51.7116C68.3789 51.0031 68.7661 50.4287 69.2437 50.4287H72.057C72.5346 50.4287 72.9218 51.0031 72.9218 51.7116C72.9218 52.42 72.5346 52.9944 72.057 52.9944Z" fill="url(#paint9_linear_1808_4062)"/>
<path d="M17.3853 70.0929C15.4949 70.0929 13.957 67.8115 13.957 65.0074C13.957 62.2032 15.4949 59.9219 17.3853 59.9219C19.2756 59.9219 20.8135 62.2032 20.8135 65.0074C20.8135 67.8115 19.2756 70.0929 17.3853 70.0929ZM17.3853 62.4876C16.4487 62.4876 15.6866 63.618 15.6866 65.0074C15.6866 66.3968 16.4487 67.5272 17.3853 67.5272C18.3219 67.5272 19.0839 66.3968 19.0839 65.0074C19.0839 63.618 18.3219 62.4876 17.3853 62.4876Z" fill="url(#paint10_linear_1808_4062)"/>
<path d="M60.147 76.9999C55.6891 76.9999 52.0625 71.6201 52.0625 65.0073C52.0625 58.3945 55.6891 53.0146 60.147 53.0146C64.6049 53.0146 68.2315 58.3945 68.2315 65.0073C68.2315 71.6201 64.6049 76.9999 60.147 76.9999ZM60.147 55.5803C56.6429 55.5803 53.7921 59.8092 53.7921 65.0073C53.7921 70.2054 56.6429 74.4342 60.147 74.4342C63.6512 74.4342 66.5019 70.2054 66.5019 65.0073C66.5019 59.8092 63.6512 55.5803 60.147 55.5803Z" fill="url(#paint11_linear_1808_4062)"/>
<path d="M60.147 70.0929C58.2567 70.0929 56.7188 67.8115 56.7188 65.0074C56.7188 62.2032 58.2567 59.9219 60.147 59.9219C62.0373 59.9219 63.5753 62.2032 63.5753 65.0074C63.5753 67.8115 62.0373 70.0929 60.147 70.0929ZM60.147 62.4876C59.2104 62.4876 58.4483 63.618 58.4483 65.0074C58.4483 66.3968 59.2104 67.5272 60.147 67.5272C61.0836 67.5272 61.8457 66.3968 61.8457 65.0074C61.8457 63.618 61.0836 62.4876 60.147 62.4876Z" fill="url(#paint12_linear_1808_4062)"/>
<path d="M56.9911 27.4067H46.1187C45.6411 27.4067 45.2539 26.8323 45.2539 26.1238V22.2871C45.2539 20.6803 46.1352 19.373 47.2183 19.373H55.8913C56.9744 19.373 57.8557 20.6803 57.8557 22.2871V26.1238C57.8559 26.8323 57.4687 27.4067 56.9911 27.4067ZM46.9835 24.841H56.1263V22.2871C56.1263 22.0948 56.0209 21.9387 55.8915 21.9387H47.2185C47.0889 21.9387 46.9837 22.0951 46.9837 22.2871V24.841H46.9835Z" fill="url(#paint13_linear_1808_4062)"/>
<path d="M55.3086 21.9385H47.8062C47.3286 21.9385 46.9414 21.3641 46.9414 20.6557V17.3151C46.9414 13.5394 49.012 10.4678 51.5574 10.4678C54.1027 10.4678 56.1734 13.5394 56.1734 17.3151V20.6557C56.1734 21.3641 55.7863 21.9385 55.3086 21.9385ZM48.671 19.3728H54.4438V17.3151C54.4438 14.9541 53.149 13.0335 51.5574 13.0335C49.9657 13.0335 48.671 14.9541 48.671 17.3151V19.3728Z" fill="url(#paint14_linear_1808_4062)"/>
<path d="M64.5603 41.7171H54.0367C53.5591 41.7171 53.1719 41.1426 53.1719 40.4342V30.5524C53.1719 29.8439 53.5591 29.2695 54.0367 29.2695H62.2766C62.6462 29.2695 62.9748 29.6179 63.0948 30.1364L65.3787 40.0183C65.4693 40.4101 65.4267 40.8429 65.2644 41.1801C65.1018 41.5169 64.8397 41.7171 64.5603 41.7171ZM54.9015 39.1514H63.3498L61.6589 31.8352H54.9015V39.1514Z" fill="url(#paint15_linear_1808_4062)"/>
<path d="M51.5562 8.6246C51.0786 8.6246 50.6914 8.05019 50.6914 7.34175V4.28285C50.6914 3.57441 51.0786 3 51.5562 3C52.0338 3 52.421 3.57441 52.421 4.28285V7.34175C52.421 8.05019 52.0338 8.6246 51.5562 8.6246Z" fill="url(#paint16_linear_1808_4062)"/>
<path d="M54.9188 9.96063C54.7721 9.96063 54.6234 9.90509 54.4872 9.78858C54.0736 9.43421 53.9319 8.64972 54.1706 8.03606L55.2017 5.38707C55.4406 4.77372 55.9694 4.56363 56.3831 4.91739C56.7968 5.27176 56.9384 6.05626 56.6997 6.66991L55.6687 9.31891C55.5083 9.73063 55.2177 9.96063 54.9188 9.96063Z" fill="url(#paint17_linear_1808_4062)"/>
<path d="M57.3775 13.6115C57.0786 13.6115 56.788 13.3815 56.6277 12.9701C56.389 12.3564 56.5306 11.5719 56.9443 11.2176L58.73 9.6881C59.1435 9.33404 59.6726 9.54412 59.9114 10.1578C60.1501 10.7714 60.0085 11.5559 59.5948 11.9103L57.8091 13.4397C57.6729 13.556 57.5244 13.6115 57.3775 13.6115Z" fill="url(#paint18_linear_1808_4062)"/>
<path d="M48.1937 9.96074C47.8948 9.96074 47.6042 9.73073 47.4439 9.31931L46.4128 6.67031C46.1741 6.05666 46.3158 5.27216 46.7294 4.91779C47.1431 4.56343 47.672 4.77351 47.9108 5.38747L48.9419 8.03647C49.1806 8.65012 49.0389 9.43462 48.6253 9.78899C48.4889 9.9052 48.3404 9.96074 48.1937 9.96074Z" fill="url(#paint19_linear_1808_4062)"/>
<path d="M45.7321 13.6112C45.5854 13.6112 45.4367 13.5556 45.3005 13.4391L43.5146 11.9097C43.1009 11.5556 42.9593 10.7708 43.198 10.1572C43.4367 9.5435 43.9659 9.33372 44.3794 9.68748L46.1653 11.2169C46.579 11.571 46.7206 12.3558 46.482 12.9695C46.3216 13.3809 46.0308 13.6112 45.7321 13.6112Z" fill="url(#paint20_linear_1808_4062)"/>
<path d="M19.99 50.1684C19.8118 50.1684 19.6333 50.0865 19.4817 49.9233C19.1785 49.5963 19.0518 49.0177 19.1675 48.4889L20.7529 41.2515L16.6027 36.7788C16.2995 36.4519 16.1727 35.8732 16.2885 35.3444C16.4043 34.8159 16.7364 34.4579 17.111 34.4579H22.2409L23.8263 27.2205C23.942 26.692 24.2741 26.334 24.6487 26.334C25.0233 26.334 25.3554 26.692 25.4712 27.2205L27.0565 34.4579H32.1863C32.5609 34.4579 32.893 34.8159 33.0088 35.3444C33.1245 35.8729 32.9978 36.4519 32.6946 36.7788L28.5444 41.2515L30.1297 48.4889C30.2455 49.0174 30.1187 49.5963 29.8155 49.9233C29.5123 50.2498 29.1019 50.2498 28.7989 49.9233L24.6487 45.4502L20.4985 49.9233C20.3467 50.0865 20.1683 50.1684 19.99 50.1684ZM19.7725 37.0239L22.2778 39.7239C22.5809 40.0508 22.7077 40.6294 22.5919 41.1582L21.635 45.5269L24.1402 42.8268C24.4432 42.5002 24.8538 42.5002 25.1568 42.8268L27.6621 45.5269L26.7051 41.1582C26.5893 40.6297 26.7161 40.0508 27.0193 39.7239L29.5245 37.0239H26.428C26.0534 37.0239 25.7213 36.6659 25.6055 36.1373L24.6485 31.7684L23.6915 36.1373C23.5758 36.6659 23.2437 37.0239 22.8691 37.0239H19.7725Z" fill="url(#paint21_linear_1808_4062)"/>
<path d="M68.0875 76.9998H9.44683C8.96926 76.9998 8.58203 76.4254 8.58203 75.7169C8.58203 75.0085 8.96926 74.4341 9.44683 74.4341H68.0875C68.5651 74.4341 68.9523 75.0085 68.9523 75.7169C68.9523 76.4254 68.5653 76.9998 68.0875 76.9998Z" fill="url(#paint22_linear_1808_4062)"/>
<defs>
<linearGradient id="paint0_linear_1808_4062" x1="11.1057" y1="6.07031" x2="11.1057" y2="8.636" gradientUnits="userSpaceOnUse">
<stop stop-color="#9747FF"/>
<stop offset="1" stop-color="#4B9ADB"/>
</linearGradient>
<linearGradient id="paint1_linear_1808_4062" x1="73.3486" y1="31.8296" x2="73.3486" y2="34.3953" gradientUnits="userSpaceOnUse">
<stop stop-color="#9747FF"/>
<stop offset="1" stop-color="#4B9ADB"/>
</linearGradient>
<linearGradient id="paint2_linear_1808_4062" x1="58.0521" y1="24.8394" x2="58.0521" y2="59.1019" gradientUnits="userSpaceOnUse">
<stop stop-color="#9747FF"/>
<stop offset="1" stop-color="#4B9ADB"/>
</linearGradient>
<linearGradient id="paint3_linear_1808_4062" x1="24.6472" y1="17.4019" x2="24.6472" y2="59.1019" gradientUnits="userSpaceOnUse">
<stop stop-color="#9747FF"/>
<stop offset="1" stop-color="#4B9ADB"/>
</linearGradient>
<linearGradient id="paint4_linear_1808_4062" x1="38.7651" y1="56.5366" x2="38.7651" y2="59.1023" gradientUnits="userSpaceOnUse">
<stop stop-color="#9747FF"/>
<stop offset="1" stop-color="#4B9ADB"/>
</linearGradient>
<linearGradient id="paint5_linear_1808_4062" x1="38.7675" y1="67.5264" x2="38.7675" y2="70.0921" gradientUnits="userSpaceOnUse">
<stop stop-color="#9747FF"/>
<stop offset="1" stop-color="#4B9ADB"/>
</linearGradient>
<linearGradient id="paint6_linear_1808_4062" x1="7.94968" y1="56.5366" x2="7.94968" y2="70.0925" gradientUnits="userSpaceOnUse">
<stop stop-color="#9747FF"/>
<stop offset="1" stop-color="#4B9ADB"/>
</linearGradient>
<linearGradient id="paint7_linear_1808_4062" x1="69.3719" y1="56.5366" x2="69.3719" y2="70.0925" gradientUnits="userSpaceOnUse">
<stop stop-color="#9747FF"/>
<stop offset="1" stop-color="#4B9ADB"/>
</linearGradient>
<linearGradient id="paint8_linear_1808_4062" x1="17.3892" y1="53.0146" x2="17.3892" y2="76.9999" gradientUnits="userSpaceOnUse">
<stop stop-color="#9747FF"/>
<stop offset="1" stop-color="#4B9ADB"/>
</linearGradient>
<linearGradient id="paint9_linear_1808_4062" x1="70.6504" y1="50.4287" x2="70.6504" y2="52.9944" gradientUnits="userSpaceOnUse">
<stop stop-color="#9747FF"/>
<stop offset="1" stop-color="#4B9ADB"/>
</linearGradient>
<linearGradient id="paint10_linear_1808_4062" x1="17.3853" y1="59.9219" x2="17.3853" y2="70.0929" gradientUnits="userSpaceOnUse">
<stop stop-color="#9747FF"/>
<stop offset="1" stop-color="#4B9ADB"/>
</linearGradient>
<linearGradient id="paint11_linear_1808_4062" x1="60.147" y1="53.0146" x2="60.147" y2="76.9999" gradientUnits="userSpaceOnUse">
<stop stop-color="#9747FF"/>
<stop offset="1" stop-color="#4B9ADB"/>
</linearGradient>
<linearGradient id="paint12_linear_1808_4062" x1="60.147" y1="59.9219" x2="60.147" y2="70.0929" gradientUnits="userSpaceOnUse">
<stop stop-color="#9747FF"/>
<stop offset="1" stop-color="#4B9ADB"/>
</linearGradient>
<linearGradient id="paint13_linear_1808_4062" x1="51.5548" y1="19.373" x2="51.5548" y2="27.4067" gradientUnits="userSpaceOnUse">
<stop stop-color="#9747FF"/>
<stop offset="1" stop-color="#4B9ADB"/>
</linearGradient>
<linearGradient id="paint14_linear_1808_4062" x1="51.5574" y1="10.4678" x2="51.5574" y2="21.9385" gradientUnits="userSpaceOnUse">
<stop stop-color="#9747FF"/>
<stop offset="1" stop-color="#4B9ADB"/>
</linearGradient>
<linearGradient id="paint15_linear_1808_4062" x1="59.2987" y1="29.2695" x2="59.2987" y2="41.7171" gradientUnits="userSpaceOnUse">
<stop stop-color="#9747FF"/>
<stop offset="1" stop-color="#4B9ADB"/>
</linearGradient>
<linearGradient id="paint16_linear_1808_4062" x1="51.5562" y1="3" x2="51.5562" y2="8.6246" gradientUnits="userSpaceOnUse">
<stop stop-color="#9747FF"/>
<stop offset="1" stop-color="#4B9ADB"/>
</linearGradient>
<linearGradient id="paint17_linear_1808_4062" x1="55.4352" y1="4.74561" x2="55.4352" y2="9.96063" gradientUnits="userSpaceOnUse">
<stop stop-color="#9747FF"/>
<stop offset="1" stop-color="#4B9ADB"/>
</linearGradient>
<linearGradient id="paint18_linear_1808_4062" x1="58.2696" y1="9.51611" x2="58.2696" y2="13.6115" gradientUnits="userSpaceOnUse">
<stop stop-color="#9747FF"/>
<stop offset="1" stop-color="#4B9ADB"/>
</linearGradient>
<linearGradient id="paint19_linear_1808_4062" x1="47.6774" y1="4.74561" x2="47.6774" y2="9.96074" gradientUnits="userSpaceOnUse">
<stop stop-color="#9747FF"/>
<stop offset="1" stop-color="#4B9ADB"/>
</linearGradient>
<linearGradient id="paint20_linear_1808_4062" x1="44.84" y1="9.51562" x2="44.84" y2="13.6112" gradientUnits="userSpaceOnUse">
<stop stop-color="#9747FF"/>
<stop offset="1" stop-color="#4B9ADB"/>
</linearGradient>
<linearGradient id="paint21_linear_1808_4062" x1="24.6486" y1="26.334" x2="24.6486" y2="50.1684" gradientUnits="userSpaceOnUse">
<stop stop-color="#9747FF"/>
<stop offset="1" stop-color="#4B9ADB"/>
</linearGradient>
<linearGradient id="paint22_linear_1808_4062" x1="38.7672" y1="74.4341" x2="38.7672" y2="76.9998" gradientUnits="userSpaceOnUse">
<stop stop-color="#9747FF"/>
<stop offset="1" stop-color="#4B9ADB"/>
</linearGradient>
</defs>
</svg>
