<svg width="80" height="80" viewBox="0 0 80 80" fill="none" xmlns="http://www.w3.org/2000/svg">
<path d="M22.5731 28.4043C22.5731 24.0303 19.0125 20.4715 14.6359 20.4715C10.2594 20.4715 6.70328 24.0301 6.70328 28.4043C6.70328 32.7786 10.2617 36.3414 14.6359 36.3414C19.0102 36.3414 22.5731 32.7809 22.5731 28.4043ZM8.89156 28.4043C8.89156 25.2368 11.4684 22.6596 14.6361 22.6596C17.8038 22.6596 20.3852 25.2367 20.3852 28.4043C20.3852 31.572 17.8061 34.1532 14.6361 34.1532C11.4661 34.1532 8.89156 31.5743 8.89156 28.4043ZM41.4145 19.1298C41.4145 18.5256 41.9044 18.0357 42.5086 18.0357H56.7969C57.4011 18.0357 57.8909 18.5256 57.8909 19.1298C57.8909 19.734 57.4011 20.2239 56.7969 20.2239H42.5086C41.9044 20.2239 41.4145 19.734 41.4145 19.1298ZM28.6675 27.5318C28.6675 26.9276 29.1573 26.4378 29.7616 26.4378H56.7969C57.4011 26.4378 57.8909 26.9276 57.8909 27.5318C57.8909 28.1361 57.4011 28.6259 56.7969 28.6259H29.7616C29.1573 28.6259 28.6675 28.1361 28.6675 27.5318ZM28.6675 35.9293C28.6675 35.3251 29.1573 34.8353 29.7616 34.8353H56.7969C57.4011 34.8353 57.8909 35.3251 57.8909 35.9293C57.8909 36.5336 57.4011 37.0234 56.7969 37.0234H29.7616C29.1573 37.0234 28.6675 36.5336 28.6675 35.9293ZM28.6675 44.327C28.6675 43.7228 29.1573 43.2329 29.7616 43.2329H45.4717C46.0759 43.2329 46.5658 43.7228 46.5658 44.327C46.5658 44.9312 46.0759 45.4211 45.4717 45.4211H29.7616C29.1573 45.4211 28.6675 44.9312 28.6675 44.327ZM75.4569 54.009H74.015C73.8164 53.4315 73.5817 52.8648 73.3123 52.3132L74.3283 51.2945C74.9205 50.7053 75.2475 49.9186 75.2487 49.0789C75.25 48.2368 74.9238 47.4465 74.3305 46.8529L71.89 44.4125C70.6694 43.1922 68.6791 43.1907 67.4494 44.4137L67.438 44.4251V7.76902C67.438 7.16605 66.9492 6.6773 66.3463 6.6773H54.8572V3.49934C54.8572 2.89512 54.3673 2.40527 53.7631 2.40527H27.1219C26.5177 2.40527 26.0278 2.89512 26.0278 3.49934V6.6773H14.5431C13.9402 6.6773 13.4514 7.16605 13.4514 7.76902V15.5009C13.128 15.6962 12.8545 15.9723 12.66 16.314L12.52 16.5532C12.1202 17.2443 11.235 17.4825 10.5514 17.0871L10.3058 16.9434C9.5925 16.537 8.74031 16.537 8.01844 16.9482C7.30328 17.364 6.87625 18.1051 6.87625 18.9306V19.2007C6.87625 19.997 6.22859 20.6445 5.4325 20.6445H5.16234C4.33703 20.6445 3.59594 21.0715 3.17531 21.795C2.76875 22.5084 2.76875 23.3604 3.18156 24.0845L3.31641 24.3151C3.71453 25.0031 3.47609 25.8882 2.78047 26.2911L2.55687 26.422C1.83641 26.8323 1.40625 27.5734 1.40625 28.4045C1.40625 29.2356 1.83641 29.9812 2.54578 30.3851L2.785 30.5251C3.47422 30.9242 3.71188 31.8104 3.31891 32.4939L3.17516 32.7396C2.76875 33.4531 2.76875 34.3051 3.17984 35.0265C3.59547 35.7418 4.33656 36.169 5.16219 36.169H5.43234C6.22859 36.169 6.87609 36.8167 6.87609 37.6128V37.8829C6.87609 38.7084 7.30313 39.4495 8.02625 39.8696C8.40688 40.0867 8.82672 40.1867 9.24562 40.1714V51.467C9.24562 51.8931 9.49297 52.2803 9.87953 52.4595C10.0264 52.5278 10.1834 52.5611 10.3395 52.5611C10.5936 52.5611 10.8448 52.4726 11.0464 52.3021L13.4513 50.2668V69.5245C13.4513 70.1275 13.94 70.6162 14.543 70.6162H45.173C45.2481 70.7112 45.3278 70.8039 45.4155 70.8917L47.8561 73.3322C49.0787 74.5548 51.0683 74.5545 52.2909 73.3322L53.3111 72.3118C53.8613 72.582 54.428 72.8175 55.0073 73.0168V74.4542C55.0073 76.1857 56.4161 77.5947 58.1477 77.5947H61.598C63.3295 77.5947 64.7384 76.1857 64.7384 74.4542V73.0165C65.3147 72.8179 65.8809 72.5823 66.433 72.3117L67.4527 73.3343C68.6787 74.5537 70.6694 74.5523 71.8898 73.3322L74.3303 70.8915C75.5541 69.6676 75.5541 67.6762 74.3303 66.4521L73.312 65.4339C73.5817 64.8803 73.8166 64.3128 74.015 63.7357H75.4569C77.1859 63.7357 78.5927 62.3289 78.5927 60.5998V57.1497C78.5927 55.4181 77.1859 54.0092 75.4569 54.0092V54.009ZM28.2158 4.59324H52.6689V10.9401H28.2158V4.59324ZM9.11766 37.9731C9.07109 37.9461 9.06406 37.9286 9.06406 37.8826V37.6125C9.06406 35.61 7.43469 33.9806 5.43219 33.9806H5.16203C5.11609 33.9806 5.09859 33.9736 5.07625 33.9351C5.05031 33.8898 5.05047 33.8676 5.06984 33.8334L5.21125 33.5915C6.20828 31.8579 5.61141 29.6329 3.88531 28.6339L3.63953 28.4901C3.60719 28.4717 3.59422 28.4618 3.59422 28.4043C3.59422 28.3554 3.60328 28.3436 3.65062 28.3165L3.88094 28.1818C5.61609 27.1773 6.21234 24.9511 5.20734 23.2148L5.07625 22.9906C5.05031 22.9453 5.05031 22.9231 5.07141 22.8861C5.09859 22.8393 5.11609 22.8323 5.16203 22.8323H5.43219C7.43469 22.8323 9.06406 21.2029 9.06406 19.2004V18.9303C9.06406 18.8842 9.07109 18.8667 9.10953 18.8443C9.15469 18.8184 9.17656 18.8184 9.21125 18.8379L9.45047 18.9779C11.183 19.9809 13.4094 19.3843 14.4106 17.6534L14.5544 17.4078C14.575 17.3715 14.5867 17.3623 14.6358 17.3623C14.6934 17.3623 14.7034 17.3754 14.7278 17.4182L14.8627 17.649C15.867 19.3842 18.0938 19.9804 19.8297 18.9754L20.0539 18.8443C20.0992 18.8182 20.1214 18.8186 20.1581 18.8393C20.2052 18.8667 20.2122 18.8842 20.2122 18.9303V19.2004C20.2122 21.2029 21.8416 22.8323 23.8441 22.8323H24.1142C24.1602 22.8323 24.1777 22.8393 24.2 22.8778C24.2259 22.9231 24.2259 22.9453 24.2062 22.9798L24.0664 23.2189C23.0639 24.9509 23.66 27.1773 25.3909 28.179L25.6366 28.3228C25.6728 28.3434 25.682 28.3551 25.682 28.4042C25.682 28.4617 25.6689 28.4715 25.6256 28.4964L25.3955 28.6311C24.558 29.1157 23.958 29.899 23.7059 30.837C23.4534 31.7768 23.5814 32.7557 24.0691 33.5984L24.2 33.822C24.2258 33.8675 24.2259 33.8896 24.2047 33.9268C24.1777 33.9734 24.1602 33.9804 24.1142 33.9804H23.8441C21.8416 33.9804 20.2122 35.6098 20.2122 37.6123V37.8825C20.2122 37.9284 20.2052 37.9459 20.1664 37.9684C20.1216 37.9939 20.0995 37.994 20.0642 37.9742L19.8258 37.8348C18.0936 36.832 15.8673 37.4281 14.865 39.1598L14.722 39.4045C14.7036 39.437 14.6938 39.4501 14.6359 39.4501C14.5847 39.4501 14.5741 39.4392 14.5483 39.3942L14.4134 39.1636C13.9288 38.3262 13.1455 37.7262 12.2077 37.4742C11.8928 37.3896 11.5736 37.3476 11.2567 37.3476C10.8089 37.3476 10.3658 37.4329 9.94547 37.5979C9.93375 37.6025 9.92156 37.6064 9.91 37.6114C9.75188 37.6754 9.59688 37.75 9.44641 37.837L9.22187 37.9682C9.17687 37.9942 9.15469 37.994 9.1175 37.9728L9.11766 37.9731ZM11.4336 39.5492C11.5025 39.5575 11.5714 39.5692 11.6397 39.5875C12.0144 39.6882 12.3269 39.927 12.522 40.264L12.6531 40.4882C13.0636 41.2084 13.8047 41.6386 14.6356 41.6386C15.4666 41.6386 16.212 41.2086 16.6169 40.4984L16.7563 40.26C16.9339 39.9531 17.2141 39.7278 17.5502 39.6151V49.1093L15.1959 47.119C14.7878 46.7739 14.1906 46.7742 13.7828 47.1193L11.4336 49.1078V39.5492ZM15.6347 50.355L17.938 52.3021C18.2631 52.5771 18.7183 52.6384 19.1048 52.459C19.4913 52.28 19.7384 51.8926 19.7384 51.4667V40.1422C20.2505 40.2271 20.7827 40.1357 21.2581 39.8646C21.9733 39.449 22.4005 38.7079 22.4005 37.8825V37.6123C22.4005 36.8161 23.0481 36.1686 23.8442 36.1686H24.1144C24.9398 36.1686 25.6809 35.7415 26.1014 35.0181C26.5078 34.3048 26.5078 33.4528 26.095 32.7282L25.9603 32.4981C25.7687 32.1671 25.7188 31.7789 25.8192 31.405C25.9202 31.0301 26.1588 30.7176 26.4963 30.5223L26.72 30.3914C27.4403 29.9809 27.8705 29.2381 27.8705 28.4043C27.8705 27.5706 27.4403 26.8321 26.7309 26.4282L26.4919 26.2882C25.8006 25.8881 25.5623 25.0029 25.958 24.3192L26.1016 24.0737C26.5081 23.3603 26.5081 22.5082 26.0967 21.7865C25.6811 21.0714 24.94 20.6442 24.1145 20.6442H23.8444C23.0481 20.6442 22.4006 19.9965 22.4006 19.2004V18.9303C22.4006 18.1051 21.9738 17.3642 21.2502 16.9431C20.5369 16.5365 19.6845 16.5367 18.9606 16.9493L18.73 17.0842C18.042 17.4825 17.1569 17.244 16.7544 16.5487L16.623 16.3242C16.3878 15.9114 16.0431 15.5946 15.635 15.3989V8.86043H26.028V12.034C26.028 12.6382 26.5178 13.1281 27.122 13.1281H53.7633C54.3675 13.1281 54.8573 12.6382 54.8573 12.034V8.86043H65.2547V44.9192C65.0841 44.8532 64.9125 44.7895 64.7388 44.7295V43.2903C64.7388 41.5587 63.3298 40.1498 61.5983 40.1498H58.148C56.4164 40.1498 55.0077 41.5587 55.0077 43.2903V44.7276C54.4283 44.9268 53.8616 45.1625 53.3114 45.4326L52.2913 44.4123C51.7011 43.8223 50.9138 43.4973 50.0738 43.4973C49.2338 43.4973 48.4464 43.8223 47.8564 44.4123L45.4159 46.8528C44.8225 47.4462 44.4964 48.2367 44.4977 49.0787C44.4989 49.9184 44.8258 50.7053 45.4148 51.2911L45.7531 51.6303H29.7619C29.1577 51.6303 28.6678 52.1201 28.6678 52.7243C28.6678 53.3286 29.1577 53.8184 29.7619 53.8184H45.7998C45.777 53.8818 45.753 53.945 45.7311 54.0087H44.2894C42.5603 54.0087 41.1534 55.4176 41.1534 57.1492V60.0325H29.7619C29.1577 60.0325 28.6678 60.5223 28.6678 61.1265C28.6678 61.7307 29.1577 62.2206 29.7619 62.2206H41.6102C42.1606 63.1267 43.1541 63.7353 44.2894 63.7353H45.7311C45.9297 64.3123 46.1645 64.88 46.4342 65.4334L45.4158 66.4517C44.8647 67.0029 44.5639 67.71 44.5092 68.4323H15.6347V50.3546V50.355ZM76.4045 60.5996C76.4045 61.1225 75.9794 61.5475 75.4569 61.5475H73.2113C72.7211 61.5475 72.2908 61.8734 72.1581 62.3451C71.8903 63.2972 71.5058 64.2267 71.0153 65.1079C70.7777 65.535 70.852 66.0681 71.1978 66.4136L72.7833 67.9989C73.1541 68.3698 73.1541 68.9732 72.7833 69.344L70.343 71.7845C69.9794 72.1478 69.3625 72.1468 68.9987 71.7857L67.4133 70.1956C67.0667 69.8481 66.5311 69.774 66.1031 70.014C65.2256 70.5065 64.2986 70.892 63.348 71.1597C62.8763 71.2925 62.5505 71.7228 62.5505 72.2126V74.4537C62.5505 74.9789 62.1234 75.4061 61.5981 75.4061H58.1478C57.6228 75.4061 57.1956 74.979 57.1956 74.4537V72.2126C57.1956 71.7226 56.8697 71.2923 56.3981 71.1597C55.4392 70.8895 54.513 70.5046 53.645 70.0151C53.4767 69.9203 53.2916 69.874 53.1078 69.874C52.8247 69.874 52.5447 69.9839 52.3339 70.1945L50.7439 71.7847C50.3805 72.1478 49.7664 72.1478 49.4033 71.7847L46.9628 69.3442C46.5919 68.9734 46.5919 68.37 46.9628 67.9992L48.5484 66.4137C48.8942 66.0681 48.9684 65.5351 48.7309 65.1081C48.2405 64.227 47.8558 63.2973 47.5878 62.3451C47.455 61.8734 47.0247 61.5476 46.5348 61.5476H44.2894C43.7666 61.5476 43.3416 61.1225 43.3416 60.5998V57.1497C43.3416 56.6245 43.7667 56.1973 44.2894 56.1973H46.5348C47.0248 56.1973 47.4552 55.8714 47.5878 55.3998C47.8567 54.4451 48.2409 53.5176 48.73 52.6431C48.9686 52.2164 48.8952 51.6829 48.5498 51.3367L46.9608 49.7434C46.7836 49.5672 46.6858 49.3303 46.6855 49.0761C46.685 48.8197 46.7836 48.5798 46.963 48.4006L49.4034 45.9601C49.7666 45.5968 50.3808 45.5965 50.7439 45.9601L52.3341 47.5503C52.6816 47.8975 53.2172 47.9706 53.6452 47.7295C54.5131 47.24 55.4394 46.855 56.3983 46.585C56.87 46.4521 57.1958 46.0218 57.1958 45.532V43.2909C57.1958 42.7657 57.6228 42.3386 58.148 42.3386H61.5983C62.1234 42.3386 62.5506 42.7656 62.5506 43.2909V45.532C62.5506 46.0204 62.8744 46.4496 63.3441 46.5839C64.3202 46.8628 65.248 47.2482 66.1012 47.7295C66.5294 47.9709 67.0663 47.8972 67.4133 47.549L68.9956 45.9623C69.3622 45.5976 69.9794 45.5964 70.3428 45.9601L72.7833 48.4004C72.9625 48.5798 73.0611 48.8198 73.0606 49.0761C73.0603 49.3303 72.9625 49.5673 72.7822 49.7465L71.1966 51.3367C70.8512 51.6831 70.7777 52.2164 71.0164 52.6431C71.5055 53.5178 71.8897 54.4451 72.1583 55.3997C72.2911 55.8715 72.7214 56.1973 73.2114 56.1973H75.457C75.9797 56.1973 76.4047 56.6243 76.4047 57.1497V60.5998L76.4045 60.5996ZM59.8708 47.9145C53.8286 47.9145 48.913 52.8301 48.913 58.8723C48.913 64.9145 53.8286 69.8301 59.8708 69.8301C65.913 69.8301 70.8328 64.9145 70.8328 58.8723C70.8328 52.8301 65.9152 47.9145 59.8708 47.9145ZM59.8708 67.642C55.0352 67.642 51.1011 63.7079 51.1011 58.8723C51.1011 54.0367 55.0352 50.1026 59.8708 50.1026C64.7064 50.1026 68.6447 54.0367 68.6447 58.8723C68.6447 63.7079 64.7088 67.642 59.8708 67.642ZM66.0213 54.2322C66.4484 54.6593 66.4484 55.3522 66.0213 55.7793L58.2881 63.5125C58.0745 63.7261 57.7945 63.8329 57.5145 63.8329C57.2345 63.8329 56.9552 63.7262 56.7416 63.5131L53.7252 60.5014C53.2977 60.0745 53.2972 59.3817 53.7239 58.9542C54.1509 58.527 54.8434 58.5261 55.2711 58.9529L57.5139 61.1923L64.4741 54.2322C64.9012 53.805 65.5941 53.805 66.0213 54.2322ZM28.6675 19.1298C28.6675 18.5256 29.1573 18.0357 29.7616 18.0357H38.5356C39.1398 18.0357 39.6297 18.5256 39.6297 19.1298C39.6297 19.734 39.1398 20.2239 38.5356 20.2239H29.7616C29.1573 20.2239 28.6675 19.734 28.6675 19.1298Z" fill="url(#paint0_linear_1782_3068)"/>
<defs>
<linearGradient id="paint0_linear_1782_3068" x1="39.9995" y1="2.40527" x2="39.9995" y2="77.5947" gradientUnits="userSpaceOnUse">
<stop stop-color="#9747FF"/>
<stop offset="1" stop-color="#4B9ADB"/>
</linearGradient>
</defs>
</svg>
