<svg width="80" height="80" viewBox="0 0 80 80" fill="none" xmlns="http://www.w3.org/2000/svg">
<path d="M77.5 31.25H53.75V13.75C53.7499 13.4185 53.6182 13.1006 53.3838 12.8663L42.3075 1.79C42.1925 1.62344 42.0389 1.48727 41.8597 1.39321C41.6805 1.29915 41.4811 1.25001 41.2787 1.25H2.5C2.16848 1.25 1.85054 1.3817 1.61612 1.61612C1.3817 1.85054 1.25 2.16848 1.25 2.5V77.5C1.25 77.8315 1.3817 78.1495 1.61612 78.3839C1.85054 78.6183 2.16848 78.75 2.5 78.75H77.5C77.8315 78.75 78.1495 78.6183 78.3839 78.3839C78.6183 78.1495 78.75 77.8315 78.75 77.5V32.5C78.75 32.1685 78.6183 31.8505 78.3839 31.6161C78.1495 31.3817 77.8315 31.25 77.5 31.25ZM42.5 5.5175L49.4825 12.5H42.5V5.5175ZM26.25 32.5V76.25H3.75V3.75H40V13.75C40 14.0815 40.1317 14.3995 40.3661 14.6339C40.6005 14.8683 40.9185 15 41.25 15H51.25V31.25H27.5C27.1685 31.25 26.8505 31.3817 26.6161 31.6161C26.3817 31.8505 26.25 32.1685 26.25 32.5ZM76.25 76.25H28.75V33.75H76.25V76.25Z" fill="#393939"/>
<path d="M11.25 8.75H30V11.25H11.25V8.75Z" fill="#393939"/>
<path d="M32.5 8.75H37.5V11.25H32.5V8.75Z" fill="#393939"/>
<path d="M6.25 13.75H37.5V16.25H6.25V13.75Z" fill="#393939"/>
<path d="M6.25 18.75H48.75V21.25H6.25V18.75Z" fill="#393939"/>
<path d="M6.25 61.25H23.75V63.75H6.25V61.25Z" fill="#393939"/>
<path d="M6.25 56.25H23.75V58.75H6.25V56.25Z" fill="#393939"/>
<path d="M6.25 66.25H23.75V68.75H6.25V66.25Z" fill="#393939"/>
<path d="M52.4988 72.5C55.8538 72.5051 59.1393 71.5443 61.9629 69.7323C64.7864 67.9203 67.0287 65.3337 68.4217 62.2816C69.8148 59.2295 70.2997 55.8409 69.8187 52.5206C69.3376 49.2003 67.9108 46.0887 65.7088 43.5575L70.8825 38.3837L69.115 36.6162L63.9413 41.79C61.807 39.9412 59.2568 38.6367 56.5086 37.9879C53.7605 37.3391 50.8961 37.3653 48.1603 38.0643C45.4245 38.7634 42.8987 40.1143 40.7986 42.0019C38.6985 43.8894 37.0866 46.2574 36.1007 48.9033C35.1148 51.5493 34.7842 54.3947 35.1372 57.1962C35.4901 59.9977 36.5161 62.6722 38.1275 64.9909C39.7389 67.3097 41.8877 69.2038 44.3904 70.5115C46.893 71.8191 49.6751 72.5014 52.4988 72.5ZM52.4988 40C56.0441 39.9989 59.4742 41.2595 62.175 43.5562L59.5125 46.2187C57.2606 44.4186 54.4049 43.5492 51.5319 43.789C48.6589 44.0288 45.9869 45.3596 44.0646 47.5082C42.1423 49.6567 41.1157 52.4598 41.1957 55.3417C41.2757 58.2235 42.4563 60.9653 44.4948 63.0039C46.5334 65.0425 49.2752 66.223 52.1571 66.303C55.0389 66.383 57.842 65.3565 59.9905 63.4342C62.1391 61.5119 63.47 58.8398 63.7098 55.9668C63.9496 53.0939 63.0801 50.2381 61.28 47.9862L63.9425 45.3237C66.1435 47.9329 67.3879 51.2152 67.4698 54.6278C67.5518 58.0403 66.4663 61.3786 64.393 64.0904C62.3198 66.8021 59.3829 68.7249 56.0683 69.5407C52.7537 70.3564 49.2599 70.0163 46.1649 68.5765C43.0699 67.1366 40.5591 64.6834 39.0479 61.6226C37.5367 58.5618 37.1156 55.0769 37.8543 51.7442C38.5929 48.4116 40.4471 45.431 43.1101 43.2954C45.773 41.1598 49.0853 39.9972 52.4988 40ZM61.2488 55C61.2561 56.98 60.5943 58.9045 59.3707 60.4612C58.1471 62.018 56.4335 63.1157 54.5078 63.5764C52.5821 64.0371 50.5572 63.8337 48.7616 62.9993C46.9659 62.1648 45.5048 60.7482 44.6153 58.9792C43.7257 57.2102 43.4599 55.1926 43.8608 53.2535C44.2618 51.3145 45.3061 49.5678 46.8243 48.2967C48.3425 47.0256 50.2456 46.3046 52.2249 46.2508C54.2042 46.1969 56.1437 46.8133 57.7288 48L55.94 49.7887C54.6443 48.9311 53.0762 48.5853 51.54 48.8183C50.0037 49.0513 48.6087 49.8466 47.6256 51.0499C46.6425 52.2532 46.1413 53.7787 46.2192 55.3306C46.2972 56.8825 46.9487 58.3501 48.0474 59.4488C49.1461 60.5476 50.6138 61.1991 52.1657 61.277C53.7175 61.3549 55.2431 60.8538 56.4464 59.8706C57.6496 58.8875 58.4449 57.4925 58.6779 55.9563C58.911 54.42 58.5651 52.8519 57.7075 51.5562L59.4988 49.77C60.6344 51.2771 61.2487 53.1129 61.2488 55ZM56.2488 55C56.2488 55.7416 56.0288 56.4667 55.6168 57.0833C55.2047 57.7 54.6191 58.1807 53.9338 58.4645C53.2486 58.7483 52.4946 58.8226 51.7672 58.6779C51.0398 58.5332 50.3716 58.1761 49.8471 57.6516C49.3227 57.1272 48.9655 56.459 48.8208 55.7315C48.6761 55.0041 48.7504 54.2501 49.0342 53.5649C49.3181 52.8797 49.7987 52.294 50.4154 51.882C51.0321 51.4699 51.7571 51.25 52.4988 51.25C53.0556 51.2521 53.6048 51.3803 54.105 51.625L51.615 54.115L53.3825 55.8825L55.8738 53.3937C56.1184 53.894 56.2466 54.4431 56.2488 55Z" fill="#393939"/>
<path d="M7.5 37.5H17.5C17.8315 37.5 18.1495 37.3683 18.3839 37.1338C18.6183 36.8994 18.75 36.5815 18.75 36.25V28.0175L22.1338 24.6337L20.3662 22.8662L18.075 25.1575C17.8993 25.0581 17.7018 25.004 17.5 25H7.5C7.16848 25 6.85054 25.1317 6.61612 25.3661C6.3817 25.6005 6.25 25.9184 6.25 26.25V36.25C6.25 36.5815 6.3817 36.8994 6.61612 37.1338C6.85054 37.3683 7.16848 37.5 7.5 37.5ZM8.75 27.5H15.7325L12.5 30.7325L10.8837 29.1162L9.11625 30.8837L11.6163 33.3837C11.8507 33.6181 12.1685 33.7497 12.5 33.7497C12.8315 33.7497 13.1493 33.6181 13.3837 33.3837L16.25 30.5175V35H8.75V27.5Z" fill="#393939"/>
<path d="M7.5 52.5H17.5C17.8315 52.5 18.1495 52.3683 18.3839 52.1338C18.6183 51.8994 18.75 51.5815 18.75 51.25V43.0175L22.1338 39.6337L20.3662 37.8662L18.075 40.1575C17.8993 40.0581 17.7018 40.004 17.5 40H7.5C7.16848 40 6.85054 40.1317 6.61612 40.3661C6.3817 40.6005 6.25 40.9184 6.25 41.25V51.25C6.25 51.5815 6.3817 51.8994 6.61612 52.1338C6.85054 52.3683 7.16848 52.5 7.5 52.5ZM8.75 42.5H15.7325L12.5 45.7325L10.8837 44.1162L9.11625 45.8837L11.6163 48.3837C11.8507 48.6181 12.1685 48.7497 12.5 48.7497C12.8315 48.7497 13.1493 48.6181 13.3837 48.3837L16.25 45.5175V50H8.75V42.5Z" fill="#393939"/>
</svg>
