<svg width="80" height="80" viewBox="0 0 80 80" fill="none" xmlns="http://www.w3.org/2000/svg">
<mask id="path-1-inside-1_1782_3089" fill="white">
<path d="M60.8312 70.275C60.441 70.275 60.1044 69.9823 60.0572 69.5856C59.8329 67.6848 61.1255 66.4506 62.1646 65.4604C62.3109 65.3206 62.4556 65.1823 62.5938 65.0441C63.4003 64.2425 64.1337 63.5189 64.802 62.862C68.054 59.6571 69.6865 58.049 70.415 56.5124C71.1174 55.0295 71.0329 53.4051 70.8654 50.171C70.7581 48.1108 70.6264 45.5466 70.6264 41.9807V31.8295C70.6264 30.1612 69.2686 28.8035 67.6003 28.8035C66.7971 28.8035 66.0377 29.1189 65.4637 29.6929C64.8898 30.2669 64.5743 31.0246 64.5743 31.8295V45.5791C64.9678 45.7661 65.3304 46.0214 65.6459 46.3384C66.3776 47.0702 66.7808 48.0458 66.7808 49.0864C66.7808 50.1271 66.3776 51.1027 65.6459 51.8344L59.1825 58.2978C58.8768 58.6019 58.3841 58.6019 58.0784 58.2978C57.7743 57.9921 57.7743 57.4994 58.0784 57.1937L64.5418 50.7303C65.4491 49.823 65.4491 48.3482 64.5418 47.4425C64.2751 47.1758 63.9532 46.9823 63.602 46.8718C63.5808 46.8669 63.5581 46.8604 63.5369 46.8523C63.332 46.7937 63.1174 46.7645 62.8963 46.7645C62.2735 46.7645 61.6881 47.0051 61.2524 47.4425L54.789 53.9059C53.8507 54.8441 52.9516 55.675 52.08 56.4767C47.9857 60.2539 45.2816 62.7498 46.4768 69.3547C46.5532 69.7791 46.2719 70.1856 45.8475 70.262C45.4231 70.3368 45.0166 70.0571 44.9402 69.6328C43.5922 62.1823 46.8703 59.158 51.0215 55.3287C51.88 54.5368 52.7678 53.7173 53.6849 52.8002L60.1483 46.3368C60.906 45.5775 61.9353 45.171 63.0117 45.2035V31.8262C63.0117 30.6051 63.4898 29.4539 64.3581 28.5856C65.2264 27.7173 66.3776 27.2393 67.5987 27.2393C70.1288 27.2393 72.1857 29.2978 72.1857 31.8262V41.9775C72.1857 45.5027 72.3174 48.0458 72.4231 50.088C72.7841 57.0458 72.6621 57.3059 65.8963 63.971C65.2312 64.6263 64.4995 65.3482 63.6946 66.1482C63.5483 66.2945 63.3955 66.4393 63.241 66.5872C62.1418 67.636 61.4833 68.3482 61.6068 69.4002C61.6572 69.8279 61.3516 70.2165 60.9223 70.2669C60.893 70.2734 60.8621 70.275 60.8312 70.275Z"/>
</mask>
<path d="M60.8312 70.275C60.441 70.275 60.1044 69.9823 60.0572 69.5856C59.8329 67.6848 61.1255 66.4506 62.1646 65.4604C62.3109 65.3206 62.4556 65.1823 62.5938 65.0441C63.4003 64.2425 64.1337 63.5189 64.802 62.862C68.054 59.6571 69.6865 58.049 70.415 56.5124C71.1174 55.0295 71.0329 53.4051 70.8654 50.171C70.7581 48.1108 70.6264 45.5466 70.6264 41.9807V31.8295C70.6264 30.1612 69.2686 28.8035 67.6003 28.8035C66.7971 28.8035 66.0377 29.1189 65.4637 29.6929C64.8898 30.2669 64.5743 31.0246 64.5743 31.8295V45.5791C64.9678 45.7661 65.3304 46.0214 65.6459 46.3384C66.3776 47.0702 66.7808 48.0458 66.7808 49.0864C66.7808 50.1271 66.3776 51.1027 65.6459 51.8344L59.1825 58.2978C58.8768 58.6019 58.3841 58.6019 58.0784 58.2978C57.7743 57.9921 57.7743 57.4994 58.0784 57.1937L64.5418 50.7303C65.4491 49.823 65.4491 48.3482 64.5418 47.4425C64.2751 47.1758 63.9532 46.9823 63.602 46.8718C63.5808 46.8669 63.5581 46.8604 63.5369 46.8523C63.332 46.7937 63.1174 46.7645 62.8963 46.7645C62.2735 46.7645 61.6881 47.0051 61.2524 47.4425L54.789 53.9059C53.8507 54.8441 52.9516 55.675 52.08 56.4767C47.9857 60.2539 45.2816 62.7498 46.4768 69.3547C46.5532 69.7791 46.2719 70.1856 45.8475 70.262C45.4231 70.3368 45.0166 70.0571 44.9402 69.6328C43.5922 62.1823 46.8703 59.158 51.0215 55.3287C51.88 54.5368 52.7678 53.7173 53.6849 52.8002L60.1483 46.3368C60.906 45.5775 61.9353 45.171 63.0117 45.2035V31.8262C63.0117 30.6051 63.4898 29.4539 64.3581 28.5856C65.2264 27.7173 66.3776 27.2393 67.5987 27.2393C70.1288 27.2393 72.1857 29.2978 72.1857 31.8262V41.9775C72.1857 45.5027 72.3174 48.0458 72.4231 50.088C72.7841 57.0458 72.6621 57.3059 65.8963 63.971C65.2312 64.6263 64.4995 65.3482 63.6946 66.1482C63.5483 66.2945 63.3955 66.4393 63.241 66.5872C62.1418 67.636 61.4833 68.3482 61.6068 69.4002C61.6572 69.8279 61.3516 70.2165 60.9223 70.2669C60.893 70.2734 60.8621 70.275 60.8312 70.275Z" fill="url(#paint0_linear_1782_3089)"/>
<path d="M60.0572 69.5856L56.0848 70.0545L56.0852 70.0577L60.0572 69.5856ZM62.1646 65.4604L64.9242 68.356L64.928 68.3524L62.1646 65.4604ZM62.5938 65.0441L59.774 62.2071L59.7654 62.2157L62.5938 65.0441ZM64.802 62.862L67.606 65.7146L67.6097 65.711L64.802 62.862ZM70.415 56.5124L74.0294 58.2259L74.0299 58.2248L70.415 56.5124ZM70.8654 50.171L74.86 49.9641L74.86 49.9629L70.8654 50.171ZM64.5743 45.5791H60.5743V48.1069L62.8575 49.1919L64.5743 45.5791ZM65.6459 46.3384L62.8102 49.1596L62.8174 49.1669L65.6459 46.3384ZM65.6459 51.8344L68.4743 54.6628L68.4743 54.6628L65.6459 51.8344ZM59.1825 58.2978L62.0033 61.1338L62.0109 61.1262L59.1825 58.2978ZM58.0784 58.2978L55.2424 61.1187L55.2499 61.1262L55.2575 61.1338L58.0784 58.2978ZM58.0784 57.1937L55.2499 54.3653L55.2424 54.3729L58.0784 57.1937ZM64.5418 50.7303L67.3702 53.5587L64.5418 50.7303ZM64.5418 47.4425L61.7134 50.2709L61.7159 50.2735L64.5418 47.4425ZM63.602 46.8718L64.8031 43.0564L64.6539 43.0094L64.5014 42.9742L63.602 46.8718ZM63.5369 46.8523L64.9728 43.1189L64.8068 43.055L64.6358 43.0062L63.5369 46.8523ZM61.2524 47.4425L64.0808 50.2709L64.0861 50.2657L61.2524 47.4425ZM54.789 53.9059L57.6174 56.7344L54.789 53.9059ZM52.08 56.4767L49.3721 53.5326L49.3677 53.5367L52.08 56.4767ZM46.4768 69.3547L50.4134 68.6458L50.4128 68.6425L46.4768 69.3547ZM45.8475 70.262L46.5418 74.2013L46.5491 74.2L46.5564 74.1987L45.8475 70.262ZM44.9402 69.6328L48.8769 68.9238L48.8763 68.9206L44.9402 69.6328ZM51.0215 55.3287L48.3095 52.3884L48.3094 52.3885L51.0215 55.3287ZM60.1483 46.3368L62.9767 49.1652L62.9798 49.1622L60.1483 46.3368ZM63.0117 45.2035L62.8909 49.2017L67.0117 49.3262V45.2035H63.0117ZM72.4231 50.088L68.4284 50.2948L68.4285 50.2953L72.4231 50.088ZM65.8963 63.971L63.0892 61.1214L63.0888 61.1217L65.8963 63.971ZM63.6946 66.1482L60.8748 63.3112L60.8662 63.3198L63.6946 66.1482ZM63.241 66.5872L66.0023 69.4812L66.0079 69.4758L63.241 66.5872ZM61.6068 69.4002L57.6342 69.8669L57.6343 69.8685L61.6068 69.4002ZM60.9223 70.2669L60.4558 66.2942L60.2534 66.318L60.0546 66.3622L60.9223 70.2669ZM60.8312 70.275V66.275C62.4521 66.275 63.8354 67.4826 64.0293 69.1135L60.0572 69.5856L56.0852 70.0577C56.3733 72.4821 58.4299 74.275 60.8312 74.275V70.275ZM60.0572 69.5856L64.0297 69.1167C64.0339 69.1524 64.0327 69.2263 64.0116 69.3055C63.9935 69.3736 63.9772 69.3836 64.0148 69.3243C64.0565 69.2586 64.1394 69.1468 64.2993 68.9743C64.4657 68.7947 64.6528 68.6147 64.9242 68.356L62.1646 65.4604L59.4049 62.5648C58.6011 63.3309 55.5943 65.8993 56.0848 70.0545L60.0572 69.5856ZM62.1646 65.4604L64.928 68.3524C65.0674 68.2191 65.2461 68.0487 65.4223 67.8726L62.5938 65.0441L59.7654 62.2157C59.6651 62.316 59.5544 62.422 59.4011 62.5684L62.1646 65.4604ZM62.5938 65.0441L65.4137 67.8811C66.2138 67.0858 66.9417 66.3676 67.606 65.7146L64.802 62.862L61.9979 60.0094C61.3256 60.6703 60.5869 61.3992 59.774 62.2071L62.5938 65.0441ZM64.802 62.862L67.6097 65.711C69.2035 64.1403 70.5166 62.8483 71.5125 61.7546C72.5058 60.6636 73.4109 59.5305 74.0294 58.2259L70.415 56.5124L66.8006 54.7989C66.6906 55.0309 66.4152 55.4702 65.5971 56.3686C64.7816 57.2643 63.6524 58.3789 61.9943 60.013L64.802 62.862ZM70.415 56.5124L74.0299 58.2248C75.2623 55.623 75.0068 52.7991 74.86 49.9641L70.8654 50.171L66.8707 50.3778C67.0589 54.0111 66.9725 54.436 66.8 54.8001L70.415 56.5124ZM70.8654 50.171L74.86 49.9629C74.7535 47.9198 74.6264 45.4395 74.6264 41.9807H70.6264H66.6264C66.6264 45.6537 66.7626 48.3018 66.8708 50.379L70.8654 50.171ZM70.6264 41.9807H74.6264V31.8295H70.6264H66.6264V41.9807H70.6264ZM70.6264 31.8295H74.6264C74.6264 27.9521 71.4778 24.8035 67.6003 24.8035V28.8035V32.8035C67.0595 32.8035 66.6264 32.3703 66.6264 31.8295H70.6264ZM67.6003 28.8035V24.8035C65.7272 24.8035 63.953 25.5468 62.6353 26.8645L65.4637 29.6929L68.2922 32.5213C68.1224 32.6911 67.867 32.8035 67.6003 32.8035V28.8035ZM65.4637 29.6929L62.6353 26.8645C61.3184 28.1814 60.5743 29.9536 60.5743 31.8295H64.5743H68.5743C68.5743 32.0957 68.4611 32.3524 68.2922 32.5213L65.4637 29.6929ZM64.5743 31.8295H60.5743V45.5791H64.5743H68.5743V31.8295H64.5743ZM64.5743 45.5791L62.8575 49.1919C62.8356 49.1815 62.8196 49.1691 62.8102 49.1596L65.6459 46.3384L68.4816 43.5173C67.8413 42.8737 67.1001 42.3507 66.2912 41.9663L64.5743 45.5791ZM65.6459 46.3384L62.8174 49.1669C62.8124 49.1618 62.8003 49.1469 62.7908 49.1238C62.7812 49.1008 62.7808 49.0856 62.7808 49.0864H66.7808H70.7808C70.7808 46.9904 69.96 44.9958 68.4743 43.51L65.6459 46.3384ZM66.7808 49.0864H62.7808C62.7808 49.0873 62.7812 49.0721 62.7908 49.049C62.8003 49.0259 62.8124 49.011 62.8174 49.006L65.6459 51.8344L68.4743 54.6628C69.96 53.1771 70.7808 51.1824 70.7808 49.0864H66.7808ZM65.6459 51.8344L62.8174 49.006L56.354 55.4694L59.1825 58.2978L62.0109 61.1262L68.4743 54.6628L65.6459 51.8344ZM59.1825 58.2978L56.3616 55.4618C57.6162 54.2138 59.6446 54.2138 60.8993 55.4618L58.0784 58.2978L55.2575 61.1338C57.1236 62.9899 60.1373 62.9899 62.0033 61.1338L59.1825 58.2978ZM58.0784 58.2978L60.9143 55.4769C62.1623 56.7316 62.1623 58.7599 60.9143 60.0146L58.0784 57.1937L55.2424 54.3729C53.3863 56.2389 53.3863 59.2526 55.2424 61.1187L58.0784 58.2978ZM58.0784 57.1937L60.9068 60.0222L67.3702 53.5587L64.5418 50.7303L61.7134 47.9019L55.25 54.3653L58.0784 57.1937ZM64.5418 50.7303L67.3702 53.5587C69.8382 51.0907 69.8419 47.0813 67.3677 44.6115L64.5418 47.4425L61.7159 50.2735C61.0563 49.6151 61.06 48.5553 61.7134 47.9019L64.5418 50.7303ZM64.5418 47.4425L67.3702 44.6141C66.646 43.8899 65.765 43.3592 64.8031 43.0564L63.602 46.8718L62.4008 50.6872C62.1414 50.6055 61.9042 50.4618 61.7134 50.2709L64.5418 47.4425ZM63.602 46.8718L64.5014 42.9742C64.6133 43 64.7775 43.0438 64.9728 43.1189L63.5369 46.8523L62.101 50.5857C62.3386 50.677 62.5483 50.7338 62.7025 50.7693L63.602 46.8718ZM63.5369 46.8523L64.6358 43.0062C64.0576 42.841 63.4721 42.7645 62.8963 42.7645V46.7645V50.7645C62.7627 50.7645 62.6064 50.7465 62.438 50.6984L63.5369 46.8523ZM62.8963 46.7645V42.7645C61.2259 42.7645 59.6161 43.4174 58.4187 44.6194L61.2524 47.4425L64.0861 50.2657C63.7602 50.5928 63.3211 50.7645 62.8963 50.7645V46.7645ZM61.2524 47.4425L58.4239 44.6141L51.9605 51.0775L54.789 53.9059L57.6174 56.7344L64.0808 50.2709L61.2524 47.4425ZM54.789 53.9059L51.9605 51.0775C51.0874 51.9506 50.2432 52.7314 49.3721 53.5326L52.08 56.4767L54.7879 59.4207C55.6599 58.6187 56.6141 57.7376 57.6174 56.7344L54.789 53.9059ZM52.08 56.4767L49.3677 53.5367C47.4527 55.3033 45.1931 57.3307 43.7757 59.9538C42.2128 62.8463 41.8201 66.0847 42.5407 70.0669L46.4768 69.3547L50.4128 68.6425C49.9383 66.0198 50.3001 64.7079 50.814 63.7569C51.4734 62.5364 52.613 61.4272 54.7923 59.4166L52.08 56.4767ZM46.4768 69.3547L42.5401 70.0636C42.2265 68.3225 43.3801 66.642 45.1386 66.3253L45.8475 70.262L46.5564 74.1987C49.1636 73.7292 50.8798 71.2357 50.4134 68.6458L46.4768 69.3547ZM45.8475 70.262L45.1532 66.3227C46.87 66.0202 48.5576 67.1512 48.8769 68.9238L44.9402 69.6328L41.0035 70.3417C41.4756 72.9631 43.9762 74.6535 46.5418 74.2013L45.8475 70.262ZM44.9402 69.6328L48.8763 68.9206C48.335 65.9291 48.7706 64.2595 49.4381 63.0237C50.233 61.552 51.5465 60.2863 53.7336 58.2688L51.0215 55.3287L48.3094 52.3885C46.3453 54.2003 43.9441 56.3615 42.3992 59.2219C40.7268 62.3182 40.1974 65.886 41.0041 70.3449L44.9402 69.6328ZM51.0215 55.3287L53.7334 58.269C54.5869 57.4818 55.5312 56.6107 56.5133 55.6287L53.6849 52.8002L50.8565 49.9718C50.0044 50.8239 49.1732 51.5918 48.3095 52.3884L51.0215 55.3287ZM53.6849 52.8002L56.5133 55.6287L62.9767 49.1652L60.1483 46.3368L57.3199 43.5084L50.8565 49.9718L53.6849 52.8002ZM60.1483 46.3368L62.9798 49.1622C62.9694 49.1726 62.9525 49.1846 62.9319 49.1928C62.9114 49.2009 62.8959 49.2018 62.8909 49.2017L63.0117 45.2035L63.1325 41.2053C60.9607 41.1397 58.8605 41.9644 57.3168 43.5114L60.1483 46.3368ZM63.0117 45.2035H67.0117V31.8262H63.0117H59.0117V45.2035H63.0117ZM63.0117 31.8262H67.0117C67.0117 31.6718 67.0642 31.5363 67.1865 31.414L64.3581 28.5856L61.5296 25.7572C59.9153 27.3715 59.0117 29.5384 59.0117 31.8262H63.0117ZM64.3581 28.5856L67.1865 31.414C67.3088 31.2917 67.4443 31.2393 67.5987 31.2393V27.2393V23.2393C65.3109 23.2393 63.1439 24.1429 61.5296 25.7572L64.3581 28.5856ZM67.5987 27.2393V31.2393C67.9187 31.2393 68.1857 31.506 68.1857 31.8262H72.1857H76.1857C76.1857 27.0896 72.3388 23.2393 67.5987 23.2393V27.2393ZM72.1857 31.8262H68.1857V41.9775H72.1857H76.1857V31.8262H72.1857ZM72.1857 41.9775H68.1857C68.1857 45.6105 68.322 48.2384 68.4284 50.2948L72.4231 50.088L76.4178 49.8813C76.3128 47.8532 76.1857 45.3948 76.1857 41.9775H72.1857ZM72.4231 50.088L68.4285 50.2953C68.6231 54.0458 68.5345 54.7521 68.2123 55.4375C68.0346 55.8154 67.6852 56.3563 66.8396 57.3019C65.9839 58.2588 64.8065 59.4296 63.0892 61.1214L65.8963 63.971L68.7034 66.8205C70.369 65.1798 71.744 63.8187 72.8028 62.6348C73.8716 61.4397 74.7988 60.231 75.4522 58.841C76.7922 55.9907 76.5841 53.088 76.4177 49.8808L72.4231 50.088ZM65.8963 63.971L63.0888 61.1217C62.4224 61.7783 61.6859 62.505 60.8748 63.3112L63.6946 66.1482L66.5145 68.9852C67.3132 68.1914 68.04 67.4742 68.7037 66.8202L65.8963 63.971ZM63.6946 66.1482L60.8662 63.3198C60.7594 63.4266 60.6526 63.5276 60.474 63.6986L63.241 66.5872L66.0079 69.4758C66.1383 69.3509 66.3372 69.1625 66.5231 68.9766L63.6946 66.1482ZM63.241 66.5872L60.4797 63.6932C59.686 64.4505 57.2419 66.5272 57.6342 69.8669L61.6068 69.4002L65.5795 68.9336C65.6052 69.1518 65.594 69.4185 65.5208 69.6936C65.4513 69.9545 65.3534 70.1198 65.3186 70.1733C65.2916 70.2149 65.3079 70.1806 65.4347 70.0442C65.562 69.9071 65.7357 69.7356 66.0023 69.4812L63.241 66.5872ZM61.6068 69.4002L57.6343 69.8685C57.4264 68.1043 58.6875 66.5018 60.4558 66.2942L60.9223 70.2669L61.3888 74.2396C64.0156 73.9312 65.8881 71.5514 65.5793 68.932L61.6068 69.4002ZM60.9223 70.2669L60.0546 66.3622C60.4442 66.2756 60.7504 66.275 60.8312 66.275V70.275V74.275C60.9739 74.275 61.3418 74.2713 61.79 74.1716L60.9223 70.2669Z" fill="url(#paint1_linear_1782_3089)" mask="url(#path-1-inside-1_1782_3089)"/>
<path d="M61.321 75.8669H45.2218C43.2494 75.8669 41.6445 74.262 41.6445 72.2896V69.4929C41.6445 69.062 41.9941 68.7124 42.425 68.7124H64.1161C64.547 68.7124 64.8966 69.062 64.8966 69.4929V72.2896C64.8982 74.262 63.2933 75.8669 61.321 75.8669ZM43.2071 70.275V72.2913C43.2071 73.4035 44.1112 74.3075 45.2234 74.3075H61.3226C62.4348 74.3075 63.3388 73.4035 63.3388 72.2913V70.275H43.2071Z" fill="url(#paint2_linear_1782_3089)"/>
<path d="M19.2525 70.275C19.2216 70.275 19.1907 70.2734 19.1598 70.2702C18.7322 70.2197 18.4249 69.8311 18.4753 69.4035C18.5988 68.3515 17.9403 67.6393 16.8411 66.5905C16.6866 66.4441 16.5354 66.2978 16.3875 66.1531C15.5826 65.3531 14.8509 64.6311 14.1858 63.9759C7.41998 57.3092 7.29803 57.0506 7.659 50.0929C7.7647 48.0506 7.8964 45.5076 7.8964 41.9824V31.8311C7.8964 29.301 9.95331 27.2441 12.4834 27.2441C13.7045 27.2441 14.8558 27.7222 15.724 28.5905C16.5923 29.4588 17.0704 30.61 17.0704 31.8311V45.2084C18.1452 45.1775 19.1745 45.5824 19.9338 46.3417L26.3972 52.8051C27.3127 53.7206 28.2021 54.5401 29.0606 55.3336C33.2102 59.1628 36.4899 62.1872 35.1419 69.6376C35.0655 70.062 34.659 70.3433 34.2346 70.2669C33.8102 70.1905 33.5289 69.784 33.6053 69.3596C34.8005 62.7531 32.0964 60.2588 28.0021 56.4815C27.1322 55.6783 26.233 54.849 25.2932 53.9108L18.8297 47.4474C18.3923 47.01 17.8086 46.7693 17.1858 46.7693C16.9663 46.7693 16.7501 46.7986 16.5452 46.8572C16.524 46.8637 16.5029 46.8702 16.4818 46.8767C16.1306 46.9872 15.8086 47.1807 15.5419 47.4474C14.6346 48.3547 14.6346 49.8295 15.5419 50.7352L22.0053 57.1986C22.3094 57.5043 22.3094 57.997 22.0053 58.3027C21.7013 58.6067 21.207 58.6067 20.9013 58.3027L14.4379 51.8393C12.9224 50.3238 12.9224 47.8588 14.4379 46.3433C14.7549 46.0263 15.1175 45.771 15.511 45.584V31.8344C15.511 31.0311 15.1956 30.2718 14.6216 29.6978C14.0476 29.1238 13.2883 28.8084 12.485 28.8084C10.8167 28.8084 9.459 30.1661 9.459 31.8344V41.9856C9.459 45.5515 9.32567 48.1157 9.21998 50.1758C9.0525 53.4116 8.96795 55.0344 9.67039 56.5173C10.3988 58.0539 12.0314 59.662 15.2834 62.8669C15.9501 63.5238 16.6834 64.2474 17.4899 65.049C17.6297 65.1872 17.7745 65.3254 17.9192 65.4653C18.9582 66.4555 20.2509 67.6897 20.0265 69.5905C19.9793 69.9824 19.6427 70.275 19.2525 70.275Z" fill="url(#paint3_linear_1782_3089)"/>
<path d="M34.86 75.8669H18.7608C16.7885 75.8669 15.1836 74.262 15.1836 72.2896V69.4929C15.1836 69.062 15.5332 68.7124 15.9641 68.7124H37.6551C38.086 68.7124 38.4356 69.062 38.4356 69.4929V72.2896C38.4373 74.262 36.8324 75.8669 34.86 75.8669ZM16.7462 70.275V72.2913C16.7462 73.4035 17.6503 74.3075 18.7625 74.3075H34.8616C35.9738 74.3075 36.8779 73.4035 36.8779 72.2913V70.275H16.7462Z" fill="url(#paint4_linear_1782_3089)"/>
<path d="M55.3354 38.0635H51.0785C50.6476 38.0635 50.298 37.7139 50.298 37.283C50.298 31.6293 45.698 27.0309 40.0444 27.0309C34.3907 27.0309 29.7923 31.6293 29.7907 37.283C29.7907 37.7139 29.4411 38.0635 29.0102 38.0635H24.7533C22.0265 38.0635 19.8086 35.8456 19.8086 33.1187V9.31874C19.8086 6.59191 22.0265 4.37402 24.7533 4.37402H55.3354C58.0622 4.37402 60.2801 6.59191 60.2801 9.31874V33.1171C60.2801 35.8439 58.0622 38.0635 55.3354 38.0635ZM51.833 36.5025H55.3354C57.2021 36.5025 58.7192 34.9838 58.7192 33.1187V9.31874C58.7192 7.45207 57.2005 5.935 55.3354 5.935H24.7533C22.8866 5.935 21.3696 7.4537 21.3696 9.31874V33.1171C21.3696 34.9838 22.8883 36.5009 24.7533 36.5009H28.2557C28.659 30.3496 33.7923 25.4683 40.0444 25.4683C46.2964 25.47 51.4297 30.3513 51.833 36.5025Z" fill="url(#paint5_linear_1782_3089)"/>
<path d="M54.2625 32.8278H49.7568C49.4706 32.8278 49.2072 32.67 49.0706 32.418C47.2755 29.0944 43.817 27.031 40.043 27.031C36.2706 27.031 32.8105 29.096 31.0153 32.418C30.8787 32.67 30.6153 32.8278 30.3291 32.8278H25.8235C25.3926 32.8278 25.043 32.4782 25.043 32.0473V10.3904C25.043 9.95946 25.3926 9.60986 25.8235 9.60986H54.2625C54.6934 9.60986 55.043 9.95946 55.043 10.3904V32.0473C55.043 32.4782 54.6934 32.8278 54.2625 32.8278ZM50.2121 31.2668H53.482V11.1708H26.6039V31.2668H29.8739C31.9991 27.6798 35.8527 25.47 40.043 25.47C44.2332 25.47 48.0869 27.6782 50.2121 31.2668Z" fill="url(#paint6_linear_1782_3089)"/>
<path d="M43.0191 20.3936C42.7785 20.3936 42.5443 20.2814 42.3948 20.0814L40.1378 17.0733L37.6744 20.1058C37.4663 20.3627 37.1183 20.4603 36.8078 20.3497C36.4972 20.2391 36.2891 19.9448 36.2891 19.6147V10.3904C36.2891 9.95946 36.6387 9.60986 37.0696 9.60986H43.0191C43.45 9.60986 43.7996 9.95946 43.7996 10.3904V19.6131C43.7996 19.9497 43.585 20.2473 43.2663 20.353C43.1834 20.379 43.1004 20.3936 43.0191 20.3936ZM37.85 11.1708V17.4147L39.5574 15.3139C39.7086 15.1269 39.9395 15.0212 40.1785 15.0261C40.4191 15.031 40.6435 15.1464 40.7882 15.3383L42.2387 17.2733V11.1708H37.85Z" fill="url(#paint7_linear_1782_3089)"/>
<path d="M49.204 28.6031H45.7211C45.5796 28.6031 45.4398 28.5641 45.3194 28.4909C43.7308 27.5349 41.9064 27.0308 40.043 27.0308C38.1796 27.0308 36.3552 27.5365 34.7666 28.4909C34.6447 28.5641 34.5064 28.6031 34.365 28.6031H30.882C30.4512 28.6031 30.1016 28.2536 30.1016 27.8227V23.8357C30.1016 23.4048 30.4512 23.0552 30.882 23.0552H49.2073C49.6381 23.0552 49.9877 23.4048 49.9877 23.8357V27.8227C49.9845 28.2536 49.6349 28.6031 49.204 28.6031ZM45.9341 27.0422H48.4235V24.6162H31.6593V27.0422H34.1487C35.9357 26.0129 37.9682 25.4698 40.0414 25.4698C42.1146 25.4698 44.1471 26.0129 45.9341 27.0422Z" fill="url(#paint8_linear_1782_3089)"/>
<path d="M40.0435 49.0974C33.5297 49.0974 28.2305 43.7982 28.2305 37.2844C28.2305 30.7705 33.5297 25.4697 40.0435 25.4697C46.5573 25.4697 51.8581 30.7689 51.8581 37.2844C51.8581 43.7966 46.5573 49.0974 40.0435 49.0974ZM40.0435 27.0307C34.3898 27.0307 29.7914 31.6307 29.7914 37.2844C29.7914 42.938 34.3914 47.538 40.0435 47.538C45.6971 47.538 50.2971 42.938 50.2971 37.2844C50.2971 31.6307 45.6971 27.0307 40.0435 27.0307Z" fill="url(#paint9_linear_1782_3089)"/>
<path d="M36.9686 44.1352C36.7686 44.1352 36.5686 44.0588 36.4174 43.9059L32.6304 40.119C32.3263 39.8149 32.3263 39.3206 32.6304 39.0149L34.8385 36.8068C35.1426 36.5011 35.6369 36.5011 35.9426 36.8068L36.9702 37.8344L44.1442 30.6604C44.4499 30.3547 44.9426 30.3547 45.2483 30.6604L47.4564 32.8686C47.7605 33.1726 47.7605 33.6669 47.4564 33.9726L37.5231 43.9059C37.3686 44.0588 37.1686 44.1352 36.9686 44.1352ZM34.2857 39.5677L36.9686 42.2507L45.7995 33.4198L44.6954 32.3157L37.5215 39.4897C37.2174 39.7954 36.7231 39.7954 36.4174 39.4897L35.3897 38.462L34.2857 39.5677Z" fill="url(#paint10_linear_1782_3089)"/>
<defs>
<linearGradient id="paint0_linear_1782_3089" x1="58.584" y1="27.2393" x2="58.584" y2="70.275" gradientUnits="userSpaceOnUse">
<stop stop-color="#9747FF"/>
<stop offset="1" stop-color="#4B9ADB"/>
</linearGradient>
<linearGradient id="paint1_linear_1782_3089" x1="58.584" y1="27.2393" x2="58.584" y2="70.275" gradientUnits="userSpaceOnUse">
<stop stop-color="#9747FF"/>
<stop offset="1" stop-color="#4B9ADB"/>
</linearGradient>
<linearGradient id="paint2_linear_1782_3089" x1="53.2705" y1="68.7124" x2="53.2705" y2="75.8669" gradientUnits="userSpaceOnUse">
<stop stop-color="#9747FF"/>
<stop offset="1" stop-color="#4B9ADB"/>
</linearGradient>
<linearGradient id="paint3_linear_1782_3089" x1="21.498" y1="27.2441" x2="21.498" y2="70.2794" gradientUnits="userSpaceOnUse">
<stop stop-color="#9747FF"/>
<stop offset="1" stop-color="#4B9ADB"/>
</linearGradient>
<linearGradient id="paint4_linear_1782_3089" x1="26.8096" y1="68.7124" x2="26.8096" y2="75.8669" gradientUnits="userSpaceOnUse">
<stop stop-color="#9747FF"/>
<stop offset="1" stop-color="#4B9ADB"/>
</linearGradient>
<linearGradient id="paint5_linear_1782_3089" x1="40.0444" y1="4.37402" x2="40.0444" y2="38.0635" gradientUnits="userSpaceOnUse">
<stop stop-color="#9747FF"/>
<stop offset="1" stop-color="#4B9ADB"/>
</linearGradient>
<linearGradient id="paint6_linear_1782_3089" x1="40.043" y1="9.60986" x2="40.043" y2="32.8278" gradientUnits="userSpaceOnUse">
<stop stop-color="#9747FF"/>
<stop offset="1" stop-color="#4B9ADB"/>
</linearGradient>
<linearGradient id="paint7_linear_1782_3089" x1="40.0443" y1="9.60986" x2="40.0443" y2="20.3947" gradientUnits="userSpaceOnUse">
<stop stop-color="#9747FF"/>
<stop offset="1" stop-color="#4B9ADB"/>
</linearGradient>
<linearGradient id="paint8_linear_1782_3089" x1="40.0447" y1="23.0552" x2="40.0447" y2="28.6031" gradientUnits="userSpaceOnUse">
<stop stop-color="#9747FF"/>
<stop offset="1" stop-color="#4B9ADB"/>
</linearGradient>
<linearGradient id="paint9_linear_1782_3089" x1="40.0443" y1="25.4697" x2="40.0443" y2="49.0974" gradientUnits="userSpaceOnUse">
<stop stop-color="#9747FF"/>
<stop offset="1" stop-color="#4B9ADB"/>
</linearGradient>
<linearGradient id="paint10_linear_1782_3089" x1="40.0434" y1="30.4312" x2="40.0434" y2="44.1352" gradientUnits="userSpaceOnUse">
<stop stop-color="#9747FF"/>
<stop offset="1" stop-color="#4B9ADB"/>
</linearGradient>
</defs>
</svg>
