<svg width="80" height="80" viewBox="0 0 80 80" fill="none" xmlns="http://www.w3.org/2000/svg">
<g clip-path="url(#clip0_1783_3153)">
<path d="M70.1381 46.2335C75.9458 43.5923 80 37.751 80 30.9677C80 21.7187 72.4748 14.1935 63.2258 14.1935C62.3032 14.1935 61.391 14.2968 60.4852 14.4452C60.0284 12.8168 58.5471 11.6129 56.7742 11.6129H51.6129C48.0555 11.6129 45.1613 14.5071 45.1613 18.0645V43.871C45.1613 46.7355 47.0503 49.1419 49.6387 49.9806C47.6026 52.6594 46.4516 55.9561 46.4516 59.3548V65.9497L34.8387 55.9961V38.7097C34.8387 36.5755 33.1019 34.8387 30.9677 34.8387V21.9355C30.9677 18.3781 28.0735 15.4839 24.5161 15.4839H20.6452V12.9032H17.5523L19.6026 10.511L17.3845 6.07613L7.58452 10.2761L6.30064 0H0V37.4194V38.7097V80H10.3226V37.4194H6.64903L7.56516 31.0052L17.3832 35.2129L19.6013 30.7781L11.6129 21.4581V20.6452H20.6452V18.0645H24.5161C26.6503 18.0645 28.3871 19.8013 28.3871 21.9355V34.8387C26.2529 34.8387 24.5161 36.5755 24.5161 38.7097V59.9135V69.6774C24.5161 71.8116 26.2529 73.5484 28.3871 73.5484H30.9677C32.5626 73.5484 33.9329 72.5794 34.5252 71.1987L42.4697 78.0839C43.8968 79.32 45.7213 80 47.6064 80C47.6064 80 47.6077 80 47.609 80C47.6529 80 47.6968 79.9948 47.7419 79.9935V80H77.4193V59.3548C77.4193 53.969 74.5871 49.0258 70.1381 46.2335ZM7.74194 40V77.4193H2.58065V40H7.74194ZM9.03226 18.8774V22.4129L16.5277 31.1561L16.1652 31.8826L8.00645 28.3871H5.3329L4.04258 37.4194H2.58065V2.58065H4.02194L5.31226 12.9032H8.00645L16.1639 9.40774L16.5265 10.1342L9.03226 18.8774ZM18.0645 18.0645H13.1277L15.3394 15.4839H18.0645V18.0645ZM60.6452 17.0361C61.4955 16.88 62.3548 16.7742 63.2258 16.7742C71.0516 16.7742 77.4193 23.1406 77.4193 30.9677C77.4193 35.7742 75.0116 40.0232 71.3445 42.5923L69.6065 41.5484C67.5819 40.3342 66.2194 38.2503 65.8865 35.9432C68.0684 35.3419 69.6774 33.3381 69.6774 30.9677C69.6774 28.449 67.8645 26.3471 65.4761 25.8955L64.1561 21.9355H60.6452V17.0361ZM60.6452 24.5161H62.2955L63.5858 28.3871H64.5161C65.9394 28.3871 67.0968 29.5445 67.0968 30.9677C67.0968 32.391 65.9394 33.5484 64.5161 33.5484H63.2258V34.8387C63.2258 38.4723 65.1613 41.8916 68.2787 43.7626L68.7471 44.0439C67.049 44.7626 65.1832 45.1613 63.2258 45.1613C62.3548 45.1613 61.4955 45.0555 60.6452 44.8994V24.5161ZM47.7419 43.871V40H51.6129C53.7471 40 55.4839 38.2632 55.4839 36.129V34.8387H52.9032V36.129C52.9032 36.84 52.3239 37.4194 51.6129 37.4194H47.7419V24.5161H51.6129C52.3239 24.5161 52.9032 25.0955 52.9032 25.8064V32.2581H55.4839V25.8064C55.4839 23.6723 53.7471 21.9355 51.6129 21.9355H47.7419V18.0645C47.7419 15.9303 49.4787 14.1935 51.6129 14.1935H56.7742C57.4852 14.1935 58.0645 14.7729 58.0645 15.4839V46.4516C58.0645 47.1626 57.4852 47.7419 56.7742 47.7419H51.6129C49.4787 47.7419 47.7419 46.0052 47.7419 43.871ZM27.0968 38.7097C27.0968 37.9987 27.6761 37.4194 28.3871 37.4194H30.9677C31.6787 37.4194 32.2581 37.9987 32.2581 38.7097V40H27.0968V38.7097ZM27.0968 42.5806H32.2581V54.4542C31.7277 54.2955 31.1806 54.1935 30.6194 54.1935H30.2361C29.0761 54.1935 28 54.5458 27.0968 55.1406V42.5806ZM32.2581 69.6774C32.2581 70.3884 31.6787 70.9677 30.9677 70.9677H28.3871C27.6761 70.9677 27.0968 70.3884 27.0968 69.6774V64.7613L32.2581 69.2348V69.6774ZM47.6077 77.4193H47.6064C46.3406 77.4193 45.1161 76.9626 44.1587 76.1329L28.1794 62.2852C27.4916 61.689 27.0968 60.8245 27.0968 59.9135C27.0968 58.1819 28.5045 56.7742 30.2361 56.7742H30.6194C31.369 56.7742 32.0942 57.0426 32.6619 57.529L49.4826 71.9471L51.1626 69.9871L49.4413 68.511L55.4839 62.4697L60.111 67.0968L51.329 75.8787C50.3355 76.871 49.0142 77.4193 47.6077 77.4193ZM57.3084 60.6452L64.0916 53.8619C64.7097 53.2426 65.5316 52.9032 66.4052 52.9032C68.209 52.9032 69.6774 54.3703 69.6774 56.1742C69.6774 57.0477 69.3368 57.8697 68.7187 58.4877L61.9355 65.271L57.3084 60.6452ZM74.8387 77.4193H53.4374L70.5445 60.3123C71.649 59.2077 72.2581 57.7381 72.2581 56.1742C72.2581 52.9471 69.6323 50.3226 66.4052 50.3226C64.8426 50.3226 63.3716 50.9316 62.2671 52.0374L49.0323 65.271V59.3548C49.0323 55.9303 50.3548 52.7471 52.7432 50.3226H56.7742C58.5471 50.3226 60.0284 49.1187 60.4852 47.4903C61.391 47.6387 62.3032 47.7419 63.2258 47.7419C64.4206 47.7419 65.5845 47.6116 66.7084 47.3729C71.5845 49.3174 74.8387 54.0813 74.8387 59.3548V77.4193Z" fill="#393939"/>
<path d="M52.9049 16.7744H50.3242V19.3551H52.9049V16.7744Z" fill="#393939"/>
</g>
<defs>
<clipPath id="clip0_1783_3153">
<rect width="80" height="80" fill="white"/>
</clipPath>
</defs>
</svg>
